M48
;GenerationSoftware,Autodesk,EAGLE,9.6.2*%
;CreationDate,2022-04-21T10:11:51Z*%
FMAT,2
ICI,OFF
METRIC,TZ,000.000
T3C0.200
T2C0.300
T1C0.650
%
G90
M71
T1
X140Y3504
X7768Y123
X9038Y123
X10308Y123
X2688Y123
X11578Y123
X12848Y123
X6498Y123
X5228Y123
X140Y8584
X140Y9854
X140Y11124
X140Y12394
X140Y13664
X140Y7314
X140Y6044
X140Y4774
X3958Y123
X7760Y16167
X9030Y16167
X10300Y16167
X11570Y16167
X12840Y16167
X6490Y16167
X5220Y16167
X3950Y16167
X2680Y16167
T2
X8890Y1651
X2159Y7366
X2286Y11303
X4191Y4318
X11684Y5080
X2921Y12827
X6096Y1905
X6985Y4572
T3
X22130Y15704
X21130Y15704
X20130Y15704
X19130Y15704
X18130Y15704
X17130Y15704
X23130Y14454
X22130Y14454
X21130Y14454
X20130Y14454
X19130Y14454
X18130Y14454
X17130Y14454
X24130Y10307
X24130Y9057
X24130Y7807
X24130Y6557
X24130Y5438
X24130Y4192
X24130Y2946
X24130Y1573
X23130Y10307
X22130Y10307
X21130Y10307
X20130Y10307
X19130Y10307
X18130Y10307
X17130Y10307
X23130Y9057
X22130Y9057
X21130Y9057
X20130Y9057
X19130Y9057
X18130Y9057
X17130Y9057
X23130Y7807
X22130Y7807
X21130Y7807
X20130Y7807
X19130Y7807
X18130Y7807
X17130Y7807
X23130Y6557
X22130Y6557
X21130Y6557
X20130Y6557
X19130Y6557
X18130Y6557
X17130Y6557
X23130Y5438
X22130Y5438
X21130Y5438
X20130Y5438
X19130Y5438
X18130Y5438
X17130Y5438
X23130Y4192
X22130Y4192
X21130Y4192
X20130Y4192
X19130Y4192
X18130Y4192
X17130Y4192
X23130Y2946
X22130Y2946
X21130Y2946
X20130Y2946
X19130Y2946
X18130Y2946
X17130Y2946
X23130Y1573
X22130Y1573
X21130Y1573
X20130Y1573
X19130Y1573
X18130Y1573
X17130Y1573
X16007Y557
X14630Y557
X16130Y15704
X15130Y15704
X14130Y15704
X16130Y14454
X15130Y14454
X14130Y14454
X17130Y557
X18130Y557
X19130Y557
X20130Y557
X21130Y557
X22130Y557
X23130Y557
X24130Y557
X7478Y9164
X7478Y10180
X7478Y11069
X7478Y8275
X7478Y7259
X6589Y8275
X5700Y8275
X6589Y7259
X5700Y7259
X6589Y9164
X5700Y9164
X5700Y10180
X6589Y10180
X5700Y11069
X6589Y11069
X8367Y11069
X9256Y11069
X8367Y10180
X9256Y10180
X8367Y9164
X8367Y8275
X8367Y7259
X9256Y9164
X9256Y7259
X9256Y8275
X15987Y9057
X14844Y9057
X13828Y9057
X15987Y7807
X15987Y6557
X15987Y5438
X15987Y4192
X15987Y2946
X15987Y1573
X14717Y2946
X14717Y4192
X14717Y5438
X14630Y1573
X15987Y10307
X16510Y12827
X17018Y12827
X14130Y13184
X14130Y12041
X17526Y12827
X18034Y12827
X668Y15704
X18542Y12827
X660Y557
X1803Y557
X660Y1954
X4430Y2819
X9939Y13311
X2446Y14454
X12939Y10434
X19050Y12827
X19558Y12827
X20066Y12827
X20574Y12827
X9652Y1524
X11430Y6604
X11430Y7366
X11430Y8509
X12954Y12192
X12319Y14732
X11938Y14097
X11811Y13462
X11303Y13081
X7239Y13335
X1524Y5588
X2032Y6477
X2540Y6096
X2921Y5461
X4572Y6350
X5207Y4826
X668Y14454
X11176Y2540
X21082Y12827
X21590Y12827
X22098Y12827
X22606Y12827
X23114Y12827
X23622Y12827
X24130Y12954
X16510Y11684
X17018Y11684
X17526Y11684
X18034Y11684
X18542Y11684
X19050Y11684
X19558Y11684
X20066Y11684
X20574Y11684
X21082Y11684
X21590Y11684
X22098Y11684
X22606Y11684
X23114Y11684
X23622Y11684
X24130Y11557
X24130Y14454
X24130Y15704
X23130Y15704
X5715Y5207
M30