M48
;GenerationSoftware,Autodesk,EAGLE,9.6.2*%
;CreationDate,2022-04-21T20:33:50Z*%
FMAT,2
ICI,OFF
METRIC,TZ,000.000
T3C0.200
T2C0.300
T1C0.650
%
G90
M71
T1
X12879Y13
X16260Y7641
X16260Y8911
X16260Y2561
X16260Y10181
X16260Y11451
X16260Y12721
X16260Y6371
X16260Y5101
X7799Y13
X6529Y13
X5259Y13
X3989Y13
X2719Y13
X9069Y13
X10339Y13
X11609Y13
X16260Y3831
X216Y7633
X216Y8903
X216Y10173
X216Y11443
X216Y12713
X216Y6363
X216Y5093
X216Y3823
X216Y2553
T2
X14732Y8763
X8949Y2581
X3494Y2492
X12065Y4064
X11303Y11557
X14478Y5969
X3683Y3937
X11811Y6858
T3
X679Y22003
X679Y21003
X679Y20003
X679Y19003
X679Y18003
X679Y17003
X1929Y23003
X1929Y22003
X1929Y21003
X1929Y20003
X1929Y19003
X1929Y18003
X1929Y17003
X6076Y24003
X7326Y24003
X8576Y24003
X9826Y24003
X10945Y24003
X12191Y24003
X13437Y24003
X14810Y24003
X6076Y23003
X6076Y22003
X6076Y21003
X6076Y20003
X6076Y19003
X6076Y18003
X6076Y17003
X7326Y23003
X7326Y22003
X7326Y21003
X7326Y20003
X7326Y19003
X7326Y18003
X7326Y17003
X8576Y23003
X8576Y22003
X8576Y21003
X8576Y20003
X8576Y19003
X8576Y18003
X8576Y17003
X9826Y23003
X9826Y22003
X9826Y21003
X9826Y20003
X9826Y19003
X9826Y18003
X9826Y17003
X10945Y23003
X10945Y22003
X10945Y21003
X10945Y20003
X10945Y19003
X10945Y18003
X10945Y17003
X12191Y23003
X12191Y22003
X12191Y21003
X12191Y20003
X12191Y19003
X12191Y18003
X12191Y17003
X13437Y23003
X13437Y22003
X13437Y21003
X13437Y20003
X13437Y19003
X13437Y18003
X13437Y17003
X14810Y23003
X14810Y22003
X14810Y21003
X14810Y20003
X14810Y19003
X14810Y18003
X14810Y17003
X15826Y15880
X15826Y14503
X679Y16003
X679Y15003
X679Y14003
X1929Y16003
X1929Y15003
X1929Y14003
X15826Y17003
X15826Y18003
X15826Y19003
X15826Y20003
X15826Y21003
X15826Y22003
X15826Y23003
X15826Y24003
X7219Y7351
X6203Y7351
X5314Y7351
X8108Y7351
X9124Y7351
X8108Y6462
X8108Y5573
X9124Y6462
X9124Y5573
X7219Y6462
X7219Y5573
X6203Y5573
X6203Y6462
X5314Y5573
X5314Y6462
X5314Y8240
X5314Y9129
X6203Y8240
X6203Y9129
X7219Y8240
X8108Y8240
X9124Y8240
X7219Y9129
X9124Y9129
X8108Y9129
X7326Y15860
X7326Y14717
X7326Y13701
X8576Y15860
X9826Y15860
X10945Y15860
X12191Y15860
X13437Y15860
X14810Y15860
X13437Y14590
X12191Y14590
X10945Y14590
X14810Y14503
X6076Y15860
X3556Y16383
X3556Y16891
X3199Y14003
X4342Y14003
X3556Y17399
X679Y541
X1929Y541
X15826Y533
X15826Y1676
X14429Y533
X13564Y4303
X3072Y9812
X3556Y17907
X10667Y10780
X7453Y11923
X4957Y15789
X3556Y18415
X12191Y13574
X13437Y13574
X14810Y13614
X15826Y13614
X3556Y18923
X3556Y19431
X3556Y19939
X14859Y9525
X3556Y20447
X9779Y11303
X9017Y11303
X7874Y11303
X4191Y12827
X1651Y12192
X2286Y11811
X2921Y11684
X3302Y11176
X3048Y7112
X10922Y1397
X10168Y1905
X10609Y2363
X11049Y2794
X10033Y4445
X11557Y5080
X5949Y12812
X13843Y11049
X5282Y1605
X3556Y20955
X3556Y21463
X3556Y21971
X3556Y22479
X3556Y22987
X3556Y23495
X3429Y24003
X4699Y16383
X4699Y16891
X4699Y17399
X4699Y17907
X4699Y18415
X4699Y18923
X4699Y19431
X4699Y19939
X4699Y20447
X4699Y20955
X4699Y21463
X4699Y21971
X4699Y22479
X4699Y22987
X4699Y23495
X4826Y24003
X1929Y24003
X679Y24003
X679Y23003
X11176Y5588
M30