G04 EAGLE Gerber RS-274X export*
G75*
%MOMM*%
%FSLAX34Y34*%
%LPD*%
%INCopper Layer 2*%
%IPPOS*%
%AMOC8*
5,1,8,0,0,1.08239X$1,22.5*%
G01*
%ADD10C,0.975000*%
%ADD11C,0.403200*%
%ADD12C,0.503200*%
%ADD13C,0.200000*%

G36*
X21074Y2382D02*
X21074Y2382D01*
X21190Y2399D01*
X21196Y2401D01*
X21202Y2402D01*
X21305Y2457D01*
X21410Y2510D01*
X21414Y2515D01*
X21419Y2518D01*
X21499Y2602D01*
X21582Y2686D01*
X21585Y2692D01*
X21589Y2696D01*
X21597Y2713D01*
X21663Y2833D01*
X21984Y3608D01*
X23713Y5337D01*
X25972Y6273D01*
X28416Y6273D01*
X30675Y5337D01*
X32404Y3608D01*
X32725Y2833D01*
X32787Y2733D01*
X32847Y2633D01*
X32852Y2629D01*
X32855Y2624D01*
X32945Y2549D01*
X33034Y2473D01*
X33040Y2471D01*
X33044Y2467D01*
X33153Y2425D01*
X33262Y2381D01*
X33270Y2380D01*
X33274Y2379D01*
X33292Y2378D01*
X33429Y2363D01*
X33659Y2363D01*
X33774Y2382D01*
X33890Y2399D01*
X33896Y2401D01*
X33902Y2402D01*
X34005Y2457D01*
X34110Y2510D01*
X34114Y2515D01*
X34119Y2518D01*
X34199Y2602D01*
X34282Y2686D01*
X34285Y2692D01*
X34289Y2696D01*
X34297Y2713D01*
X34363Y2833D01*
X34684Y3608D01*
X36413Y5337D01*
X38672Y6273D01*
X41116Y6273D01*
X43375Y5337D01*
X45104Y3608D01*
X45425Y2833D01*
X45487Y2733D01*
X45547Y2633D01*
X45552Y2629D01*
X45555Y2624D01*
X45645Y2549D01*
X45734Y2473D01*
X45740Y2471D01*
X45744Y2467D01*
X45853Y2425D01*
X45962Y2381D01*
X45970Y2380D01*
X45974Y2379D01*
X45992Y2378D01*
X46129Y2363D01*
X46359Y2363D01*
X46474Y2382D01*
X46590Y2399D01*
X46596Y2401D01*
X46602Y2402D01*
X46705Y2457D01*
X46810Y2510D01*
X46814Y2515D01*
X46819Y2518D01*
X46900Y2603D01*
X46982Y2686D01*
X46985Y2692D01*
X46989Y2696D01*
X46997Y2713D01*
X47063Y2833D01*
X47384Y3608D01*
X49113Y5337D01*
X51372Y6273D01*
X53816Y6273D01*
X56075Y5337D01*
X57804Y3608D01*
X58125Y2833D01*
X58187Y2733D01*
X58247Y2633D01*
X58252Y2629D01*
X58255Y2624D01*
X58345Y2549D01*
X58434Y2473D01*
X58440Y2471D01*
X58444Y2467D01*
X58553Y2425D01*
X58662Y2381D01*
X58669Y2380D01*
X58674Y2379D01*
X58692Y2378D01*
X58829Y2363D01*
X59059Y2363D01*
X59174Y2382D01*
X59290Y2399D01*
X59296Y2401D01*
X59302Y2402D01*
X59405Y2457D01*
X59510Y2510D01*
X59514Y2515D01*
X59519Y2518D01*
X59600Y2603D01*
X59682Y2686D01*
X59685Y2692D01*
X59689Y2696D01*
X59697Y2713D01*
X59763Y2833D01*
X60084Y3608D01*
X61813Y5337D01*
X64072Y6273D01*
X66516Y6273D01*
X68775Y5337D01*
X70504Y3608D01*
X70825Y2833D01*
X70887Y2733D01*
X70947Y2633D01*
X70952Y2629D01*
X70955Y2624D01*
X71045Y2549D01*
X71134Y2473D01*
X71140Y2471D01*
X71144Y2467D01*
X71253Y2425D01*
X71362Y2381D01*
X71369Y2380D01*
X71374Y2379D01*
X71392Y2378D01*
X71529Y2363D01*
X71759Y2363D01*
X71874Y2382D01*
X71990Y2399D01*
X71996Y2401D01*
X72002Y2402D01*
X72105Y2457D01*
X72210Y2510D01*
X72214Y2515D01*
X72219Y2518D01*
X72300Y2603D01*
X72382Y2686D01*
X72385Y2692D01*
X72389Y2696D01*
X72397Y2713D01*
X72463Y2833D01*
X72784Y3608D01*
X74513Y5337D01*
X76772Y6273D01*
X79216Y6273D01*
X81475Y5337D01*
X83204Y3608D01*
X83525Y2833D01*
X83587Y2733D01*
X83647Y2633D01*
X83652Y2629D01*
X83655Y2624D01*
X83745Y2549D01*
X83834Y2473D01*
X83840Y2471D01*
X83844Y2467D01*
X83953Y2425D01*
X84062Y2381D01*
X84069Y2380D01*
X84074Y2379D01*
X84092Y2378D01*
X84229Y2363D01*
X84459Y2363D01*
X84574Y2382D01*
X84690Y2399D01*
X84696Y2401D01*
X84702Y2402D01*
X84805Y2457D01*
X84910Y2510D01*
X84914Y2515D01*
X84919Y2518D01*
X84999Y2602D01*
X85082Y2686D01*
X85085Y2692D01*
X85089Y2696D01*
X85097Y2713D01*
X85163Y2833D01*
X85484Y3608D01*
X87213Y5337D01*
X89472Y6273D01*
X91916Y6273D01*
X94175Y5337D01*
X95904Y3608D01*
X96225Y2833D01*
X96287Y2733D01*
X96347Y2633D01*
X96352Y2629D01*
X96355Y2624D01*
X96445Y2549D01*
X96534Y2473D01*
X96540Y2471D01*
X96544Y2467D01*
X96653Y2425D01*
X96762Y2381D01*
X96770Y2380D01*
X96774Y2379D01*
X96792Y2378D01*
X96929Y2363D01*
X97159Y2363D01*
X97274Y2382D01*
X97390Y2399D01*
X97396Y2401D01*
X97402Y2402D01*
X97505Y2457D01*
X97610Y2510D01*
X97614Y2515D01*
X97619Y2518D01*
X97699Y2602D01*
X97782Y2686D01*
X97785Y2692D01*
X97789Y2696D01*
X97797Y2713D01*
X97863Y2833D01*
X98184Y3608D01*
X99913Y5337D01*
X102172Y6273D01*
X104616Y6273D01*
X106875Y5337D01*
X108604Y3608D01*
X108925Y2833D01*
X108987Y2733D01*
X109047Y2633D01*
X109052Y2629D01*
X109055Y2624D01*
X109145Y2549D01*
X109234Y2473D01*
X109240Y2471D01*
X109244Y2467D01*
X109353Y2425D01*
X109462Y2381D01*
X109470Y2380D01*
X109474Y2379D01*
X109492Y2378D01*
X109629Y2363D01*
X109859Y2363D01*
X109974Y2382D01*
X110090Y2399D01*
X110096Y2401D01*
X110102Y2402D01*
X110205Y2457D01*
X110310Y2510D01*
X110314Y2515D01*
X110319Y2518D01*
X110399Y2602D01*
X110482Y2686D01*
X110485Y2692D01*
X110489Y2696D01*
X110497Y2713D01*
X110563Y2833D01*
X110884Y3608D01*
X112613Y5337D01*
X114872Y6273D01*
X117316Y6273D01*
X119575Y5337D01*
X121186Y3726D01*
X121263Y3671D01*
X121335Y3611D01*
X121362Y3600D01*
X121386Y3583D01*
X121476Y3555D01*
X121564Y3521D01*
X121593Y3519D01*
X121621Y3510D01*
X121715Y3513D01*
X121809Y3508D01*
X121837Y3516D01*
X121867Y3517D01*
X121955Y3549D01*
X122046Y3575D01*
X122070Y3591D01*
X122098Y3601D01*
X122171Y3660D01*
X122249Y3713D01*
X122273Y3742D01*
X122290Y3755D01*
X122307Y3782D01*
X122357Y3842D01*
X123034Y4854D01*
X124067Y5887D01*
X125281Y6699D01*
X126631Y7258D01*
X127271Y7385D01*
X127271Y3124D01*
X127274Y3104D01*
X127272Y3085D01*
X127294Y2983D01*
X127311Y2881D01*
X127320Y2864D01*
X127324Y2844D01*
X127377Y2755D01*
X127426Y2664D01*
X127440Y2650D01*
X127450Y2633D01*
X127529Y2566D01*
X127604Y2494D01*
X127622Y2486D01*
X127637Y2473D01*
X127733Y2434D01*
X127827Y2391D01*
X127847Y2389D01*
X127865Y2381D01*
X128032Y2363D01*
X129556Y2363D01*
X129576Y2366D01*
X129595Y2364D01*
X129697Y2386D01*
X129799Y2402D01*
X129816Y2412D01*
X129836Y2416D01*
X129925Y2469D01*
X130016Y2518D01*
X130030Y2532D01*
X130047Y2542D01*
X130114Y2621D01*
X130185Y2696D01*
X130194Y2714D01*
X130207Y2729D01*
X130246Y2825D01*
X130289Y2919D01*
X130291Y2939D01*
X130299Y2957D01*
X130317Y3124D01*
X130317Y7385D01*
X130957Y7258D01*
X132307Y6699D01*
X133521Y5887D01*
X134554Y4854D01*
X135366Y3640D01*
X135700Y2833D01*
X135762Y2733D01*
X135822Y2633D01*
X135826Y2629D01*
X135830Y2624D01*
X135920Y2549D01*
X136008Y2473D01*
X136014Y2471D01*
X136019Y2467D01*
X136128Y2425D01*
X136237Y2381D01*
X136244Y2380D01*
X136249Y2379D01*
X136267Y2378D01*
X136403Y2363D01*
X159817Y2363D01*
X159837Y2366D01*
X159856Y2364D01*
X159958Y2386D01*
X160060Y2402D01*
X160077Y2412D01*
X160097Y2416D01*
X160186Y2469D01*
X160277Y2518D01*
X160291Y2532D01*
X160308Y2542D01*
X160375Y2621D01*
X160447Y2696D01*
X160455Y2714D01*
X160468Y2729D01*
X160507Y2825D01*
X160550Y2919D01*
X160552Y2939D01*
X160560Y2957D01*
X160578Y3124D01*
X160578Y19286D01*
X160559Y19401D01*
X160542Y19517D01*
X160540Y19522D01*
X160539Y19529D01*
X160484Y19631D01*
X160431Y19736D01*
X160426Y19740D01*
X160423Y19746D01*
X160339Y19826D01*
X160255Y19908D01*
X160249Y19912D01*
X160245Y19915D01*
X160228Y19923D01*
X160108Y19989D01*
X159117Y20400D01*
X157388Y22129D01*
X156452Y24388D01*
X156452Y26832D01*
X157388Y29091D01*
X159117Y30820D01*
X160108Y31231D01*
X160208Y31292D01*
X160308Y31352D01*
X160312Y31357D01*
X160317Y31360D01*
X160391Y31450D01*
X160468Y31539D01*
X160470Y31545D01*
X160474Y31550D01*
X160516Y31658D01*
X160560Y31767D01*
X160561Y31775D01*
X160562Y31780D01*
X160563Y31798D01*
X160578Y31934D01*
X160578Y31986D01*
X160573Y32020D01*
X160573Y32025D01*
X160571Y32033D01*
X160559Y32101D01*
X160542Y32217D01*
X160540Y32222D01*
X160539Y32229D01*
X160484Y32331D01*
X160431Y32436D01*
X160426Y32440D01*
X160423Y32446D01*
X160339Y32526D01*
X160255Y32608D01*
X160249Y32612D01*
X160245Y32615D01*
X160228Y32623D01*
X160108Y32689D01*
X159117Y33100D01*
X157388Y34829D01*
X156452Y37088D01*
X156452Y39532D01*
X157388Y41791D01*
X159117Y43520D01*
X160108Y43931D01*
X160208Y43992D01*
X160308Y44052D01*
X160312Y44057D01*
X160317Y44060D01*
X160392Y44150D01*
X160468Y44239D01*
X160470Y44245D01*
X160474Y44250D01*
X160516Y44358D01*
X160560Y44467D01*
X160561Y44475D01*
X160562Y44480D01*
X160563Y44498D01*
X160578Y44634D01*
X160578Y44686D01*
X160573Y44720D01*
X160573Y44725D01*
X160571Y44733D01*
X160559Y44801D01*
X160542Y44917D01*
X160540Y44922D01*
X160539Y44929D01*
X160484Y45031D01*
X160431Y45136D01*
X160426Y45140D01*
X160423Y45146D01*
X160339Y45226D01*
X160255Y45308D01*
X160249Y45312D01*
X160245Y45315D01*
X160228Y45323D01*
X160108Y45389D01*
X159117Y45800D01*
X157388Y47529D01*
X156452Y49788D01*
X156452Y52232D01*
X157388Y54491D01*
X159117Y56220D01*
X160108Y56631D01*
X160208Y56692D01*
X160308Y56752D01*
X160312Y56757D01*
X160317Y56760D01*
X160392Y56850D01*
X160468Y56939D01*
X160470Y56945D01*
X160474Y56950D01*
X160516Y57058D01*
X160560Y57167D01*
X160561Y57175D01*
X160562Y57180D01*
X160563Y57198D01*
X160578Y57334D01*
X160578Y57386D01*
X160573Y57420D01*
X160573Y57425D01*
X160571Y57433D01*
X160559Y57501D01*
X160542Y57617D01*
X160540Y57622D01*
X160539Y57629D01*
X160484Y57731D01*
X160431Y57836D01*
X160426Y57840D01*
X160423Y57846D01*
X160339Y57926D01*
X160255Y58008D01*
X160249Y58012D01*
X160245Y58015D01*
X160228Y58023D01*
X160108Y58089D01*
X159117Y58500D01*
X157388Y60229D01*
X156452Y62488D01*
X156452Y64932D01*
X157388Y67191D01*
X159117Y68920D01*
X160108Y69331D01*
X160208Y69392D01*
X160308Y69452D01*
X160312Y69457D01*
X160317Y69460D01*
X160392Y69550D01*
X160468Y69639D01*
X160470Y69645D01*
X160474Y69650D01*
X160516Y69758D01*
X160560Y69867D01*
X160561Y69875D01*
X160562Y69880D01*
X160563Y69898D01*
X160578Y70034D01*
X160578Y70086D01*
X160573Y70120D01*
X160573Y70125D01*
X160571Y70133D01*
X160559Y70201D01*
X160542Y70317D01*
X160540Y70322D01*
X160539Y70329D01*
X160484Y70431D01*
X160431Y70536D01*
X160426Y70540D01*
X160423Y70546D01*
X160339Y70626D01*
X160255Y70708D01*
X160249Y70712D01*
X160245Y70715D01*
X160228Y70723D01*
X160108Y70789D01*
X159117Y71200D01*
X157388Y72929D01*
X156452Y75188D01*
X156452Y77632D01*
X157388Y79891D01*
X159117Y81620D01*
X160108Y82031D01*
X160208Y82092D01*
X160308Y82152D01*
X160312Y82157D01*
X160317Y82160D01*
X160392Y82250D01*
X160468Y82339D01*
X160470Y82345D01*
X160474Y82350D01*
X160516Y82458D01*
X160560Y82567D01*
X160561Y82575D01*
X160562Y82580D01*
X160563Y82598D01*
X160578Y82734D01*
X160578Y82786D01*
X160573Y82820D01*
X160573Y82825D01*
X160571Y82833D01*
X160560Y82900D01*
X160542Y83017D01*
X160540Y83022D01*
X160539Y83029D01*
X160484Y83131D01*
X160431Y83236D01*
X160426Y83240D01*
X160423Y83246D01*
X160339Y83326D01*
X160255Y83408D01*
X160249Y83412D01*
X160245Y83415D01*
X160228Y83423D01*
X160108Y83489D01*
X159117Y83900D01*
X157388Y85629D01*
X156452Y87888D01*
X156452Y90332D01*
X157388Y92591D01*
X159117Y94320D01*
X160108Y94731D01*
X160208Y94792D01*
X160308Y94852D01*
X160312Y94857D01*
X160317Y94860D01*
X160392Y94950D01*
X160468Y95039D01*
X160470Y95045D01*
X160474Y95050D01*
X160516Y95158D01*
X160560Y95267D01*
X160561Y95275D01*
X160562Y95280D01*
X160563Y95298D01*
X160578Y95434D01*
X160578Y95486D01*
X160573Y95520D01*
X160573Y95525D01*
X160571Y95533D01*
X160559Y95601D01*
X160542Y95717D01*
X160540Y95722D01*
X160539Y95729D01*
X160484Y95831D01*
X160431Y95936D01*
X160426Y95940D01*
X160423Y95946D01*
X160339Y96026D01*
X160255Y96108D01*
X160249Y96112D01*
X160245Y96115D01*
X160228Y96123D01*
X160108Y96189D01*
X159117Y96600D01*
X157388Y98329D01*
X156452Y100588D01*
X156452Y103032D01*
X157388Y105291D01*
X159117Y107020D01*
X160108Y107431D01*
X160208Y107492D01*
X160308Y107552D01*
X160312Y107557D01*
X160317Y107560D01*
X160392Y107650D01*
X160468Y107739D01*
X160470Y107745D01*
X160474Y107750D01*
X160516Y107858D01*
X160560Y107967D01*
X160561Y107975D01*
X160562Y107980D01*
X160563Y107998D01*
X160578Y108134D01*
X160578Y108186D01*
X160576Y108202D01*
X160577Y108216D01*
X160561Y108289D01*
X160560Y108300D01*
X160542Y108417D01*
X160540Y108422D01*
X160539Y108429D01*
X160526Y108453D01*
X160525Y108456D01*
X160515Y108473D01*
X160484Y108531D01*
X160431Y108636D01*
X160426Y108640D01*
X160423Y108646D01*
X160339Y108726D01*
X160255Y108808D01*
X160249Y108812D01*
X160245Y108815D01*
X160228Y108823D01*
X160108Y108889D01*
X159117Y109300D01*
X157388Y111029D01*
X156452Y113288D01*
X156452Y115732D01*
X157388Y117991D01*
X159117Y119720D01*
X160108Y120131D01*
X160208Y120192D01*
X160308Y120252D01*
X160312Y120257D01*
X160317Y120260D01*
X160391Y120350D01*
X160468Y120439D01*
X160470Y120445D01*
X160474Y120450D01*
X160516Y120558D01*
X160560Y120667D01*
X160561Y120675D01*
X160562Y120680D01*
X160563Y120698D01*
X160578Y120834D01*
X160578Y120886D01*
X160573Y120920D01*
X160573Y120925D01*
X160571Y120933D01*
X160559Y121001D01*
X160542Y121117D01*
X160540Y121122D01*
X160539Y121129D01*
X160484Y121231D01*
X160431Y121336D01*
X160426Y121340D01*
X160423Y121346D01*
X160339Y121426D01*
X160255Y121508D01*
X160249Y121512D01*
X160245Y121515D01*
X160228Y121523D01*
X160108Y121589D01*
X159117Y122000D01*
X157388Y123729D01*
X156452Y125988D01*
X156452Y128432D01*
X157388Y130691D01*
X159117Y132420D01*
X160108Y132831D01*
X160208Y132892D01*
X160308Y132952D01*
X160312Y132957D01*
X160317Y132960D01*
X160392Y133050D01*
X160468Y133139D01*
X160470Y133145D01*
X160474Y133150D01*
X160516Y133258D01*
X160560Y133367D01*
X160561Y133375D01*
X160562Y133380D01*
X160563Y133398D01*
X160578Y133534D01*
X160578Y170043D01*
X160575Y170063D01*
X160577Y170082D01*
X160555Y170184D01*
X160539Y170286D01*
X160529Y170303D01*
X160525Y170323D01*
X160472Y170412D01*
X160423Y170503D01*
X160409Y170517D01*
X160399Y170534D01*
X160320Y170601D01*
X160245Y170673D01*
X160227Y170681D01*
X160212Y170694D01*
X160116Y170733D01*
X160022Y170776D01*
X160002Y170778D01*
X159984Y170786D01*
X159817Y170804D01*
X4775Y170804D01*
X4755Y170801D01*
X4736Y170803D01*
X4634Y170781D01*
X4532Y170765D01*
X4515Y170755D01*
X4495Y170751D01*
X4406Y170698D01*
X4315Y170649D01*
X4301Y170635D01*
X4284Y170625D01*
X4217Y170546D01*
X4145Y170471D01*
X4137Y170453D01*
X4124Y170438D01*
X4085Y170342D01*
X4042Y170248D01*
X4040Y170228D01*
X4032Y170210D01*
X4014Y170043D01*
X4014Y133519D01*
X4033Y133405D01*
X4050Y133289D01*
X4052Y133283D01*
X4053Y133277D01*
X4108Y133174D01*
X4161Y133069D01*
X4166Y133065D01*
X4169Y133059D01*
X4253Y132980D01*
X4337Y132897D01*
X4343Y132893D01*
X4347Y132890D01*
X4364Y132882D01*
X4484Y132816D01*
X5640Y132337D01*
X7369Y130608D01*
X8305Y128349D01*
X8305Y125905D01*
X7369Y123646D01*
X5640Y121917D01*
X4586Y121480D01*
X4525Y121443D01*
X4460Y121413D01*
X4421Y121378D01*
X4377Y121351D01*
X4331Y121295D01*
X4279Y121247D01*
X4254Y121201D01*
X4220Y121161D01*
X4195Y121094D01*
X4160Y121031D01*
X4151Y120980D01*
X4132Y120932D01*
X4129Y120860D01*
X4116Y120789D01*
X4124Y120738D01*
X4122Y120686D01*
X4142Y120617D01*
X4152Y120546D01*
X4176Y120500D01*
X4190Y120450D01*
X4231Y120391D01*
X4264Y120327D01*
X4301Y120290D01*
X4331Y120248D01*
X4388Y120205D01*
X4439Y120155D01*
X4502Y120120D01*
X4528Y120101D01*
X4550Y120094D01*
X4586Y120074D01*
X5640Y119637D01*
X7369Y117908D01*
X8305Y115649D01*
X8305Y113205D01*
X7369Y110946D01*
X5640Y109217D01*
X4586Y108780D01*
X4525Y108743D01*
X4460Y108713D01*
X4421Y108678D01*
X4377Y108651D01*
X4331Y108595D01*
X4279Y108547D01*
X4254Y108501D01*
X4220Y108461D01*
X4195Y108394D01*
X4160Y108331D01*
X4151Y108280D01*
X4132Y108232D01*
X4129Y108160D01*
X4116Y108089D01*
X4124Y108038D01*
X4122Y107986D01*
X4142Y107917D01*
X4152Y107846D01*
X4176Y107800D01*
X4190Y107750D01*
X4231Y107691D01*
X4264Y107627D01*
X4301Y107590D01*
X4331Y107548D01*
X4388Y107505D01*
X4439Y107455D01*
X4502Y107420D01*
X4528Y107401D01*
X4550Y107394D01*
X4586Y107374D01*
X5640Y106937D01*
X7369Y105208D01*
X8305Y102949D01*
X8305Y100505D01*
X7369Y98246D01*
X5640Y96517D01*
X4586Y96080D01*
X4525Y96043D01*
X4460Y96013D01*
X4421Y95978D01*
X4377Y95951D01*
X4331Y95895D01*
X4279Y95847D01*
X4254Y95801D01*
X4220Y95761D01*
X4195Y95694D01*
X4160Y95631D01*
X4151Y95580D01*
X4132Y95532D01*
X4129Y95460D01*
X4116Y95389D01*
X4124Y95338D01*
X4122Y95286D01*
X4142Y95217D01*
X4152Y95146D01*
X4176Y95100D01*
X4190Y95050D01*
X4231Y94991D01*
X4264Y94927D01*
X4301Y94890D01*
X4331Y94848D01*
X4388Y94805D01*
X4439Y94755D01*
X4502Y94720D01*
X4528Y94701D01*
X4550Y94694D01*
X4586Y94674D01*
X5640Y94237D01*
X7369Y92508D01*
X8305Y90249D01*
X8305Y87805D01*
X7369Y85546D01*
X5640Y83817D01*
X4586Y83380D01*
X4525Y83343D01*
X4460Y83313D01*
X4421Y83278D01*
X4377Y83251D01*
X4331Y83195D01*
X4279Y83147D01*
X4254Y83101D01*
X4220Y83061D01*
X4195Y82994D01*
X4160Y82931D01*
X4151Y82880D01*
X4132Y82832D01*
X4129Y82760D01*
X4116Y82689D01*
X4124Y82638D01*
X4122Y82586D01*
X4142Y82517D01*
X4152Y82446D01*
X4176Y82400D01*
X4190Y82350D01*
X4231Y82291D01*
X4264Y82227D01*
X4301Y82190D01*
X4331Y82148D01*
X4388Y82105D01*
X4439Y82055D01*
X4502Y82020D01*
X4528Y82001D01*
X4550Y81994D01*
X4586Y81974D01*
X5640Y81537D01*
X7369Y79808D01*
X8305Y77549D01*
X8305Y75105D01*
X7369Y72846D01*
X5640Y71117D01*
X4586Y70680D01*
X4525Y70643D01*
X4460Y70613D01*
X4421Y70578D01*
X4377Y70551D01*
X4331Y70496D01*
X4279Y70447D01*
X4254Y70401D01*
X4220Y70361D01*
X4195Y70294D01*
X4160Y70231D01*
X4151Y70180D01*
X4132Y70132D01*
X4129Y70060D01*
X4116Y69989D01*
X4124Y69938D01*
X4122Y69886D01*
X4142Y69817D01*
X4152Y69746D01*
X4176Y69700D01*
X4190Y69650D01*
X4231Y69591D01*
X4264Y69527D01*
X4301Y69490D01*
X4331Y69448D01*
X4388Y69405D01*
X4439Y69355D01*
X4502Y69320D01*
X4528Y69301D01*
X4550Y69294D01*
X4586Y69274D01*
X5640Y68837D01*
X7369Y67108D01*
X8305Y64849D01*
X8305Y62405D01*
X7369Y60146D01*
X5640Y58417D01*
X4586Y57980D01*
X4525Y57943D01*
X4460Y57913D01*
X4421Y57878D01*
X4377Y57851D01*
X4331Y57796D01*
X4279Y57747D01*
X4254Y57701D01*
X4220Y57661D01*
X4195Y57594D01*
X4160Y57531D01*
X4151Y57480D01*
X4132Y57432D01*
X4129Y57360D01*
X4116Y57289D01*
X4124Y57238D01*
X4122Y57186D01*
X4142Y57117D01*
X4152Y57046D01*
X4176Y57000D01*
X4190Y56950D01*
X4231Y56891D01*
X4264Y56827D01*
X4301Y56790D01*
X4331Y56748D01*
X4388Y56705D01*
X4439Y56655D01*
X4502Y56620D01*
X4528Y56601D01*
X4550Y56594D01*
X4586Y56574D01*
X5640Y56137D01*
X7369Y54408D01*
X8305Y52149D01*
X8305Y49705D01*
X7369Y47446D01*
X5640Y45717D01*
X4586Y45280D01*
X4525Y45243D01*
X4460Y45213D01*
X4421Y45178D01*
X4377Y45151D01*
X4331Y45096D01*
X4279Y45047D01*
X4254Y45001D01*
X4220Y44961D01*
X4195Y44894D01*
X4160Y44831D01*
X4151Y44780D01*
X4132Y44732D01*
X4129Y44660D01*
X4116Y44589D01*
X4124Y44538D01*
X4122Y44486D01*
X4142Y44417D01*
X4152Y44346D01*
X4176Y44300D01*
X4190Y44250D01*
X4231Y44191D01*
X4264Y44127D01*
X4301Y44090D01*
X4331Y44048D01*
X4388Y44005D01*
X4439Y43955D01*
X4502Y43920D01*
X4528Y43901D01*
X4550Y43894D01*
X4586Y43874D01*
X5640Y43437D01*
X7369Y41708D01*
X8305Y39449D01*
X8305Y37005D01*
X7369Y34746D01*
X5640Y33017D01*
X4586Y32580D01*
X4525Y32543D01*
X4460Y32513D01*
X4421Y32478D01*
X4377Y32451D01*
X4331Y32396D01*
X4279Y32347D01*
X4254Y32301D01*
X4220Y32261D01*
X4195Y32194D01*
X4160Y32131D01*
X4151Y32080D01*
X4132Y32032D01*
X4129Y31960D01*
X4116Y31889D01*
X4124Y31838D01*
X4122Y31786D01*
X4142Y31717D01*
X4152Y31646D01*
X4176Y31600D01*
X4190Y31550D01*
X4231Y31491D01*
X4264Y31427D01*
X4301Y31390D01*
X4331Y31348D01*
X4388Y31305D01*
X4439Y31255D01*
X4502Y31220D01*
X4528Y31201D01*
X4550Y31194D01*
X4586Y31174D01*
X5640Y30737D01*
X7369Y29008D01*
X8305Y26749D01*
X8305Y24305D01*
X7369Y22046D01*
X5640Y20317D01*
X4484Y19838D01*
X4384Y19776D01*
X4284Y19716D01*
X4280Y19712D01*
X4275Y19708D01*
X4200Y19619D01*
X4124Y19529D01*
X4122Y19524D01*
X4118Y19519D01*
X4076Y19411D01*
X4032Y19301D01*
X4031Y19294D01*
X4030Y19289D01*
X4029Y19271D01*
X4014Y19135D01*
X4014Y3124D01*
X4017Y3104D01*
X4015Y3085D01*
X4037Y2983D01*
X4053Y2881D01*
X4063Y2864D01*
X4067Y2844D01*
X4120Y2755D01*
X4169Y2664D01*
X4183Y2650D01*
X4193Y2633D01*
X4272Y2566D01*
X4347Y2494D01*
X4365Y2486D01*
X4380Y2473D01*
X4476Y2434D01*
X4570Y2391D01*
X4590Y2389D01*
X4608Y2381D01*
X4775Y2363D01*
X20959Y2363D01*
X21074Y2382D01*
G37*
%LPC*%
G36*
X31659Y108473D02*
X31659Y108473D01*
X29733Y110399D01*
X29733Y112792D01*
X29730Y112812D01*
X29732Y112831D01*
X29710Y112933D01*
X29694Y113035D01*
X29684Y113052D01*
X29680Y113072D01*
X29627Y113161D01*
X29578Y113252D01*
X29564Y113266D01*
X29554Y113283D01*
X29475Y113350D01*
X29400Y113422D01*
X29382Y113430D01*
X29367Y113443D01*
X29271Y113482D01*
X29177Y113525D01*
X29157Y113527D01*
X29139Y113535D01*
X28972Y113553D01*
X27849Y113553D01*
X25938Y115464D01*
X25922Y115475D01*
X25910Y115491D01*
X25822Y115547D01*
X25739Y115607D01*
X25720Y115613D01*
X25703Y115624D01*
X25602Y115649D01*
X25503Y115679D01*
X25484Y115679D01*
X25464Y115684D01*
X25361Y115676D01*
X25258Y115673D01*
X25239Y115666D01*
X25219Y115665D01*
X25124Y115624D01*
X25027Y115589D01*
X25011Y115576D01*
X24993Y115568D01*
X24862Y115464D01*
X24221Y114823D01*
X21499Y114823D01*
X19573Y116749D01*
X19573Y118497D01*
X19562Y118568D01*
X19560Y118640D01*
X19542Y118689D01*
X19534Y118740D01*
X19500Y118803D01*
X19475Y118871D01*
X19443Y118912D01*
X19418Y118957D01*
X19367Y119007D01*
X19322Y119063D01*
X19278Y119091D01*
X19240Y119127D01*
X19175Y119157D01*
X19115Y119196D01*
X19064Y119209D01*
X19017Y119230D01*
X18946Y119238D01*
X18876Y119256D01*
X18824Y119252D01*
X18773Y119258D01*
X18702Y119242D01*
X18631Y119237D01*
X18583Y119216D01*
X18532Y119205D01*
X18471Y119168D01*
X18405Y119140D01*
X18349Y119096D01*
X18321Y119079D01*
X18306Y119061D01*
X18274Y119036D01*
X17871Y118633D01*
X15149Y118633D01*
X13223Y120559D01*
X13223Y123281D01*
X15149Y125207D01*
X17871Y125207D01*
X19797Y123281D01*
X19797Y121533D01*
X19808Y121462D01*
X19810Y121390D01*
X19828Y121341D01*
X19836Y121290D01*
X19870Y121227D01*
X19895Y121159D01*
X19927Y121118D01*
X19952Y121073D01*
X20003Y121023D01*
X20048Y120967D01*
X20092Y120939D01*
X20130Y120903D01*
X20195Y120873D01*
X20255Y120834D01*
X20306Y120821D01*
X20353Y120800D01*
X20424Y120792D01*
X20494Y120774D01*
X20546Y120778D01*
X20597Y120772D01*
X20668Y120788D01*
X20739Y120793D01*
X20787Y120814D01*
X20838Y120825D01*
X20899Y120862D01*
X20965Y120890D01*
X21021Y120934D01*
X21049Y120951D01*
X21064Y120969D01*
X21096Y120994D01*
X21499Y121397D01*
X24221Y121397D01*
X26132Y119486D01*
X26148Y119475D01*
X26160Y119459D01*
X26248Y119403D01*
X26331Y119343D01*
X26350Y119337D01*
X26367Y119326D01*
X26468Y119301D01*
X26567Y119271D01*
X26586Y119271D01*
X26606Y119266D01*
X26709Y119274D01*
X26812Y119277D01*
X26831Y119284D01*
X26851Y119285D01*
X26946Y119326D01*
X27043Y119361D01*
X27059Y119374D01*
X27077Y119382D01*
X27208Y119486D01*
X27849Y120127D01*
X30571Y120127D01*
X32497Y118201D01*
X32497Y115808D01*
X32500Y115788D01*
X32498Y115769D01*
X32520Y115667D01*
X32536Y115565D01*
X32546Y115548D01*
X32550Y115528D01*
X32603Y115439D01*
X32652Y115348D01*
X32666Y115334D01*
X32676Y115317D01*
X32755Y115250D01*
X32830Y115178D01*
X32848Y115170D01*
X32863Y115157D01*
X32959Y115118D01*
X33053Y115075D01*
X33073Y115073D01*
X33091Y115065D01*
X33258Y115047D01*
X34381Y115047D01*
X36307Y113121D01*
X36307Y110399D01*
X34381Y108473D01*
X31659Y108473D01*
G37*
%LPD*%
%LPC*%
G36*
X77379Y109743D02*
X77379Y109743D01*
X75453Y111669D01*
X75453Y114391D01*
X77379Y116317D01*
X80101Y116317D01*
X80894Y115524D01*
X80968Y115471D01*
X81038Y115411D01*
X81068Y115399D01*
X81094Y115380D01*
X81181Y115353D01*
X81266Y115319D01*
X81307Y115315D01*
X81329Y115308D01*
X81361Y115309D01*
X81433Y115301D01*
X87477Y115301D01*
X87567Y115315D01*
X87658Y115323D01*
X87688Y115335D01*
X87720Y115340D01*
X87801Y115383D01*
X87885Y115419D01*
X87917Y115445D01*
X87937Y115456D01*
X87960Y115479D01*
X88016Y115524D01*
X88809Y116317D01*
X91531Y116317D01*
X93442Y114406D01*
X93458Y114395D01*
X93470Y114379D01*
X93558Y114323D01*
X93641Y114263D01*
X93660Y114257D01*
X93677Y114246D01*
X93778Y114221D01*
X93877Y114191D01*
X93896Y114191D01*
X93916Y114186D01*
X94019Y114194D01*
X94122Y114197D01*
X94141Y114204D01*
X94161Y114205D01*
X94256Y114246D01*
X94353Y114281D01*
X94369Y114294D01*
X94387Y114302D01*
X94518Y114406D01*
X96429Y116317D01*
X99151Y116317D01*
X101077Y114391D01*
X101077Y111669D01*
X99151Y109743D01*
X96429Y109743D01*
X94518Y111654D01*
X94502Y111665D01*
X94490Y111681D01*
X94402Y111737D01*
X94319Y111797D01*
X94300Y111803D01*
X94283Y111814D01*
X94182Y111839D01*
X94083Y111869D01*
X94064Y111869D01*
X94044Y111874D01*
X93941Y111866D01*
X93838Y111863D01*
X93819Y111856D01*
X93799Y111855D01*
X93704Y111814D01*
X93607Y111779D01*
X93591Y111766D01*
X93573Y111758D01*
X93442Y111654D01*
X91531Y109743D01*
X88809Y109743D01*
X88016Y110536D01*
X87942Y110589D01*
X87872Y110649D01*
X87842Y110661D01*
X87816Y110680D01*
X87729Y110707D01*
X87644Y110741D01*
X87603Y110745D01*
X87581Y110752D01*
X87549Y110751D01*
X87477Y110759D01*
X81433Y110759D01*
X81343Y110745D01*
X81252Y110737D01*
X81222Y110725D01*
X81190Y110720D01*
X81109Y110677D01*
X81025Y110641D01*
X80993Y110615D01*
X80973Y110604D01*
X80950Y110581D01*
X80894Y110536D01*
X80101Y109743D01*
X77379Y109743D01*
G37*
%LPD*%
%LPC*%
G36*
X100318Y15763D02*
X100318Y15763D01*
X98393Y17689D01*
X98393Y20411D01*
X100318Y22337D01*
X102042Y22337D01*
X102062Y22340D01*
X102081Y22338D01*
X102183Y22360D01*
X102285Y22376D01*
X102302Y22386D01*
X102322Y22390D01*
X102411Y22443D01*
X102502Y22492D01*
X102516Y22506D01*
X102533Y22516D01*
X102600Y22595D01*
X102671Y22670D01*
X102680Y22688D01*
X102693Y22703D01*
X102731Y22799D01*
X102775Y22893D01*
X102777Y22913D01*
X102785Y22931D01*
X102803Y23098D01*
X102803Y24991D01*
X104728Y26917D01*
X106442Y26917D01*
X106462Y26920D01*
X106481Y26918D01*
X106583Y26940D01*
X106685Y26957D01*
X106702Y26966D01*
X106722Y26970D01*
X106811Y27023D01*
X106902Y27072D01*
X106916Y27086D01*
X106933Y27096D01*
X107000Y27175D01*
X107072Y27250D01*
X107080Y27268D01*
X107093Y27283D01*
X107132Y27379D01*
X107175Y27473D01*
X107177Y27493D01*
X107185Y27511D01*
X107203Y27678D01*
X107203Y29301D01*
X109129Y31227D01*
X111851Y31227D01*
X113777Y29301D01*
X113777Y26579D01*
X111851Y24653D01*
X110138Y24653D01*
X110118Y24650D01*
X110098Y24652D01*
X109997Y24630D01*
X109895Y24614D01*
X109877Y24604D01*
X109858Y24600D01*
X109769Y24547D01*
X109678Y24498D01*
X109664Y24484D01*
X109647Y24474D01*
X109580Y24395D01*
X109508Y24320D01*
X109500Y24302D01*
X109487Y24287D01*
X109448Y24191D01*
X109405Y24097D01*
X109402Y24077D01*
X109395Y24059D01*
X109377Y23892D01*
X109377Y22269D01*
X107451Y20343D01*
X105728Y20343D01*
X105708Y20340D01*
X105688Y20342D01*
X105587Y20320D01*
X105485Y20304D01*
X105468Y20294D01*
X105448Y20290D01*
X105359Y20237D01*
X105268Y20189D01*
X105254Y20174D01*
X105237Y20164D01*
X105170Y20085D01*
X105098Y20010D01*
X105090Y19992D01*
X105077Y19977D01*
X105038Y19881D01*
X104995Y19787D01*
X104993Y19767D01*
X104985Y19749D01*
X104967Y19582D01*
X104967Y17689D01*
X103041Y15763D01*
X100318Y15763D01*
G37*
%LPD*%
%LPC*%
G36*
X119081Y36853D02*
X119081Y36853D01*
X117722Y38213D01*
X117706Y38224D01*
X117694Y38240D01*
X117606Y38296D01*
X117522Y38356D01*
X117503Y38362D01*
X117487Y38373D01*
X117386Y38398D01*
X117287Y38428D01*
X117267Y38428D01*
X117248Y38433D01*
X117145Y38425D01*
X117042Y38422D01*
X117023Y38415D01*
X117003Y38414D01*
X116908Y38373D01*
X116810Y38338D01*
X116795Y38325D01*
X116777Y38317D01*
X116646Y38213D01*
X115473Y37040D01*
X112336Y37040D01*
X110118Y39258D01*
X110118Y42395D01*
X112336Y44613D01*
X115473Y44613D01*
X116832Y43254D01*
X116848Y43243D01*
X116861Y43227D01*
X116948Y43171D01*
X117032Y43111D01*
X117051Y43105D01*
X117068Y43094D01*
X117168Y43069D01*
X117267Y43038D01*
X117287Y43039D01*
X117306Y43034D01*
X117409Y43042D01*
X117513Y43045D01*
X117532Y43051D01*
X117552Y43053D01*
X117647Y43093D01*
X117744Y43129D01*
X117760Y43142D01*
X117778Y43149D01*
X117909Y43254D01*
X119081Y44427D01*
X122219Y44427D01*
X124437Y42209D01*
X124437Y39071D01*
X122219Y36853D01*
X119081Y36853D01*
G37*
%LPD*%
%LPC*%
G36*
X116059Y108353D02*
X116059Y108353D01*
X113841Y110571D01*
X113841Y111022D01*
X113838Y111042D01*
X113840Y111061D01*
X113818Y111163D01*
X113801Y111265D01*
X113792Y111282D01*
X113788Y111302D01*
X113735Y111391D01*
X113686Y111482D01*
X113672Y111496D01*
X113662Y111513D01*
X113583Y111580D01*
X113508Y111652D01*
X113490Y111660D01*
X113475Y111673D01*
X113379Y111712D01*
X113285Y111755D01*
X113265Y111757D01*
X113247Y111765D01*
X113080Y111783D01*
X111461Y111783D01*
X109243Y114001D01*
X109243Y117139D01*
X111461Y119357D01*
X114599Y119357D01*
X116817Y117139D01*
X116817Y116688D01*
X116820Y116668D01*
X116818Y116648D01*
X116840Y116547D01*
X116856Y116445D01*
X116866Y116427D01*
X116870Y116408D01*
X116923Y116319D01*
X116972Y116228D01*
X116986Y116214D01*
X116996Y116197D01*
X117075Y116129D01*
X117150Y116058D01*
X117168Y116050D01*
X117183Y116037D01*
X117279Y115998D01*
X117373Y115955D01*
X117393Y115952D01*
X117411Y115945D01*
X117578Y115926D01*
X119196Y115926D01*
X121415Y113708D01*
X121415Y110571D01*
X119196Y108353D01*
X116059Y108353D01*
G37*
%LPD*%
%LPC*%
G36*
X35261Y35583D02*
X35261Y35583D01*
X33043Y37801D01*
X33043Y40939D01*
X33682Y41578D01*
X33694Y41594D01*
X33710Y41606D01*
X33766Y41693D01*
X33826Y41777D01*
X33832Y41796D01*
X33843Y41813D01*
X33868Y41914D01*
X33898Y42012D01*
X33898Y42032D01*
X33903Y42052D01*
X33895Y42155D01*
X33892Y42258D01*
X33885Y42277D01*
X33884Y42297D01*
X33843Y42392D01*
X33808Y42489D01*
X33795Y42505D01*
X33787Y42523D01*
X33682Y42654D01*
X32841Y43496D01*
X32841Y46633D01*
X35059Y48851D01*
X38196Y48851D01*
X40414Y46633D01*
X40414Y43496D01*
X39775Y42857D01*
X39763Y42841D01*
X39748Y42828D01*
X39692Y42741D01*
X39632Y42657D01*
X39626Y42638D01*
X39615Y42621D01*
X39590Y42521D01*
X39559Y42422D01*
X39560Y42402D01*
X39555Y42383D01*
X39563Y42280D01*
X39566Y42176D01*
X39572Y42157D01*
X39574Y42137D01*
X39614Y42042D01*
X39650Y41945D01*
X39663Y41929D01*
X39670Y41911D01*
X39775Y41780D01*
X40617Y40939D01*
X40617Y37801D01*
X38399Y35583D01*
X35261Y35583D01*
G37*
%LPD*%
%LPC*%
G36*
X114209Y47513D02*
X114209Y47513D01*
X112283Y49439D01*
X112283Y51832D01*
X112280Y51852D01*
X112282Y51871D01*
X112260Y51973D01*
X112244Y52075D01*
X112234Y52092D01*
X112230Y52112D01*
X112177Y52201D01*
X112128Y52292D01*
X112114Y52306D01*
X112104Y52323D01*
X112025Y52390D01*
X111950Y52462D01*
X111932Y52470D01*
X111917Y52483D01*
X111821Y52522D01*
X111727Y52565D01*
X111707Y52567D01*
X111689Y52575D01*
X111522Y52593D01*
X110399Y52593D01*
X108473Y54519D01*
X108473Y57241D01*
X110399Y59167D01*
X113121Y59167D01*
X115047Y57241D01*
X115047Y54848D01*
X115050Y54828D01*
X115048Y54809D01*
X115070Y54707D01*
X115086Y54605D01*
X115096Y54588D01*
X115100Y54568D01*
X115153Y54479D01*
X115202Y54388D01*
X115216Y54374D01*
X115226Y54357D01*
X115305Y54290D01*
X115380Y54218D01*
X115398Y54210D01*
X115413Y54197D01*
X115509Y54158D01*
X115603Y54115D01*
X115623Y54113D01*
X115641Y54105D01*
X115808Y54087D01*
X116931Y54087D01*
X118857Y52161D01*
X118857Y49439D01*
X116931Y47513D01*
X114209Y47513D01*
G37*
%LPD*%
%LPC*%
G36*
X68489Y113553D02*
X68489Y113553D01*
X66563Y115479D01*
X66563Y118201D01*
X68489Y120127D01*
X71211Y120127D01*
X73137Y118201D01*
X73137Y115479D01*
X71211Y113553D01*
X68489Y113553D01*
G37*
%LPD*%
%LPC*%
G36*
X137638Y107773D02*
X137638Y107773D01*
X135713Y109698D01*
X135713Y112421D01*
X137638Y114346D01*
X140361Y114346D01*
X142286Y112421D01*
X142286Y109698D01*
X140361Y107773D01*
X137638Y107773D01*
G37*
%LPD*%
%LPC*%
G36*
X147229Y91963D02*
X147229Y91963D01*
X145303Y93889D01*
X145303Y96611D01*
X147229Y98537D01*
X149951Y98537D01*
X151877Y96611D01*
X151877Y93889D01*
X149951Y91963D01*
X147229Y91963D01*
G37*
%LPD*%
%LPC*%
G36*
X29119Y67833D02*
X29119Y67833D01*
X27193Y69759D01*
X27193Y72481D01*
X29119Y74407D01*
X31841Y74407D01*
X33767Y72481D01*
X33767Y69759D01*
X31841Y67833D01*
X29119Y67833D01*
G37*
%LPD*%
%LPC*%
G36*
X98969Y41163D02*
X98969Y41163D01*
X97043Y43089D01*
X97043Y45811D01*
X98969Y47737D01*
X101691Y47737D01*
X103617Y45811D01*
X103617Y43089D01*
X101691Y41163D01*
X98969Y41163D01*
G37*
%LPD*%
%LPC*%
G36*
X51459Y12765D02*
X51459Y12765D01*
X49533Y14690D01*
X49533Y17413D01*
X51459Y19339D01*
X54181Y19339D01*
X56107Y17413D01*
X56107Y14690D01*
X54181Y12765D01*
X51459Y12765D01*
G37*
%LPD*%
%LPC*%
G36*
X107859Y10683D02*
X107859Y10683D01*
X105933Y12609D01*
X105933Y15331D01*
X107859Y17257D01*
X110581Y17257D01*
X112507Y15331D01*
X112507Y12609D01*
X110581Y10683D01*
X107859Y10683D01*
G37*
%LPD*%
D10*
X77994Y127D03*
X65294Y127D03*
X52594Y127D03*
X39894Y127D03*
X27194Y127D03*
X90694Y127D03*
X103394Y127D03*
X116094Y127D03*
X128794Y127D03*
X2159Y76327D03*
X2159Y89027D03*
X2159Y101727D03*
X2159Y114427D03*
X2159Y127127D03*
X2159Y63627D03*
X2159Y50927D03*
X2159Y38227D03*
X2159Y25527D03*
X162598Y76410D03*
X162598Y89110D03*
X162598Y101810D03*
X162598Y114510D03*
X162598Y127210D03*
X162598Y63710D03*
X162598Y51010D03*
X162598Y38310D03*
X162598Y25610D03*
D11*
X158260Y158800D03*
X158260Y145030D03*
X6790Y160030D03*
X6790Y150030D03*
X6790Y140030D03*
X19290Y160030D03*
X19290Y150030D03*
X19290Y140030D03*
X72190Y73510D03*
X62030Y73510D03*
X53140Y73510D03*
X81080Y73510D03*
X91240Y73510D03*
X81080Y64620D03*
X81080Y55730D03*
X91240Y64620D03*
X91240Y55730D03*
X72190Y64620D03*
X72190Y55730D03*
X62030Y55730D03*
X62030Y64620D03*
X53140Y55730D03*
X53140Y64620D03*
X53140Y82400D03*
X53140Y91290D03*
X62030Y82400D03*
X62030Y91290D03*
X72190Y82400D03*
X81080Y82400D03*
X91240Y82400D03*
X72190Y91290D03*
X91240Y91290D03*
X81080Y91290D03*
X73260Y158600D03*
X75800Y147170D03*
X75800Y137010D03*
X85760Y158600D03*
X98260Y158600D03*
X109450Y158600D03*
X121910Y158600D03*
X134370Y158600D03*
X148100Y158600D03*
X134370Y145900D03*
X121910Y145900D03*
X109450Y145900D03*
X148100Y145030D03*
X60760Y158600D03*
D12*
X118110Y68580D03*
X147320Y87630D03*
D11*
X31990Y140030D03*
X43420Y140030D03*
D12*
X89487Y25805D03*
D11*
X6790Y5410D03*
X19290Y5410D03*
X158260Y5330D03*
X158260Y16760D03*
X144290Y5330D03*
X135640Y43030D03*
X30720Y98120D03*
X59490Y128120D03*
X75800Y119230D03*
D12*
X34938Y24922D03*
D11*
X121910Y135740D03*
X134370Y135740D03*
X148100Y136140D03*
X158260Y136140D03*
X148340Y58270D03*
X148340Y69700D03*
X60760Y167490D03*
X73260Y167490D03*
X85760Y167490D03*
X98260Y167490D03*
X109450Y167490D03*
X121910Y167490D03*
X134370Y167490D03*
X148100Y167490D03*
X158260Y167690D03*
X6790Y167650D03*
X49330Y167490D03*
X32820Y167490D03*
X26720Y167583D03*
X31990Y150190D03*
X31990Y159080D03*
X11145Y167564D03*
X31990Y129870D03*
X43420Y129870D03*
D12*
X120650Y40640D03*
X113030Y115570D03*
D11*
X148590Y95250D03*
D12*
X36830Y39370D03*
X117628Y112140D03*
X36628Y45064D03*
X113905Y40827D03*
D11*
X97790Y113030D03*
X90170Y113030D03*
X78740Y113030D03*
D13*
X90170Y113030D01*
D11*
X69850Y116840D03*
X16510Y121920D03*
X22860Y118110D03*
X29210Y116840D03*
X33020Y111760D03*
X30480Y71120D03*
X109220Y13970D03*
X101680Y19050D03*
X106090Y23630D03*
X110490Y27940D03*
X100330Y44450D03*
X115570Y50800D03*
X111760Y55880D03*
X139000Y111059D03*
X52820Y16052D03*
M02*
