G04 EAGLE Gerber RS-274X export*
G75*
%MOMM*%
%FSLAX34Y34*%
%LPD*%
%INTop Copper*%
%IPPOS*%
%AMOC8*
5,1,8,0,0,1.08239X$1,22.5*%
G01*
%ADD10C,0.280800*%
%ADD11C,0.500000*%
%ADD12C,0.270000*%
%ADD13C,1.016000*%
%ADD14C,0.150000*%
%ADD15R,4.000000X4.000000*%
%ADD16R,0.850000X0.950000*%
%ADD17R,0.900000X0.500000*%
%ADD18R,0.500000X0.500000*%
%ADD19C,0.450000*%
%ADD20C,0.254000*%
%ADD21C,0.503200*%
%ADD22C,0.304800*%
%ADD23C,0.609600*%
%ADD24C,0.508000*%
%ADD25C,0.152400*%
%ADD26C,0.200000*%
%ADD27C,0.406400*%
%ADD28C,0.403200*%

G36*
X146081Y50307D02*
X146081Y50307D01*
X146172Y50315D01*
X146201Y50327D01*
X146233Y50332D01*
X146314Y50375D01*
X146398Y50411D01*
X146430Y50437D01*
X146451Y50448D01*
X146473Y50471D01*
X146529Y50516D01*
X156536Y60522D01*
X156604Y60617D01*
X156674Y60711D01*
X156676Y60717D01*
X156679Y60722D01*
X156714Y60834D01*
X156750Y60945D01*
X156750Y60951D01*
X156752Y60957D01*
X156749Y61074D01*
X156747Y61191D01*
X156745Y61198D01*
X156745Y61203D01*
X156739Y61221D01*
X156701Y61352D01*
X156247Y62447D01*
X156247Y64973D01*
X157214Y67307D01*
X159001Y69094D01*
X159635Y69357D01*
X159696Y69394D01*
X159762Y69424D01*
X159800Y69459D01*
X159844Y69486D01*
X159890Y69542D01*
X159943Y69590D01*
X159968Y69636D01*
X160001Y69676D01*
X160027Y69743D01*
X160061Y69806D01*
X160070Y69857D01*
X160089Y69905D01*
X160092Y69977D01*
X160105Y70048D01*
X160097Y70099D01*
X160100Y70151D01*
X160080Y70220D01*
X160069Y70291D01*
X160046Y70337D01*
X160031Y70387D01*
X159990Y70446D01*
X159958Y70510D01*
X159920Y70547D01*
X159891Y70589D01*
X159833Y70632D01*
X159782Y70682D01*
X159719Y70717D01*
X159693Y70736D01*
X159671Y70744D01*
X159635Y70763D01*
X159001Y71026D01*
X157214Y72813D01*
X156247Y75147D01*
X156247Y77673D01*
X157214Y80007D01*
X159001Y81794D01*
X159635Y82057D01*
X159696Y82094D01*
X159762Y82124D01*
X159800Y82159D01*
X159844Y82186D01*
X159890Y82242D01*
X159943Y82290D01*
X159968Y82336D01*
X160001Y82376D01*
X160027Y82443D01*
X160061Y82506D01*
X160070Y82557D01*
X160089Y82605D01*
X160092Y82677D01*
X160105Y82748D01*
X160097Y82799D01*
X160100Y82851D01*
X160080Y82920D01*
X160069Y82991D01*
X160046Y83037D01*
X160031Y83087D01*
X159990Y83146D01*
X159958Y83210D01*
X159920Y83247D01*
X159891Y83289D01*
X159833Y83332D01*
X159782Y83382D01*
X159719Y83417D01*
X159693Y83436D01*
X159671Y83443D01*
X159635Y83463D01*
X159001Y83726D01*
X157214Y85513D01*
X156247Y87847D01*
X156247Y90373D01*
X157214Y92707D01*
X159001Y94494D01*
X159635Y94757D01*
X159696Y94794D01*
X159762Y94824D01*
X159800Y94859D01*
X159844Y94886D01*
X159890Y94942D01*
X159943Y94990D01*
X159968Y95036D01*
X160001Y95076D01*
X160027Y95143D01*
X160061Y95206D01*
X160070Y95257D01*
X160089Y95305D01*
X160092Y95377D01*
X160105Y95448D01*
X160097Y95499D01*
X160100Y95551D01*
X160080Y95620D01*
X160069Y95691D01*
X160046Y95737D01*
X160031Y95787D01*
X159990Y95846D01*
X159958Y95910D01*
X159920Y95947D01*
X159891Y95989D01*
X159833Y96032D01*
X159782Y96082D01*
X159719Y96117D01*
X159693Y96136D01*
X159671Y96143D01*
X159635Y96163D01*
X159001Y96426D01*
X157214Y98213D01*
X156247Y100547D01*
X156247Y103073D01*
X157214Y105407D01*
X159001Y107194D01*
X159635Y107457D01*
X159696Y107494D01*
X159762Y107524D01*
X159800Y107559D01*
X159844Y107586D01*
X159890Y107642D01*
X159943Y107690D01*
X159968Y107736D01*
X160001Y107776D01*
X160027Y107843D01*
X160061Y107906D01*
X160070Y107957D01*
X160089Y108005D01*
X160092Y108077D01*
X160105Y108148D01*
X160097Y108199D01*
X160100Y108251D01*
X160080Y108320D01*
X160069Y108391D01*
X160046Y108437D01*
X160031Y108487D01*
X159990Y108546D01*
X159958Y108610D01*
X159920Y108647D01*
X159891Y108689D01*
X159833Y108732D01*
X159782Y108782D01*
X159719Y108817D01*
X159693Y108836D01*
X159671Y108843D01*
X159635Y108863D01*
X159001Y109126D01*
X157214Y110913D01*
X156247Y113247D01*
X156247Y115773D01*
X157214Y118107D01*
X159001Y119894D01*
X159635Y120157D01*
X159696Y120194D01*
X159762Y120224D01*
X159800Y120259D01*
X159844Y120286D01*
X159890Y120342D01*
X159943Y120390D01*
X159968Y120436D01*
X160001Y120476D01*
X160027Y120543D01*
X160061Y120606D01*
X160070Y120657D01*
X160089Y120705D01*
X160092Y120777D01*
X160105Y120848D01*
X160097Y120899D01*
X160100Y120951D01*
X160080Y121020D01*
X160069Y121091D01*
X160046Y121137D01*
X160031Y121187D01*
X159990Y121246D01*
X159958Y121310D01*
X159920Y121347D01*
X159891Y121389D01*
X159833Y121432D01*
X159782Y121482D01*
X159719Y121517D01*
X159693Y121536D01*
X159671Y121543D01*
X159635Y121563D01*
X159001Y121826D01*
X157214Y123613D01*
X156247Y125947D01*
X156247Y128473D01*
X157214Y130807D01*
X159001Y132594D01*
X160108Y133053D01*
X160208Y133114D01*
X160308Y133174D01*
X160312Y133179D01*
X160317Y133182D01*
X160392Y133272D01*
X160468Y133361D01*
X160470Y133367D01*
X160474Y133372D01*
X160516Y133480D01*
X160560Y133589D01*
X160561Y133597D01*
X160562Y133601D01*
X160563Y133620D01*
X160578Y133756D01*
X160578Y169949D01*
X160575Y169969D01*
X160577Y169988D01*
X160555Y170090D01*
X160539Y170192D01*
X160529Y170209D01*
X160525Y170229D01*
X160472Y170318D01*
X160423Y170409D01*
X160409Y170423D01*
X160399Y170440D01*
X160320Y170507D01*
X160245Y170579D01*
X160227Y170587D01*
X160212Y170600D01*
X160116Y170639D01*
X160022Y170682D01*
X160002Y170684D01*
X159984Y170692D01*
X159817Y170710D01*
X44344Y170710D01*
X44325Y170707D01*
X44305Y170709D01*
X44204Y170687D01*
X44102Y170670D01*
X44084Y170661D01*
X44065Y170657D01*
X43976Y170604D01*
X43884Y170555D01*
X43871Y170541D01*
X43853Y170531D01*
X43786Y170452D01*
X43715Y170377D01*
X43706Y170359D01*
X43694Y170344D01*
X43655Y170248D01*
X43611Y170154D01*
X43609Y170134D01*
X43602Y170116D01*
X43583Y169949D01*
X43583Y165363D01*
X42830Y164610D01*
X42777Y164536D01*
X42718Y164466D01*
X42705Y164436D01*
X42687Y164410D01*
X42660Y164323D01*
X42626Y164238D01*
X42621Y164197D01*
X42614Y164175D01*
X42615Y164143D01*
X42607Y164071D01*
X42607Y159276D01*
X42622Y159186D01*
X42629Y159095D01*
X42642Y159065D01*
X42647Y159033D01*
X42690Y158952D01*
X42725Y158868D01*
X42751Y158836D01*
X42762Y158816D01*
X42785Y158793D01*
X42830Y158737D01*
X43215Y158353D01*
X43289Y158300D01*
X43358Y158240D01*
X43388Y158228D01*
X43415Y158209D01*
X43501Y158182D01*
X43586Y158148D01*
X43627Y158144D01*
X43650Y158137D01*
X43682Y158138D01*
X43753Y158130D01*
X45260Y158130D01*
X45350Y158144D01*
X45441Y158152D01*
X45471Y158164D01*
X45503Y158169D01*
X45584Y158212D01*
X45667Y158248D01*
X45700Y158274D01*
X45720Y158285D01*
X45742Y158308D01*
X45798Y158353D01*
X46674Y159229D01*
X52146Y159229D01*
X53681Y157694D01*
X53681Y152822D01*
X52335Y151476D01*
X52323Y151460D01*
X52307Y151448D01*
X52251Y151360D01*
X52191Y151277D01*
X52185Y151258D01*
X52174Y151241D01*
X52149Y151140D01*
X52119Y151041D01*
X52119Y151022D01*
X52114Y151002D01*
X52122Y150899D01*
X52125Y150796D01*
X52132Y150777D01*
X52133Y150757D01*
X52174Y150662D01*
X52209Y150565D01*
X52222Y150549D01*
X52230Y150531D01*
X52335Y150400D01*
X53099Y149636D01*
X53172Y149583D01*
X53242Y149523D01*
X53272Y149511D01*
X53298Y149492D01*
X53385Y149465D01*
X53470Y149431D01*
X53511Y149427D01*
X53533Y149420D01*
X53566Y149421D01*
X53637Y149413D01*
X54450Y149413D01*
X54540Y149427D01*
X54631Y149435D01*
X54661Y149447D01*
X54693Y149452D01*
X54773Y149495D01*
X54857Y149531D01*
X54889Y149557D01*
X54910Y149568D01*
X54932Y149591D01*
X54988Y149636D01*
X56626Y151273D01*
X61434Y151273D01*
X63001Y149707D01*
X63001Y144299D01*
X61917Y143215D01*
X61863Y143141D01*
X61804Y143071D01*
X61792Y143041D01*
X61773Y143015D01*
X61746Y142928D01*
X61712Y142843D01*
X61708Y142802D01*
X61701Y142780D01*
X61702Y142748D01*
X61694Y142676D01*
X61694Y141314D01*
X61708Y141225D01*
X61715Y141133D01*
X61728Y141104D01*
X61733Y141072D01*
X61776Y140991D01*
X61812Y140907D01*
X61838Y140875D01*
X61848Y140854D01*
X61872Y140832D01*
X61917Y140776D01*
X62681Y140012D01*
X62697Y140001D01*
X62709Y139985D01*
X62796Y139929D01*
X62880Y139869D01*
X62899Y139863D01*
X62916Y139852D01*
X63017Y139827D01*
X63115Y139796D01*
X63135Y139797D01*
X63155Y139792D01*
X63258Y139800D01*
X63361Y139803D01*
X63380Y139809D01*
X63400Y139811D01*
X63495Y139851D01*
X63592Y139887D01*
X63608Y139900D01*
X63626Y139907D01*
X63757Y140012D01*
X65103Y141358D01*
X69974Y141358D01*
X71510Y139823D01*
X71510Y134352D01*
X70473Y133315D01*
X70420Y133241D01*
X70360Y133172D01*
X70348Y133142D01*
X70329Y133115D01*
X70302Y133028D01*
X70268Y132944D01*
X70264Y132903D01*
X70257Y132880D01*
X70258Y132848D01*
X70250Y132777D01*
X70250Y130814D01*
X70264Y130724D01*
X70272Y130633D01*
X70284Y130603D01*
X70289Y130571D01*
X70332Y130491D01*
X70368Y130407D01*
X70394Y130375D01*
X70405Y130354D01*
X70428Y130332D01*
X70473Y130276D01*
X71217Y129532D01*
X71233Y129520D01*
X71245Y129505D01*
X71332Y129449D01*
X71416Y129388D01*
X71436Y129383D01*
X71452Y129372D01*
X71553Y129346D01*
X71652Y129316D01*
X71671Y129317D01*
X71691Y129312D01*
X71794Y129320D01*
X71897Y129322D01*
X71916Y129329D01*
X71936Y129331D01*
X72031Y129371D01*
X72128Y129407D01*
X72144Y129419D01*
X72162Y129427D01*
X72293Y129532D01*
X73651Y130890D01*
X78459Y130890D01*
X80026Y129323D01*
X80026Y126402D01*
X80041Y126310D01*
X80049Y126216D01*
X80061Y126189D01*
X80065Y126160D01*
X80109Y126077D01*
X80147Y125990D01*
X80167Y125968D01*
X80181Y125942D01*
X80249Y125878D01*
X80312Y125808D01*
X80343Y125788D01*
X80359Y125773D01*
X80389Y125759D01*
X80454Y125718D01*
X82447Y124747D01*
X82508Y124729D01*
X82565Y124701D01*
X82625Y124694D01*
X82683Y124676D01*
X82746Y124678D01*
X82809Y124671D01*
X82868Y124682D01*
X82929Y124685D01*
X82988Y124707D01*
X83050Y124719D01*
X83102Y124749D01*
X83159Y124771D01*
X83208Y124811D01*
X83263Y124842D01*
X83303Y124888D01*
X83350Y124926D01*
X83384Y124979D01*
X83425Y125027D01*
X83464Y125106D01*
X83481Y125134D01*
X83485Y125151D01*
X83498Y125178D01*
X83633Y125560D01*
X83641Y125604D01*
X83658Y125646D01*
X83673Y125785D01*
X83676Y125802D01*
X83676Y125806D01*
X83676Y125813D01*
X83676Y130389D01*
X85022Y131735D01*
X85034Y131751D01*
X85050Y131763D01*
X85106Y131851D01*
X85166Y131934D01*
X85172Y131953D01*
X85183Y131970D01*
X85208Y132071D01*
X85238Y132170D01*
X85238Y132189D01*
X85243Y132209D01*
X85235Y132312D01*
X85232Y132415D01*
X85225Y132434D01*
X85224Y132454D01*
X85183Y132549D01*
X85148Y132646D01*
X85135Y132662D01*
X85127Y132680D01*
X85022Y132811D01*
X83676Y134157D01*
X83676Y139029D01*
X84421Y139774D01*
X84474Y139848D01*
X84534Y139917D01*
X84546Y139947D01*
X84565Y139973D01*
X84592Y140060D01*
X84626Y140145D01*
X84630Y140186D01*
X84637Y140208D01*
X84636Y140241D01*
X84644Y140312D01*
X84644Y143625D01*
X84630Y143715D01*
X84622Y143806D01*
X84610Y143836D01*
X84605Y143868D01*
X84562Y143948D01*
X84526Y144032D01*
X84500Y144064D01*
X84489Y144085D01*
X84466Y144107D01*
X84421Y144163D01*
X83969Y144615D01*
X83969Y150086D01*
X85504Y151622D01*
X90375Y151622D01*
X91910Y150086D01*
X91910Y144615D01*
X91473Y144178D01*
X91419Y144104D01*
X91360Y144034D01*
X91348Y144004D01*
X91329Y143978D01*
X91302Y143891D01*
X91268Y143806D01*
X91264Y143765D01*
X91257Y143743D01*
X91258Y143711D01*
X91250Y143639D01*
X91250Y140312D01*
X91264Y140222D01*
X91272Y140131D01*
X91284Y140101D01*
X91289Y140069D01*
X91332Y139988D01*
X91368Y139905D01*
X91394Y139872D01*
X91405Y139852D01*
X91428Y139830D01*
X91473Y139774D01*
X92218Y139029D01*
X92218Y137231D01*
X92221Y137212D01*
X92219Y137193D01*
X92241Y137091D01*
X92257Y136988D01*
X92266Y136971D01*
X92271Y136952D01*
X92324Y136862D01*
X92373Y136771D01*
X92386Y136757D01*
X92396Y136741D01*
X92518Y136625D01*
X98174Y132317D01*
X98210Y132298D01*
X98241Y132272D01*
X98318Y132241D01*
X98392Y132202D01*
X98431Y132195D01*
X98469Y132180D01*
X98632Y132162D01*
X98634Y132162D01*
X98635Y132162D01*
X98636Y132162D01*
X101716Y132162D01*
X103251Y130627D01*
X103251Y125755D01*
X101716Y124220D01*
X99311Y124220D01*
X99246Y124210D01*
X99179Y124209D01*
X99125Y124190D01*
X99069Y124181D01*
X99010Y124149D01*
X98947Y124127D01*
X98902Y124092D01*
X98851Y124065D01*
X98805Y124017D01*
X98753Y123976D01*
X98705Y123911D01*
X98682Y123887D01*
X98673Y123869D01*
X98653Y123841D01*
X94697Y117033D01*
X94688Y117009D01*
X94673Y116989D01*
X94644Y116895D01*
X94609Y116803D01*
X94608Y116778D01*
X94601Y116754D01*
X94603Y116656D01*
X94599Y116557D01*
X94606Y116533D01*
X94607Y116508D01*
X94641Y116416D01*
X94668Y116321D01*
X94683Y116301D01*
X94692Y116277D01*
X94753Y116200D01*
X94809Y116120D01*
X94829Y116105D01*
X94845Y116085D01*
X94928Y116032D01*
X95007Y115973D01*
X95031Y115966D01*
X95052Y115952D01*
X95148Y115928D01*
X95241Y115898D01*
X95266Y115898D01*
X95291Y115892D01*
X95389Y115900D01*
X95487Y115901D01*
X95511Y115909D01*
X95536Y115911D01*
X95626Y115950D01*
X95719Y115982D01*
X95739Y115998D01*
X95762Y116007D01*
X95893Y116112D01*
X96332Y116551D01*
X99248Y116551D01*
X99574Y116225D01*
X99590Y116214D01*
X99603Y116198D01*
X99690Y116142D01*
X99774Y116082D01*
X99793Y116076D01*
X99809Y116065D01*
X99910Y116040D01*
X100009Y116009D01*
X100029Y116010D01*
X100048Y116005D01*
X100151Y116013D01*
X100255Y116016D01*
X100273Y116023D01*
X100293Y116024D01*
X100388Y116064D01*
X100486Y116100D01*
X100501Y116113D01*
X100519Y116120D01*
X100650Y116225D01*
X106942Y122517D01*
X106954Y122533D01*
X106969Y122545D01*
X107025Y122633D01*
X107086Y122716D01*
X107091Y122735D01*
X107102Y122752D01*
X107127Y122853D01*
X107158Y122952D01*
X107157Y122971D01*
X107162Y122991D01*
X107154Y123094D01*
X107152Y123197D01*
X107145Y123216D01*
X107143Y123236D01*
X107103Y123331D01*
X107067Y123428D01*
X107055Y123444D01*
X107047Y123462D01*
X106942Y123593D01*
X105169Y125366D01*
X105169Y130174D01*
X106736Y131741D01*
X112144Y131741D01*
X113710Y130174D01*
X113710Y125366D01*
X112144Y123800D01*
X112014Y123800D01*
X111994Y123796D01*
X111975Y123799D01*
X111873Y123777D01*
X111771Y123760D01*
X111754Y123751D01*
X111734Y123746D01*
X111645Y123693D01*
X111554Y123645D01*
X111540Y123630D01*
X111523Y123620D01*
X111456Y123541D01*
X111384Y123466D01*
X111376Y123448D01*
X111363Y123433D01*
X111324Y123337D01*
X111281Y123243D01*
X111279Y123224D01*
X111271Y123205D01*
X111253Y123038D01*
X111253Y121078D01*
X110831Y120656D01*
X110789Y120598D01*
X110740Y120546D01*
X110718Y120499D01*
X110687Y120457D01*
X110666Y120388D01*
X110636Y120323D01*
X110630Y120271D01*
X110615Y120221D01*
X110617Y120150D01*
X110609Y120079D01*
X110620Y120028D01*
X110621Y119976D01*
X110646Y119908D01*
X110661Y119838D01*
X110688Y119793D01*
X110706Y119745D01*
X110751Y119689D01*
X110787Y119627D01*
X110827Y119593D01*
X110860Y119553D01*
X110920Y119514D01*
X110974Y119467D01*
X111023Y119448D01*
X111067Y119420D01*
X111136Y119402D01*
X111203Y119375D01*
X111274Y119367D01*
X111305Y119359D01*
X111328Y119361D01*
X111369Y119357D01*
X114348Y119357D01*
X114368Y119360D01*
X114387Y119358D01*
X114489Y119380D01*
X114591Y119396D01*
X114608Y119406D01*
X114628Y119410D01*
X114717Y119463D01*
X114808Y119512D01*
X114822Y119526D01*
X114839Y119536D01*
X114906Y119615D01*
X114978Y119690D01*
X114986Y119708D01*
X114999Y119723D01*
X115038Y119819D01*
X115081Y119913D01*
X115083Y119933D01*
X115091Y119951D01*
X115109Y120118D01*
X115109Y122564D01*
X116676Y124131D01*
X122084Y124131D01*
X123651Y122564D01*
X123651Y122484D01*
X123662Y122413D01*
X123664Y122342D01*
X123682Y122293D01*
X123690Y122241D01*
X123724Y122178D01*
X123749Y122111D01*
X123781Y122070D01*
X123806Y122024D01*
X123858Y121975D01*
X123902Y121919D01*
X123946Y121891D01*
X123984Y121855D01*
X124049Y121824D01*
X124109Y121786D01*
X124160Y121773D01*
X124207Y121751D01*
X124278Y121743D01*
X124348Y121726D01*
X124400Y121730D01*
X124451Y121724D01*
X124522Y121739D01*
X124593Y121745D01*
X124641Y121765D01*
X124692Y121776D01*
X124753Y121813D01*
X124819Y121841D01*
X124875Y121886D01*
X124903Y121902D01*
X124918Y121920D01*
X124950Y121946D01*
X126716Y123712D01*
X132124Y123712D01*
X133763Y122073D01*
X133779Y122061D01*
X133791Y122046D01*
X133871Y121994D01*
X133877Y121989D01*
X133881Y121988D01*
X133962Y121929D01*
X133981Y121924D01*
X133998Y121913D01*
X134099Y121887D01*
X134198Y121857D01*
X134217Y121858D01*
X134237Y121853D01*
X134340Y121861D01*
X134443Y121863D01*
X134462Y121870D01*
X134482Y121872D01*
X134577Y121912D01*
X134674Y121948D01*
X134690Y121960D01*
X134708Y121968D01*
X134839Y122073D01*
X136341Y123575D01*
X141749Y123575D01*
X143144Y122180D01*
X143160Y122168D01*
X143172Y122153D01*
X143259Y122097D01*
X143343Y122036D01*
X143362Y122031D01*
X143379Y122020D01*
X143480Y121995D01*
X143578Y121964D01*
X143598Y121965D01*
X143618Y121960D01*
X143721Y121968D01*
X143824Y121970D01*
X143843Y121977D01*
X143863Y121979D01*
X143958Y122019D01*
X144055Y122055D01*
X144071Y122067D01*
X144089Y122075D01*
X144220Y122180D01*
X146004Y123964D01*
X151412Y123964D01*
X152979Y122397D01*
X152979Y117590D01*
X151355Y115966D01*
X151344Y115950D01*
X151328Y115937D01*
X151272Y115850D01*
X151212Y115766D01*
X151206Y115747D01*
X151195Y115730D01*
X151170Y115630D01*
X151139Y115531D01*
X151140Y115511D01*
X151135Y115492D01*
X151143Y115389D01*
X151146Y115285D01*
X151153Y115266D01*
X151154Y115247D01*
X151195Y115152D01*
X151230Y115054D01*
X151243Y115039D01*
X151250Y115020D01*
X151355Y114889D01*
X152861Y113384D01*
X152861Y108576D01*
X151503Y107218D01*
X151491Y107202D01*
X151476Y107190D01*
X151420Y107102D01*
X151359Y107019D01*
X151354Y107000D01*
X151343Y106983D01*
X151317Y106882D01*
X151287Y106783D01*
X151288Y106764D01*
X151283Y106744D01*
X151291Y106641D01*
X151293Y106538D01*
X151300Y106519D01*
X151302Y106499D01*
X151342Y106404D01*
X151378Y106307D01*
X151390Y106291D01*
X151398Y106273D01*
X151484Y106165D01*
X151485Y106163D01*
X151487Y106162D01*
X151503Y106142D01*
X152861Y104784D01*
X152861Y99976D01*
X151608Y98723D01*
X151555Y98649D01*
X151495Y98580D01*
X151483Y98549D01*
X151464Y98523D01*
X151437Y98436D01*
X151403Y98351D01*
X151399Y98311D01*
X151392Y98288D01*
X151393Y98256D01*
X151385Y98185D01*
X151385Y97750D01*
X151399Y97660D01*
X151407Y97569D01*
X151419Y97539D01*
X151424Y97507D01*
X151467Y97426D01*
X151503Y97342D01*
X151529Y97310D01*
X151540Y97290D01*
X151563Y97267D01*
X151608Y97211D01*
X152111Y96708D01*
X152111Y93792D01*
X150048Y91729D01*
X147132Y91729D01*
X145069Y93792D01*
X145069Y96708D01*
X145572Y97211D01*
X145625Y97285D01*
X145685Y97355D01*
X145697Y97385D01*
X145716Y97411D01*
X145743Y97498D01*
X145777Y97583D01*
X145781Y97624D01*
X145788Y97646D01*
X145787Y97678D01*
X145795Y97750D01*
X145795Y98185D01*
X145781Y98275D01*
X145773Y98366D01*
X145761Y98396D01*
X145756Y98428D01*
X145713Y98508D01*
X145677Y98592D01*
X145651Y98624D01*
X145640Y98645D01*
X145617Y98667D01*
X145572Y98723D01*
X144319Y99976D01*
X144319Y104784D01*
X145677Y106142D01*
X145689Y106158D01*
X145704Y106170D01*
X145735Y106218D01*
X145742Y106226D01*
X145748Y106239D01*
X145760Y106258D01*
X145821Y106341D01*
X145826Y106360D01*
X145837Y106377D01*
X145863Y106478D01*
X145893Y106577D01*
X145892Y106596D01*
X145897Y106616D01*
X145889Y106719D01*
X145887Y106822D01*
X145880Y106841D01*
X145878Y106861D01*
X145838Y106956D01*
X145802Y107053D01*
X145790Y107069D01*
X145782Y107087D01*
X145677Y107218D01*
X144141Y108754D01*
X144140Y108756D01*
X144134Y108761D01*
X144096Y108799D01*
X144058Y108826D01*
X143986Y108895D01*
X143968Y108903D01*
X143953Y108916D01*
X143908Y108934D01*
X143897Y108943D01*
X143859Y108954D01*
X143857Y108955D01*
X143763Y108999D01*
X143743Y109001D01*
X143725Y109008D01*
X143558Y109027D01*
X142261Y109027D01*
X142171Y109012D01*
X142080Y109005D01*
X142050Y108992D01*
X142018Y108987D01*
X141938Y108944D01*
X141854Y108909D01*
X141822Y108883D01*
X141801Y108872D01*
X141779Y108849D01*
X141723Y108804D01*
X140458Y107539D01*
X137541Y107539D01*
X135479Y109601D01*
X135479Y110565D01*
X135467Y110636D01*
X135465Y110708D01*
X135448Y110757D01*
X135439Y110808D01*
X135406Y110871D01*
X135381Y110939D01*
X135348Y110979D01*
X135324Y111025D01*
X135272Y111075D01*
X135227Y111131D01*
X135183Y111159D01*
X135146Y111195D01*
X135081Y111225D01*
X135020Y111264D01*
X134970Y111276D01*
X134923Y111298D01*
X134851Y111306D01*
X134782Y111324D01*
X134730Y111320D01*
X134678Y111325D01*
X134608Y111310D01*
X134537Y111305D01*
X134489Y111284D01*
X134438Y111273D01*
X134376Y111236D01*
X134310Y111208D01*
X134254Y111164D01*
X134227Y111147D01*
X134211Y111129D01*
X134179Y111104D01*
X126221Y103146D01*
X126180Y103088D01*
X126130Y103035D01*
X126108Y102988D01*
X126078Y102946D01*
X126057Y102878D01*
X126027Y102812D01*
X126021Y102761D01*
X126006Y102711D01*
X126007Y102639D01*
X126000Y102568D01*
X126011Y102517D01*
X126012Y102465D01*
X126037Y102398D01*
X126052Y102328D01*
X126078Y102283D01*
X126096Y102234D01*
X126141Y102178D01*
X126178Y102116D01*
X126218Y102083D01*
X126250Y102042D01*
X126310Y102003D01*
X126365Y101957D01*
X126413Y101937D01*
X126457Y101909D01*
X126526Y101891D01*
X126593Y101865D01*
X126664Y101857D01*
X126696Y101849D01*
X126719Y101851D01*
X126760Y101846D01*
X130700Y101846D01*
X132235Y100311D01*
X132235Y94840D01*
X130700Y93305D01*
X129864Y93305D01*
X129844Y93301D01*
X129824Y93304D01*
X129723Y93282D01*
X129621Y93265D01*
X129603Y93256D01*
X129584Y93251D01*
X129495Y93198D01*
X129404Y93150D01*
X129390Y93135D01*
X129373Y93125D01*
X129305Y93047D01*
X129234Y92972D01*
X129226Y92953D01*
X129213Y92938D01*
X129174Y92842D01*
X129131Y92748D01*
X129128Y92729D01*
X129121Y92710D01*
X129102Y92543D01*
X129102Y92366D01*
X129106Y92346D01*
X129103Y92326D01*
X129125Y92225D01*
X129142Y92123D01*
X129151Y92106D01*
X129156Y92086D01*
X129209Y91997D01*
X129257Y91906D01*
X129272Y91892D01*
X129282Y91875D01*
X129361Y91808D01*
X129436Y91736D01*
X129454Y91728D01*
X129469Y91715D01*
X129565Y91676D01*
X129659Y91633D01*
X129678Y91631D01*
X129697Y91623D01*
X129864Y91605D01*
X131846Y91605D01*
X132590Y90860D01*
X132590Y80627D01*
X132605Y80537D01*
X132612Y80446D01*
X132625Y80416D01*
X132630Y80384D01*
X132673Y80303D01*
X132709Y80220D01*
X132734Y80187D01*
X132745Y80167D01*
X132769Y80145D01*
X132813Y80089D01*
X133176Y79726D01*
X133250Y79673D01*
X133320Y79613D01*
X133350Y79601D01*
X133376Y79582D01*
X133463Y79555D01*
X133548Y79521D01*
X133589Y79517D01*
X133611Y79510D01*
X133643Y79511D01*
X133715Y79503D01*
X134235Y79503D01*
X134282Y79469D01*
X134333Y79453D01*
X134371Y79433D01*
X134835Y78865D01*
X134855Y78847D01*
X134886Y78808D01*
X135413Y78282D01*
X135422Y78224D01*
X135447Y78177D01*
X135463Y78126D01*
X135524Y78032D01*
X135538Y78006D01*
X135545Y77999D01*
X135555Y77985D01*
X136046Y77384D01*
X136050Y77380D01*
X136053Y77375D01*
X136142Y77299D01*
X136230Y77221D01*
X136235Y77219D01*
X136240Y77215D01*
X136349Y77171D01*
X136457Y77126D01*
X136463Y77125D01*
X136468Y77123D01*
X136635Y77105D01*
X143346Y77105D01*
X144090Y76360D01*
X144090Y65808D01*
X143346Y65063D01*
X139564Y65063D01*
X139544Y65060D01*
X139524Y65062D01*
X139423Y65040D01*
X139321Y65023D01*
X139303Y65014D01*
X139284Y65010D01*
X139195Y64957D01*
X139104Y64908D01*
X139090Y64894D01*
X139073Y64884D01*
X139006Y64805D01*
X138934Y64730D01*
X138926Y64712D01*
X138913Y64697D01*
X138874Y64601D01*
X138831Y64507D01*
X138828Y64487D01*
X138821Y64469D01*
X138803Y64302D01*
X138803Y64059D01*
X138817Y63969D01*
X138824Y63878D01*
X138837Y63848D01*
X138842Y63816D01*
X138885Y63736D01*
X138921Y63652D01*
X138946Y63620D01*
X138957Y63599D01*
X138981Y63577D01*
X139026Y63521D01*
X140741Y61806D01*
X140741Y56335D01*
X139205Y54799D01*
X134334Y54799D01*
X132799Y56335D01*
X132799Y61806D01*
X134514Y63521D01*
X134561Y63587D01*
X134570Y63596D01*
X134573Y63601D01*
X134627Y63664D01*
X134639Y63694D01*
X134658Y63721D01*
X134684Y63807D01*
X134719Y63892D01*
X134723Y63933D01*
X134730Y63956D01*
X134729Y63988D01*
X134737Y64059D01*
X134737Y64302D01*
X134734Y64322D01*
X134736Y64341D01*
X134714Y64443D01*
X134697Y64545D01*
X134688Y64562D01*
X134684Y64582D01*
X134631Y64671D01*
X134582Y64762D01*
X134568Y64776D01*
X134558Y64793D01*
X134479Y64860D01*
X134404Y64931D01*
X134386Y64940D01*
X134371Y64953D01*
X134274Y64992D01*
X134181Y65035D01*
X134161Y65037D01*
X134143Y65045D01*
X133976Y65063D01*
X133793Y65063D01*
X133049Y65808D01*
X133049Y74355D01*
X133040Y74407D01*
X133042Y74461D01*
X133021Y74528D01*
X133009Y74598D01*
X132984Y74645D01*
X132968Y74696D01*
X132908Y74790D01*
X132894Y74815D01*
X132886Y74822D01*
X132877Y74837D01*
X132615Y75158D01*
X132610Y75162D01*
X132607Y75167D01*
X132518Y75243D01*
X132430Y75321D01*
X132425Y75323D01*
X132420Y75327D01*
X132310Y75371D01*
X132204Y75416D01*
X132197Y75417D01*
X132192Y75419D01*
X132025Y75437D01*
X131715Y75437D01*
X131542Y75610D01*
X131468Y75663D01*
X131399Y75723D01*
X131369Y75735D01*
X131343Y75754D01*
X131256Y75780D01*
X131171Y75815D01*
X131130Y75819D01*
X131108Y75826D01*
X131075Y75825D01*
X131004Y75833D01*
X119805Y75833D01*
X119714Y75818D01*
X119624Y75811D01*
X119594Y75799D01*
X119562Y75793D01*
X119481Y75751D01*
X119397Y75715D01*
X119365Y75689D01*
X119344Y75678D01*
X119322Y75655D01*
X119266Y75610D01*
X108468Y64812D01*
X108427Y64754D01*
X108377Y64702D01*
X108355Y64655D01*
X108325Y64613D01*
X108304Y64544D01*
X108274Y64479D01*
X108268Y64427D01*
X108252Y64377D01*
X108254Y64306D01*
X108246Y64235D01*
X108257Y64184D01*
X108259Y64132D01*
X108283Y64064D01*
X108299Y63994D01*
X108325Y63950D01*
X108343Y63901D01*
X108388Y63845D01*
X108425Y63783D01*
X108464Y63749D01*
X108497Y63709D01*
X108557Y63670D01*
X108612Y63623D01*
X108660Y63604D01*
X108704Y63576D01*
X108773Y63558D01*
X108840Y63531D01*
X108911Y63523D01*
X108942Y63515D01*
X108966Y63517D01*
X109007Y63513D01*
X115142Y63513D01*
X128139Y50516D01*
X128213Y50463D01*
X128282Y50403D01*
X128313Y50391D01*
X128339Y50372D01*
X128426Y50345D01*
X128511Y50311D01*
X128552Y50307D01*
X128574Y50300D01*
X128606Y50301D01*
X128677Y50293D01*
X145991Y50293D01*
X146081Y50307D01*
G37*
G36*
X28884Y109162D02*
X28884Y109162D01*
X28956Y109164D01*
X29005Y109181D01*
X29056Y109190D01*
X29119Y109223D01*
X29187Y109248D01*
X29227Y109281D01*
X29273Y109305D01*
X29323Y109357D01*
X29379Y109402D01*
X29407Y109445D01*
X29443Y109483D01*
X29473Y109548D01*
X29512Y109609D01*
X29524Y109659D01*
X29546Y109706D01*
X29554Y109778D01*
X29572Y109847D01*
X29568Y109899D01*
X29573Y109951D01*
X29558Y110021D01*
X29552Y110092D01*
X29532Y110140D01*
X29521Y110191D01*
X29499Y110228D01*
X29499Y112558D01*
X29496Y112578D01*
X29498Y112597D01*
X29476Y112699D01*
X29460Y112801D01*
X29450Y112818D01*
X29446Y112838D01*
X29393Y112927D01*
X29344Y113018D01*
X29330Y113032D01*
X29320Y113049D01*
X29241Y113116D01*
X29166Y113188D01*
X29148Y113196D01*
X29133Y113209D01*
X29037Y113248D01*
X28943Y113291D01*
X28923Y113293D01*
X28905Y113301D01*
X28738Y113319D01*
X27752Y113319D01*
X25938Y115133D01*
X25922Y115144D01*
X25910Y115160D01*
X25822Y115216D01*
X25739Y115276D01*
X25720Y115282D01*
X25703Y115293D01*
X25602Y115318D01*
X25503Y115349D01*
X25484Y115348D01*
X25464Y115353D01*
X25361Y115345D01*
X25258Y115342D01*
X25239Y115335D01*
X25219Y115334D01*
X25124Y115293D01*
X25027Y115258D01*
X25011Y115245D01*
X24993Y115237D01*
X24862Y115133D01*
X24318Y114589D01*
X21402Y114589D01*
X19339Y116652D01*
X19339Y117932D01*
X19328Y118003D01*
X19326Y118075D01*
X19308Y118124D01*
X19300Y118175D01*
X19266Y118238D01*
X19241Y118306D01*
X19209Y118347D01*
X19184Y118393D01*
X19133Y118442D01*
X19088Y118498D01*
X19044Y118526D01*
X19006Y118562D01*
X18941Y118592D01*
X18881Y118631D01*
X18830Y118644D01*
X18783Y118666D01*
X18712Y118673D01*
X18642Y118691D01*
X18590Y118687D01*
X18539Y118693D01*
X18468Y118677D01*
X18397Y118672D01*
X18349Y118651D01*
X18298Y118640D01*
X18237Y118604D01*
X18171Y118575D01*
X18115Y118531D01*
X18087Y118514D01*
X18072Y118496D01*
X18040Y118471D01*
X17968Y118399D01*
X15052Y118399D01*
X12989Y120462D01*
X12989Y123378D01*
X15052Y125441D01*
X16841Y125441D01*
X16931Y125455D01*
X17022Y125463D01*
X17051Y125475D01*
X17083Y125480D01*
X17164Y125523D01*
X17248Y125559D01*
X17280Y125585D01*
X17301Y125596D01*
X17323Y125619D01*
X17379Y125664D01*
X17700Y125985D01*
X53844Y125985D01*
X61749Y118080D01*
X61823Y118027D01*
X61893Y117967D01*
X61923Y117955D01*
X61949Y117936D01*
X62036Y117909D01*
X62121Y117875D01*
X62162Y117871D01*
X62184Y117864D01*
X62216Y117865D01*
X62287Y117857D01*
X65572Y117857D01*
X65662Y117871D01*
X65753Y117879D01*
X65783Y117891D01*
X65815Y117896D01*
X65896Y117939D01*
X65980Y117975D01*
X66012Y118001D01*
X66032Y118012D01*
X66055Y118035D01*
X66111Y118080D01*
X68392Y120361D01*
X71308Y120361D01*
X73371Y118298D01*
X73371Y115522D01*
X73385Y115432D01*
X73393Y115341D01*
X73405Y115311D01*
X73410Y115279D01*
X73453Y115199D01*
X73489Y115115D01*
X73515Y115083D01*
X73526Y115062D01*
X73549Y115040D01*
X73594Y114984D01*
X74116Y114462D01*
X74132Y114450D01*
X74145Y114434D01*
X74224Y114383D01*
X74231Y114377D01*
X74237Y114375D01*
X74316Y114318D01*
X74335Y114312D01*
X74351Y114301D01*
X74452Y114276D01*
X74551Y114246D01*
X74571Y114246D01*
X74590Y114241D01*
X74693Y114249D01*
X74797Y114252D01*
X74815Y114259D01*
X74835Y114260D01*
X74930Y114301D01*
X75028Y114336D01*
X75043Y114349D01*
X75062Y114357D01*
X75142Y114421D01*
X75192Y114462D01*
X77282Y116551D01*
X80198Y116551D01*
X80939Y115810D01*
X80997Y115768D01*
X81049Y115719D01*
X81096Y115697D01*
X81138Y115667D01*
X81207Y115646D01*
X81272Y115615D01*
X81324Y115610D01*
X81374Y115594D01*
X81445Y115596D01*
X81516Y115588D01*
X81567Y115599D01*
X81619Y115601D01*
X81687Y115625D01*
X81757Y115641D01*
X81802Y115667D01*
X81850Y115685D01*
X81906Y115730D01*
X81968Y115767D01*
X82002Y115806D01*
X82042Y115839D01*
X82081Y115899D01*
X82128Y115954D01*
X82147Y116002D01*
X82175Y116046D01*
X82193Y116115D01*
X82220Y116182D01*
X82228Y116253D01*
X82236Y116284D01*
X82234Y116308D01*
X82238Y116349D01*
X82238Y119321D01*
X82223Y119414D01*
X82215Y119507D01*
X82203Y119535D01*
X82199Y119564D01*
X82155Y119647D01*
X82117Y119733D01*
X82097Y119755D01*
X82083Y119781D01*
X82015Y119846D01*
X81952Y119916D01*
X81921Y119935D01*
X81905Y119950D01*
X81875Y119964D01*
X81810Y120005D01*
X77159Y122271D01*
X77074Y122297D01*
X76992Y122330D01*
X76947Y122335D01*
X76923Y122342D01*
X76892Y122341D01*
X76826Y122348D01*
X73651Y122348D01*
X72293Y123706D01*
X72277Y123718D01*
X72265Y123733D01*
X72177Y123789D01*
X72094Y123850D01*
X72075Y123855D01*
X72058Y123866D01*
X71957Y123892D01*
X71858Y123922D01*
X71839Y123921D01*
X71819Y123926D01*
X71716Y123918D01*
X71613Y123916D01*
X71594Y123909D01*
X71574Y123907D01*
X71479Y123867D01*
X71382Y123831D01*
X71366Y123819D01*
X71348Y123811D01*
X71217Y123706D01*
X69859Y122348D01*
X65051Y122348D01*
X63484Y123915D01*
X63484Y129323D01*
X64437Y130276D01*
X64490Y130350D01*
X64550Y130419D01*
X64562Y130449D01*
X64581Y130476D01*
X64608Y130563D01*
X64642Y130647D01*
X64646Y130688D01*
X64653Y130711D01*
X64652Y130743D01*
X64660Y130814D01*
X64660Y132945D01*
X64646Y133035D01*
X64638Y133126D01*
X64626Y133155D01*
X64621Y133187D01*
X64578Y133268D01*
X64542Y133352D01*
X64516Y133384D01*
X64505Y133405D01*
X64482Y133427D01*
X64437Y133483D01*
X63757Y134163D01*
X63741Y134175D01*
X63729Y134190D01*
X63642Y134246D01*
X63557Y134307D01*
X63538Y134312D01*
X63522Y134323D01*
X63421Y134349D01*
X63322Y134379D01*
X63302Y134378D01*
X63283Y134383D01*
X63180Y134375D01*
X63076Y134373D01*
X63058Y134366D01*
X63038Y134364D01*
X62943Y134324D01*
X62845Y134288D01*
X62830Y134276D01*
X62812Y134268D01*
X62681Y134163D01*
X61334Y132817D01*
X56463Y132817D01*
X54928Y134352D01*
X54928Y139823D01*
X55881Y140776D01*
X55934Y140850D01*
X55994Y140920D01*
X56006Y140950D01*
X56025Y140976D01*
X56052Y141063D01*
X56086Y141148D01*
X56090Y141189D01*
X56097Y141211D01*
X56096Y141243D01*
X56104Y141314D01*
X56104Y142938D01*
X56089Y143029D01*
X56082Y143119D01*
X56070Y143149D01*
X56064Y143181D01*
X56022Y143262D01*
X55986Y143346D01*
X55960Y143378D01*
X55949Y143399D01*
X55926Y143421D01*
X55881Y143477D01*
X55758Y143600D01*
X55684Y143653D01*
X55614Y143713D01*
X55584Y143725D01*
X55558Y143744D01*
X55471Y143771D01*
X55386Y143805D01*
X55345Y143809D01*
X55323Y143816D01*
X55291Y143815D01*
X55219Y143823D01*
X53637Y143823D01*
X53547Y143809D01*
X53456Y143801D01*
X53426Y143789D01*
X53394Y143784D01*
X53313Y143741D01*
X53230Y143705D01*
X53197Y143679D01*
X53177Y143668D01*
X53155Y143645D01*
X53099Y143600D01*
X52146Y142647D01*
X46674Y142647D01*
X45139Y144182D01*
X45139Y149054D01*
X46485Y150400D01*
X46497Y150416D01*
X46513Y150428D01*
X46569Y150516D01*
X46629Y150599D01*
X46635Y150618D01*
X46646Y150635D01*
X46671Y150736D01*
X46701Y150835D01*
X46701Y150854D01*
X46706Y150874D01*
X46698Y150977D01*
X46695Y151080D01*
X46688Y151099D01*
X46687Y151119D01*
X46646Y151214D01*
X46611Y151311D01*
X46598Y151327D01*
X46590Y151345D01*
X46485Y151476D01*
X45644Y152317D01*
X45570Y152370D01*
X45501Y152430D01*
X45471Y152442D01*
X45445Y152461D01*
X45358Y152488D01*
X45273Y152522D01*
X45232Y152526D01*
X45210Y152533D01*
X45177Y152532D01*
X45106Y152540D01*
X43977Y152540D01*
X43887Y152526D01*
X43796Y152518D01*
X43766Y152506D01*
X43734Y152501D01*
X43653Y152458D01*
X43569Y152422D01*
X43537Y152396D01*
X43517Y152385D01*
X43494Y152362D01*
X43438Y152317D01*
X42374Y151252D01*
X36966Y151252D01*
X35399Y152819D01*
X35399Y157627D01*
X36795Y159023D01*
X36848Y159097D01*
X36907Y159166D01*
X36919Y159196D01*
X36938Y159223D01*
X36965Y159310D01*
X36999Y159394D01*
X37004Y159435D01*
X37011Y159458D01*
X37010Y159490D01*
X37018Y159561D01*
X37018Y164071D01*
X37003Y164161D01*
X36996Y164252D01*
X36983Y164282D01*
X36978Y164314D01*
X36935Y164395D01*
X36899Y164479D01*
X36874Y164511D01*
X36863Y164531D01*
X36839Y164554D01*
X36795Y164610D01*
X36042Y165363D01*
X36042Y169949D01*
X36038Y169969D01*
X36041Y169988D01*
X36019Y170090D01*
X36002Y170192D01*
X35993Y170209D01*
X35988Y170229D01*
X35935Y170318D01*
X35887Y170409D01*
X35872Y170423D01*
X35862Y170440D01*
X35783Y170507D01*
X35708Y170578D01*
X35690Y170587D01*
X35675Y170600D01*
X35579Y170639D01*
X35485Y170682D01*
X35466Y170684D01*
X35447Y170692D01*
X35280Y170710D01*
X23324Y170710D01*
X23324Y214877D01*
X37300Y214877D01*
X37300Y165889D01*
X37311Y165877D01*
X37312Y165878D01*
X37312Y165877D01*
X42312Y165877D01*
X42324Y165888D01*
X42324Y165889D01*
X42324Y214877D01*
X59300Y214877D01*
X59300Y188489D01*
X59311Y188477D01*
X59312Y188478D01*
X59312Y188477D01*
X89312Y188477D01*
X89324Y188488D01*
X89324Y188489D01*
X89324Y214877D01*
X106300Y214877D01*
X106300Y188489D01*
X106311Y188477D01*
X106312Y188478D01*
X106312Y188477D01*
X136312Y188477D01*
X136324Y188488D01*
X136324Y188489D01*
X136324Y214877D01*
X153300Y214877D01*
X153300Y175489D01*
X153311Y175477D01*
X153312Y175478D01*
X153312Y175477D01*
X158312Y175477D01*
X158324Y175488D01*
X158324Y175489D01*
X158324Y219889D01*
X158314Y219901D01*
X158313Y219900D01*
X158312Y219901D01*
X131312Y219901D01*
X131301Y219891D01*
X131301Y219890D01*
X131300Y219889D01*
X131300Y193501D01*
X111324Y193501D01*
X111324Y219889D01*
X111314Y219901D01*
X111313Y219900D01*
X111312Y219901D01*
X84312Y219901D01*
X84301Y219891D01*
X84301Y219890D01*
X84300Y219889D01*
X84300Y193501D01*
X64324Y193501D01*
X64324Y219889D01*
X64314Y219901D01*
X64313Y219900D01*
X64312Y219901D01*
X14312Y219901D01*
X14301Y219891D01*
X14301Y219890D01*
X14300Y219889D01*
X14300Y170710D01*
X4775Y170710D01*
X4755Y170707D01*
X4736Y170709D01*
X4634Y170687D01*
X4532Y170670D01*
X4515Y170661D01*
X4495Y170657D01*
X4406Y170604D01*
X4315Y170555D01*
X4301Y170541D01*
X4284Y170531D01*
X4217Y170452D01*
X4145Y170377D01*
X4137Y170359D01*
X4124Y170344D01*
X4085Y170248D01*
X4042Y170154D01*
X4040Y170134D01*
X4032Y170116D01*
X4014Y169949D01*
X4014Y133741D01*
X4033Y133627D01*
X4050Y133510D01*
X4052Y133505D01*
X4053Y133499D01*
X4108Y133396D01*
X4161Y133291D01*
X4166Y133287D01*
X4169Y133281D01*
X4253Y133201D01*
X4337Y133119D01*
X4343Y133115D01*
X4347Y133112D01*
X4364Y133104D01*
X4484Y133038D01*
X5756Y132511D01*
X7543Y130724D01*
X8510Y128390D01*
X8510Y125864D01*
X7543Y123530D01*
X5756Y121743D01*
X5122Y121480D01*
X5061Y121443D01*
X4995Y121413D01*
X4957Y121378D01*
X4913Y121351D01*
X4867Y121295D01*
X4814Y121247D01*
X4789Y121201D01*
X4756Y121161D01*
X4730Y121094D01*
X4696Y121031D01*
X4687Y120980D01*
X4668Y120932D01*
X4665Y120860D01*
X4652Y120789D01*
X4660Y120738D01*
X4657Y120686D01*
X4677Y120617D01*
X4688Y120546D01*
X4712Y120500D01*
X4726Y120450D01*
X4767Y120391D01*
X4799Y120327D01*
X4836Y120290D01*
X4866Y120248D01*
X4924Y120205D01*
X4975Y120155D01*
X5038Y120120D01*
X5064Y120101D01*
X5086Y120094D01*
X5122Y120074D01*
X5756Y119811D01*
X7543Y118024D01*
X8510Y115690D01*
X8510Y113882D01*
X8524Y113792D01*
X8532Y113701D01*
X8544Y113672D01*
X8549Y113640D01*
X8592Y113559D01*
X8628Y113475D01*
X8654Y113443D01*
X8665Y113422D01*
X8688Y113400D01*
X8733Y113344D01*
X12704Y109373D01*
X12778Y109320D01*
X12847Y109260D01*
X12877Y109248D01*
X12903Y109229D01*
X12991Y109203D01*
X13075Y109169D01*
X13116Y109164D01*
X13139Y109157D01*
X13171Y109158D01*
X13242Y109150D01*
X28813Y109150D01*
X28884Y109162D01*
G37*
G36*
X91108Y38701D02*
X91108Y38701D01*
X91127Y38698D01*
X91229Y38720D01*
X91331Y38737D01*
X91348Y38746D01*
X91368Y38751D01*
X91457Y38804D01*
X91548Y38852D01*
X91562Y38867D01*
X91579Y38877D01*
X91646Y38956D01*
X91718Y39031D01*
X91726Y39049D01*
X91739Y39064D01*
X91778Y39160D01*
X91821Y39254D01*
X91823Y39273D01*
X91831Y39292D01*
X91849Y39459D01*
X91849Y48317D01*
X93033Y49501D01*
X95838Y49501D01*
X95858Y49504D01*
X95877Y49502D01*
X95979Y49524D01*
X96081Y49540D01*
X96098Y49550D01*
X96118Y49554D01*
X96207Y49607D01*
X96298Y49656D01*
X96312Y49670D01*
X96329Y49680D01*
X96396Y49759D01*
X96468Y49834D01*
X96476Y49852D01*
X96489Y49867D01*
X96528Y49963D01*
X96571Y50057D01*
X96573Y50077D01*
X96581Y50095D01*
X96599Y50262D01*
X96599Y53067D01*
X96974Y53442D01*
X96986Y53458D01*
X97001Y53470D01*
X97057Y53557D01*
X97117Y53641D01*
X97123Y53660D01*
X97134Y53677D01*
X97159Y53778D01*
X97190Y53877D01*
X97189Y53896D01*
X97194Y53916D01*
X97186Y54019D01*
X97183Y54122D01*
X97177Y54141D01*
X97175Y54161D01*
X97135Y54256D01*
X97099Y54353D01*
X97087Y54369D01*
X97079Y54387D01*
X96974Y54518D01*
X96599Y54893D01*
X96599Y58067D01*
X96974Y58442D01*
X96986Y58458D01*
X97001Y58470D01*
X97057Y58557D01*
X97117Y58641D01*
X97123Y58660D01*
X97134Y58677D01*
X97159Y58778D01*
X97190Y58877D01*
X97189Y58896D01*
X97194Y58916D01*
X97186Y59019D01*
X97183Y59122D01*
X97177Y59141D01*
X97175Y59161D01*
X97135Y59256D01*
X97099Y59353D01*
X97087Y59369D01*
X97079Y59387D01*
X96974Y59518D01*
X96599Y59893D01*
X96599Y63067D01*
X96974Y63442D01*
X96986Y63458D01*
X97001Y63470D01*
X97057Y63557D01*
X97117Y63641D01*
X97123Y63660D01*
X97134Y63677D01*
X97159Y63778D01*
X97190Y63877D01*
X97189Y63896D01*
X97194Y63916D01*
X97186Y64019D01*
X97183Y64122D01*
X97177Y64141D01*
X97175Y64161D01*
X97135Y64256D01*
X97099Y64353D01*
X97087Y64369D01*
X97079Y64387D01*
X96974Y64518D01*
X96599Y64893D01*
X96599Y68067D01*
X96974Y68442D01*
X96986Y68458D01*
X97001Y68470D01*
X97057Y68557D01*
X97117Y68641D01*
X97123Y68660D01*
X97134Y68677D01*
X97159Y68778D01*
X97190Y68877D01*
X97189Y68896D01*
X97194Y68916D01*
X97186Y69019D01*
X97183Y69122D01*
X97177Y69141D01*
X97175Y69161D01*
X97135Y69256D01*
X97099Y69353D01*
X97087Y69369D01*
X97079Y69387D01*
X96974Y69518D01*
X96599Y69893D01*
X96599Y73067D01*
X96974Y73442D01*
X96986Y73458D01*
X97001Y73470D01*
X97057Y73557D01*
X97117Y73641D01*
X97123Y73660D01*
X97134Y73677D01*
X97159Y73778D01*
X97190Y73877D01*
X97189Y73896D01*
X97194Y73916D01*
X97186Y74019D01*
X97183Y74122D01*
X97177Y74141D01*
X97175Y74161D01*
X97135Y74256D01*
X97099Y74353D01*
X97087Y74369D01*
X97079Y74387D01*
X96974Y74518D01*
X96599Y74893D01*
X96599Y78067D01*
X96974Y78442D01*
X96986Y78458D01*
X97001Y78470D01*
X97057Y78557D01*
X97117Y78641D01*
X97123Y78660D01*
X97134Y78677D01*
X97159Y78778D01*
X97190Y78877D01*
X97189Y78896D01*
X97194Y78916D01*
X97186Y79019D01*
X97183Y79122D01*
X97177Y79141D01*
X97175Y79161D01*
X97135Y79256D01*
X97099Y79353D01*
X97087Y79369D01*
X97079Y79387D01*
X96974Y79518D01*
X96599Y79893D01*
X96599Y83067D01*
X96974Y83442D01*
X96986Y83458D01*
X97001Y83470D01*
X97057Y83557D01*
X97117Y83641D01*
X97123Y83660D01*
X97134Y83677D01*
X97159Y83778D01*
X97190Y83877D01*
X97189Y83896D01*
X97194Y83916D01*
X97186Y84019D01*
X97183Y84122D01*
X97177Y84141D01*
X97175Y84161D01*
X97135Y84256D01*
X97099Y84353D01*
X97087Y84369D01*
X97079Y84387D01*
X96974Y84518D01*
X96599Y84893D01*
X96599Y88067D01*
X96974Y88442D01*
X96986Y88458D01*
X97001Y88470D01*
X97057Y88557D01*
X97117Y88641D01*
X97123Y88660D01*
X97134Y88677D01*
X97159Y88778D01*
X97190Y88877D01*
X97189Y88896D01*
X97194Y88916D01*
X97186Y89019D01*
X97183Y89122D01*
X97177Y89141D01*
X97175Y89161D01*
X97135Y89256D01*
X97099Y89353D01*
X97087Y89369D01*
X97079Y89387D01*
X96974Y89518D01*
X96599Y89893D01*
X96599Y93067D01*
X96974Y93442D01*
X96986Y93458D01*
X97001Y93470D01*
X97057Y93557D01*
X97117Y93641D01*
X97123Y93660D01*
X97134Y93677D01*
X97159Y93778D01*
X97190Y93877D01*
X97189Y93896D01*
X97194Y93916D01*
X97186Y94019D01*
X97183Y94122D01*
X97177Y94141D01*
X97175Y94161D01*
X97135Y94256D01*
X97099Y94353D01*
X97087Y94369D01*
X97079Y94387D01*
X96974Y94518D01*
X96599Y94893D01*
X96599Y97698D01*
X96596Y97718D01*
X96598Y97737D01*
X96576Y97839D01*
X96560Y97941D01*
X96550Y97958D01*
X96546Y97978D01*
X96493Y98067D01*
X96444Y98158D01*
X96430Y98172D01*
X96420Y98189D01*
X96341Y98256D01*
X96266Y98328D01*
X96248Y98336D01*
X96233Y98349D01*
X96137Y98388D01*
X96043Y98431D01*
X96023Y98433D01*
X96005Y98441D01*
X95838Y98459D01*
X92946Y98459D01*
X92922Y98467D01*
X92857Y98497D01*
X92805Y98503D01*
X92756Y98518D01*
X92684Y98516D01*
X92613Y98524D01*
X92562Y98513D01*
X92510Y98512D01*
X92442Y98487D01*
X92372Y98472D01*
X92327Y98445D01*
X92279Y98427D01*
X92223Y98382D01*
X92161Y98345D01*
X92127Y98306D01*
X92087Y98273D01*
X92048Y98213D01*
X92001Y98159D01*
X91982Y98110D01*
X91954Y98067D01*
X91936Y97997D01*
X91909Y97930D01*
X91901Y97859D01*
X91893Y97828D01*
X91895Y97805D01*
X91891Y97764D01*
X91891Y96889D01*
X89571Y94569D01*
X80069Y94569D01*
X77349Y97289D01*
X77349Y97764D01*
X77338Y97834D01*
X77336Y97906D01*
X77318Y97955D01*
X77310Y98006D01*
X77276Y98070D01*
X77251Y98137D01*
X77219Y98178D01*
X77194Y98224D01*
X77143Y98273D01*
X77098Y98329D01*
X77054Y98357D01*
X77016Y98393D01*
X76951Y98423D01*
X76891Y98462D01*
X76840Y98475D01*
X76793Y98497D01*
X76722Y98505D01*
X76652Y98522D01*
X76600Y98518D01*
X76549Y98524D01*
X76478Y98509D01*
X76407Y98503D01*
X76359Y98483D01*
X76308Y98472D01*
X76287Y98459D01*
X73033Y98459D01*
X72658Y98834D01*
X72642Y98846D01*
X72630Y98861D01*
X72559Y98907D01*
X72530Y98931D01*
X72514Y98938D01*
X72459Y98977D01*
X72440Y98983D01*
X72423Y98994D01*
X72322Y99019D01*
X72223Y99050D01*
X72204Y99049D01*
X72184Y99054D01*
X72081Y99046D01*
X71978Y99043D01*
X71959Y99037D01*
X71939Y99035D01*
X71844Y98995D01*
X71747Y98959D01*
X71731Y98947D01*
X71713Y98939D01*
X71654Y98892D01*
X71644Y98887D01*
X71634Y98876D01*
X71582Y98834D01*
X71207Y98459D01*
X68033Y98459D01*
X67658Y98834D01*
X67642Y98846D01*
X67630Y98861D01*
X67559Y98907D01*
X67530Y98931D01*
X67514Y98938D01*
X67459Y98977D01*
X67440Y98983D01*
X67423Y98994D01*
X67322Y99019D01*
X67223Y99050D01*
X67204Y99049D01*
X67184Y99054D01*
X67081Y99046D01*
X66978Y99043D01*
X66959Y99037D01*
X66939Y99035D01*
X66844Y98995D01*
X66747Y98959D01*
X66731Y98947D01*
X66713Y98939D01*
X66654Y98892D01*
X66644Y98887D01*
X66634Y98876D01*
X66582Y98834D01*
X66207Y98459D01*
X63033Y98459D01*
X62658Y98834D01*
X62642Y98846D01*
X62630Y98861D01*
X62559Y98907D01*
X62530Y98931D01*
X62514Y98938D01*
X62459Y98977D01*
X62440Y98983D01*
X62423Y98994D01*
X62322Y99019D01*
X62223Y99050D01*
X62204Y99049D01*
X62184Y99054D01*
X62081Y99046D01*
X61978Y99043D01*
X61959Y99037D01*
X61939Y99035D01*
X61844Y98995D01*
X61747Y98959D01*
X61731Y98947D01*
X61713Y98939D01*
X61654Y98892D01*
X61644Y98887D01*
X61634Y98876D01*
X61582Y98834D01*
X61207Y98459D01*
X58033Y98459D01*
X57658Y98834D01*
X57642Y98846D01*
X57630Y98861D01*
X57559Y98907D01*
X57530Y98931D01*
X57514Y98938D01*
X57459Y98977D01*
X57440Y98983D01*
X57423Y98994D01*
X57322Y99019D01*
X57223Y99050D01*
X57204Y99049D01*
X57184Y99054D01*
X57081Y99046D01*
X56978Y99043D01*
X56959Y99037D01*
X56939Y99035D01*
X56844Y98995D01*
X56747Y98959D01*
X56731Y98947D01*
X56713Y98939D01*
X56654Y98892D01*
X56644Y98887D01*
X56634Y98876D01*
X56582Y98834D01*
X56207Y98459D01*
X53033Y98459D01*
X52658Y98834D01*
X52642Y98846D01*
X52630Y98861D01*
X52559Y98907D01*
X52530Y98931D01*
X52514Y98938D01*
X52459Y98977D01*
X52440Y98983D01*
X52423Y98994D01*
X52322Y99019D01*
X52223Y99050D01*
X52204Y99049D01*
X52184Y99054D01*
X52081Y99046D01*
X51978Y99043D01*
X51959Y99037D01*
X51939Y99035D01*
X51844Y98995D01*
X51747Y98959D01*
X51731Y98947D01*
X51713Y98939D01*
X51654Y98892D01*
X51644Y98887D01*
X51634Y98876D01*
X51582Y98834D01*
X51207Y98459D01*
X48033Y98459D01*
X46849Y99643D01*
X46849Y108317D01*
X47214Y108682D01*
X47256Y108740D01*
X47305Y108792D01*
X47327Y108839D01*
X47358Y108881D01*
X47379Y108950D01*
X47409Y109015D01*
X47415Y109067D01*
X47430Y109117D01*
X47428Y109188D01*
X47436Y109259D01*
X47425Y109310D01*
X47424Y109362D01*
X47399Y109430D01*
X47384Y109500D01*
X47357Y109545D01*
X47339Y109593D01*
X47294Y109649D01*
X47257Y109711D01*
X47218Y109745D01*
X47185Y109785D01*
X47125Y109824D01*
X47071Y109871D01*
X47022Y109890D01*
X46978Y109918D01*
X46909Y109936D01*
X46842Y109963D01*
X46771Y109971D01*
X46740Y109979D01*
X46717Y109977D01*
X46676Y109981D01*
X41064Y109981D01*
X40974Y109967D01*
X40883Y109959D01*
X40853Y109947D01*
X40821Y109942D01*
X40741Y109899D01*
X40657Y109863D01*
X40625Y109837D01*
X40604Y109826D01*
X40582Y109803D01*
X40526Y109758D01*
X35852Y105085D01*
X11243Y105085D01*
X9829Y106498D01*
X7059Y109269D01*
X7042Y109280D01*
X7030Y109296D01*
X6943Y109352D01*
X6859Y109412D01*
X6840Y109418D01*
X6823Y109429D01*
X6723Y109454D01*
X6624Y109485D01*
X6604Y109484D01*
X6585Y109489D01*
X6482Y109481D01*
X6378Y109478D01*
X6359Y109471D01*
X6339Y109470D01*
X6244Y109429D01*
X6147Y109394D01*
X6131Y109381D01*
X6113Y109374D01*
X5982Y109269D01*
X5756Y109043D01*
X5122Y108780D01*
X5061Y108743D01*
X4995Y108713D01*
X4957Y108678D01*
X4913Y108651D01*
X4867Y108595D01*
X4814Y108547D01*
X4789Y108501D01*
X4756Y108461D01*
X4730Y108394D01*
X4696Y108331D01*
X4687Y108280D01*
X4668Y108232D01*
X4665Y108160D01*
X4652Y108089D01*
X4660Y108038D01*
X4657Y107986D01*
X4677Y107917D01*
X4688Y107846D01*
X4712Y107800D01*
X4726Y107750D01*
X4767Y107691D01*
X4799Y107627D01*
X4836Y107590D01*
X4866Y107548D01*
X4924Y107505D01*
X4975Y107455D01*
X5038Y107420D01*
X5064Y107401D01*
X5086Y107394D01*
X5122Y107374D01*
X5756Y107111D01*
X7543Y105324D01*
X8510Y102990D01*
X8510Y100464D01*
X8205Y99728D01*
X8178Y99614D01*
X8150Y99501D01*
X8150Y99495D01*
X8149Y99489D01*
X8160Y99372D01*
X8169Y99256D01*
X8171Y99250D01*
X8172Y99244D01*
X8220Y99137D01*
X8265Y99030D01*
X8270Y99024D01*
X8272Y99019D01*
X8285Y99005D01*
X8370Y98899D01*
X15859Y91410D01*
X15933Y91357D01*
X16002Y91297D01*
X16033Y91285D01*
X16059Y91266D01*
X16146Y91239D01*
X16231Y91205D01*
X16272Y91201D01*
X16294Y91194D01*
X16326Y91195D01*
X16397Y91187D01*
X32117Y91187D01*
X32207Y91201D01*
X32298Y91209D01*
X32327Y91221D01*
X32359Y91226D01*
X32440Y91269D01*
X32524Y91305D01*
X32556Y91331D01*
X32577Y91342D01*
X32599Y91365D01*
X32655Y91410D01*
X34758Y93513D01*
X36730Y93513D01*
X36820Y93527D01*
X36911Y93535D01*
X36940Y93547D01*
X36972Y93552D01*
X37053Y93595D01*
X37137Y93631D01*
X37169Y93657D01*
X37190Y93668D01*
X37212Y93691D01*
X37268Y93736D01*
X37783Y94251D01*
X46457Y94251D01*
X47641Y93067D01*
X47641Y89893D01*
X47266Y89518D01*
X47254Y89502D01*
X47239Y89490D01*
X47183Y89403D01*
X47123Y89319D01*
X47117Y89300D01*
X47106Y89283D01*
X47081Y89182D01*
X47050Y89083D01*
X47051Y89064D01*
X47046Y89044D01*
X47054Y88941D01*
X47057Y88838D01*
X47063Y88819D01*
X47065Y88799D01*
X47105Y88704D01*
X47141Y88607D01*
X47153Y88591D01*
X47161Y88573D01*
X47266Y88442D01*
X47641Y88067D01*
X47641Y84893D01*
X47266Y84518D01*
X47254Y84502D01*
X47239Y84490D01*
X47183Y84403D01*
X47123Y84319D01*
X47117Y84300D01*
X47106Y84283D01*
X47081Y84182D01*
X47050Y84083D01*
X47051Y84064D01*
X47046Y84044D01*
X47054Y83941D01*
X47057Y83838D01*
X47063Y83819D01*
X47065Y83799D01*
X47105Y83704D01*
X47141Y83607D01*
X47153Y83591D01*
X47161Y83573D01*
X47266Y83442D01*
X47641Y83067D01*
X47641Y79893D01*
X47266Y79518D01*
X47254Y79502D01*
X47239Y79490D01*
X47183Y79403D01*
X47123Y79319D01*
X47117Y79300D01*
X47106Y79283D01*
X47081Y79182D01*
X47050Y79083D01*
X47051Y79064D01*
X47046Y79044D01*
X47054Y78941D01*
X47057Y78838D01*
X47063Y78819D01*
X47065Y78799D01*
X47105Y78704D01*
X47141Y78607D01*
X47153Y78591D01*
X47161Y78573D01*
X47266Y78442D01*
X47641Y78067D01*
X47641Y74893D01*
X47266Y74518D01*
X47254Y74502D01*
X47239Y74490D01*
X47183Y74402D01*
X47123Y74319D01*
X47117Y74300D01*
X47106Y74283D01*
X47081Y74182D01*
X47050Y74083D01*
X47051Y74064D01*
X47046Y74044D01*
X47054Y73941D01*
X47057Y73838D01*
X47063Y73819D01*
X47065Y73799D01*
X47105Y73704D01*
X47141Y73607D01*
X47153Y73591D01*
X47161Y73573D01*
X47266Y73442D01*
X47641Y73067D01*
X47641Y69893D01*
X47266Y69518D01*
X47254Y69502D01*
X47239Y69490D01*
X47183Y69403D01*
X47123Y69319D01*
X47117Y69300D01*
X47106Y69283D01*
X47081Y69182D01*
X47050Y69083D01*
X47051Y69064D01*
X47046Y69044D01*
X47054Y68941D01*
X47057Y68838D01*
X47063Y68819D01*
X47065Y68799D01*
X47105Y68704D01*
X47141Y68607D01*
X47153Y68591D01*
X47161Y68573D01*
X47266Y68442D01*
X47641Y68067D01*
X47641Y64893D01*
X47266Y64518D01*
X47254Y64502D01*
X47239Y64490D01*
X47183Y64403D01*
X47123Y64319D01*
X47117Y64300D01*
X47106Y64283D01*
X47081Y64182D01*
X47050Y64083D01*
X47051Y64064D01*
X47046Y64044D01*
X47054Y63941D01*
X47057Y63838D01*
X47063Y63819D01*
X47065Y63799D01*
X47105Y63704D01*
X47141Y63607D01*
X47153Y63591D01*
X47161Y63573D01*
X47266Y63442D01*
X47641Y63067D01*
X47641Y59893D01*
X47266Y59518D01*
X47254Y59502D01*
X47239Y59490D01*
X47183Y59403D01*
X47123Y59319D01*
X47117Y59300D01*
X47106Y59283D01*
X47081Y59182D01*
X47050Y59083D01*
X47051Y59064D01*
X47046Y59044D01*
X47054Y58941D01*
X47057Y58838D01*
X47063Y58819D01*
X47065Y58799D01*
X47105Y58704D01*
X47141Y58607D01*
X47153Y58591D01*
X47161Y58573D01*
X47266Y58442D01*
X47641Y58067D01*
X47641Y54893D01*
X47266Y54518D01*
X47254Y54502D01*
X47239Y54490D01*
X47183Y54403D01*
X47123Y54319D01*
X47117Y54300D01*
X47106Y54283D01*
X47081Y54182D01*
X47050Y54083D01*
X47051Y54064D01*
X47046Y54044D01*
X47054Y53941D01*
X47057Y53838D01*
X47063Y53819D01*
X47065Y53799D01*
X47105Y53704D01*
X47141Y53607D01*
X47153Y53591D01*
X47161Y53573D01*
X47266Y53442D01*
X47641Y53067D01*
X47641Y50262D01*
X47644Y50242D01*
X47642Y50223D01*
X47664Y50121D01*
X47680Y50019D01*
X47690Y50002D01*
X47694Y49982D01*
X47747Y49893D01*
X47796Y49802D01*
X47810Y49788D01*
X47820Y49771D01*
X47899Y49704D01*
X47974Y49632D01*
X47992Y49624D01*
X48007Y49611D01*
X48103Y49572D01*
X48197Y49529D01*
X48217Y49527D01*
X48235Y49519D01*
X48402Y49501D01*
X51207Y49501D01*
X51582Y49126D01*
X51598Y49114D01*
X51610Y49099D01*
X51697Y49043D01*
X51781Y48983D01*
X51800Y48977D01*
X51817Y48966D01*
X51918Y48941D01*
X52017Y48910D01*
X52036Y48911D01*
X52056Y48906D01*
X52159Y48914D01*
X52262Y48917D01*
X52281Y48923D01*
X52301Y48925D01*
X52396Y48965D01*
X52493Y49001D01*
X52509Y49013D01*
X52527Y49021D01*
X52658Y49126D01*
X53033Y49501D01*
X56207Y49501D01*
X56582Y49126D01*
X56598Y49114D01*
X56610Y49099D01*
X56697Y49043D01*
X56781Y48983D01*
X56800Y48977D01*
X56817Y48966D01*
X56918Y48941D01*
X57017Y48910D01*
X57036Y48911D01*
X57056Y48906D01*
X57159Y48914D01*
X57262Y48917D01*
X57281Y48923D01*
X57301Y48925D01*
X57396Y48965D01*
X57493Y49001D01*
X57509Y49013D01*
X57527Y49021D01*
X57658Y49126D01*
X58033Y49501D01*
X61207Y49501D01*
X61582Y49126D01*
X61598Y49114D01*
X61610Y49099D01*
X61697Y49043D01*
X61781Y48983D01*
X61800Y48977D01*
X61817Y48966D01*
X61918Y48941D01*
X62017Y48910D01*
X62036Y48911D01*
X62056Y48906D01*
X62159Y48914D01*
X62262Y48917D01*
X62281Y48923D01*
X62301Y48925D01*
X62396Y48965D01*
X62493Y49001D01*
X62509Y49013D01*
X62527Y49021D01*
X62658Y49126D01*
X63033Y49501D01*
X66207Y49501D01*
X66582Y49126D01*
X66598Y49114D01*
X66610Y49099D01*
X66697Y49043D01*
X66781Y48983D01*
X66800Y48977D01*
X66817Y48966D01*
X66918Y48941D01*
X67017Y48910D01*
X67036Y48911D01*
X67056Y48906D01*
X67159Y48914D01*
X67262Y48917D01*
X67281Y48923D01*
X67301Y48925D01*
X67396Y48965D01*
X67493Y49001D01*
X67509Y49013D01*
X67527Y49021D01*
X67658Y49126D01*
X68033Y49501D01*
X71207Y49501D01*
X71582Y49126D01*
X71598Y49114D01*
X71610Y49099D01*
X71697Y49043D01*
X71781Y48983D01*
X71800Y48977D01*
X71817Y48966D01*
X71918Y48941D01*
X72017Y48910D01*
X72036Y48911D01*
X72056Y48906D01*
X72159Y48914D01*
X72262Y48917D01*
X72281Y48923D01*
X72301Y48925D01*
X72396Y48965D01*
X72493Y49001D01*
X72509Y49013D01*
X72527Y49021D01*
X72658Y49126D01*
X73033Y49501D01*
X76207Y49501D01*
X76582Y49126D01*
X76598Y49114D01*
X76610Y49099D01*
X76697Y49043D01*
X76781Y48983D01*
X76800Y48977D01*
X76817Y48966D01*
X76918Y48941D01*
X77017Y48910D01*
X77036Y48911D01*
X77056Y48906D01*
X77159Y48914D01*
X77262Y48917D01*
X77281Y48923D01*
X77301Y48925D01*
X77396Y48965D01*
X77493Y49001D01*
X77509Y49013D01*
X77527Y49021D01*
X77658Y49126D01*
X78033Y49501D01*
X81207Y49501D01*
X81582Y49126D01*
X81598Y49114D01*
X81610Y49099D01*
X81697Y49043D01*
X81781Y48983D01*
X81800Y48977D01*
X81817Y48966D01*
X81918Y48941D01*
X82017Y48910D01*
X82036Y48911D01*
X82056Y48906D01*
X82159Y48914D01*
X82262Y48917D01*
X82281Y48923D01*
X82301Y48925D01*
X82396Y48965D01*
X82493Y49001D01*
X82509Y49013D01*
X82527Y49021D01*
X82658Y49126D01*
X83033Y49501D01*
X86207Y49501D01*
X87391Y48317D01*
X87391Y39551D01*
X87405Y39461D01*
X87413Y39370D01*
X87425Y39340D01*
X87430Y39308D01*
X87473Y39227D01*
X87509Y39143D01*
X87535Y39111D01*
X87546Y39091D01*
X87569Y39068D01*
X87614Y39012D01*
X87706Y38920D01*
X87780Y38867D01*
X87849Y38808D01*
X87879Y38796D01*
X87905Y38777D01*
X87992Y38750D01*
X88077Y38716D01*
X88118Y38711D01*
X88141Y38705D01*
X88173Y38705D01*
X88244Y38697D01*
X91088Y38697D01*
X91108Y38701D01*
G37*
G36*
X159837Y2366D02*
X159837Y2366D01*
X159856Y2364D01*
X159958Y2386D01*
X160060Y2402D01*
X160077Y2412D01*
X160097Y2416D01*
X160186Y2469D01*
X160277Y2518D01*
X160291Y2532D01*
X160308Y2542D01*
X160375Y2621D01*
X160447Y2696D01*
X160455Y2714D01*
X160468Y2729D01*
X160507Y2825D01*
X160550Y2919D01*
X160552Y2939D01*
X160560Y2957D01*
X160578Y3124D01*
X160578Y19064D01*
X160559Y19179D01*
X160542Y19295D01*
X160540Y19301D01*
X160539Y19307D01*
X160484Y19409D01*
X160431Y19514D01*
X160426Y19519D01*
X160423Y19524D01*
X160340Y19603D01*
X160255Y19686D01*
X160249Y19690D01*
X160245Y19693D01*
X160228Y19701D01*
X160108Y19767D01*
X159001Y20226D01*
X157214Y22013D01*
X156247Y24347D01*
X156247Y26873D01*
X157214Y29207D01*
X159001Y30994D01*
X159635Y31257D01*
X159696Y31294D01*
X159762Y31324D01*
X159800Y31359D01*
X159844Y31386D01*
X159890Y31442D01*
X159943Y31490D01*
X159968Y31536D01*
X160001Y31576D01*
X160027Y31643D01*
X160061Y31706D01*
X160070Y31757D01*
X160089Y31805D01*
X160092Y31877D01*
X160105Y31948D01*
X160097Y31999D01*
X160100Y32051D01*
X160080Y32120D01*
X160069Y32191D01*
X160046Y32237D01*
X160031Y32287D01*
X159990Y32346D01*
X159958Y32410D01*
X159920Y32447D01*
X159891Y32489D01*
X159833Y32532D01*
X159782Y32582D01*
X159719Y32617D01*
X159693Y32636D01*
X159671Y32644D01*
X159635Y32663D01*
X159001Y32926D01*
X157214Y34713D01*
X156247Y37047D01*
X156247Y39573D01*
X157214Y41907D01*
X159001Y43694D01*
X159635Y43957D01*
X159696Y43994D01*
X159762Y44024D01*
X159800Y44059D01*
X159844Y44086D01*
X159890Y44142D01*
X159943Y44190D01*
X159968Y44236D01*
X160001Y44276D01*
X160027Y44343D01*
X160061Y44406D01*
X160070Y44457D01*
X160089Y44505D01*
X160092Y44577D01*
X160105Y44648D01*
X160097Y44699D01*
X160100Y44751D01*
X160080Y44820D01*
X160069Y44891D01*
X160046Y44937D01*
X160031Y44987D01*
X159990Y45046D01*
X159958Y45110D01*
X159920Y45147D01*
X159891Y45189D01*
X159833Y45232D01*
X159782Y45282D01*
X159719Y45317D01*
X159693Y45336D01*
X159671Y45344D01*
X159635Y45363D01*
X159001Y45626D01*
X157214Y47413D01*
X156247Y49747D01*
X156247Y52273D01*
X156346Y52512D01*
X156369Y52607D01*
X156397Y52700D01*
X156397Y52726D01*
X156403Y52752D01*
X156393Y52849D01*
X156391Y52946D01*
X156382Y52971D01*
X156379Y52997D01*
X156340Y53086D01*
X156306Y53177D01*
X156290Y53198D01*
X156279Y53222D01*
X156214Y53293D01*
X156153Y53369D01*
X156131Y53383D01*
X156113Y53403D01*
X156028Y53450D01*
X155946Y53502D01*
X155920Y53509D01*
X155898Y53521D01*
X155802Y53539D01*
X155707Y53562D01*
X155681Y53560D01*
X155655Y53565D01*
X155559Y53551D01*
X155462Y53543D01*
X155438Y53533D01*
X155412Y53529D01*
X155325Y53485D01*
X155236Y53447D01*
X155210Y53427D01*
X155193Y53418D01*
X155170Y53394D01*
X155105Y53342D01*
X147990Y46227D01*
X126678Y46227D01*
X125264Y47641D01*
X120390Y52515D01*
X120332Y52557D01*
X120280Y52606D01*
X120233Y52628D01*
X120191Y52659D01*
X120122Y52680D01*
X120057Y52710D01*
X120005Y52716D01*
X119955Y52731D01*
X119884Y52729D01*
X119813Y52737D01*
X119762Y52726D01*
X119710Y52725D01*
X119642Y52700D01*
X119572Y52685D01*
X119527Y52658D01*
X119479Y52640D01*
X119423Y52595D01*
X119361Y52559D01*
X119327Y52519D01*
X119287Y52486D01*
X119248Y52426D01*
X119201Y52372D01*
X119182Y52323D01*
X119154Y52279D01*
X119136Y52210D01*
X119109Y52143D01*
X119101Y52072D01*
X119093Y52041D01*
X119095Y52018D01*
X119091Y51977D01*
X119091Y49342D01*
X116836Y47086D01*
X116794Y47028D01*
X116744Y46976D01*
X116722Y46929D01*
X116692Y46887D01*
X116671Y46818D01*
X116641Y46753D01*
X116635Y46701D01*
X116620Y46652D01*
X116622Y46580D01*
X116614Y46509D01*
X116625Y46458D01*
X116626Y46406D01*
X116651Y46338D01*
X116666Y46268D01*
X116693Y46224D01*
X116710Y46175D01*
X116755Y46119D01*
X116792Y46057D01*
X116832Y46023D01*
X116864Y45983D01*
X116924Y45944D01*
X116979Y45897D01*
X117027Y45878D01*
X117071Y45850D01*
X117141Y45832D01*
X117207Y45805D01*
X117278Y45798D01*
X117310Y45790D01*
X117333Y45791D01*
X117374Y45787D01*
X122228Y45787D01*
X124461Y43555D01*
X124461Y38045D01*
X124475Y37955D01*
X124483Y37864D01*
X124495Y37834D01*
X124500Y37802D01*
X124543Y37722D01*
X124579Y37638D01*
X124605Y37606D01*
X124616Y37585D01*
X124639Y37563D01*
X124684Y37507D01*
X126301Y35890D01*
X126301Y23566D01*
X125192Y22457D01*
X125139Y22383D01*
X125079Y22314D01*
X125067Y22284D01*
X125048Y22257D01*
X125021Y22170D01*
X124987Y22086D01*
X124983Y22045D01*
X124976Y22022D01*
X124977Y21990D01*
X124969Y21919D01*
X124969Y13451D01*
X120636Y9118D01*
X120583Y9044D01*
X120523Y8975D01*
X120511Y8945D01*
X120492Y8918D01*
X120465Y8831D01*
X120431Y8747D01*
X120427Y8706D01*
X120420Y8683D01*
X120421Y8651D01*
X120413Y8580D01*
X120413Y5105D01*
X120427Y5015D01*
X120435Y4924D01*
X120447Y4894D01*
X120452Y4862D01*
X120495Y4781D01*
X120531Y4698D01*
X120557Y4665D01*
X120568Y4645D01*
X120591Y4623D01*
X120636Y4567D01*
X121478Y3724D01*
X121847Y2833D01*
X121909Y2733D01*
X121969Y2633D01*
X121974Y2629D01*
X121977Y2624D01*
X122067Y2549D01*
X122156Y2473D01*
X122162Y2471D01*
X122166Y2467D01*
X122274Y2425D01*
X122384Y2381D01*
X122391Y2380D01*
X122396Y2379D01*
X122414Y2378D01*
X122551Y2363D01*
X159817Y2363D01*
X159837Y2366D01*
G37*
G36*
X20852Y2382D02*
X20852Y2382D01*
X20968Y2399D01*
X20974Y2401D01*
X20980Y2402D01*
X21083Y2457D01*
X21188Y2510D01*
X21192Y2515D01*
X21198Y2518D01*
X21277Y2602D01*
X21360Y2686D01*
X21363Y2692D01*
X21367Y2696D01*
X21375Y2713D01*
X21441Y2833D01*
X21810Y3724D01*
X23597Y5511D01*
X25931Y6478D01*
X28457Y6478D01*
X30791Y5511D01*
X32578Y3724D01*
X32841Y3090D01*
X32878Y3029D01*
X32908Y2963D01*
X32943Y2925D01*
X32970Y2881D01*
X33026Y2835D01*
X33074Y2782D01*
X33120Y2757D01*
X33160Y2724D01*
X33227Y2698D01*
X33290Y2664D01*
X33341Y2655D01*
X33389Y2636D01*
X33461Y2633D01*
X33532Y2620D01*
X33583Y2628D01*
X33635Y2625D01*
X33704Y2645D01*
X33775Y2656D01*
X33821Y2680D01*
X33871Y2694D01*
X33930Y2735D01*
X33994Y2767D01*
X34031Y2804D01*
X34073Y2834D01*
X34116Y2892D01*
X34166Y2943D01*
X34201Y3006D01*
X34220Y3032D01*
X34227Y3054D01*
X34247Y3090D01*
X34510Y3724D01*
X36297Y5511D01*
X37391Y5964D01*
X37491Y6026D01*
X37591Y6086D01*
X37595Y6091D01*
X37600Y6094D01*
X37675Y6185D01*
X37751Y6273D01*
X37753Y6279D01*
X37757Y6283D01*
X37799Y6392D01*
X37843Y6501D01*
X37844Y6508D01*
X37845Y6513D01*
X37846Y6531D01*
X37861Y6668D01*
X37861Y7209D01*
X37847Y7299D01*
X37839Y7390D01*
X37827Y7419D01*
X37822Y7451D01*
X37779Y7532D01*
X37743Y7616D01*
X37717Y7648D01*
X37706Y7669D01*
X37683Y7691D01*
X37638Y7747D01*
X36211Y9174D01*
X36137Y9227D01*
X36068Y9287D01*
X36037Y9299D01*
X36011Y9318D01*
X35924Y9345D01*
X35839Y9379D01*
X35798Y9383D01*
X35776Y9390D01*
X35744Y9389D01*
X35673Y9397D01*
X29638Y9397D01*
X20827Y18208D01*
X20827Y52912D01*
X36063Y68148D01*
X36105Y68206D01*
X36154Y68258D01*
X36176Y68305D01*
X36207Y68347D01*
X36228Y68416D01*
X36258Y68481D01*
X36264Y68533D01*
X36279Y68583D01*
X36277Y68654D01*
X36285Y68725D01*
X36274Y68776D01*
X36273Y68828D01*
X36248Y68896D01*
X36233Y68966D01*
X36206Y69011D01*
X36188Y69059D01*
X36143Y69115D01*
X36107Y69177D01*
X36067Y69211D01*
X36034Y69251D01*
X35974Y69290D01*
X35920Y69337D01*
X35871Y69356D01*
X35827Y69384D01*
X35758Y69402D01*
X35691Y69429D01*
X35620Y69437D01*
X35589Y69445D01*
X35566Y69443D01*
X35525Y69447D01*
X34102Y69447D01*
X34012Y69433D01*
X33921Y69425D01*
X33891Y69413D01*
X33859Y69408D01*
X33778Y69365D01*
X33694Y69329D01*
X33662Y69303D01*
X33642Y69292D01*
X33619Y69269D01*
X33563Y69224D01*
X31938Y67599D01*
X29022Y67599D01*
X26959Y69662D01*
X26959Y72578D01*
X29022Y74641D01*
X31938Y74641D01*
X32843Y73736D01*
X32917Y73683D01*
X32987Y73623D01*
X33017Y73611D01*
X33043Y73592D01*
X33130Y73565D01*
X33215Y73531D01*
X33256Y73527D01*
X33278Y73520D01*
X33310Y73521D01*
X33382Y73513D01*
X36142Y73513D01*
X36212Y73524D01*
X36284Y73526D01*
X36333Y73544D01*
X36384Y73552D01*
X36448Y73586D01*
X36515Y73611D01*
X36556Y73643D01*
X36602Y73668D01*
X36651Y73719D01*
X36707Y73764D01*
X36735Y73808D01*
X36771Y73846D01*
X36801Y73911D01*
X36840Y73971D01*
X36853Y74022D01*
X36875Y74069D01*
X36883Y74140D01*
X36900Y74210D01*
X36896Y74262D01*
X36902Y74313D01*
X36887Y74384D01*
X36881Y74455D01*
X36861Y74503D01*
X36850Y74554D01*
X36813Y74615D01*
X36785Y74681D01*
X36740Y74737D01*
X36723Y74765D01*
X36706Y74780D01*
X36680Y74812D01*
X36599Y74893D01*
X36599Y78067D01*
X36680Y78148D01*
X36722Y78206D01*
X36771Y78258D01*
X36793Y78305D01*
X36824Y78347D01*
X36845Y78416D01*
X36875Y78481D01*
X36881Y78533D01*
X36896Y78583D01*
X36894Y78654D01*
X36902Y78725D01*
X36891Y78776D01*
X36890Y78828D01*
X36865Y78896D01*
X36850Y78966D01*
X36823Y79011D01*
X36805Y79059D01*
X36760Y79115D01*
X36723Y79177D01*
X36684Y79211D01*
X36651Y79251D01*
X36591Y79290D01*
X36537Y79337D01*
X36488Y79356D01*
X36444Y79384D01*
X36375Y79402D01*
X36308Y79429D01*
X36237Y79437D01*
X36206Y79445D01*
X36183Y79443D01*
X36142Y79447D01*
X34518Y79447D01*
X32655Y81310D01*
X32581Y81363D01*
X32512Y81423D01*
X32481Y81435D01*
X32455Y81454D01*
X32368Y81481D01*
X32283Y81515D01*
X32242Y81519D01*
X32220Y81526D01*
X32188Y81525D01*
X32117Y81533D01*
X12333Y81533D01*
X12243Y81519D01*
X12152Y81511D01*
X12123Y81499D01*
X12091Y81494D01*
X12010Y81451D01*
X11926Y81415D01*
X11894Y81389D01*
X11873Y81378D01*
X11851Y81355D01*
X11795Y81310D01*
X8733Y78248D01*
X8688Y78186D01*
X8658Y78155D01*
X8653Y78143D01*
X8620Y78105D01*
X8608Y78074D01*
X8589Y78048D01*
X8562Y77961D01*
X8528Y77876D01*
X8524Y77835D01*
X8517Y77813D01*
X8518Y77781D01*
X8510Y77710D01*
X8510Y75064D01*
X7543Y72730D01*
X5756Y70943D01*
X5122Y70680D01*
X5061Y70643D01*
X4996Y70613D01*
X4957Y70578D01*
X4913Y70551D01*
X4867Y70496D01*
X4814Y70447D01*
X4789Y70401D01*
X4756Y70361D01*
X4730Y70294D01*
X4696Y70231D01*
X4687Y70180D01*
X4668Y70132D01*
X4665Y70060D01*
X4652Y69989D01*
X4660Y69938D01*
X4657Y69886D01*
X4677Y69817D01*
X4688Y69746D01*
X4712Y69700D01*
X4726Y69650D01*
X4767Y69591D01*
X4799Y69527D01*
X4837Y69490D01*
X4866Y69448D01*
X4924Y69405D01*
X4975Y69355D01*
X5038Y69320D01*
X5064Y69301D01*
X5086Y69294D01*
X5122Y69274D01*
X5756Y69011D01*
X7543Y67224D01*
X8510Y64890D01*
X8510Y62364D01*
X7543Y60030D01*
X5756Y58243D01*
X5122Y57980D01*
X5061Y57943D01*
X4995Y57913D01*
X4957Y57878D01*
X4913Y57851D01*
X4867Y57795D01*
X4814Y57747D01*
X4789Y57701D01*
X4756Y57661D01*
X4730Y57594D01*
X4696Y57531D01*
X4687Y57480D01*
X4668Y57432D01*
X4665Y57360D01*
X4652Y57289D01*
X4660Y57238D01*
X4657Y57186D01*
X4677Y57117D01*
X4688Y57046D01*
X4711Y57000D01*
X4726Y56950D01*
X4767Y56891D01*
X4799Y56827D01*
X4837Y56790D01*
X4866Y56748D01*
X4924Y56705D01*
X4975Y56655D01*
X5038Y56620D01*
X5064Y56601D01*
X5086Y56593D01*
X5122Y56574D01*
X5756Y56311D01*
X7543Y54524D01*
X8510Y52190D01*
X8510Y49664D01*
X7543Y47330D01*
X5756Y45543D01*
X5122Y45280D01*
X5061Y45243D01*
X4995Y45213D01*
X4957Y45178D01*
X4913Y45151D01*
X4867Y45095D01*
X4814Y45047D01*
X4789Y45001D01*
X4756Y44961D01*
X4730Y44894D01*
X4696Y44831D01*
X4687Y44780D01*
X4668Y44732D01*
X4665Y44660D01*
X4652Y44589D01*
X4660Y44538D01*
X4657Y44486D01*
X4677Y44417D01*
X4688Y44346D01*
X4711Y44300D01*
X4726Y44250D01*
X4767Y44191D01*
X4799Y44127D01*
X4837Y44090D01*
X4866Y44048D01*
X4924Y44005D01*
X4975Y43955D01*
X5038Y43920D01*
X5064Y43901D01*
X5086Y43894D01*
X5122Y43874D01*
X5756Y43611D01*
X7543Y41824D01*
X8510Y39490D01*
X8510Y36964D01*
X7543Y34630D01*
X5756Y32843D01*
X5122Y32580D01*
X5061Y32543D01*
X4995Y32513D01*
X4957Y32478D01*
X4913Y32451D01*
X4867Y32395D01*
X4814Y32347D01*
X4789Y32301D01*
X4756Y32261D01*
X4730Y32194D01*
X4696Y32131D01*
X4687Y32080D01*
X4668Y32032D01*
X4665Y31960D01*
X4652Y31889D01*
X4660Y31838D01*
X4657Y31786D01*
X4677Y31717D01*
X4688Y31646D01*
X4711Y31600D01*
X4726Y31550D01*
X4767Y31491D01*
X4799Y31427D01*
X4837Y31390D01*
X4866Y31348D01*
X4924Y31305D01*
X4975Y31255D01*
X5038Y31220D01*
X5064Y31201D01*
X5086Y31194D01*
X5122Y31174D01*
X5756Y30911D01*
X7543Y29124D01*
X8510Y26790D01*
X8510Y24264D01*
X7543Y21930D01*
X5756Y20143D01*
X4484Y19616D01*
X4384Y19554D01*
X4284Y19494D01*
X4280Y19490D01*
X4275Y19486D01*
X4200Y19396D01*
X4124Y19308D01*
X4122Y19302D01*
X4118Y19297D01*
X4076Y19188D01*
X4032Y19079D01*
X4031Y19072D01*
X4030Y19067D01*
X4029Y19049D01*
X4014Y18913D01*
X4014Y3124D01*
X4017Y3104D01*
X4015Y3085D01*
X4037Y2983D01*
X4053Y2881D01*
X4063Y2864D01*
X4067Y2844D01*
X4120Y2755D01*
X4169Y2664D01*
X4183Y2650D01*
X4193Y2633D01*
X4272Y2566D01*
X4347Y2494D01*
X4365Y2486D01*
X4380Y2473D01*
X4476Y2434D01*
X4570Y2391D01*
X4590Y2389D01*
X4608Y2381D01*
X4775Y2363D01*
X20737Y2363D01*
X20852Y2382D01*
G37*
G36*
X62658Y5976D02*
X62658Y5976D01*
X62775Y5978D01*
X62782Y5980D01*
X62787Y5980D01*
X62805Y5986D01*
X62936Y6024D01*
X63174Y6123D01*
X63213Y6147D01*
X63256Y6163D01*
X63317Y6211D01*
X63383Y6252D01*
X63412Y6288D01*
X63448Y6316D01*
X63490Y6382D01*
X63540Y6442D01*
X63556Y6485D01*
X63581Y6523D01*
X63600Y6599D01*
X63628Y6671D01*
X63630Y6717D01*
X63641Y6762D01*
X63635Y6839D01*
X63638Y6917D01*
X63626Y6961D01*
X63622Y7007D01*
X63592Y7079D01*
X63570Y7153D01*
X63544Y7191D01*
X63526Y7233D01*
X63440Y7340D01*
X63430Y7356D01*
X63426Y7358D01*
X63421Y7364D01*
X56805Y13981D01*
X56788Y13992D01*
X56776Y14008D01*
X56689Y14064D01*
X56605Y14124D01*
X56586Y14130D01*
X56569Y14141D01*
X56468Y14166D01*
X56370Y14197D01*
X56350Y14196D01*
X56330Y14201D01*
X56228Y14193D01*
X56124Y14190D01*
X56105Y14183D01*
X56085Y14182D01*
X55990Y14141D01*
X55893Y14106D01*
X55877Y14093D01*
X55859Y14086D01*
X55728Y13981D01*
X54278Y12531D01*
X51362Y12531D01*
X49299Y14593D01*
X49299Y17510D01*
X51362Y19573D01*
X54278Y19573D01*
X55088Y18763D01*
X55146Y18721D01*
X55198Y18672D01*
X55245Y18650D01*
X55287Y18620D01*
X55356Y18599D01*
X55421Y18568D01*
X55473Y18563D01*
X55523Y18547D01*
X55594Y18549D01*
X55665Y18541D01*
X55716Y18552D01*
X55768Y18554D01*
X55836Y18578D01*
X55906Y18593D01*
X55951Y18620D01*
X55999Y18638D01*
X56055Y18683D01*
X56117Y18720D01*
X56151Y18759D01*
X56191Y18792D01*
X56230Y18852D01*
X56277Y18907D01*
X56296Y18955D01*
X56324Y18999D01*
X56342Y19068D01*
X56369Y19135D01*
X56377Y19206D01*
X56385Y19237D01*
X56383Y19260D01*
X56387Y19301D01*
X56387Y28053D01*
X56373Y28143D01*
X56365Y28234D01*
X56353Y28263D01*
X56348Y28295D01*
X56305Y28376D01*
X56269Y28460D01*
X56243Y28492D01*
X56232Y28513D01*
X56209Y28535D01*
X56164Y28591D01*
X47587Y37168D01*
X47587Y38590D01*
X47573Y38680D01*
X47565Y38771D01*
X47553Y38800D01*
X47548Y38832D01*
X47505Y38913D01*
X47469Y38997D01*
X47443Y39029D01*
X47432Y39050D01*
X47409Y39072D01*
X47364Y39128D01*
X46849Y39643D01*
X46849Y47948D01*
X46846Y47968D01*
X46848Y47987D01*
X46826Y48089D01*
X46810Y48191D01*
X46800Y48208D01*
X46796Y48228D01*
X46743Y48317D01*
X46694Y48408D01*
X46680Y48422D01*
X46670Y48439D01*
X46591Y48506D01*
X46516Y48578D01*
X46498Y48586D01*
X46483Y48599D01*
X46387Y48638D01*
X46293Y48681D01*
X46273Y48683D01*
X46255Y48691D01*
X46088Y48709D01*
X45676Y48709D01*
X45656Y48706D01*
X45637Y48708D01*
X45535Y48686D01*
X45433Y48670D01*
X45416Y48660D01*
X45396Y48656D01*
X45307Y48603D01*
X45216Y48554D01*
X45202Y48540D01*
X45185Y48530D01*
X45118Y48451D01*
X45046Y48376D01*
X45038Y48358D01*
X45025Y48343D01*
X44986Y48247D01*
X44943Y48153D01*
X44941Y48133D01*
X44933Y48115D01*
X44915Y47948D01*
X44915Y37903D01*
X44929Y37813D01*
X44937Y37722D01*
X44949Y37692D01*
X44954Y37660D01*
X44997Y37580D01*
X45033Y37496D01*
X45059Y37464D01*
X45070Y37443D01*
X45093Y37421D01*
X45138Y37365D01*
X46415Y36088D01*
X46415Y31280D01*
X44848Y29713D01*
X39440Y29713D01*
X37873Y31280D01*
X37873Y34355D01*
X37871Y34367D01*
X37872Y34375D01*
X37863Y34415D01*
X37860Y34432D01*
X37857Y34511D01*
X37841Y34553D01*
X37833Y34598D01*
X37797Y34667D01*
X37768Y34740D01*
X37732Y34789D01*
X37718Y34815D01*
X37699Y34834D01*
X37668Y34875D01*
X37651Y34893D01*
X37642Y34900D01*
X37632Y34913D01*
X37182Y35361D01*
X37108Y35414D01*
X37039Y35473D01*
X37009Y35485D01*
X36982Y35504D01*
X36895Y35531D01*
X36811Y35565D01*
X36769Y35569D01*
X36746Y35576D01*
X36715Y35576D01*
X36644Y35583D01*
X35261Y35583D01*
X32877Y37968D01*
X32819Y38010D01*
X32767Y38059D01*
X32719Y38081D01*
X32677Y38111D01*
X32609Y38132D01*
X32544Y38163D01*
X32492Y38168D01*
X32442Y38184D01*
X32370Y38182D01*
X32299Y38190D01*
X32248Y38179D01*
X32196Y38177D01*
X32129Y38153D01*
X32059Y38137D01*
X32014Y38111D01*
X31965Y38093D01*
X31909Y38048D01*
X31848Y38011D01*
X31814Y37972D01*
X31773Y37939D01*
X31734Y37879D01*
X31688Y37824D01*
X31668Y37776D01*
X31640Y37732D01*
X31623Y37663D01*
X31596Y37596D01*
X31588Y37525D01*
X31580Y37494D01*
X31582Y37470D01*
X31577Y37430D01*
X31577Y22695D01*
X31592Y22605D01*
X31599Y22514D01*
X31612Y22485D01*
X31617Y22453D01*
X31660Y22372D01*
X31696Y22288D01*
X31721Y22256D01*
X31732Y22235D01*
X31756Y22213D01*
X31800Y22157D01*
X34684Y19274D01*
X34758Y19221D01*
X34827Y19161D01*
X34857Y19149D01*
X34884Y19130D01*
X34970Y19103D01*
X35055Y19069D01*
X35096Y19065D01*
X35119Y19058D01*
X35151Y19059D01*
X35222Y19051D01*
X39987Y19051D01*
X49162Y9876D01*
X49236Y9823D01*
X49305Y9763D01*
X49335Y9751D01*
X49362Y9732D01*
X49448Y9705D01*
X49533Y9671D01*
X49574Y9667D01*
X49597Y9660D01*
X49629Y9661D01*
X49700Y9653D01*
X58643Y9653D01*
X62106Y6189D01*
X62202Y6121D01*
X62295Y6051D01*
X62301Y6049D01*
X62306Y6046D01*
X62418Y6011D01*
X62529Y5975D01*
X62535Y5975D01*
X62541Y5973D01*
X62658Y5976D01*
G37*
G36*
X104597Y12461D02*
X104597Y12461D01*
X104688Y12469D01*
X104718Y12481D01*
X104749Y12486D01*
X104830Y12529D01*
X104914Y12565D01*
X104946Y12591D01*
X104967Y12602D01*
X104989Y12625D01*
X105045Y12670D01*
X105476Y13101D01*
X105529Y13175D01*
X105589Y13244D01*
X105601Y13275D01*
X105620Y13301D01*
X105647Y13388D01*
X105681Y13473D01*
X105685Y13513D01*
X105692Y13536D01*
X105691Y13568D01*
X105699Y13639D01*
X105699Y15428D01*
X107762Y17491D01*
X110678Y17491D01*
X112741Y15428D01*
X112741Y15276D01*
X112742Y15268D01*
X112742Y15265D01*
X112745Y15248D01*
X112752Y15205D01*
X112754Y15134D01*
X112772Y15085D01*
X112780Y15033D01*
X112814Y14970D01*
X112839Y14903D01*
X112871Y14862D01*
X112896Y14816D01*
X112948Y14767D01*
X112992Y14711D01*
X113036Y14682D01*
X113074Y14647D01*
X113139Y14616D01*
X113199Y14578D01*
X113250Y14565D01*
X113297Y14543D01*
X113368Y14535D01*
X113438Y14518D01*
X113490Y14522D01*
X113541Y14516D01*
X113612Y14531D01*
X113683Y14537D01*
X113731Y14557D01*
X113782Y14568D01*
X113843Y14605D01*
X113909Y14633D01*
X113965Y14678D01*
X113993Y14694D01*
X114008Y14712D01*
X114040Y14738D01*
X116108Y16806D01*
X116161Y16880D01*
X116221Y16949D01*
X116233Y16979D01*
X116252Y17006D01*
X116279Y17093D01*
X116313Y17177D01*
X116317Y17218D01*
X116324Y17241D01*
X116323Y17273D01*
X116331Y17344D01*
X116331Y20679D01*
X116317Y20769D01*
X116309Y20860D01*
X116297Y20890D01*
X116292Y20922D01*
X116249Y21002D01*
X116213Y21086D01*
X116187Y21118D01*
X116176Y21139D01*
X116153Y21161D01*
X116108Y21217D01*
X113759Y23566D01*
X113759Y24392D01*
X113748Y24463D01*
X113746Y24535D01*
X113728Y24584D01*
X113720Y24635D01*
X113686Y24698D01*
X113661Y24766D01*
X113629Y24806D01*
X113604Y24853D01*
X113552Y24902D01*
X113508Y24958D01*
X113464Y24986D01*
X113426Y25022D01*
X113361Y25052D01*
X113301Y25091D01*
X113250Y25104D01*
X113203Y25126D01*
X113132Y25133D01*
X113062Y25151D01*
X113010Y25147D01*
X112959Y25153D01*
X112888Y25137D01*
X112817Y25132D01*
X112769Y25111D01*
X112718Y25100D01*
X112657Y25064D01*
X112591Y25035D01*
X112535Y24991D01*
X112507Y24974D01*
X112492Y24956D01*
X112460Y24931D01*
X111948Y24419D01*
X110372Y24419D01*
X110352Y24416D01*
X110332Y24418D01*
X110231Y24396D01*
X110129Y24380D01*
X110111Y24370D01*
X110092Y24366D01*
X110003Y24313D01*
X109912Y24264D01*
X109898Y24250D01*
X109881Y24240D01*
X109814Y24161D01*
X109742Y24086D01*
X109734Y24068D01*
X109721Y24053D01*
X109682Y23957D01*
X109639Y23863D01*
X109636Y23843D01*
X109629Y23825D01*
X109611Y23658D01*
X109611Y22172D01*
X107548Y20109D01*
X105962Y20109D01*
X105942Y20106D01*
X105922Y20108D01*
X105821Y20086D01*
X105719Y20070D01*
X105702Y20060D01*
X105682Y20056D01*
X105593Y20003D01*
X105502Y19955D01*
X105488Y19940D01*
X105471Y19930D01*
X105404Y19851D01*
X105332Y19776D01*
X105324Y19758D01*
X105311Y19743D01*
X105272Y19647D01*
X105229Y19553D01*
X105227Y19533D01*
X105219Y19515D01*
X105201Y19348D01*
X105201Y17592D01*
X103138Y15529D01*
X100222Y15529D01*
X98159Y17592D01*
X98159Y20508D01*
X99424Y21773D01*
X99477Y21847D01*
X99537Y21917D01*
X99549Y21947D01*
X99568Y21973D01*
X99594Y22060D01*
X99629Y22145D01*
X99633Y22186D01*
X99640Y22208D01*
X99639Y22240D01*
X99647Y22312D01*
X99647Y22493D01*
X99632Y22583D01*
X99625Y22674D01*
X99613Y22704D01*
X99607Y22736D01*
X99565Y22817D01*
X99529Y22901D01*
X99503Y22933D01*
X99492Y22953D01*
X99469Y22976D01*
X99424Y23032D01*
X94292Y28164D01*
X94218Y28217D01*
X94148Y28276D01*
X94118Y28289D01*
X94092Y28307D01*
X94005Y28334D01*
X93920Y28368D01*
X93879Y28373D01*
X93857Y28380D01*
X93825Y28379D01*
X93754Y28387D01*
X80085Y28387D01*
X74398Y34074D01*
X74340Y34115D01*
X74288Y34165D01*
X74241Y34187D01*
X74199Y34217D01*
X74130Y34238D01*
X74065Y34268D01*
X74013Y34274D01*
X73963Y34289D01*
X73892Y34288D01*
X73821Y34295D01*
X73770Y34284D01*
X73718Y34283D01*
X73650Y34258D01*
X73580Y34243D01*
X73535Y34217D01*
X73487Y34199D01*
X73431Y34154D01*
X73369Y34117D01*
X73335Y34077D01*
X73295Y34045D01*
X73256Y33985D01*
X73209Y33930D01*
X73190Y33882D01*
X73162Y33838D01*
X73144Y33769D01*
X73117Y33702D01*
X73109Y33631D01*
X73101Y33599D01*
X73103Y33576D01*
X73099Y33535D01*
X73099Y27315D01*
X73113Y27225D01*
X73121Y27134D01*
X73133Y27104D01*
X73138Y27072D01*
X73181Y26991D01*
X73217Y26908D01*
X73243Y26875D01*
X73254Y26855D01*
X73277Y26833D01*
X73322Y26777D01*
X73356Y26743D01*
X73421Y26696D01*
X73432Y26685D01*
X73437Y26683D01*
X73499Y26630D01*
X73529Y26618D01*
X73555Y26599D01*
X73642Y26572D01*
X73727Y26538D01*
X73768Y26534D01*
X73790Y26527D01*
X73823Y26528D01*
X73894Y26520D01*
X77042Y26520D01*
X78609Y24953D01*
X78609Y19545D01*
X78075Y19011D01*
X78063Y18995D01*
X78047Y18982D01*
X77991Y18895D01*
X77931Y18811D01*
X77925Y18792D01*
X77914Y18775D01*
X77889Y18675D01*
X77859Y18576D01*
X77859Y18556D01*
X77854Y18537D01*
X77862Y18434D01*
X77865Y18330D01*
X77872Y18311D01*
X77873Y18292D01*
X77914Y18197D01*
X77949Y18099D01*
X77962Y18084D01*
X77970Y18065D01*
X78075Y17934D01*
X80545Y15464D01*
X80619Y15411D01*
X80689Y15351D01*
X80719Y15339D01*
X80745Y15320D01*
X80832Y15293D01*
X80917Y15259D01*
X80958Y15255D01*
X80980Y15248D01*
X81012Y15249D01*
X81083Y15241D01*
X88247Y15241D01*
X90818Y12670D01*
X90892Y12617D01*
X90961Y12557D01*
X90991Y12545D01*
X91017Y12526D01*
X91105Y12499D01*
X91189Y12465D01*
X91230Y12461D01*
X91253Y12454D01*
X91285Y12455D01*
X91356Y12447D01*
X104507Y12447D01*
X104597Y12461D01*
G37*
D10*
X68926Y145407D02*
X66334Y145407D01*
X66334Y148599D01*
X68926Y148599D01*
X68926Y145407D01*
X68926Y148075D02*
X66334Y148075D01*
X60326Y148599D02*
X57734Y148599D01*
X60326Y148599D02*
X60326Y145407D01*
X57734Y145407D01*
X57734Y148599D01*
X57734Y148075D02*
X60326Y148075D01*
X74759Y125023D02*
X77351Y125023D01*
X74759Y125023D02*
X74759Y128215D01*
X77351Y128215D01*
X77351Y125023D01*
X77351Y127691D02*
X74759Y127691D01*
X68751Y128215D02*
X66159Y128215D01*
X68751Y128215D02*
X68751Y125023D01*
X66159Y125023D01*
X66159Y128215D01*
X66159Y127691D02*
X68751Y127691D01*
X131016Y127045D02*
X131016Y129637D01*
X131016Y127045D02*
X127824Y127045D01*
X127824Y129637D01*
X131016Y129637D01*
X127824Y121037D02*
X127824Y118445D01*
X127824Y121037D02*
X131016Y121037D01*
X131016Y118445D01*
X127824Y118445D01*
X40548Y26380D02*
X40548Y23788D01*
X40548Y26380D02*
X43740Y26380D01*
X43740Y23788D01*
X40548Y23788D01*
X43740Y32388D02*
X43740Y34980D01*
X43740Y32388D02*
X40548Y32388D01*
X40548Y34980D01*
X43740Y34980D01*
X140641Y126908D02*
X140641Y129500D01*
X140641Y126908D02*
X137449Y126908D01*
X137449Y129500D01*
X140641Y129500D01*
X137449Y120900D02*
X137449Y118308D01*
X137449Y120900D02*
X140641Y120900D01*
X140641Y118308D01*
X137449Y118308D01*
X75934Y23845D02*
X73342Y23845D01*
X75934Y23845D02*
X75934Y20653D01*
X73342Y20653D01*
X73342Y23845D01*
X73342Y23321D02*
X75934Y23321D01*
X81942Y20653D02*
X84534Y20653D01*
X81942Y20653D02*
X81942Y23845D01*
X84534Y23845D01*
X84534Y20653D01*
X84534Y23321D02*
X81942Y23321D01*
D11*
X117530Y34328D02*
X122530Y34328D01*
X122530Y25128D01*
X117530Y25128D01*
X117530Y34328D01*
X117530Y29878D02*
X122530Y29878D01*
X136230Y25128D02*
X141230Y25128D01*
X136230Y25128D02*
X136230Y34328D01*
X141230Y34328D01*
X141230Y25128D01*
X141230Y29878D02*
X136230Y29878D01*
D10*
X41266Y153927D02*
X41266Y156519D01*
X41266Y153927D02*
X38074Y153927D01*
X38074Y156519D01*
X41266Y156519D01*
X38074Y147919D02*
X38074Y145327D01*
X38074Y147919D02*
X41266Y147919D01*
X41266Y145327D01*
X38074Y145327D01*
D12*
X57549Y135438D02*
X60249Y135438D01*
X57549Y135438D02*
X57549Y138738D01*
X60249Y138738D01*
X60249Y135438D01*
X60249Y138003D02*
X57549Y138003D01*
X66189Y135438D02*
X68889Y135438D01*
X66189Y135438D02*
X66189Y138738D01*
X68889Y138738D01*
X68889Y135438D01*
X68889Y138003D02*
X66189Y138003D01*
X95230Y149001D02*
X97930Y149001D01*
X97930Y145701D01*
X95230Y145701D01*
X95230Y149001D01*
X95230Y148266D02*
X97930Y148266D01*
X89290Y149001D02*
X86590Y149001D01*
X89290Y149001D02*
X89290Y145701D01*
X86590Y145701D01*
X86590Y149001D01*
X86590Y148266D02*
X89290Y148266D01*
X100630Y129541D02*
X100630Y126841D01*
X97330Y126841D01*
X97330Y129541D01*
X100630Y129541D01*
X100630Y129406D02*
X97330Y129406D01*
X100630Y135481D02*
X100630Y138181D01*
X100630Y135481D02*
X97330Y135481D01*
X97330Y138181D01*
X100630Y138181D01*
X100630Y138046D02*
X97330Y138046D01*
X47760Y153908D02*
X47760Y156608D01*
X51060Y156608D01*
X51060Y153908D01*
X47760Y153908D01*
X47760Y156473D02*
X51060Y156473D01*
X47760Y147968D02*
X47760Y145268D01*
X47760Y147968D02*
X51060Y147968D01*
X51060Y145268D01*
X47760Y145268D01*
X47760Y147833D02*
X51060Y147833D01*
X89597Y129303D02*
X89597Y126603D01*
X86297Y126603D01*
X86297Y129303D01*
X89597Y129303D01*
X89597Y129168D02*
X86297Y129168D01*
X89597Y135243D02*
X89597Y137943D01*
X89597Y135243D02*
X86297Y135243D01*
X86297Y137943D01*
X89597Y137943D01*
X89597Y137808D02*
X86297Y137808D01*
X135420Y60720D02*
X138120Y60720D01*
X138120Y57420D01*
X135420Y57420D01*
X135420Y60720D01*
X135420Y59985D02*
X138120Y59985D01*
X129480Y60720D02*
X126780Y60720D01*
X129480Y60720D02*
X129480Y57420D01*
X126780Y57420D01*
X126780Y60720D01*
X126780Y59985D02*
X129480Y59985D01*
X129615Y95925D02*
X126915Y95925D01*
X126915Y99225D01*
X129615Y99225D01*
X129615Y95925D01*
X129615Y98490D02*
X126915Y98490D01*
X135555Y95925D02*
X138255Y95925D01*
X135555Y95925D02*
X135555Y99225D01*
X138255Y99225D01*
X138255Y95925D01*
X138255Y98490D02*
X135555Y98490D01*
D13*
X77994Y127D03*
X65294Y127D03*
X52594Y127D03*
X39894Y127D03*
X27194Y127D03*
X90694Y127D03*
X103394Y127D03*
X116094Y127D03*
X128794Y127D03*
X2159Y76327D03*
X2159Y89027D03*
X2159Y101727D03*
X2159Y114427D03*
X2159Y127127D03*
X2159Y63627D03*
X2159Y50927D03*
X2159Y38227D03*
X2159Y25527D03*
X162598Y76410D03*
X162598Y89110D03*
X162598Y101810D03*
X162598Y114510D03*
X162598Y127210D03*
X162598Y63710D03*
X162598Y51010D03*
X162598Y38310D03*
X162598Y25610D03*
D14*
X105620Y52230D02*
X98620Y52230D01*
X105620Y52230D02*
X105620Y50730D01*
X98620Y50730D01*
X98620Y52230D01*
X98620Y52155D02*
X105620Y52155D01*
X105620Y57230D02*
X98620Y57230D01*
X105620Y57230D02*
X105620Y55730D01*
X98620Y55730D01*
X98620Y57230D01*
X98620Y57155D02*
X105620Y57155D01*
X105620Y62230D02*
X98620Y62230D01*
X105620Y62230D02*
X105620Y60730D01*
X98620Y60730D01*
X98620Y62230D01*
X98620Y62155D02*
X105620Y62155D01*
X105620Y67230D02*
X98620Y67230D01*
X105620Y67230D02*
X105620Y65730D01*
X98620Y65730D01*
X98620Y67230D01*
X98620Y67155D02*
X105620Y67155D01*
X105620Y72230D02*
X98620Y72230D01*
X105620Y72230D02*
X105620Y70730D01*
X98620Y70730D01*
X98620Y72230D01*
X98620Y72155D02*
X105620Y72155D01*
X105620Y77230D02*
X98620Y77230D01*
X105620Y77230D02*
X105620Y75730D01*
X98620Y75730D01*
X98620Y77230D01*
X98620Y77155D02*
X105620Y77155D01*
X105620Y82230D02*
X98620Y82230D01*
X105620Y82230D02*
X105620Y80730D01*
X98620Y80730D01*
X98620Y82230D01*
X98620Y82155D02*
X105620Y82155D01*
X105620Y87230D02*
X98620Y87230D01*
X105620Y87230D02*
X105620Y85730D01*
X98620Y85730D01*
X98620Y87230D01*
X98620Y87155D02*
X105620Y87155D01*
X105620Y92230D02*
X98620Y92230D01*
X105620Y92230D02*
X105620Y90730D01*
X98620Y90730D01*
X98620Y92230D01*
X98620Y92155D02*
X105620Y92155D01*
X105620Y97230D02*
X98620Y97230D01*
X105620Y97230D02*
X105620Y95730D01*
X98620Y95730D01*
X98620Y97230D01*
X98620Y97155D02*
X105620Y97155D01*
X95370Y107480D02*
X93870Y107480D01*
X95370Y107480D02*
X95370Y100480D01*
X93870Y100480D01*
X93870Y107480D01*
X93870Y101905D02*
X95370Y101905D01*
X95370Y103330D02*
X93870Y103330D01*
X93870Y104755D02*
X95370Y104755D01*
X95370Y106180D02*
X93870Y106180D01*
X90370Y107480D02*
X88870Y107480D01*
X90370Y107480D02*
X90370Y100480D01*
X88870Y100480D01*
X88870Y107480D01*
X88870Y101905D02*
X90370Y101905D01*
X90370Y103330D02*
X88870Y103330D01*
X88870Y104755D02*
X90370Y104755D01*
X90370Y106180D02*
X88870Y106180D01*
X85370Y107480D02*
X83870Y107480D01*
X85370Y107480D02*
X85370Y100480D01*
X83870Y100480D01*
X83870Y107480D01*
X83870Y101905D02*
X85370Y101905D01*
X85370Y103330D02*
X83870Y103330D01*
X83870Y104755D02*
X85370Y104755D01*
X85370Y106180D02*
X83870Y106180D01*
X80370Y107480D02*
X78870Y107480D01*
X80370Y107480D02*
X80370Y100480D01*
X78870Y100480D01*
X78870Y107480D01*
X78870Y101905D02*
X80370Y101905D01*
X80370Y103330D02*
X78870Y103330D01*
X78870Y104755D02*
X80370Y104755D01*
X80370Y106180D02*
X78870Y106180D01*
X75370Y107480D02*
X73870Y107480D01*
X75370Y107480D02*
X75370Y100480D01*
X73870Y100480D01*
X73870Y107480D01*
X73870Y101905D02*
X75370Y101905D01*
X75370Y103330D02*
X73870Y103330D01*
X73870Y104755D02*
X75370Y104755D01*
X75370Y106180D02*
X73870Y106180D01*
X70370Y107480D02*
X68870Y107480D01*
X70370Y107480D02*
X70370Y100480D01*
X68870Y100480D01*
X68870Y107480D01*
X68870Y101905D02*
X70370Y101905D01*
X70370Y103330D02*
X68870Y103330D01*
X68870Y104755D02*
X70370Y104755D01*
X70370Y106180D02*
X68870Y106180D01*
X65370Y107480D02*
X63870Y107480D01*
X65370Y107480D02*
X65370Y100480D01*
X63870Y100480D01*
X63870Y107480D01*
X63870Y101905D02*
X65370Y101905D01*
X65370Y103330D02*
X63870Y103330D01*
X63870Y104755D02*
X65370Y104755D01*
X65370Y106180D02*
X63870Y106180D01*
X60370Y107480D02*
X58870Y107480D01*
X60370Y107480D02*
X60370Y100480D01*
X58870Y100480D01*
X58870Y107480D01*
X58870Y101905D02*
X60370Y101905D01*
X60370Y103330D02*
X58870Y103330D01*
X58870Y104755D02*
X60370Y104755D01*
X60370Y106180D02*
X58870Y106180D01*
X55370Y107480D02*
X53870Y107480D01*
X55370Y107480D02*
X55370Y100480D01*
X53870Y100480D01*
X53870Y107480D01*
X53870Y101905D02*
X55370Y101905D01*
X55370Y103330D02*
X53870Y103330D01*
X53870Y104755D02*
X55370Y104755D01*
X55370Y106180D02*
X53870Y106180D01*
X50370Y107480D02*
X48870Y107480D01*
X50370Y107480D02*
X50370Y100480D01*
X48870Y100480D01*
X48870Y107480D01*
X48870Y101905D02*
X50370Y101905D01*
X50370Y103330D02*
X48870Y103330D01*
X48870Y104755D02*
X50370Y104755D01*
X50370Y106180D02*
X48870Y106180D01*
X45620Y97230D02*
X38620Y97230D01*
X45620Y97230D02*
X45620Y95730D01*
X38620Y95730D01*
X38620Y97230D01*
X38620Y97155D02*
X45620Y97155D01*
X45620Y92230D02*
X38620Y92230D01*
X45620Y92230D02*
X45620Y90730D01*
X38620Y90730D01*
X38620Y92230D01*
X38620Y92155D02*
X45620Y92155D01*
X45620Y87230D02*
X38620Y87230D01*
X45620Y87230D02*
X45620Y85730D01*
X38620Y85730D01*
X38620Y87230D01*
X38620Y87155D02*
X45620Y87155D01*
X45620Y82230D02*
X38620Y82230D01*
X45620Y82230D02*
X45620Y80730D01*
X38620Y80730D01*
X38620Y82230D01*
X38620Y82155D02*
X45620Y82155D01*
X45620Y77230D02*
X38620Y77230D01*
X45620Y77230D02*
X45620Y75730D01*
X38620Y75730D01*
X38620Y77230D01*
X38620Y77155D02*
X45620Y77155D01*
X45620Y72230D02*
X38620Y72230D01*
X45620Y72230D02*
X45620Y70730D01*
X38620Y70730D01*
X38620Y72230D01*
X38620Y72155D02*
X45620Y72155D01*
X45620Y67230D02*
X38620Y67230D01*
X45620Y67230D02*
X45620Y65730D01*
X38620Y65730D01*
X38620Y67230D01*
X38620Y67155D02*
X45620Y67155D01*
X45620Y62230D02*
X38620Y62230D01*
X45620Y62230D02*
X45620Y60730D01*
X38620Y60730D01*
X38620Y62230D01*
X38620Y62155D02*
X45620Y62155D01*
X45620Y57230D02*
X38620Y57230D01*
X45620Y57230D02*
X45620Y55730D01*
X38620Y55730D01*
X38620Y57230D01*
X38620Y57155D02*
X45620Y57155D01*
X45620Y52230D02*
X38620Y52230D01*
X45620Y52230D02*
X45620Y50730D01*
X38620Y50730D01*
X38620Y52230D01*
X38620Y52155D02*
X45620Y52155D01*
X48870Y47480D02*
X50370Y47480D01*
X50370Y40480D01*
X48870Y40480D01*
X48870Y47480D01*
X48870Y41905D02*
X50370Y41905D01*
X50370Y43330D02*
X48870Y43330D01*
X48870Y44755D02*
X50370Y44755D01*
X50370Y46180D02*
X48870Y46180D01*
X53870Y47480D02*
X55370Y47480D01*
X55370Y40480D01*
X53870Y40480D01*
X53870Y47480D01*
X53870Y41905D02*
X55370Y41905D01*
X55370Y43330D02*
X53870Y43330D01*
X53870Y44755D02*
X55370Y44755D01*
X55370Y46180D02*
X53870Y46180D01*
X58870Y47480D02*
X60370Y47480D01*
X60370Y40480D01*
X58870Y40480D01*
X58870Y47480D01*
X58870Y41905D02*
X60370Y41905D01*
X60370Y43330D02*
X58870Y43330D01*
X58870Y44755D02*
X60370Y44755D01*
X60370Y46180D02*
X58870Y46180D01*
X63870Y47480D02*
X65370Y47480D01*
X65370Y40480D01*
X63870Y40480D01*
X63870Y47480D01*
X63870Y41905D02*
X65370Y41905D01*
X65370Y43330D02*
X63870Y43330D01*
X63870Y44755D02*
X65370Y44755D01*
X65370Y46180D02*
X63870Y46180D01*
X68870Y47480D02*
X70370Y47480D01*
X70370Y40480D01*
X68870Y40480D01*
X68870Y47480D01*
X68870Y41905D02*
X70370Y41905D01*
X70370Y43330D02*
X68870Y43330D01*
X68870Y44755D02*
X70370Y44755D01*
X70370Y46180D02*
X68870Y46180D01*
X73870Y47480D02*
X75370Y47480D01*
X75370Y40480D01*
X73870Y40480D01*
X73870Y47480D01*
X73870Y41905D02*
X75370Y41905D01*
X75370Y43330D02*
X73870Y43330D01*
X73870Y44755D02*
X75370Y44755D01*
X75370Y46180D02*
X73870Y46180D01*
X78870Y47480D02*
X80370Y47480D01*
X80370Y40480D01*
X78870Y40480D01*
X78870Y47480D01*
X78870Y41905D02*
X80370Y41905D01*
X80370Y43330D02*
X78870Y43330D01*
X78870Y44755D02*
X80370Y44755D01*
X80370Y46180D02*
X78870Y46180D01*
X83870Y47480D02*
X85370Y47480D01*
X85370Y40480D01*
X83870Y40480D01*
X83870Y47480D01*
X83870Y41905D02*
X85370Y41905D01*
X85370Y43330D02*
X83870Y43330D01*
X83870Y44755D02*
X85370Y44755D01*
X85370Y46180D02*
X83870Y46180D01*
X88870Y47480D02*
X90370Y47480D01*
X90370Y40480D01*
X88870Y40480D01*
X88870Y47480D01*
X88870Y41905D02*
X90370Y41905D01*
X90370Y43330D02*
X88870Y43330D01*
X88870Y44755D02*
X90370Y44755D01*
X90370Y46180D02*
X88870Y46180D01*
X93870Y47480D02*
X95370Y47480D01*
X95370Y40480D01*
X93870Y40480D01*
X93870Y47480D01*
X93870Y41905D02*
X95370Y41905D01*
X95370Y43330D02*
X93870Y43330D01*
X93870Y44755D02*
X95370Y44755D01*
X95370Y46180D02*
X93870Y46180D01*
D15*
X72114Y74107D03*
D10*
X107844Y126474D02*
X107844Y129066D01*
X111036Y129066D01*
X111036Y126474D01*
X107844Y126474D01*
X111036Y135074D02*
X111036Y137666D01*
X111036Y135074D02*
X107844Y135074D01*
X107844Y137666D01*
X111036Y137666D01*
X120976Y130056D02*
X120976Y127464D01*
X117784Y127464D01*
X117784Y130056D01*
X120976Y130056D01*
X117784Y121456D02*
X117784Y118864D01*
X117784Y121456D02*
X120976Y121456D01*
X120976Y118864D01*
X117784Y118864D01*
X146994Y103676D02*
X146994Y101084D01*
X146994Y103676D02*
X150186Y103676D01*
X150186Y101084D01*
X146994Y101084D01*
X150186Y109684D02*
X150186Y112276D01*
X150186Y109684D02*
X146994Y109684D01*
X146994Y112276D01*
X150186Y112276D01*
X150304Y127298D02*
X150304Y129890D01*
X150304Y127298D02*
X147112Y127298D01*
X147112Y129890D01*
X150304Y129890D01*
X147112Y121290D02*
X147112Y118698D01*
X147112Y121290D02*
X150304Y121290D01*
X150304Y118698D01*
X147112Y118698D01*
D16*
X138570Y71084D03*
X138570Y85584D03*
X127070Y85584D03*
X127070Y71084D03*
D17*
X18812Y168389D03*
D18*
X39812Y168389D03*
D19*
X158260Y158800D03*
X158260Y145030D03*
X6790Y160030D03*
X6790Y150030D03*
X6790Y140030D03*
X19290Y160030D03*
X19290Y150030D03*
X19290Y140030D03*
X72190Y73510D03*
X62030Y73510D03*
X53140Y73510D03*
X81080Y73510D03*
X91240Y73510D03*
X81080Y64620D03*
X81080Y55730D03*
X91240Y64620D03*
X91240Y55730D03*
X72190Y64620D03*
X72190Y55730D03*
X62030Y55730D03*
X62030Y64620D03*
X53140Y55730D03*
X53140Y64620D03*
X53140Y82400D03*
X53140Y91290D03*
X62030Y82400D03*
X62030Y91290D03*
X72190Y82400D03*
X81080Y82400D03*
X91240Y82400D03*
X72190Y91290D03*
X91240Y91290D03*
X81080Y91290D03*
X73260Y158600D03*
X75800Y147170D03*
X75800Y137010D03*
X85760Y158600D03*
X98260Y158600D03*
X109450Y158600D03*
X121910Y158600D03*
X134370Y158600D03*
X148100Y158600D03*
X134370Y145900D03*
X121910Y145900D03*
X109450Y145900D03*
X148100Y145030D03*
X60760Y158600D03*
D20*
X120614Y71084D02*
X127070Y71084D01*
X120614Y71084D02*
X118110Y68580D01*
D21*
X118110Y68580D03*
D20*
X138570Y85584D02*
X145274Y85584D01*
X147320Y87630D01*
D21*
X147320Y87630D03*
D19*
X31990Y140030D03*
X43420Y140030D03*
D22*
X86635Y25805D02*
X89487Y25805D01*
X83238Y22409D02*
X83238Y22249D01*
X83238Y22409D02*
X86635Y25805D01*
D21*
X89487Y25805D03*
D19*
X6790Y5410D03*
X19290Y5410D03*
X158260Y5330D03*
X158260Y16760D03*
X144290Y5330D03*
X135640Y43030D03*
X30720Y98120D03*
X59490Y128120D03*
X75800Y119230D03*
D20*
X42144Y25084D02*
X35100Y25084D01*
X34938Y24922D01*
D21*
X34938Y24922D03*
D19*
X121910Y135740D03*
X134370Y135740D03*
X148100Y136140D03*
X158260Y136140D03*
X148340Y58270D03*
X148340Y69700D03*
X60760Y167490D03*
X73260Y167490D03*
X85760Y167490D03*
X98260Y167490D03*
X109450Y167490D03*
X121910Y167490D03*
X134370Y167490D03*
X148100Y167490D03*
X158260Y167690D03*
X6790Y167650D03*
X49330Y167490D03*
X32820Y167490D03*
X26720Y167583D03*
X31990Y150190D03*
X31990Y159080D03*
D22*
X19711Y167490D02*
X18812Y168389D01*
D19*
X11145Y167564D03*
X31990Y129870D03*
X43420Y129870D03*
D23*
X116094Y10684D02*
X116094Y127D01*
X116094Y10684D02*
X120650Y15240D01*
X120650Y29108D01*
X120030Y29728D01*
D21*
X120650Y40640D03*
D23*
X120030Y34604D02*
X120030Y29728D01*
D22*
X119380Y120160D02*
X119876Y120656D01*
X119149Y119929D02*
X119149Y115758D01*
X119149Y114979D01*
D21*
X113030Y115570D03*
D22*
X119149Y119929D02*
X119380Y120160D01*
X110490Y102870D02*
X110490Y95250D01*
X106720Y91480D01*
X102120Y91480D01*
X118261Y110641D02*
X119876Y112256D01*
X118632Y111012D02*
X118261Y110641D01*
X116943Y109323D01*
X110490Y102870D01*
X148590Y102380D02*
X148590Y95250D01*
D19*
X148590Y95250D03*
D20*
X42120Y51480D02*
X42120Y45275D01*
X42120Y42830D01*
X42120Y39370D01*
X42120Y36676D01*
X42120Y35638D02*
X42120Y33708D01*
X42144Y33684D01*
D21*
X36830Y39370D03*
D20*
X36945Y39370D01*
X39467Y36671D01*
X42144Y33807D01*
X42144Y33684D01*
X42120Y36676D02*
X39467Y36671D01*
X40572Y39370D02*
X36830Y39370D01*
X40572Y39370D02*
X42120Y39370D01*
X40572Y39370D02*
X42144Y33684D01*
X114283Y114317D02*
X117899Y114317D01*
X119310Y114979D02*
X119380Y115049D01*
X119310Y114979D02*
X119149Y114979D01*
X115602Y115570D02*
X113030Y115570D01*
X115602Y115570D02*
X117377Y113795D01*
X117377Y112267D02*
X118632Y111012D01*
X118261Y110641D02*
X118261Y110641D01*
X117377Y113795D02*
X117899Y114317D01*
X119060Y114573D02*
X119060Y115425D01*
D22*
X119876Y112256D02*
X119876Y120656D01*
X114283Y114317D02*
X113030Y115570D01*
X116943Y111657D01*
X116943Y109323D01*
X118961Y115570D02*
X119149Y115758D01*
X118961Y115570D02*
X113030Y115570D01*
X117377Y113795D02*
X117377Y112267D01*
X119149Y114662D02*
X119149Y114979D01*
X119149Y114662D02*
X119060Y114573D01*
D21*
X117628Y112140D03*
D22*
X119149Y113661D01*
X119149Y114662D01*
D21*
X36628Y45064D03*
D22*
X36628Y39572D02*
X36830Y39370D01*
X36628Y39572D02*
X36628Y42501D01*
X36628Y45064D01*
X36838Y45275D01*
X38324Y45275D01*
X39049Y45275D01*
X42120Y45275D01*
X42120Y42830D02*
X42120Y51480D01*
X42120Y42830D02*
X42120Y37008D01*
X42120Y36676D01*
X42120Y37008D02*
X37460Y41669D01*
X36628Y42501D01*
X37460Y41669D02*
X40959Y41669D01*
X42120Y42830D01*
X41494Y42830D01*
X39975Y44349D01*
X39049Y45275D01*
X39250Y44349D02*
X39975Y44349D01*
X39250Y44349D02*
X38324Y45275D01*
X42120Y36676D02*
X42120Y35638D01*
D21*
X113905Y40827D03*
D24*
X120650Y40640D02*
X120650Y35224D01*
X120030Y34604D01*
X120030Y36753D02*
X120030Y29728D01*
X120030Y36753D02*
X116273Y40510D01*
X114221Y40510D01*
X113905Y40827D01*
X120650Y40640D02*
X120650Y41976D01*
X113905Y41976D01*
X113905Y40827D01*
D25*
X94620Y103980D02*
X94620Y109860D01*
X97790Y113030D01*
D19*
X97790Y113030D03*
D22*
X87883Y127889D02*
X87947Y127953D01*
D26*
X84380Y104220D02*
X84509Y104091D01*
X76055Y125335D02*
X76055Y126619D01*
X84509Y104091D02*
X84620Y103980D01*
X76055Y125599D02*
X76055Y126619D01*
X87766Y127953D02*
X87947Y127953D01*
X84509Y121216D02*
X84509Y104091D01*
X86306Y126312D02*
X87947Y127953D01*
X86306Y126312D02*
X85288Y123425D01*
X84509Y121216D01*
X76055Y125335D01*
X89620Y103980D02*
X89620Y97830D01*
X88630Y96840D01*
X81010Y96840D01*
X79620Y98230D01*
X79620Y103980D01*
D20*
X87947Y136593D02*
X89578Y136593D01*
D22*
X87947Y147344D02*
X87940Y147351D01*
D27*
X87947Y147344D02*
X87947Y136593D01*
D22*
X98980Y128191D01*
D20*
X89620Y112480D02*
X89620Y103980D01*
X89620Y112480D02*
X90170Y113030D01*
D28*
X90170Y113030D03*
D20*
X97218Y126429D02*
X98980Y128191D01*
X97218Y126429D02*
X90170Y114300D01*
X90170Y113030D01*
X79620Y112150D02*
X79620Y103980D01*
X79620Y112150D02*
X78740Y113030D01*
D19*
X78740Y113030D03*
D22*
X67455Y126619D02*
X67455Y137004D01*
X67539Y137088D01*
X58899Y146872D02*
X59030Y147003D01*
X58645Y146618D02*
X58558Y146531D01*
X58899Y146872D02*
X58899Y137088D01*
X58899Y146872D02*
X59030Y147003D01*
X58645Y146618D02*
X49410Y146618D01*
X58645Y146618D02*
X58899Y146872D01*
X49410Y155258D02*
X49333Y155335D01*
D27*
X39812Y155366D02*
X39670Y155223D01*
D22*
X39812Y155366D02*
X39812Y168389D01*
X39781Y155335D02*
X39670Y155223D01*
X39781Y155335D02*
X49333Y155335D01*
D25*
X102120Y114820D02*
X102120Y96480D01*
X102120Y114820D02*
X109220Y121920D01*
X109220Y127551D01*
X109440Y127770D01*
D26*
X139045Y119604D02*
X139045Y119181D01*
X117554Y97690D01*
X117554Y89784D01*
X111760Y83990D02*
X111760Y80010D01*
X111760Y83990D02*
X117554Y89784D01*
X111760Y80010D02*
X108230Y76480D01*
X102120Y76480D01*
X114284Y99044D02*
X125884Y110644D01*
X114284Y99044D02*
X114284Y91138D01*
X109626Y86480D02*
X102120Y86480D01*
X109626Y86480D02*
X114284Y91138D01*
X127643Y117964D02*
X129420Y119741D01*
X127643Y117964D02*
X125884Y110644D01*
X69620Y43980D02*
X69558Y43918D01*
X69558Y37489D01*
X70828Y36219D01*
X70828Y26059D01*
X74638Y22249D01*
D25*
X138570Y71084D02*
X133350Y77470D01*
X132557Y77470D01*
X132161Y77866D01*
X118647Y77866D01*
X107261Y66480D02*
X102120Y66480D01*
X107261Y66480D02*
X118647Y77866D01*
X136770Y69284D02*
X136770Y59070D01*
X136770Y69284D02*
X138570Y71084D01*
X102480Y71120D02*
X102120Y71480D01*
X126419Y86235D02*
X127070Y85584D01*
X108310Y71480D02*
X102120Y71480D01*
X122414Y85584D02*
X127070Y85584D01*
X122414Y85584D02*
X108310Y71480D01*
X127070Y85584D02*
X127070Y96381D01*
X128265Y97575D01*
X74620Y103980D02*
X74620Y111083D01*
X69850Y115853D01*
X69850Y116840D01*
D19*
X69850Y116840D03*
D25*
X49620Y110654D02*
X49620Y103980D01*
X49620Y110654D02*
X48260Y112014D01*
X39907Y112014D02*
X35010Y107117D01*
X39907Y112014D02*
X48260Y112014D01*
X12085Y107117D02*
X4775Y114427D01*
X12085Y107117D02*
X35010Y107117D01*
X4775Y114427D02*
X2159Y114427D01*
X69620Y110861D02*
X69620Y103980D01*
X64657Y115824D02*
X61130Y115824D01*
X53002Y123952D01*
X18542Y123952D02*
X16510Y121920D01*
X64657Y115824D02*
X69620Y110861D01*
X53002Y123952D02*
X18542Y123952D01*
D19*
X16510Y121920D03*
D25*
X64620Y110640D02*
X64620Y103980D01*
X64620Y110640D02*
X62230Y113030D01*
X59973Y113030D01*
X25908Y121158D02*
X22860Y118110D01*
X51845Y121158D02*
X59973Y113030D01*
X51845Y121158D02*
X25908Y121158D01*
D19*
X22860Y118110D03*
D25*
X59620Y109431D02*
X59620Y103980D01*
X59620Y109431D02*
X50687Y118364D01*
X30734Y118364D01*
X29210Y116840D01*
D19*
X29210Y116840D03*
D25*
X54620Y110480D02*
X54620Y103980D01*
X54620Y110480D02*
X49530Y115570D01*
D19*
X33020Y111760D03*
D25*
X38100Y115570D02*
X49530Y115570D01*
X38100Y115570D02*
X34290Y111760D01*
X33020Y111760D01*
X30840Y71480D02*
X42120Y71480D01*
X30840Y71480D02*
X30480Y71120D01*
D19*
X30480Y71120D03*
D25*
X39894Y8366D02*
X39894Y127D01*
X39894Y8366D02*
X36830Y11430D01*
X30480Y11430D01*
X22860Y19050D01*
X37270Y66480D02*
X42120Y66480D01*
X22860Y52070D02*
X22860Y19050D01*
X22860Y52070D02*
X37270Y66480D01*
X36221Y61480D02*
X25654Y50913D01*
X25654Y20207D01*
X36221Y61480D02*
X42120Y61480D01*
X25654Y20207D02*
X31637Y14224D01*
X37987Y14224D01*
X52084Y127D02*
X52594Y127D01*
X52084Y127D02*
X37987Y14224D01*
X35398Y56480D02*
X42120Y56480D01*
X35398Y56480D02*
X29545Y50627D01*
X29545Y21538D01*
X34065Y17018D01*
X48543Y7620D02*
X57801Y7620D01*
X39145Y17018D02*
X34065Y17018D01*
X39145Y17018D02*
X48543Y7620D01*
X57801Y7620D02*
X65294Y127D01*
X49620Y38010D02*
X49620Y43980D01*
X58420Y29210D02*
X58420Y15240D01*
X66040Y7620D01*
X73660Y7620D01*
X77994Y3286D01*
X58420Y29210D02*
X49620Y38010D01*
X77994Y3286D02*
X77994Y127D01*
X54620Y36961D02*
X54620Y43980D01*
X61214Y16397D02*
X67197Y10414D01*
X74817Y10414D01*
X77611Y7620D02*
X85090Y7620D01*
X89586Y3124D01*
X61214Y30367D02*
X54620Y36961D01*
X61214Y30367D02*
X61214Y16397D01*
X74817Y10414D02*
X77611Y7620D01*
X89586Y1235D02*
X90694Y127D01*
X89586Y1235D02*
X89586Y3124D01*
X59690Y43910D02*
X59620Y43980D01*
X59690Y43910D02*
X59690Y35843D01*
X64008Y17555D02*
X68355Y13208D01*
X75975Y13208D01*
X78769Y10414D01*
X86247Y10414D01*
X89041Y7620D02*
X97790Y7620D01*
X89041Y7620D02*
X86247Y10414D01*
X97790Y7620D02*
X102235Y3175D01*
X102286Y3124D01*
X64008Y31525D02*
X59690Y35843D01*
X64008Y31525D02*
X64008Y17555D01*
X102235Y1286D02*
X103394Y127D01*
X102235Y1286D02*
X102235Y3175D01*
X64620Y36980D02*
X64620Y43980D01*
X64620Y36980D02*
X66802Y34798D01*
X66802Y18712D01*
X69512Y16002D02*
X77132Y16002D01*
X79926Y13208D01*
X87405Y13208D01*
X90199Y10414D01*
X105664Y10414D01*
X109220Y13970D01*
X69512Y16002D02*
X66802Y18712D01*
D19*
X109220Y13970D03*
D25*
X74620Y36727D02*
X74620Y43980D01*
X80927Y30420D02*
X94911Y30420D01*
X101680Y23651D01*
X101680Y19050D01*
X80927Y30420D02*
X74620Y36727D01*
D19*
X101680Y19050D03*
D25*
X79620Y38218D02*
X79620Y43980D01*
X79620Y38218D02*
X84106Y33732D01*
X96722Y33732D01*
X106090Y24364D01*
X106090Y23630D01*
D19*
X106090Y23630D03*
D25*
X84620Y39131D02*
X84620Y43980D01*
X84620Y39131D02*
X87087Y36665D01*
X98552Y36665D02*
X107277Y27940D01*
X110490Y27940D01*
X98552Y36665D02*
X87087Y36665D01*
D19*
X110490Y27940D03*
D25*
X99860Y43980D02*
X94620Y43980D01*
X99860Y43980D02*
X100330Y44450D01*
D19*
X100330Y44450D03*
D25*
X102120Y51480D02*
X114890Y51480D01*
X115570Y50800D01*
D19*
X115570Y50800D03*
D25*
X111160Y56480D02*
X102120Y56480D01*
X111160Y56480D02*
X111760Y55880D01*
D19*
X111760Y55880D03*
D25*
X114300Y61480D02*
X127520Y48260D01*
X147148Y48260D01*
X162598Y63710D01*
X114300Y61480D02*
X102120Y61480D01*
X148590Y110980D02*
X148590Y119875D01*
X148708Y119994D01*
D19*
X139000Y111059D03*
D25*
X148511Y111059D02*
X148590Y110980D01*
X148511Y111059D02*
X139000Y111059D01*
X6350Y76200D02*
X4902Y76200D01*
X35360Y81480D02*
X42120Y81480D01*
X35360Y81480D02*
X33274Y83566D01*
X11176Y83566D02*
X3937Y76327D01*
X11176Y83566D02*
X33274Y83566D01*
X6350Y76200D02*
X6223Y76327D01*
X3937Y76327D02*
X2159Y76327D01*
X4775Y76327D01*
X4902Y76200D01*
D19*
X52820Y16052D03*
D25*
X42080Y91440D02*
X42120Y91480D01*
X35600Y91480D01*
X33274Y89154D01*
X15240Y89154D01*
X4775Y99619D01*
X4775Y101727D01*
X2159Y101727D01*
X42000Y86360D02*
X42120Y86480D01*
X42000Y86360D02*
X5080Y86360D01*
X2413Y89027D01*
X2159Y89027D01*
M02*
