G04 EAGLE Gerber RS-274X export*
G75*
%MOMM*%
%FSLAX34Y34*%
%LPD*%
%INSilkscreen Bottom*%
%IPPOS*%
%AMOC8*
5,1,8,0,0,1.08239X$1,22.5*%
G01*
%ADD10C,0.076200*%
%ADD11C,0.152400*%
%ADD12C,0.200000*%
%ADD13C,0.254000*%


D10*
X156803Y219743D02*
X156803Y214014D01*
X156805Y213936D01*
X156810Y213858D01*
X156820Y213781D01*
X156833Y213704D01*
X156849Y213628D01*
X156869Y213553D01*
X156893Y213479D01*
X156920Y213406D01*
X156951Y213334D01*
X156985Y213264D01*
X157022Y213196D01*
X157063Y213129D01*
X157107Y213064D01*
X157153Y213002D01*
X157203Y212942D01*
X157255Y212884D01*
X157310Y212829D01*
X157368Y212777D01*
X157428Y212727D01*
X157490Y212681D01*
X157555Y212637D01*
X157622Y212596D01*
X157690Y212559D01*
X157760Y212525D01*
X157832Y212494D01*
X157905Y212467D01*
X157979Y212443D01*
X158054Y212423D01*
X158130Y212407D01*
X158207Y212394D01*
X158284Y212384D01*
X158362Y212379D01*
X158440Y212377D01*
X159258Y212377D01*
X153109Y212377D02*
X153109Y219743D01*
X153109Y212377D02*
X149835Y212377D01*
X145415Y212377D02*
X143778Y212377D01*
X145415Y212377D02*
X145493Y212379D01*
X145571Y212384D01*
X145648Y212394D01*
X145725Y212407D01*
X145801Y212423D01*
X145876Y212443D01*
X145950Y212467D01*
X146023Y212494D01*
X146095Y212525D01*
X146165Y212559D01*
X146234Y212596D01*
X146300Y212637D01*
X146365Y212681D01*
X146427Y212727D01*
X146487Y212777D01*
X146545Y212829D01*
X146600Y212884D01*
X146652Y212942D01*
X146702Y213002D01*
X146748Y213064D01*
X146792Y213129D01*
X146833Y213196D01*
X146870Y213264D01*
X146904Y213334D01*
X146935Y213406D01*
X146962Y213479D01*
X146986Y213553D01*
X147006Y213628D01*
X147022Y213704D01*
X147035Y213781D01*
X147045Y213858D01*
X147050Y213936D01*
X147052Y214014D01*
X147051Y214014D02*
X147051Y218106D01*
X147052Y218106D02*
X147050Y218184D01*
X147045Y218262D01*
X147035Y218339D01*
X147022Y218416D01*
X147006Y218492D01*
X146986Y218567D01*
X146962Y218641D01*
X146935Y218714D01*
X146904Y218786D01*
X146870Y218856D01*
X146833Y218925D01*
X146792Y218991D01*
X146748Y219056D01*
X146702Y219118D01*
X146652Y219178D01*
X146600Y219236D01*
X146545Y219291D01*
X146487Y219343D01*
X146427Y219393D01*
X146365Y219439D01*
X146300Y219483D01*
X146234Y219524D01*
X146165Y219561D01*
X146095Y219595D01*
X146023Y219626D01*
X145950Y219653D01*
X145876Y219677D01*
X145801Y219697D01*
X145725Y219713D01*
X145648Y219726D01*
X145571Y219736D01*
X145493Y219741D01*
X145415Y219743D01*
X143778Y219743D01*
X139246Y219743D02*
X139246Y214014D01*
X139248Y213936D01*
X139253Y213858D01*
X139263Y213781D01*
X139276Y213704D01*
X139292Y213628D01*
X139312Y213553D01*
X139336Y213479D01*
X139363Y213406D01*
X139394Y213334D01*
X139428Y213264D01*
X139465Y213196D01*
X139506Y213129D01*
X139550Y213064D01*
X139596Y213002D01*
X139646Y212942D01*
X139698Y212884D01*
X139753Y212829D01*
X139811Y212777D01*
X139871Y212727D01*
X139933Y212681D01*
X139998Y212637D01*
X140065Y212596D01*
X140133Y212559D01*
X140203Y212525D01*
X140275Y212494D01*
X140348Y212467D01*
X140422Y212443D01*
X140497Y212423D01*
X140573Y212407D01*
X140650Y212394D01*
X140727Y212384D01*
X140805Y212379D01*
X140883Y212377D01*
X141702Y212377D01*
X135552Y212377D02*
X135552Y219743D01*
X135552Y212377D02*
X132279Y212377D01*
X127858Y212377D02*
X126221Y212377D01*
X127858Y212377D02*
X127936Y212379D01*
X128014Y212384D01*
X128091Y212394D01*
X128168Y212407D01*
X128244Y212423D01*
X128319Y212443D01*
X128393Y212467D01*
X128466Y212494D01*
X128538Y212525D01*
X128608Y212559D01*
X128677Y212596D01*
X128743Y212637D01*
X128808Y212681D01*
X128870Y212727D01*
X128930Y212777D01*
X128988Y212829D01*
X129043Y212884D01*
X129095Y212942D01*
X129145Y213002D01*
X129191Y213064D01*
X129235Y213129D01*
X129276Y213196D01*
X129313Y213264D01*
X129347Y213334D01*
X129378Y213406D01*
X129405Y213479D01*
X129429Y213553D01*
X129449Y213628D01*
X129465Y213704D01*
X129478Y213781D01*
X129488Y213858D01*
X129493Y213936D01*
X129495Y214014D01*
X129495Y218106D01*
X129493Y218184D01*
X129488Y218262D01*
X129478Y218339D01*
X129465Y218416D01*
X129449Y218492D01*
X129429Y218567D01*
X129405Y218641D01*
X129378Y218714D01*
X129347Y218786D01*
X129313Y218856D01*
X129276Y218925D01*
X129235Y218991D01*
X129191Y219056D01*
X129145Y219118D01*
X129095Y219178D01*
X129043Y219236D01*
X128988Y219291D01*
X128930Y219343D01*
X128870Y219393D01*
X128808Y219439D01*
X128743Y219483D01*
X128677Y219524D01*
X128608Y219561D01*
X128538Y219595D01*
X128466Y219626D01*
X128393Y219653D01*
X128319Y219677D01*
X128244Y219697D01*
X128168Y219713D01*
X128091Y219726D01*
X128014Y219736D01*
X127936Y219741D01*
X127858Y219743D01*
X126221Y219743D01*
X121690Y219743D02*
X121690Y214014D01*
X121692Y213936D01*
X121697Y213858D01*
X121707Y213781D01*
X121720Y213704D01*
X121736Y213628D01*
X121756Y213553D01*
X121780Y213479D01*
X121807Y213406D01*
X121838Y213334D01*
X121872Y213264D01*
X121909Y213196D01*
X121950Y213129D01*
X121994Y213064D01*
X122040Y213002D01*
X122090Y212942D01*
X122142Y212884D01*
X122197Y212829D01*
X122255Y212777D01*
X122315Y212727D01*
X122377Y212681D01*
X122442Y212637D01*
X122509Y212596D01*
X122577Y212559D01*
X122647Y212525D01*
X122719Y212494D01*
X122792Y212467D01*
X122866Y212443D01*
X122941Y212423D01*
X123017Y212407D01*
X123094Y212394D01*
X123171Y212384D01*
X123249Y212379D01*
X123327Y212377D01*
X124145Y212377D01*
X117996Y212377D02*
X117996Y219743D01*
X117996Y212377D02*
X114722Y212377D01*
X110302Y212377D02*
X108665Y212377D01*
X110302Y212377D02*
X110380Y212379D01*
X110458Y212384D01*
X110535Y212394D01*
X110612Y212407D01*
X110688Y212423D01*
X110763Y212443D01*
X110837Y212467D01*
X110910Y212494D01*
X110982Y212525D01*
X111052Y212559D01*
X111121Y212596D01*
X111187Y212637D01*
X111252Y212681D01*
X111314Y212727D01*
X111374Y212777D01*
X111432Y212829D01*
X111487Y212884D01*
X111539Y212942D01*
X111589Y213002D01*
X111635Y213064D01*
X111679Y213129D01*
X111720Y213196D01*
X111757Y213264D01*
X111791Y213334D01*
X111822Y213406D01*
X111849Y213479D01*
X111873Y213553D01*
X111893Y213628D01*
X111909Y213704D01*
X111922Y213781D01*
X111932Y213858D01*
X111937Y213936D01*
X111939Y214014D01*
X111939Y218106D01*
X111937Y218184D01*
X111932Y218262D01*
X111922Y218339D01*
X111909Y218416D01*
X111893Y218492D01*
X111873Y218567D01*
X111849Y218641D01*
X111822Y218714D01*
X111791Y218786D01*
X111757Y218856D01*
X111720Y218925D01*
X111679Y218991D01*
X111635Y219056D01*
X111589Y219118D01*
X111539Y219178D01*
X111487Y219236D01*
X111432Y219291D01*
X111374Y219343D01*
X111314Y219393D01*
X111252Y219439D01*
X111187Y219483D01*
X111121Y219524D01*
X111052Y219561D01*
X110982Y219595D01*
X110910Y219626D01*
X110837Y219653D01*
X110763Y219677D01*
X110688Y219697D01*
X110612Y219713D01*
X110535Y219726D01*
X110458Y219736D01*
X110380Y219741D01*
X110302Y219743D01*
X108665Y219743D01*
X104134Y219743D02*
X104134Y214014D01*
X104133Y214014D02*
X104135Y213936D01*
X104140Y213858D01*
X104150Y213781D01*
X104163Y213704D01*
X104179Y213628D01*
X104199Y213553D01*
X104223Y213479D01*
X104250Y213406D01*
X104281Y213334D01*
X104315Y213264D01*
X104352Y213196D01*
X104393Y213129D01*
X104437Y213064D01*
X104483Y213002D01*
X104533Y212942D01*
X104585Y212884D01*
X104640Y212829D01*
X104698Y212777D01*
X104758Y212727D01*
X104820Y212681D01*
X104885Y212637D01*
X104952Y212596D01*
X105020Y212559D01*
X105090Y212525D01*
X105162Y212494D01*
X105235Y212467D01*
X105309Y212443D01*
X105384Y212423D01*
X105460Y212407D01*
X105537Y212394D01*
X105614Y212384D01*
X105692Y212379D01*
X105770Y212377D01*
X106589Y212377D01*
X100440Y212377D02*
X100440Y219743D01*
X100440Y212377D02*
X97166Y212377D01*
X92745Y212377D02*
X91109Y212377D01*
X92745Y212377D02*
X92823Y212379D01*
X92901Y212384D01*
X92978Y212394D01*
X93055Y212407D01*
X93131Y212423D01*
X93206Y212443D01*
X93280Y212467D01*
X93353Y212494D01*
X93425Y212525D01*
X93495Y212559D01*
X93564Y212596D01*
X93630Y212637D01*
X93695Y212681D01*
X93757Y212727D01*
X93817Y212777D01*
X93875Y212829D01*
X93930Y212884D01*
X93982Y212942D01*
X94032Y213002D01*
X94078Y213064D01*
X94122Y213129D01*
X94163Y213196D01*
X94200Y213264D01*
X94234Y213334D01*
X94265Y213406D01*
X94292Y213479D01*
X94316Y213553D01*
X94336Y213628D01*
X94352Y213704D01*
X94365Y213781D01*
X94375Y213858D01*
X94380Y213936D01*
X94382Y214014D01*
X94382Y218106D01*
X94380Y218184D01*
X94375Y218262D01*
X94365Y218339D01*
X94352Y218416D01*
X94336Y218492D01*
X94316Y218567D01*
X94292Y218641D01*
X94265Y218714D01*
X94234Y218786D01*
X94200Y218856D01*
X94163Y218925D01*
X94122Y218991D01*
X94078Y219056D01*
X94032Y219118D01*
X93982Y219178D01*
X93930Y219236D01*
X93875Y219291D01*
X93817Y219343D01*
X93757Y219393D01*
X93695Y219439D01*
X93630Y219483D01*
X93564Y219524D01*
X93495Y219561D01*
X93425Y219595D01*
X93353Y219626D01*
X93280Y219653D01*
X93206Y219677D01*
X93131Y219697D01*
X93055Y219713D01*
X92978Y219726D01*
X92901Y219736D01*
X92823Y219741D01*
X92745Y219743D01*
X91109Y219743D01*
D11*
X33650Y130808D02*
X35852Y124204D01*
X31449Y124204D02*
X33650Y130808D01*
X31999Y125855D02*
X35301Y125855D01*
X27926Y124204D02*
X27926Y130808D01*
X26091Y130808D01*
X26006Y130806D01*
X25922Y130800D01*
X25838Y130790D01*
X25754Y130777D01*
X25671Y130759D01*
X25589Y130738D01*
X25508Y130713D01*
X25428Y130684D01*
X25350Y130652D01*
X25274Y130616D01*
X25199Y130576D01*
X25126Y130533D01*
X25055Y130487D01*
X24986Y130438D01*
X24919Y130385D01*
X24855Y130329D01*
X24794Y130271D01*
X24736Y130210D01*
X24680Y130146D01*
X24627Y130079D01*
X24578Y130010D01*
X24532Y129939D01*
X24489Y129866D01*
X24449Y129791D01*
X24413Y129715D01*
X24381Y129637D01*
X24352Y129557D01*
X24327Y129476D01*
X24306Y129394D01*
X24288Y129311D01*
X24275Y129227D01*
X24265Y129143D01*
X24259Y129059D01*
X24257Y128974D01*
X24257Y126038D01*
X24259Y125953D01*
X24265Y125869D01*
X24275Y125785D01*
X24288Y125701D01*
X24306Y125618D01*
X24327Y125536D01*
X24352Y125455D01*
X24381Y125375D01*
X24413Y125297D01*
X24449Y125221D01*
X24489Y125146D01*
X24532Y125073D01*
X24578Y125002D01*
X24627Y124933D01*
X24680Y124866D01*
X24736Y124802D01*
X24794Y124741D01*
X24855Y124683D01*
X24919Y124627D01*
X24986Y124574D01*
X25055Y124525D01*
X25126Y124479D01*
X25199Y124436D01*
X25274Y124396D01*
X25350Y124360D01*
X25428Y124328D01*
X25508Y124299D01*
X25589Y124274D01*
X25671Y124253D01*
X25754Y124235D01*
X25838Y124222D01*
X25922Y124212D01*
X26006Y124206D01*
X26091Y124204D01*
X27926Y124204D01*
X18935Y124204D02*
X17467Y124204D01*
X18935Y124204D02*
X19009Y124206D01*
X19084Y124212D01*
X19157Y124221D01*
X19231Y124234D01*
X19303Y124251D01*
X19374Y124271D01*
X19445Y124295D01*
X19514Y124323D01*
X19582Y124354D01*
X19647Y124388D01*
X19712Y124426D01*
X19774Y124467D01*
X19834Y124511D01*
X19891Y124558D01*
X19946Y124608D01*
X19999Y124661D01*
X20049Y124716D01*
X20096Y124773D01*
X20140Y124833D01*
X20181Y124895D01*
X20219Y124960D01*
X20253Y125026D01*
X20284Y125093D01*
X20312Y125162D01*
X20336Y125233D01*
X20356Y125304D01*
X20373Y125377D01*
X20386Y125450D01*
X20395Y125524D01*
X20401Y125598D01*
X20403Y125672D01*
X20402Y125672D02*
X20402Y129340D01*
X20403Y129340D02*
X20401Y129414D01*
X20395Y129489D01*
X20386Y129562D01*
X20373Y129635D01*
X20356Y129708D01*
X20336Y129779D01*
X20312Y129850D01*
X20284Y129919D01*
X20253Y129986D01*
X20219Y130052D01*
X20181Y130117D01*
X20140Y130179D01*
X20096Y130239D01*
X20049Y130296D01*
X19999Y130351D01*
X19946Y130404D01*
X19891Y130454D01*
X19834Y130501D01*
X19774Y130545D01*
X19712Y130586D01*
X19647Y130624D01*
X19582Y130658D01*
X19514Y130689D01*
X19445Y130717D01*
X19375Y130741D01*
X19303Y130761D01*
X19231Y130778D01*
X19157Y130791D01*
X19084Y130800D01*
X19009Y130806D01*
X18935Y130808D01*
X17467Y130808D01*
X14271Y129340D02*
X12436Y130808D01*
X12436Y124204D01*
X10602Y124204D02*
X14271Y124204D01*
X42238Y112972D02*
X42240Y112898D01*
X42246Y112823D01*
X42255Y112750D01*
X42268Y112676D01*
X42285Y112604D01*
X42305Y112533D01*
X42329Y112462D01*
X42357Y112393D01*
X42388Y112326D01*
X42422Y112260D01*
X42460Y112195D01*
X42501Y112133D01*
X42545Y112073D01*
X42592Y112016D01*
X42642Y111961D01*
X42695Y111908D01*
X42750Y111858D01*
X42807Y111811D01*
X42867Y111767D01*
X42929Y111726D01*
X42994Y111688D01*
X43060Y111654D01*
X43127Y111623D01*
X43196Y111595D01*
X43267Y111571D01*
X43338Y111551D01*
X43410Y111534D01*
X43484Y111521D01*
X43557Y111512D01*
X43632Y111506D01*
X43706Y111504D01*
X43817Y111506D01*
X43928Y111512D01*
X44039Y111522D01*
X44150Y111536D01*
X44259Y111554D01*
X44368Y111576D01*
X44477Y111601D01*
X44584Y111631D01*
X44690Y111664D01*
X44795Y111702D01*
X44898Y111742D01*
X45000Y111787D01*
X45100Y111835D01*
X45199Y111887D01*
X45295Y111942D01*
X45390Y112001D01*
X45482Y112063D01*
X45572Y112129D01*
X45660Y112197D01*
X45745Y112269D01*
X45827Y112344D01*
X45907Y112421D01*
X45724Y116640D02*
X45722Y116714D01*
X45716Y116789D01*
X45707Y116862D01*
X45694Y116936D01*
X45677Y117008D01*
X45657Y117079D01*
X45633Y117150D01*
X45605Y117219D01*
X45574Y117286D01*
X45540Y117352D01*
X45502Y117417D01*
X45461Y117479D01*
X45417Y117539D01*
X45370Y117596D01*
X45320Y117651D01*
X45267Y117704D01*
X45212Y117754D01*
X45155Y117801D01*
X45095Y117845D01*
X45033Y117886D01*
X44968Y117924D01*
X44902Y117958D01*
X44835Y117989D01*
X44766Y118017D01*
X44695Y118041D01*
X44624Y118061D01*
X44552Y118078D01*
X44478Y118091D01*
X44405Y118100D01*
X44330Y118106D01*
X44256Y118108D01*
X44152Y118106D01*
X44048Y118100D01*
X43944Y118090D01*
X43841Y118077D01*
X43738Y118059D01*
X43636Y118037D01*
X43535Y118012D01*
X43435Y117983D01*
X43336Y117950D01*
X43239Y117913D01*
X43143Y117873D01*
X43048Y117829D01*
X42956Y117781D01*
X42865Y117731D01*
X42776Y117676D01*
X42689Y117619D01*
X42605Y117558D01*
X44990Y115355D02*
X45053Y115394D01*
X45113Y115436D01*
X45172Y115481D01*
X45228Y115529D01*
X45281Y115580D01*
X45332Y115633D01*
X45381Y115688D01*
X45426Y115746D01*
X45469Y115806D01*
X45509Y115868D01*
X45545Y115932D01*
X45579Y115998D01*
X45609Y116066D01*
X45636Y116134D01*
X45659Y116204D01*
X45679Y116275D01*
X45695Y116347D01*
X45708Y116420D01*
X45717Y116493D01*
X45722Y116566D01*
X45724Y116640D01*
X42972Y114257D02*
X42909Y114218D01*
X42849Y114176D01*
X42791Y114131D01*
X42734Y114083D01*
X42681Y114032D01*
X42630Y113979D01*
X42581Y113924D01*
X42536Y113866D01*
X42493Y113806D01*
X42453Y113744D01*
X42417Y113680D01*
X42383Y113614D01*
X42353Y113546D01*
X42326Y113478D01*
X42303Y113408D01*
X42283Y113337D01*
X42267Y113265D01*
X42254Y113192D01*
X42245Y113119D01*
X42240Y113046D01*
X42238Y112972D01*
X42972Y114256D02*
X44990Y115356D01*
X38411Y118108D02*
X38411Y111504D01*
X38411Y118108D02*
X36577Y118108D01*
X36492Y118106D01*
X36408Y118100D01*
X36324Y118090D01*
X36240Y118077D01*
X36157Y118059D01*
X36075Y118038D01*
X35994Y118013D01*
X35914Y117984D01*
X35836Y117952D01*
X35760Y117916D01*
X35685Y117876D01*
X35612Y117833D01*
X35541Y117787D01*
X35472Y117738D01*
X35405Y117685D01*
X35341Y117629D01*
X35280Y117571D01*
X35222Y117510D01*
X35166Y117446D01*
X35113Y117379D01*
X35064Y117310D01*
X35018Y117239D01*
X34975Y117166D01*
X34935Y117091D01*
X34899Y117015D01*
X34867Y116937D01*
X34838Y116857D01*
X34813Y116776D01*
X34792Y116694D01*
X34774Y116611D01*
X34761Y116527D01*
X34751Y116443D01*
X34745Y116359D01*
X34743Y116274D01*
X34745Y116189D01*
X34751Y116105D01*
X34761Y116021D01*
X34774Y115937D01*
X34792Y115854D01*
X34813Y115772D01*
X34838Y115691D01*
X34867Y115611D01*
X34899Y115533D01*
X34935Y115457D01*
X34975Y115382D01*
X35018Y115309D01*
X35064Y115238D01*
X35113Y115169D01*
X35166Y115102D01*
X35222Y115038D01*
X35280Y114977D01*
X35341Y114919D01*
X35405Y114863D01*
X35472Y114810D01*
X35541Y114761D01*
X35612Y114715D01*
X35685Y114672D01*
X35760Y114632D01*
X35836Y114596D01*
X35914Y114564D01*
X35994Y114535D01*
X36075Y114510D01*
X36157Y114489D01*
X36240Y114471D01*
X36324Y114458D01*
X36408Y114448D01*
X36492Y114442D01*
X36577Y114440D01*
X36577Y114439D02*
X38411Y114439D01*
X31149Y111504D02*
X31149Y118108D01*
X31883Y111504D02*
X30416Y111504D01*
X30416Y118108D02*
X31883Y118108D01*
X25700Y111504D02*
X24232Y111504D01*
X25700Y111504D02*
X25774Y111506D01*
X25849Y111512D01*
X25922Y111521D01*
X25996Y111534D01*
X26068Y111551D01*
X26139Y111571D01*
X26210Y111595D01*
X26279Y111623D01*
X26347Y111654D01*
X26412Y111688D01*
X26477Y111726D01*
X26539Y111767D01*
X26599Y111811D01*
X26656Y111858D01*
X26711Y111908D01*
X26764Y111961D01*
X26814Y112016D01*
X26861Y112073D01*
X26905Y112133D01*
X26946Y112195D01*
X26984Y112260D01*
X27018Y112326D01*
X27049Y112393D01*
X27077Y112462D01*
X27101Y112533D01*
X27121Y112604D01*
X27138Y112677D01*
X27151Y112750D01*
X27160Y112824D01*
X27166Y112898D01*
X27168Y112972D01*
X27167Y112972D02*
X27167Y116640D01*
X27168Y116640D02*
X27166Y116714D01*
X27160Y116789D01*
X27151Y116862D01*
X27138Y116935D01*
X27121Y117008D01*
X27101Y117079D01*
X27077Y117150D01*
X27049Y117219D01*
X27018Y117286D01*
X26984Y117352D01*
X26946Y117417D01*
X26905Y117479D01*
X26861Y117539D01*
X26814Y117596D01*
X26764Y117651D01*
X26711Y117704D01*
X26656Y117754D01*
X26599Y117801D01*
X26539Y117845D01*
X26477Y117886D01*
X26412Y117924D01*
X26347Y117958D01*
X26279Y117989D01*
X26210Y118017D01*
X26140Y118041D01*
X26068Y118061D01*
X25996Y118078D01*
X25922Y118091D01*
X25849Y118100D01*
X25774Y118106D01*
X25700Y118108D01*
X24232Y118108D01*
X20768Y118108D02*
X20768Y111504D01*
X17833Y111504D01*
X14271Y111504D02*
X14271Y118108D01*
X10602Y118108D02*
X14271Y114072D01*
X12803Y115540D02*
X10602Y111504D01*
X49372Y100272D02*
X49374Y100198D01*
X49380Y100123D01*
X49389Y100050D01*
X49402Y99976D01*
X49419Y99904D01*
X49439Y99833D01*
X49463Y99762D01*
X49491Y99693D01*
X49522Y99626D01*
X49556Y99560D01*
X49594Y99495D01*
X49635Y99433D01*
X49679Y99373D01*
X49726Y99316D01*
X49776Y99261D01*
X49829Y99208D01*
X49884Y99158D01*
X49941Y99111D01*
X50001Y99067D01*
X50063Y99026D01*
X50128Y98988D01*
X50194Y98954D01*
X50261Y98923D01*
X50330Y98895D01*
X50401Y98871D01*
X50472Y98851D01*
X50544Y98834D01*
X50618Y98821D01*
X50691Y98812D01*
X50766Y98806D01*
X50840Y98804D01*
X50951Y98806D01*
X51062Y98812D01*
X51173Y98822D01*
X51284Y98836D01*
X51393Y98854D01*
X51502Y98876D01*
X51611Y98901D01*
X51718Y98931D01*
X51824Y98964D01*
X51929Y99002D01*
X52032Y99042D01*
X52134Y99087D01*
X52234Y99135D01*
X52333Y99187D01*
X52429Y99242D01*
X52524Y99301D01*
X52616Y99363D01*
X52706Y99429D01*
X52794Y99497D01*
X52879Y99569D01*
X52961Y99644D01*
X53041Y99721D01*
X52858Y103940D02*
X52856Y104014D01*
X52850Y104089D01*
X52841Y104162D01*
X52828Y104236D01*
X52811Y104308D01*
X52791Y104379D01*
X52767Y104450D01*
X52739Y104519D01*
X52708Y104586D01*
X52674Y104652D01*
X52636Y104717D01*
X52595Y104779D01*
X52551Y104839D01*
X52504Y104896D01*
X52454Y104951D01*
X52401Y105004D01*
X52346Y105054D01*
X52289Y105101D01*
X52229Y105145D01*
X52167Y105186D01*
X52102Y105224D01*
X52036Y105258D01*
X51969Y105289D01*
X51900Y105317D01*
X51829Y105341D01*
X51758Y105361D01*
X51686Y105378D01*
X51612Y105391D01*
X51539Y105400D01*
X51464Y105406D01*
X51390Y105408D01*
X51286Y105406D01*
X51182Y105400D01*
X51078Y105390D01*
X50975Y105377D01*
X50872Y105359D01*
X50770Y105337D01*
X50669Y105312D01*
X50569Y105283D01*
X50470Y105250D01*
X50373Y105213D01*
X50277Y105173D01*
X50182Y105129D01*
X50090Y105081D01*
X49999Y105031D01*
X49910Y104976D01*
X49823Y104919D01*
X49739Y104858D01*
X52124Y102655D02*
X52187Y102694D01*
X52247Y102736D01*
X52306Y102781D01*
X52362Y102829D01*
X52415Y102880D01*
X52466Y102933D01*
X52515Y102988D01*
X52560Y103046D01*
X52603Y103106D01*
X52643Y103168D01*
X52679Y103232D01*
X52713Y103298D01*
X52743Y103366D01*
X52770Y103434D01*
X52793Y103504D01*
X52813Y103575D01*
X52829Y103647D01*
X52842Y103720D01*
X52851Y103793D01*
X52856Y103866D01*
X52858Y103940D01*
X50106Y101557D02*
X50043Y101518D01*
X49983Y101476D01*
X49925Y101431D01*
X49868Y101383D01*
X49815Y101332D01*
X49764Y101279D01*
X49715Y101224D01*
X49670Y101166D01*
X49627Y101106D01*
X49587Y101044D01*
X49551Y100980D01*
X49517Y100914D01*
X49487Y100846D01*
X49460Y100778D01*
X49437Y100708D01*
X49417Y100637D01*
X49401Y100565D01*
X49388Y100492D01*
X49379Y100419D01*
X49374Y100346D01*
X49372Y100272D01*
X50106Y101556D02*
X52124Y102656D01*
X45545Y105408D02*
X45545Y98804D01*
X45545Y105408D02*
X43711Y105408D01*
X43626Y105406D01*
X43542Y105400D01*
X43458Y105390D01*
X43374Y105377D01*
X43291Y105359D01*
X43209Y105338D01*
X43128Y105313D01*
X43048Y105284D01*
X42970Y105252D01*
X42894Y105216D01*
X42819Y105176D01*
X42746Y105133D01*
X42675Y105087D01*
X42606Y105038D01*
X42539Y104985D01*
X42475Y104929D01*
X42414Y104871D01*
X42356Y104810D01*
X42300Y104746D01*
X42247Y104679D01*
X42198Y104610D01*
X42152Y104539D01*
X42109Y104466D01*
X42069Y104391D01*
X42033Y104315D01*
X42001Y104237D01*
X41972Y104157D01*
X41947Y104076D01*
X41926Y103994D01*
X41908Y103911D01*
X41895Y103827D01*
X41885Y103743D01*
X41879Y103659D01*
X41877Y103574D01*
X41879Y103489D01*
X41885Y103405D01*
X41895Y103321D01*
X41908Y103237D01*
X41926Y103154D01*
X41947Y103072D01*
X41972Y102991D01*
X42001Y102911D01*
X42033Y102833D01*
X42069Y102757D01*
X42109Y102682D01*
X42152Y102609D01*
X42198Y102538D01*
X42247Y102469D01*
X42300Y102402D01*
X42356Y102338D01*
X42414Y102277D01*
X42475Y102219D01*
X42539Y102163D01*
X42606Y102110D01*
X42675Y102061D01*
X42746Y102015D01*
X42819Y101972D01*
X42894Y101932D01*
X42970Y101896D01*
X43048Y101864D01*
X43128Y101835D01*
X43209Y101810D01*
X43291Y101789D01*
X43374Y101771D01*
X43458Y101758D01*
X43542Y101748D01*
X43626Y101742D01*
X43711Y101740D01*
X43711Y101739D02*
X45545Y101739D01*
X38283Y98804D02*
X38283Y105408D01*
X39017Y98804D02*
X37550Y98804D01*
X37550Y105408D02*
X39017Y105408D01*
X33901Y105408D02*
X33901Y98804D01*
X31700Y101739D02*
X33901Y105408D01*
X31700Y101739D02*
X29498Y105408D01*
X29498Y98804D01*
X25116Y98804D02*
X25116Y105408D01*
X25850Y98804D02*
X24382Y98804D01*
X24382Y105408D02*
X25850Y105408D01*
X19141Y98804D02*
X19067Y98806D01*
X18992Y98812D01*
X18919Y98821D01*
X18845Y98834D01*
X18773Y98851D01*
X18702Y98871D01*
X18631Y98895D01*
X18562Y98923D01*
X18495Y98954D01*
X18429Y98988D01*
X18364Y99026D01*
X18302Y99067D01*
X18242Y99111D01*
X18185Y99158D01*
X18130Y99208D01*
X18077Y99261D01*
X18027Y99316D01*
X17980Y99373D01*
X17936Y99433D01*
X17895Y99495D01*
X17857Y99560D01*
X17823Y99626D01*
X17792Y99693D01*
X17764Y99762D01*
X17740Y99833D01*
X17720Y99904D01*
X17703Y99976D01*
X17690Y100050D01*
X17681Y100123D01*
X17675Y100198D01*
X17673Y100272D01*
X19141Y98804D02*
X19252Y98806D01*
X19363Y98812D01*
X19474Y98822D01*
X19585Y98836D01*
X19694Y98854D01*
X19803Y98876D01*
X19912Y98901D01*
X20019Y98931D01*
X20125Y98964D01*
X20230Y99002D01*
X20333Y99042D01*
X20435Y99087D01*
X20535Y99135D01*
X20634Y99187D01*
X20730Y99242D01*
X20825Y99301D01*
X20917Y99363D01*
X21007Y99429D01*
X21095Y99497D01*
X21180Y99569D01*
X21262Y99644D01*
X21342Y99721D01*
X21159Y103940D02*
X21157Y104014D01*
X21151Y104089D01*
X21142Y104162D01*
X21129Y104236D01*
X21112Y104308D01*
X21092Y104379D01*
X21068Y104450D01*
X21040Y104519D01*
X21009Y104586D01*
X20975Y104652D01*
X20937Y104717D01*
X20896Y104779D01*
X20852Y104839D01*
X20805Y104896D01*
X20755Y104951D01*
X20702Y105004D01*
X20647Y105054D01*
X20590Y105101D01*
X20530Y105145D01*
X20468Y105186D01*
X20403Y105224D01*
X20337Y105258D01*
X20270Y105289D01*
X20201Y105317D01*
X20130Y105341D01*
X20059Y105361D01*
X19987Y105378D01*
X19913Y105391D01*
X19840Y105400D01*
X19765Y105406D01*
X19691Y105408D01*
X19587Y105406D01*
X19483Y105400D01*
X19379Y105390D01*
X19276Y105377D01*
X19173Y105359D01*
X19071Y105337D01*
X18970Y105312D01*
X18870Y105283D01*
X18771Y105250D01*
X18674Y105213D01*
X18578Y105173D01*
X18483Y105129D01*
X18391Y105081D01*
X18300Y105031D01*
X18211Y104976D01*
X18124Y104919D01*
X18040Y104858D01*
X20425Y102655D02*
X20488Y102694D01*
X20548Y102736D01*
X20607Y102781D01*
X20663Y102829D01*
X20716Y102880D01*
X20767Y102933D01*
X20816Y102988D01*
X20861Y103046D01*
X20904Y103106D01*
X20944Y103168D01*
X20980Y103232D01*
X21014Y103298D01*
X21044Y103366D01*
X21071Y103434D01*
X21094Y103504D01*
X21114Y103575D01*
X21130Y103647D01*
X21143Y103720D01*
X21152Y103793D01*
X21157Y103866D01*
X21159Y103940D01*
X18407Y101557D02*
X18344Y101518D01*
X18284Y101476D01*
X18226Y101431D01*
X18169Y101383D01*
X18116Y101332D01*
X18065Y101279D01*
X18016Y101224D01*
X17971Y101166D01*
X17928Y101106D01*
X17888Y101044D01*
X17852Y100980D01*
X17818Y100914D01*
X17788Y100846D01*
X17761Y100778D01*
X17738Y100708D01*
X17718Y100637D01*
X17702Y100565D01*
X17689Y100492D01*
X17680Y100419D01*
X17675Y100346D01*
X17673Y100272D01*
X18407Y101556D02*
X20425Y102656D01*
X14271Y103574D02*
X14271Y100638D01*
X14270Y103574D02*
X14268Y103659D01*
X14262Y103743D01*
X14252Y103827D01*
X14239Y103911D01*
X14221Y103994D01*
X14200Y104076D01*
X14175Y104157D01*
X14146Y104237D01*
X14114Y104315D01*
X14078Y104391D01*
X14038Y104466D01*
X13995Y104539D01*
X13949Y104610D01*
X13900Y104679D01*
X13847Y104746D01*
X13791Y104810D01*
X13733Y104871D01*
X13672Y104929D01*
X13608Y104985D01*
X13541Y105038D01*
X13472Y105087D01*
X13401Y105133D01*
X13328Y105176D01*
X13253Y105216D01*
X13177Y105252D01*
X13099Y105284D01*
X13019Y105313D01*
X12938Y105338D01*
X12856Y105359D01*
X12773Y105377D01*
X12689Y105390D01*
X12605Y105400D01*
X12521Y105406D01*
X12436Y105408D01*
X12351Y105406D01*
X12267Y105400D01*
X12183Y105390D01*
X12099Y105377D01*
X12016Y105359D01*
X11934Y105338D01*
X11853Y105313D01*
X11773Y105284D01*
X11695Y105252D01*
X11619Y105216D01*
X11544Y105176D01*
X11471Y105133D01*
X11400Y105087D01*
X11331Y105038D01*
X11264Y104985D01*
X11200Y104929D01*
X11139Y104871D01*
X11081Y104810D01*
X11025Y104746D01*
X10972Y104679D01*
X10923Y104610D01*
X10877Y104539D01*
X10834Y104466D01*
X10794Y104391D01*
X10758Y104315D01*
X10726Y104237D01*
X10697Y104157D01*
X10672Y104076D01*
X10651Y103994D01*
X10633Y103911D01*
X10620Y103827D01*
X10610Y103743D01*
X10604Y103659D01*
X10602Y103574D01*
X10602Y100638D01*
X10604Y100553D01*
X10610Y100469D01*
X10620Y100385D01*
X10633Y100301D01*
X10651Y100218D01*
X10672Y100136D01*
X10697Y100055D01*
X10726Y99975D01*
X10758Y99897D01*
X10794Y99821D01*
X10834Y99746D01*
X10877Y99673D01*
X10923Y99602D01*
X10972Y99533D01*
X11025Y99466D01*
X11081Y99402D01*
X11139Y99341D01*
X11200Y99283D01*
X11264Y99227D01*
X11331Y99174D01*
X11400Y99125D01*
X11471Y99079D01*
X11544Y99036D01*
X11619Y98996D01*
X11695Y98960D01*
X11773Y98928D01*
X11853Y98899D01*
X11934Y98874D01*
X12016Y98853D01*
X12099Y98835D01*
X12183Y98822D01*
X12267Y98812D01*
X12351Y98806D01*
X12436Y98804D01*
X12521Y98806D01*
X12605Y98812D01*
X12689Y98822D01*
X12773Y98835D01*
X12856Y98853D01*
X12938Y98874D01*
X13019Y98899D01*
X13099Y98928D01*
X13177Y98960D01*
X13253Y98996D01*
X13328Y99036D01*
X13401Y99079D01*
X13472Y99125D01*
X13541Y99174D01*
X13608Y99227D01*
X13672Y99283D01*
X13733Y99341D01*
X13791Y99402D01*
X13847Y99466D01*
X13900Y99533D01*
X13949Y99602D01*
X13995Y99673D01*
X14038Y99746D01*
X14078Y99821D01*
X14114Y99897D01*
X14146Y99975D01*
X14175Y100055D01*
X14200Y100136D01*
X14221Y100218D01*
X14239Y100301D01*
X14252Y100385D01*
X14262Y100469D01*
X14268Y100553D01*
X14270Y100638D01*
X49734Y87572D02*
X49736Y87498D01*
X49742Y87423D01*
X49751Y87350D01*
X49764Y87276D01*
X49781Y87204D01*
X49801Y87133D01*
X49825Y87062D01*
X49853Y86993D01*
X49884Y86926D01*
X49918Y86860D01*
X49956Y86795D01*
X49997Y86733D01*
X50041Y86673D01*
X50088Y86616D01*
X50138Y86561D01*
X50191Y86508D01*
X50246Y86458D01*
X50303Y86411D01*
X50363Y86367D01*
X50425Y86326D01*
X50490Y86288D01*
X50556Y86254D01*
X50623Y86223D01*
X50692Y86195D01*
X50763Y86171D01*
X50834Y86151D01*
X50906Y86134D01*
X50980Y86121D01*
X51053Y86112D01*
X51128Y86106D01*
X51202Y86104D01*
X51313Y86106D01*
X51424Y86112D01*
X51535Y86122D01*
X51646Y86136D01*
X51755Y86154D01*
X51864Y86176D01*
X51973Y86201D01*
X52080Y86231D01*
X52186Y86264D01*
X52291Y86302D01*
X52394Y86342D01*
X52496Y86387D01*
X52596Y86435D01*
X52695Y86487D01*
X52791Y86542D01*
X52886Y86601D01*
X52978Y86663D01*
X53068Y86729D01*
X53156Y86797D01*
X53241Y86869D01*
X53323Y86944D01*
X53403Y87021D01*
X53221Y91240D02*
X53219Y91314D01*
X53213Y91389D01*
X53204Y91462D01*
X53191Y91536D01*
X53174Y91608D01*
X53154Y91679D01*
X53130Y91750D01*
X53102Y91819D01*
X53071Y91886D01*
X53037Y91952D01*
X52999Y92017D01*
X52958Y92079D01*
X52914Y92139D01*
X52867Y92196D01*
X52817Y92251D01*
X52764Y92304D01*
X52709Y92354D01*
X52652Y92401D01*
X52592Y92445D01*
X52530Y92486D01*
X52465Y92524D01*
X52399Y92558D01*
X52332Y92589D01*
X52263Y92617D01*
X52192Y92641D01*
X52121Y92661D01*
X52049Y92678D01*
X51975Y92691D01*
X51902Y92700D01*
X51827Y92706D01*
X51753Y92708D01*
X51649Y92706D01*
X51545Y92700D01*
X51441Y92690D01*
X51338Y92677D01*
X51235Y92659D01*
X51133Y92637D01*
X51032Y92612D01*
X50932Y92583D01*
X50833Y92550D01*
X50736Y92513D01*
X50640Y92473D01*
X50545Y92429D01*
X50453Y92381D01*
X50362Y92331D01*
X50273Y92276D01*
X50186Y92219D01*
X50102Y92158D01*
X52487Y89955D02*
X52550Y89994D01*
X52610Y90036D01*
X52669Y90081D01*
X52725Y90129D01*
X52778Y90180D01*
X52829Y90233D01*
X52878Y90288D01*
X52923Y90346D01*
X52966Y90406D01*
X53006Y90468D01*
X53042Y90532D01*
X53076Y90598D01*
X53106Y90666D01*
X53133Y90734D01*
X53156Y90804D01*
X53176Y90875D01*
X53192Y90947D01*
X53205Y91020D01*
X53214Y91093D01*
X53219Y91166D01*
X53221Y91240D01*
X50468Y88857D02*
X50405Y88818D01*
X50345Y88776D01*
X50287Y88731D01*
X50230Y88683D01*
X50177Y88632D01*
X50126Y88579D01*
X50077Y88524D01*
X50032Y88466D01*
X49989Y88406D01*
X49949Y88344D01*
X49913Y88280D01*
X49879Y88214D01*
X49849Y88146D01*
X49822Y88078D01*
X49799Y88008D01*
X49779Y87937D01*
X49763Y87865D01*
X49750Y87792D01*
X49741Y87719D01*
X49736Y87646D01*
X49734Y87572D01*
X50469Y88856D02*
X52486Y89956D01*
X45907Y92708D02*
X45907Y86104D01*
X45907Y92708D02*
X44073Y92708D01*
X43988Y92706D01*
X43904Y92700D01*
X43820Y92690D01*
X43736Y92677D01*
X43653Y92659D01*
X43571Y92638D01*
X43490Y92613D01*
X43410Y92584D01*
X43332Y92552D01*
X43256Y92516D01*
X43181Y92476D01*
X43108Y92433D01*
X43037Y92387D01*
X42968Y92338D01*
X42901Y92285D01*
X42837Y92229D01*
X42776Y92171D01*
X42718Y92110D01*
X42662Y92046D01*
X42609Y91979D01*
X42560Y91910D01*
X42514Y91839D01*
X42471Y91766D01*
X42431Y91691D01*
X42395Y91615D01*
X42363Y91537D01*
X42334Y91457D01*
X42309Y91376D01*
X42288Y91294D01*
X42270Y91211D01*
X42257Y91127D01*
X42247Y91043D01*
X42241Y90959D01*
X42239Y90874D01*
X42241Y90789D01*
X42247Y90705D01*
X42257Y90621D01*
X42270Y90537D01*
X42288Y90454D01*
X42309Y90372D01*
X42334Y90291D01*
X42363Y90211D01*
X42395Y90133D01*
X42431Y90057D01*
X42471Y89982D01*
X42514Y89909D01*
X42560Y89838D01*
X42609Y89769D01*
X42662Y89702D01*
X42718Y89638D01*
X42776Y89577D01*
X42837Y89519D01*
X42901Y89463D01*
X42968Y89410D01*
X43037Y89361D01*
X43108Y89315D01*
X43181Y89272D01*
X43256Y89232D01*
X43332Y89196D01*
X43410Y89164D01*
X43490Y89135D01*
X43571Y89110D01*
X43653Y89089D01*
X43736Y89071D01*
X43820Y89058D01*
X43904Y89048D01*
X43988Y89042D01*
X44073Y89040D01*
X44073Y89039D02*
X45907Y89039D01*
X38646Y86104D02*
X38646Y92708D01*
X39380Y86104D02*
X37912Y86104D01*
X37912Y92708D02*
X39380Y92708D01*
X34263Y92708D02*
X34263Y86104D01*
X32062Y89039D02*
X34263Y92708D01*
X32062Y89039D02*
X29861Y92708D01*
X29861Y86104D01*
X25850Y87938D02*
X25850Y90874D01*
X25849Y90874D02*
X25847Y90959D01*
X25841Y91043D01*
X25831Y91127D01*
X25818Y91211D01*
X25800Y91294D01*
X25779Y91376D01*
X25754Y91457D01*
X25725Y91537D01*
X25693Y91615D01*
X25657Y91691D01*
X25617Y91766D01*
X25574Y91839D01*
X25528Y91910D01*
X25479Y91979D01*
X25426Y92046D01*
X25370Y92110D01*
X25312Y92171D01*
X25251Y92229D01*
X25187Y92285D01*
X25120Y92338D01*
X25051Y92387D01*
X24980Y92433D01*
X24907Y92476D01*
X24832Y92516D01*
X24756Y92552D01*
X24678Y92584D01*
X24598Y92613D01*
X24517Y92638D01*
X24435Y92659D01*
X24352Y92677D01*
X24268Y92690D01*
X24184Y92700D01*
X24100Y92706D01*
X24015Y92708D01*
X23930Y92706D01*
X23846Y92700D01*
X23762Y92690D01*
X23678Y92677D01*
X23595Y92659D01*
X23513Y92638D01*
X23432Y92613D01*
X23352Y92584D01*
X23274Y92552D01*
X23198Y92516D01*
X23123Y92476D01*
X23050Y92433D01*
X22979Y92387D01*
X22910Y92338D01*
X22843Y92285D01*
X22779Y92229D01*
X22718Y92171D01*
X22660Y92110D01*
X22604Y92046D01*
X22551Y91979D01*
X22502Y91910D01*
X22456Y91839D01*
X22413Y91766D01*
X22373Y91691D01*
X22337Y91615D01*
X22305Y91537D01*
X22276Y91457D01*
X22251Y91376D01*
X22230Y91294D01*
X22212Y91211D01*
X22199Y91127D01*
X22189Y91043D01*
X22183Y90959D01*
X22181Y90874D01*
X22181Y87938D01*
X22183Y87853D01*
X22189Y87769D01*
X22199Y87685D01*
X22212Y87601D01*
X22230Y87518D01*
X22251Y87436D01*
X22276Y87355D01*
X22305Y87275D01*
X22337Y87197D01*
X22373Y87121D01*
X22413Y87046D01*
X22456Y86973D01*
X22502Y86902D01*
X22551Y86833D01*
X22604Y86766D01*
X22660Y86702D01*
X22718Y86641D01*
X22779Y86583D01*
X22843Y86527D01*
X22910Y86474D01*
X22979Y86425D01*
X23050Y86379D01*
X23123Y86336D01*
X23198Y86296D01*
X23274Y86260D01*
X23352Y86228D01*
X23432Y86199D01*
X23513Y86174D01*
X23595Y86153D01*
X23678Y86135D01*
X23762Y86122D01*
X23846Y86112D01*
X23930Y86106D01*
X24015Y86104D01*
X24100Y86106D01*
X24184Y86112D01*
X24268Y86122D01*
X24352Y86135D01*
X24435Y86153D01*
X24517Y86174D01*
X24598Y86199D01*
X24678Y86228D01*
X24756Y86260D01*
X24832Y86296D01*
X24907Y86336D01*
X24980Y86379D01*
X25051Y86425D01*
X25120Y86474D01*
X25187Y86527D01*
X25251Y86583D01*
X25312Y86641D01*
X25370Y86702D01*
X25426Y86766D01*
X25479Y86833D01*
X25528Y86902D01*
X25574Y86973D01*
X25617Y87046D01*
X25657Y87121D01*
X25693Y87197D01*
X25725Y87275D01*
X25754Y87355D01*
X25779Y87436D01*
X25800Y87518D01*
X25818Y87601D01*
X25831Y87685D01*
X25841Y87769D01*
X25847Y87853D01*
X25849Y87938D01*
X16577Y86104D02*
X16503Y86106D01*
X16429Y86112D01*
X16355Y86121D01*
X16282Y86134D01*
X16209Y86151D01*
X16138Y86171D01*
X16067Y86195D01*
X15998Y86223D01*
X15931Y86254D01*
X15865Y86288D01*
X15800Y86326D01*
X15738Y86367D01*
X15678Y86411D01*
X15621Y86458D01*
X15566Y86508D01*
X15513Y86561D01*
X15463Y86616D01*
X15416Y86673D01*
X15372Y86733D01*
X15331Y86795D01*
X15293Y86860D01*
X15259Y86925D01*
X15228Y86993D01*
X15200Y87062D01*
X15176Y87133D01*
X15156Y87204D01*
X15139Y87276D01*
X15126Y87350D01*
X15117Y87423D01*
X15111Y87498D01*
X15109Y87572D01*
X16577Y86104D02*
X16688Y86106D01*
X16799Y86112D01*
X16910Y86122D01*
X17021Y86136D01*
X17130Y86154D01*
X17239Y86176D01*
X17348Y86201D01*
X17455Y86231D01*
X17561Y86264D01*
X17666Y86302D01*
X17769Y86342D01*
X17871Y86387D01*
X17971Y86435D01*
X18070Y86487D01*
X18166Y86542D01*
X18261Y86601D01*
X18353Y86663D01*
X18443Y86729D01*
X18531Y86797D01*
X18616Y86869D01*
X18698Y86944D01*
X18778Y87021D01*
X18596Y91240D02*
X18594Y91314D01*
X18588Y91389D01*
X18579Y91462D01*
X18566Y91536D01*
X18549Y91608D01*
X18529Y91679D01*
X18505Y91750D01*
X18477Y91819D01*
X18446Y91886D01*
X18412Y91952D01*
X18374Y92017D01*
X18333Y92079D01*
X18289Y92139D01*
X18242Y92196D01*
X18192Y92251D01*
X18139Y92304D01*
X18084Y92354D01*
X18027Y92401D01*
X17967Y92445D01*
X17905Y92486D01*
X17840Y92524D01*
X17774Y92558D01*
X17707Y92589D01*
X17638Y92617D01*
X17567Y92641D01*
X17496Y92661D01*
X17424Y92678D01*
X17350Y92691D01*
X17277Y92700D01*
X17202Y92706D01*
X17128Y92708D01*
X17024Y92706D01*
X16920Y92700D01*
X16816Y92690D01*
X16713Y92677D01*
X16610Y92659D01*
X16508Y92637D01*
X16407Y92612D01*
X16307Y92583D01*
X16208Y92550D01*
X16111Y92513D01*
X16015Y92473D01*
X15920Y92429D01*
X15828Y92381D01*
X15737Y92331D01*
X15648Y92276D01*
X15561Y92219D01*
X15477Y92158D01*
X17862Y89955D02*
X17925Y89994D01*
X17985Y90036D01*
X18044Y90081D01*
X18100Y90129D01*
X18153Y90180D01*
X18204Y90233D01*
X18253Y90288D01*
X18298Y90346D01*
X18341Y90406D01*
X18381Y90468D01*
X18417Y90532D01*
X18451Y90598D01*
X18481Y90666D01*
X18508Y90734D01*
X18531Y90804D01*
X18551Y90875D01*
X18567Y90947D01*
X18580Y91020D01*
X18589Y91093D01*
X18594Y91166D01*
X18596Y91240D01*
X15843Y88857D02*
X15780Y88818D01*
X15720Y88776D01*
X15662Y88731D01*
X15605Y88683D01*
X15552Y88632D01*
X15501Y88579D01*
X15452Y88524D01*
X15407Y88466D01*
X15364Y88406D01*
X15324Y88344D01*
X15288Y88280D01*
X15254Y88214D01*
X15224Y88146D01*
X15197Y88078D01*
X15174Y88008D01*
X15154Y87937D01*
X15138Y87865D01*
X15125Y87792D01*
X15116Y87719D01*
X15111Y87646D01*
X15109Y87572D01*
X15843Y88856D02*
X17861Y89956D01*
X11336Y92708D02*
X11336Y86104D01*
X12070Y86104D02*
X10602Y86104D01*
X10602Y92708D02*
X12070Y92708D01*
X48884Y74872D02*
X48886Y74798D01*
X48892Y74723D01*
X48901Y74650D01*
X48914Y74576D01*
X48931Y74504D01*
X48951Y74433D01*
X48975Y74362D01*
X49003Y74293D01*
X49034Y74226D01*
X49068Y74160D01*
X49106Y74095D01*
X49147Y74033D01*
X49191Y73973D01*
X49238Y73916D01*
X49288Y73861D01*
X49341Y73808D01*
X49396Y73758D01*
X49453Y73711D01*
X49513Y73667D01*
X49575Y73626D01*
X49640Y73588D01*
X49706Y73554D01*
X49773Y73523D01*
X49842Y73495D01*
X49913Y73471D01*
X49984Y73451D01*
X50056Y73434D01*
X50130Y73421D01*
X50203Y73412D01*
X50278Y73406D01*
X50352Y73404D01*
X50463Y73406D01*
X50574Y73412D01*
X50685Y73422D01*
X50796Y73436D01*
X50905Y73454D01*
X51014Y73476D01*
X51123Y73501D01*
X51230Y73531D01*
X51336Y73564D01*
X51441Y73602D01*
X51544Y73642D01*
X51646Y73687D01*
X51746Y73735D01*
X51845Y73787D01*
X51941Y73842D01*
X52036Y73901D01*
X52128Y73963D01*
X52218Y74029D01*
X52306Y74097D01*
X52391Y74169D01*
X52473Y74244D01*
X52553Y74321D01*
X52371Y78540D02*
X52369Y78614D01*
X52363Y78689D01*
X52354Y78762D01*
X52341Y78836D01*
X52324Y78908D01*
X52304Y78979D01*
X52280Y79050D01*
X52252Y79119D01*
X52221Y79186D01*
X52187Y79252D01*
X52149Y79317D01*
X52108Y79379D01*
X52064Y79439D01*
X52017Y79496D01*
X51967Y79551D01*
X51914Y79604D01*
X51859Y79654D01*
X51802Y79701D01*
X51742Y79745D01*
X51680Y79786D01*
X51615Y79824D01*
X51549Y79858D01*
X51482Y79889D01*
X51413Y79917D01*
X51342Y79941D01*
X51271Y79961D01*
X51199Y79978D01*
X51125Y79991D01*
X51052Y80000D01*
X50977Y80006D01*
X50903Y80008D01*
X50799Y80006D01*
X50695Y80000D01*
X50591Y79990D01*
X50488Y79977D01*
X50385Y79959D01*
X50283Y79937D01*
X50182Y79912D01*
X50082Y79883D01*
X49983Y79850D01*
X49886Y79813D01*
X49790Y79773D01*
X49695Y79729D01*
X49603Y79681D01*
X49512Y79631D01*
X49423Y79576D01*
X49336Y79519D01*
X49252Y79458D01*
X51637Y77255D02*
X51700Y77294D01*
X51760Y77336D01*
X51819Y77381D01*
X51875Y77429D01*
X51928Y77480D01*
X51979Y77533D01*
X52028Y77588D01*
X52073Y77646D01*
X52116Y77706D01*
X52156Y77768D01*
X52192Y77832D01*
X52226Y77898D01*
X52256Y77966D01*
X52283Y78034D01*
X52306Y78104D01*
X52326Y78175D01*
X52342Y78247D01*
X52355Y78320D01*
X52364Y78393D01*
X52369Y78466D01*
X52371Y78540D01*
X49618Y76157D02*
X49555Y76118D01*
X49495Y76076D01*
X49437Y76031D01*
X49380Y75983D01*
X49327Y75932D01*
X49276Y75879D01*
X49227Y75824D01*
X49182Y75766D01*
X49139Y75706D01*
X49099Y75644D01*
X49063Y75580D01*
X49029Y75514D01*
X48999Y75446D01*
X48972Y75378D01*
X48949Y75308D01*
X48929Y75237D01*
X48913Y75165D01*
X48900Y75092D01*
X48891Y75019D01*
X48886Y74946D01*
X48884Y74872D01*
X49619Y76156D02*
X51636Y77256D01*
X45057Y80008D02*
X45057Y73404D01*
X45057Y80008D02*
X43223Y80008D01*
X43138Y80006D01*
X43054Y80000D01*
X42970Y79990D01*
X42886Y79977D01*
X42803Y79959D01*
X42721Y79938D01*
X42640Y79913D01*
X42560Y79884D01*
X42482Y79852D01*
X42406Y79816D01*
X42331Y79776D01*
X42258Y79733D01*
X42187Y79687D01*
X42118Y79638D01*
X42051Y79585D01*
X41987Y79529D01*
X41926Y79471D01*
X41868Y79410D01*
X41812Y79346D01*
X41759Y79279D01*
X41710Y79210D01*
X41664Y79139D01*
X41621Y79066D01*
X41581Y78991D01*
X41545Y78915D01*
X41513Y78837D01*
X41484Y78757D01*
X41459Y78676D01*
X41438Y78594D01*
X41420Y78511D01*
X41407Y78427D01*
X41397Y78343D01*
X41391Y78259D01*
X41389Y78174D01*
X41391Y78089D01*
X41397Y78005D01*
X41407Y77921D01*
X41420Y77837D01*
X41438Y77754D01*
X41459Y77672D01*
X41484Y77591D01*
X41513Y77511D01*
X41545Y77433D01*
X41581Y77357D01*
X41621Y77282D01*
X41664Y77209D01*
X41710Y77138D01*
X41759Y77069D01*
X41812Y77002D01*
X41868Y76938D01*
X41926Y76877D01*
X41987Y76819D01*
X42051Y76763D01*
X42118Y76710D01*
X42187Y76661D01*
X42258Y76615D01*
X42331Y76572D01*
X42406Y76532D01*
X42482Y76496D01*
X42560Y76464D01*
X42640Y76435D01*
X42721Y76410D01*
X42803Y76389D01*
X42886Y76371D01*
X42970Y76358D01*
X43054Y76348D01*
X43138Y76342D01*
X43223Y76340D01*
X43223Y76339D02*
X45057Y76339D01*
X37796Y73404D02*
X37796Y80008D01*
X38529Y73404D02*
X37062Y73404D01*
X37062Y80008D02*
X38529Y80008D01*
X31821Y73404D02*
X31747Y73406D01*
X31672Y73412D01*
X31599Y73421D01*
X31525Y73434D01*
X31453Y73451D01*
X31382Y73471D01*
X31311Y73495D01*
X31242Y73523D01*
X31175Y73554D01*
X31109Y73588D01*
X31044Y73626D01*
X30982Y73667D01*
X30922Y73711D01*
X30865Y73758D01*
X30810Y73808D01*
X30757Y73861D01*
X30707Y73916D01*
X30660Y73973D01*
X30616Y74033D01*
X30575Y74095D01*
X30537Y74160D01*
X30503Y74226D01*
X30472Y74293D01*
X30444Y74362D01*
X30420Y74433D01*
X30400Y74504D01*
X30383Y74576D01*
X30370Y74650D01*
X30361Y74723D01*
X30355Y74798D01*
X30353Y74872D01*
X31821Y73404D02*
X31932Y73406D01*
X32043Y73412D01*
X32154Y73422D01*
X32265Y73436D01*
X32374Y73454D01*
X32483Y73476D01*
X32592Y73501D01*
X32699Y73531D01*
X32805Y73564D01*
X32910Y73602D01*
X33013Y73642D01*
X33115Y73687D01*
X33215Y73735D01*
X33314Y73787D01*
X33410Y73842D01*
X33505Y73901D01*
X33597Y73963D01*
X33687Y74029D01*
X33775Y74097D01*
X33860Y74169D01*
X33942Y74244D01*
X34022Y74321D01*
X33839Y78540D02*
X33837Y78614D01*
X33831Y78689D01*
X33822Y78762D01*
X33809Y78836D01*
X33792Y78908D01*
X33772Y78979D01*
X33748Y79050D01*
X33720Y79119D01*
X33689Y79186D01*
X33655Y79252D01*
X33617Y79317D01*
X33576Y79379D01*
X33532Y79439D01*
X33485Y79496D01*
X33435Y79551D01*
X33382Y79604D01*
X33327Y79654D01*
X33270Y79701D01*
X33210Y79745D01*
X33148Y79786D01*
X33083Y79824D01*
X33017Y79858D01*
X32950Y79889D01*
X32881Y79917D01*
X32810Y79941D01*
X32739Y79961D01*
X32667Y79978D01*
X32593Y79991D01*
X32520Y80000D01*
X32445Y80006D01*
X32371Y80008D01*
X32267Y80006D01*
X32163Y80000D01*
X32059Y79990D01*
X31956Y79977D01*
X31853Y79959D01*
X31751Y79937D01*
X31650Y79912D01*
X31550Y79883D01*
X31451Y79850D01*
X31354Y79813D01*
X31258Y79773D01*
X31163Y79729D01*
X31071Y79681D01*
X30980Y79631D01*
X30891Y79576D01*
X30804Y79519D01*
X30720Y79458D01*
X33105Y77255D02*
X33168Y77294D01*
X33228Y77336D01*
X33287Y77381D01*
X33343Y77429D01*
X33396Y77480D01*
X33447Y77533D01*
X33496Y77588D01*
X33541Y77646D01*
X33584Y77706D01*
X33624Y77768D01*
X33660Y77832D01*
X33694Y77898D01*
X33724Y77966D01*
X33751Y78034D01*
X33774Y78104D01*
X33794Y78175D01*
X33810Y78247D01*
X33823Y78320D01*
X33832Y78393D01*
X33837Y78466D01*
X33839Y78540D01*
X31086Y76157D02*
X31023Y76118D01*
X30963Y76076D01*
X30905Y76031D01*
X30848Y75983D01*
X30795Y75932D01*
X30744Y75879D01*
X30695Y75824D01*
X30650Y75766D01*
X30607Y75706D01*
X30567Y75644D01*
X30531Y75580D01*
X30497Y75514D01*
X30467Y75446D01*
X30440Y75378D01*
X30417Y75308D01*
X30397Y75237D01*
X30381Y75165D01*
X30368Y75092D01*
X30359Y75019D01*
X30354Y74946D01*
X30352Y74872D01*
X31087Y76156D02*
X33105Y77256D01*
X26683Y73404D02*
X23747Y73404D01*
X26683Y73404D02*
X26683Y80008D01*
X23747Y80008D01*
X24481Y77073D02*
X26683Y77073D01*
X20343Y80008D02*
X20343Y73404D01*
X17408Y73404D01*
X14271Y76706D02*
X14269Y76851D01*
X14263Y76996D01*
X14254Y77141D01*
X14240Y77286D01*
X14223Y77430D01*
X14201Y77573D01*
X14176Y77717D01*
X14147Y77859D01*
X14115Y78000D01*
X14078Y78141D01*
X14038Y78280D01*
X13994Y78419D01*
X13947Y78556D01*
X13896Y78692D01*
X13841Y78826D01*
X13783Y78959D01*
X13721Y79091D01*
X13695Y79160D01*
X13666Y79227D01*
X13633Y79293D01*
X13597Y79356D01*
X13557Y79418D01*
X13514Y79477D01*
X13468Y79534D01*
X13419Y79588D01*
X13367Y79640D01*
X13312Y79689D01*
X13255Y79734D01*
X13195Y79777D01*
X13133Y79816D01*
X13070Y79852D01*
X13004Y79885D01*
X12937Y79913D01*
X12868Y79939D01*
X12798Y79960D01*
X12727Y79978D01*
X12655Y79991D01*
X12582Y80001D01*
X12509Y80007D01*
X12436Y80009D01*
X12436Y80008D02*
X12363Y80006D01*
X12290Y80000D01*
X12217Y79990D01*
X12146Y79977D01*
X12074Y79959D01*
X12004Y79938D01*
X11936Y79912D01*
X11868Y79884D01*
X11803Y79851D01*
X11739Y79815D01*
X11677Y79776D01*
X11618Y79734D01*
X11561Y79688D01*
X11506Y79639D01*
X11454Y79588D01*
X11405Y79533D01*
X11359Y79476D01*
X11316Y79417D01*
X11276Y79356D01*
X11240Y79292D01*
X11207Y79227D01*
X11178Y79160D01*
X11152Y79091D01*
X11090Y78959D01*
X11032Y78826D01*
X10977Y78692D01*
X10926Y78556D01*
X10879Y78419D01*
X10835Y78280D01*
X10795Y78141D01*
X10758Y78000D01*
X10726Y77859D01*
X10697Y77717D01*
X10672Y77574D01*
X10650Y77430D01*
X10633Y77286D01*
X10619Y77141D01*
X10610Y76996D01*
X10604Y76851D01*
X10602Y76706D01*
X14270Y76706D02*
X14268Y76561D01*
X14262Y76416D01*
X14253Y76271D01*
X14239Y76126D01*
X14222Y75982D01*
X14200Y75839D01*
X14175Y75696D01*
X14147Y75553D01*
X14114Y75412D01*
X14077Y75271D01*
X14037Y75132D01*
X13993Y74993D01*
X13946Y74856D01*
X13895Y74720D01*
X13840Y74586D01*
X13782Y74453D01*
X13720Y74321D01*
X13721Y74322D02*
X13695Y74253D01*
X13666Y74186D01*
X13633Y74120D01*
X13597Y74057D01*
X13557Y73995D01*
X13514Y73936D01*
X13468Y73879D01*
X13419Y73825D01*
X13367Y73773D01*
X13312Y73724D01*
X13255Y73679D01*
X13195Y73636D01*
X13133Y73597D01*
X13070Y73561D01*
X13004Y73528D01*
X12937Y73500D01*
X12868Y73474D01*
X12798Y73453D01*
X12727Y73435D01*
X12655Y73422D01*
X12582Y73412D01*
X12509Y73406D01*
X12436Y73404D01*
X11152Y74321D02*
X11090Y74453D01*
X11032Y74586D01*
X10977Y74720D01*
X10926Y74856D01*
X10879Y74993D01*
X10835Y75132D01*
X10795Y75271D01*
X10758Y75412D01*
X10726Y75553D01*
X10697Y75695D01*
X10672Y75838D01*
X10650Y75982D01*
X10633Y76126D01*
X10619Y76271D01*
X10610Y76416D01*
X10604Y76561D01*
X10602Y76706D01*
X11152Y74321D02*
X11178Y74252D01*
X11207Y74185D01*
X11240Y74120D01*
X11276Y74056D01*
X11316Y73995D01*
X11359Y73936D01*
X11405Y73879D01*
X11454Y73824D01*
X11506Y73773D01*
X11561Y73724D01*
X11618Y73678D01*
X11677Y73636D01*
X11739Y73597D01*
X11803Y73561D01*
X11868Y73528D01*
X11936Y73500D01*
X12004Y73474D01*
X12074Y73453D01*
X12146Y73435D01*
X12217Y73422D01*
X12290Y73412D01*
X12363Y73406D01*
X12436Y73404D01*
X13904Y74872D02*
X10969Y78540D01*
X33534Y67308D02*
X33534Y60704D01*
X33534Y67308D02*
X31700Y67308D01*
X31615Y67306D01*
X31531Y67300D01*
X31447Y67290D01*
X31363Y67277D01*
X31280Y67259D01*
X31198Y67238D01*
X31117Y67213D01*
X31037Y67184D01*
X30959Y67152D01*
X30883Y67116D01*
X30808Y67076D01*
X30735Y67033D01*
X30664Y66987D01*
X30595Y66938D01*
X30528Y66885D01*
X30464Y66829D01*
X30403Y66771D01*
X30345Y66710D01*
X30289Y66646D01*
X30236Y66579D01*
X30187Y66510D01*
X30141Y66439D01*
X30098Y66366D01*
X30058Y66291D01*
X30022Y66215D01*
X29990Y66137D01*
X29961Y66057D01*
X29936Y65976D01*
X29915Y65894D01*
X29897Y65811D01*
X29884Y65727D01*
X29874Y65643D01*
X29868Y65559D01*
X29866Y65474D01*
X29865Y65474D02*
X29865Y62538D01*
X29866Y62538D02*
X29868Y62453D01*
X29874Y62369D01*
X29884Y62285D01*
X29897Y62201D01*
X29915Y62118D01*
X29936Y62036D01*
X29961Y61955D01*
X29990Y61875D01*
X30022Y61797D01*
X30058Y61721D01*
X30098Y61646D01*
X30141Y61573D01*
X30187Y61502D01*
X30236Y61433D01*
X30289Y61366D01*
X30345Y61302D01*
X30403Y61241D01*
X30464Y61183D01*
X30528Y61127D01*
X30595Y61074D01*
X30664Y61025D01*
X30735Y60979D01*
X30808Y60936D01*
X30883Y60896D01*
X30959Y60860D01*
X31037Y60828D01*
X31117Y60799D01*
X31198Y60774D01*
X31280Y60753D01*
X31363Y60735D01*
X31447Y60722D01*
X31531Y60712D01*
X31615Y60706D01*
X31700Y60704D01*
X33534Y60704D01*
X25604Y60704D02*
X25604Y67308D01*
X26338Y60704D02*
X24870Y60704D01*
X24870Y67308D02*
X26338Y67308D01*
X21586Y65474D02*
X21586Y62538D01*
X21586Y65474D02*
X21584Y65559D01*
X21578Y65643D01*
X21568Y65727D01*
X21555Y65811D01*
X21537Y65894D01*
X21516Y65976D01*
X21491Y66057D01*
X21462Y66137D01*
X21430Y66215D01*
X21394Y66291D01*
X21354Y66366D01*
X21311Y66439D01*
X21265Y66510D01*
X21216Y66579D01*
X21163Y66646D01*
X21107Y66710D01*
X21049Y66771D01*
X20988Y66829D01*
X20924Y66885D01*
X20857Y66938D01*
X20788Y66987D01*
X20717Y67033D01*
X20644Y67076D01*
X20569Y67116D01*
X20493Y67152D01*
X20415Y67184D01*
X20335Y67213D01*
X20254Y67238D01*
X20172Y67259D01*
X20089Y67277D01*
X20005Y67290D01*
X19921Y67300D01*
X19837Y67306D01*
X19752Y67308D01*
X19667Y67306D01*
X19583Y67300D01*
X19499Y67290D01*
X19415Y67277D01*
X19332Y67259D01*
X19250Y67238D01*
X19169Y67213D01*
X19089Y67184D01*
X19011Y67152D01*
X18935Y67116D01*
X18860Y67076D01*
X18787Y67033D01*
X18716Y66987D01*
X18647Y66938D01*
X18580Y66885D01*
X18516Y66829D01*
X18455Y66771D01*
X18397Y66710D01*
X18341Y66646D01*
X18288Y66579D01*
X18239Y66510D01*
X18193Y66439D01*
X18150Y66366D01*
X18110Y66291D01*
X18074Y66215D01*
X18042Y66137D01*
X18013Y66057D01*
X17988Y65976D01*
X17967Y65894D01*
X17949Y65811D01*
X17936Y65727D01*
X17926Y65643D01*
X17920Y65559D01*
X17918Y65474D01*
X17917Y65474D02*
X17917Y62538D01*
X17918Y62538D02*
X17920Y62453D01*
X17926Y62369D01*
X17936Y62285D01*
X17949Y62201D01*
X17967Y62118D01*
X17988Y62036D01*
X18013Y61955D01*
X18042Y61875D01*
X18074Y61797D01*
X18110Y61721D01*
X18150Y61646D01*
X18193Y61573D01*
X18239Y61502D01*
X18288Y61433D01*
X18341Y61366D01*
X18397Y61302D01*
X18455Y61241D01*
X18516Y61183D01*
X18580Y61127D01*
X18647Y61074D01*
X18716Y61025D01*
X18787Y60979D01*
X18860Y60936D01*
X18935Y60896D01*
X19011Y60860D01*
X19089Y60828D01*
X19169Y60799D01*
X19250Y60774D01*
X19332Y60753D01*
X19415Y60735D01*
X19499Y60722D01*
X19583Y60712D01*
X19667Y60706D01*
X19752Y60704D01*
X19837Y60706D01*
X19921Y60712D01*
X20005Y60722D01*
X20089Y60735D01*
X20172Y60753D01*
X20254Y60774D01*
X20335Y60799D01*
X20415Y60828D01*
X20493Y60860D01*
X20569Y60896D01*
X20644Y60936D01*
X20717Y60979D01*
X20788Y61025D01*
X20857Y61074D01*
X20924Y61127D01*
X20988Y61183D01*
X21049Y61241D01*
X21107Y61302D01*
X21163Y61366D01*
X21216Y61433D01*
X21265Y61502D01*
X21311Y61573D01*
X21354Y61646D01*
X21394Y61721D01*
X21430Y61797D01*
X21462Y61875D01*
X21491Y61955D01*
X21516Y62036D01*
X21537Y62118D01*
X21555Y62201D01*
X21568Y62285D01*
X21578Y62369D01*
X21584Y62453D01*
X21586Y62538D01*
X14271Y64006D02*
X14269Y64151D01*
X14263Y64296D01*
X14254Y64441D01*
X14240Y64586D01*
X14223Y64730D01*
X14201Y64873D01*
X14176Y65017D01*
X14147Y65159D01*
X14115Y65300D01*
X14078Y65441D01*
X14038Y65580D01*
X13994Y65719D01*
X13947Y65856D01*
X13896Y65992D01*
X13841Y66126D01*
X13783Y66259D01*
X13721Y66391D01*
X13695Y66460D01*
X13666Y66527D01*
X13633Y66593D01*
X13597Y66656D01*
X13557Y66718D01*
X13514Y66777D01*
X13468Y66834D01*
X13419Y66888D01*
X13367Y66940D01*
X13312Y66989D01*
X13255Y67034D01*
X13195Y67077D01*
X13133Y67116D01*
X13070Y67152D01*
X13004Y67185D01*
X12937Y67213D01*
X12868Y67239D01*
X12798Y67260D01*
X12727Y67278D01*
X12655Y67291D01*
X12582Y67301D01*
X12509Y67307D01*
X12436Y67309D01*
X12436Y67308D02*
X12363Y67306D01*
X12290Y67300D01*
X12217Y67290D01*
X12146Y67277D01*
X12074Y67259D01*
X12004Y67238D01*
X11936Y67212D01*
X11868Y67184D01*
X11803Y67151D01*
X11739Y67115D01*
X11677Y67076D01*
X11618Y67034D01*
X11561Y66988D01*
X11506Y66939D01*
X11454Y66888D01*
X11405Y66833D01*
X11359Y66776D01*
X11316Y66717D01*
X11276Y66656D01*
X11240Y66592D01*
X11207Y66527D01*
X11178Y66460D01*
X11152Y66391D01*
X11090Y66259D01*
X11032Y66126D01*
X10977Y65992D01*
X10926Y65856D01*
X10879Y65719D01*
X10835Y65580D01*
X10795Y65441D01*
X10758Y65300D01*
X10726Y65159D01*
X10697Y65017D01*
X10672Y64874D01*
X10650Y64730D01*
X10633Y64586D01*
X10619Y64441D01*
X10610Y64296D01*
X10604Y64151D01*
X10602Y64006D01*
X14270Y64006D02*
X14268Y63861D01*
X14262Y63716D01*
X14253Y63571D01*
X14239Y63426D01*
X14222Y63282D01*
X14200Y63139D01*
X14175Y62996D01*
X14147Y62853D01*
X14114Y62712D01*
X14077Y62571D01*
X14037Y62432D01*
X13993Y62293D01*
X13946Y62156D01*
X13895Y62020D01*
X13840Y61886D01*
X13782Y61753D01*
X13720Y61621D01*
X13721Y61622D02*
X13695Y61553D01*
X13666Y61486D01*
X13633Y61420D01*
X13597Y61357D01*
X13557Y61295D01*
X13514Y61236D01*
X13468Y61179D01*
X13419Y61125D01*
X13367Y61073D01*
X13312Y61024D01*
X13255Y60979D01*
X13195Y60936D01*
X13133Y60897D01*
X13070Y60861D01*
X13004Y60828D01*
X12937Y60800D01*
X12868Y60774D01*
X12798Y60753D01*
X12727Y60735D01*
X12655Y60722D01*
X12582Y60712D01*
X12509Y60706D01*
X12436Y60704D01*
X11152Y61621D02*
X11090Y61753D01*
X11032Y61886D01*
X10977Y62020D01*
X10926Y62156D01*
X10879Y62293D01*
X10835Y62432D01*
X10795Y62571D01*
X10758Y62712D01*
X10726Y62853D01*
X10697Y62995D01*
X10672Y63138D01*
X10650Y63282D01*
X10633Y63426D01*
X10619Y63571D01*
X10610Y63716D01*
X10604Y63861D01*
X10602Y64006D01*
X11152Y61621D02*
X11178Y61552D01*
X11207Y61485D01*
X11240Y61420D01*
X11276Y61356D01*
X11316Y61295D01*
X11359Y61236D01*
X11405Y61179D01*
X11454Y61124D01*
X11506Y61073D01*
X11561Y61024D01*
X11618Y60978D01*
X11677Y60936D01*
X11739Y60897D01*
X11803Y60861D01*
X11868Y60828D01*
X11936Y60800D01*
X12004Y60774D01*
X12074Y60753D01*
X12146Y60735D01*
X12217Y60722D01*
X12290Y60712D01*
X12363Y60706D01*
X12436Y60704D01*
X13904Y62172D02*
X10969Y65840D01*
X33534Y54608D02*
X33534Y48004D01*
X33534Y54608D02*
X31700Y54608D01*
X31615Y54606D01*
X31531Y54600D01*
X31447Y54590D01*
X31363Y54577D01*
X31280Y54559D01*
X31198Y54538D01*
X31117Y54513D01*
X31037Y54484D01*
X30959Y54452D01*
X30883Y54416D01*
X30808Y54376D01*
X30735Y54333D01*
X30664Y54287D01*
X30595Y54238D01*
X30528Y54185D01*
X30464Y54129D01*
X30403Y54071D01*
X30345Y54010D01*
X30289Y53946D01*
X30236Y53879D01*
X30187Y53810D01*
X30141Y53739D01*
X30098Y53666D01*
X30058Y53591D01*
X30022Y53515D01*
X29990Y53437D01*
X29961Y53357D01*
X29936Y53276D01*
X29915Y53194D01*
X29897Y53111D01*
X29884Y53027D01*
X29874Y52943D01*
X29868Y52859D01*
X29866Y52774D01*
X29865Y52774D02*
X29865Y49838D01*
X29866Y49838D02*
X29868Y49753D01*
X29874Y49669D01*
X29884Y49585D01*
X29897Y49501D01*
X29915Y49418D01*
X29936Y49336D01*
X29961Y49255D01*
X29990Y49175D01*
X30022Y49097D01*
X30058Y49021D01*
X30098Y48946D01*
X30141Y48873D01*
X30187Y48802D01*
X30236Y48733D01*
X30289Y48666D01*
X30345Y48602D01*
X30403Y48541D01*
X30464Y48483D01*
X30528Y48427D01*
X30595Y48374D01*
X30664Y48325D01*
X30735Y48279D01*
X30808Y48236D01*
X30883Y48196D01*
X30959Y48160D01*
X31037Y48128D01*
X31117Y48099D01*
X31198Y48074D01*
X31280Y48053D01*
X31363Y48035D01*
X31447Y48022D01*
X31531Y48012D01*
X31615Y48006D01*
X31700Y48004D01*
X33534Y48004D01*
X25604Y48004D02*
X25604Y54608D01*
X26338Y48004D02*
X24870Y48004D01*
X24870Y54608D02*
X26338Y54608D01*
X21586Y52774D02*
X21586Y49838D01*
X21586Y52774D02*
X21584Y52859D01*
X21578Y52943D01*
X21568Y53027D01*
X21555Y53111D01*
X21537Y53194D01*
X21516Y53276D01*
X21491Y53357D01*
X21462Y53437D01*
X21430Y53515D01*
X21394Y53591D01*
X21354Y53666D01*
X21311Y53739D01*
X21265Y53810D01*
X21216Y53879D01*
X21163Y53946D01*
X21107Y54010D01*
X21049Y54071D01*
X20988Y54129D01*
X20924Y54185D01*
X20857Y54238D01*
X20788Y54287D01*
X20717Y54333D01*
X20644Y54376D01*
X20569Y54416D01*
X20493Y54452D01*
X20415Y54484D01*
X20335Y54513D01*
X20254Y54538D01*
X20172Y54559D01*
X20089Y54577D01*
X20005Y54590D01*
X19921Y54600D01*
X19837Y54606D01*
X19752Y54608D01*
X19667Y54606D01*
X19583Y54600D01*
X19499Y54590D01*
X19415Y54577D01*
X19332Y54559D01*
X19250Y54538D01*
X19169Y54513D01*
X19089Y54484D01*
X19011Y54452D01*
X18935Y54416D01*
X18860Y54376D01*
X18787Y54333D01*
X18716Y54287D01*
X18647Y54238D01*
X18580Y54185D01*
X18516Y54129D01*
X18455Y54071D01*
X18397Y54010D01*
X18341Y53946D01*
X18288Y53879D01*
X18239Y53810D01*
X18193Y53739D01*
X18150Y53666D01*
X18110Y53591D01*
X18074Y53515D01*
X18042Y53437D01*
X18013Y53357D01*
X17988Y53276D01*
X17967Y53194D01*
X17949Y53111D01*
X17936Y53027D01*
X17926Y52943D01*
X17920Y52859D01*
X17918Y52774D01*
X17917Y52774D02*
X17917Y49838D01*
X17918Y49838D02*
X17920Y49753D01*
X17926Y49669D01*
X17936Y49585D01*
X17949Y49501D01*
X17967Y49418D01*
X17988Y49336D01*
X18013Y49255D01*
X18042Y49175D01*
X18074Y49097D01*
X18110Y49021D01*
X18150Y48946D01*
X18193Y48873D01*
X18239Y48802D01*
X18288Y48733D01*
X18341Y48666D01*
X18397Y48602D01*
X18455Y48541D01*
X18516Y48483D01*
X18580Y48427D01*
X18647Y48374D01*
X18716Y48325D01*
X18787Y48279D01*
X18860Y48236D01*
X18935Y48196D01*
X19011Y48160D01*
X19089Y48128D01*
X19169Y48099D01*
X19250Y48074D01*
X19332Y48053D01*
X19415Y48035D01*
X19499Y48022D01*
X19583Y48012D01*
X19667Y48006D01*
X19752Y48004D01*
X19837Y48006D01*
X19921Y48012D01*
X20005Y48022D01*
X20089Y48035D01*
X20172Y48053D01*
X20254Y48074D01*
X20335Y48099D01*
X20415Y48128D01*
X20493Y48160D01*
X20569Y48196D01*
X20644Y48236D01*
X20717Y48279D01*
X20788Y48325D01*
X20857Y48374D01*
X20924Y48427D01*
X20988Y48483D01*
X21049Y48541D01*
X21107Y48602D01*
X21163Y48666D01*
X21216Y48733D01*
X21265Y48802D01*
X21311Y48873D01*
X21354Y48946D01*
X21394Y49021D01*
X21430Y49097D01*
X21462Y49175D01*
X21491Y49255D01*
X21516Y49336D01*
X21537Y49418D01*
X21555Y49501D01*
X21568Y49585D01*
X21578Y49669D01*
X21584Y49753D01*
X21586Y49838D01*
X14271Y53140D02*
X12436Y54608D01*
X12436Y48004D01*
X10602Y48004D02*
X14271Y48004D01*
X33534Y41908D02*
X33534Y35304D01*
X33534Y41908D02*
X31700Y41908D01*
X31615Y41906D01*
X31531Y41900D01*
X31447Y41890D01*
X31363Y41877D01*
X31280Y41859D01*
X31198Y41838D01*
X31117Y41813D01*
X31037Y41784D01*
X30959Y41752D01*
X30883Y41716D01*
X30808Y41676D01*
X30735Y41633D01*
X30664Y41587D01*
X30595Y41538D01*
X30528Y41485D01*
X30464Y41429D01*
X30403Y41371D01*
X30345Y41310D01*
X30289Y41246D01*
X30236Y41179D01*
X30187Y41110D01*
X30141Y41039D01*
X30098Y40966D01*
X30058Y40891D01*
X30022Y40815D01*
X29990Y40737D01*
X29961Y40657D01*
X29936Y40576D01*
X29915Y40494D01*
X29897Y40411D01*
X29884Y40327D01*
X29874Y40243D01*
X29868Y40159D01*
X29866Y40074D01*
X29865Y40074D02*
X29865Y37138D01*
X29866Y37138D02*
X29868Y37053D01*
X29874Y36969D01*
X29884Y36885D01*
X29897Y36801D01*
X29915Y36718D01*
X29936Y36636D01*
X29961Y36555D01*
X29990Y36475D01*
X30022Y36397D01*
X30058Y36321D01*
X30098Y36246D01*
X30141Y36173D01*
X30187Y36102D01*
X30236Y36033D01*
X30289Y35966D01*
X30345Y35902D01*
X30403Y35841D01*
X30464Y35783D01*
X30528Y35727D01*
X30595Y35674D01*
X30664Y35625D01*
X30735Y35579D01*
X30808Y35536D01*
X30883Y35496D01*
X30959Y35460D01*
X31037Y35428D01*
X31117Y35399D01*
X31198Y35374D01*
X31280Y35353D01*
X31363Y35335D01*
X31447Y35322D01*
X31531Y35312D01*
X31615Y35306D01*
X31700Y35304D01*
X33534Y35304D01*
X25604Y35304D02*
X25604Y41908D01*
X26338Y35304D02*
X24870Y35304D01*
X24870Y41908D02*
X26338Y41908D01*
X21586Y40074D02*
X21586Y37138D01*
X21586Y40074D02*
X21584Y40159D01*
X21578Y40243D01*
X21568Y40327D01*
X21555Y40411D01*
X21537Y40494D01*
X21516Y40576D01*
X21491Y40657D01*
X21462Y40737D01*
X21430Y40815D01*
X21394Y40891D01*
X21354Y40966D01*
X21311Y41039D01*
X21265Y41110D01*
X21216Y41179D01*
X21163Y41246D01*
X21107Y41310D01*
X21049Y41371D01*
X20988Y41429D01*
X20924Y41485D01*
X20857Y41538D01*
X20788Y41587D01*
X20717Y41633D01*
X20644Y41676D01*
X20569Y41716D01*
X20493Y41752D01*
X20415Y41784D01*
X20335Y41813D01*
X20254Y41838D01*
X20172Y41859D01*
X20089Y41877D01*
X20005Y41890D01*
X19921Y41900D01*
X19837Y41906D01*
X19752Y41908D01*
X19667Y41906D01*
X19583Y41900D01*
X19499Y41890D01*
X19415Y41877D01*
X19332Y41859D01*
X19250Y41838D01*
X19169Y41813D01*
X19089Y41784D01*
X19011Y41752D01*
X18935Y41716D01*
X18860Y41676D01*
X18787Y41633D01*
X18716Y41587D01*
X18647Y41538D01*
X18580Y41485D01*
X18516Y41429D01*
X18455Y41371D01*
X18397Y41310D01*
X18341Y41246D01*
X18288Y41179D01*
X18239Y41110D01*
X18193Y41039D01*
X18150Y40966D01*
X18110Y40891D01*
X18074Y40815D01*
X18042Y40737D01*
X18013Y40657D01*
X17988Y40576D01*
X17967Y40494D01*
X17949Y40411D01*
X17936Y40327D01*
X17926Y40243D01*
X17920Y40159D01*
X17918Y40074D01*
X17917Y40074D02*
X17917Y37138D01*
X17918Y37138D02*
X17920Y37053D01*
X17926Y36969D01*
X17936Y36885D01*
X17949Y36801D01*
X17967Y36718D01*
X17988Y36636D01*
X18013Y36555D01*
X18042Y36475D01*
X18074Y36397D01*
X18110Y36321D01*
X18150Y36246D01*
X18193Y36173D01*
X18239Y36102D01*
X18288Y36033D01*
X18341Y35966D01*
X18397Y35902D01*
X18455Y35841D01*
X18516Y35783D01*
X18580Y35727D01*
X18647Y35674D01*
X18716Y35625D01*
X18787Y35579D01*
X18860Y35536D01*
X18935Y35496D01*
X19011Y35460D01*
X19089Y35428D01*
X19169Y35399D01*
X19250Y35374D01*
X19332Y35353D01*
X19415Y35335D01*
X19499Y35322D01*
X19583Y35312D01*
X19667Y35306D01*
X19752Y35304D01*
X19837Y35306D01*
X19921Y35312D01*
X20005Y35322D01*
X20089Y35335D01*
X20172Y35353D01*
X20254Y35374D01*
X20335Y35399D01*
X20415Y35428D01*
X20493Y35460D01*
X20569Y35496D01*
X20644Y35536D01*
X20717Y35579D01*
X20788Y35625D01*
X20857Y35674D01*
X20924Y35727D01*
X20988Y35783D01*
X21049Y35841D01*
X21107Y35902D01*
X21163Y35966D01*
X21216Y36033D01*
X21265Y36102D01*
X21311Y36173D01*
X21354Y36246D01*
X21394Y36321D01*
X21430Y36397D01*
X21462Y36475D01*
X21491Y36555D01*
X21516Y36636D01*
X21537Y36718D01*
X21555Y36801D01*
X21568Y36885D01*
X21578Y36969D01*
X21584Y37053D01*
X21586Y37138D01*
X12253Y41908D02*
X12174Y41906D01*
X12096Y41901D01*
X12018Y41891D01*
X11941Y41878D01*
X11864Y41861D01*
X11788Y41841D01*
X11713Y41817D01*
X11639Y41790D01*
X11567Y41759D01*
X11496Y41724D01*
X11428Y41687D01*
X11360Y41646D01*
X11295Y41602D01*
X11232Y41555D01*
X11172Y41505D01*
X11114Y41452D01*
X11058Y41396D01*
X11005Y41338D01*
X10955Y41278D01*
X10908Y41215D01*
X10864Y41150D01*
X10823Y41083D01*
X10786Y41014D01*
X10751Y40943D01*
X10720Y40871D01*
X10693Y40797D01*
X10669Y40722D01*
X10649Y40646D01*
X10632Y40569D01*
X10619Y40492D01*
X10609Y40414D01*
X10604Y40336D01*
X10602Y40257D01*
X12253Y41908D02*
X12342Y41906D01*
X12431Y41901D01*
X12519Y41891D01*
X12607Y41878D01*
X12694Y41862D01*
X12781Y41841D01*
X12866Y41817D01*
X12951Y41790D01*
X13034Y41759D01*
X13116Y41724D01*
X13197Y41686D01*
X13276Y41645D01*
X13352Y41601D01*
X13428Y41553D01*
X13501Y41502D01*
X13571Y41449D01*
X13640Y41392D01*
X13706Y41332D01*
X13769Y41270D01*
X13830Y41205D01*
X13888Y41138D01*
X13943Y41068D01*
X13996Y40996D01*
X14045Y40922D01*
X14091Y40846D01*
X14133Y40768D01*
X14173Y40688D01*
X14209Y40607D01*
X14242Y40524D01*
X14271Y40440D01*
X11152Y38973D02*
X11096Y39029D01*
X11042Y39088D01*
X10991Y39149D01*
X10942Y39213D01*
X10897Y39278D01*
X10854Y39346D01*
X10815Y39415D01*
X10778Y39486D01*
X10745Y39559D01*
X10716Y39633D01*
X10689Y39708D01*
X10666Y39784D01*
X10647Y39862D01*
X10631Y39940D01*
X10618Y40018D01*
X10609Y40098D01*
X10604Y40177D01*
X10602Y40257D01*
X11152Y38973D02*
X14271Y35304D01*
X10602Y35304D01*
X33534Y29208D02*
X33534Y22604D01*
X33534Y29208D02*
X31700Y29208D01*
X31615Y29206D01*
X31531Y29200D01*
X31447Y29190D01*
X31363Y29177D01*
X31280Y29159D01*
X31198Y29138D01*
X31117Y29113D01*
X31037Y29084D01*
X30959Y29052D01*
X30883Y29016D01*
X30808Y28976D01*
X30735Y28933D01*
X30664Y28887D01*
X30595Y28838D01*
X30528Y28785D01*
X30464Y28729D01*
X30403Y28671D01*
X30345Y28610D01*
X30289Y28546D01*
X30236Y28479D01*
X30187Y28410D01*
X30141Y28339D01*
X30098Y28266D01*
X30058Y28191D01*
X30022Y28115D01*
X29990Y28037D01*
X29961Y27957D01*
X29936Y27876D01*
X29915Y27794D01*
X29897Y27711D01*
X29884Y27627D01*
X29874Y27543D01*
X29868Y27459D01*
X29866Y27374D01*
X29865Y27374D02*
X29865Y24438D01*
X29866Y24438D02*
X29868Y24353D01*
X29874Y24269D01*
X29884Y24185D01*
X29897Y24101D01*
X29915Y24018D01*
X29936Y23936D01*
X29961Y23855D01*
X29990Y23775D01*
X30022Y23697D01*
X30058Y23621D01*
X30098Y23546D01*
X30141Y23473D01*
X30187Y23402D01*
X30236Y23333D01*
X30289Y23266D01*
X30345Y23202D01*
X30403Y23141D01*
X30464Y23083D01*
X30528Y23027D01*
X30595Y22974D01*
X30664Y22925D01*
X30735Y22879D01*
X30808Y22836D01*
X30883Y22796D01*
X30959Y22760D01*
X31037Y22728D01*
X31117Y22699D01*
X31198Y22674D01*
X31280Y22653D01*
X31363Y22635D01*
X31447Y22622D01*
X31531Y22612D01*
X31615Y22606D01*
X31700Y22604D01*
X33534Y22604D01*
X25604Y22604D02*
X25604Y29208D01*
X26338Y22604D02*
X24870Y22604D01*
X24870Y29208D02*
X26338Y29208D01*
X21586Y27374D02*
X21586Y24438D01*
X21586Y27374D02*
X21584Y27459D01*
X21578Y27543D01*
X21568Y27627D01*
X21555Y27711D01*
X21537Y27794D01*
X21516Y27876D01*
X21491Y27957D01*
X21462Y28037D01*
X21430Y28115D01*
X21394Y28191D01*
X21354Y28266D01*
X21311Y28339D01*
X21265Y28410D01*
X21216Y28479D01*
X21163Y28546D01*
X21107Y28610D01*
X21049Y28671D01*
X20988Y28729D01*
X20924Y28785D01*
X20857Y28838D01*
X20788Y28887D01*
X20717Y28933D01*
X20644Y28976D01*
X20569Y29016D01*
X20493Y29052D01*
X20415Y29084D01*
X20335Y29113D01*
X20254Y29138D01*
X20172Y29159D01*
X20089Y29177D01*
X20005Y29190D01*
X19921Y29200D01*
X19837Y29206D01*
X19752Y29208D01*
X19667Y29206D01*
X19583Y29200D01*
X19499Y29190D01*
X19415Y29177D01*
X19332Y29159D01*
X19250Y29138D01*
X19169Y29113D01*
X19089Y29084D01*
X19011Y29052D01*
X18935Y29016D01*
X18860Y28976D01*
X18787Y28933D01*
X18716Y28887D01*
X18647Y28838D01*
X18580Y28785D01*
X18516Y28729D01*
X18455Y28671D01*
X18397Y28610D01*
X18341Y28546D01*
X18288Y28479D01*
X18239Y28410D01*
X18193Y28339D01*
X18150Y28266D01*
X18110Y28191D01*
X18074Y28115D01*
X18042Y28037D01*
X18013Y27957D01*
X17988Y27876D01*
X17967Y27794D01*
X17949Y27711D01*
X17936Y27627D01*
X17926Y27543D01*
X17920Y27459D01*
X17918Y27374D01*
X17917Y27374D02*
X17917Y24438D01*
X17918Y24438D02*
X17920Y24353D01*
X17926Y24269D01*
X17936Y24185D01*
X17949Y24101D01*
X17967Y24018D01*
X17988Y23936D01*
X18013Y23855D01*
X18042Y23775D01*
X18074Y23697D01*
X18110Y23621D01*
X18150Y23546D01*
X18193Y23473D01*
X18239Y23402D01*
X18288Y23333D01*
X18341Y23266D01*
X18397Y23202D01*
X18455Y23141D01*
X18516Y23083D01*
X18580Y23027D01*
X18647Y22974D01*
X18716Y22925D01*
X18787Y22879D01*
X18860Y22836D01*
X18935Y22796D01*
X19011Y22760D01*
X19089Y22728D01*
X19169Y22699D01*
X19250Y22674D01*
X19332Y22653D01*
X19415Y22635D01*
X19499Y22622D01*
X19583Y22612D01*
X19667Y22606D01*
X19752Y22604D01*
X19837Y22606D01*
X19921Y22612D01*
X20005Y22622D01*
X20089Y22635D01*
X20172Y22653D01*
X20254Y22674D01*
X20335Y22699D01*
X20415Y22728D01*
X20493Y22760D01*
X20569Y22796D01*
X20644Y22836D01*
X20717Y22879D01*
X20788Y22925D01*
X20857Y22974D01*
X20924Y23027D01*
X20988Y23083D01*
X21049Y23141D01*
X21107Y23202D01*
X21163Y23266D01*
X21216Y23333D01*
X21265Y23402D01*
X21311Y23473D01*
X21354Y23546D01*
X21394Y23621D01*
X21430Y23697D01*
X21462Y23775D01*
X21491Y23855D01*
X21516Y23936D01*
X21537Y24018D01*
X21555Y24101D01*
X21568Y24185D01*
X21578Y24269D01*
X21584Y24353D01*
X21586Y24438D01*
X14271Y22604D02*
X12436Y22604D01*
X12351Y22606D01*
X12267Y22612D01*
X12183Y22622D01*
X12099Y22635D01*
X12016Y22653D01*
X11934Y22674D01*
X11853Y22699D01*
X11773Y22728D01*
X11695Y22760D01*
X11619Y22796D01*
X11544Y22836D01*
X11471Y22879D01*
X11400Y22925D01*
X11331Y22974D01*
X11264Y23027D01*
X11200Y23083D01*
X11139Y23141D01*
X11081Y23202D01*
X11025Y23266D01*
X10972Y23333D01*
X10923Y23402D01*
X10877Y23473D01*
X10834Y23546D01*
X10794Y23621D01*
X10758Y23697D01*
X10726Y23775D01*
X10697Y23855D01*
X10672Y23936D01*
X10651Y24018D01*
X10633Y24101D01*
X10620Y24185D01*
X10610Y24269D01*
X10604Y24353D01*
X10602Y24438D01*
X10604Y24523D01*
X10610Y24607D01*
X10620Y24691D01*
X10633Y24775D01*
X10651Y24858D01*
X10672Y24940D01*
X10697Y25021D01*
X10726Y25101D01*
X10758Y25179D01*
X10794Y25255D01*
X10834Y25330D01*
X10877Y25403D01*
X10923Y25474D01*
X10972Y25543D01*
X11025Y25610D01*
X11081Y25674D01*
X11139Y25735D01*
X11200Y25793D01*
X11264Y25849D01*
X11331Y25902D01*
X11400Y25951D01*
X11471Y25997D01*
X11544Y26040D01*
X11619Y26080D01*
X11695Y26116D01*
X11773Y26148D01*
X11853Y26177D01*
X11934Y26202D01*
X12016Y26223D01*
X12099Y26241D01*
X12183Y26254D01*
X12267Y26264D01*
X12351Y26270D01*
X12436Y26272D01*
X12070Y29208D02*
X14271Y29208D01*
X12070Y29208D02*
X11994Y29206D01*
X11919Y29200D01*
X11844Y29191D01*
X11770Y29177D01*
X11696Y29160D01*
X11624Y29138D01*
X11552Y29114D01*
X11482Y29085D01*
X11414Y29053D01*
X11347Y29018D01*
X11282Y28979D01*
X11219Y28936D01*
X11159Y28891D01*
X11101Y28843D01*
X11045Y28791D01*
X10993Y28737D01*
X10943Y28680D01*
X10896Y28621D01*
X10852Y28560D01*
X10811Y28496D01*
X10774Y28430D01*
X10740Y28362D01*
X10710Y28293D01*
X10683Y28222D01*
X10660Y28150D01*
X10641Y28077D01*
X10626Y28003D01*
X10614Y27928D01*
X10606Y27853D01*
X10602Y27778D01*
X10602Y27702D01*
X10606Y27627D01*
X10614Y27552D01*
X10626Y27477D01*
X10641Y27403D01*
X10660Y27330D01*
X10683Y27258D01*
X10710Y27187D01*
X10740Y27118D01*
X10774Y27050D01*
X10811Y26984D01*
X10852Y26920D01*
X10896Y26859D01*
X10943Y26800D01*
X10993Y26743D01*
X11045Y26689D01*
X11101Y26637D01*
X11159Y26589D01*
X11219Y26544D01*
X11282Y26501D01*
X11347Y26462D01*
X11414Y26427D01*
X11482Y26395D01*
X11552Y26366D01*
X11624Y26342D01*
X11696Y26320D01*
X11770Y26303D01*
X11844Y26289D01*
X11919Y26280D01*
X11994Y26274D01*
X12070Y26272D01*
X12070Y26273D02*
X13537Y26273D01*
X153858Y124712D02*
X151657Y131316D01*
X149455Y124712D01*
X150006Y126363D02*
X153308Y126363D01*
X145932Y124712D02*
X145932Y131316D01*
X144098Y131316D01*
X144013Y131314D01*
X143929Y131308D01*
X143845Y131298D01*
X143761Y131285D01*
X143678Y131267D01*
X143596Y131246D01*
X143515Y131221D01*
X143435Y131192D01*
X143357Y131160D01*
X143281Y131124D01*
X143206Y131084D01*
X143133Y131041D01*
X143062Y130995D01*
X142993Y130946D01*
X142926Y130893D01*
X142862Y130837D01*
X142801Y130779D01*
X142743Y130718D01*
X142687Y130654D01*
X142634Y130587D01*
X142585Y130518D01*
X142539Y130447D01*
X142496Y130374D01*
X142456Y130299D01*
X142420Y130223D01*
X142388Y130145D01*
X142359Y130065D01*
X142334Y129984D01*
X142313Y129902D01*
X142295Y129819D01*
X142282Y129735D01*
X142272Y129651D01*
X142266Y129567D01*
X142264Y129482D01*
X142263Y129482D02*
X142263Y126546D01*
X142264Y126546D02*
X142266Y126461D01*
X142272Y126377D01*
X142282Y126293D01*
X142295Y126209D01*
X142313Y126126D01*
X142334Y126044D01*
X142359Y125963D01*
X142388Y125883D01*
X142420Y125805D01*
X142456Y125729D01*
X142496Y125654D01*
X142539Y125581D01*
X142585Y125510D01*
X142634Y125441D01*
X142687Y125374D01*
X142743Y125310D01*
X142801Y125249D01*
X142862Y125191D01*
X142926Y125135D01*
X142993Y125082D01*
X143062Y125033D01*
X143133Y124987D01*
X143206Y124944D01*
X143281Y124904D01*
X143357Y124868D01*
X143435Y124836D01*
X143515Y124807D01*
X143596Y124782D01*
X143678Y124761D01*
X143761Y124743D01*
X143845Y124730D01*
X143929Y124720D01*
X144013Y124714D01*
X144098Y124712D01*
X145932Y124712D01*
X136941Y124712D02*
X135474Y124712D01*
X136941Y124712D02*
X137015Y124714D01*
X137090Y124720D01*
X137163Y124729D01*
X137237Y124742D01*
X137309Y124759D01*
X137380Y124779D01*
X137451Y124803D01*
X137520Y124831D01*
X137588Y124862D01*
X137653Y124896D01*
X137718Y124934D01*
X137780Y124975D01*
X137840Y125019D01*
X137897Y125066D01*
X137952Y125116D01*
X138005Y125169D01*
X138055Y125224D01*
X138102Y125281D01*
X138146Y125341D01*
X138187Y125403D01*
X138225Y125468D01*
X138259Y125534D01*
X138290Y125601D01*
X138318Y125670D01*
X138342Y125741D01*
X138362Y125812D01*
X138379Y125885D01*
X138392Y125958D01*
X138401Y126032D01*
X138407Y126106D01*
X138409Y126180D01*
X138409Y129848D01*
X138407Y129922D01*
X138401Y129997D01*
X138392Y130070D01*
X138379Y130143D01*
X138362Y130216D01*
X138342Y130287D01*
X138318Y130358D01*
X138290Y130427D01*
X138259Y130494D01*
X138225Y130560D01*
X138187Y130625D01*
X138146Y130687D01*
X138102Y130747D01*
X138055Y130804D01*
X138005Y130859D01*
X137952Y130912D01*
X137897Y130962D01*
X137840Y131009D01*
X137780Y131053D01*
X137718Y131094D01*
X137653Y131132D01*
X137588Y131166D01*
X137520Y131197D01*
X137451Y131225D01*
X137381Y131249D01*
X137309Y131269D01*
X137237Y131286D01*
X137163Y131299D01*
X137090Y131308D01*
X137015Y131314D01*
X136941Y131316D01*
X135474Y131316D01*
X130259Y131316D02*
X130180Y131314D01*
X130102Y131309D01*
X130024Y131299D01*
X129947Y131286D01*
X129870Y131269D01*
X129794Y131249D01*
X129719Y131225D01*
X129645Y131198D01*
X129573Y131167D01*
X129502Y131132D01*
X129434Y131095D01*
X129366Y131054D01*
X129301Y131010D01*
X129238Y130963D01*
X129178Y130913D01*
X129120Y130860D01*
X129064Y130804D01*
X129011Y130746D01*
X128961Y130686D01*
X128914Y130623D01*
X128870Y130558D01*
X128829Y130491D01*
X128792Y130422D01*
X128757Y130351D01*
X128726Y130279D01*
X128699Y130205D01*
X128675Y130130D01*
X128655Y130054D01*
X128638Y129977D01*
X128625Y129900D01*
X128615Y129822D01*
X128610Y129744D01*
X128608Y129665D01*
X130259Y131316D02*
X130348Y131314D01*
X130437Y131309D01*
X130525Y131299D01*
X130613Y131286D01*
X130700Y131270D01*
X130787Y131249D01*
X130872Y131225D01*
X130957Y131198D01*
X131040Y131167D01*
X131122Y131132D01*
X131203Y131094D01*
X131282Y131053D01*
X131358Y131009D01*
X131434Y130961D01*
X131507Y130910D01*
X131577Y130857D01*
X131646Y130800D01*
X131712Y130740D01*
X131775Y130678D01*
X131836Y130613D01*
X131894Y130546D01*
X131949Y130476D01*
X132002Y130404D01*
X132051Y130330D01*
X132097Y130254D01*
X132139Y130176D01*
X132179Y130096D01*
X132215Y130015D01*
X132248Y129932D01*
X132277Y129848D01*
X129159Y128381D02*
X129103Y128437D01*
X129049Y128496D01*
X128998Y128557D01*
X128949Y128621D01*
X128904Y128686D01*
X128861Y128754D01*
X128822Y128823D01*
X128785Y128894D01*
X128752Y128967D01*
X128723Y129041D01*
X128696Y129116D01*
X128673Y129192D01*
X128654Y129270D01*
X128638Y129348D01*
X128625Y129426D01*
X128616Y129506D01*
X128611Y129585D01*
X128609Y129665D01*
X129159Y128381D02*
X132277Y124712D01*
X128608Y124712D01*
X153858Y118616D02*
X153858Y112012D01*
X153858Y118616D02*
X152024Y118616D01*
X151939Y118614D01*
X151855Y118608D01*
X151771Y118598D01*
X151687Y118585D01*
X151604Y118567D01*
X151522Y118546D01*
X151441Y118521D01*
X151361Y118492D01*
X151283Y118460D01*
X151207Y118424D01*
X151132Y118384D01*
X151059Y118341D01*
X150988Y118295D01*
X150919Y118246D01*
X150852Y118193D01*
X150788Y118137D01*
X150727Y118079D01*
X150669Y118018D01*
X150613Y117954D01*
X150560Y117887D01*
X150511Y117818D01*
X150465Y117747D01*
X150422Y117674D01*
X150382Y117599D01*
X150346Y117523D01*
X150314Y117445D01*
X150285Y117365D01*
X150260Y117284D01*
X150239Y117202D01*
X150221Y117119D01*
X150208Y117035D01*
X150198Y116951D01*
X150192Y116867D01*
X150190Y116782D01*
X150189Y116782D02*
X150189Y113846D01*
X150190Y113846D02*
X150192Y113761D01*
X150198Y113677D01*
X150208Y113593D01*
X150221Y113509D01*
X150239Y113426D01*
X150260Y113344D01*
X150285Y113263D01*
X150314Y113183D01*
X150346Y113105D01*
X150382Y113029D01*
X150422Y112954D01*
X150465Y112881D01*
X150511Y112810D01*
X150560Y112741D01*
X150613Y112674D01*
X150669Y112610D01*
X150727Y112549D01*
X150788Y112491D01*
X150852Y112435D01*
X150919Y112382D01*
X150988Y112333D01*
X151059Y112287D01*
X151132Y112244D01*
X151207Y112204D01*
X151283Y112168D01*
X151361Y112136D01*
X151441Y112107D01*
X151522Y112082D01*
X151604Y112061D01*
X151687Y112043D01*
X151771Y112030D01*
X151855Y112020D01*
X151939Y112014D01*
X152024Y112012D01*
X153858Y112012D01*
X145928Y112012D02*
X145928Y118616D01*
X146661Y112012D02*
X145194Y112012D01*
X145194Y118616D02*
X146661Y118616D01*
X141910Y116782D02*
X141910Y113846D01*
X141909Y116782D02*
X141907Y116867D01*
X141901Y116951D01*
X141891Y117035D01*
X141878Y117119D01*
X141860Y117202D01*
X141839Y117284D01*
X141814Y117365D01*
X141785Y117445D01*
X141753Y117523D01*
X141717Y117599D01*
X141677Y117674D01*
X141634Y117747D01*
X141588Y117818D01*
X141539Y117887D01*
X141486Y117954D01*
X141430Y118018D01*
X141372Y118079D01*
X141311Y118137D01*
X141247Y118193D01*
X141180Y118246D01*
X141111Y118295D01*
X141040Y118341D01*
X140967Y118384D01*
X140892Y118424D01*
X140816Y118460D01*
X140738Y118492D01*
X140658Y118521D01*
X140577Y118546D01*
X140495Y118567D01*
X140412Y118585D01*
X140328Y118598D01*
X140244Y118608D01*
X140160Y118614D01*
X140075Y118616D01*
X139990Y118614D01*
X139906Y118608D01*
X139822Y118598D01*
X139738Y118585D01*
X139655Y118567D01*
X139573Y118546D01*
X139492Y118521D01*
X139412Y118492D01*
X139334Y118460D01*
X139258Y118424D01*
X139183Y118384D01*
X139110Y118341D01*
X139039Y118295D01*
X138970Y118246D01*
X138903Y118193D01*
X138839Y118137D01*
X138778Y118079D01*
X138720Y118018D01*
X138664Y117954D01*
X138611Y117887D01*
X138562Y117818D01*
X138516Y117747D01*
X138473Y117674D01*
X138433Y117599D01*
X138397Y117523D01*
X138365Y117445D01*
X138336Y117365D01*
X138311Y117284D01*
X138290Y117202D01*
X138272Y117119D01*
X138259Y117035D01*
X138249Y116951D01*
X138243Y116867D01*
X138241Y116782D01*
X138241Y113846D01*
X138243Y113761D01*
X138249Y113677D01*
X138259Y113593D01*
X138272Y113509D01*
X138290Y113426D01*
X138311Y113344D01*
X138336Y113263D01*
X138365Y113183D01*
X138397Y113105D01*
X138433Y113029D01*
X138473Y112954D01*
X138516Y112881D01*
X138562Y112810D01*
X138611Y112741D01*
X138664Y112674D01*
X138720Y112610D01*
X138778Y112549D01*
X138839Y112491D01*
X138903Y112435D01*
X138970Y112382D01*
X139039Y112333D01*
X139110Y112287D01*
X139183Y112244D01*
X139258Y112204D01*
X139334Y112168D01*
X139412Y112136D01*
X139492Y112107D01*
X139573Y112082D01*
X139655Y112061D01*
X139738Y112043D01*
X139822Y112030D01*
X139906Y112020D01*
X139990Y112014D01*
X140075Y112012D01*
X140160Y112014D01*
X140244Y112020D01*
X140328Y112030D01*
X140412Y112043D01*
X140495Y112061D01*
X140577Y112082D01*
X140658Y112107D01*
X140738Y112136D01*
X140816Y112168D01*
X140892Y112204D01*
X140967Y112244D01*
X141040Y112287D01*
X141111Y112333D01*
X141180Y112382D01*
X141247Y112435D01*
X141311Y112491D01*
X141372Y112549D01*
X141430Y112610D01*
X141486Y112674D01*
X141539Y112741D01*
X141588Y112810D01*
X141634Y112881D01*
X141677Y112954D01*
X141717Y113029D01*
X141753Y113105D01*
X141785Y113183D01*
X141814Y113263D01*
X141839Y113344D01*
X141860Y113426D01*
X141878Y113509D01*
X141891Y113593D01*
X141901Y113677D01*
X141907Y113761D01*
X141909Y113846D01*
X134595Y117148D02*
X132760Y118616D01*
X132760Y112012D01*
X130926Y112012D02*
X134595Y112012D01*
X127280Y117882D02*
X127280Y118616D01*
X123611Y118616D01*
X125445Y112012D01*
X153858Y105916D02*
X153858Y99312D01*
X153858Y105916D02*
X152024Y105916D01*
X151939Y105914D01*
X151855Y105908D01*
X151771Y105898D01*
X151687Y105885D01*
X151604Y105867D01*
X151522Y105846D01*
X151441Y105821D01*
X151361Y105792D01*
X151283Y105760D01*
X151207Y105724D01*
X151132Y105684D01*
X151059Y105641D01*
X150988Y105595D01*
X150919Y105546D01*
X150852Y105493D01*
X150788Y105437D01*
X150727Y105379D01*
X150669Y105318D01*
X150613Y105254D01*
X150560Y105187D01*
X150511Y105118D01*
X150465Y105047D01*
X150422Y104974D01*
X150382Y104899D01*
X150346Y104823D01*
X150314Y104745D01*
X150285Y104665D01*
X150260Y104584D01*
X150239Y104502D01*
X150221Y104419D01*
X150208Y104335D01*
X150198Y104251D01*
X150192Y104167D01*
X150190Y104082D01*
X150189Y104082D02*
X150189Y101146D01*
X150190Y101146D02*
X150192Y101061D01*
X150198Y100977D01*
X150208Y100893D01*
X150221Y100809D01*
X150239Y100726D01*
X150260Y100644D01*
X150285Y100563D01*
X150314Y100483D01*
X150346Y100405D01*
X150382Y100329D01*
X150422Y100254D01*
X150465Y100181D01*
X150511Y100110D01*
X150560Y100041D01*
X150613Y99974D01*
X150669Y99910D01*
X150727Y99849D01*
X150788Y99791D01*
X150852Y99735D01*
X150919Y99682D01*
X150988Y99633D01*
X151059Y99587D01*
X151132Y99544D01*
X151207Y99504D01*
X151283Y99468D01*
X151361Y99436D01*
X151441Y99407D01*
X151522Y99382D01*
X151604Y99361D01*
X151687Y99343D01*
X151771Y99330D01*
X151855Y99320D01*
X151939Y99314D01*
X152024Y99312D01*
X153858Y99312D01*
X145928Y99312D02*
X145928Y105916D01*
X146661Y99312D02*
X145194Y99312D01*
X145194Y105916D02*
X146661Y105916D01*
X141910Y104082D02*
X141910Y101146D01*
X141909Y104082D02*
X141907Y104167D01*
X141901Y104251D01*
X141891Y104335D01*
X141878Y104419D01*
X141860Y104502D01*
X141839Y104584D01*
X141814Y104665D01*
X141785Y104745D01*
X141753Y104823D01*
X141717Y104899D01*
X141677Y104974D01*
X141634Y105047D01*
X141588Y105118D01*
X141539Y105187D01*
X141486Y105254D01*
X141430Y105318D01*
X141372Y105379D01*
X141311Y105437D01*
X141247Y105493D01*
X141180Y105546D01*
X141111Y105595D01*
X141040Y105641D01*
X140967Y105684D01*
X140892Y105724D01*
X140816Y105760D01*
X140738Y105792D01*
X140658Y105821D01*
X140577Y105846D01*
X140495Y105867D01*
X140412Y105885D01*
X140328Y105898D01*
X140244Y105908D01*
X140160Y105914D01*
X140075Y105916D01*
X139990Y105914D01*
X139906Y105908D01*
X139822Y105898D01*
X139738Y105885D01*
X139655Y105867D01*
X139573Y105846D01*
X139492Y105821D01*
X139412Y105792D01*
X139334Y105760D01*
X139258Y105724D01*
X139183Y105684D01*
X139110Y105641D01*
X139039Y105595D01*
X138970Y105546D01*
X138903Y105493D01*
X138839Y105437D01*
X138778Y105379D01*
X138720Y105318D01*
X138664Y105254D01*
X138611Y105187D01*
X138562Y105118D01*
X138516Y105047D01*
X138473Y104974D01*
X138433Y104899D01*
X138397Y104823D01*
X138365Y104745D01*
X138336Y104665D01*
X138311Y104584D01*
X138290Y104502D01*
X138272Y104419D01*
X138259Y104335D01*
X138249Y104251D01*
X138243Y104167D01*
X138241Y104082D01*
X138241Y101146D01*
X138243Y101061D01*
X138249Y100977D01*
X138259Y100893D01*
X138272Y100809D01*
X138290Y100726D01*
X138311Y100644D01*
X138336Y100563D01*
X138365Y100483D01*
X138397Y100405D01*
X138433Y100329D01*
X138473Y100254D01*
X138516Y100181D01*
X138562Y100110D01*
X138611Y100041D01*
X138664Y99974D01*
X138720Y99910D01*
X138778Y99849D01*
X138839Y99791D01*
X138903Y99735D01*
X138970Y99682D01*
X139039Y99633D01*
X139110Y99587D01*
X139183Y99544D01*
X139258Y99504D01*
X139334Y99468D01*
X139412Y99436D01*
X139492Y99407D01*
X139573Y99382D01*
X139655Y99361D01*
X139738Y99343D01*
X139822Y99330D01*
X139906Y99320D01*
X139990Y99314D01*
X140075Y99312D01*
X140160Y99314D01*
X140244Y99320D01*
X140328Y99330D01*
X140412Y99343D01*
X140495Y99361D01*
X140577Y99382D01*
X140658Y99407D01*
X140738Y99436D01*
X140816Y99468D01*
X140892Y99504D01*
X140967Y99544D01*
X141040Y99587D01*
X141111Y99633D01*
X141180Y99682D01*
X141247Y99735D01*
X141311Y99791D01*
X141372Y99849D01*
X141430Y99910D01*
X141486Y99974D01*
X141539Y100041D01*
X141588Y100110D01*
X141634Y100181D01*
X141677Y100254D01*
X141717Y100329D01*
X141753Y100405D01*
X141785Y100483D01*
X141814Y100563D01*
X141839Y100644D01*
X141860Y100726D01*
X141878Y100809D01*
X141891Y100893D01*
X141901Y100977D01*
X141907Y101061D01*
X141909Y101146D01*
X134595Y104448D02*
X132760Y105916D01*
X132760Y99312D01*
X130926Y99312D02*
X134595Y99312D01*
X127280Y102981D02*
X125078Y102981D01*
X125004Y102979D01*
X124929Y102973D01*
X124856Y102964D01*
X124782Y102951D01*
X124710Y102934D01*
X124639Y102914D01*
X124568Y102890D01*
X124499Y102862D01*
X124432Y102831D01*
X124366Y102797D01*
X124301Y102759D01*
X124239Y102718D01*
X124179Y102674D01*
X124122Y102627D01*
X124067Y102577D01*
X124014Y102524D01*
X123964Y102469D01*
X123917Y102412D01*
X123873Y102352D01*
X123832Y102290D01*
X123794Y102225D01*
X123760Y102159D01*
X123729Y102092D01*
X123701Y102023D01*
X123677Y101952D01*
X123657Y101881D01*
X123640Y101809D01*
X123627Y101735D01*
X123618Y101662D01*
X123612Y101587D01*
X123610Y101513D01*
X123611Y101513D02*
X123611Y101146D01*
X123613Y101061D01*
X123619Y100977D01*
X123629Y100893D01*
X123642Y100809D01*
X123660Y100726D01*
X123681Y100644D01*
X123706Y100563D01*
X123735Y100483D01*
X123767Y100405D01*
X123803Y100329D01*
X123843Y100254D01*
X123886Y100181D01*
X123932Y100110D01*
X123981Y100041D01*
X124034Y99974D01*
X124090Y99910D01*
X124148Y99849D01*
X124209Y99791D01*
X124273Y99735D01*
X124340Y99682D01*
X124409Y99633D01*
X124480Y99587D01*
X124553Y99544D01*
X124628Y99504D01*
X124704Y99468D01*
X124782Y99436D01*
X124862Y99407D01*
X124943Y99382D01*
X125025Y99361D01*
X125108Y99343D01*
X125192Y99330D01*
X125276Y99320D01*
X125360Y99314D01*
X125445Y99312D01*
X125530Y99314D01*
X125614Y99320D01*
X125698Y99330D01*
X125782Y99343D01*
X125865Y99361D01*
X125947Y99382D01*
X126028Y99407D01*
X126108Y99436D01*
X126186Y99468D01*
X126262Y99504D01*
X126337Y99544D01*
X126410Y99587D01*
X126481Y99633D01*
X126550Y99682D01*
X126617Y99735D01*
X126681Y99791D01*
X126742Y99849D01*
X126800Y99910D01*
X126856Y99974D01*
X126909Y100041D01*
X126958Y100110D01*
X127004Y100181D01*
X127047Y100254D01*
X127087Y100329D01*
X127123Y100405D01*
X127155Y100483D01*
X127184Y100563D01*
X127209Y100644D01*
X127230Y100726D01*
X127248Y100809D01*
X127261Y100893D01*
X127271Y100977D01*
X127277Y101061D01*
X127279Y101146D01*
X127280Y101146D02*
X127280Y102981D01*
X127279Y102981D02*
X127277Y103088D01*
X127271Y103195D01*
X127261Y103302D01*
X127248Y103408D01*
X127230Y103514D01*
X127209Y103619D01*
X127184Y103723D01*
X127155Y103827D01*
X127122Y103929D01*
X127085Y104029D01*
X127045Y104129D01*
X127001Y104227D01*
X126954Y104323D01*
X126903Y104417D01*
X126849Y104510D01*
X126792Y104600D01*
X126731Y104689D01*
X126667Y104775D01*
X126600Y104858D01*
X126530Y104940D01*
X126457Y105018D01*
X126381Y105094D01*
X126303Y105167D01*
X126221Y105237D01*
X126138Y105304D01*
X126052Y105368D01*
X125963Y105429D01*
X125873Y105486D01*
X125780Y105540D01*
X125686Y105591D01*
X125590Y105638D01*
X125492Y105682D01*
X125393Y105722D01*
X125292Y105759D01*
X125190Y105792D01*
X125086Y105821D01*
X124982Y105846D01*
X124877Y105867D01*
X124771Y105885D01*
X124665Y105898D01*
X124558Y105908D01*
X124451Y105914D01*
X124344Y105916D01*
X153858Y93216D02*
X153858Y86612D01*
X153858Y93216D02*
X152024Y93216D01*
X151939Y93214D01*
X151855Y93208D01*
X151771Y93198D01*
X151687Y93185D01*
X151604Y93167D01*
X151522Y93146D01*
X151441Y93121D01*
X151361Y93092D01*
X151283Y93060D01*
X151207Y93024D01*
X151132Y92984D01*
X151059Y92941D01*
X150988Y92895D01*
X150919Y92846D01*
X150852Y92793D01*
X150788Y92737D01*
X150727Y92679D01*
X150669Y92618D01*
X150613Y92554D01*
X150560Y92487D01*
X150511Y92418D01*
X150465Y92347D01*
X150422Y92274D01*
X150382Y92199D01*
X150346Y92123D01*
X150314Y92045D01*
X150285Y91965D01*
X150260Y91884D01*
X150239Y91802D01*
X150221Y91719D01*
X150208Y91635D01*
X150198Y91551D01*
X150192Y91467D01*
X150190Y91382D01*
X150189Y91382D02*
X150189Y88446D01*
X150190Y88446D02*
X150192Y88361D01*
X150198Y88277D01*
X150208Y88193D01*
X150221Y88109D01*
X150239Y88026D01*
X150260Y87944D01*
X150285Y87863D01*
X150314Y87783D01*
X150346Y87705D01*
X150382Y87629D01*
X150422Y87554D01*
X150465Y87481D01*
X150511Y87410D01*
X150560Y87341D01*
X150613Y87274D01*
X150669Y87210D01*
X150727Y87149D01*
X150788Y87091D01*
X150852Y87035D01*
X150919Y86982D01*
X150988Y86933D01*
X151059Y86887D01*
X151132Y86844D01*
X151207Y86804D01*
X151283Y86768D01*
X151361Y86736D01*
X151441Y86707D01*
X151522Y86682D01*
X151604Y86661D01*
X151687Y86643D01*
X151771Y86630D01*
X151855Y86620D01*
X151939Y86614D01*
X152024Y86612D01*
X153858Y86612D01*
X145928Y86612D02*
X145928Y93216D01*
X146661Y86612D02*
X145194Y86612D01*
X145194Y93216D02*
X146661Y93216D01*
X141910Y91382D02*
X141910Y88446D01*
X141909Y91382D02*
X141907Y91467D01*
X141901Y91551D01*
X141891Y91635D01*
X141878Y91719D01*
X141860Y91802D01*
X141839Y91884D01*
X141814Y91965D01*
X141785Y92045D01*
X141753Y92123D01*
X141717Y92199D01*
X141677Y92274D01*
X141634Y92347D01*
X141588Y92418D01*
X141539Y92487D01*
X141486Y92554D01*
X141430Y92618D01*
X141372Y92679D01*
X141311Y92737D01*
X141247Y92793D01*
X141180Y92846D01*
X141111Y92895D01*
X141040Y92941D01*
X140967Y92984D01*
X140892Y93024D01*
X140816Y93060D01*
X140738Y93092D01*
X140658Y93121D01*
X140577Y93146D01*
X140495Y93167D01*
X140412Y93185D01*
X140328Y93198D01*
X140244Y93208D01*
X140160Y93214D01*
X140075Y93216D01*
X139990Y93214D01*
X139906Y93208D01*
X139822Y93198D01*
X139738Y93185D01*
X139655Y93167D01*
X139573Y93146D01*
X139492Y93121D01*
X139412Y93092D01*
X139334Y93060D01*
X139258Y93024D01*
X139183Y92984D01*
X139110Y92941D01*
X139039Y92895D01*
X138970Y92846D01*
X138903Y92793D01*
X138839Y92737D01*
X138778Y92679D01*
X138720Y92618D01*
X138664Y92554D01*
X138611Y92487D01*
X138562Y92418D01*
X138516Y92347D01*
X138473Y92274D01*
X138433Y92199D01*
X138397Y92123D01*
X138365Y92045D01*
X138336Y91965D01*
X138311Y91884D01*
X138290Y91802D01*
X138272Y91719D01*
X138259Y91635D01*
X138249Y91551D01*
X138243Y91467D01*
X138241Y91382D01*
X138241Y88446D01*
X138243Y88361D01*
X138249Y88277D01*
X138259Y88193D01*
X138272Y88109D01*
X138290Y88026D01*
X138311Y87944D01*
X138336Y87863D01*
X138365Y87783D01*
X138397Y87705D01*
X138433Y87629D01*
X138473Y87554D01*
X138516Y87481D01*
X138562Y87410D01*
X138611Y87341D01*
X138664Y87274D01*
X138720Y87210D01*
X138778Y87149D01*
X138839Y87091D01*
X138903Y87035D01*
X138970Y86982D01*
X139039Y86933D01*
X139110Y86887D01*
X139183Y86844D01*
X139258Y86804D01*
X139334Y86768D01*
X139412Y86736D01*
X139492Y86707D01*
X139573Y86682D01*
X139655Y86661D01*
X139738Y86643D01*
X139822Y86630D01*
X139906Y86620D01*
X139990Y86614D01*
X140075Y86612D01*
X140160Y86614D01*
X140244Y86620D01*
X140328Y86630D01*
X140412Y86643D01*
X140495Y86661D01*
X140577Y86682D01*
X140658Y86707D01*
X140738Y86736D01*
X140816Y86768D01*
X140892Y86804D01*
X140967Y86844D01*
X141040Y86887D01*
X141111Y86933D01*
X141180Y86982D01*
X141247Y87035D01*
X141311Y87091D01*
X141372Y87149D01*
X141430Y87210D01*
X141486Y87274D01*
X141539Y87341D01*
X141588Y87410D01*
X141634Y87481D01*
X141677Y87554D01*
X141717Y87629D01*
X141753Y87705D01*
X141785Y87783D01*
X141814Y87863D01*
X141839Y87944D01*
X141860Y88026D01*
X141878Y88109D01*
X141891Y88193D01*
X141901Y88277D01*
X141907Y88361D01*
X141909Y88446D01*
X134595Y91748D02*
X132760Y93216D01*
X132760Y86612D01*
X130926Y86612D02*
X134595Y86612D01*
X127280Y86612D02*
X125078Y86612D01*
X125004Y86614D01*
X124929Y86620D01*
X124856Y86629D01*
X124782Y86642D01*
X124710Y86659D01*
X124639Y86679D01*
X124568Y86703D01*
X124499Y86731D01*
X124432Y86762D01*
X124366Y86796D01*
X124301Y86834D01*
X124239Y86875D01*
X124179Y86919D01*
X124122Y86966D01*
X124067Y87016D01*
X124014Y87069D01*
X123964Y87124D01*
X123917Y87181D01*
X123873Y87241D01*
X123832Y87303D01*
X123794Y87368D01*
X123760Y87433D01*
X123729Y87501D01*
X123701Y87570D01*
X123677Y87641D01*
X123657Y87712D01*
X123640Y87784D01*
X123627Y87858D01*
X123618Y87931D01*
X123612Y88006D01*
X123610Y88080D01*
X123611Y88080D02*
X123611Y88813D01*
X123610Y88813D02*
X123612Y88887D01*
X123618Y88962D01*
X123627Y89035D01*
X123640Y89109D01*
X123657Y89181D01*
X123677Y89252D01*
X123701Y89323D01*
X123729Y89392D01*
X123760Y89459D01*
X123794Y89525D01*
X123832Y89590D01*
X123873Y89652D01*
X123917Y89712D01*
X123964Y89769D01*
X124014Y89824D01*
X124067Y89877D01*
X124122Y89927D01*
X124179Y89974D01*
X124239Y90018D01*
X124301Y90059D01*
X124366Y90097D01*
X124432Y90131D01*
X124499Y90162D01*
X124568Y90190D01*
X124639Y90214D01*
X124710Y90234D01*
X124782Y90251D01*
X124856Y90264D01*
X124929Y90273D01*
X125004Y90279D01*
X125078Y90281D01*
X127280Y90281D01*
X127280Y93216D01*
X123611Y93216D01*
X153858Y80516D02*
X153858Y73912D01*
X153858Y80516D02*
X152024Y80516D01*
X151939Y80514D01*
X151855Y80508D01*
X151771Y80498D01*
X151687Y80485D01*
X151604Y80467D01*
X151522Y80446D01*
X151441Y80421D01*
X151361Y80392D01*
X151283Y80360D01*
X151207Y80324D01*
X151132Y80284D01*
X151059Y80241D01*
X150988Y80195D01*
X150919Y80146D01*
X150852Y80093D01*
X150788Y80037D01*
X150727Y79979D01*
X150669Y79918D01*
X150613Y79854D01*
X150560Y79787D01*
X150511Y79718D01*
X150465Y79647D01*
X150422Y79574D01*
X150382Y79499D01*
X150346Y79423D01*
X150314Y79345D01*
X150285Y79265D01*
X150260Y79184D01*
X150239Y79102D01*
X150221Y79019D01*
X150208Y78935D01*
X150198Y78851D01*
X150192Y78767D01*
X150190Y78682D01*
X150189Y78682D02*
X150189Y75746D01*
X150190Y75746D02*
X150192Y75661D01*
X150198Y75577D01*
X150208Y75493D01*
X150221Y75409D01*
X150239Y75326D01*
X150260Y75244D01*
X150285Y75163D01*
X150314Y75083D01*
X150346Y75005D01*
X150382Y74929D01*
X150422Y74854D01*
X150465Y74781D01*
X150511Y74710D01*
X150560Y74641D01*
X150613Y74574D01*
X150669Y74510D01*
X150727Y74449D01*
X150788Y74391D01*
X150852Y74335D01*
X150919Y74282D01*
X150988Y74233D01*
X151059Y74187D01*
X151132Y74144D01*
X151207Y74104D01*
X151283Y74068D01*
X151361Y74036D01*
X151441Y74007D01*
X151522Y73982D01*
X151604Y73961D01*
X151687Y73943D01*
X151771Y73930D01*
X151855Y73920D01*
X151939Y73914D01*
X152024Y73912D01*
X153858Y73912D01*
X145928Y73912D02*
X145928Y80516D01*
X146661Y73912D02*
X145194Y73912D01*
X145194Y80516D02*
X146661Y80516D01*
X141910Y78682D02*
X141910Y75746D01*
X141909Y78682D02*
X141907Y78767D01*
X141901Y78851D01*
X141891Y78935D01*
X141878Y79019D01*
X141860Y79102D01*
X141839Y79184D01*
X141814Y79265D01*
X141785Y79345D01*
X141753Y79423D01*
X141717Y79499D01*
X141677Y79574D01*
X141634Y79647D01*
X141588Y79718D01*
X141539Y79787D01*
X141486Y79854D01*
X141430Y79918D01*
X141372Y79979D01*
X141311Y80037D01*
X141247Y80093D01*
X141180Y80146D01*
X141111Y80195D01*
X141040Y80241D01*
X140967Y80284D01*
X140892Y80324D01*
X140816Y80360D01*
X140738Y80392D01*
X140658Y80421D01*
X140577Y80446D01*
X140495Y80467D01*
X140412Y80485D01*
X140328Y80498D01*
X140244Y80508D01*
X140160Y80514D01*
X140075Y80516D01*
X139990Y80514D01*
X139906Y80508D01*
X139822Y80498D01*
X139738Y80485D01*
X139655Y80467D01*
X139573Y80446D01*
X139492Y80421D01*
X139412Y80392D01*
X139334Y80360D01*
X139258Y80324D01*
X139183Y80284D01*
X139110Y80241D01*
X139039Y80195D01*
X138970Y80146D01*
X138903Y80093D01*
X138839Y80037D01*
X138778Y79979D01*
X138720Y79918D01*
X138664Y79854D01*
X138611Y79787D01*
X138562Y79718D01*
X138516Y79647D01*
X138473Y79574D01*
X138433Y79499D01*
X138397Y79423D01*
X138365Y79345D01*
X138336Y79265D01*
X138311Y79184D01*
X138290Y79102D01*
X138272Y79019D01*
X138259Y78935D01*
X138249Y78851D01*
X138243Y78767D01*
X138241Y78682D01*
X138241Y75746D01*
X138243Y75661D01*
X138249Y75577D01*
X138259Y75493D01*
X138272Y75409D01*
X138290Y75326D01*
X138311Y75244D01*
X138336Y75163D01*
X138365Y75083D01*
X138397Y75005D01*
X138433Y74929D01*
X138473Y74854D01*
X138516Y74781D01*
X138562Y74710D01*
X138611Y74641D01*
X138664Y74574D01*
X138720Y74510D01*
X138778Y74449D01*
X138839Y74391D01*
X138903Y74335D01*
X138970Y74282D01*
X139039Y74233D01*
X139110Y74187D01*
X139183Y74144D01*
X139258Y74104D01*
X139334Y74068D01*
X139412Y74036D01*
X139492Y74007D01*
X139573Y73982D01*
X139655Y73961D01*
X139738Y73943D01*
X139822Y73930D01*
X139906Y73920D01*
X139990Y73914D01*
X140075Y73912D01*
X140160Y73914D01*
X140244Y73920D01*
X140328Y73930D01*
X140412Y73943D01*
X140495Y73961D01*
X140577Y73982D01*
X140658Y74007D01*
X140738Y74036D01*
X140816Y74068D01*
X140892Y74104D01*
X140967Y74144D01*
X141040Y74187D01*
X141111Y74233D01*
X141180Y74282D01*
X141247Y74335D01*
X141311Y74391D01*
X141372Y74449D01*
X141430Y74510D01*
X141486Y74574D01*
X141539Y74641D01*
X141588Y74710D01*
X141634Y74781D01*
X141677Y74854D01*
X141717Y74929D01*
X141753Y75005D01*
X141785Y75083D01*
X141814Y75163D01*
X141839Y75244D01*
X141860Y75326D01*
X141878Y75409D01*
X141891Y75493D01*
X141901Y75577D01*
X141907Y75661D01*
X141909Y75746D01*
X134595Y79048D02*
X132760Y80516D01*
X132760Y73912D01*
X130926Y73912D02*
X134595Y73912D01*
X127280Y75380D02*
X125812Y80516D01*
X127280Y75380D02*
X123611Y75380D01*
X124711Y76847D02*
X124711Y73912D01*
X153858Y67816D02*
X153858Y61212D01*
X153858Y67816D02*
X152024Y67816D01*
X151939Y67814D01*
X151855Y67808D01*
X151771Y67798D01*
X151687Y67785D01*
X151604Y67767D01*
X151522Y67746D01*
X151441Y67721D01*
X151361Y67692D01*
X151283Y67660D01*
X151207Y67624D01*
X151132Y67584D01*
X151059Y67541D01*
X150988Y67495D01*
X150919Y67446D01*
X150852Y67393D01*
X150788Y67337D01*
X150727Y67279D01*
X150669Y67218D01*
X150613Y67154D01*
X150560Y67087D01*
X150511Y67018D01*
X150465Y66947D01*
X150422Y66874D01*
X150382Y66799D01*
X150346Y66723D01*
X150314Y66645D01*
X150285Y66565D01*
X150260Y66484D01*
X150239Y66402D01*
X150221Y66319D01*
X150208Y66235D01*
X150198Y66151D01*
X150192Y66067D01*
X150190Y65982D01*
X150192Y65897D01*
X150198Y65813D01*
X150208Y65729D01*
X150221Y65645D01*
X150239Y65562D01*
X150260Y65480D01*
X150285Y65399D01*
X150314Y65319D01*
X150346Y65241D01*
X150382Y65165D01*
X150422Y65090D01*
X150465Y65017D01*
X150511Y64946D01*
X150560Y64877D01*
X150613Y64810D01*
X150669Y64746D01*
X150727Y64685D01*
X150788Y64627D01*
X150852Y64571D01*
X150919Y64518D01*
X150988Y64469D01*
X151059Y64423D01*
X151132Y64380D01*
X151207Y64340D01*
X151283Y64304D01*
X151361Y64272D01*
X151441Y64243D01*
X151522Y64218D01*
X151604Y64197D01*
X151687Y64179D01*
X151771Y64166D01*
X151855Y64156D01*
X151939Y64150D01*
X152024Y64148D01*
X152024Y64147D02*
X153858Y64147D01*
X151657Y64147D02*
X150189Y61212D01*
X146354Y61212D02*
X143419Y61212D01*
X146354Y61212D02*
X146354Y67816D01*
X143419Y67816D01*
X144152Y64881D02*
X146354Y64881D01*
X138324Y61212D02*
X138250Y61214D01*
X138175Y61220D01*
X138102Y61229D01*
X138028Y61242D01*
X137956Y61259D01*
X137885Y61279D01*
X137814Y61303D01*
X137745Y61331D01*
X137678Y61362D01*
X137612Y61396D01*
X137547Y61434D01*
X137485Y61475D01*
X137425Y61519D01*
X137368Y61566D01*
X137313Y61616D01*
X137260Y61669D01*
X137210Y61724D01*
X137163Y61781D01*
X137119Y61841D01*
X137078Y61903D01*
X137040Y61968D01*
X137006Y62034D01*
X136975Y62101D01*
X136947Y62170D01*
X136923Y62241D01*
X136903Y62312D01*
X136886Y62384D01*
X136873Y62458D01*
X136864Y62531D01*
X136858Y62606D01*
X136856Y62680D01*
X138324Y61212D02*
X138435Y61214D01*
X138546Y61220D01*
X138657Y61230D01*
X138768Y61244D01*
X138877Y61262D01*
X138986Y61284D01*
X139095Y61309D01*
X139202Y61339D01*
X139308Y61372D01*
X139413Y61410D01*
X139516Y61450D01*
X139618Y61495D01*
X139718Y61543D01*
X139817Y61595D01*
X139913Y61650D01*
X140008Y61709D01*
X140100Y61771D01*
X140190Y61837D01*
X140278Y61905D01*
X140363Y61977D01*
X140445Y62052D01*
X140525Y62129D01*
X140343Y66348D02*
X140341Y66422D01*
X140335Y66497D01*
X140326Y66570D01*
X140313Y66644D01*
X140296Y66716D01*
X140276Y66787D01*
X140252Y66858D01*
X140224Y66927D01*
X140193Y66994D01*
X140159Y67060D01*
X140121Y67125D01*
X140080Y67187D01*
X140036Y67247D01*
X139989Y67304D01*
X139939Y67359D01*
X139886Y67412D01*
X139831Y67462D01*
X139774Y67509D01*
X139714Y67553D01*
X139652Y67594D01*
X139587Y67632D01*
X139521Y67666D01*
X139454Y67697D01*
X139385Y67725D01*
X139314Y67749D01*
X139243Y67769D01*
X139171Y67786D01*
X139097Y67799D01*
X139024Y67808D01*
X138949Y67814D01*
X138875Y67816D01*
X138771Y67814D01*
X138667Y67808D01*
X138563Y67798D01*
X138460Y67785D01*
X138357Y67767D01*
X138255Y67745D01*
X138154Y67720D01*
X138054Y67691D01*
X137955Y67658D01*
X137858Y67621D01*
X137762Y67581D01*
X137667Y67537D01*
X137575Y67489D01*
X137484Y67439D01*
X137395Y67384D01*
X137308Y67327D01*
X137224Y67266D01*
X139609Y65063D02*
X139672Y65102D01*
X139732Y65144D01*
X139791Y65189D01*
X139847Y65237D01*
X139900Y65288D01*
X139951Y65341D01*
X140000Y65396D01*
X140045Y65454D01*
X140088Y65514D01*
X140128Y65576D01*
X140164Y65640D01*
X140198Y65706D01*
X140228Y65774D01*
X140255Y65842D01*
X140278Y65912D01*
X140298Y65983D01*
X140314Y66055D01*
X140327Y66128D01*
X140336Y66201D01*
X140341Y66274D01*
X140343Y66348D01*
X137590Y63965D02*
X137527Y63926D01*
X137467Y63884D01*
X137409Y63839D01*
X137352Y63791D01*
X137299Y63740D01*
X137248Y63687D01*
X137199Y63632D01*
X137154Y63574D01*
X137111Y63514D01*
X137071Y63452D01*
X137035Y63388D01*
X137001Y63322D01*
X136971Y63254D01*
X136944Y63186D01*
X136921Y63116D01*
X136901Y63045D01*
X136885Y62973D01*
X136872Y62900D01*
X136863Y62827D01*
X136858Y62754D01*
X136856Y62680D01*
X137591Y63964D02*
X139608Y65064D01*
X133186Y61212D02*
X130251Y61212D01*
X133186Y61212D02*
X133186Y67816D01*
X130251Y67816D01*
X130985Y64881D02*
X133186Y64881D01*
X125768Y67816D02*
X125768Y61212D01*
X127602Y67816D02*
X123933Y67816D01*
X121139Y60478D02*
X118204Y60478D01*
X114679Y61212D02*
X114679Y67816D01*
X111010Y61212D01*
X111010Y67816D01*
X153858Y55116D02*
X153858Y48512D01*
X153858Y55116D02*
X152024Y55116D01*
X151939Y55114D01*
X151855Y55108D01*
X151771Y55098D01*
X151687Y55085D01*
X151604Y55067D01*
X151522Y55046D01*
X151441Y55021D01*
X151361Y54992D01*
X151283Y54960D01*
X151207Y54924D01*
X151132Y54884D01*
X151059Y54841D01*
X150988Y54795D01*
X150919Y54746D01*
X150852Y54693D01*
X150788Y54637D01*
X150727Y54579D01*
X150669Y54518D01*
X150613Y54454D01*
X150560Y54387D01*
X150511Y54318D01*
X150465Y54247D01*
X150422Y54174D01*
X150382Y54099D01*
X150346Y54023D01*
X150314Y53945D01*
X150285Y53865D01*
X150260Y53784D01*
X150239Y53702D01*
X150221Y53619D01*
X150208Y53535D01*
X150198Y53451D01*
X150192Y53367D01*
X150190Y53282D01*
X150189Y53282D02*
X150189Y50346D01*
X150190Y50346D02*
X150192Y50261D01*
X150198Y50177D01*
X150208Y50093D01*
X150221Y50009D01*
X150239Y49926D01*
X150260Y49844D01*
X150285Y49763D01*
X150314Y49683D01*
X150346Y49605D01*
X150382Y49529D01*
X150422Y49454D01*
X150465Y49381D01*
X150511Y49310D01*
X150560Y49241D01*
X150613Y49174D01*
X150669Y49110D01*
X150727Y49049D01*
X150788Y48991D01*
X150852Y48935D01*
X150919Y48882D01*
X150988Y48833D01*
X151059Y48787D01*
X151132Y48744D01*
X151207Y48704D01*
X151283Y48668D01*
X151361Y48636D01*
X151441Y48607D01*
X151522Y48582D01*
X151604Y48561D01*
X151687Y48543D01*
X151771Y48530D01*
X151855Y48520D01*
X151939Y48514D01*
X152024Y48512D01*
X153858Y48512D01*
X145928Y48512D02*
X145928Y55116D01*
X146661Y48512D02*
X145194Y48512D01*
X145194Y55116D02*
X146661Y55116D01*
X141910Y53282D02*
X141910Y50346D01*
X141909Y53282D02*
X141907Y53367D01*
X141901Y53451D01*
X141891Y53535D01*
X141878Y53619D01*
X141860Y53702D01*
X141839Y53784D01*
X141814Y53865D01*
X141785Y53945D01*
X141753Y54023D01*
X141717Y54099D01*
X141677Y54174D01*
X141634Y54247D01*
X141588Y54318D01*
X141539Y54387D01*
X141486Y54454D01*
X141430Y54518D01*
X141372Y54579D01*
X141311Y54637D01*
X141247Y54693D01*
X141180Y54746D01*
X141111Y54795D01*
X141040Y54841D01*
X140967Y54884D01*
X140892Y54924D01*
X140816Y54960D01*
X140738Y54992D01*
X140658Y55021D01*
X140577Y55046D01*
X140495Y55067D01*
X140412Y55085D01*
X140328Y55098D01*
X140244Y55108D01*
X140160Y55114D01*
X140075Y55116D01*
X139990Y55114D01*
X139906Y55108D01*
X139822Y55098D01*
X139738Y55085D01*
X139655Y55067D01*
X139573Y55046D01*
X139492Y55021D01*
X139412Y54992D01*
X139334Y54960D01*
X139258Y54924D01*
X139183Y54884D01*
X139110Y54841D01*
X139039Y54795D01*
X138970Y54746D01*
X138903Y54693D01*
X138839Y54637D01*
X138778Y54579D01*
X138720Y54518D01*
X138664Y54454D01*
X138611Y54387D01*
X138562Y54318D01*
X138516Y54247D01*
X138473Y54174D01*
X138433Y54099D01*
X138397Y54023D01*
X138365Y53945D01*
X138336Y53865D01*
X138311Y53784D01*
X138290Y53702D01*
X138272Y53619D01*
X138259Y53535D01*
X138249Y53451D01*
X138243Y53367D01*
X138241Y53282D01*
X138241Y50346D01*
X138243Y50261D01*
X138249Y50177D01*
X138259Y50093D01*
X138272Y50009D01*
X138290Y49926D01*
X138311Y49844D01*
X138336Y49763D01*
X138365Y49683D01*
X138397Y49605D01*
X138433Y49529D01*
X138473Y49454D01*
X138516Y49381D01*
X138562Y49310D01*
X138611Y49241D01*
X138664Y49174D01*
X138720Y49110D01*
X138778Y49049D01*
X138839Y48991D01*
X138903Y48935D01*
X138970Y48882D01*
X139039Y48833D01*
X139110Y48787D01*
X139183Y48744D01*
X139258Y48704D01*
X139334Y48668D01*
X139412Y48636D01*
X139492Y48607D01*
X139573Y48582D01*
X139655Y48561D01*
X139738Y48543D01*
X139822Y48530D01*
X139906Y48520D01*
X139990Y48514D01*
X140075Y48512D01*
X140160Y48514D01*
X140244Y48520D01*
X140328Y48530D01*
X140412Y48543D01*
X140495Y48561D01*
X140577Y48582D01*
X140658Y48607D01*
X140738Y48636D01*
X140816Y48668D01*
X140892Y48704D01*
X140967Y48744D01*
X141040Y48787D01*
X141111Y48833D01*
X141180Y48882D01*
X141247Y48935D01*
X141311Y48991D01*
X141372Y49049D01*
X141430Y49110D01*
X141486Y49174D01*
X141539Y49241D01*
X141588Y49310D01*
X141634Y49381D01*
X141677Y49454D01*
X141717Y49529D01*
X141753Y49605D01*
X141785Y49683D01*
X141814Y49763D01*
X141839Y49844D01*
X141860Y49926D01*
X141878Y50009D01*
X141891Y50093D01*
X141901Y50177D01*
X141907Y50261D01*
X141909Y50346D01*
X134595Y53648D02*
X132760Y55116D01*
X132760Y48512D01*
X130926Y48512D02*
X134595Y48512D01*
X127280Y48512D02*
X125445Y48512D01*
X125360Y48514D01*
X125276Y48520D01*
X125192Y48530D01*
X125108Y48543D01*
X125025Y48561D01*
X124943Y48582D01*
X124862Y48607D01*
X124782Y48636D01*
X124704Y48668D01*
X124628Y48704D01*
X124553Y48744D01*
X124480Y48787D01*
X124409Y48833D01*
X124340Y48882D01*
X124273Y48935D01*
X124209Y48991D01*
X124148Y49049D01*
X124090Y49110D01*
X124034Y49174D01*
X123981Y49241D01*
X123932Y49310D01*
X123886Y49381D01*
X123843Y49454D01*
X123803Y49529D01*
X123767Y49605D01*
X123735Y49683D01*
X123706Y49763D01*
X123681Y49844D01*
X123660Y49926D01*
X123642Y50009D01*
X123629Y50093D01*
X123619Y50177D01*
X123613Y50261D01*
X123611Y50346D01*
X123613Y50431D01*
X123619Y50515D01*
X123629Y50599D01*
X123642Y50683D01*
X123660Y50766D01*
X123681Y50848D01*
X123706Y50929D01*
X123735Y51009D01*
X123767Y51087D01*
X123803Y51163D01*
X123843Y51238D01*
X123886Y51311D01*
X123932Y51382D01*
X123981Y51451D01*
X124034Y51518D01*
X124090Y51582D01*
X124148Y51643D01*
X124209Y51701D01*
X124273Y51757D01*
X124340Y51810D01*
X124409Y51859D01*
X124480Y51905D01*
X124553Y51948D01*
X124628Y51988D01*
X124704Y52024D01*
X124782Y52056D01*
X124862Y52085D01*
X124943Y52110D01*
X125025Y52131D01*
X125108Y52149D01*
X125192Y52162D01*
X125276Y52172D01*
X125360Y52178D01*
X125445Y52180D01*
X125078Y55116D02*
X127280Y55116D01*
X125078Y55116D02*
X125002Y55114D01*
X124927Y55108D01*
X124852Y55099D01*
X124778Y55085D01*
X124704Y55068D01*
X124632Y55046D01*
X124560Y55022D01*
X124490Y54993D01*
X124422Y54961D01*
X124355Y54926D01*
X124290Y54887D01*
X124227Y54844D01*
X124167Y54799D01*
X124109Y54751D01*
X124053Y54699D01*
X124001Y54645D01*
X123951Y54588D01*
X123904Y54529D01*
X123860Y54468D01*
X123819Y54404D01*
X123782Y54338D01*
X123748Y54270D01*
X123718Y54201D01*
X123691Y54130D01*
X123668Y54058D01*
X123649Y53985D01*
X123634Y53911D01*
X123622Y53836D01*
X123614Y53761D01*
X123610Y53686D01*
X123610Y53610D01*
X123614Y53535D01*
X123622Y53460D01*
X123634Y53385D01*
X123649Y53311D01*
X123668Y53238D01*
X123691Y53166D01*
X123718Y53095D01*
X123748Y53026D01*
X123782Y52958D01*
X123819Y52892D01*
X123860Y52828D01*
X123904Y52767D01*
X123951Y52708D01*
X124001Y52651D01*
X124053Y52597D01*
X124109Y52545D01*
X124167Y52497D01*
X124227Y52452D01*
X124290Y52409D01*
X124355Y52370D01*
X124422Y52335D01*
X124490Y52303D01*
X124560Y52274D01*
X124632Y52250D01*
X124704Y52228D01*
X124778Y52211D01*
X124852Y52197D01*
X124927Y52188D01*
X125002Y52182D01*
X125078Y52180D01*
X125078Y52181D02*
X126546Y52181D01*
X153858Y42416D02*
X153858Y35812D01*
X153858Y42416D02*
X152024Y42416D01*
X151939Y42414D01*
X151855Y42408D01*
X151771Y42398D01*
X151687Y42385D01*
X151604Y42367D01*
X151522Y42346D01*
X151441Y42321D01*
X151361Y42292D01*
X151283Y42260D01*
X151207Y42224D01*
X151132Y42184D01*
X151059Y42141D01*
X150988Y42095D01*
X150919Y42046D01*
X150852Y41993D01*
X150788Y41937D01*
X150727Y41879D01*
X150669Y41818D01*
X150613Y41754D01*
X150560Y41687D01*
X150511Y41618D01*
X150465Y41547D01*
X150422Y41474D01*
X150382Y41399D01*
X150346Y41323D01*
X150314Y41245D01*
X150285Y41165D01*
X150260Y41084D01*
X150239Y41002D01*
X150221Y40919D01*
X150208Y40835D01*
X150198Y40751D01*
X150192Y40667D01*
X150190Y40582D01*
X150189Y40582D02*
X150189Y37646D01*
X150190Y37646D02*
X150192Y37561D01*
X150198Y37477D01*
X150208Y37393D01*
X150221Y37309D01*
X150239Y37226D01*
X150260Y37144D01*
X150285Y37063D01*
X150314Y36983D01*
X150346Y36905D01*
X150382Y36829D01*
X150422Y36754D01*
X150465Y36681D01*
X150511Y36610D01*
X150560Y36541D01*
X150613Y36474D01*
X150669Y36410D01*
X150727Y36349D01*
X150788Y36291D01*
X150852Y36235D01*
X150919Y36182D01*
X150988Y36133D01*
X151059Y36087D01*
X151132Y36044D01*
X151207Y36004D01*
X151283Y35968D01*
X151361Y35936D01*
X151441Y35907D01*
X151522Y35882D01*
X151604Y35861D01*
X151687Y35843D01*
X151771Y35830D01*
X151855Y35820D01*
X151939Y35814D01*
X152024Y35812D01*
X153858Y35812D01*
X145928Y35812D02*
X145928Y42416D01*
X146661Y35812D02*
X145194Y35812D01*
X145194Y42416D02*
X146661Y42416D01*
X141910Y40582D02*
X141910Y37646D01*
X141909Y40582D02*
X141907Y40667D01*
X141901Y40751D01*
X141891Y40835D01*
X141878Y40919D01*
X141860Y41002D01*
X141839Y41084D01*
X141814Y41165D01*
X141785Y41245D01*
X141753Y41323D01*
X141717Y41399D01*
X141677Y41474D01*
X141634Y41547D01*
X141588Y41618D01*
X141539Y41687D01*
X141486Y41754D01*
X141430Y41818D01*
X141372Y41879D01*
X141311Y41937D01*
X141247Y41993D01*
X141180Y42046D01*
X141111Y42095D01*
X141040Y42141D01*
X140967Y42184D01*
X140892Y42224D01*
X140816Y42260D01*
X140738Y42292D01*
X140658Y42321D01*
X140577Y42346D01*
X140495Y42367D01*
X140412Y42385D01*
X140328Y42398D01*
X140244Y42408D01*
X140160Y42414D01*
X140075Y42416D01*
X139990Y42414D01*
X139906Y42408D01*
X139822Y42398D01*
X139738Y42385D01*
X139655Y42367D01*
X139573Y42346D01*
X139492Y42321D01*
X139412Y42292D01*
X139334Y42260D01*
X139258Y42224D01*
X139183Y42184D01*
X139110Y42141D01*
X139039Y42095D01*
X138970Y42046D01*
X138903Y41993D01*
X138839Y41937D01*
X138778Y41879D01*
X138720Y41818D01*
X138664Y41754D01*
X138611Y41687D01*
X138562Y41618D01*
X138516Y41547D01*
X138473Y41474D01*
X138433Y41399D01*
X138397Y41323D01*
X138365Y41245D01*
X138336Y41165D01*
X138311Y41084D01*
X138290Y41002D01*
X138272Y40919D01*
X138259Y40835D01*
X138249Y40751D01*
X138243Y40667D01*
X138241Y40582D01*
X138241Y37646D01*
X138243Y37561D01*
X138249Y37477D01*
X138259Y37393D01*
X138272Y37309D01*
X138290Y37226D01*
X138311Y37144D01*
X138336Y37063D01*
X138365Y36983D01*
X138397Y36905D01*
X138433Y36829D01*
X138473Y36754D01*
X138516Y36681D01*
X138562Y36610D01*
X138611Y36541D01*
X138664Y36474D01*
X138720Y36410D01*
X138778Y36349D01*
X138839Y36291D01*
X138903Y36235D01*
X138970Y36182D01*
X139039Y36133D01*
X139110Y36087D01*
X139183Y36044D01*
X139258Y36004D01*
X139334Y35968D01*
X139412Y35936D01*
X139492Y35907D01*
X139573Y35882D01*
X139655Y35861D01*
X139738Y35843D01*
X139822Y35830D01*
X139906Y35820D01*
X139990Y35814D01*
X140075Y35812D01*
X140160Y35814D01*
X140244Y35820D01*
X140328Y35830D01*
X140412Y35843D01*
X140495Y35861D01*
X140577Y35882D01*
X140658Y35907D01*
X140738Y35936D01*
X140816Y35968D01*
X140892Y36004D01*
X140967Y36044D01*
X141040Y36087D01*
X141111Y36133D01*
X141180Y36182D01*
X141247Y36235D01*
X141311Y36291D01*
X141372Y36349D01*
X141430Y36410D01*
X141486Y36474D01*
X141539Y36541D01*
X141588Y36610D01*
X141634Y36681D01*
X141677Y36754D01*
X141717Y36829D01*
X141753Y36905D01*
X141785Y36983D01*
X141814Y37063D01*
X141839Y37144D01*
X141860Y37226D01*
X141878Y37309D01*
X141891Y37393D01*
X141901Y37477D01*
X141907Y37561D01*
X141909Y37646D01*
X134595Y40948D02*
X132760Y42416D01*
X132760Y35812D01*
X130926Y35812D02*
X134595Y35812D01*
X125262Y42416D02*
X125183Y42414D01*
X125105Y42409D01*
X125027Y42399D01*
X124950Y42386D01*
X124873Y42369D01*
X124797Y42349D01*
X124722Y42325D01*
X124648Y42298D01*
X124576Y42267D01*
X124505Y42232D01*
X124437Y42195D01*
X124369Y42154D01*
X124304Y42110D01*
X124241Y42063D01*
X124181Y42013D01*
X124123Y41960D01*
X124067Y41904D01*
X124014Y41846D01*
X123964Y41786D01*
X123917Y41723D01*
X123873Y41658D01*
X123832Y41591D01*
X123795Y41522D01*
X123760Y41451D01*
X123729Y41379D01*
X123702Y41305D01*
X123678Y41230D01*
X123658Y41154D01*
X123641Y41077D01*
X123628Y41000D01*
X123618Y40922D01*
X123613Y40844D01*
X123611Y40765D01*
X125262Y42416D02*
X125351Y42414D01*
X125440Y42409D01*
X125528Y42399D01*
X125616Y42386D01*
X125703Y42370D01*
X125790Y42349D01*
X125875Y42325D01*
X125960Y42298D01*
X126043Y42267D01*
X126125Y42232D01*
X126206Y42194D01*
X126285Y42153D01*
X126361Y42109D01*
X126437Y42061D01*
X126510Y42010D01*
X126580Y41957D01*
X126649Y41900D01*
X126715Y41840D01*
X126778Y41778D01*
X126839Y41713D01*
X126897Y41646D01*
X126952Y41576D01*
X127005Y41504D01*
X127054Y41430D01*
X127100Y41354D01*
X127142Y41276D01*
X127182Y41196D01*
X127218Y41115D01*
X127251Y41032D01*
X127280Y40948D01*
X124161Y39481D02*
X124105Y39537D01*
X124051Y39596D01*
X124000Y39657D01*
X123951Y39721D01*
X123906Y39786D01*
X123863Y39854D01*
X123824Y39923D01*
X123787Y39994D01*
X123754Y40067D01*
X123725Y40141D01*
X123698Y40216D01*
X123675Y40292D01*
X123656Y40370D01*
X123640Y40448D01*
X123627Y40526D01*
X123618Y40606D01*
X123613Y40685D01*
X123611Y40765D01*
X124161Y39481D02*
X127280Y35812D01*
X123611Y35812D01*
X153858Y29716D02*
X153858Y23112D01*
X153858Y29716D02*
X152024Y29716D01*
X151939Y29714D01*
X151855Y29708D01*
X151771Y29698D01*
X151687Y29685D01*
X151604Y29667D01*
X151522Y29646D01*
X151441Y29621D01*
X151361Y29592D01*
X151283Y29560D01*
X151207Y29524D01*
X151132Y29484D01*
X151059Y29441D01*
X150988Y29395D01*
X150919Y29346D01*
X150852Y29293D01*
X150788Y29237D01*
X150727Y29179D01*
X150669Y29118D01*
X150613Y29054D01*
X150560Y28987D01*
X150511Y28918D01*
X150465Y28847D01*
X150422Y28774D01*
X150382Y28699D01*
X150346Y28623D01*
X150314Y28545D01*
X150285Y28465D01*
X150260Y28384D01*
X150239Y28302D01*
X150221Y28219D01*
X150208Y28135D01*
X150198Y28051D01*
X150192Y27967D01*
X150190Y27882D01*
X150189Y27882D02*
X150189Y24946D01*
X150190Y24946D02*
X150192Y24861D01*
X150198Y24777D01*
X150208Y24693D01*
X150221Y24609D01*
X150239Y24526D01*
X150260Y24444D01*
X150285Y24363D01*
X150314Y24283D01*
X150346Y24205D01*
X150382Y24129D01*
X150422Y24054D01*
X150465Y23981D01*
X150511Y23910D01*
X150560Y23841D01*
X150613Y23774D01*
X150669Y23710D01*
X150727Y23649D01*
X150788Y23591D01*
X150852Y23535D01*
X150919Y23482D01*
X150988Y23433D01*
X151059Y23387D01*
X151132Y23344D01*
X151207Y23304D01*
X151283Y23268D01*
X151361Y23236D01*
X151441Y23207D01*
X151522Y23182D01*
X151604Y23161D01*
X151687Y23143D01*
X151771Y23130D01*
X151855Y23120D01*
X151939Y23114D01*
X152024Y23112D01*
X153858Y23112D01*
X145928Y23112D02*
X145928Y29716D01*
X146661Y23112D02*
X145194Y23112D01*
X145194Y29716D02*
X146661Y29716D01*
X141910Y27882D02*
X141910Y24946D01*
X141909Y27882D02*
X141907Y27967D01*
X141901Y28051D01*
X141891Y28135D01*
X141878Y28219D01*
X141860Y28302D01*
X141839Y28384D01*
X141814Y28465D01*
X141785Y28545D01*
X141753Y28623D01*
X141717Y28699D01*
X141677Y28774D01*
X141634Y28847D01*
X141588Y28918D01*
X141539Y28987D01*
X141486Y29054D01*
X141430Y29118D01*
X141372Y29179D01*
X141311Y29237D01*
X141247Y29293D01*
X141180Y29346D01*
X141111Y29395D01*
X141040Y29441D01*
X140967Y29484D01*
X140892Y29524D01*
X140816Y29560D01*
X140738Y29592D01*
X140658Y29621D01*
X140577Y29646D01*
X140495Y29667D01*
X140412Y29685D01*
X140328Y29698D01*
X140244Y29708D01*
X140160Y29714D01*
X140075Y29716D01*
X139990Y29714D01*
X139906Y29708D01*
X139822Y29698D01*
X139738Y29685D01*
X139655Y29667D01*
X139573Y29646D01*
X139492Y29621D01*
X139412Y29592D01*
X139334Y29560D01*
X139258Y29524D01*
X139183Y29484D01*
X139110Y29441D01*
X139039Y29395D01*
X138970Y29346D01*
X138903Y29293D01*
X138839Y29237D01*
X138778Y29179D01*
X138720Y29118D01*
X138664Y29054D01*
X138611Y28987D01*
X138562Y28918D01*
X138516Y28847D01*
X138473Y28774D01*
X138433Y28699D01*
X138397Y28623D01*
X138365Y28545D01*
X138336Y28465D01*
X138311Y28384D01*
X138290Y28302D01*
X138272Y28219D01*
X138259Y28135D01*
X138249Y28051D01*
X138243Y27967D01*
X138241Y27882D01*
X138241Y24946D01*
X138243Y24861D01*
X138249Y24777D01*
X138259Y24693D01*
X138272Y24609D01*
X138290Y24526D01*
X138311Y24444D01*
X138336Y24363D01*
X138365Y24283D01*
X138397Y24205D01*
X138433Y24129D01*
X138473Y24054D01*
X138516Y23981D01*
X138562Y23910D01*
X138611Y23841D01*
X138664Y23774D01*
X138720Y23710D01*
X138778Y23649D01*
X138839Y23591D01*
X138903Y23535D01*
X138970Y23482D01*
X139039Y23433D01*
X139110Y23387D01*
X139183Y23344D01*
X139258Y23304D01*
X139334Y23268D01*
X139412Y23236D01*
X139492Y23207D01*
X139573Y23182D01*
X139655Y23161D01*
X139738Y23143D01*
X139822Y23130D01*
X139906Y23120D01*
X139990Y23114D01*
X140075Y23112D01*
X140160Y23114D01*
X140244Y23120D01*
X140328Y23130D01*
X140412Y23143D01*
X140495Y23161D01*
X140577Y23182D01*
X140658Y23207D01*
X140738Y23236D01*
X140816Y23268D01*
X140892Y23304D01*
X140967Y23344D01*
X141040Y23387D01*
X141111Y23433D01*
X141180Y23482D01*
X141247Y23535D01*
X141311Y23591D01*
X141372Y23649D01*
X141430Y23710D01*
X141486Y23774D01*
X141539Y23841D01*
X141588Y23910D01*
X141634Y23981D01*
X141677Y24054D01*
X141717Y24129D01*
X141753Y24205D01*
X141785Y24283D01*
X141814Y24363D01*
X141839Y24444D01*
X141860Y24526D01*
X141878Y24609D01*
X141891Y24693D01*
X141901Y24777D01*
X141907Y24861D01*
X141909Y24946D01*
X134595Y28248D02*
X132760Y29716D01*
X132760Y23112D01*
X130926Y23112D02*
X134595Y23112D01*
X127280Y28248D02*
X125445Y29716D01*
X125445Y23112D01*
X123611Y23112D02*
X127280Y23112D01*
X31176Y139952D02*
X24572Y139952D01*
X31176Y139952D02*
X31176Y141786D01*
X31174Y141871D01*
X31168Y141955D01*
X31158Y142039D01*
X31145Y142123D01*
X31127Y142206D01*
X31106Y142288D01*
X31081Y142369D01*
X31052Y142449D01*
X31020Y142527D01*
X30984Y142603D01*
X30944Y142678D01*
X30901Y142751D01*
X30855Y142822D01*
X30806Y142891D01*
X30753Y142958D01*
X30697Y143022D01*
X30639Y143083D01*
X30578Y143141D01*
X30514Y143197D01*
X30447Y143250D01*
X30378Y143299D01*
X30307Y143345D01*
X30234Y143388D01*
X30159Y143428D01*
X30083Y143464D01*
X30005Y143496D01*
X29925Y143525D01*
X29844Y143550D01*
X29762Y143571D01*
X29679Y143589D01*
X29595Y143602D01*
X29511Y143612D01*
X29427Y143618D01*
X29342Y143620D01*
X29342Y143621D02*
X26406Y143621D01*
X26406Y143620D02*
X26321Y143618D01*
X26237Y143612D01*
X26153Y143602D01*
X26069Y143589D01*
X25986Y143571D01*
X25904Y143550D01*
X25823Y143525D01*
X25743Y143496D01*
X25665Y143464D01*
X25589Y143428D01*
X25514Y143388D01*
X25441Y143345D01*
X25370Y143299D01*
X25301Y143250D01*
X25234Y143197D01*
X25170Y143141D01*
X25109Y143083D01*
X25051Y143022D01*
X24995Y142958D01*
X24942Y142891D01*
X24893Y142822D01*
X24847Y142751D01*
X24804Y142678D01*
X24764Y142603D01*
X24728Y142527D01*
X24696Y142449D01*
X24667Y142369D01*
X24642Y142288D01*
X24621Y142206D01*
X24603Y142123D01*
X24590Y142039D01*
X24580Y141955D01*
X24574Y141871D01*
X24572Y141786D01*
X24572Y139952D01*
X24572Y147882D02*
X31176Y147882D01*
X24572Y147149D02*
X24572Y148616D01*
X31176Y148616D02*
X31176Y147149D01*
X29342Y151900D02*
X26406Y151900D01*
X29342Y151901D02*
X29427Y151903D01*
X29511Y151909D01*
X29595Y151919D01*
X29679Y151932D01*
X29762Y151950D01*
X29844Y151971D01*
X29925Y151996D01*
X30005Y152025D01*
X30083Y152057D01*
X30159Y152093D01*
X30234Y152133D01*
X30307Y152176D01*
X30378Y152222D01*
X30447Y152271D01*
X30514Y152324D01*
X30578Y152380D01*
X30639Y152438D01*
X30697Y152499D01*
X30753Y152563D01*
X30806Y152630D01*
X30855Y152699D01*
X30901Y152770D01*
X30944Y152843D01*
X30984Y152918D01*
X31020Y152994D01*
X31052Y153072D01*
X31081Y153152D01*
X31106Y153233D01*
X31127Y153315D01*
X31145Y153398D01*
X31158Y153482D01*
X31168Y153566D01*
X31174Y153650D01*
X31176Y153735D01*
X31174Y153820D01*
X31168Y153904D01*
X31158Y153988D01*
X31145Y154072D01*
X31127Y154155D01*
X31106Y154237D01*
X31081Y154318D01*
X31052Y154398D01*
X31020Y154476D01*
X30984Y154552D01*
X30944Y154627D01*
X30901Y154700D01*
X30855Y154771D01*
X30806Y154840D01*
X30753Y154907D01*
X30697Y154971D01*
X30639Y155032D01*
X30578Y155090D01*
X30514Y155146D01*
X30447Y155199D01*
X30378Y155248D01*
X30307Y155294D01*
X30234Y155337D01*
X30159Y155377D01*
X30083Y155413D01*
X30005Y155445D01*
X29925Y155474D01*
X29844Y155499D01*
X29762Y155520D01*
X29679Y155538D01*
X29595Y155551D01*
X29511Y155561D01*
X29427Y155567D01*
X29342Y155569D01*
X26406Y155569D01*
X26321Y155567D01*
X26237Y155561D01*
X26153Y155551D01*
X26069Y155538D01*
X25986Y155520D01*
X25904Y155499D01*
X25823Y155474D01*
X25743Y155445D01*
X25665Y155413D01*
X25589Y155377D01*
X25514Y155337D01*
X25441Y155294D01*
X25370Y155248D01*
X25301Y155199D01*
X25234Y155146D01*
X25170Y155090D01*
X25109Y155032D01*
X25051Y154971D01*
X24995Y154907D01*
X24942Y154840D01*
X24893Y154771D01*
X24847Y154700D01*
X24804Y154627D01*
X24764Y154552D01*
X24728Y154476D01*
X24696Y154398D01*
X24667Y154318D01*
X24642Y154237D01*
X24621Y154155D01*
X24603Y154072D01*
X24590Y153988D01*
X24580Y153904D01*
X24574Y153820D01*
X24572Y153735D01*
X24574Y153650D01*
X24580Y153566D01*
X24590Y153482D01*
X24603Y153398D01*
X24621Y153315D01*
X24642Y153233D01*
X24667Y153152D01*
X24696Y153072D01*
X24728Y152994D01*
X24764Y152918D01*
X24804Y152843D01*
X24847Y152770D01*
X24893Y152699D01*
X24942Y152630D01*
X24995Y152563D01*
X25051Y152499D01*
X25109Y152438D01*
X25170Y152380D01*
X25234Y152324D01*
X25301Y152271D01*
X25370Y152222D01*
X25441Y152176D01*
X25514Y152133D01*
X25589Y152093D01*
X25665Y152057D01*
X25743Y152025D01*
X25823Y151996D01*
X25904Y151971D01*
X25986Y151950D01*
X26069Y151932D01*
X26153Y151919D01*
X26237Y151909D01*
X26321Y151903D01*
X26406Y151901D01*
X26040Y159215D02*
X31176Y160683D01*
X26040Y159215D02*
X26040Y162884D01*
X27507Y161784D02*
X24572Y161784D01*
X38542Y139952D02*
X45146Y139952D01*
X45146Y141786D01*
X45144Y141871D01*
X45138Y141955D01*
X45128Y142039D01*
X45115Y142123D01*
X45097Y142206D01*
X45076Y142288D01*
X45051Y142369D01*
X45022Y142449D01*
X44990Y142527D01*
X44954Y142603D01*
X44914Y142678D01*
X44871Y142751D01*
X44825Y142822D01*
X44776Y142891D01*
X44723Y142958D01*
X44667Y143022D01*
X44609Y143083D01*
X44548Y143141D01*
X44484Y143197D01*
X44417Y143250D01*
X44348Y143299D01*
X44277Y143345D01*
X44204Y143388D01*
X44129Y143428D01*
X44053Y143464D01*
X43975Y143496D01*
X43895Y143525D01*
X43814Y143550D01*
X43732Y143571D01*
X43649Y143589D01*
X43565Y143602D01*
X43481Y143612D01*
X43397Y143618D01*
X43312Y143620D01*
X43312Y143621D02*
X40376Y143621D01*
X40376Y143620D02*
X40291Y143618D01*
X40207Y143612D01*
X40123Y143602D01*
X40039Y143589D01*
X39956Y143571D01*
X39874Y143550D01*
X39793Y143525D01*
X39713Y143496D01*
X39635Y143464D01*
X39559Y143428D01*
X39484Y143388D01*
X39411Y143345D01*
X39340Y143299D01*
X39271Y143250D01*
X39204Y143197D01*
X39140Y143141D01*
X39079Y143083D01*
X39021Y143022D01*
X38965Y142958D01*
X38912Y142891D01*
X38863Y142822D01*
X38817Y142751D01*
X38774Y142678D01*
X38734Y142603D01*
X38698Y142527D01*
X38666Y142449D01*
X38637Y142369D01*
X38612Y142288D01*
X38591Y142206D01*
X38573Y142123D01*
X38560Y142039D01*
X38550Y141955D01*
X38544Y141871D01*
X38542Y141786D01*
X38542Y139952D01*
X38542Y147882D02*
X45146Y147882D01*
X38542Y147149D02*
X38542Y148616D01*
X45146Y148616D02*
X45146Y147149D01*
X43312Y151900D02*
X40376Y151900D01*
X43312Y151901D02*
X43397Y151903D01*
X43481Y151909D01*
X43565Y151919D01*
X43649Y151932D01*
X43732Y151950D01*
X43814Y151971D01*
X43895Y151996D01*
X43975Y152025D01*
X44053Y152057D01*
X44129Y152093D01*
X44204Y152133D01*
X44277Y152176D01*
X44348Y152222D01*
X44417Y152271D01*
X44484Y152324D01*
X44548Y152380D01*
X44609Y152438D01*
X44667Y152499D01*
X44723Y152563D01*
X44776Y152630D01*
X44825Y152699D01*
X44871Y152770D01*
X44914Y152843D01*
X44954Y152918D01*
X44990Y152994D01*
X45022Y153072D01*
X45051Y153152D01*
X45076Y153233D01*
X45097Y153315D01*
X45115Y153398D01*
X45128Y153482D01*
X45138Y153566D01*
X45144Y153650D01*
X45146Y153735D01*
X45144Y153820D01*
X45138Y153904D01*
X45128Y153988D01*
X45115Y154072D01*
X45097Y154155D01*
X45076Y154237D01*
X45051Y154318D01*
X45022Y154398D01*
X44990Y154476D01*
X44954Y154552D01*
X44914Y154627D01*
X44871Y154700D01*
X44825Y154771D01*
X44776Y154840D01*
X44723Y154907D01*
X44667Y154971D01*
X44609Y155032D01*
X44548Y155090D01*
X44484Y155146D01*
X44417Y155199D01*
X44348Y155248D01*
X44277Y155294D01*
X44204Y155337D01*
X44129Y155377D01*
X44053Y155413D01*
X43975Y155445D01*
X43895Y155474D01*
X43814Y155499D01*
X43732Y155520D01*
X43649Y155538D01*
X43565Y155551D01*
X43481Y155561D01*
X43397Y155567D01*
X43312Y155569D01*
X40376Y155569D01*
X40291Y155567D01*
X40207Y155561D01*
X40123Y155551D01*
X40039Y155538D01*
X39956Y155520D01*
X39874Y155499D01*
X39793Y155474D01*
X39713Y155445D01*
X39635Y155413D01*
X39559Y155377D01*
X39484Y155337D01*
X39411Y155294D01*
X39340Y155248D01*
X39271Y155199D01*
X39204Y155146D01*
X39140Y155090D01*
X39079Y155032D01*
X39021Y154971D01*
X38965Y154907D01*
X38912Y154840D01*
X38863Y154771D01*
X38817Y154700D01*
X38774Y154627D01*
X38734Y154552D01*
X38698Y154476D01*
X38666Y154398D01*
X38637Y154318D01*
X38612Y154237D01*
X38591Y154155D01*
X38573Y154072D01*
X38560Y153988D01*
X38550Y153904D01*
X38544Y153820D01*
X38542Y153735D01*
X38544Y153650D01*
X38550Y153566D01*
X38560Y153482D01*
X38573Y153398D01*
X38591Y153315D01*
X38612Y153233D01*
X38637Y153152D01*
X38666Y153072D01*
X38698Y152994D01*
X38734Y152918D01*
X38774Y152843D01*
X38817Y152770D01*
X38863Y152699D01*
X38912Y152630D01*
X38965Y152563D01*
X39021Y152499D01*
X39079Y152438D01*
X39140Y152380D01*
X39204Y152324D01*
X39271Y152271D01*
X39340Y152222D01*
X39411Y152176D01*
X39484Y152133D01*
X39559Y152093D01*
X39635Y152057D01*
X39713Y152025D01*
X39793Y151996D01*
X39874Y151971D01*
X39956Y151950D01*
X40039Y151932D01*
X40123Y151919D01*
X40207Y151909D01*
X40291Y151903D01*
X40376Y151901D01*
X38542Y159215D02*
X38542Y161417D01*
X38544Y161491D01*
X38550Y161566D01*
X38559Y161639D01*
X38572Y161713D01*
X38589Y161785D01*
X38609Y161856D01*
X38633Y161927D01*
X38661Y161996D01*
X38692Y162063D01*
X38726Y162129D01*
X38764Y162194D01*
X38805Y162256D01*
X38849Y162316D01*
X38896Y162373D01*
X38946Y162428D01*
X38999Y162481D01*
X39054Y162531D01*
X39111Y162578D01*
X39171Y162622D01*
X39233Y162663D01*
X39298Y162701D01*
X39363Y162735D01*
X39431Y162766D01*
X39500Y162794D01*
X39571Y162818D01*
X39642Y162838D01*
X39714Y162855D01*
X39788Y162868D01*
X39861Y162877D01*
X39936Y162883D01*
X40010Y162885D01*
X40010Y162884D02*
X40743Y162884D01*
X40743Y162885D02*
X40817Y162883D01*
X40892Y162877D01*
X40965Y162868D01*
X41039Y162855D01*
X41111Y162838D01*
X41182Y162818D01*
X41253Y162794D01*
X41322Y162766D01*
X41389Y162735D01*
X41455Y162701D01*
X41520Y162663D01*
X41582Y162622D01*
X41642Y162578D01*
X41699Y162531D01*
X41754Y162481D01*
X41807Y162428D01*
X41857Y162373D01*
X41904Y162316D01*
X41948Y162256D01*
X41989Y162194D01*
X42027Y162129D01*
X42061Y162063D01*
X42092Y161996D01*
X42120Y161927D01*
X42144Y161856D01*
X42164Y161785D01*
X42181Y161713D01*
X42194Y161639D01*
X42203Y161566D01*
X42209Y161491D01*
X42211Y161417D01*
X42211Y159215D01*
X45146Y159215D01*
X45146Y162884D01*
X51242Y139952D02*
X57846Y139952D01*
X57846Y141786D01*
X57844Y141871D01*
X57838Y141955D01*
X57828Y142039D01*
X57815Y142123D01*
X57797Y142206D01*
X57776Y142288D01*
X57751Y142369D01*
X57722Y142449D01*
X57690Y142527D01*
X57654Y142603D01*
X57614Y142678D01*
X57571Y142751D01*
X57525Y142822D01*
X57476Y142891D01*
X57423Y142958D01*
X57367Y143022D01*
X57309Y143083D01*
X57248Y143141D01*
X57184Y143197D01*
X57117Y143250D01*
X57048Y143299D01*
X56977Y143345D01*
X56904Y143388D01*
X56829Y143428D01*
X56753Y143464D01*
X56675Y143496D01*
X56595Y143525D01*
X56514Y143550D01*
X56432Y143571D01*
X56349Y143589D01*
X56265Y143602D01*
X56181Y143612D01*
X56097Y143618D01*
X56012Y143620D01*
X56012Y143621D02*
X53076Y143621D01*
X53076Y143620D02*
X52991Y143618D01*
X52907Y143612D01*
X52823Y143602D01*
X52739Y143589D01*
X52656Y143571D01*
X52574Y143550D01*
X52493Y143525D01*
X52413Y143496D01*
X52335Y143464D01*
X52259Y143428D01*
X52184Y143388D01*
X52111Y143345D01*
X52040Y143299D01*
X51971Y143250D01*
X51904Y143197D01*
X51840Y143141D01*
X51779Y143083D01*
X51721Y143022D01*
X51665Y142958D01*
X51612Y142891D01*
X51563Y142822D01*
X51517Y142751D01*
X51474Y142678D01*
X51434Y142603D01*
X51398Y142527D01*
X51366Y142449D01*
X51337Y142369D01*
X51312Y142288D01*
X51291Y142206D01*
X51273Y142123D01*
X51260Y142039D01*
X51250Y141955D01*
X51244Y141871D01*
X51242Y141786D01*
X51242Y139952D01*
X51242Y147882D02*
X57846Y147882D01*
X51242Y147149D02*
X51242Y148616D01*
X57846Y148616D02*
X57846Y147149D01*
X56012Y151900D02*
X53076Y151900D01*
X56012Y151901D02*
X56097Y151903D01*
X56181Y151909D01*
X56265Y151919D01*
X56349Y151932D01*
X56432Y151950D01*
X56514Y151971D01*
X56595Y151996D01*
X56675Y152025D01*
X56753Y152057D01*
X56829Y152093D01*
X56904Y152133D01*
X56977Y152176D01*
X57048Y152222D01*
X57117Y152271D01*
X57184Y152324D01*
X57248Y152380D01*
X57309Y152438D01*
X57367Y152499D01*
X57423Y152563D01*
X57476Y152630D01*
X57525Y152699D01*
X57571Y152770D01*
X57614Y152843D01*
X57654Y152918D01*
X57690Y152994D01*
X57722Y153072D01*
X57751Y153152D01*
X57776Y153233D01*
X57797Y153315D01*
X57815Y153398D01*
X57828Y153482D01*
X57838Y153566D01*
X57844Y153650D01*
X57846Y153735D01*
X57844Y153820D01*
X57838Y153904D01*
X57828Y153988D01*
X57815Y154072D01*
X57797Y154155D01*
X57776Y154237D01*
X57751Y154318D01*
X57722Y154398D01*
X57690Y154476D01*
X57654Y154552D01*
X57614Y154627D01*
X57571Y154700D01*
X57525Y154771D01*
X57476Y154840D01*
X57423Y154907D01*
X57367Y154971D01*
X57309Y155032D01*
X57248Y155090D01*
X57184Y155146D01*
X57117Y155199D01*
X57048Y155248D01*
X56977Y155294D01*
X56904Y155337D01*
X56829Y155377D01*
X56753Y155413D01*
X56675Y155445D01*
X56595Y155474D01*
X56514Y155499D01*
X56432Y155520D01*
X56349Y155538D01*
X56265Y155551D01*
X56181Y155561D01*
X56097Y155567D01*
X56012Y155569D01*
X53076Y155569D01*
X52991Y155567D01*
X52907Y155561D01*
X52823Y155551D01*
X52739Y155538D01*
X52656Y155520D01*
X52574Y155499D01*
X52493Y155474D01*
X52413Y155445D01*
X52335Y155413D01*
X52259Y155377D01*
X52184Y155337D01*
X52111Y155294D01*
X52040Y155248D01*
X51971Y155199D01*
X51904Y155146D01*
X51840Y155090D01*
X51779Y155032D01*
X51721Y154971D01*
X51665Y154907D01*
X51612Y154840D01*
X51563Y154771D01*
X51517Y154700D01*
X51474Y154627D01*
X51434Y154552D01*
X51398Y154476D01*
X51366Y154398D01*
X51337Y154318D01*
X51312Y154237D01*
X51291Y154155D01*
X51273Y154072D01*
X51260Y153988D01*
X51250Y153904D01*
X51244Y153820D01*
X51242Y153735D01*
X51244Y153650D01*
X51250Y153566D01*
X51260Y153482D01*
X51273Y153398D01*
X51291Y153315D01*
X51312Y153233D01*
X51337Y153152D01*
X51366Y153072D01*
X51398Y152994D01*
X51434Y152918D01*
X51474Y152843D01*
X51517Y152770D01*
X51563Y152699D01*
X51612Y152630D01*
X51665Y152563D01*
X51721Y152499D01*
X51779Y152438D01*
X51840Y152380D01*
X51904Y152324D01*
X51971Y152271D01*
X52040Y152222D01*
X52111Y152176D01*
X52184Y152133D01*
X52259Y152093D01*
X52335Y152057D01*
X52413Y152025D01*
X52493Y151996D01*
X52574Y151971D01*
X52656Y151950D01*
X52739Y151932D01*
X52823Y151919D01*
X52907Y151909D01*
X52991Y151903D01*
X53076Y151901D01*
X54911Y159215D02*
X54911Y161417D01*
X54909Y161491D01*
X54903Y161566D01*
X54894Y161639D01*
X54881Y161713D01*
X54864Y161785D01*
X54844Y161856D01*
X54820Y161927D01*
X54792Y161996D01*
X54761Y162063D01*
X54727Y162129D01*
X54689Y162194D01*
X54648Y162256D01*
X54604Y162316D01*
X54557Y162373D01*
X54507Y162428D01*
X54454Y162481D01*
X54399Y162531D01*
X54342Y162578D01*
X54282Y162622D01*
X54220Y162663D01*
X54155Y162701D01*
X54089Y162735D01*
X54022Y162766D01*
X53953Y162794D01*
X53882Y162818D01*
X53811Y162838D01*
X53739Y162855D01*
X53665Y162868D01*
X53592Y162877D01*
X53517Y162883D01*
X53443Y162885D01*
X53443Y162884D02*
X53076Y162884D01*
X52991Y162882D01*
X52907Y162876D01*
X52823Y162866D01*
X52739Y162853D01*
X52656Y162835D01*
X52574Y162814D01*
X52493Y162789D01*
X52413Y162760D01*
X52335Y162728D01*
X52259Y162692D01*
X52184Y162652D01*
X52111Y162609D01*
X52040Y162563D01*
X51971Y162514D01*
X51904Y162461D01*
X51840Y162405D01*
X51779Y162347D01*
X51721Y162286D01*
X51665Y162222D01*
X51612Y162155D01*
X51563Y162086D01*
X51517Y162015D01*
X51474Y161942D01*
X51434Y161867D01*
X51398Y161791D01*
X51366Y161713D01*
X51337Y161633D01*
X51312Y161552D01*
X51291Y161470D01*
X51273Y161387D01*
X51260Y161303D01*
X51250Y161219D01*
X51244Y161135D01*
X51242Y161050D01*
X51244Y160965D01*
X51250Y160881D01*
X51260Y160797D01*
X51273Y160713D01*
X51291Y160630D01*
X51312Y160548D01*
X51337Y160467D01*
X51366Y160387D01*
X51398Y160309D01*
X51434Y160233D01*
X51474Y160158D01*
X51517Y160085D01*
X51563Y160014D01*
X51612Y159945D01*
X51665Y159878D01*
X51721Y159814D01*
X51779Y159753D01*
X51840Y159695D01*
X51904Y159639D01*
X51971Y159586D01*
X52040Y159537D01*
X52111Y159491D01*
X52184Y159448D01*
X52259Y159408D01*
X52335Y159372D01*
X52413Y159340D01*
X52493Y159311D01*
X52574Y159286D01*
X52656Y159265D01*
X52739Y159247D01*
X52823Y159234D01*
X52907Y159224D01*
X52991Y159218D01*
X53076Y159216D01*
X53076Y159215D02*
X54911Y159215D01*
X55018Y159217D01*
X55125Y159223D01*
X55232Y159233D01*
X55338Y159246D01*
X55444Y159264D01*
X55549Y159285D01*
X55653Y159310D01*
X55757Y159339D01*
X55859Y159372D01*
X55959Y159409D01*
X56059Y159449D01*
X56157Y159493D01*
X56253Y159540D01*
X56347Y159591D01*
X56440Y159645D01*
X56530Y159702D01*
X56619Y159763D01*
X56705Y159827D01*
X56788Y159894D01*
X56870Y159964D01*
X56948Y160037D01*
X57024Y160113D01*
X57097Y160191D01*
X57167Y160273D01*
X57234Y160356D01*
X57298Y160442D01*
X57359Y160531D01*
X57416Y160621D01*
X57470Y160714D01*
X57521Y160808D01*
X57568Y160904D01*
X57612Y161002D01*
X57652Y161102D01*
X57689Y161202D01*
X57722Y161304D01*
X57751Y161408D01*
X57776Y161512D01*
X57797Y161617D01*
X57815Y161723D01*
X57828Y161829D01*
X57838Y161936D01*
X57844Y162043D01*
X57846Y162150D01*
X63942Y139952D02*
X70546Y139952D01*
X70546Y141786D01*
X70544Y141871D01*
X70538Y141955D01*
X70528Y142039D01*
X70515Y142123D01*
X70497Y142206D01*
X70476Y142288D01*
X70451Y142369D01*
X70422Y142449D01*
X70390Y142527D01*
X70354Y142603D01*
X70314Y142678D01*
X70271Y142751D01*
X70225Y142822D01*
X70176Y142891D01*
X70123Y142958D01*
X70067Y143022D01*
X70009Y143083D01*
X69948Y143141D01*
X69884Y143197D01*
X69817Y143250D01*
X69748Y143299D01*
X69677Y143345D01*
X69604Y143388D01*
X69529Y143428D01*
X69453Y143464D01*
X69375Y143496D01*
X69295Y143525D01*
X69214Y143550D01*
X69132Y143571D01*
X69049Y143589D01*
X68965Y143602D01*
X68881Y143612D01*
X68797Y143618D01*
X68712Y143620D01*
X68712Y143621D02*
X65776Y143621D01*
X65776Y143620D02*
X65691Y143618D01*
X65607Y143612D01*
X65523Y143602D01*
X65439Y143589D01*
X65356Y143571D01*
X65274Y143550D01*
X65193Y143525D01*
X65113Y143496D01*
X65035Y143464D01*
X64959Y143428D01*
X64884Y143388D01*
X64811Y143345D01*
X64740Y143299D01*
X64671Y143250D01*
X64604Y143197D01*
X64540Y143141D01*
X64479Y143083D01*
X64421Y143022D01*
X64365Y142958D01*
X64312Y142891D01*
X64263Y142822D01*
X64217Y142751D01*
X64174Y142678D01*
X64134Y142603D01*
X64098Y142527D01*
X64066Y142449D01*
X64037Y142369D01*
X64012Y142288D01*
X63991Y142206D01*
X63973Y142123D01*
X63960Y142039D01*
X63950Y141955D01*
X63944Y141871D01*
X63942Y141786D01*
X63942Y139952D01*
X63942Y147882D02*
X70546Y147882D01*
X63942Y147149D02*
X63942Y148616D01*
X70546Y148616D02*
X70546Y147149D01*
X68712Y151900D02*
X65776Y151900D01*
X68712Y151901D02*
X68797Y151903D01*
X68881Y151909D01*
X68965Y151919D01*
X69049Y151932D01*
X69132Y151950D01*
X69214Y151971D01*
X69295Y151996D01*
X69375Y152025D01*
X69453Y152057D01*
X69529Y152093D01*
X69604Y152133D01*
X69677Y152176D01*
X69748Y152222D01*
X69817Y152271D01*
X69884Y152324D01*
X69948Y152380D01*
X70009Y152438D01*
X70067Y152499D01*
X70123Y152563D01*
X70176Y152630D01*
X70225Y152699D01*
X70271Y152770D01*
X70314Y152843D01*
X70354Y152918D01*
X70390Y152994D01*
X70422Y153072D01*
X70451Y153152D01*
X70476Y153233D01*
X70497Y153315D01*
X70515Y153398D01*
X70528Y153482D01*
X70538Y153566D01*
X70544Y153650D01*
X70546Y153735D01*
X70544Y153820D01*
X70538Y153904D01*
X70528Y153988D01*
X70515Y154072D01*
X70497Y154155D01*
X70476Y154237D01*
X70451Y154318D01*
X70422Y154398D01*
X70390Y154476D01*
X70354Y154552D01*
X70314Y154627D01*
X70271Y154700D01*
X70225Y154771D01*
X70176Y154840D01*
X70123Y154907D01*
X70067Y154971D01*
X70009Y155032D01*
X69948Y155090D01*
X69884Y155146D01*
X69817Y155199D01*
X69748Y155248D01*
X69677Y155294D01*
X69604Y155337D01*
X69529Y155377D01*
X69453Y155413D01*
X69375Y155445D01*
X69295Y155474D01*
X69214Y155499D01*
X69132Y155520D01*
X69049Y155538D01*
X68965Y155551D01*
X68881Y155561D01*
X68797Y155567D01*
X68712Y155569D01*
X65776Y155569D01*
X65691Y155567D01*
X65607Y155561D01*
X65523Y155551D01*
X65439Y155538D01*
X65356Y155520D01*
X65274Y155499D01*
X65193Y155474D01*
X65113Y155445D01*
X65035Y155413D01*
X64959Y155377D01*
X64884Y155337D01*
X64811Y155294D01*
X64740Y155248D01*
X64671Y155199D01*
X64604Y155146D01*
X64540Y155090D01*
X64479Y155032D01*
X64421Y154971D01*
X64365Y154907D01*
X64312Y154840D01*
X64263Y154771D01*
X64217Y154700D01*
X64174Y154627D01*
X64134Y154552D01*
X64098Y154476D01*
X64066Y154398D01*
X64037Y154318D01*
X64012Y154237D01*
X63991Y154155D01*
X63973Y154072D01*
X63960Y153988D01*
X63950Y153904D01*
X63944Y153820D01*
X63942Y153735D01*
X63944Y153650D01*
X63950Y153566D01*
X63960Y153482D01*
X63973Y153398D01*
X63991Y153315D01*
X64012Y153233D01*
X64037Y153152D01*
X64066Y153072D01*
X64098Y152994D01*
X64134Y152918D01*
X64174Y152843D01*
X64217Y152770D01*
X64263Y152699D01*
X64312Y152630D01*
X64365Y152563D01*
X64421Y152499D01*
X64479Y152438D01*
X64540Y152380D01*
X64604Y152324D01*
X64671Y152271D01*
X64740Y152222D01*
X64811Y152176D01*
X64884Y152133D01*
X64959Y152093D01*
X65035Y152057D01*
X65113Y152025D01*
X65193Y151996D01*
X65274Y151971D01*
X65356Y151950D01*
X65439Y151932D01*
X65523Y151919D01*
X65607Y151909D01*
X65691Y151903D01*
X65776Y151901D01*
X69812Y159215D02*
X70546Y159215D01*
X70546Y162884D01*
X63942Y161050D01*
X76642Y139952D02*
X83246Y139952D01*
X83246Y141786D01*
X83244Y141871D01*
X83238Y141955D01*
X83228Y142039D01*
X83215Y142123D01*
X83197Y142206D01*
X83176Y142288D01*
X83151Y142369D01*
X83122Y142449D01*
X83090Y142527D01*
X83054Y142603D01*
X83014Y142678D01*
X82971Y142751D01*
X82925Y142822D01*
X82876Y142891D01*
X82823Y142958D01*
X82767Y143022D01*
X82709Y143083D01*
X82648Y143141D01*
X82584Y143197D01*
X82517Y143250D01*
X82448Y143299D01*
X82377Y143345D01*
X82304Y143388D01*
X82229Y143428D01*
X82153Y143464D01*
X82075Y143496D01*
X81995Y143525D01*
X81914Y143550D01*
X81832Y143571D01*
X81749Y143589D01*
X81665Y143602D01*
X81581Y143612D01*
X81497Y143618D01*
X81412Y143620D01*
X81412Y143621D02*
X78476Y143621D01*
X78476Y143620D02*
X78391Y143618D01*
X78307Y143612D01*
X78223Y143602D01*
X78139Y143589D01*
X78056Y143571D01*
X77974Y143550D01*
X77893Y143525D01*
X77813Y143496D01*
X77735Y143464D01*
X77659Y143428D01*
X77584Y143388D01*
X77511Y143345D01*
X77440Y143299D01*
X77371Y143250D01*
X77304Y143197D01*
X77240Y143141D01*
X77179Y143083D01*
X77121Y143022D01*
X77065Y142958D01*
X77012Y142891D01*
X76963Y142822D01*
X76917Y142751D01*
X76874Y142678D01*
X76834Y142603D01*
X76798Y142527D01*
X76766Y142449D01*
X76737Y142369D01*
X76712Y142288D01*
X76691Y142206D01*
X76673Y142123D01*
X76660Y142039D01*
X76650Y141955D01*
X76644Y141871D01*
X76642Y141786D01*
X76642Y139952D01*
X76642Y147882D02*
X83246Y147882D01*
X76642Y147149D02*
X76642Y148616D01*
X83246Y148616D02*
X83246Y147149D01*
X81412Y151900D02*
X78476Y151900D01*
X81412Y151901D02*
X81497Y151903D01*
X81581Y151909D01*
X81665Y151919D01*
X81749Y151932D01*
X81832Y151950D01*
X81914Y151971D01*
X81995Y151996D01*
X82075Y152025D01*
X82153Y152057D01*
X82229Y152093D01*
X82304Y152133D01*
X82377Y152176D01*
X82448Y152222D01*
X82517Y152271D01*
X82584Y152324D01*
X82648Y152380D01*
X82709Y152438D01*
X82767Y152499D01*
X82823Y152563D01*
X82876Y152630D01*
X82925Y152699D01*
X82971Y152770D01*
X83014Y152843D01*
X83054Y152918D01*
X83090Y152994D01*
X83122Y153072D01*
X83151Y153152D01*
X83176Y153233D01*
X83197Y153315D01*
X83215Y153398D01*
X83228Y153482D01*
X83238Y153566D01*
X83244Y153650D01*
X83246Y153735D01*
X83244Y153820D01*
X83238Y153904D01*
X83228Y153988D01*
X83215Y154072D01*
X83197Y154155D01*
X83176Y154237D01*
X83151Y154318D01*
X83122Y154398D01*
X83090Y154476D01*
X83054Y154552D01*
X83014Y154627D01*
X82971Y154700D01*
X82925Y154771D01*
X82876Y154840D01*
X82823Y154907D01*
X82767Y154971D01*
X82709Y155032D01*
X82648Y155090D01*
X82584Y155146D01*
X82517Y155199D01*
X82448Y155248D01*
X82377Y155294D01*
X82304Y155337D01*
X82229Y155377D01*
X82153Y155413D01*
X82075Y155445D01*
X81995Y155474D01*
X81914Y155499D01*
X81832Y155520D01*
X81749Y155538D01*
X81665Y155551D01*
X81581Y155561D01*
X81497Y155567D01*
X81412Y155569D01*
X78476Y155569D01*
X78391Y155567D01*
X78307Y155561D01*
X78223Y155551D01*
X78139Y155538D01*
X78056Y155520D01*
X77974Y155499D01*
X77893Y155474D01*
X77813Y155445D01*
X77735Y155413D01*
X77659Y155377D01*
X77584Y155337D01*
X77511Y155294D01*
X77440Y155248D01*
X77371Y155199D01*
X77304Y155146D01*
X77240Y155090D01*
X77179Y155032D01*
X77121Y154971D01*
X77065Y154907D01*
X77012Y154840D01*
X76963Y154771D01*
X76917Y154700D01*
X76874Y154627D01*
X76834Y154552D01*
X76798Y154476D01*
X76766Y154398D01*
X76737Y154318D01*
X76712Y154237D01*
X76691Y154155D01*
X76673Y154072D01*
X76660Y153988D01*
X76650Y153904D01*
X76644Y153820D01*
X76642Y153735D01*
X76644Y153650D01*
X76650Y153566D01*
X76660Y153482D01*
X76673Y153398D01*
X76691Y153315D01*
X76712Y153233D01*
X76737Y153152D01*
X76766Y153072D01*
X76798Y152994D01*
X76834Y152918D01*
X76874Y152843D01*
X76917Y152770D01*
X76963Y152699D01*
X77012Y152630D01*
X77065Y152563D01*
X77121Y152499D01*
X77179Y152438D01*
X77240Y152380D01*
X77304Y152324D01*
X77371Y152271D01*
X77440Y152222D01*
X77511Y152176D01*
X77584Y152133D01*
X77659Y152093D01*
X77735Y152057D01*
X77813Y152025D01*
X77893Y151996D01*
X77974Y151971D01*
X78056Y151950D01*
X78139Y151932D01*
X78223Y151919D01*
X78307Y151909D01*
X78391Y151903D01*
X78476Y151901D01*
X78476Y159216D02*
X78561Y159218D01*
X78645Y159224D01*
X78729Y159234D01*
X78813Y159247D01*
X78896Y159265D01*
X78978Y159286D01*
X79059Y159311D01*
X79139Y159340D01*
X79217Y159372D01*
X79293Y159408D01*
X79368Y159448D01*
X79441Y159491D01*
X79512Y159537D01*
X79581Y159586D01*
X79648Y159639D01*
X79712Y159695D01*
X79773Y159753D01*
X79831Y159814D01*
X79887Y159878D01*
X79940Y159945D01*
X79989Y160014D01*
X80035Y160085D01*
X80078Y160158D01*
X80118Y160233D01*
X80154Y160309D01*
X80186Y160387D01*
X80215Y160467D01*
X80240Y160548D01*
X80261Y160630D01*
X80279Y160713D01*
X80292Y160797D01*
X80302Y160881D01*
X80308Y160965D01*
X80310Y161050D01*
X80308Y161135D01*
X80302Y161219D01*
X80292Y161303D01*
X80279Y161387D01*
X80261Y161470D01*
X80240Y161552D01*
X80215Y161633D01*
X80186Y161713D01*
X80154Y161791D01*
X80118Y161867D01*
X80078Y161942D01*
X80035Y162015D01*
X79989Y162086D01*
X79940Y162155D01*
X79887Y162222D01*
X79831Y162286D01*
X79773Y162347D01*
X79712Y162405D01*
X79648Y162461D01*
X79581Y162514D01*
X79512Y162563D01*
X79441Y162609D01*
X79368Y162652D01*
X79293Y162692D01*
X79217Y162728D01*
X79139Y162760D01*
X79059Y162789D01*
X78978Y162814D01*
X78896Y162835D01*
X78813Y162853D01*
X78729Y162866D01*
X78645Y162876D01*
X78561Y162882D01*
X78476Y162884D01*
X78391Y162882D01*
X78307Y162876D01*
X78223Y162866D01*
X78139Y162853D01*
X78056Y162835D01*
X77974Y162814D01*
X77893Y162789D01*
X77813Y162760D01*
X77735Y162728D01*
X77659Y162692D01*
X77584Y162652D01*
X77511Y162609D01*
X77440Y162563D01*
X77371Y162514D01*
X77304Y162461D01*
X77240Y162405D01*
X77179Y162347D01*
X77121Y162286D01*
X77065Y162222D01*
X77012Y162155D01*
X76963Y162086D01*
X76917Y162015D01*
X76874Y161942D01*
X76834Y161867D01*
X76798Y161791D01*
X76766Y161713D01*
X76737Y161633D01*
X76712Y161552D01*
X76691Y161470D01*
X76673Y161387D01*
X76660Y161303D01*
X76650Y161219D01*
X76644Y161135D01*
X76642Y161050D01*
X76644Y160965D01*
X76650Y160881D01*
X76660Y160797D01*
X76673Y160713D01*
X76691Y160630D01*
X76712Y160548D01*
X76737Y160467D01*
X76766Y160387D01*
X76798Y160309D01*
X76834Y160233D01*
X76874Y160158D01*
X76917Y160085D01*
X76963Y160014D01*
X77012Y159945D01*
X77065Y159878D01*
X77121Y159814D01*
X77179Y159753D01*
X77240Y159695D01*
X77304Y159639D01*
X77371Y159586D01*
X77440Y159537D01*
X77511Y159491D01*
X77584Y159448D01*
X77659Y159408D01*
X77735Y159372D01*
X77813Y159340D01*
X77893Y159311D01*
X77974Y159286D01*
X78056Y159265D01*
X78139Y159247D01*
X78223Y159234D01*
X78307Y159224D01*
X78391Y159218D01*
X78476Y159216D01*
X81778Y159582D02*
X81854Y159584D01*
X81929Y159590D01*
X82004Y159599D01*
X82078Y159613D01*
X82152Y159630D01*
X82224Y159652D01*
X82296Y159676D01*
X82366Y159705D01*
X82434Y159737D01*
X82501Y159772D01*
X82566Y159811D01*
X82629Y159854D01*
X82689Y159899D01*
X82747Y159947D01*
X82803Y159999D01*
X82855Y160053D01*
X82905Y160110D01*
X82952Y160169D01*
X82996Y160230D01*
X83037Y160294D01*
X83074Y160360D01*
X83108Y160428D01*
X83138Y160497D01*
X83165Y160568D01*
X83188Y160640D01*
X83207Y160713D01*
X83222Y160787D01*
X83234Y160862D01*
X83242Y160937D01*
X83246Y161012D01*
X83246Y161088D01*
X83242Y161163D01*
X83234Y161238D01*
X83222Y161313D01*
X83207Y161387D01*
X83188Y161460D01*
X83165Y161532D01*
X83138Y161603D01*
X83108Y161672D01*
X83074Y161740D01*
X83037Y161806D01*
X82996Y161870D01*
X82952Y161931D01*
X82905Y161990D01*
X82855Y162047D01*
X82803Y162101D01*
X82747Y162153D01*
X82689Y162201D01*
X82629Y162246D01*
X82566Y162289D01*
X82501Y162328D01*
X82434Y162363D01*
X82366Y162395D01*
X82296Y162424D01*
X82224Y162448D01*
X82152Y162470D01*
X82078Y162487D01*
X82004Y162501D01*
X81929Y162510D01*
X81854Y162516D01*
X81778Y162518D01*
X81702Y162516D01*
X81627Y162510D01*
X81552Y162501D01*
X81478Y162487D01*
X81404Y162470D01*
X81332Y162448D01*
X81260Y162424D01*
X81190Y162395D01*
X81122Y162363D01*
X81055Y162328D01*
X80990Y162289D01*
X80927Y162246D01*
X80867Y162201D01*
X80809Y162153D01*
X80753Y162101D01*
X80701Y162047D01*
X80651Y161990D01*
X80604Y161931D01*
X80560Y161870D01*
X80519Y161806D01*
X80482Y161740D01*
X80448Y161672D01*
X80418Y161603D01*
X80391Y161532D01*
X80368Y161460D01*
X80349Y161387D01*
X80334Y161313D01*
X80322Y161238D01*
X80314Y161163D01*
X80310Y161088D01*
X80310Y161012D01*
X80314Y160937D01*
X80322Y160862D01*
X80334Y160787D01*
X80349Y160713D01*
X80368Y160640D01*
X80391Y160568D01*
X80418Y160497D01*
X80448Y160428D01*
X80482Y160360D01*
X80519Y160294D01*
X80560Y160230D01*
X80604Y160169D01*
X80651Y160110D01*
X80701Y160053D01*
X80753Y159999D01*
X80809Y159947D01*
X80867Y159899D01*
X80927Y159854D01*
X80990Y159811D01*
X81055Y159772D01*
X81122Y159737D01*
X81190Y159705D01*
X81260Y159676D01*
X81332Y159652D01*
X81404Y159630D01*
X81478Y159613D01*
X81552Y159599D01*
X81627Y159590D01*
X81702Y159584D01*
X81778Y159582D01*
X88072Y139952D02*
X94676Y139952D01*
X94676Y141786D01*
X94674Y141871D01*
X94668Y141955D01*
X94658Y142039D01*
X94645Y142123D01*
X94627Y142206D01*
X94606Y142288D01*
X94581Y142369D01*
X94552Y142449D01*
X94520Y142527D01*
X94484Y142603D01*
X94444Y142678D01*
X94401Y142751D01*
X94355Y142822D01*
X94306Y142891D01*
X94253Y142958D01*
X94197Y143022D01*
X94139Y143083D01*
X94078Y143141D01*
X94014Y143197D01*
X93947Y143250D01*
X93878Y143299D01*
X93807Y143345D01*
X93734Y143388D01*
X93659Y143428D01*
X93583Y143464D01*
X93505Y143496D01*
X93425Y143525D01*
X93344Y143550D01*
X93262Y143571D01*
X93179Y143589D01*
X93095Y143602D01*
X93011Y143612D01*
X92927Y143618D01*
X92842Y143620D01*
X92842Y143621D02*
X89906Y143621D01*
X89906Y143620D02*
X89821Y143618D01*
X89737Y143612D01*
X89653Y143602D01*
X89569Y143589D01*
X89486Y143571D01*
X89404Y143550D01*
X89323Y143525D01*
X89243Y143496D01*
X89165Y143464D01*
X89089Y143428D01*
X89014Y143388D01*
X88941Y143345D01*
X88870Y143299D01*
X88801Y143250D01*
X88734Y143197D01*
X88670Y143141D01*
X88609Y143083D01*
X88551Y143022D01*
X88495Y142958D01*
X88442Y142891D01*
X88393Y142822D01*
X88347Y142751D01*
X88304Y142678D01*
X88264Y142603D01*
X88228Y142527D01*
X88196Y142449D01*
X88167Y142369D01*
X88142Y142288D01*
X88121Y142206D01*
X88103Y142123D01*
X88090Y142039D01*
X88080Y141955D01*
X88074Y141871D01*
X88072Y141786D01*
X88072Y139952D01*
X88072Y147882D02*
X94676Y147882D01*
X88072Y147149D02*
X88072Y148616D01*
X94676Y148616D02*
X94676Y147149D01*
X92842Y151900D02*
X89906Y151900D01*
X92842Y151901D02*
X92927Y151903D01*
X93011Y151909D01*
X93095Y151919D01*
X93179Y151932D01*
X93262Y151950D01*
X93344Y151971D01*
X93425Y151996D01*
X93505Y152025D01*
X93583Y152057D01*
X93659Y152093D01*
X93734Y152133D01*
X93807Y152176D01*
X93878Y152222D01*
X93947Y152271D01*
X94014Y152324D01*
X94078Y152380D01*
X94139Y152438D01*
X94197Y152499D01*
X94253Y152563D01*
X94306Y152630D01*
X94355Y152699D01*
X94401Y152770D01*
X94444Y152843D01*
X94484Y152918D01*
X94520Y152994D01*
X94552Y153072D01*
X94581Y153152D01*
X94606Y153233D01*
X94627Y153315D01*
X94645Y153398D01*
X94658Y153482D01*
X94668Y153566D01*
X94674Y153650D01*
X94676Y153735D01*
X94674Y153820D01*
X94668Y153904D01*
X94658Y153988D01*
X94645Y154072D01*
X94627Y154155D01*
X94606Y154237D01*
X94581Y154318D01*
X94552Y154398D01*
X94520Y154476D01*
X94484Y154552D01*
X94444Y154627D01*
X94401Y154700D01*
X94355Y154771D01*
X94306Y154840D01*
X94253Y154907D01*
X94197Y154971D01*
X94139Y155032D01*
X94078Y155090D01*
X94014Y155146D01*
X93947Y155199D01*
X93878Y155248D01*
X93807Y155294D01*
X93734Y155337D01*
X93659Y155377D01*
X93583Y155413D01*
X93505Y155445D01*
X93425Y155474D01*
X93344Y155499D01*
X93262Y155520D01*
X93179Y155538D01*
X93095Y155551D01*
X93011Y155561D01*
X92927Y155567D01*
X92842Y155569D01*
X89906Y155569D01*
X89821Y155567D01*
X89737Y155561D01*
X89653Y155551D01*
X89569Y155538D01*
X89486Y155520D01*
X89404Y155499D01*
X89323Y155474D01*
X89243Y155445D01*
X89165Y155413D01*
X89089Y155377D01*
X89014Y155337D01*
X88941Y155294D01*
X88870Y155248D01*
X88801Y155199D01*
X88734Y155146D01*
X88670Y155090D01*
X88609Y155032D01*
X88551Y154971D01*
X88495Y154907D01*
X88442Y154840D01*
X88393Y154771D01*
X88347Y154700D01*
X88304Y154627D01*
X88264Y154552D01*
X88228Y154476D01*
X88196Y154398D01*
X88167Y154318D01*
X88142Y154237D01*
X88121Y154155D01*
X88103Y154072D01*
X88090Y153988D01*
X88080Y153904D01*
X88074Y153820D01*
X88072Y153735D01*
X88074Y153650D01*
X88080Y153566D01*
X88090Y153482D01*
X88103Y153398D01*
X88121Y153315D01*
X88142Y153233D01*
X88167Y153152D01*
X88196Y153072D01*
X88228Y152994D01*
X88264Y152918D01*
X88304Y152843D01*
X88347Y152770D01*
X88393Y152699D01*
X88442Y152630D01*
X88495Y152563D01*
X88551Y152499D01*
X88609Y152438D01*
X88670Y152380D01*
X88734Y152324D01*
X88801Y152271D01*
X88870Y152222D01*
X88941Y152176D01*
X89014Y152133D01*
X89089Y152093D01*
X89165Y152057D01*
X89243Y152025D01*
X89323Y151996D01*
X89404Y151971D01*
X89486Y151950D01*
X89569Y151932D01*
X89653Y151919D01*
X89737Y151909D01*
X89821Y151903D01*
X89906Y151901D01*
X91007Y160683D02*
X91007Y162884D01*
X91007Y160683D02*
X91009Y160609D01*
X91015Y160534D01*
X91024Y160461D01*
X91037Y160387D01*
X91054Y160315D01*
X91074Y160244D01*
X91098Y160173D01*
X91126Y160104D01*
X91157Y160037D01*
X91191Y159971D01*
X91229Y159906D01*
X91270Y159844D01*
X91314Y159784D01*
X91361Y159727D01*
X91411Y159672D01*
X91464Y159619D01*
X91519Y159569D01*
X91576Y159522D01*
X91636Y159478D01*
X91698Y159437D01*
X91763Y159399D01*
X91829Y159365D01*
X91896Y159334D01*
X91965Y159306D01*
X92036Y159282D01*
X92107Y159262D01*
X92179Y159245D01*
X92253Y159232D01*
X92326Y159223D01*
X92401Y159217D01*
X92475Y159215D01*
X92842Y159215D01*
X92842Y159216D02*
X92927Y159218D01*
X93011Y159224D01*
X93095Y159234D01*
X93179Y159247D01*
X93262Y159265D01*
X93344Y159286D01*
X93425Y159311D01*
X93505Y159340D01*
X93583Y159372D01*
X93659Y159408D01*
X93734Y159448D01*
X93807Y159491D01*
X93878Y159537D01*
X93947Y159586D01*
X94014Y159639D01*
X94078Y159695D01*
X94139Y159753D01*
X94197Y159814D01*
X94253Y159878D01*
X94306Y159945D01*
X94355Y160014D01*
X94401Y160085D01*
X94444Y160158D01*
X94484Y160233D01*
X94520Y160309D01*
X94552Y160387D01*
X94581Y160467D01*
X94606Y160548D01*
X94627Y160630D01*
X94645Y160713D01*
X94658Y160797D01*
X94668Y160881D01*
X94674Y160965D01*
X94676Y161050D01*
X94674Y161135D01*
X94668Y161219D01*
X94658Y161303D01*
X94645Y161387D01*
X94627Y161470D01*
X94606Y161552D01*
X94581Y161633D01*
X94552Y161713D01*
X94520Y161791D01*
X94484Y161867D01*
X94444Y161942D01*
X94401Y162015D01*
X94355Y162086D01*
X94306Y162155D01*
X94253Y162222D01*
X94197Y162286D01*
X94139Y162347D01*
X94078Y162405D01*
X94014Y162461D01*
X93947Y162514D01*
X93878Y162563D01*
X93807Y162609D01*
X93734Y162652D01*
X93659Y162692D01*
X93583Y162728D01*
X93505Y162760D01*
X93425Y162789D01*
X93344Y162814D01*
X93262Y162835D01*
X93179Y162853D01*
X93095Y162866D01*
X93011Y162876D01*
X92927Y162882D01*
X92842Y162884D01*
X91007Y162884D01*
X90900Y162882D01*
X90793Y162876D01*
X90686Y162866D01*
X90580Y162853D01*
X90474Y162835D01*
X90369Y162814D01*
X90265Y162789D01*
X90161Y162760D01*
X90059Y162727D01*
X89959Y162690D01*
X89859Y162650D01*
X89761Y162606D01*
X89665Y162559D01*
X89571Y162508D01*
X89478Y162454D01*
X89388Y162397D01*
X89299Y162336D01*
X89213Y162272D01*
X89130Y162205D01*
X89048Y162135D01*
X88970Y162062D01*
X88894Y161986D01*
X88821Y161908D01*
X88751Y161826D01*
X88684Y161743D01*
X88620Y161657D01*
X88559Y161568D01*
X88502Y161478D01*
X88448Y161385D01*
X88397Y161291D01*
X88350Y161195D01*
X88306Y161097D01*
X88266Y160997D01*
X88229Y160897D01*
X88196Y160795D01*
X88167Y160691D01*
X88142Y160587D01*
X88121Y160482D01*
X88103Y160376D01*
X88090Y160270D01*
X88080Y160163D01*
X88074Y160056D01*
X88072Y159949D01*
X100772Y139952D02*
X107376Y139952D01*
X107376Y141786D01*
X107374Y141871D01*
X107368Y141955D01*
X107358Y142039D01*
X107345Y142123D01*
X107327Y142206D01*
X107306Y142288D01*
X107281Y142369D01*
X107252Y142449D01*
X107220Y142527D01*
X107184Y142603D01*
X107144Y142678D01*
X107101Y142751D01*
X107055Y142822D01*
X107006Y142891D01*
X106953Y142958D01*
X106897Y143022D01*
X106839Y143083D01*
X106778Y143141D01*
X106714Y143197D01*
X106647Y143250D01*
X106578Y143299D01*
X106507Y143345D01*
X106434Y143388D01*
X106359Y143428D01*
X106283Y143464D01*
X106205Y143496D01*
X106125Y143525D01*
X106044Y143550D01*
X105962Y143571D01*
X105879Y143589D01*
X105795Y143602D01*
X105711Y143612D01*
X105627Y143618D01*
X105542Y143620D01*
X105542Y143621D02*
X102606Y143621D01*
X102606Y143620D02*
X102521Y143618D01*
X102437Y143612D01*
X102353Y143602D01*
X102269Y143589D01*
X102186Y143571D01*
X102104Y143550D01*
X102023Y143525D01*
X101943Y143496D01*
X101865Y143464D01*
X101789Y143428D01*
X101714Y143388D01*
X101641Y143345D01*
X101570Y143299D01*
X101501Y143250D01*
X101434Y143197D01*
X101370Y143141D01*
X101309Y143083D01*
X101251Y143022D01*
X101195Y142958D01*
X101142Y142891D01*
X101093Y142822D01*
X101047Y142751D01*
X101004Y142678D01*
X100964Y142603D01*
X100928Y142527D01*
X100896Y142449D01*
X100867Y142369D01*
X100842Y142288D01*
X100821Y142206D01*
X100803Y142123D01*
X100790Y142039D01*
X100780Y141955D01*
X100774Y141871D01*
X100772Y141786D01*
X100772Y139952D01*
X100772Y147882D02*
X107376Y147882D01*
X100772Y147149D02*
X100772Y148616D01*
X107376Y148616D02*
X107376Y147149D01*
X105542Y151900D02*
X102606Y151900D01*
X105542Y151901D02*
X105627Y151903D01*
X105711Y151909D01*
X105795Y151919D01*
X105879Y151932D01*
X105962Y151950D01*
X106044Y151971D01*
X106125Y151996D01*
X106205Y152025D01*
X106283Y152057D01*
X106359Y152093D01*
X106434Y152133D01*
X106507Y152176D01*
X106578Y152222D01*
X106647Y152271D01*
X106714Y152324D01*
X106778Y152380D01*
X106839Y152438D01*
X106897Y152499D01*
X106953Y152563D01*
X107006Y152630D01*
X107055Y152699D01*
X107101Y152770D01*
X107144Y152843D01*
X107184Y152918D01*
X107220Y152994D01*
X107252Y153072D01*
X107281Y153152D01*
X107306Y153233D01*
X107327Y153315D01*
X107345Y153398D01*
X107358Y153482D01*
X107368Y153566D01*
X107374Y153650D01*
X107376Y153735D01*
X107374Y153820D01*
X107368Y153904D01*
X107358Y153988D01*
X107345Y154072D01*
X107327Y154155D01*
X107306Y154237D01*
X107281Y154318D01*
X107252Y154398D01*
X107220Y154476D01*
X107184Y154552D01*
X107144Y154627D01*
X107101Y154700D01*
X107055Y154771D01*
X107006Y154840D01*
X106953Y154907D01*
X106897Y154971D01*
X106839Y155032D01*
X106778Y155090D01*
X106714Y155146D01*
X106647Y155199D01*
X106578Y155248D01*
X106507Y155294D01*
X106434Y155337D01*
X106359Y155377D01*
X106283Y155413D01*
X106205Y155445D01*
X106125Y155474D01*
X106044Y155499D01*
X105962Y155520D01*
X105879Y155538D01*
X105795Y155551D01*
X105711Y155561D01*
X105627Y155567D01*
X105542Y155569D01*
X102606Y155569D01*
X102521Y155567D01*
X102437Y155561D01*
X102353Y155551D01*
X102269Y155538D01*
X102186Y155520D01*
X102104Y155499D01*
X102023Y155474D01*
X101943Y155445D01*
X101865Y155413D01*
X101789Y155377D01*
X101714Y155337D01*
X101641Y155294D01*
X101570Y155248D01*
X101501Y155199D01*
X101434Y155146D01*
X101370Y155090D01*
X101309Y155032D01*
X101251Y154971D01*
X101195Y154907D01*
X101142Y154840D01*
X101093Y154771D01*
X101047Y154700D01*
X101004Y154627D01*
X100964Y154552D01*
X100928Y154476D01*
X100896Y154398D01*
X100867Y154318D01*
X100842Y154237D01*
X100821Y154155D01*
X100803Y154072D01*
X100790Y153988D01*
X100780Y153904D01*
X100774Y153820D01*
X100772Y153735D01*
X100774Y153650D01*
X100780Y153566D01*
X100790Y153482D01*
X100803Y153398D01*
X100821Y153315D01*
X100842Y153233D01*
X100867Y153152D01*
X100896Y153072D01*
X100928Y152994D01*
X100964Y152918D01*
X101004Y152843D01*
X101047Y152770D01*
X101093Y152699D01*
X101142Y152630D01*
X101195Y152563D01*
X101251Y152499D01*
X101309Y152438D01*
X101370Y152380D01*
X101434Y152324D01*
X101501Y152271D01*
X101570Y152222D01*
X101641Y152176D01*
X101714Y152133D01*
X101789Y152093D01*
X101865Y152057D01*
X101943Y152025D01*
X102023Y151996D01*
X102104Y151971D01*
X102186Y151950D01*
X102269Y151932D01*
X102353Y151919D01*
X102437Y151909D01*
X102521Y151903D01*
X102606Y151901D01*
X105908Y159215D02*
X107376Y161050D01*
X100772Y161050D01*
X100772Y162884D02*
X100772Y159215D01*
X104074Y166531D02*
X104219Y166533D01*
X104364Y166539D01*
X104509Y166548D01*
X104654Y166562D01*
X104798Y166579D01*
X104941Y166601D01*
X105085Y166626D01*
X105227Y166655D01*
X105368Y166687D01*
X105509Y166724D01*
X105648Y166764D01*
X105787Y166808D01*
X105924Y166855D01*
X106060Y166906D01*
X106194Y166961D01*
X106327Y167019D01*
X106459Y167081D01*
X106459Y167080D02*
X106528Y167106D01*
X106595Y167135D01*
X106661Y167168D01*
X106724Y167204D01*
X106786Y167244D01*
X106845Y167287D01*
X106902Y167333D01*
X106956Y167382D01*
X107008Y167434D01*
X107057Y167489D01*
X107102Y167546D01*
X107145Y167606D01*
X107184Y167668D01*
X107220Y167731D01*
X107253Y167797D01*
X107281Y167864D01*
X107307Y167933D01*
X107328Y168003D01*
X107346Y168074D01*
X107359Y168146D01*
X107369Y168219D01*
X107375Y168292D01*
X107377Y168365D01*
X107376Y168365D02*
X107374Y168438D01*
X107368Y168511D01*
X107358Y168584D01*
X107345Y168656D01*
X107327Y168727D01*
X107306Y168797D01*
X107280Y168865D01*
X107252Y168933D01*
X107219Y168998D01*
X107183Y169062D01*
X107144Y169124D01*
X107102Y169183D01*
X107056Y169240D01*
X107007Y169295D01*
X106956Y169347D01*
X106901Y169396D01*
X106844Y169442D01*
X106785Y169485D01*
X106724Y169525D01*
X106660Y169561D01*
X106595Y169594D01*
X106528Y169623D01*
X106459Y169649D01*
X106327Y169711D01*
X106194Y169769D01*
X106060Y169824D01*
X105924Y169875D01*
X105787Y169922D01*
X105648Y169966D01*
X105509Y170006D01*
X105368Y170043D01*
X105227Y170075D01*
X105085Y170104D01*
X104942Y170129D01*
X104798Y170151D01*
X104654Y170168D01*
X104509Y170182D01*
X104364Y170191D01*
X104219Y170197D01*
X104074Y170199D01*
X104074Y166531D02*
X103929Y166533D01*
X103784Y166539D01*
X103639Y166548D01*
X103494Y166562D01*
X103350Y166579D01*
X103207Y166601D01*
X103064Y166626D01*
X102921Y166654D01*
X102780Y166687D01*
X102639Y166724D01*
X102500Y166764D01*
X102361Y166808D01*
X102224Y166855D01*
X102088Y166906D01*
X101954Y166961D01*
X101821Y167019D01*
X101689Y167081D01*
X101690Y167080D02*
X101621Y167106D01*
X101554Y167135D01*
X101488Y167168D01*
X101425Y167204D01*
X101363Y167244D01*
X101304Y167287D01*
X101247Y167333D01*
X101193Y167382D01*
X101141Y167434D01*
X101092Y167489D01*
X101047Y167546D01*
X101004Y167606D01*
X100965Y167668D01*
X100929Y167731D01*
X100896Y167797D01*
X100868Y167864D01*
X100842Y167933D01*
X100821Y168003D01*
X100803Y168074D01*
X100790Y168146D01*
X100780Y168219D01*
X100774Y168292D01*
X100772Y168365D01*
X101689Y169649D02*
X101821Y169711D01*
X101954Y169769D01*
X102088Y169824D01*
X102224Y169875D01*
X102361Y169922D01*
X102500Y169966D01*
X102639Y170006D01*
X102780Y170043D01*
X102921Y170075D01*
X103063Y170104D01*
X103206Y170129D01*
X103350Y170151D01*
X103494Y170168D01*
X103639Y170182D01*
X103784Y170191D01*
X103929Y170197D01*
X104074Y170199D01*
X101689Y169649D02*
X101620Y169623D01*
X101553Y169594D01*
X101488Y169561D01*
X101424Y169525D01*
X101363Y169485D01*
X101304Y169442D01*
X101247Y169396D01*
X101192Y169347D01*
X101141Y169295D01*
X101092Y169240D01*
X101046Y169183D01*
X101004Y169124D01*
X100965Y169062D01*
X100929Y168998D01*
X100896Y168933D01*
X100868Y168865D01*
X100842Y168797D01*
X100821Y168727D01*
X100803Y168655D01*
X100790Y168584D01*
X100780Y168511D01*
X100774Y168438D01*
X100772Y168365D01*
X102240Y166897D02*
X105908Y169833D01*
X113472Y141786D02*
X113472Y139952D01*
X113472Y141786D02*
X113474Y141871D01*
X113480Y141955D01*
X113490Y142039D01*
X113503Y142123D01*
X113521Y142206D01*
X113542Y142288D01*
X113567Y142369D01*
X113596Y142449D01*
X113628Y142527D01*
X113664Y142603D01*
X113704Y142678D01*
X113747Y142751D01*
X113793Y142822D01*
X113842Y142891D01*
X113895Y142958D01*
X113951Y143022D01*
X114009Y143083D01*
X114070Y143141D01*
X114134Y143197D01*
X114201Y143250D01*
X114270Y143299D01*
X114341Y143345D01*
X114414Y143388D01*
X114489Y143428D01*
X114565Y143464D01*
X114643Y143496D01*
X114723Y143525D01*
X114804Y143550D01*
X114886Y143571D01*
X114969Y143589D01*
X115053Y143602D01*
X115137Y143612D01*
X115221Y143618D01*
X115306Y143620D01*
X115391Y143618D01*
X115475Y143612D01*
X115559Y143602D01*
X115643Y143589D01*
X115726Y143571D01*
X115808Y143550D01*
X115889Y143525D01*
X115969Y143496D01*
X116047Y143464D01*
X116123Y143428D01*
X116198Y143388D01*
X116271Y143345D01*
X116342Y143299D01*
X116411Y143250D01*
X116478Y143197D01*
X116542Y143141D01*
X116603Y143083D01*
X116661Y143022D01*
X116717Y142958D01*
X116770Y142891D01*
X116819Y142822D01*
X116865Y142751D01*
X116908Y142678D01*
X116948Y142603D01*
X116984Y142527D01*
X117016Y142449D01*
X117045Y142369D01*
X117070Y142288D01*
X117091Y142206D01*
X117109Y142123D01*
X117122Y142039D01*
X117132Y141955D01*
X117138Y141871D01*
X117140Y141786D01*
X120076Y142153D02*
X120076Y139952D01*
X120076Y142153D02*
X120074Y142229D01*
X120068Y142304D01*
X120059Y142379D01*
X120045Y142453D01*
X120028Y142527D01*
X120006Y142599D01*
X119982Y142671D01*
X119953Y142741D01*
X119921Y142809D01*
X119886Y142876D01*
X119847Y142941D01*
X119804Y143004D01*
X119759Y143064D01*
X119711Y143122D01*
X119659Y143178D01*
X119605Y143230D01*
X119548Y143280D01*
X119489Y143327D01*
X119428Y143371D01*
X119364Y143412D01*
X119298Y143449D01*
X119230Y143483D01*
X119161Y143513D01*
X119090Y143540D01*
X119018Y143563D01*
X118945Y143582D01*
X118871Y143597D01*
X118796Y143609D01*
X118721Y143617D01*
X118646Y143621D01*
X118570Y143621D01*
X118495Y143617D01*
X118420Y143609D01*
X118345Y143597D01*
X118271Y143582D01*
X118198Y143563D01*
X118126Y143540D01*
X118055Y143513D01*
X117986Y143483D01*
X117918Y143449D01*
X117852Y143412D01*
X117788Y143371D01*
X117727Y143327D01*
X117668Y143280D01*
X117611Y143230D01*
X117557Y143178D01*
X117505Y143122D01*
X117457Y143064D01*
X117412Y143004D01*
X117369Y142941D01*
X117330Y142876D01*
X117295Y142809D01*
X117263Y142741D01*
X117234Y142671D01*
X117210Y142599D01*
X117188Y142527D01*
X117171Y142453D01*
X117157Y142379D01*
X117148Y142304D01*
X117142Y142229D01*
X117140Y142153D01*
X117141Y142153D02*
X117141Y140686D01*
X120076Y146900D02*
X113472Y149102D01*
X120076Y151303D01*
X113472Y154582D02*
X113472Y156417D01*
X113474Y156502D01*
X113480Y156586D01*
X113490Y156670D01*
X113503Y156754D01*
X113521Y156837D01*
X113542Y156919D01*
X113567Y157000D01*
X113596Y157080D01*
X113628Y157158D01*
X113664Y157234D01*
X113704Y157309D01*
X113747Y157382D01*
X113793Y157453D01*
X113842Y157522D01*
X113895Y157589D01*
X113951Y157653D01*
X114009Y157714D01*
X114070Y157772D01*
X114134Y157828D01*
X114201Y157881D01*
X114270Y157930D01*
X114341Y157976D01*
X114414Y158019D01*
X114489Y158059D01*
X114565Y158095D01*
X114643Y158127D01*
X114723Y158156D01*
X114804Y158181D01*
X114886Y158202D01*
X114969Y158220D01*
X115053Y158233D01*
X115137Y158243D01*
X115221Y158249D01*
X115306Y158251D01*
X115391Y158249D01*
X115475Y158243D01*
X115559Y158233D01*
X115643Y158220D01*
X115726Y158202D01*
X115808Y158181D01*
X115889Y158156D01*
X115969Y158127D01*
X116047Y158095D01*
X116123Y158059D01*
X116198Y158019D01*
X116271Y157976D01*
X116342Y157930D01*
X116411Y157881D01*
X116478Y157828D01*
X116542Y157772D01*
X116603Y157714D01*
X116661Y157653D01*
X116717Y157589D01*
X116770Y157522D01*
X116819Y157453D01*
X116865Y157382D01*
X116908Y157309D01*
X116948Y157234D01*
X116984Y157158D01*
X117016Y157080D01*
X117045Y157000D01*
X117070Y156919D01*
X117091Y156837D01*
X117109Y156754D01*
X117122Y156670D01*
X117132Y156586D01*
X117138Y156502D01*
X117140Y156417D01*
X120076Y156784D02*
X120076Y154582D01*
X120076Y156784D02*
X120074Y156860D01*
X120068Y156935D01*
X120059Y157010D01*
X120045Y157084D01*
X120028Y157158D01*
X120006Y157230D01*
X119982Y157302D01*
X119953Y157372D01*
X119921Y157440D01*
X119886Y157507D01*
X119847Y157572D01*
X119804Y157635D01*
X119759Y157695D01*
X119711Y157753D01*
X119659Y157809D01*
X119605Y157861D01*
X119548Y157911D01*
X119489Y157958D01*
X119428Y158002D01*
X119364Y158043D01*
X119298Y158080D01*
X119230Y158114D01*
X119161Y158144D01*
X119090Y158171D01*
X119018Y158194D01*
X118945Y158213D01*
X118871Y158228D01*
X118796Y158240D01*
X118721Y158248D01*
X118646Y158252D01*
X118570Y158252D01*
X118495Y158248D01*
X118420Y158240D01*
X118345Y158228D01*
X118271Y158213D01*
X118198Y158194D01*
X118126Y158171D01*
X118055Y158144D01*
X117986Y158114D01*
X117918Y158080D01*
X117852Y158043D01*
X117788Y158002D01*
X117727Y157958D01*
X117668Y157911D01*
X117611Y157861D01*
X117557Y157809D01*
X117505Y157753D01*
X117457Y157695D01*
X117412Y157635D01*
X117369Y157572D01*
X117330Y157507D01*
X117295Y157440D01*
X117263Y157372D01*
X117234Y157302D01*
X117210Y157230D01*
X117188Y157158D01*
X117171Y157084D01*
X117157Y157010D01*
X117148Y156935D01*
X117142Y156860D01*
X117140Y156784D01*
X117141Y156784D02*
X117141Y155316D01*
X129841Y143621D02*
X129841Y142520D01*
X129841Y143621D02*
X126172Y143621D01*
X126172Y141420D01*
X126174Y141346D01*
X126180Y141271D01*
X126189Y141198D01*
X126202Y141124D01*
X126219Y141052D01*
X126239Y140981D01*
X126263Y140910D01*
X126291Y140841D01*
X126322Y140774D01*
X126356Y140708D01*
X126394Y140643D01*
X126435Y140581D01*
X126479Y140521D01*
X126526Y140464D01*
X126576Y140409D01*
X126629Y140356D01*
X126684Y140306D01*
X126741Y140259D01*
X126801Y140215D01*
X126863Y140174D01*
X126928Y140136D01*
X126994Y140102D01*
X127061Y140071D01*
X127130Y140043D01*
X127201Y140019D01*
X127272Y139999D01*
X127344Y139982D01*
X127418Y139969D01*
X127491Y139960D01*
X127566Y139954D01*
X127640Y139952D01*
X131308Y139952D01*
X131382Y139954D01*
X131457Y139960D01*
X131530Y139969D01*
X131604Y139982D01*
X131676Y139999D01*
X131747Y140019D01*
X131818Y140043D01*
X131887Y140071D01*
X131954Y140102D01*
X132020Y140136D01*
X132085Y140174D01*
X132147Y140215D01*
X132207Y140259D01*
X132264Y140306D01*
X132319Y140356D01*
X132372Y140409D01*
X132422Y140464D01*
X132469Y140521D01*
X132513Y140581D01*
X132554Y140643D01*
X132592Y140708D01*
X132626Y140773D01*
X132657Y140841D01*
X132685Y140910D01*
X132709Y140981D01*
X132729Y141052D01*
X132746Y141124D01*
X132759Y141198D01*
X132768Y141271D01*
X132774Y141346D01*
X132776Y141420D01*
X132776Y143621D01*
X132776Y147755D02*
X126172Y147755D01*
X126172Y151424D02*
X132776Y147755D01*
X132776Y151424D02*
X126172Y151424D01*
X126172Y155558D02*
X132776Y155558D01*
X132776Y157392D01*
X132774Y157477D01*
X132768Y157561D01*
X132758Y157645D01*
X132745Y157729D01*
X132727Y157812D01*
X132706Y157894D01*
X132681Y157975D01*
X132652Y158055D01*
X132620Y158133D01*
X132584Y158209D01*
X132544Y158284D01*
X132501Y158357D01*
X132455Y158428D01*
X132406Y158497D01*
X132353Y158564D01*
X132297Y158628D01*
X132239Y158689D01*
X132178Y158747D01*
X132114Y158803D01*
X132047Y158856D01*
X131978Y158905D01*
X131907Y158951D01*
X131834Y158994D01*
X131759Y159034D01*
X131683Y159070D01*
X131605Y159102D01*
X131525Y159131D01*
X131444Y159156D01*
X131362Y159177D01*
X131279Y159195D01*
X131195Y159208D01*
X131111Y159218D01*
X131027Y159224D01*
X130942Y159226D01*
X130942Y159227D02*
X128006Y159227D01*
X128006Y159226D02*
X127921Y159224D01*
X127837Y159218D01*
X127753Y159208D01*
X127669Y159195D01*
X127586Y159177D01*
X127504Y159156D01*
X127423Y159131D01*
X127343Y159102D01*
X127265Y159070D01*
X127189Y159034D01*
X127114Y158994D01*
X127041Y158951D01*
X126970Y158905D01*
X126901Y158856D01*
X126834Y158803D01*
X126770Y158747D01*
X126709Y158689D01*
X126651Y158628D01*
X126595Y158564D01*
X126542Y158497D01*
X126493Y158428D01*
X126447Y158357D01*
X126404Y158284D01*
X126364Y158209D01*
X126328Y158133D01*
X126296Y158055D01*
X126267Y157975D01*
X126242Y157894D01*
X126221Y157812D01*
X126203Y157729D01*
X126190Y157645D01*
X126180Y157561D01*
X126174Y157477D01*
X126172Y157392D01*
X126172Y155558D01*
X62418Y177375D02*
X60217Y177375D01*
X61684Y179576D02*
X61684Y174073D01*
X61685Y174073D02*
X61683Y174009D01*
X61678Y173945D01*
X61668Y173882D01*
X61655Y173819D01*
X61639Y173757D01*
X61619Y173696D01*
X61595Y173637D01*
X61568Y173579D01*
X61537Y173522D01*
X61504Y173468D01*
X61467Y173416D01*
X61427Y173365D01*
X61385Y173317D01*
X61340Y173272D01*
X61292Y173230D01*
X61241Y173190D01*
X61189Y173153D01*
X61134Y173119D01*
X61078Y173089D01*
X61020Y173062D01*
X60961Y173038D01*
X60900Y173018D01*
X60838Y173002D01*
X60775Y172989D01*
X60712Y172979D01*
X60648Y172974D01*
X60584Y172972D01*
X60217Y172972D01*
X57501Y172972D02*
X57501Y173339D01*
X57134Y173339D01*
X57134Y172972D01*
X57501Y172972D01*
X53666Y172972D02*
X53666Y177375D01*
X50364Y177375D01*
X50300Y177373D01*
X50236Y177368D01*
X50173Y177358D01*
X50110Y177345D01*
X50048Y177329D01*
X49987Y177309D01*
X49928Y177285D01*
X49870Y177258D01*
X49814Y177227D01*
X49759Y177194D01*
X49707Y177157D01*
X49656Y177117D01*
X49608Y177075D01*
X49563Y177030D01*
X49521Y176982D01*
X49481Y176931D01*
X49444Y176879D01*
X49411Y176825D01*
X49380Y176768D01*
X49353Y176710D01*
X49329Y176651D01*
X49309Y176590D01*
X49293Y176528D01*
X49280Y176465D01*
X49270Y176402D01*
X49265Y176338D01*
X49263Y176274D01*
X49264Y176274D02*
X49264Y172972D01*
X51465Y172972D02*
X51465Y177375D01*
X44273Y172972D02*
X42438Y172972D01*
X44273Y172972D02*
X44337Y172974D01*
X44401Y172979D01*
X44464Y172989D01*
X44527Y173002D01*
X44589Y173018D01*
X44650Y173038D01*
X44709Y173062D01*
X44767Y173089D01*
X44824Y173120D01*
X44878Y173153D01*
X44930Y173190D01*
X44981Y173230D01*
X45029Y173272D01*
X45074Y173317D01*
X45116Y173365D01*
X45156Y173416D01*
X45193Y173468D01*
X45227Y173523D01*
X45257Y173579D01*
X45284Y173637D01*
X45308Y173696D01*
X45328Y173757D01*
X45344Y173819D01*
X45357Y173882D01*
X45367Y173945D01*
X45372Y174009D01*
X45374Y174073D01*
X45373Y174073D02*
X45373Y175907D01*
X45374Y175907D02*
X45372Y175983D01*
X45366Y176058D01*
X45357Y176133D01*
X45343Y176207D01*
X45326Y176281D01*
X45304Y176353D01*
X45280Y176425D01*
X45251Y176495D01*
X45219Y176563D01*
X45184Y176630D01*
X45145Y176695D01*
X45102Y176758D01*
X45057Y176818D01*
X45009Y176876D01*
X44957Y176932D01*
X44903Y176984D01*
X44846Y177034D01*
X44787Y177081D01*
X44726Y177125D01*
X44662Y177166D01*
X44596Y177203D01*
X44528Y177237D01*
X44459Y177267D01*
X44388Y177294D01*
X44316Y177317D01*
X44243Y177336D01*
X44169Y177351D01*
X44094Y177363D01*
X44019Y177371D01*
X43944Y177375D01*
X43868Y177375D01*
X43793Y177371D01*
X43718Y177363D01*
X43643Y177351D01*
X43569Y177336D01*
X43496Y177317D01*
X43424Y177294D01*
X43353Y177267D01*
X43284Y177237D01*
X43216Y177203D01*
X43150Y177166D01*
X43086Y177125D01*
X43025Y177081D01*
X42966Y177034D01*
X42909Y176984D01*
X42855Y176932D01*
X42803Y176876D01*
X42755Y176818D01*
X42710Y176758D01*
X42667Y176695D01*
X42628Y176630D01*
X42593Y176563D01*
X42561Y176495D01*
X42532Y176425D01*
X42508Y176353D01*
X42486Y176281D01*
X42469Y176207D01*
X42455Y176133D01*
X42446Y176058D01*
X42440Y175983D01*
X42438Y175907D01*
X42438Y175173D01*
X45373Y175173D01*
X39277Y172238D02*
X36342Y180310D01*
X30309Y179576D02*
X30309Y172972D01*
X32144Y172972D01*
X32208Y172974D01*
X32272Y172979D01*
X32335Y172989D01*
X32398Y173002D01*
X32460Y173018D01*
X32521Y173038D01*
X32580Y173062D01*
X32638Y173089D01*
X32695Y173120D01*
X32749Y173153D01*
X32801Y173190D01*
X32852Y173230D01*
X32900Y173272D01*
X32945Y173317D01*
X32987Y173365D01*
X33027Y173416D01*
X33064Y173468D01*
X33098Y173523D01*
X33128Y173579D01*
X33155Y173637D01*
X33179Y173696D01*
X33199Y173757D01*
X33215Y173819D01*
X33228Y173882D01*
X33238Y173945D01*
X33243Y174009D01*
X33245Y174073D01*
X33245Y176274D01*
X33243Y176338D01*
X33238Y176402D01*
X33228Y176465D01*
X33215Y176528D01*
X33199Y176590D01*
X33179Y176651D01*
X33155Y176710D01*
X33128Y176768D01*
X33097Y176825D01*
X33064Y176879D01*
X33027Y176931D01*
X32987Y176982D01*
X32945Y177030D01*
X32900Y177075D01*
X32852Y177117D01*
X32801Y177157D01*
X32749Y177194D01*
X32695Y177227D01*
X32638Y177258D01*
X32580Y177285D01*
X32521Y177309D01*
X32460Y177329D01*
X32398Y177345D01*
X32335Y177358D01*
X32272Y177368D01*
X32208Y177373D01*
X32144Y177375D01*
X30309Y177375D01*
X25497Y172972D02*
X23663Y172972D01*
X25497Y172972D02*
X25561Y172974D01*
X25625Y172979D01*
X25688Y172989D01*
X25751Y173002D01*
X25813Y173018D01*
X25874Y173038D01*
X25933Y173062D01*
X25991Y173089D01*
X26048Y173120D01*
X26102Y173153D01*
X26154Y173190D01*
X26205Y173230D01*
X26253Y173272D01*
X26298Y173317D01*
X26340Y173365D01*
X26380Y173416D01*
X26417Y173468D01*
X26451Y173523D01*
X26481Y173579D01*
X26508Y173637D01*
X26532Y173696D01*
X26552Y173757D01*
X26568Y173819D01*
X26581Y173882D01*
X26591Y173945D01*
X26596Y174009D01*
X26598Y174073D01*
X26598Y175907D01*
X26596Y175983D01*
X26590Y176058D01*
X26581Y176133D01*
X26567Y176207D01*
X26550Y176281D01*
X26528Y176353D01*
X26504Y176425D01*
X26475Y176495D01*
X26443Y176563D01*
X26408Y176630D01*
X26369Y176695D01*
X26326Y176758D01*
X26281Y176818D01*
X26233Y176876D01*
X26181Y176932D01*
X26127Y176984D01*
X26070Y177034D01*
X26011Y177081D01*
X25950Y177125D01*
X25886Y177166D01*
X25820Y177203D01*
X25752Y177237D01*
X25683Y177267D01*
X25612Y177294D01*
X25540Y177317D01*
X25467Y177336D01*
X25393Y177351D01*
X25318Y177363D01*
X25243Y177371D01*
X25168Y177375D01*
X25092Y177375D01*
X25017Y177371D01*
X24942Y177363D01*
X24867Y177351D01*
X24793Y177336D01*
X24720Y177317D01*
X24648Y177294D01*
X24577Y177267D01*
X24508Y177237D01*
X24440Y177203D01*
X24374Y177166D01*
X24310Y177125D01*
X24249Y177081D01*
X24190Y177034D01*
X24133Y176984D01*
X24079Y176932D01*
X24027Y176876D01*
X23979Y176818D01*
X23934Y176758D01*
X23891Y176695D01*
X23852Y176630D01*
X23817Y176563D01*
X23785Y176495D01*
X23756Y176425D01*
X23732Y176353D01*
X23710Y176281D01*
X23693Y176207D01*
X23679Y176133D01*
X23670Y176058D01*
X23664Y175983D01*
X23662Y175907D01*
X23663Y175907D02*
X23663Y175173D01*
X26598Y175173D01*
X19037Y175540D02*
X17386Y175540D01*
X19037Y175540D02*
X19108Y175538D01*
X19178Y175532D01*
X19248Y175522D01*
X19318Y175509D01*
X19386Y175492D01*
X19454Y175470D01*
X19520Y175446D01*
X19585Y175417D01*
X19648Y175385D01*
X19709Y175350D01*
X19769Y175311D01*
X19826Y175269D01*
X19880Y175224D01*
X19932Y175176D01*
X19982Y175126D01*
X20028Y175072D01*
X20072Y175016D01*
X20112Y174958D01*
X20149Y174898D01*
X20183Y174836D01*
X20213Y174772D01*
X20239Y174706D01*
X20262Y174639D01*
X20282Y174571D01*
X20297Y174502D01*
X20309Y174432D01*
X20317Y174362D01*
X20321Y174291D01*
X20321Y174221D01*
X20317Y174150D01*
X20309Y174080D01*
X20297Y174010D01*
X20282Y173941D01*
X20262Y173873D01*
X20239Y173806D01*
X20213Y173740D01*
X20183Y173676D01*
X20149Y173614D01*
X20112Y173554D01*
X20072Y173496D01*
X20028Y173440D01*
X19982Y173386D01*
X19932Y173336D01*
X19880Y173288D01*
X19826Y173243D01*
X19769Y173201D01*
X19709Y173162D01*
X19648Y173127D01*
X19585Y173095D01*
X19520Y173066D01*
X19454Y173042D01*
X19386Y173020D01*
X19318Y173003D01*
X19248Y172990D01*
X19178Y172980D01*
X19108Y172974D01*
X19037Y172972D01*
X17386Y172972D01*
X17386Y176274D01*
X17388Y176338D01*
X17393Y176402D01*
X17403Y176465D01*
X17416Y176528D01*
X17432Y176590D01*
X17452Y176651D01*
X17476Y176710D01*
X17503Y176768D01*
X17534Y176825D01*
X17567Y176879D01*
X17604Y176931D01*
X17644Y176982D01*
X17686Y177030D01*
X17731Y177075D01*
X17779Y177117D01*
X17830Y177157D01*
X17882Y177194D01*
X17937Y177228D01*
X17993Y177258D01*
X18051Y177285D01*
X18110Y177309D01*
X18171Y177329D01*
X18233Y177345D01*
X18296Y177358D01*
X18359Y177368D01*
X18423Y177373D01*
X18487Y177375D01*
X19954Y177375D01*
X13918Y172972D02*
X10983Y177375D01*
X13918Y177375D02*
X10983Y172972D01*
X8066Y172972D02*
X5131Y177375D01*
X8066Y177375D02*
X5131Y172972D01*
X74930Y130810D02*
X80010Y125730D01*
X74930Y130810D02*
X85090Y130810D01*
X83820Y129540D01*
X80010Y125730D01*
X80010Y127000D01*
X77470Y129540D01*
X82550Y129540D01*
X83820Y129540D01*
X82550Y129540D02*
X81280Y128270D01*
X80010Y128270D01*
X81976Y24382D02*
X75372Y24382D01*
X81976Y24382D02*
X81976Y26216D01*
X81974Y26301D01*
X81968Y26385D01*
X81958Y26469D01*
X81945Y26553D01*
X81927Y26636D01*
X81906Y26718D01*
X81881Y26799D01*
X81852Y26879D01*
X81820Y26957D01*
X81784Y27033D01*
X81744Y27108D01*
X81701Y27181D01*
X81655Y27252D01*
X81606Y27321D01*
X81553Y27388D01*
X81497Y27452D01*
X81439Y27513D01*
X81378Y27571D01*
X81314Y27627D01*
X81247Y27680D01*
X81178Y27729D01*
X81107Y27775D01*
X81034Y27818D01*
X80959Y27858D01*
X80883Y27894D01*
X80805Y27926D01*
X80725Y27955D01*
X80644Y27980D01*
X80562Y28001D01*
X80479Y28019D01*
X80395Y28032D01*
X80311Y28042D01*
X80227Y28048D01*
X80142Y28050D01*
X80057Y28048D01*
X79973Y28042D01*
X79889Y28032D01*
X79805Y28019D01*
X79722Y28001D01*
X79640Y27980D01*
X79559Y27955D01*
X79479Y27926D01*
X79401Y27894D01*
X79325Y27858D01*
X79250Y27818D01*
X79177Y27775D01*
X79106Y27729D01*
X79037Y27680D01*
X78970Y27627D01*
X78906Y27571D01*
X78845Y27513D01*
X78787Y27452D01*
X78731Y27388D01*
X78678Y27321D01*
X78629Y27252D01*
X78583Y27181D01*
X78540Y27108D01*
X78500Y27033D01*
X78464Y26957D01*
X78432Y26879D01*
X78403Y26799D01*
X78378Y26718D01*
X78357Y26636D01*
X78339Y26553D01*
X78326Y26469D01*
X78316Y26385D01*
X78310Y26301D01*
X78308Y26216D01*
X78307Y26216D02*
X78307Y24382D01*
X78307Y26583D02*
X75372Y28051D01*
X75372Y31252D02*
X81976Y35654D01*
X81976Y31252D02*
X75372Y35654D01*
X68006Y26216D02*
X61402Y26216D01*
X68006Y24382D02*
X68006Y28051D01*
X61402Y30843D02*
X68006Y35245D01*
X68006Y30843D02*
X61402Y35245D01*
X88072Y26583D02*
X94676Y24382D01*
X94676Y28785D02*
X88072Y26583D01*
X88072Y33496D02*
X88072Y34964D01*
X88072Y33496D02*
X88074Y33422D01*
X88080Y33347D01*
X88089Y33274D01*
X88102Y33200D01*
X88119Y33128D01*
X88139Y33057D01*
X88163Y32986D01*
X88191Y32917D01*
X88222Y32850D01*
X88256Y32784D01*
X88294Y32719D01*
X88335Y32657D01*
X88379Y32597D01*
X88426Y32540D01*
X88476Y32485D01*
X88529Y32432D01*
X88584Y32382D01*
X88641Y32335D01*
X88701Y32291D01*
X88763Y32250D01*
X88828Y32212D01*
X88894Y32178D01*
X88961Y32147D01*
X89030Y32119D01*
X89101Y32095D01*
X89172Y32075D01*
X89244Y32058D01*
X89318Y32045D01*
X89391Y32036D01*
X89466Y32030D01*
X89540Y32028D01*
X89540Y32029D02*
X93208Y32029D01*
X93208Y32028D02*
X93282Y32030D01*
X93357Y32036D01*
X93430Y32045D01*
X93504Y32058D01*
X93576Y32075D01*
X93647Y32095D01*
X93718Y32119D01*
X93787Y32147D01*
X93854Y32178D01*
X93920Y32212D01*
X93985Y32250D01*
X94047Y32291D01*
X94107Y32335D01*
X94164Y32382D01*
X94219Y32432D01*
X94272Y32485D01*
X94322Y32540D01*
X94369Y32597D01*
X94413Y32657D01*
X94454Y32719D01*
X94492Y32784D01*
X94526Y32849D01*
X94557Y32917D01*
X94585Y32986D01*
X94609Y33057D01*
X94629Y33128D01*
X94646Y33200D01*
X94659Y33274D01*
X94668Y33347D01*
X94674Y33422D01*
X94676Y33496D01*
X94676Y34964D01*
X88072Y39592D02*
X88072Y41060D01*
X88072Y39592D02*
X88074Y39518D01*
X88080Y39443D01*
X88089Y39370D01*
X88102Y39296D01*
X88119Y39224D01*
X88139Y39153D01*
X88163Y39082D01*
X88191Y39013D01*
X88222Y38946D01*
X88256Y38880D01*
X88294Y38815D01*
X88335Y38753D01*
X88379Y38693D01*
X88426Y38636D01*
X88476Y38581D01*
X88529Y38528D01*
X88584Y38478D01*
X88641Y38431D01*
X88701Y38387D01*
X88763Y38346D01*
X88828Y38308D01*
X88894Y38274D01*
X88961Y38243D01*
X89030Y38215D01*
X89101Y38191D01*
X89172Y38171D01*
X89244Y38154D01*
X89318Y38141D01*
X89391Y38132D01*
X89466Y38126D01*
X89540Y38124D01*
X89540Y38125D02*
X93208Y38125D01*
X93208Y38124D02*
X93282Y38126D01*
X93357Y38132D01*
X93430Y38141D01*
X93504Y38154D01*
X93576Y38171D01*
X93647Y38191D01*
X93718Y38215D01*
X93787Y38243D01*
X93854Y38274D01*
X93920Y38308D01*
X93985Y38346D01*
X94047Y38387D01*
X94107Y38431D01*
X94164Y38478D01*
X94219Y38528D01*
X94272Y38581D01*
X94322Y38636D01*
X94369Y38693D01*
X94413Y38753D01*
X94454Y38815D01*
X94492Y38880D01*
X94526Y38945D01*
X94557Y39013D01*
X94585Y39082D01*
X94609Y39153D01*
X94629Y39224D01*
X94646Y39296D01*
X94659Y39370D01*
X94668Y39443D01*
X94674Y39518D01*
X94676Y39592D01*
X94676Y41060D01*
X55306Y25116D02*
X48702Y25116D01*
X48702Y24382D02*
X48702Y25850D01*
X55306Y25850D02*
X55306Y24382D01*
X48702Y31091D02*
X48704Y31165D01*
X48710Y31240D01*
X48719Y31313D01*
X48732Y31387D01*
X48749Y31459D01*
X48769Y31530D01*
X48793Y31601D01*
X48821Y31670D01*
X48852Y31737D01*
X48886Y31803D01*
X48924Y31868D01*
X48965Y31930D01*
X49009Y31990D01*
X49056Y32047D01*
X49106Y32102D01*
X49159Y32155D01*
X49214Y32205D01*
X49271Y32252D01*
X49331Y32296D01*
X49393Y32337D01*
X49458Y32375D01*
X49524Y32409D01*
X49591Y32440D01*
X49660Y32468D01*
X49731Y32492D01*
X49802Y32512D01*
X49874Y32529D01*
X49948Y32542D01*
X50021Y32551D01*
X50096Y32557D01*
X50170Y32559D01*
X48702Y31091D02*
X48704Y30980D01*
X48710Y30869D01*
X48720Y30758D01*
X48734Y30647D01*
X48752Y30538D01*
X48774Y30429D01*
X48799Y30320D01*
X48829Y30213D01*
X48862Y30107D01*
X48900Y30002D01*
X48940Y29899D01*
X48985Y29797D01*
X49033Y29697D01*
X49085Y29598D01*
X49140Y29502D01*
X49199Y29407D01*
X49261Y29315D01*
X49327Y29225D01*
X49395Y29137D01*
X49467Y29052D01*
X49542Y28970D01*
X49619Y28890D01*
X53838Y29073D02*
X53912Y29075D01*
X53987Y29081D01*
X54060Y29090D01*
X54134Y29103D01*
X54206Y29120D01*
X54277Y29140D01*
X54348Y29164D01*
X54417Y29192D01*
X54484Y29223D01*
X54550Y29257D01*
X54615Y29295D01*
X54677Y29336D01*
X54737Y29380D01*
X54794Y29427D01*
X54849Y29477D01*
X54902Y29530D01*
X54952Y29585D01*
X54999Y29642D01*
X55043Y29702D01*
X55084Y29764D01*
X55122Y29829D01*
X55156Y29895D01*
X55187Y29962D01*
X55215Y30031D01*
X55239Y30102D01*
X55259Y30173D01*
X55276Y30245D01*
X55289Y30319D01*
X55298Y30392D01*
X55304Y30467D01*
X55306Y30541D01*
X55304Y30645D01*
X55298Y30749D01*
X55288Y30853D01*
X55275Y30956D01*
X55257Y31059D01*
X55235Y31161D01*
X55210Y31262D01*
X55181Y31362D01*
X55148Y31461D01*
X55111Y31558D01*
X55071Y31654D01*
X55027Y31749D01*
X54979Y31841D01*
X54929Y31932D01*
X54874Y32021D01*
X54817Y32108D01*
X54756Y32192D01*
X52553Y29807D02*
X52592Y29744D01*
X52634Y29684D01*
X52679Y29626D01*
X52727Y29569D01*
X52778Y29516D01*
X52831Y29465D01*
X52886Y29416D01*
X52944Y29371D01*
X53004Y29328D01*
X53066Y29288D01*
X53130Y29252D01*
X53196Y29218D01*
X53264Y29188D01*
X53332Y29161D01*
X53402Y29138D01*
X53473Y29118D01*
X53545Y29102D01*
X53618Y29089D01*
X53691Y29080D01*
X53764Y29075D01*
X53838Y29073D01*
X51455Y31825D02*
X51416Y31888D01*
X51374Y31948D01*
X51329Y32007D01*
X51281Y32063D01*
X51230Y32116D01*
X51177Y32167D01*
X51122Y32216D01*
X51064Y32261D01*
X51004Y32304D01*
X50942Y32344D01*
X50878Y32380D01*
X50812Y32414D01*
X50744Y32444D01*
X50676Y32471D01*
X50606Y32494D01*
X50535Y32514D01*
X50463Y32530D01*
X50390Y32543D01*
X50317Y32552D01*
X50244Y32557D01*
X50170Y32559D01*
X51454Y31825D02*
X52554Y29807D01*
X55306Y36386D02*
X48702Y36386D01*
X55306Y36386D02*
X55306Y38220D01*
X55304Y38305D01*
X55298Y38389D01*
X55288Y38473D01*
X55275Y38557D01*
X55257Y38640D01*
X55236Y38722D01*
X55211Y38803D01*
X55182Y38883D01*
X55150Y38961D01*
X55114Y39037D01*
X55074Y39112D01*
X55031Y39185D01*
X54985Y39256D01*
X54936Y39325D01*
X54883Y39392D01*
X54827Y39456D01*
X54769Y39517D01*
X54708Y39575D01*
X54644Y39631D01*
X54577Y39684D01*
X54508Y39733D01*
X54437Y39779D01*
X54364Y39822D01*
X54289Y39862D01*
X54213Y39898D01*
X54135Y39930D01*
X54055Y39959D01*
X53974Y39984D01*
X53892Y40005D01*
X53809Y40023D01*
X53725Y40036D01*
X53641Y40046D01*
X53557Y40052D01*
X53472Y40054D01*
X53387Y40052D01*
X53303Y40046D01*
X53219Y40036D01*
X53135Y40023D01*
X53052Y40005D01*
X52970Y39984D01*
X52889Y39959D01*
X52809Y39930D01*
X52731Y39898D01*
X52655Y39862D01*
X52580Y39822D01*
X52507Y39779D01*
X52436Y39733D01*
X52367Y39684D01*
X52300Y39631D01*
X52236Y39575D01*
X52175Y39517D01*
X52117Y39456D01*
X52061Y39392D01*
X52008Y39325D01*
X51959Y39256D01*
X51913Y39185D01*
X51870Y39112D01*
X51830Y39037D01*
X51794Y38961D01*
X51762Y38883D01*
X51733Y38803D01*
X51708Y38722D01*
X51687Y38640D01*
X51669Y38557D01*
X51656Y38473D01*
X51646Y38389D01*
X51640Y38305D01*
X51638Y38220D01*
X51637Y38220D02*
X51637Y36386D01*
D12*
X73660Y130810D02*
X86360Y130810D01*
X80010Y124460D01*
X73660Y130810D01*
D13*
X91440Y7620D02*
X39370Y7620D01*
M02*
