M48
;GenerationSoftware,Autodesk,EAGLE,9.6.2*%
;CreationDate,2022-05-16T16:12:43Z*%
FMAT,2
ICI,OFF
METRIC,TZ,000.000
T3C0.200
T2C0.300
T1C0.650
%
G90
M71
T1
X10339Y13
X216Y3823
X216Y2553
X16260Y7641
X16260Y8911
X16260Y2561
X16260Y10181
X16260Y11451
X16260Y12721
X16260Y6371
X16260Y5101
X216Y7633
X7799Y13
X6529Y13
X5259Y13
X3989Y13
X2719Y13
X9069Y13
X16260Y3831
X11609Y13
X12879Y13
X216Y8903
X216Y10173
X216Y11443
X216Y12713
X216Y6363
X216Y5093
T2
X12065Y4064
X3494Y2492
X8949Y2581
X11811Y6858
X11303Y11557
X3683Y3937
X11763Y11214
X3663Y4506
X11390Y4083
X14732Y8763
T3
X8108Y9129
X7326Y15860
X7580Y14717
X7580Y13701
X8576Y15860
X9826Y15860
X10945Y15860
X12191Y15860
X13437Y15860
X14810Y15860
X13437Y14590
X12191Y14590
X10945Y14590
X14810Y14503
X6076Y15860
X3199Y14003
X4342Y14003
X1929Y541
X15826Y533
X15826Y1676
X14429Y533
X13564Y4303
X3072Y9812
X5949Y12812
X7580Y11923
X12191Y13574
X13437Y13574
X14810Y13614
X15826Y13614
X14834Y5827
X14834Y6970
X6076Y16749
X7219Y6462
X8576Y16749
X9826Y16749
X10945Y16749
X12191Y16749
X13437Y16749
X14810Y16749
X15826Y16769
X679Y16765
X4933Y16749
X3282Y16749
X2672Y16758
X3199Y15019
X3199Y15908
X1115Y16756
X3199Y12987
X4342Y12987
X7326Y16749
X15826Y15880
X14859Y9525
X15826Y14503
X679Y16003
X679Y15003
X679Y14003
X9779Y11303
X9017Y11303
X7874Y11303
X6985Y11684
X1651Y12192
X2286Y11811
X2921Y11684
X3302Y11176
X3048Y7112
X10922Y1397
X1929Y16003
X10609Y2363
X11049Y2794
X10033Y4445
X11557Y5080
X11176Y5588
X13900Y11106
X5282Y1605
X1929Y15003
X1929Y14003
X7219Y7351
X6203Y7351
X5314Y7351
X8108Y7351
X9124Y7351
X8108Y6462
X8108Y5573
X679Y541
X9124Y6462
X9124Y5573
X7219Y5573
X6203Y5573
X6203Y6462
X5314Y5573
X5314Y6462
X5314Y8240
X5314Y9129
X6203Y8240
X6203Y9129
X7219Y8240
X8108Y8240
X9124Y8240
X7219Y9129
X9124Y9129
X10168Y1905
M30