G04 EAGLE Gerber RS-274X export*
G75*
%MOMM*%
%FSLAX34Y34*%
%LPD*%
%INBottom Copper*%
%IPPOS*%
%AMOC8*
5,1,8,0,0,1.08239X$1,22.5*%
G01*
%ADD10R,2.403600X2.368000*%
%ADD11C,1.158000*%
%ADD12R,3.600000X2.600000*%
%ADD13C,1.879600*%
%ADD14R,0.600000X0.540000*%
%ADD15R,1.000000X1.100000*%
%ADD16R,0.540000X0.600000*%
%ADD17R,1.100000X1.000000*%
%ADD18C,0.706400*%
%ADD19C,0.406400*%
%ADD20C,0.254000*%
%ADD21C,0.200000*%
%ADD22C,0.508000*%

G36*
X244322Y3416D02*
X244322Y3416D01*
X244373Y3416D01*
X246166Y3593D01*
X246201Y3602D01*
X246238Y3604D01*
X246379Y3646D01*
X249691Y5018D01*
X249753Y5057D01*
X249820Y5087D01*
X249877Y5134D01*
X249899Y5147D01*
X249909Y5160D01*
X249934Y5181D01*
X252469Y7716D01*
X252512Y7775D01*
X252562Y7828D01*
X252597Y7894D01*
X252611Y7914D01*
X252616Y7930D01*
X252632Y7959D01*
X254004Y11271D01*
X254012Y11306D01*
X254028Y11339D01*
X254057Y11484D01*
X254234Y13277D01*
X254232Y13299D01*
X254237Y13350D01*
X254237Y16345D01*
X254225Y16417D01*
X254223Y16490D01*
X254206Y16537D01*
X254198Y16585D01*
X254163Y16650D01*
X254137Y16719D01*
X254106Y16757D01*
X254083Y16800D01*
X254029Y16851D01*
X253982Y16908D01*
X253940Y16934D01*
X253905Y16967D01*
X253838Y16998D01*
X253775Y17037D01*
X253727Y17048D01*
X253682Y17068D01*
X253609Y17075D01*
X253538Y17092D01*
X253489Y17087D01*
X253439Y17092D01*
X253368Y17076D01*
X253295Y17068D01*
X253250Y17048D01*
X253202Y17037D01*
X253139Y16998D01*
X253072Y16968D01*
X253016Y16921D01*
X252994Y16908D01*
X252984Y16895D01*
X252958Y16874D01*
X251778Y15694D01*
X250257Y14589D01*
X248583Y13736D01*
X246796Y13155D01*
X245499Y12950D01*
X245499Y24050D01*
X245495Y24074D01*
X245498Y24098D01*
X245475Y24194D01*
X245459Y24291D01*
X245448Y24312D01*
X245442Y24336D01*
X245391Y24419D01*
X245344Y24506D01*
X245327Y24523D01*
X245314Y24543D01*
X245238Y24606D01*
X245166Y24673D01*
X245144Y24683D01*
X245125Y24698D01*
X245034Y24733D01*
X244944Y24773D01*
X244920Y24776D01*
X244897Y24785D01*
X244750Y24799D01*
X243999Y24799D01*
X243999Y24801D01*
X244750Y24801D01*
X244774Y24805D01*
X244798Y24802D01*
X244894Y24825D01*
X244991Y24841D01*
X245012Y24852D01*
X245036Y24858D01*
X245120Y24909D01*
X245206Y24956D01*
X245223Y24973D01*
X245243Y24986D01*
X245306Y25062D01*
X245373Y25134D01*
X245383Y25156D01*
X245398Y25175D01*
X245433Y25267D01*
X245474Y25356D01*
X245476Y25380D01*
X245485Y25403D01*
X245499Y25550D01*
X245499Y36650D01*
X246796Y36445D01*
X248583Y35864D01*
X250257Y35011D01*
X251778Y33906D01*
X252958Y32726D01*
X253018Y32683D01*
X253072Y32633D01*
X253116Y32612D01*
X253157Y32584D01*
X253227Y32562D01*
X253294Y32532D01*
X253343Y32527D01*
X253390Y32513D01*
X253463Y32515D01*
X253537Y32508D01*
X253585Y32519D01*
X253634Y32521D01*
X253703Y32546D01*
X253774Y32563D01*
X253816Y32589D01*
X253862Y32606D01*
X253919Y32653D01*
X253982Y32692D01*
X254013Y32730D01*
X254051Y32761D01*
X254090Y32823D01*
X254137Y32880D01*
X254154Y32926D01*
X254180Y32968D01*
X254197Y33040D01*
X254223Y33109D01*
X254230Y33182D01*
X254236Y33206D01*
X254234Y33222D01*
X254237Y33255D01*
X254237Y43181D01*
X254225Y43254D01*
X254223Y43327D01*
X254206Y43373D01*
X254198Y43422D01*
X254163Y43487D01*
X254137Y43556D01*
X254106Y43594D01*
X254083Y43637D01*
X254029Y43688D01*
X253982Y43744D01*
X253941Y43770D01*
X253905Y43804D01*
X253838Y43835D01*
X253775Y43873D01*
X253727Y43885D01*
X253682Y43905D01*
X253609Y43912D01*
X253538Y43929D01*
X253489Y43924D01*
X253439Y43929D01*
X253368Y43912D01*
X253295Y43905D01*
X253250Y43885D01*
X253202Y43874D01*
X253139Y43835D01*
X253072Y43805D01*
X253016Y43758D01*
X252994Y43745D01*
X252984Y43732D01*
X252958Y43711D01*
X250187Y40940D01*
X246173Y39277D01*
X241827Y39277D01*
X237813Y40940D01*
X234740Y44013D01*
X233077Y48027D01*
X233077Y52373D01*
X233975Y54541D01*
X234002Y54656D01*
X234031Y54778D01*
X234018Y54910D01*
X234007Y55021D01*
X233953Y55140D01*
X233906Y55243D01*
X233906Y55244D01*
X233813Y55357D01*
X221443Y67727D01*
X221443Y89216D01*
X221427Y89313D01*
X221418Y89410D01*
X221408Y89432D01*
X221404Y89457D01*
X221358Y89543D01*
X221317Y89632D01*
X221296Y89658D01*
X221289Y89672D01*
X221270Y89689D01*
X221224Y89746D01*
X215746Y95224D01*
X215667Y95281D01*
X215592Y95343D01*
X215568Y95351D01*
X215548Y95366D01*
X215455Y95394D01*
X215363Y95429D01*
X215330Y95432D01*
X215314Y95437D01*
X215289Y95436D01*
X215216Y95443D01*
X192905Y95443D01*
X192809Y95427D01*
X192712Y95418D01*
X192689Y95408D01*
X192664Y95404D01*
X192578Y95358D01*
X192489Y95317D01*
X192464Y95296D01*
X192449Y95289D01*
X192432Y95270D01*
X192375Y95224D01*
X191095Y93943D01*
X186905Y93943D01*
X183943Y96905D01*
X183943Y101095D01*
X186905Y104057D01*
X191095Y104057D01*
X192375Y102776D01*
X192455Y102719D01*
X192530Y102657D01*
X192553Y102649D01*
X192573Y102634D01*
X192667Y102606D01*
X192758Y102571D01*
X192791Y102568D01*
X192807Y102563D01*
X192832Y102564D01*
X192905Y102557D01*
X218473Y102557D01*
X220776Y100254D01*
X228196Y92834D01*
X228256Y92791D01*
X228310Y92741D01*
X228354Y92720D01*
X228395Y92692D01*
X228465Y92670D01*
X228532Y92640D01*
X228581Y92635D01*
X228628Y92621D01*
X228701Y92623D01*
X228775Y92616D01*
X228823Y92627D01*
X228872Y92629D01*
X228941Y92654D01*
X229012Y92671D01*
X229054Y92697D01*
X229100Y92714D01*
X229157Y92761D01*
X229220Y92800D01*
X229251Y92838D01*
X229289Y92869D01*
X229328Y92932D01*
X229375Y92988D01*
X229392Y93034D01*
X229418Y93076D01*
X229435Y93148D01*
X229461Y93217D01*
X229468Y93290D01*
X229474Y93314D01*
X229472Y93330D01*
X229475Y93364D01*
X229475Y101596D01*
X229473Y101608D01*
X229474Y101613D01*
X229469Y101632D01*
X229459Y101692D01*
X229450Y101789D01*
X229440Y101812D01*
X229436Y101837D01*
X229390Y101923D01*
X229349Y102011D01*
X229328Y102037D01*
X229321Y102052D01*
X229302Y102069D01*
X229256Y102126D01*
X215174Y116208D01*
X215094Y116265D01*
X215019Y116327D01*
X214996Y116335D01*
X214975Y116350D01*
X214882Y116378D01*
X214791Y116413D01*
X214758Y116416D01*
X214742Y116421D01*
X214717Y116420D01*
X214644Y116427D01*
X195035Y116427D01*
X180427Y131035D01*
X180427Y183724D01*
X180411Y183821D01*
X180402Y183918D01*
X180392Y183940D01*
X180388Y183965D01*
X180342Y184051D01*
X180301Y184140D01*
X180280Y184166D01*
X180273Y184180D01*
X180254Y184197D01*
X180208Y184254D01*
X173730Y190732D01*
X173651Y190789D01*
X173576Y190851D01*
X173552Y190859D01*
X173532Y190874D01*
X173438Y190902D01*
X173347Y190937D01*
X173314Y190940D01*
X173298Y190945D01*
X173273Y190944D01*
X173200Y190951D01*
X135478Y190951D01*
X126706Y199724D01*
X126626Y199781D01*
X126551Y199843D01*
X126528Y199851D01*
X126507Y199866D01*
X126414Y199894D01*
X126323Y199929D01*
X126290Y199932D01*
X126274Y199937D01*
X126249Y199936D01*
X126176Y199943D01*
X122905Y199943D01*
X119943Y202905D01*
X119943Y207095D01*
X122905Y210057D01*
X127095Y210057D01*
X130057Y207095D01*
X130057Y203824D01*
X130073Y203728D01*
X130082Y203631D01*
X130092Y203608D01*
X130096Y203583D01*
X130142Y203497D01*
X130183Y203409D01*
X130204Y203383D01*
X130211Y203368D01*
X130230Y203351D01*
X130276Y203294D01*
X134196Y199374D01*
X134256Y199331D01*
X134310Y199281D01*
X134354Y199261D01*
X134395Y199232D01*
X134465Y199211D01*
X134532Y199180D01*
X134581Y199176D01*
X134628Y199161D01*
X134701Y199164D01*
X134775Y199156D01*
X134823Y199168D01*
X134872Y199169D01*
X134941Y199195D01*
X135012Y199212D01*
X135054Y199238D01*
X135100Y199255D01*
X135157Y199302D01*
X135220Y199340D01*
X135251Y199378D01*
X135289Y199410D01*
X135328Y199472D01*
X135375Y199529D01*
X135392Y199575D01*
X135418Y199617D01*
X135435Y199688D01*
X135461Y199757D01*
X135468Y199830D01*
X135474Y199854D01*
X135472Y199871D01*
X135475Y199904D01*
X135475Y200063D01*
X135459Y200159D01*
X135450Y200256D01*
X135440Y200279D01*
X135436Y200304D01*
X135390Y200390D01*
X135349Y200479D01*
X135328Y200504D01*
X135321Y200519D01*
X135302Y200536D01*
X135256Y200593D01*
X132943Y202905D01*
X132943Y207095D01*
X135905Y210057D01*
X140095Y210057D01*
X143057Y207095D01*
X143057Y202905D01*
X141391Y201239D01*
X141376Y201220D01*
X141357Y201204D01*
X141306Y201121D01*
X141249Y201041D01*
X141241Y201018D01*
X141228Y200997D01*
X141206Y200901D01*
X141178Y200808D01*
X141178Y200783D01*
X141173Y200759D01*
X141182Y200662D01*
X141186Y200564D01*
X141194Y200541D01*
X141197Y200516D01*
X141237Y200427D01*
X141271Y200335D01*
X141287Y200316D01*
X141297Y200294D01*
X141391Y200180D01*
X141826Y199744D01*
X141906Y199687D01*
X141981Y199625D01*
X142004Y199617D01*
X142025Y199602D01*
X142118Y199574D01*
X142209Y199539D01*
X142242Y199536D01*
X142258Y199531D01*
X142283Y199532D01*
X142356Y199525D01*
X147515Y199525D01*
X147588Y199537D01*
X147661Y199539D01*
X147707Y199556D01*
X147756Y199564D01*
X147821Y199599D01*
X147889Y199625D01*
X147928Y199656D01*
X147971Y199679D01*
X148021Y199733D01*
X148078Y199780D01*
X148104Y199822D01*
X148138Y199857D01*
X148168Y199924D01*
X148207Y199987D01*
X148218Y200035D01*
X148239Y200080D01*
X148246Y200153D01*
X148263Y200224D01*
X148258Y200273D01*
X148263Y200323D01*
X148246Y200394D01*
X148239Y200467D01*
X148219Y200512D01*
X148208Y200560D01*
X148169Y200623D01*
X148139Y200690D01*
X148092Y200746D01*
X148079Y200768D01*
X148066Y200778D01*
X148045Y200804D01*
X145943Y202905D01*
X145943Y207095D01*
X148905Y210057D01*
X153095Y210057D01*
X156057Y207095D01*
X156057Y204274D01*
X156061Y204250D01*
X156058Y204225D01*
X156080Y204130D01*
X156096Y204033D01*
X156108Y204012D01*
X156114Y203988D01*
X156165Y203904D01*
X156211Y203818D01*
X156229Y203801D01*
X156242Y203780D01*
X156318Y203718D01*
X156389Y203651D01*
X156412Y203641D01*
X156431Y203625D01*
X156522Y203591D01*
X156612Y203550D01*
X156636Y203548D01*
X156659Y203539D01*
X156806Y203525D01*
X178046Y203525D01*
X190826Y190744D01*
X192525Y189046D01*
X192525Y137356D01*
X192541Y137260D01*
X192550Y137163D01*
X192560Y137140D01*
X192564Y137115D01*
X192610Y137029D01*
X192651Y136941D01*
X192672Y136915D01*
X192679Y136900D01*
X192698Y136883D01*
X192744Y136826D01*
X200826Y128744D01*
X200906Y128687D01*
X200981Y128625D01*
X201004Y128617D01*
X201025Y128602D01*
X201118Y128574D01*
X201209Y128539D01*
X201242Y128536D01*
X201258Y128531D01*
X201283Y128532D01*
X201356Y128525D01*
X232557Y128525D01*
X232687Y128546D01*
X232797Y128564D01*
X232798Y128564D01*
X232905Y128622D01*
X233012Y128679D01*
X233013Y128679D01*
X233091Y128763D01*
X233179Y128857D01*
X233180Y128857D01*
X233180Y128858D01*
X233249Y128987D01*
X234740Y132587D01*
X237813Y135660D01*
X241827Y137323D01*
X246173Y137323D01*
X250187Y135660D01*
X252958Y132889D01*
X253018Y132846D01*
X253072Y132796D01*
X253116Y132775D01*
X253157Y132747D01*
X253227Y132725D01*
X253294Y132695D01*
X253343Y132690D01*
X253390Y132676D01*
X253463Y132678D01*
X253537Y132671D01*
X253585Y132682D01*
X253634Y132684D01*
X253703Y132710D01*
X253774Y132726D01*
X253816Y132752D01*
X253862Y132770D01*
X253919Y132816D01*
X253982Y132855D01*
X254013Y132893D01*
X254051Y132924D01*
X254090Y132987D01*
X254137Y133043D01*
X254154Y133089D01*
X254180Y133131D01*
X254197Y133203D01*
X254223Y133272D01*
X254230Y133345D01*
X254236Y133369D01*
X254234Y133386D01*
X254237Y133419D01*
X254237Y144781D01*
X254225Y144854D01*
X254223Y144927D01*
X254206Y144973D01*
X254198Y145022D01*
X254163Y145087D01*
X254137Y145156D01*
X254106Y145194D01*
X254083Y145237D01*
X254029Y145288D01*
X253982Y145344D01*
X253941Y145370D01*
X253905Y145404D01*
X253838Y145435D01*
X253775Y145473D01*
X253727Y145485D01*
X253682Y145505D01*
X253609Y145512D01*
X253538Y145529D01*
X253489Y145524D01*
X253439Y145529D01*
X253368Y145512D01*
X253295Y145505D01*
X253250Y145485D01*
X253202Y145474D01*
X253139Y145435D01*
X253072Y145405D01*
X253016Y145358D01*
X252994Y145345D01*
X252984Y145332D01*
X252958Y145311D01*
X250187Y142540D01*
X246173Y140877D01*
X241827Y140877D01*
X237813Y142540D01*
X234740Y145613D01*
X233077Y149627D01*
X233077Y153973D01*
X234740Y157987D01*
X237813Y161060D01*
X241827Y162723D01*
X246173Y162723D01*
X250187Y161060D01*
X252958Y158289D01*
X253018Y158246D01*
X253072Y158196D01*
X253116Y158175D01*
X253157Y158147D01*
X253227Y158125D01*
X253294Y158095D01*
X253343Y158090D01*
X253390Y158076D01*
X253463Y158078D01*
X253537Y158071D01*
X253585Y158082D01*
X253634Y158084D01*
X253703Y158110D01*
X253774Y158126D01*
X253816Y158152D01*
X253862Y158170D01*
X253919Y158216D01*
X253982Y158255D01*
X254013Y158293D01*
X254051Y158324D01*
X254090Y158387D01*
X254137Y158443D01*
X254154Y158489D01*
X254180Y158531D01*
X254197Y158603D01*
X254223Y158672D01*
X254230Y158745D01*
X254236Y158769D01*
X254234Y158786D01*
X254237Y158819D01*
X254237Y170181D01*
X254225Y170254D01*
X254223Y170327D01*
X254206Y170373D01*
X254198Y170422D01*
X254163Y170487D01*
X254137Y170556D01*
X254106Y170594D01*
X254083Y170637D01*
X254029Y170688D01*
X253982Y170744D01*
X253941Y170770D01*
X253905Y170804D01*
X253838Y170835D01*
X253775Y170873D01*
X253727Y170885D01*
X253682Y170905D01*
X253609Y170912D01*
X253538Y170929D01*
X253489Y170924D01*
X253439Y170929D01*
X253368Y170912D01*
X253295Y170905D01*
X253250Y170885D01*
X253202Y170874D01*
X253139Y170835D01*
X253072Y170805D01*
X253016Y170758D01*
X252994Y170745D01*
X252984Y170732D01*
X252958Y170711D01*
X250187Y167940D01*
X246173Y166277D01*
X241827Y166277D01*
X237813Y167940D01*
X234740Y171013D01*
X233077Y175027D01*
X233077Y179373D01*
X234740Y183387D01*
X237813Y186460D01*
X241827Y188123D01*
X246173Y188123D01*
X250187Y186460D01*
X252958Y183689D01*
X253018Y183646D01*
X253072Y183596D01*
X253116Y183575D01*
X253157Y183547D01*
X253227Y183525D01*
X253294Y183495D01*
X253343Y183490D01*
X253390Y183476D01*
X253463Y183478D01*
X253537Y183471D01*
X253585Y183482D01*
X253634Y183484D01*
X253703Y183510D01*
X253774Y183526D01*
X253816Y183552D01*
X253862Y183570D01*
X253919Y183616D01*
X253982Y183655D01*
X254013Y183693D01*
X254051Y183724D01*
X254090Y183787D01*
X254137Y183843D01*
X254154Y183889D01*
X254180Y183931D01*
X254197Y184003D01*
X254223Y184072D01*
X254230Y184145D01*
X254236Y184169D01*
X254234Y184186D01*
X254237Y184219D01*
X254237Y195581D01*
X254225Y195654D01*
X254223Y195727D01*
X254206Y195773D01*
X254198Y195822D01*
X254163Y195887D01*
X254137Y195956D01*
X254106Y195994D01*
X254083Y196037D01*
X254029Y196088D01*
X253982Y196144D01*
X253941Y196170D01*
X253905Y196204D01*
X253838Y196235D01*
X253775Y196273D01*
X253727Y196285D01*
X253682Y196305D01*
X253609Y196312D01*
X253538Y196329D01*
X253489Y196324D01*
X253439Y196329D01*
X253368Y196312D01*
X253295Y196305D01*
X253250Y196285D01*
X253202Y196274D01*
X253139Y196235D01*
X253072Y196205D01*
X253016Y196158D01*
X252994Y196145D01*
X252984Y196132D01*
X252958Y196111D01*
X250187Y193340D01*
X246173Y191677D01*
X241827Y191677D01*
X237813Y193340D01*
X234740Y196413D01*
X233077Y200427D01*
X233077Y204773D01*
X234740Y208787D01*
X237813Y211860D01*
X241827Y213523D01*
X246173Y213523D01*
X250187Y211860D01*
X252958Y209089D01*
X253018Y209046D01*
X253072Y208996D01*
X253116Y208975D01*
X253157Y208947D01*
X253227Y208925D01*
X253294Y208895D01*
X253343Y208890D01*
X253390Y208876D01*
X253463Y208878D01*
X253537Y208871D01*
X253585Y208882D01*
X253634Y208884D01*
X253703Y208910D01*
X253774Y208926D01*
X253816Y208952D01*
X253862Y208970D01*
X253919Y209016D01*
X253982Y209055D01*
X254013Y209093D01*
X254051Y209124D01*
X254090Y209187D01*
X254137Y209243D01*
X254154Y209289D01*
X254180Y209331D01*
X254197Y209403D01*
X254223Y209472D01*
X254230Y209545D01*
X254236Y209569D01*
X254234Y209586D01*
X254237Y209619D01*
X254237Y220981D01*
X254225Y221054D01*
X254223Y221127D01*
X254206Y221173D01*
X254198Y221222D01*
X254163Y221287D01*
X254137Y221356D01*
X254106Y221394D01*
X254083Y221437D01*
X254029Y221488D01*
X253982Y221544D01*
X253941Y221570D01*
X253905Y221604D01*
X253838Y221635D01*
X253775Y221673D01*
X253727Y221685D01*
X253682Y221705D01*
X253609Y221712D01*
X253538Y221729D01*
X253489Y221724D01*
X253439Y221729D01*
X253368Y221712D01*
X253295Y221705D01*
X253250Y221685D01*
X253202Y221674D01*
X253139Y221635D01*
X253072Y221605D01*
X253016Y221558D01*
X252994Y221545D01*
X252984Y221532D01*
X252958Y221511D01*
X250187Y218740D01*
X246173Y217077D01*
X241827Y217077D01*
X237813Y218740D01*
X234740Y221813D01*
X233077Y225827D01*
X233077Y230173D01*
X234740Y234187D01*
X237461Y236908D01*
X237476Y236928D01*
X237495Y236944D01*
X237546Y237027D01*
X237604Y237107D01*
X237611Y237130D01*
X237624Y237151D01*
X237646Y237247D01*
X237674Y237340D01*
X237674Y237365D01*
X237679Y237389D01*
X237670Y237486D01*
X237667Y237584D01*
X237658Y237607D01*
X237656Y237631D01*
X237615Y237721D01*
X237581Y237813D01*
X237565Y237832D01*
X237555Y237854D01*
X237461Y237968D01*
X237174Y238256D01*
X237094Y238313D01*
X237019Y238375D01*
X236996Y238383D01*
X236975Y238398D01*
X236882Y238426D01*
X236791Y238461D01*
X236758Y238464D01*
X236742Y238469D01*
X236717Y238468D01*
X236644Y238475D01*
X229274Y238475D01*
X229250Y238471D01*
X229225Y238474D01*
X229130Y238452D01*
X229033Y238436D01*
X229012Y238424D01*
X228988Y238418D01*
X228904Y238367D01*
X228818Y238321D01*
X228801Y238303D01*
X228780Y238290D01*
X228718Y238214D01*
X228651Y238143D01*
X228641Y238120D01*
X228625Y238101D01*
X228591Y238010D01*
X228550Y237920D01*
X228548Y237896D01*
X228539Y237873D01*
X228525Y237726D01*
X228525Y226368D01*
X227632Y225475D01*
X216368Y225475D01*
X215475Y226368D01*
X215475Y238632D01*
X216368Y239525D01*
X218726Y239525D01*
X218750Y239529D01*
X218775Y239526D01*
X218870Y239548D01*
X218967Y239564D01*
X218988Y239576D01*
X219012Y239582D01*
X219096Y239633D01*
X219182Y239679D01*
X219199Y239697D01*
X219220Y239710D01*
X219282Y239786D01*
X219349Y239857D01*
X219359Y239880D01*
X219375Y239899D01*
X219409Y239990D01*
X219450Y240080D01*
X219452Y240104D01*
X219461Y240127D01*
X219475Y240274D01*
X219475Y241706D01*
X219473Y241718D01*
X219474Y241723D01*
X219471Y241732D01*
X219474Y241755D01*
X219452Y241850D01*
X219436Y241947D01*
X219424Y241968D01*
X219418Y241992D01*
X219367Y242076D01*
X219321Y242162D01*
X219303Y242179D01*
X219290Y242200D01*
X219214Y242262D01*
X219143Y242329D01*
X219120Y242339D01*
X219101Y242355D01*
X219010Y242389D01*
X218920Y242430D01*
X218896Y242432D01*
X218873Y242441D01*
X218726Y242455D01*
X218368Y242455D01*
X217475Y243348D01*
X217475Y250012D01*
X217934Y250470D01*
X217948Y250490D01*
X217967Y250506D01*
X218019Y250589D01*
X218076Y250669D01*
X218083Y250692D01*
X218096Y250713D01*
X218118Y250808D01*
X218147Y250902D01*
X218146Y250927D01*
X218152Y250950D01*
X218142Y251048D01*
X218139Y251146D01*
X218130Y251169D01*
X218128Y251193D01*
X218088Y251282D01*
X218053Y251374D01*
X218038Y251393D01*
X218028Y251416D01*
X217934Y251530D01*
X217424Y252040D01*
X217418Y252062D01*
X217367Y252146D01*
X217321Y252232D01*
X217303Y252249D01*
X217290Y252270D01*
X217214Y252332D01*
X217143Y252399D01*
X217120Y252409D01*
X217101Y252425D01*
X217010Y252459D01*
X216920Y252500D01*
X216896Y252502D01*
X216873Y252511D01*
X216726Y252525D01*
X187788Y252525D01*
X187692Y252509D01*
X187595Y252500D01*
X187572Y252490D01*
X187547Y252486D01*
X187461Y252440D01*
X187372Y252399D01*
X187347Y252378D01*
X187332Y252371D01*
X187315Y252352D01*
X187258Y252306D01*
X167014Y232062D01*
X166957Y231982D01*
X166895Y231907D01*
X166887Y231884D01*
X166872Y231863D01*
X166844Y231770D01*
X166809Y231679D01*
X166806Y231646D01*
X166801Y231630D01*
X166802Y231605D01*
X166795Y231532D01*
X166795Y217667D01*
X166797Y217655D01*
X166796Y217650D01*
X166801Y217631D01*
X166811Y217571D01*
X166820Y217474D01*
X166830Y217451D01*
X166834Y217426D01*
X166880Y217340D01*
X166921Y217251D01*
X166942Y217226D01*
X166949Y217211D01*
X166968Y217194D01*
X167014Y217137D01*
X169057Y215095D01*
X169057Y210905D01*
X166095Y207943D01*
X161905Y207943D01*
X158943Y210905D01*
X158943Y215095D01*
X160986Y217137D01*
X161043Y217217D01*
X161105Y217292D01*
X161113Y217315D01*
X161128Y217335D01*
X161156Y217429D01*
X161191Y217520D01*
X161194Y217553D01*
X161199Y217569D01*
X161198Y217594D01*
X161205Y217667D01*
X161205Y234158D01*
X185162Y258115D01*
X216726Y258115D01*
X216750Y258119D01*
X216775Y258116D01*
X216870Y258138D01*
X216967Y258154D01*
X216988Y258166D01*
X217012Y258172D01*
X217096Y258223D01*
X217182Y258269D01*
X217199Y258287D01*
X217220Y258300D01*
X217282Y258376D01*
X217349Y258447D01*
X217359Y258470D01*
X217375Y258489D01*
X217409Y258580D01*
X217413Y258590D01*
X218368Y259545D01*
X225632Y259545D01*
X226525Y258652D01*
X226525Y251988D01*
X226066Y251530D01*
X226052Y251510D01*
X226033Y251494D01*
X225981Y251411D01*
X225924Y251331D01*
X225917Y251308D01*
X225904Y251287D01*
X225882Y251192D01*
X225853Y251098D01*
X225854Y251074D01*
X225848Y251050D01*
X225858Y250952D01*
X225861Y250854D01*
X225870Y250831D01*
X225872Y250807D01*
X225912Y250717D01*
X225947Y250626D01*
X225962Y250607D01*
X225972Y250584D01*
X226066Y250470D01*
X226525Y250012D01*
X226525Y244274D01*
X226529Y244250D01*
X226526Y244225D01*
X226548Y244130D01*
X226564Y244033D01*
X226576Y244012D01*
X226582Y243988D01*
X226633Y243904D01*
X226679Y243818D01*
X226697Y243801D01*
X226710Y243780D01*
X226786Y243718D01*
X226857Y243651D01*
X226880Y243641D01*
X226899Y243625D01*
X226990Y243591D01*
X227080Y243550D01*
X227104Y243548D01*
X227127Y243539D01*
X227274Y243525D01*
X236619Y243525D01*
X236692Y243537D01*
X236765Y243539D01*
X236811Y243556D01*
X236860Y243564D01*
X236925Y243599D01*
X236994Y243625D01*
X237032Y243656D01*
X237075Y243679D01*
X237126Y243733D01*
X237182Y243780D01*
X237208Y243822D01*
X237242Y243857D01*
X237273Y243924D01*
X237311Y243987D01*
X237323Y244035D01*
X237343Y244080D01*
X237350Y244153D01*
X237367Y244224D01*
X237362Y244273D01*
X237367Y244323D01*
X237350Y244394D01*
X237343Y244467D01*
X237323Y244512D01*
X237312Y244560D01*
X237273Y244623D01*
X237243Y244690D01*
X237196Y244746D01*
X237183Y244768D01*
X237170Y244778D01*
X237149Y244804D01*
X234740Y247213D01*
X233077Y251227D01*
X233077Y255573D01*
X234740Y259587D01*
X237813Y262660D01*
X241827Y264323D01*
X246173Y264323D01*
X250187Y262660D01*
X252958Y259889D01*
X253018Y259846D01*
X253072Y259796D01*
X253116Y259775D01*
X253157Y259747D01*
X253227Y259725D01*
X253294Y259695D01*
X253343Y259690D01*
X253390Y259676D01*
X253463Y259678D01*
X253537Y259671D01*
X253585Y259682D01*
X253634Y259684D01*
X253703Y259710D01*
X253774Y259726D01*
X253816Y259752D01*
X253862Y259770D01*
X253919Y259816D01*
X253982Y259855D01*
X254013Y259893D01*
X254051Y259924D01*
X254090Y259987D01*
X254137Y260043D01*
X254154Y260089D01*
X254180Y260131D01*
X254197Y260203D01*
X254223Y260272D01*
X254230Y260345D01*
X254236Y260369D01*
X254234Y260386D01*
X254237Y260419D01*
X254237Y271781D01*
X254225Y271854D01*
X254223Y271927D01*
X254206Y271973D01*
X254198Y272022D01*
X254163Y272087D01*
X254137Y272156D01*
X254106Y272194D01*
X254083Y272237D01*
X254029Y272288D01*
X253982Y272344D01*
X253941Y272370D01*
X253905Y272404D01*
X253838Y272435D01*
X253775Y272473D01*
X253727Y272485D01*
X253682Y272505D01*
X253609Y272512D01*
X253538Y272529D01*
X253489Y272524D01*
X253439Y272529D01*
X253368Y272512D01*
X253295Y272505D01*
X253250Y272485D01*
X253202Y272474D01*
X253139Y272435D01*
X253072Y272405D01*
X253016Y272358D01*
X252994Y272345D01*
X252984Y272332D01*
X252958Y272311D01*
X250187Y269540D01*
X246173Y267877D01*
X241827Y267877D01*
X237813Y269540D01*
X234740Y272613D01*
X233077Y276627D01*
X233077Y280973D01*
X234740Y284987D01*
X237813Y288060D01*
X241827Y289723D01*
X246173Y289723D01*
X250187Y288060D01*
X252958Y285289D01*
X253018Y285246D01*
X253072Y285196D01*
X253116Y285175D01*
X253157Y285147D01*
X253227Y285125D01*
X253294Y285095D01*
X253343Y285090D01*
X253390Y285076D01*
X253463Y285078D01*
X253537Y285071D01*
X253585Y285082D01*
X253634Y285084D01*
X253703Y285110D01*
X253774Y285126D01*
X253816Y285152D01*
X253862Y285170D01*
X253919Y285216D01*
X253982Y285255D01*
X254013Y285293D01*
X254051Y285324D01*
X254090Y285387D01*
X254137Y285443D01*
X254154Y285489D01*
X254180Y285531D01*
X254197Y285603D01*
X254223Y285672D01*
X254230Y285745D01*
X254236Y285769D01*
X254234Y285786D01*
X254237Y285819D01*
X254237Y297181D01*
X254225Y297254D01*
X254223Y297327D01*
X254206Y297373D01*
X254198Y297422D01*
X254163Y297487D01*
X254137Y297556D01*
X254106Y297594D01*
X254083Y297637D01*
X254029Y297688D01*
X253982Y297744D01*
X253941Y297770D01*
X253905Y297804D01*
X253838Y297835D01*
X253775Y297873D01*
X253727Y297885D01*
X253682Y297905D01*
X253609Y297912D01*
X253538Y297929D01*
X253489Y297924D01*
X253439Y297929D01*
X253368Y297912D01*
X253295Y297905D01*
X253250Y297885D01*
X253202Y297874D01*
X253139Y297835D01*
X253072Y297805D01*
X253016Y297758D01*
X252994Y297745D01*
X252984Y297732D01*
X252958Y297711D01*
X250187Y294940D01*
X246173Y293277D01*
X241827Y293277D01*
X237813Y294940D01*
X234740Y298013D01*
X233077Y302027D01*
X233077Y306373D01*
X234740Y310387D01*
X237813Y313460D01*
X241827Y315123D01*
X246173Y315123D01*
X250187Y313460D01*
X252958Y310689D01*
X253018Y310646D01*
X253072Y310596D01*
X253116Y310575D01*
X253157Y310547D01*
X253227Y310525D01*
X253294Y310495D01*
X253343Y310490D01*
X253390Y310476D01*
X253463Y310478D01*
X253537Y310471D01*
X253585Y310482D01*
X253634Y310484D01*
X253703Y310510D01*
X253774Y310526D01*
X253816Y310552D01*
X253862Y310570D01*
X253919Y310616D01*
X253982Y310655D01*
X254013Y310693D01*
X254051Y310724D01*
X254090Y310787D01*
X254137Y310843D01*
X254154Y310889D01*
X254180Y310931D01*
X254197Y311003D01*
X254223Y311072D01*
X254230Y311145D01*
X254236Y311169D01*
X254234Y311186D01*
X254237Y311219D01*
X254237Y322581D01*
X254225Y322654D01*
X254223Y322727D01*
X254206Y322773D01*
X254198Y322822D01*
X254163Y322887D01*
X254137Y322956D01*
X254106Y322994D01*
X254083Y323037D01*
X254029Y323088D01*
X253982Y323144D01*
X253941Y323170D01*
X253905Y323204D01*
X253838Y323235D01*
X253775Y323273D01*
X253727Y323285D01*
X253682Y323305D01*
X253609Y323312D01*
X253538Y323329D01*
X253489Y323324D01*
X253439Y323329D01*
X253368Y323312D01*
X253295Y323305D01*
X253250Y323285D01*
X253202Y323274D01*
X253139Y323235D01*
X253072Y323205D01*
X253016Y323158D01*
X252994Y323145D01*
X252984Y323132D01*
X252958Y323111D01*
X250187Y320340D01*
X246173Y318677D01*
X241827Y318677D01*
X237813Y320340D01*
X234740Y323413D01*
X233663Y326013D01*
X233608Y326101D01*
X233535Y326220D01*
X233534Y326220D01*
X233449Y326290D01*
X233346Y326375D01*
X233213Y326425D01*
X233118Y326461D01*
X233117Y326461D01*
X233116Y326461D01*
X232971Y326475D01*
X229274Y326475D01*
X229250Y326471D01*
X229225Y326474D01*
X229130Y326452D01*
X229033Y326436D01*
X229012Y326424D01*
X228988Y326418D01*
X228904Y326367D01*
X228818Y326321D01*
X228801Y326303D01*
X228780Y326290D01*
X228718Y326214D01*
X228651Y326143D01*
X228641Y326120D01*
X228625Y326101D01*
X228591Y326010D01*
X228550Y325920D01*
X228548Y325896D01*
X228539Y325873D01*
X228525Y325726D01*
X228525Y314368D01*
X227632Y313475D01*
X216368Y313475D01*
X215475Y314368D01*
X215475Y326632D01*
X216368Y327525D01*
X218726Y327525D01*
X218750Y327529D01*
X218775Y327526D01*
X218870Y327548D01*
X218967Y327564D01*
X218988Y327576D01*
X219012Y327582D01*
X219096Y327633D01*
X219182Y327679D01*
X219199Y327697D01*
X219220Y327710D01*
X219282Y327786D01*
X219349Y327857D01*
X219359Y327880D01*
X219375Y327899D01*
X219409Y327990D01*
X219450Y328080D01*
X219452Y328104D01*
X219461Y328127D01*
X219475Y328274D01*
X219475Y329706D01*
X219471Y329730D01*
X219474Y329755D01*
X219452Y329850D01*
X219436Y329947D01*
X219424Y329968D01*
X219418Y329992D01*
X219367Y330076D01*
X219321Y330162D01*
X219303Y330179D01*
X219290Y330200D01*
X219214Y330262D01*
X219143Y330329D01*
X219120Y330339D01*
X219101Y330355D01*
X219010Y330389D01*
X218920Y330430D01*
X218896Y330432D01*
X218873Y330441D01*
X218726Y330455D01*
X218368Y330455D01*
X217475Y331348D01*
X217475Y338012D01*
X217934Y338470D01*
X217948Y338490D01*
X217967Y338506D01*
X218019Y338589D01*
X218076Y338669D01*
X218083Y338692D01*
X218096Y338713D01*
X218118Y338808D01*
X218147Y338902D01*
X218146Y338927D01*
X218152Y338950D01*
X218142Y339048D01*
X218139Y339146D01*
X218130Y339169D01*
X218128Y339193D01*
X218088Y339283D01*
X218053Y339374D01*
X218038Y339393D01*
X218028Y339416D01*
X217934Y339530D01*
X217475Y339988D01*
X217475Y340046D01*
X217471Y340070D01*
X217474Y340095D01*
X217452Y340190D01*
X217436Y340287D01*
X217424Y340308D01*
X217418Y340332D01*
X217367Y340416D01*
X217321Y340502D01*
X217303Y340519D01*
X217290Y340540D01*
X217214Y340602D01*
X217143Y340669D01*
X217120Y340679D01*
X217101Y340695D01*
X217010Y340729D01*
X216920Y340770D01*
X216896Y340772D01*
X216873Y340781D01*
X216726Y340795D01*
X162634Y340795D01*
X155174Y348256D01*
X155094Y348313D01*
X155019Y348375D01*
X154996Y348383D01*
X154975Y348398D01*
X154882Y348426D01*
X154791Y348461D01*
X154758Y348464D01*
X154742Y348469D01*
X154717Y348468D01*
X154644Y348475D01*
X92356Y348475D01*
X92260Y348459D01*
X92163Y348450D01*
X92140Y348440D01*
X92115Y348436D01*
X92029Y348390D01*
X91941Y348349D01*
X91915Y348328D01*
X91900Y348321D01*
X91883Y348302D01*
X91826Y348256D01*
X87744Y344174D01*
X87687Y344094D01*
X87625Y344019D01*
X87617Y343996D01*
X87602Y343975D01*
X87574Y343882D01*
X87539Y343791D01*
X87536Y343758D01*
X87531Y343742D01*
X87532Y343717D01*
X87525Y343644D01*
X87525Y313937D01*
X87541Y313841D01*
X87550Y313744D01*
X87560Y313721D01*
X87564Y313696D01*
X87610Y313610D01*
X87651Y313521D01*
X87672Y313496D01*
X87679Y313481D01*
X87698Y313464D01*
X87744Y313407D01*
X90057Y311095D01*
X90057Y306905D01*
X87095Y303943D01*
X82905Y303943D01*
X81625Y305224D01*
X81545Y305281D01*
X81470Y305343D01*
X81447Y305351D01*
X81427Y305366D01*
X81333Y305394D01*
X81242Y305429D01*
X81209Y305432D01*
X81193Y305437D01*
X81168Y305436D01*
X81095Y305443D01*
X75080Y305443D01*
X75056Y305439D01*
X75031Y305442D01*
X74936Y305420D01*
X74839Y305404D01*
X74818Y305392D01*
X74794Y305386D01*
X74710Y305335D01*
X74624Y305289D01*
X74607Y305271D01*
X74586Y305258D01*
X74524Y305182D01*
X74457Y305111D01*
X74447Y305088D01*
X74431Y305069D01*
X74397Y304978D01*
X74356Y304888D01*
X74354Y304864D01*
X74345Y304841D01*
X74331Y304694D01*
X74331Y296316D01*
X73438Y295423D01*
X68537Y295423D01*
X68464Y295411D01*
X68391Y295409D01*
X68345Y295392D01*
X68296Y295384D01*
X68231Y295349D01*
X68163Y295323D01*
X68124Y295292D01*
X68081Y295269D01*
X68031Y295215D01*
X67974Y295168D01*
X67948Y295126D01*
X67914Y295091D01*
X67884Y295024D01*
X67845Y294961D01*
X67834Y294913D01*
X67813Y294868D01*
X67806Y294795D01*
X67789Y294724D01*
X67794Y294675D01*
X67789Y294625D01*
X67806Y294554D01*
X67813Y294481D01*
X67833Y294436D01*
X67844Y294388D01*
X67883Y294325D01*
X67913Y294258D01*
X67960Y294202D01*
X67973Y294180D01*
X67986Y294170D01*
X68007Y294144D01*
X70057Y292095D01*
X70057Y287905D01*
X67095Y284943D01*
X62905Y284943D01*
X60593Y287256D01*
X60513Y287313D01*
X60438Y287375D01*
X60415Y287383D01*
X60395Y287398D01*
X60301Y287426D01*
X60210Y287461D01*
X60177Y287464D01*
X60161Y287469D01*
X60136Y287468D01*
X60063Y287475D01*
X47880Y287475D01*
X47784Y287459D01*
X47687Y287450D01*
X47664Y287440D01*
X47639Y287436D01*
X47553Y287390D01*
X47465Y287349D01*
X47439Y287328D01*
X47424Y287321D01*
X47407Y287302D01*
X47350Y287256D01*
X46268Y286174D01*
X46211Y286094D01*
X46149Y286019D01*
X46141Y285996D01*
X46126Y285975D01*
X46098Y285882D01*
X46063Y285791D01*
X46060Y285758D01*
X46055Y285742D01*
X46056Y285717D01*
X46049Y285644D01*
X46049Y208494D01*
X32744Y195190D01*
X32687Y195111D01*
X32625Y195035D01*
X32617Y195012D01*
X32602Y194992D01*
X32574Y194898D01*
X32539Y194807D01*
X32536Y194774D01*
X32531Y194758D01*
X32532Y194733D01*
X32525Y194660D01*
X32525Y57356D01*
X32529Y57333D01*
X32526Y57310D01*
X32543Y57240D01*
X32550Y57163D01*
X32560Y57140D01*
X32564Y57115D01*
X32577Y57092D01*
X32582Y57073D01*
X32616Y57017D01*
X32651Y56941D01*
X32672Y56915D01*
X32679Y56900D01*
X32698Y56883D01*
X32704Y56876D01*
X32710Y56865D01*
X32717Y56860D01*
X32744Y56826D01*
X33826Y55744D01*
X33906Y55687D01*
X33981Y55625D01*
X34004Y55617D01*
X34025Y55602D01*
X34118Y55574D01*
X34209Y55539D01*
X34242Y55536D01*
X34258Y55531D01*
X34283Y55532D01*
X34356Y55525D01*
X39706Y55525D01*
X39730Y55529D01*
X39755Y55526D01*
X39850Y55548D01*
X39947Y55564D01*
X39968Y55576D01*
X39992Y55582D01*
X40076Y55633D01*
X40162Y55679D01*
X40179Y55697D01*
X40200Y55710D01*
X40262Y55786D01*
X40329Y55857D01*
X40339Y55880D01*
X40355Y55899D01*
X40389Y55990D01*
X40430Y56080D01*
X40432Y56104D01*
X40441Y56127D01*
X40455Y56274D01*
X40455Y56632D01*
X41348Y57525D01*
X48012Y57525D01*
X48470Y57066D01*
X48490Y57052D01*
X48506Y57033D01*
X48589Y56981D01*
X48669Y56924D01*
X48692Y56917D01*
X48713Y56904D01*
X48808Y56882D01*
X48902Y56853D01*
X48927Y56854D01*
X48950Y56848D01*
X49048Y56858D01*
X49146Y56861D01*
X49169Y56870D01*
X49193Y56872D01*
X49283Y56912D01*
X49374Y56947D01*
X49393Y56962D01*
X49416Y56972D01*
X49530Y57066D01*
X50040Y57576D01*
X50062Y57582D01*
X50146Y57633D01*
X50232Y57679D01*
X50249Y57697D01*
X50270Y57710D01*
X50332Y57786D01*
X50399Y57857D01*
X50409Y57880D01*
X50425Y57899D01*
X50459Y57990D01*
X50500Y58080D01*
X50502Y58104D01*
X50511Y58127D01*
X50525Y58274D01*
X50525Y63013D01*
X50509Y63109D01*
X50500Y63206D01*
X50490Y63229D01*
X50486Y63254D01*
X50440Y63340D01*
X50399Y63429D01*
X50378Y63454D01*
X50371Y63469D01*
X50352Y63486D01*
X50306Y63543D01*
X48943Y64905D01*
X48943Y68983D01*
X48931Y69056D01*
X48929Y69129D01*
X48912Y69175D01*
X48904Y69224D01*
X48877Y69274D01*
X48926Y69286D01*
X48999Y69293D01*
X49044Y69313D01*
X49092Y69324D01*
X49155Y69363D01*
X49222Y69393D01*
X49278Y69440D01*
X49300Y69453D01*
X49310Y69466D01*
X49336Y69487D01*
X51905Y72057D01*
X56095Y72057D01*
X59057Y69095D01*
X59057Y64905D01*
X56334Y62183D01*
X56277Y62103D01*
X56215Y62028D01*
X56207Y62005D01*
X56192Y61985D01*
X56164Y61891D01*
X56129Y61800D01*
X56126Y61767D01*
X56121Y61751D01*
X56122Y61726D01*
X56115Y61653D01*
X56115Y58274D01*
X56119Y58250D01*
X56116Y58225D01*
X56138Y58130D01*
X56154Y58033D01*
X56166Y58012D01*
X56172Y57988D01*
X56223Y57904D01*
X56269Y57818D01*
X56287Y57801D01*
X56300Y57780D01*
X56376Y57718D01*
X56447Y57651D01*
X56470Y57641D01*
X56489Y57625D01*
X56580Y57591D01*
X56590Y57587D01*
X57545Y56632D01*
X57545Y49368D01*
X56652Y48475D01*
X49988Y48475D01*
X49530Y48934D01*
X49510Y48948D01*
X49494Y48967D01*
X49411Y49019D01*
X49331Y49076D01*
X49308Y49083D01*
X49287Y49096D01*
X49192Y49118D01*
X49098Y49147D01*
X49074Y49146D01*
X49050Y49152D01*
X48952Y49142D01*
X48854Y49139D01*
X48831Y49130D01*
X48807Y49128D01*
X48717Y49088D01*
X48626Y49053D01*
X48607Y49038D01*
X48584Y49028D01*
X48470Y48934D01*
X48012Y48475D01*
X47954Y48475D01*
X47930Y48471D01*
X47905Y48474D01*
X47810Y48452D01*
X47713Y48436D01*
X47692Y48424D01*
X47668Y48418D01*
X47584Y48367D01*
X47498Y48321D01*
X47481Y48303D01*
X47460Y48290D01*
X47398Y48214D01*
X47331Y48143D01*
X47321Y48120D01*
X47305Y48101D01*
X47271Y48010D01*
X47230Y47920D01*
X47228Y47896D01*
X47219Y47873D01*
X47205Y47726D01*
X47205Y46274D01*
X47209Y46250D01*
X47206Y46225D01*
X47228Y46130D01*
X47244Y46033D01*
X47256Y46012D01*
X47262Y45988D01*
X47313Y45904D01*
X47359Y45818D01*
X47377Y45801D01*
X47390Y45780D01*
X47466Y45718D01*
X47537Y45651D01*
X47560Y45641D01*
X47579Y45625D01*
X47670Y45591D01*
X47760Y45550D01*
X47784Y45548D01*
X47807Y45539D01*
X47954Y45525D01*
X52632Y45525D01*
X53525Y44632D01*
X53525Y33368D01*
X52632Y32475D01*
X48485Y32475D01*
X48412Y32463D01*
X48339Y32461D01*
X48293Y32444D01*
X48244Y32436D01*
X48179Y32401D01*
X48111Y32375D01*
X48072Y32344D01*
X48029Y32321D01*
X47979Y32267D01*
X47922Y32220D01*
X47896Y32178D01*
X47862Y32143D01*
X47832Y32076D01*
X47793Y32013D01*
X47782Y31965D01*
X47761Y31920D01*
X47754Y31847D01*
X47737Y31776D01*
X47742Y31727D01*
X47737Y31677D01*
X47754Y31606D01*
X47761Y31533D01*
X47781Y31488D01*
X47792Y31440D01*
X47831Y31377D01*
X47861Y31310D01*
X47908Y31254D01*
X47921Y31232D01*
X47934Y31222D01*
X47955Y31196D01*
X50057Y29095D01*
X50057Y24905D01*
X47095Y21943D01*
X42905Y21943D01*
X39943Y24905D01*
X39943Y29095D01*
X42045Y31196D01*
X42088Y31256D01*
X42138Y31310D01*
X42158Y31354D01*
X42187Y31395D01*
X42208Y31465D01*
X42239Y31532D01*
X42244Y31581D01*
X42258Y31628D01*
X42256Y31701D01*
X42263Y31775D01*
X42252Y31823D01*
X42250Y31872D01*
X42224Y31941D01*
X42208Y32012D01*
X42182Y32054D01*
X42164Y32100D01*
X42118Y32157D01*
X42079Y32220D01*
X42041Y32251D01*
X42010Y32289D01*
X41947Y32328D01*
X41890Y32375D01*
X41844Y32392D01*
X41802Y32418D01*
X41731Y32435D01*
X41662Y32461D01*
X41589Y32468D01*
X41565Y32474D01*
X41548Y32472D01*
X41515Y32475D01*
X40368Y32475D01*
X39475Y33368D01*
X39475Y44632D01*
X40368Y45525D01*
X41406Y45525D01*
X41430Y45529D01*
X41455Y45526D01*
X41550Y45548D01*
X41647Y45564D01*
X41668Y45576D01*
X41692Y45582D01*
X41776Y45633D01*
X41862Y45679D01*
X41879Y45697D01*
X41900Y45710D01*
X41962Y45786D01*
X42029Y45857D01*
X42039Y45880D01*
X42055Y45899D01*
X42089Y45990D01*
X42130Y46080D01*
X42132Y46104D01*
X42141Y46127D01*
X42155Y46274D01*
X42155Y47726D01*
X42151Y47750D01*
X42154Y47775D01*
X42132Y47870D01*
X42116Y47967D01*
X42104Y47988D01*
X42098Y48012D01*
X42047Y48096D01*
X42001Y48182D01*
X41983Y48199D01*
X41970Y48220D01*
X41894Y48282D01*
X41823Y48349D01*
X41800Y48359D01*
X41781Y48375D01*
X41690Y48409D01*
X41600Y48450D01*
X41576Y48452D01*
X41553Y48461D01*
X41406Y48475D01*
X41348Y48475D01*
X40455Y49368D01*
X40455Y49726D01*
X40451Y49750D01*
X40454Y49775D01*
X40432Y49870D01*
X40416Y49967D01*
X40404Y49988D01*
X40398Y50012D01*
X40347Y50096D01*
X40301Y50182D01*
X40283Y50199D01*
X40270Y50220D01*
X40194Y50282D01*
X40123Y50349D01*
X40100Y50359D01*
X40081Y50375D01*
X39990Y50409D01*
X39900Y50450D01*
X39876Y50452D01*
X39853Y50461D01*
X39706Y50475D01*
X31954Y50475D01*
X29174Y53256D01*
X27370Y55059D01*
X27291Y55116D01*
X27215Y55178D01*
X27192Y55187D01*
X27172Y55202D01*
X27078Y55230D01*
X26987Y55264D01*
X26962Y55265D01*
X26938Y55272D01*
X26841Y55269D01*
X26743Y55273D01*
X26719Y55265D01*
X26694Y55265D01*
X26603Y55230D01*
X26509Y55202D01*
X26489Y55187D01*
X26466Y55179D01*
X26390Y55117D01*
X26311Y55060D01*
X26296Y55040D01*
X26277Y55024D01*
X26226Y54941D01*
X26169Y54862D01*
X26161Y54838D01*
X26148Y54817D01*
X26126Y54722D01*
X26098Y54628D01*
X26098Y54603D01*
X26093Y54579D01*
X26102Y54482D01*
X26105Y54384D01*
X26115Y54353D01*
X26116Y54336D01*
X26127Y54314D01*
X26148Y54243D01*
X26923Y52373D01*
X26923Y48027D01*
X25260Y44013D01*
X22187Y40940D01*
X18173Y39277D01*
X13827Y39277D01*
X9813Y40940D01*
X7042Y43711D01*
X6982Y43754D01*
X6928Y43804D01*
X6884Y43825D01*
X6843Y43853D01*
X6773Y43875D01*
X6706Y43905D01*
X6657Y43910D01*
X6610Y43924D01*
X6537Y43922D01*
X6463Y43929D01*
X6415Y43918D01*
X6366Y43916D01*
X6297Y43890D01*
X6226Y43874D01*
X6184Y43848D01*
X6138Y43830D01*
X6081Y43784D01*
X6018Y43745D01*
X5987Y43707D01*
X5949Y43676D01*
X5910Y43613D01*
X5863Y43557D01*
X5846Y43511D01*
X5820Y43469D01*
X5803Y43397D01*
X5777Y43328D01*
X5770Y43255D01*
X5764Y43231D01*
X5766Y43214D01*
X5763Y43181D01*
X5763Y31819D01*
X5775Y31746D01*
X5777Y31673D01*
X5794Y31627D01*
X5802Y31578D01*
X5837Y31513D01*
X5863Y31444D01*
X5894Y31406D01*
X5917Y31363D01*
X5971Y31312D01*
X6018Y31256D01*
X6059Y31230D01*
X6095Y31196D01*
X6162Y31165D01*
X6225Y31127D01*
X6273Y31115D01*
X6318Y31095D01*
X6391Y31088D01*
X6462Y31071D01*
X6511Y31076D01*
X6561Y31071D01*
X6632Y31088D01*
X6705Y31095D01*
X6750Y31115D01*
X6798Y31126D01*
X6861Y31165D01*
X6928Y31195D01*
X6984Y31242D01*
X7006Y31255D01*
X7016Y31268D01*
X7042Y31289D01*
X9813Y34060D01*
X13827Y35723D01*
X18173Y35723D01*
X22187Y34060D01*
X25260Y30987D01*
X26923Y26973D01*
X26923Y22627D01*
X26235Y20967D01*
X26202Y20826D01*
X26180Y20730D01*
X26193Y20597D01*
X26203Y20487D01*
X26204Y20487D01*
X26261Y20359D01*
X26304Y20265D01*
X26305Y20264D01*
X26398Y20151D01*
X30264Y16284D01*
X30344Y16227D01*
X30419Y16165D01*
X30442Y16157D01*
X30463Y16142D01*
X30556Y16114D01*
X30647Y16079D01*
X30680Y16076D01*
X30696Y16071D01*
X30721Y16072D01*
X30794Y16065D01*
X66006Y16065D01*
X66102Y16081D01*
X66199Y16090D01*
X66222Y16100D01*
X66247Y16104D01*
X66333Y16150D01*
X66422Y16191D01*
X66447Y16212D01*
X66462Y16219D01*
X66479Y16238D01*
X66536Y16284D01*
X70780Y20528D01*
X70837Y20608D01*
X70899Y20683D01*
X70907Y20706D01*
X70922Y20727D01*
X70950Y20820D01*
X70985Y20911D01*
X70988Y20944D01*
X70993Y20960D01*
X70992Y20985D01*
X70999Y21058D01*
X70999Y30929D01*
X70982Y31034D01*
X70960Y31169D01*
X70960Y31170D01*
X70913Y31257D01*
X70845Y31385D01*
X70775Y31450D01*
X70667Y31552D01*
X70549Y31605D01*
X70445Y31652D01*
X70444Y31652D01*
X70444Y31653D01*
X70287Y31668D01*
X70202Y31677D01*
X70201Y31677D01*
X70201Y31676D01*
X70056Y31653D01*
X69334Y31459D01*
X64999Y31459D01*
X64999Y38250D01*
X64995Y38274D01*
X64998Y38298D01*
X64975Y38394D01*
X64959Y38491D01*
X64948Y38512D01*
X64942Y38536D01*
X64891Y38619D01*
X64844Y38706D01*
X64827Y38723D01*
X64814Y38743D01*
X64738Y38806D01*
X64666Y38873D01*
X64644Y38883D01*
X64625Y38898D01*
X64534Y38933D01*
X64444Y38974D01*
X64420Y38976D01*
X64397Y38985D01*
X64250Y38999D01*
X63499Y38999D01*
X63499Y39001D01*
X64250Y39001D01*
X64274Y39005D01*
X64298Y39002D01*
X64394Y39025D01*
X64491Y39041D01*
X64512Y39052D01*
X64536Y39058D01*
X64619Y39109D01*
X64706Y39156D01*
X64723Y39173D01*
X64743Y39186D01*
X64806Y39262D01*
X64873Y39334D01*
X64883Y39356D01*
X64898Y39375D01*
X64933Y39466D01*
X64974Y39556D01*
X64976Y39580D01*
X64985Y39603D01*
X64999Y39750D01*
X64999Y46541D01*
X69334Y46541D01*
X70056Y46347D01*
X70172Y46336D01*
X70299Y46323D01*
X70386Y46344D01*
X70536Y46379D01*
X70537Y46379D01*
X70581Y46406D01*
X70744Y46507D01*
X70744Y46508D01*
X70792Y46566D01*
X70899Y46696D01*
X70946Y46821D01*
X70985Y46924D01*
X70985Y46925D01*
X70999Y47071D01*
X70999Y50748D01*
X79316Y59065D01*
X81226Y59065D01*
X81250Y59069D01*
X81275Y59066D01*
X81370Y59088D01*
X81467Y59104D01*
X81489Y59116D01*
X81513Y59122D01*
X81596Y59173D01*
X81682Y59219D01*
X81699Y59237D01*
X81720Y59250D01*
X81782Y59326D01*
X81849Y59397D01*
X81859Y59420D01*
X81875Y59439D01*
X81909Y59531D01*
X81950Y59620D01*
X81952Y59644D01*
X81961Y59667D01*
X81964Y59765D01*
X81974Y59863D01*
X81968Y59887D01*
X81969Y59911D01*
X81941Y60005D01*
X81919Y60100D01*
X81905Y60121D01*
X81898Y60145D01*
X81841Y60224D01*
X81790Y60308D01*
X81771Y60323D01*
X81756Y60343D01*
X81642Y60437D01*
X81489Y60539D01*
X80329Y61700D01*
X79417Y63064D01*
X78789Y64580D01*
X78469Y66189D01*
X78469Y71301D01*
X86050Y71301D01*
X86074Y71305D01*
X86098Y71302D01*
X86194Y71325D01*
X86291Y71340D01*
X86312Y71352D01*
X86336Y71358D01*
X86419Y71409D01*
X86506Y71455D01*
X86523Y71473D01*
X86543Y71486D01*
X86606Y71562D01*
X86673Y71634D01*
X86683Y71656D01*
X86698Y71675D01*
X86733Y71766D01*
X86773Y71856D01*
X86776Y71880D01*
X86785Y71903D01*
X86799Y72050D01*
X86799Y72801D01*
X86801Y72801D01*
X86801Y72050D01*
X86805Y72026D01*
X86802Y72001D01*
X86825Y71906D01*
X86841Y71809D01*
X86852Y71788D01*
X86858Y71764D01*
X86909Y71680D01*
X86956Y71594D01*
X86973Y71577D01*
X86986Y71556D01*
X87062Y71494D01*
X87134Y71427D01*
X87156Y71417D01*
X87175Y71402D01*
X87267Y71367D01*
X87356Y71326D01*
X87380Y71324D01*
X87403Y71315D01*
X87550Y71301D01*
X95131Y71301D01*
X95131Y71119D01*
X95143Y71046D01*
X95145Y70973D01*
X95162Y70927D01*
X95170Y70878D01*
X95205Y70813D01*
X95231Y70744D01*
X95262Y70706D01*
X95285Y70663D01*
X95339Y70613D01*
X95386Y70556D01*
X95428Y70530D01*
X95463Y70496D01*
X95530Y70466D01*
X95593Y70427D01*
X95641Y70416D01*
X95686Y70395D01*
X95759Y70388D01*
X95830Y70371D01*
X95879Y70376D01*
X95929Y70371D01*
X96000Y70388D01*
X96073Y70395D01*
X96118Y70415D01*
X96166Y70426D01*
X96229Y70465D01*
X96296Y70495D01*
X96352Y70542D01*
X96374Y70555D01*
X96384Y70568D01*
X96410Y70589D01*
X97984Y72163D01*
X100006Y73001D01*
X102194Y73001D01*
X104216Y72163D01*
X105763Y70616D01*
X106601Y68594D01*
X106601Y66406D01*
X105763Y64384D01*
X104216Y62837D01*
X102194Y61999D01*
X100006Y61999D01*
X97984Y62837D01*
X96437Y64384D01*
X96257Y64818D01*
X96244Y64839D01*
X96237Y64862D01*
X96180Y64942D01*
X96128Y65025D01*
X96109Y65041D01*
X96095Y65061D01*
X96015Y65118D01*
X95940Y65180D01*
X95916Y65189D01*
X95896Y65203D01*
X95803Y65231D01*
X95711Y65266D01*
X95687Y65267D01*
X95663Y65274D01*
X95565Y65271D01*
X95467Y65274D01*
X95444Y65267D01*
X95419Y65266D01*
X95328Y65232D01*
X95234Y65203D01*
X95214Y65189D01*
X95191Y65180D01*
X95115Y65118D01*
X95035Y65061D01*
X95021Y65041D01*
X95002Y65026D01*
X94950Y64943D01*
X94893Y64863D01*
X94886Y64840D01*
X94873Y64819D01*
X94830Y64677D01*
X94811Y64580D01*
X94183Y63064D01*
X94153Y63020D01*
X93653Y62271D01*
X93271Y61700D01*
X92111Y60539D01*
X91958Y60437D01*
X91940Y60420D01*
X91918Y60409D01*
X91851Y60337D01*
X91780Y60270D01*
X91768Y60248D01*
X91751Y60230D01*
X91711Y60141D01*
X91665Y60055D01*
X91660Y60031D01*
X91650Y60008D01*
X91641Y59911D01*
X91625Y59814D01*
X91629Y59790D01*
X91626Y59765D01*
X91648Y59670D01*
X91664Y59574D01*
X91676Y59552D01*
X91681Y59528D01*
X91733Y59444D01*
X91779Y59358D01*
X91797Y59341D01*
X91810Y59320D01*
X91886Y59258D01*
X91957Y59191D01*
X91980Y59181D01*
X91999Y59165D01*
X92090Y59131D01*
X92179Y59090D01*
X92204Y59088D01*
X92227Y59079D01*
X92374Y59065D01*
X143006Y59065D01*
X143102Y59081D01*
X143199Y59090D01*
X143222Y59100D01*
X143247Y59104D01*
X143333Y59150D01*
X143422Y59191D01*
X143447Y59212D01*
X143462Y59219D01*
X143479Y59238D01*
X143536Y59284D01*
X145716Y61464D01*
X145773Y61543D01*
X145835Y61619D01*
X145843Y61642D01*
X145858Y61663D01*
X145886Y61756D01*
X145921Y61847D01*
X145924Y61880D01*
X145929Y61896D01*
X145928Y61921D01*
X145935Y61994D01*
X145935Y64975D01*
X145923Y65048D01*
X145921Y65121D01*
X145904Y65167D01*
X145896Y65216D01*
X145861Y65281D01*
X145835Y65349D01*
X145804Y65388D01*
X145781Y65431D01*
X145727Y65481D01*
X145680Y65538D01*
X145638Y65564D01*
X145603Y65598D01*
X145536Y65628D01*
X145473Y65667D01*
X145425Y65678D01*
X145380Y65699D01*
X145307Y65706D01*
X145236Y65723D01*
X145187Y65718D01*
X145137Y65723D01*
X145066Y65706D01*
X144993Y65699D01*
X144948Y65679D01*
X144900Y65668D01*
X144837Y65629D01*
X144770Y65599D01*
X144714Y65552D01*
X144692Y65539D01*
X144682Y65526D01*
X144656Y65505D01*
X143095Y63943D01*
X138905Y63943D01*
X136593Y66256D01*
X136513Y66313D01*
X136438Y66375D01*
X136415Y66383D01*
X136395Y66398D01*
X136301Y66426D01*
X136210Y66461D01*
X136177Y66464D01*
X136161Y66469D01*
X136136Y66468D01*
X136063Y66475D01*
X132937Y66475D01*
X132841Y66459D01*
X132744Y66450D01*
X132721Y66440D01*
X132696Y66436D01*
X132610Y66390D01*
X132521Y66349D01*
X132496Y66328D01*
X132481Y66321D01*
X132464Y66302D01*
X132407Y66256D01*
X130095Y63943D01*
X125905Y63943D01*
X122943Y66905D01*
X122943Y70176D01*
X122927Y70272D01*
X122918Y70369D01*
X122908Y70392D01*
X122904Y70417D01*
X122858Y70503D01*
X122817Y70591D01*
X122796Y70617D01*
X122789Y70632D01*
X122770Y70649D01*
X122724Y70706D01*
X119475Y73954D01*
X119475Y85644D01*
X119459Y85740D01*
X119450Y85837D01*
X119440Y85860D01*
X119436Y85885D01*
X119390Y85971D01*
X119349Y86059D01*
X119328Y86085D01*
X119321Y86100D01*
X119302Y86117D01*
X119256Y86174D01*
X117174Y88256D01*
X117094Y88313D01*
X117019Y88375D01*
X116996Y88383D01*
X116975Y88398D01*
X116882Y88426D01*
X116791Y88461D01*
X116758Y88464D01*
X116742Y88469D01*
X116717Y88468D01*
X116644Y88475D01*
X49356Y88475D01*
X49260Y88459D01*
X49163Y88450D01*
X49140Y88440D01*
X49115Y88436D01*
X49029Y88390D01*
X48941Y88349D01*
X48915Y88328D01*
X48900Y88321D01*
X48883Y88302D01*
X48826Y88256D01*
X45744Y85174D01*
X45687Y85094D01*
X45625Y85019D01*
X45617Y84996D01*
X45602Y84975D01*
X45574Y84882D01*
X45539Y84791D01*
X45536Y84758D01*
X45531Y84742D01*
X45532Y84717D01*
X45525Y84644D01*
X45525Y76937D01*
X45541Y76841D01*
X45550Y76744D01*
X45560Y76721D01*
X45564Y76696D01*
X45610Y76610D01*
X45651Y76521D01*
X45672Y76496D01*
X45679Y76481D01*
X45698Y76464D01*
X45744Y76407D01*
X48057Y74095D01*
X48057Y70017D01*
X48069Y69944D01*
X48071Y69871D01*
X48088Y69825D01*
X48096Y69776D01*
X48123Y69726D01*
X48074Y69714D01*
X48001Y69707D01*
X47956Y69687D01*
X47908Y69676D01*
X47845Y69637D01*
X47778Y69607D01*
X47722Y69560D01*
X47700Y69547D01*
X47690Y69534D01*
X47664Y69513D01*
X45095Y66943D01*
X40905Y66943D01*
X37943Y69905D01*
X37943Y74095D01*
X40256Y76407D01*
X40313Y76487D01*
X40375Y76562D01*
X40383Y76585D01*
X40398Y76605D01*
X40426Y76699D01*
X40461Y76790D01*
X40464Y76823D01*
X40469Y76839D01*
X40468Y76864D01*
X40475Y76937D01*
X40475Y87046D01*
X45256Y91826D01*
X46109Y92680D01*
X46124Y92700D01*
X46143Y92715D01*
X46194Y92799D01*
X46251Y92878D01*
X46259Y92902D01*
X46272Y92922D01*
X46294Y93018D01*
X46322Y93112D01*
X46322Y93136D01*
X46327Y93160D01*
X46318Y93257D01*
X46314Y93355D01*
X46306Y93378D01*
X46303Y93403D01*
X46263Y93492D01*
X46229Y93584D01*
X46213Y93603D01*
X46203Y93625D01*
X46109Y93739D01*
X43943Y95905D01*
X43943Y100095D01*
X46905Y103057D01*
X51095Y103057D01*
X54057Y100095D01*
X54057Y97798D01*
X54059Y97781D01*
X54058Y97770D01*
X54060Y97764D01*
X54058Y97749D01*
X54080Y97654D01*
X54096Y97557D01*
X54108Y97536D01*
X54114Y97512D01*
X54165Y97428D01*
X54211Y97342D01*
X54229Y97325D01*
X54242Y97304D01*
X54318Y97242D01*
X54389Y97175D01*
X54412Y97165D01*
X54431Y97149D01*
X54522Y97115D01*
X54612Y97074D01*
X54636Y97072D01*
X54659Y97063D01*
X54806Y97049D01*
X135168Y97049D01*
X135264Y97065D01*
X135361Y97074D01*
X135384Y97084D01*
X135409Y97088D01*
X135495Y97134D01*
X135583Y97175D01*
X135609Y97196D01*
X135624Y97203D01*
X135641Y97222D01*
X135642Y97223D01*
X135644Y97224D01*
X135646Y97226D01*
X135698Y97268D01*
X138256Y99826D01*
X138313Y99906D01*
X138375Y99981D01*
X138383Y100004D01*
X138398Y100025D01*
X138426Y100118D01*
X138461Y100209D01*
X138464Y100242D01*
X138469Y100258D01*
X138468Y100283D01*
X138475Y100356D01*
X138475Y105063D01*
X138459Y105159D01*
X138450Y105256D01*
X138440Y105279D01*
X138436Y105304D01*
X138390Y105390D01*
X138349Y105479D01*
X138328Y105504D01*
X138321Y105519D01*
X138302Y105536D01*
X138256Y105593D01*
X135943Y107905D01*
X135943Y112095D01*
X138905Y115057D01*
X143095Y115057D01*
X144664Y113487D01*
X144724Y113444D01*
X144778Y113394D01*
X144822Y113374D01*
X144863Y113345D01*
X144933Y113324D01*
X145000Y113293D01*
X145049Y113288D01*
X145096Y113274D01*
X145169Y113276D01*
X145243Y113269D01*
X145291Y113280D01*
X145340Y113282D01*
X145409Y113308D01*
X145480Y113324D01*
X145522Y113350D01*
X145568Y113368D01*
X145625Y113414D01*
X145688Y113453D01*
X145719Y113491D01*
X145757Y113522D01*
X145796Y113585D01*
X145843Y113642D01*
X145860Y113688D01*
X145886Y113730D01*
X145903Y113801D01*
X145929Y113870D01*
X145936Y113943D01*
X145942Y113967D01*
X145940Y113984D01*
X145943Y114017D01*
X145943Y114095D01*
X148905Y117057D01*
X153095Y117057D01*
X155137Y115014D01*
X155217Y114957D01*
X155292Y114895D01*
X155315Y114887D01*
X155335Y114872D01*
X155429Y114844D01*
X155520Y114809D01*
X155553Y114806D01*
X155569Y114801D01*
X155594Y114802D01*
X155667Y114795D01*
X160158Y114795D01*
X166795Y108158D01*
X166795Y101667D01*
X166811Y101571D01*
X166820Y101474D01*
X166830Y101451D01*
X166834Y101426D01*
X166880Y101340D01*
X166921Y101251D01*
X166942Y101226D01*
X166949Y101211D01*
X166968Y101194D01*
X167014Y101137D01*
X169057Y99095D01*
X169057Y94905D01*
X166095Y91943D01*
X161905Y91943D01*
X161133Y92716D01*
X161053Y92773D01*
X160978Y92835D01*
X160955Y92843D01*
X160935Y92858D01*
X160841Y92886D01*
X160750Y92921D01*
X160717Y92924D01*
X160701Y92929D01*
X160676Y92928D01*
X160603Y92935D01*
X159994Y92935D01*
X159898Y92919D01*
X159801Y92910D01*
X159778Y92900D01*
X159753Y92896D01*
X159667Y92850D01*
X159578Y92809D01*
X159553Y92788D01*
X159538Y92781D01*
X159521Y92762D01*
X159464Y92716D01*
X154284Y87536D01*
X154227Y87456D01*
X154165Y87381D01*
X154157Y87358D01*
X154142Y87337D01*
X154114Y87244D01*
X154079Y87153D01*
X154076Y87120D01*
X154071Y87104D01*
X154072Y87079D01*
X154065Y87006D01*
X154065Y72253D01*
X154077Y72180D01*
X154079Y72107D01*
X154096Y72061D01*
X154104Y72012D01*
X154139Y71947D01*
X154165Y71878D01*
X154196Y71840D01*
X154219Y71797D01*
X154273Y71747D01*
X154320Y71690D01*
X154362Y71664D01*
X154397Y71630D01*
X154464Y71600D01*
X154527Y71561D01*
X154575Y71550D01*
X154620Y71529D01*
X154693Y71522D01*
X154764Y71505D01*
X154813Y71510D01*
X154863Y71505D01*
X154934Y71522D01*
X155007Y71529D01*
X155052Y71549D01*
X155100Y71560D01*
X155163Y71599D01*
X155230Y71629D01*
X155286Y71676D01*
X155308Y71689D01*
X155318Y71702D01*
X155344Y71723D01*
X155784Y72163D01*
X157806Y73001D01*
X159994Y73001D01*
X162016Y72163D01*
X163590Y70589D01*
X163650Y70546D01*
X163704Y70496D01*
X163748Y70476D01*
X163789Y70447D01*
X163859Y70425D01*
X163926Y70395D01*
X163975Y70390D01*
X164022Y70376D01*
X164095Y70378D01*
X164169Y70371D01*
X164217Y70382D01*
X164266Y70384D01*
X164335Y70410D01*
X164406Y70426D01*
X164448Y70452D01*
X164494Y70470D01*
X164551Y70516D01*
X164614Y70555D01*
X164645Y70593D01*
X164683Y70624D01*
X164722Y70687D01*
X164769Y70744D01*
X164786Y70790D01*
X164812Y70832D01*
X164829Y70903D01*
X164855Y70972D01*
X164862Y71045D01*
X164868Y71069D01*
X164866Y71086D01*
X164869Y71119D01*
X164869Y71301D01*
X171701Y71301D01*
X171701Y58814D01*
X170770Y58999D01*
X169254Y59627D01*
X167890Y60539D01*
X166729Y61700D01*
X165817Y63064D01*
X165189Y64580D01*
X165170Y64677D01*
X165161Y64700D01*
X165159Y64725D01*
X165119Y64814D01*
X165084Y64906D01*
X165069Y64925D01*
X165058Y64947D01*
X164991Y65019D01*
X164929Y65094D01*
X164909Y65107D01*
X164892Y65125D01*
X164805Y65172D01*
X164722Y65223D01*
X164698Y65229D01*
X164676Y65241D01*
X164580Y65257D01*
X164485Y65279D01*
X164460Y65276D01*
X164436Y65280D01*
X164339Y65265D01*
X164242Y65255D01*
X164219Y65245D01*
X164195Y65241D01*
X164109Y65195D01*
X164019Y65155D01*
X164001Y65138D01*
X163980Y65126D01*
X163913Y65055D01*
X163841Y64988D01*
X163830Y64966D01*
X163813Y64948D01*
X163743Y64818D01*
X163563Y64384D01*
X162016Y62837D01*
X159994Y61999D01*
X157806Y61999D01*
X155784Y62837D01*
X155344Y63277D01*
X155284Y63320D01*
X155230Y63370D01*
X155186Y63390D01*
X155145Y63419D01*
X155075Y63441D01*
X155008Y63471D01*
X154959Y63476D01*
X154912Y63490D01*
X154839Y63488D01*
X154765Y63495D01*
X154717Y63484D01*
X154668Y63482D01*
X154599Y63456D01*
X154528Y63440D01*
X154486Y63414D01*
X154440Y63396D01*
X154383Y63350D01*
X154320Y63311D01*
X154289Y63273D01*
X154251Y63242D01*
X154212Y63179D01*
X154165Y63122D01*
X154148Y63076D01*
X154122Y63034D01*
X154105Y62963D01*
X154079Y62894D01*
X154072Y62821D01*
X154066Y62797D01*
X154068Y62780D01*
X154065Y62747D01*
X154065Y58316D01*
X149284Y53536D01*
X146806Y51058D01*
X146708Y50921D01*
X146664Y50860D01*
X146664Y50859D01*
X146620Y50716D01*
X146593Y50626D01*
X146597Y50507D01*
X146601Y50382D01*
X146656Y50235D01*
X146687Y50154D01*
X146687Y50153D01*
X146795Y50021D01*
X146841Y49965D01*
X146842Y49964D01*
X146961Y49879D01*
X147560Y49533D01*
X148033Y49060D01*
X148368Y48481D01*
X148541Y47834D01*
X148541Y35999D01*
X128750Y35999D01*
X128726Y35995D01*
X128702Y35998D01*
X128606Y35975D01*
X128509Y35959D01*
X128488Y35948D01*
X128464Y35942D01*
X128381Y35891D01*
X128294Y35844D01*
X128277Y35827D01*
X128257Y35814D01*
X128194Y35738D01*
X128127Y35666D01*
X128117Y35644D01*
X128102Y35625D01*
X128067Y35534D01*
X128026Y35444D01*
X128024Y35420D01*
X128015Y35397D01*
X128001Y35250D01*
X128001Y34499D01*
X127999Y34499D01*
X127999Y35250D01*
X127995Y35274D01*
X127998Y35298D01*
X127975Y35394D01*
X127959Y35491D01*
X127948Y35512D01*
X127942Y35536D01*
X127891Y35619D01*
X127844Y35706D01*
X127827Y35723D01*
X127814Y35743D01*
X127738Y35806D01*
X127666Y35873D01*
X127644Y35883D01*
X127625Y35898D01*
X127534Y35933D01*
X127444Y35974D01*
X127420Y35976D01*
X127397Y35985D01*
X127250Y35999D01*
X107459Y35999D01*
X107459Y47834D01*
X107632Y48481D01*
X107967Y49060D01*
X108440Y49533D01*
X108447Y49537D01*
X108485Y49568D01*
X108528Y49591D01*
X108579Y49645D01*
X108636Y49692D01*
X108662Y49734D01*
X108695Y49770D01*
X108726Y49837D01*
X108764Y49899D01*
X108776Y49947D01*
X108796Y49992D01*
X108803Y50065D01*
X108820Y50137D01*
X108815Y50186D01*
X108820Y50235D01*
X108803Y50306D01*
X108796Y50379D01*
X108776Y50424D01*
X108765Y50472D01*
X108726Y50535D01*
X108696Y50602D01*
X108662Y50638D01*
X108636Y50680D01*
X108579Y50726D01*
X108529Y50780D01*
X108486Y50803D01*
X108448Y50835D01*
X108379Y50860D01*
X108314Y50895D01*
X108265Y50903D01*
X108219Y50921D01*
X108075Y50935D01*
X108073Y50935D01*
X108072Y50935D01*
X82994Y50935D01*
X82898Y50919D01*
X82801Y50910D01*
X82778Y50900D01*
X82753Y50896D01*
X82667Y50850D01*
X82578Y50809D01*
X82553Y50788D01*
X82538Y50781D01*
X82521Y50762D01*
X82464Y50716D01*
X79348Y47600D01*
X79291Y47520D01*
X79229Y47445D01*
X79221Y47422D01*
X79206Y47401D01*
X79178Y47308D01*
X79143Y47217D01*
X79140Y47184D01*
X79135Y47168D01*
X79136Y47143D01*
X79129Y47070D01*
X79129Y42709D01*
X79141Y42636D01*
X79143Y42563D01*
X79160Y42517D01*
X79168Y42468D01*
X79203Y42403D01*
X79229Y42335D01*
X79260Y42297D01*
X79283Y42253D01*
X79337Y42203D01*
X79384Y42146D01*
X79426Y42120D01*
X79461Y42086D01*
X79528Y42056D01*
X79591Y42017D01*
X79639Y42006D01*
X79684Y41985D01*
X79757Y41978D01*
X79828Y41961D01*
X79877Y41966D01*
X79927Y41961D01*
X79998Y41978D01*
X80071Y41985D01*
X80116Y42005D01*
X80164Y42017D01*
X80227Y42055D01*
X80294Y42086D01*
X80350Y42132D01*
X80372Y42145D01*
X80382Y42158D01*
X80408Y42179D01*
X81489Y43261D01*
X82854Y44173D01*
X84370Y44801D01*
X85301Y44986D01*
X85301Y31750D01*
X85305Y31726D01*
X85302Y31702D01*
X85325Y31606D01*
X85340Y31509D01*
X85352Y31488D01*
X85358Y31464D01*
X85409Y31381D01*
X85455Y31294D01*
X85473Y31277D01*
X85486Y31257D01*
X85562Y31194D01*
X85634Y31127D01*
X85656Y31117D01*
X85675Y31102D01*
X85766Y31067D01*
X85856Y31027D01*
X85880Y31024D01*
X85903Y31015D01*
X86050Y31001D01*
X86801Y31001D01*
X86801Y30999D01*
X86050Y30999D01*
X86026Y30995D01*
X86001Y30998D01*
X85906Y30975D01*
X85809Y30959D01*
X85788Y30948D01*
X85764Y30942D01*
X85680Y30891D01*
X85594Y30844D01*
X85577Y30827D01*
X85556Y30814D01*
X85494Y30738D01*
X85427Y30666D01*
X85417Y30644D01*
X85402Y30625D01*
X85367Y30533D01*
X85326Y30444D01*
X85324Y30420D01*
X85315Y30397D01*
X85301Y30250D01*
X85301Y17014D01*
X84370Y17199D01*
X82854Y17827D01*
X81489Y18739D01*
X80408Y19821D01*
X80348Y19864D01*
X80294Y19914D01*
X80250Y19934D01*
X80209Y19963D01*
X80139Y19984D01*
X80072Y20015D01*
X80023Y20019D01*
X79976Y20034D01*
X79903Y20031D01*
X79829Y20039D01*
X79781Y20027D01*
X79732Y20026D01*
X79663Y20000D01*
X79592Y19983D01*
X79550Y19957D01*
X79504Y19940D01*
X79447Y19893D01*
X79384Y19855D01*
X79353Y19817D01*
X79315Y19785D01*
X79276Y19723D01*
X79229Y19666D01*
X79212Y19620D01*
X79186Y19578D01*
X79169Y19507D01*
X79143Y19438D01*
X79136Y19365D01*
X79130Y19341D01*
X79132Y19324D01*
X79129Y19291D01*
X79129Y17380D01*
X69684Y7935D01*
X27116Y7935D01*
X24516Y10536D01*
X20649Y14402D01*
X20539Y14482D01*
X20451Y14544D01*
X20451Y14545D01*
X20340Y14578D01*
X20218Y14615D01*
X20217Y14615D01*
X20093Y14611D01*
X19974Y14608D01*
X19973Y14608D01*
X19973Y14607D01*
X19833Y14565D01*
X18173Y13877D01*
X13827Y13877D01*
X9813Y15540D01*
X7042Y18311D01*
X6982Y18354D01*
X6928Y18404D01*
X6884Y18425D01*
X6843Y18453D01*
X6773Y18475D01*
X6706Y18505D01*
X6657Y18510D01*
X6610Y18524D01*
X6537Y18522D01*
X6463Y18529D01*
X6415Y18518D01*
X6366Y18516D01*
X6297Y18490D01*
X6226Y18474D01*
X6184Y18448D01*
X6138Y18430D01*
X6081Y18384D01*
X6018Y18345D01*
X5987Y18307D01*
X5949Y18276D01*
X5910Y18213D01*
X5863Y18157D01*
X5846Y18111D01*
X5820Y18069D01*
X5803Y17997D01*
X5777Y17928D01*
X5770Y17855D01*
X5764Y17831D01*
X5766Y17814D01*
X5763Y17781D01*
X5763Y13350D01*
X5766Y13328D01*
X5766Y13277D01*
X5943Y11484D01*
X5952Y11449D01*
X5954Y11412D01*
X5996Y11271D01*
X7368Y7959D01*
X7407Y7897D01*
X7437Y7830D01*
X7484Y7773D01*
X7497Y7751D01*
X7510Y7741D01*
X7531Y7716D01*
X10066Y5181D01*
X10125Y5138D01*
X10178Y5088D01*
X10244Y5053D01*
X10264Y5039D01*
X10280Y5034D01*
X10309Y5018D01*
X13621Y3646D01*
X13656Y3638D01*
X13689Y3622D01*
X13834Y3593D01*
X15627Y3416D01*
X15649Y3418D01*
X15700Y3413D01*
X244300Y3413D01*
X244322Y3416D01*
G37*
G36*
X43394Y290649D02*
X43394Y290649D01*
X43467Y290656D01*
X43512Y290676D01*
X43560Y290688D01*
X43623Y290726D01*
X43690Y290757D01*
X43746Y290803D01*
X43768Y290816D01*
X43778Y290829D01*
X43804Y290850D01*
X45478Y292525D01*
X60063Y292525D01*
X60159Y292541D01*
X60256Y292550D01*
X60279Y292560D01*
X60304Y292564D01*
X60390Y292611D01*
X60479Y292651D01*
X60504Y292672D01*
X60519Y292679D01*
X60536Y292698D01*
X60593Y292744D01*
X61993Y294144D01*
X62036Y294204D01*
X62086Y294258D01*
X62106Y294302D01*
X62135Y294343D01*
X62156Y294413D01*
X62187Y294480D01*
X62192Y294529D01*
X62206Y294576D01*
X62204Y294649D01*
X62211Y294723D01*
X62200Y294771D01*
X62198Y294820D01*
X62172Y294889D01*
X62156Y294960D01*
X62130Y295002D01*
X62112Y295048D01*
X62066Y295105D01*
X62027Y295168D01*
X61989Y295199D01*
X61958Y295237D01*
X61895Y295276D01*
X61838Y295323D01*
X61792Y295340D01*
X61750Y295366D01*
X61679Y295383D01*
X61610Y295409D01*
X61537Y295416D01*
X61513Y295422D01*
X61496Y295420D01*
X61463Y295423D01*
X48138Y295423D01*
X47245Y296316D01*
X47245Y321260D01*
X48138Y322153D01*
X73438Y322153D01*
X74331Y321260D01*
X74331Y313306D01*
X74335Y313282D01*
X74332Y313257D01*
X74354Y313162D01*
X74370Y313065D01*
X74382Y313044D01*
X74388Y313020D01*
X74439Y312936D01*
X74485Y312850D01*
X74503Y312833D01*
X74516Y312812D01*
X74592Y312750D01*
X74663Y312683D01*
X74686Y312673D01*
X74705Y312657D01*
X74796Y312623D01*
X74886Y312582D01*
X74910Y312580D01*
X74933Y312571D01*
X75080Y312557D01*
X81095Y312557D01*
X81191Y312573D01*
X81288Y312582D01*
X81311Y312592D01*
X81336Y312596D01*
X81422Y312642D01*
X81511Y312683D01*
X81536Y312704D01*
X81551Y312711D01*
X81568Y312730D01*
X81625Y312776D01*
X82256Y313407D01*
X82313Y313487D01*
X82375Y313562D01*
X82383Y313585D01*
X82398Y313605D01*
X82426Y313699D01*
X82461Y313790D01*
X82464Y313823D01*
X82469Y313839D01*
X82468Y313864D01*
X82475Y313937D01*
X82475Y346046D01*
X84174Y347744D01*
X88256Y351826D01*
X89954Y353525D01*
X157046Y353525D01*
X164506Y346064D01*
X164586Y346007D01*
X164661Y345945D01*
X164684Y345937D01*
X164705Y345922D01*
X164798Y345894D01*
X164889Y345859D01*
X164922Y345856D01*
X164938Y345851D01*
X164963Y345852D01*
X165036Y345845D01*
X216726Y345845D01*
X216750Y345849D01*
X216775Y345846D01*
X216870Y345868D01*
X216967Y345884D01*
X216988Y345896D01*
X217012Y345902D01*
X217096Y345953D01*
X217182Y345999D01*
X217199Y346017D01*
X217220Y346030D01*
X217282Y346106D01*
X217349Y346177D01*
X217359Y346200D01*
X217375Y346219D01*
X217409Y346310D01*
X217450Y346400D01*
X217452Y346424D01*
X217461Y346447D01*
X217475Y346594D01*
X217475Y346652D01*
X218368Y347545D01*
X225632Y347545D01*
X226525Y346652D01*
X226525Y339988D01*
X226066Y339530D01*
X226052Y339510D01*
X226033Y339494D01*
X225981Y339411D01*
X225924Y339331D01*
X225917Y339308D01*
X225904Y339287D01*
X225882Y339192D01*
X225853Y339098D01*
X225854Y339074D01*
X225848Y339050D01*
X225858Y338952D01*
X225861Y338854D01*
X225870Y338831D01*
X225872Y338807D01*
X225912Y338717D01*
X225947Y338626D01*
X225962Y338607D01*
X225972Y338584D01*
X226066Y338470D01*
X226525Y338012D01*
X226525Y332274D01*
X226529Y332250D01*
X226526Y332225D01*
X226548Y332130D01*
X226564Y332033D01*
X226576Y332012D01*
X226582Y331988D01*
X226633Y331904D01*
X226679Y331818D01*
X226697Y331801D01*
X226710Y331780D01*
X226786Y331718D01*
X226857Y331651D01*
X226880Y331641D01*
X226899Y331625D01*
X226990Y331591D01*
X227080Y331550D01*
X227104Y331548D01*
X227127Y331539D01*
X227274Y331525D01*
X232474Y331525D01*
X232608Y331547D01*
X232714Y331564D01*
X232715Y331564D01*
X232826Y331624D01*
X232929Y331679D01*
X232930Y331679D01*
X233003Y331757D01*
X233096Y331857D01*
X233097Y331857D01*
X233097Y331858D01*
X233166Y331987D01*
X234740Y335787D01*
X237813Y338860D01*
X241827Y340523D01*
X246173Y340523D01*
X250187Y338860D01*
X252958Y336089D01*
X253018Y336046D01*
X253072Y335996D01*
X253116Y335975D01*
X253157Y335947D01*
X253227Y335925D01*
X253294Y335895D01*
X253343Y335890D01*
X253390Y335876D01*
X253463Y335878D01*
X253537Y335871D01*
X253585Y335882D01*
X253634Y335884D01*
X253703Y335910D01*
X253774Y335926D01*
X253816Y335952D01*
X253862Y335970D01*
X253919Y336016D01*
X253982Y336055D01*
X254013Y336093D01*
X254051Y336124D01*
X254090Y336187D01*
X254137Y336243D01*
X254154Y336289D01*
X254180Y336331D01*
X254197Y336403D01*
X254223Y336472D01*
X254230Y336545D01*
X254236Y336569D01*
X254234Y336586D01*
X254237Y336619D01*
X254237Y347981D01*
X254225Y348054D01*
X254223Y348127D01*
X254206Y348173D01*
X254198Y348222D01*
X254163Y348287D01*
X254137Y348356D01*
X254106Y348394D01*
X254083Y348437D01*
X254029Y348488D01*
X253982Y348544D01*
X253941Y348570D01*
X253905Y348604D01*
X253838Y348635D01*
X253775Y348673D01*
X253727Y348685D01*
X253682Y348705D01*
X253609Y348712D01*
X253538Y348729D01*
X253489Y348724D01*
X253439Y348729D01*
X253368Y348712D01*
X253295Y348705D01*
X253250Y348685D01*
X253202Y348674D01*
X253139Y348635D01*
X253072Y348605D01*
X253016Y348558D01*
X252994Y348545D01*
X252984Y348532D01*
X252958Y348511D01*
X250187Y345740D01*
X246173Y344077D01*
X241827Y344077D01*
X237813Y345740D01*
X234740Y348813D01*
X233077Y352827D01*
X233077Y357173D01*
X234740Y361187D01*
X237813Y364260D01*
X241827Y365923D01*
X246173Y365923D01*
X250187Y364260D01*
X252958Y361489D01*
X253018Y361446D01*
X253072Y361396D01*
X253116Y361375D01*
X253157Y361347D01*
X253227Y361325D01*
X253294Y361295D01*
X253343Y361290D01*
X253390Y361276D01*
X253463Y361278D01*
X253537Y361271D01*
X253585Y361282D01*
X253634Y361284D01*
X253703Y361310D01*
X253774Y361326D01*
X253816Y361352D01*
X253862Y361370D01*
X253919Y361416D01*
X253982Y361455D01*
X254013Y361493D01*
X254051Y361524D01*
X254090Y361587D01*
X254137Y361643D01*
X254154Y361689D01*
X254180Y361731D01*
X254197Y361803D01*
X254223Y361872D01*
X254230Y361945D01*
X254236Y361969D01*
X254234Y361986D01*
X254237Y362019D01*
X254237Y392000D01*
X254233Y392024D01*
X254236Y392049D01*
X254214Y392144D01*
X254198Y392241D01*
X254186Y392262D01*
X254180Y392286D01*
X254129Y392370D01*
X254083Y392456D01*
X254065Y392473D01*
X254052Y392494D01*
X253976Y392556D01*
X253905Y392623D01*
X253882Y392633D01*
X253863Y392649D01*
X253772Y392683D01*
X253682Y392724D01*
X253658Y392726D01*
X253635Y392735D01*
X253488Y392749D01*
X212167Y392749D01*
X212070Y392733D01*
X211973Y392724D01*
X211951Y392714D01*
X211926Y392710D01*
X211840Y392664D01*
X211751Y392623D01*
X211725Y392602D01*
X211711Y392595D01*
X211694Y392576D01*
X211637Y392530D01*
X210911Y391804D01*
X210868Y391744D01*
X210818Y391690D01*
X210797Y391646D01*
X210769Y391605D01*
X210747Y391535D01*
X210717Y391468D01*
X210712Y391419D01*
X210698Y391372D01*
X210700Y391299D01*
X210693Y391225D01*
X210704Y391177D01*
X210706Y391128D01*
X210732Y391059D01*
X210748Y390988D01*
X210774Y390946D01*
X210792Y390900D01*
X210838Y390843D01*
X210877Y390780D01*
X210915Y390749D01*
X210946Y390711D01*
X211009Y390672D01*
X211065Y390625D01*
X211112Y390608D01*
X211153Y390582D01*
X211225Y390565D01*
X211294Y390539D01*
X211367Y390532D01*
X211391Y390526D01*
X211408Y390528D01*
X211441Y390525D01*
X227046Y390525D01*
X235525Y382046D01*
X235525Y379937D01*
X235541Y379841D01*
X235550Y379744D01*
X235560Y379721D01*
X235564Y379696D01*
X235610Y379610D01*
X235651Y379521D01*
X235672Y379496D01*
X235679Y379481D01*
X235698Y379464D01*
X235744Y379407D01*
X238057Y377095D01*
X238057Y372905D01*
X235095Y369943D01*
X230905Y369943D01*
X227943Y372905D01*
X227943Y377095D01*
X230109Y379261D01*
X230124Y379281D01*
X230143Y379296D01*
X230194Y379379D01*
X230251Y379459D01*
X230259Y379482D01*
X230272Y379503D01*
X230294Y379599D01*
X230322Y379692D01*
X230322Y379717D01*
X230327Y379741D01*
X230318Y379838D01*
X230314Y379936D01*
X230306Y379959D01*
X230303Y379984D01*
X230263Y380073D01*
X230229Y380165D01*
X230213Y380184D01*
X230203Y380206D01*
X230109Y380320D01*
X225174Y385256D01*
X225094Y385313D01*
X225019Y385375D01*
X224996Y385383D01*
X224975Y385398D01*
X224882Y385426D01*
X224791Y385461D01*
X224758Y385464D01*
X224742Y385469D01*
X224717Y385468D01*
X224644Y385475D01*
X75638Y385475D01*
X75542Y385459D01*
X75445Y385450D01*
X75422Y385440D01*
X75398Y385436D01*
X75311Y385389D01*
X75223Y385349D01*
X75204Y385332D01*
X75182Y385321D01*
X75116Y385249D01*
X75044Y385183D01*
X75033Y385161D01*
X75016Y385143D01*
X74975Y385053D01*
X74929Y384967D01*
X74925Y384943D01*
X74915Y384920D01*
X74905Y384823D01*
X74889Y384727D01*
X74893Y384702D01*
X74891Y384677D01*
X74913Y384582D01*
X74929Y384486D01*
X74942Y384456D01*
X74946Y384440D01*
X74959Y384419D01*
X74990Y384351D01*
X75174Y384033D01*
X75347Y383386D01*
X75347Y372711D01*
X61538Y372711D01*
X61514Y372707D01*
X61490Y372710D01*
X61394Y372687D01*
X61297Y372671D01*
X61276Y372660D01*
X61252Y372654D01*
X61169Y372603D01*
X61082Y372556D01*
X61065Y372539D01*
X61045Y372526D01*
X60982Y372450D01*
X60915Y372378D01*
X60905Y372356D01*
X60890Y372337D01*
X60855Y372246D01*
X60814Y372156D01*
X60812Y372132D01*
X60803Y372109D01*
X60789Y371962D01*
X60789Y371211D01*
X60787Y371211D01*
X60787Y371962D01*
X60783Y371986D01*
X60786Y372010D01*
X60763Y372106D01*
X60747Y372203D01*
X60736Y372224D01*
X60730Y372248D01*
X60679Y372331D01*
X60632Y372418D01*
X60615Y372435D01*
X60602Y372455D01*
X60526Y372518D01*
X60454Y372585D01*
X60432Y372595D01*
X60413Y372610D01*
X60322Y372645D01*
X60232Y372686D01*
X60208Y372688D01*
X60185Y372697D01*
X60038Y372711D01*
X46229Y372711D01*
X46229Y383386D01*
X46402Y384033D01*
X46586Y384351D01*
X46621Y384443D01*
X46661Y384532D01*
X46664Y384556D01*
X46672Y384580D01*
X46676Y384677D01*
X46685Y384775D01*
X46680Y384799D01*
X46680Y384824D01*
X46652Y384917D01*
X46630Y385012D01*
X46617Y385033D01*
X46610Y385057D01*
X46553Y385137D01*
X46501Y385220D01*
X46482Y385235D01*
X46468Y385256D01*
X46388Y385313D01*
X46313Y385375D01*
X46290Y385383D01*
X46269Y385398D01*
X46176Y385426D01*
X46085Y385461D01*
X46052Y385464D01*
X46036Y385469D01*
X46011Y385468D01*
X45938Y385475D01*
X45356Y385475D01*
X45260Y385459D01*
X45163Y385450D01*
X45140Y385440D01*
X45115Y385436D01*
X45029Y385390D01*
X44941Y385349D01*
X44915Y385328D01*
X44900Y385321D01*
X44883Y385302D01*
X44826Y385256D01*
X42744Y383174D01*
X42687Y383094D01*
X42625Y383019D01*
X42617Y382996D01*
X42602Y382975D01*
X42574Y382882D01*
X42539Y382791D01*
X42536Y382758D01*
X42531Y382742D01*
X42532Y382717D01*
X42525Y382644D01*
X42525Y291380D01*
X42537Y291308D01*
X42539Y291234D01*
X42556Y291188D01*
X42564Y291139D01*
X42599Y291075D01*
X42625Y291006D01*
X42656Y290968D01*
X42679Y290924D01*
X42733Y290874D01*
X42780Y290817D01*
X42822Y290791D01*
X42857Y290757D01*
X42924Y290727D01*
X42987Y290688D01*
X43035Y290677D01*
X43080Y290656D01*
X43153Y290649D01*
X43224Y290632D01*
X43273Y290637D01*
X43323Y290632D01*
X43394Y290649D01*
G37*
G36*
X30340Y205141D02*
X30340Y205141D01*
X30437Y205150D01*
X30460Y205160D01*
X30485Y205164D01*
X30571Y205210D01*
X30659Y205251D01*
X30685Y205272D01*
X30700Y205279D01*
X30717Y205298D01*
X30774Y205344D01*
X37256Y211826D01*
X37313Y211906D01*
X37375Y211981D01*
X37383Y212004D01*
X37398Y212025D01*
X37426Y212118D01*
X37461Y212209D01*
X37464Y212242D01*
X37469Y212258D01*
X37468Y212283D01*
X37475Y212356D01*
X37475Y385046D01*
X42954Y390525D01*
X46209Y390525D01*
X46282Y390537D01*
X46355Y390539D01*
X46401Y390556D01*
X46450Y390564D01*
X46515Y390599D01*
X46584Y390625D01*
X46622Y390656D01*
X46665Y390679D01*
X46715Y390733D01*
X46772Y390780D01*
X46798Y390822D01*
X46832Y390857D01*
X46862Y390924D01*
X46901Y390987D01*
X46913Y391035D01*
X46933Y391080D01*
X46940Y391153D01*
X46957Y391224D01*
X46952Y391273D01*
X46957Y391323D01*
X46940Y391394D01*
X46933Y391467D01*
X46913Y391512D01*
X46902Y391560D01*
X46863Y391623D01*
X46833Y391690D01*
X46786Y391746D01*
X46773Y391768D01*
X46760Y391778D01*
X46739Y391804D01*
X46013Y392530D01*
X45934Y392587D01*
X45859Y392649D01*
X45835Y392657D01*
X45815Y392672D01*
X45721Y392700D01*
X45630Y392735D01*
X45597Y392738D01*
X45581Y392743D01*
X45556Y392742D01*
X45483Y392749D01*
X6512Y392749D01*
X6488Y392745D01*
X6463Y392748D01*
X6368Y392725D01*
X6271Y392710D01*
X6250Y392698D01*
X6226Y392692D01*
X6142Y392641D01*
X6056Y392595D01*
X6039Y392577D01*
X6018Y392564D01*
X5956Y392488D01*
X5889Y392416D01*
X5879Y392394D01*
X5863Y392375D01*
X5829Y392284D01*
X5788Y392194D01*
X5786Y392170D01*
X5777Y392147D01*
X5763Y392000D01*
X5763Y362019D01*
X5775Y361946D01*
X5777Y361873D01*
X5794Y361827D01*
X5802Y361778D01*
X5837Y361713D01*
X5863Y361644D01*
X5894Y361606D01*
X5917Y361563D01*
X5971Y361512D01*
X6018Y361456D01*
X6059Y361430D01*
X6095Y361396D01*
X6162Y361365D01*
X6225Y361327D01*
X6273Y361315D01*
X6318Y361295D01*
X6391Y361288D01*
X6462Y361271D01*
X6511Y361276D01*
X6561Y361271D01*
X6632Y361288D01*
X6705Y361295D01*
X6750Y361315D01*
X6798Y361326D01*
X6861Y361365D01*
X6928Y361395D01*
X6984Y361442D01*
X7006Y361455D01*
X7016Y361468D01*
X7042Y361489D01*
X9813Y364260D01*
X13827Y365923D01*
X18173Y365923D01*
X22187Y364260D01*
X25260Y361187D01*
X26923Y357173D01*
X26923Y352827D01*
X25260Y348813D01*
X22187Y345740D01*
X18173Y344077D01*
X13827Y344077D01*
X9813Y345740D01*
X7042Y348511D01*
X6982Y348554D01*
X6928Y348604D01*
X6884Y348625D01*
X6843Y348653D01*
X6773Y348675D01*
X6706Y348705D01*
X6657Y348710D01*
X6610Y348724D01*
X6537Y348722D01*
X6463Y348729D01*
X6415Y348718D01*
X6366Y348716D01*
X6297Y348690D01*
X6226Y348674D01*
X6184Y348648D01*
X6138Y348630D01*
X6081Y348584D01*
X6018Y348545D01*
X5987Y348507D01*
X5949Y348476D01*
X5910Y348413D01*
X5863Y348357D01*
X5846Y348311D01*
X5820Y348269D01*
X5803Y348197D01*
X5777Y348128D01*
X5770Y348055D01*
X5764Y348031D01*
X5766Y348014D01*
X5763Y347981D01*
X5763Y336619D01*
X5775Y336546D01*
X5777Y336473D01*
X5794Y336427D01*
X5802Y336378D01*
X5837Y336313D01*
X5863Y336244D01*
X5894Y336206D01*
X5917Y336163D01*
X5971Y336112D01*
X6018Y336056D01*
X6059Y336030D01*
X6095Y335996D01*
X6162Y335965D01*
X6225Y335927D01*
X6273Y335915D01*
X6318Y335895D01*
X6391Y335888D01*
X6462Y335871D01*
X6511Y335876D01*
X6561Y335871D01*
X6632Y335888D01*
X6705Y335895D01*
X6750Y335915D01*
X6798Y335926D01*
X6861Y335965D01*
X6928Y335995D01*
X6984Y336042D01*
X7006Y336055D01*
X7016Y336068D01*
X7042Y336089D01*
X9813Y338860D01*
X13827Y340523D01*
X18173Y340523D01*
X22187Y338860D01*
X25260Y335787D01*
X26923Y331773D01*
X26923Y327427D01*
X25260Y323413D01*
X22187Y320340D01*
X18173Y318677D01*
X13827Y318677D01*
X9813Y320340D01*
X7042Y323111D01*
X6982Y323154D01*
X6928Y323204D01*
X6884Y323225D01*
X6843Y323253D01*
X6773Y323275D01*
X6706Y323305D01*
X6657Y323310D01*
X6610Y323324D01*
X6537Y323322D01*
X6463Y323329D01*
X6415Y323318D01*
X6366Y323316D01*
X6297Y323290D01*
X6226Y323274D01*
X6184Y323248D01*
X6138Y323230D01*
X6081Y323184D01*
X6018Y323145D01*
X5987Y323107D01*
X5949Y323076D01*
X5910Y323013D01*
X5863Y322957D01*
X5846Y322911D01*
X5820Y322869D01*
X5803Y322797D01*
X5777Y322728D01*
X5770Y322655D01*
X5764Y322631D01*
X5766Y322614D01*
X5763Y322581D01*
X5763Y311219D01*
X5775Y311146D01*
X5777Y311073D01*
X5794Y311027D01*
X5802Y310978D01*
X5837Y310913D01*
X5863Y310844D01*
X5894Y310806D01*
X5917Y310763D01*
X5971Y310712D01*
X6018Y310656D01*
X6059Y310630D01*
X6095Y310596D01*
X6162Y310565D01*
X6225Y310527D01*
X6273Y310515D01*
X6318Y310495D01*
X6391Y310488D01*
X6462Y310471D01*
X6511Y310476D01*
X6561Y310471D01*
X6632Y310488D01*
X6705Y310495D01*
X6750Y310515D01*
X6798Y310526D01*
X6861Y310565D01*
X6928Y310595D01*
X6984Y310642D01*
X7006Y310655D01*
X7016Y310668D01*
X7042Y310689D01*
X9813Y313460D01*
X13827Y315123D01*
X18173Y315123D01*
X22187Y313460D01*
X25260Y310387D01*
X26923Y306373D01*
X26923Y302027D01*
X25260Y298013D01*
X22187Y294940D01*
X18173Y293277D01*
X13827Y293277D01*
X9813Y294940D01*
X7042Y297711D01*
X6982Y297754D01*
X6928Y297804D01*
X6884Y297825D01*
X6843Y297853D01*
X6773Y297875D01*
X6706Y297905D01*
X6657Y297910D01*
X6610Y297924D01*
X6537Y297922D01*
X6463Y297929D01*
X6415Y297918D01*
X6366Y297916D01*
X6297Y297890D01*
X6226Y297874D01*
X6184Y297848D01*
X6138Y297830D01*
X6081Y297784D01*
X6018Y297745D01*
X5987Y297707D01*
X5949Y297676D01*
X5910Y297613D01*
X5863Y297557D01*
X5846Y297511D01*
X5820Y297469D01*
X5803Y297397D01*
X5777Y297328D01*
X5770Y297255D01*
X5764Y297231D01*
X5766Y297214D01*
X5763Y297181D01*
X5763Y285819D01*
X5775Y285746D01*
X5777Y285673D01*
X5794Y285627D01*
X5802Y285578D01*
X5837Y285513D01*
X5863Y285444D01*
X5894Y285406D01*
X5917Y285363D01*
X5971Y285312D01*
X6018Y285256D01*
X6059Y285230D01*
X6095Y285196D01*
X6162Y285165D01*
X6225Y285127D01*
X6273Y285115D01*
X6318Y285095D01*
X6391Y285088D01*
X6462Y285071D01*
X6511Y285076D01*
X6561Y285071D01*
X6632Y285088D01*
X6705Y285095D01*
X6750Y285115D01*
X6798Y285126D01*
X6861Y285165D01*
X6928Y285195D01*
X6984Y285242D01*
X7006Y285255D01*
X7016Y285268D01*
X7042Y285289D01*
X9813Y288060D01*
X13827Y289723D01*
X18173Y289723D01*
X22187Y288060D01*
X25260Y284987D01*
X26923Y280973D01*
X26923Y276627D01*
X25260Y272613D01*
X22187Y269540D01*
X18173Y267877D01*
X13827Y267877D01*
X9813Y269540D01*
X7042Y272311D01*
X6982Y272354D01*
X6928Y272404D01*
X6884Y272425D01*
X6843Y272453D01*
X6773Y272475D01*
X6706Y272505D01*
X6657Y272510D01*
X6610Y272524D01*
X6537Y272522D01*
X6463Y272529D01*
X6415Y272518D01*
X6366Y272516D01*
X6297Y272490D01*
X6226Y272474D01*
X6184Y272448D01*
X6138Y272430D01*
X6081Y272384D01*
X6018Y272345D01*
X5987Y272307D01*
X5949Y272276D01*
X5910Y272213D01*
X5863Y272157D01*
X5846Y272111D01*
X5820Y272069D01*
X5803Y271997D01*
X5777Y271928D01*
X5770Y271855D01*
X5764Y271831D01*
X5766Y271814D01*
X5763Y271781D01*
X5763Y260419D01*
X5775Y260346D01*
X5777Y260273D01*
X5794Y260227D01*
X5802Y260178D01*
X5837Y260113D01*
X5863Y260044D01*
X5894Y260006D01*
X5917Y259963D01*
X5971Y259912D01*
X6018Y259856D01*
X6059Y259830D01*
X6095Y259796D01*
X6162Y259765D01*
X6225Y259727D01*
X6273Y259715D01*
X6318Y259695D01*
X6391Y259688D01*
X6462Y259671D01*
X6511Y259676D01*
X6561Y259671D01*
X6632Y259688D01*
X6705Y259695D01*
X6750Y259715D01*
X6798Y259726D01*
X6861Y259765D01*
X6928Y259795D01*
X6984Y259842D01*
X7006Y259855D01*
X7016Y259868D01*
X7042Y259889D01*
X9813Y262660D01*
X13827Y264323D01*
X18173Y264323D01*
X22187Y262660D01*
X25260Y259587D01*
X26923Y255573D01*
X26923Y251227D01*
X25260Y247213D01*
X22187Y244140D01*
X18173Y242477D01*
X13827Y242477D01*
X9813Y244140D01*
X7042Y246911D01*
X6982Y246954D01*
X6928Y247004D01*
X6884Y247025D01*
X6843Y247053D01*
X6773Y247075D01*
X6706Y247105D01*
X6657Y247110D01*
X6610Y247124D01*
X6537Y247122D01*
X6463Y247129D01*
X6415Y247118D01*
X6366Y247116D01*
X6297Y247090D01*
X6226Y247074D01*
X6184Y247048D01*
X6138Y247030D01*
X6081Y246984D01*
X6018Y246945D01*
X5987Y246907D01*
X5949Y246876D01*
X5910Y246813D01*
X5863Y246757D01*
X5846Y246711D01*
X5820Y246669D01*
X5803Y246597D01*
X5777Y246528D01*
X5770Y246455D01*
X5764Y246431D01*
X5766Y246414D01*
X5763Y246381D01*
X5763Y235019D01*
X5775Y234946D01*
X5777Y234873D01*
X5794Y234827D01*
X5802Y234778D01*
X5837Y234713D01*
X5863Y234644D01*
X5894Y234606D01*
X5917Y234563D01*
X5971Y234512D01*
X6018Y234456D01*
X6059Y234430D01*
X6095Y234396D01*
X6162Y234365D01*
X6225Y234327D01*
X6273Y234315D01*
X6318Y234295D01*
X6391Y234288D01*
X6462Y234271D01*
X6511Y234276D01*
X6561Y234271D01*
X6632Y234288D01*
X6705Y234295D01*
X6750Y234315D01*
X6798Y234326D01*
X6861Y234365D01*
X6928Y234395D01*
X6984Y234442D01*
X7006Y234455D01*
X7016Y234468D01*
X7042Y234489D01*
X9813Y237260D01*
X13827Y238923D01*
X18173Y238923D01*
X22187Y237260D01*
X25260Y234187D01*
X26923Y230173D01*
X26923Y225827D01*
X25260Y221813D01*
X22187Y218740D01*
X18173Y217077D01*
X13827Y217077D01*
X9813Y218740D01*
X7042Y221511D01*
X6982Y221554D01*
X6928Y221604D01*
X6884Y221625D01*
X6843Y221653D01*
X6773Y221675D01*
X6706Y221705D01*
X6657Y221710D01*
X6610Y221724D01*
X6537Y221722D01*
X6463Y221729D01*
X6415Y221718D01*
X6366Y221716D01*
X6297Y221690D01*
X6226Y221674D01*
X6184Y221648D01*
X6138Y221630D01*
X6081Y221584D01*
X6018Y221545D01*
X5987Y221507D01*
X5949Y221476D01*
X5910Y221413D01*
X5863Y221357D01*
X5846Y221311D01*
X5820Y221269D01*
X5803Y221197D01*
X5777Y221128D01*
X5770Y221055D01*
X5764Y221031D01*
X5766Y221014D01*
X5763Y220981D01*
X5763Y209619D01*
X5775Y209546D01*
X5777Y209473D01*
X5794Y209427D01*
X5802Y209378D01*
X5837Y209313D01*
X5863Y209244D01*
X5894Y209206D01*
X5917Y209163D01*
X5971Y209112D01*
X6018Y209056D01*
X6059Y209030D01*
X6095Y208996D01*
X6162Y208965D01*
X6225Y208927D01*
X6273Y208915D01*
X6318Y208895D01*
X6391Y208888D01*
X6462Y208871D01*
X6511Y208876D01*
X6561Y208871D01*
X6632Y208888D01*
X6705Y208895D01*
X6750Y208915D01*
X6798Y208926D01*
X6861Y208965D01*
X6928Y208995D01*
X6984Y209042D01*
X7006Y209055D01*
X7016Y209068D01*
X7042Y209089D01*
X9813Y211860D01*
X13827Y213523D01*
X18173Y213523D01*
X22187Y211860D01*
X25260Y208787D01*
X26585Y205587D01*
X26640Y205499D01*
X26714Y205380D01*
X26806Y205305D01*
X26902Y205225D01*
X26903Y205225D01*
X27035Y205175D01*
X27131Y205139D01*
X27132Y205139D01*
X27278Y205125D01*
X30244Y205125D01*
X30340Y205141D01*
G37*
%LPC*%
G36*
X109368Y312975D02*
X109368Y312975D01*
X108475Y313868D01*
X108475Y341132D01*
X109368Y342025D01*
X146632Y342025D01*
X147525Y341132D01*
X147525Y331806D01*
X147529Y331782D01*
X147526Y331757D01*
X147548Y331662D01*
X147564Y331565D01*
X147576Y331544D01*
X147582Y331520D01*
X147633Y331436D01*
X147679Y331350D01*
X147697Y331333D01*
X147710Y331312D01*
X147786Y331250D01*
X147857Y331183D01*
X147880Y331173D01*
X147899Y331157D01*
X147990Y331123D01*
X148080Y331082D01*
X148104Y331080D01*
X148127Y331071D01*
X148274Y331057D01*
X159595Y331057D01*
X159691Y331073D01*
X159788Y331082D01*
X159811Y331092D01*
X159836Y331096D01*
X159922Y331142D01*
X160011Y331183D01*
X160036Y331204D01*
X160051Y331211D01*
X160068Y331230D01*
X160125Y331276D01*
X160905Y332057D01*
X165095Y332057D01*
X168057Y329095D01*
X168057Y324905D01*
X165095Y321943D01*
X160905Y321943D01*
X159125Y323724D01*
X159046Y323781D01*
X158970Y323843D01*
X158947Y323851D01*
X158927Y323866D01*
X158833Y323894D01*
X158742Y323929D01*
X158709Y323932D01*
X158693Y323937D01*
X158668Y323936D01*
X158595Y323943D01*
X148274Y323943D01*
X148250Y323939D01*
X148225Y323942D01*
X148130Y323920D01*
X148033Y323904D01*
X148012Y323892D01*
X147988Y323886D01*
X147904Y323835D01*
X147818Y323789D01*
X147801Y323771D01*
X147780Y323758D01*
X147718Y323682D01*
X147651Y323611D01*
X147641Y323588D01*
X147625Y323569D01*
X147591Y323478D01*
X147550Y323388D01*
X147548Y323364D01*
X147539Y323341D01*
X147525Y323194D01*
X147525Y313868D01*
X146632Y312975D01*
X109368Y312975D01*
G37*
%LPD*%
%LPC*%
G36*
X42905Y145943D02*
X42905Y145943D01*
X39943Y148905D01*
X39943Y153095D01*
X42905Y156057D01*
X43176Y156057D01*
X43272Y156073D01*
X43369Y156082D01*
X43392Y156092D01*
X43417Y156096D01*
X43503Y156142D01*
X43591Y156183D01*
X43617Y156204D01*
X43632Y156211D01*
X43649Y156230D01*
X43706Y156276D01*
X48732Y161302D01*
X48789Y161382D01*
X48851Y161457D01*
X48859Y161480D01*
X48874Y161501D01*
X48902Y161594D01*
X48937Y161685D01*
X48940Y161718D01*
X48945Y161734D01*
X48944Y161759D01*
X48951Y161832D01*
X48951Y167506D01*
X50650Y169204D01*
X72796Y191350D01*
X74494Y193049D01*
X93644Y193049D01*
X93740Y193065D01*
X93837Y193074D01*
X93860Y193084D01*
X93885Y193088D01*
X93971Y193134D01*
X94059Y193175D01*
X94085Y193196D01*
X94100Y193203D01*
X94117Y193222D01*
X94174Y193268D01*
X97256Y196350D01*
X97313Y196430D01*
X97375Y196505D01*
X97383Y196528D01*
X97398Y196549D01*
X97426Y196642D01*
X97461Y196733D01*
X97464Y196766D01*
X97469Y196782D01*
X97468Y196807D01*
X97475Y196880D01*
X97475Y200063D01*
X97459Y200159D01*
X97450Y200256D01*
X97440Y200279D01*
X97436Y200304D01*
X97390Y200390D01*
X97349Y200479D01*
X97328Y200504D01*
X97321Y200519D01*
X97302Y200536D01*
X97256Y200593D01*
X94943Y202905D01*
X94943Y207095D01*
X97905Y210057D01*
X102095Y210057D01*
X105057Y207095D01*
X105057Y202905D01*
X102744Y200593D01*
X102687Y200513D01*
X102625Y200438D01*
X102617Y200415D01*
X102602Y200395D01*
X102574Y200301D01*
X102539Y200210D01*
X102536Y200177D01*
X102531Y200161D01*
X102532Y200136D01*
X102525Y200063D01*
X102525Y194478D01*
X100826Y192780D01*
X98850Y190804D01*
X98808Y190744D01*
X98757Y190690D01*
X98737Y190646D01*
X98708Y190605D01*
X98687Y190535D01*
X98656Y190468D01*
X98652Y190419D01*
X98637Y190372D01*
X98640Y190299D01*
X98632Y190225D01*
X98644Y190177D01*
X98645Y190128D01*
X98671Y190059D01*
X98688Y189988D01*
X98714Y189946D01*
X98731Y189900D01*
X98778Y189843D01*
X98816Y189780D01*
X98854Y189749D01*
X98886Y189711D01*
X98948Y189672D01*
X99005Y189625D01*
X99051Y189608D01*
X99093Y189582D01*
X99164Y189565D01*
X99233Y189539D01*
X99306Y189532D01*
X99330Y189526D01*
X99347Y189528D01*
X99380Y189525D01*
X105644Y189525D01*
X105740Y189541D01*
X105837Y189550D01*
X105860Y189560D01*
X105885Y189564D01*
X105971Y189610D01*
X106059Y189651D01*
X106085Y189672D01*
X106100Y189679D01*
X106117Y189698D01*
X106174Y189744D01*
X110256Y193826D01*
X110313Y193906D01*
X110375Y193981D01*
X110383Y194004D01*
X110398Y194025D01*
X110426Y194118D01*
X110461Y194209D01*
X110464Y194242D01*
X110469Y194258D01*
X110468Y194283D01*
X110475Y194356D01*
X110475Y200063D01*
X110459Y200159D01*
X110450Y200256D01*
X110440Y200279D01*
X110436Y200304D01*
X110390Y200390D01*
X110349Y200479D01*
X110328Y200504D01*
X110321Y200519D01*
X110302Y200536D01*
X110256Y200593D01*
X107943Y202905D01*
X107943Y207095D01*
X110905Y210057D01*
X115095Y210057D01*
X118057Y207095D01*
X118057Y202905D01*
X115744Y200593D01*
X115687Y200514D01*
X115625Y200438D01*
X115617Y200415D01*
X115602Y200395D01*
X115574Y200301D01*
X115539Y200210D01*
X115536Y200177D01*
X115531Y200161D01*
X115532Y200136D01*
X115525Y200063D01*
X115525Y191954D01*
X108046Y184475D01*
X78356Y184475D01*
X78260Y184459D01*
X78163Y184450D01*
X78140Y184440D01*
X78115Y184436D01*
X78029Y184390D01*
X77941Y184349D01*
X77915Y184328D01*
X77900Y184321D01*
X77883Y184302D01*
X77826Y184256D01*
X57744Y164174D01*
X57687Y164094D01*
X57625Y164019D01*
X57617Y163996D01*
X57602Y163975D01*
X57574Y163882D01*
X57539Y163791D01*
X57536Y163758D01*
X57531Y163742D01*
X57532Y163717D01*
X57525Y163644D01*
X57525Y157937D01*
X57541Y157841D01*
X57550Y157744D01*
X57560Y157721D01*
X57564Y157696D01*
X57610Y157610D01*
X57651Y157521D01*
X57672Y157496D01*
X57679Y157481D01*
X57698Y157464D01*
X57744Y157407D01*
X60057Y155095D01*
X60057Y150905D01*
X57095Y147943D01*
X52905Y147943D01*
X51336Y149513D01*
X51276Y149556D01*
X51222Y149606D01*
X51178Y149626D01*
X51137Y149655D01*
X51067Y149676D01*
X51000Y149707D01*
X50951Y149712D01*
X50904Y149726D01*
X50831Y149724D01*
X50757Y149731D01*
X50709Y149720D01*
X50660Y149718D01*
X50591Y149692D01*
X50520Y149676D01*
X50478Y149650D01*
X50432Y149632D01*
X50375Y149586D01*
X50312Y149547D01*
X50281Y149509D01*
X50243Y149478D01*
X50204Y149415D01*
X50157Y149358D01*
X50140Y149312D01*
X50114Y149270D01*
X50097Y149199D01*
X50071Y149130D01*
X50064Y149057D01*
X50058Y149033D01*
X50060Y149016D01*
X50057Y148983D01*
X50057Y148905D01*
X47095Y145943D01*
X42905Y145943D01*
G37*
%LPD*%
%LPC*%
G36*
X166905Y120943D02*
X166905Y120943D01*
X165625Y122224D01*
X165546Y122281D01*
X165470Y122343D01*
X165447Y122351D01*
X165427Y122366D01*
X165333Y122394D01*
X165242Y122429D01*
X165209Y122432D01*
X165193Y122437D01*
X165168Y122436D01*
X165095Y122443D01*
X124527Y122443D01*
X113443Y133527D01*
X113443Y149095D01*
X113427Y149191D01*
X113418Y149288D01*
X113408Y149311D01*
X113404Y149336D01*
X113358Y149422D01*
X113317Y149511D01*
X113296Y149536D01*
X113289Y149551D01*
X113270Y149568D01*
X113224Y149625D01*
X111943Y150905D01*
X111943Y155095D01*
X114905Y158057D01*
X119095Y158057D01*
X122057Y155095D01*
X122057Y150905D01*
X120776Y149625D01*
X120719Y149545D01*
X120657Y149470D01*
X120649Y149447D01*
X120634Y149427D01*
X120606Y149333D01*
X120571Y149242D01*
X120568Y149209D01*
X120563Y149193D01*
X120564Y149168D01*
X120557Y149095D01*
X120557Y136784D01*
X120564Y136741D01*
X120563Y136731D01*
X120572Y136689D01*
X120573Y136687D01*
X120582Y136590D01*
X120592Y136568D01*
X120596Y136543D01*
X120614Y136510D01*
X120618Y136493D01*
X120648Y136445D01*
X120683Y136368D01*
X120704Y136342D01*
X120711Y136328D01*
X120730Y136311D01*
X120736Y136303D01*
X120747Y136286D01*
X120757Y136277D01*
X120776Y136254D01*
X127254Y129776D01*
X127333Y129719D01*
X127408Y129657D01*
X127432Y129649D01*
X127452Y129634D01*
X127545Y129606D01*
X127637Y129571D01*
X127670Y129568D01*
X127686Y129563D01*
X127711Y129564D01*
X127784Y129557D01*
X165095Y129557D01*
X165191Y129573D01*
X165288Y129582D01*
X165311Y129592D01*
X165336Y129596D01*
X165422Y129642D01*
X165511Y129683D01*
X165536Y129704D01*
X165551Y129711D01*
X165568Y129730D01*
X165625Y129776D01*
X166905Y131057D01*
X171095Y131057D01*
X174057Y128095D01*
X174057Y123905D01*
X171095Y120943D01*
X166905Y120943D01*
G37*
%LPD*%
%LPC*%
G36*
X129499Y18959D02*
X129499Y18959D01*
X129499Y33001D01*
X148541Y33001D01*
X148541Y21166D01*
X148453Y20840D01*
X148368Y20519D01*
X148033Y19940D01*
X147560Y19467D01*
X146981Y19132D01*
X146334Y18959D01*
X129499Y18959D01*
G37*
%LPD*%
%LPC*%
G36*
X109666Y18959D02*
X109666Y18959D01*
X109019Y19132D01*
X108440Y19467D01*
X107967Y19940D01*
X107632Y20519D01*
X107459Y21166D01*
X107459Y33001D01*
X126501Y33001D01*
X126501Y18959D01*
X109666Y18959D01*
G37*
%LPD*%
%LPC*%
G36*
X62287Y369713D02*
X62287Y369713D01*
X75347Y369713D01*
X75347Y359038D01*
X75270Y358752D01*
X75270Y358751D01*
X75174Y358391D01*
X74839Y357812D01*
X74366Y357339D01*
X73787Y357004D01*
X73140Y356831D01*
X62287Y356831D01*
X62287Y369713D01*
G37*
%LPD*%
%LPC*%
G36*
X48436Y356831D02*
X48436Y356831D01*
X47789Y357004D01*
X47210Y357339D01*
X46737Y357812D01*
X46402Y358391D01*
X46229Y359038D01*
X46229Y369713D01*
X59289Y369713D01*
X59289Y356831D01*
X48436Y356831D01*
G37*
%LPD*%
%LPC*%
G36*
X232150Y26299D02*
X232150Y26299D01*
X232355Y27596D01*
X232936Y29383D01*
X233789Y31057D01*
X234894Y32577D01*
X236223Y33906D01*
X237743Y35011D01*
X239417Y35864D01*
X241204Y36445D01*
X242501Y36650D01*
X242501Y26299D01*
X232150Y26299D01*
G37*
%LPD*%
%LPC*%
G36*
X241204Y13155D02*
X241204Y13155D01*
X239417Y13736D01*
X237743Y14589D01*
X236223Y15694D01*
X234894Y17023D01*
X233789Y18543D01*
X232936Y20217D01*
X232355Y22004D01*
X232150Y23301D01*
X242501Y23301D01*
X242501Y12950D01*
X241204Y13155D01*
G37*
%LPD*%
%LPC*%
G36*
X88299Y74299D02*
X88299Y74299D01*
X88299Y86786D01*
X89230Y86601D01*
X90746Y85973D01*
X92110Y85061D01*
X93271Y83900D01*
X94183Y82536D01*
X94811Y81020D01*
X95131Y79411D01*
X95131Y74299D01*
X88299Y74299D01*
G37*
%LPD*%
%LPC*%
G36*
X174699Y74299D02*
X174699Y74299D01*
X174699Y86786D01*
X175630Y86601D01*
X177146Y85973D01*
X178510Y85061D01*
X179671Y83900D01*
X180583Y82536D01*
X181211Y81020D01*
X181531Y79411D01*
X181531Y74299D01*
X174699Y74299D01*
G37*
%LPD*%
%LPC*%
G36*
X88299Y32499D02*
X88299Y32499D01*
X88299Y44986D01*
X89230Y44801D01*
X90746Y44173D01*
X92110Y43261D01*
X93271Y42100D01*
X94183Y40736D01*
X94811Y39220D01*
X95131Y37611D01*
X95131Y32499D01*
X88299Y32499D01*
G37*
%LPD*%
%LPC*%
G36*
X174699Y32499D02*
X174699Y32499D01*
X174699Y44986D01*
X175630Y44801D01*
X177146Y44173D01*
X178510Y43261D01*
X179671Y42100D01*
X180583Y40736D01*
X181211Y39220D01*
X181531Y37611D01*
X181531Y32499D01*
X174699Y32499D01*
G37*
%LPD*%
%LPC*%
G36*
X174699Y29501D02*
X174699Y29501D01*
X181531Y29501D01*
X181531Y24389D01*
X181211Y22780D01*
X180583Y21264D01*
X180448Y21062D01*
X179947Y20313D01*
X179671Y19900D01*
X178510Y18739D01*
X177146Y17827D01*
X175630Y17199D01*
X174699Y17014D01*
X174699Y29501D01*
G37*
%LPD*%
%LPC*%
G36*
X88299Y29501D02*
X88299Y29501D01*
X95131Y29501D01*
X95131Y24389D01*
X94811Y22780D01*
X94183Y21264D01*
X94048Y21062D01*
X93547Y20313D01*
X93271Y19900D01*
X92110Y18739D01*
X90746Y17827D01*
X89230Y17199D01*
X88299Y17014D01*
X88299Y29501D01*
G37*
%LPD*%
%LPC*%
G36*
X174699Y71301D02*
X174699Y71301D01*
X181531Y71301D01*
X181531Y66189D01*
X181211Y64580D01*
X180583Y63064D01*
X180553Y63020D01*
X180053Y62271D01*
X179671Y61700D01*
X178510Y60539D01*
X177146Y59627D01*
X175630Y58999D01*
X174699Y58814D01*
X174699Y71301D01*
G37*
%LPD*%
%LPC*%
G36*
X164869Y74299D02*
X164869Y74299D01*
X164869Y79411D01*
X165189Y81020D01*
X165817Y82536D01*
X166238Y83166D01*
X166729Y83900D01*
X167890Y85061D01*
X169254Y85973D01*
X170770Y86601D01*
X171701Y86786D01*
X171701Y74299D01*
X164869Y74299D01*
G37*
%LPD*%
%LPC*%
G36*
X78469Y74299D02*
X78469Y74299D01*
X78469Y79411D01*
X78789Y81020D01*
X79417Y82536D01*
X79838Y83166D01*
X80329Y83900D01*
X81490Y85061D01*
X82854Y85973D01*
X84370Y86601D01*
X85301Y86786D01*
X85301Y74299D01*
X78469Y74299D01*
G37*
%LPD*%
%LPC*%
G36*
X164869Y32499D02*
X164869Y32499D01*
X164869Y37611D01*
X165189Y39220D01*
X165817Y40736D01*
X166729Y42100D01*
X167890Y43261D01*
X169254Y44173D01*
X170770Y44801D01*
X171701Y44986D01*
X171701Y32499D01*
X164869Y32499D01*
G37*
%LPD*%
%LPC*%
G36*
X170770Y17199D02*
X170770Y17199D01*
X169254Y17827D01*
X167890Y18739D01*
X166729Y19900D01*
X165817Y21264D01*
X165189Y22780D01*
X164869Y24389D01*
X164869Y29501D01*
X171701Y29501D01*
X171701Y17014D01*
X170770Y17199D01*
G37*
%LPD*%
%LPC*%
G36*
X223499Y304999D02*
X223499Y304999D01*
X223499Y311541D01*
X227334Y311541D01*
X227981Y311368D01*
X228560Y311033D01*
X229033Y310560D01*
X229368Y309981D01*
X229541Y309334D01*
X229541Y304999D01*
X223499Y304999D01*
G37*
%LPD*%
%LPC*%
G36*
X223499Y216999D02*
X223499Y216999D01*
X223499Y223541D01*
X227334Y223541D01*
X227981Y223368D01*
X228560Y223033D01*
X229033Y222560D01*
X229368Y221981D01*
X229541Y221334D01*
X229541Y216999D01*
X223499Y216999D01*
G37*
%LPD*%
%LPC*%
G36*
X223499Y302001D02*
X223499Y302001D01*
X229541Y302001D01*
X229541Y297666D01*
X229368Y297019D01*
X229033Y296440D01*
X228560Y295967D01*
X227981Y295632D01*
X227334Y295459D01*
X223499Y295459D01*
X223499Y302001D01*
G37*
%LPD*%
%LPC*%
G36*
X223499Y214001D02*
X223499Y214001D01*
X229541Y214001D01*
X229541Y209666D01*
X229368Y209019D01*
X229033Y208440D01*
X228560Y207967D01*
X227981Y207632D01*
X227334Y207459D01*
X223499Y207459D01*
X223499Y214001D01*
G37*
%LPD*%
%LPC*%
G36*
X55459Y40499D02*
X55459Y40499D01*
X55459Y44334D01*
X55484Y44427D01*
X55632Y44981D01*
X55967Y45560D01*
X56440Y46033D01*
X57019Y46368D01*
X57666Y46541D01*
X62001Y46541D01*
X62001Y40499D01*
X55459Y40499D01*
G37*
%LPD*%
%LPC*%
G36*
X214459Y304999D02*
X214459Y304999D01*
X214459Y309334D01*
X214632Y309981D01*
X214967Y310560D01*
X215440Y311033D01*
X216019Y311368D01*
X216666Y311541D01*
X220501Y311541D01*
X220501Y304999D01*
X214459Y304999D01*
G37*
%LPD*%
%LPC*%
G36*
X214459Y216999D02*
X214459Y216999D01*
X214459Y221334D01*
X214632Y221981D01*
X214967Y222560D01*
X215440Y223033D01*
X216019Y223368D01*
X216666Y223541D01*
X220501Y223541D01*
X220501Y216999D01*
X214459Y216999D01*
G37*
%LPD*%
%LPC*%
G36*
X57666Y31459D02*
X57666Y31459D01*
X57019Y31632D01*
X56440Y31967D01*
X55967Y32440D01*
X55632Y33019D01*
X55459Y33666D01*
X55459Y37501D01*
X62001Y37501D01*
X62001Y31459D01*
X57666Y31459D01*
G37*
%LPD*%
%LPC*%
G36*
X216666Y295459D02*
X216666Y295459D01*
X216019Y295632D01*
X215440Y295967D01*
X214967Y296440D01*
X214632Y297019D01*
X214459Y297666D01*
X214459Y302001D01*
X220501Y302001D01*
X220501Y295459D01*
X216666Y295459D01*
G37*
%LPD*%
%LPC*%
G36*
X216666Y207459D02*
X216666Y207459D01*
X216019Y207632D01*
X215440Y207967D01*
X214967Y208440D01*
X214632Y209019D01*
X214459Y209666D01*
X214459Y214001D01*
X220501Y214001D01*
X220501Y207459D01*
X216666Y207459D01*
G37*
%LPD*%
%LPC*%
G36*
X173199Y72799D02*
X173199Y72799D01*
X173199Y72801D01*
X173201Y72801D01*
X173201Y72799D01*
X173199Y72799D01*
G37*
%LPD*%
%LPC*%
G36*
X173199Y30999D02*
X173199Y30999D01*
X173199Y31001D01*
X173201Y31001D01*
X173201Y30999D01*
X173199Y30999D01*
G37*
%LPD*%
%LPC*%
G36*
X221999Y303499D02*
X221999Y303499D01*
X221999Y303501D01*
X222001Y303501D01*
X222001Y303499D01*
X221999Y303499D01*
G37*
%LPD*%
%LPC*%
G36*
X221999Y215499D02*
X221999Y215499D01*
X221999Y215501D01*
X222001Y215501D01*
X222001Y215499D01*
X221999Y215499D01*
G37*
%LPD*%
D10*
X60788Y308788D03*
X60788Y371212D03*
D11*
X86800Y78590D02*
X86800Y67010D01*
X173200Y67010D02*
X173200Y78590D01*
X86800Y36790D02*
X86800Y25210D01*
X173200Y25210D02*
X173200Y36790D01*
D12*
X128000Y327500D03*
X128000Y34500D03*
D13*
X16000Y355000D03*
X16000Y329600D03*
X16000Y304200D03*
X16000Y278800D03*
X16000Y253400D03*
X16000Y228000D03*
X16000Y202600D03*
X16000Y177200D03*
X16000Y151800D03*
X16000Y126400D03*
X16000Y101000D03*
X16000Y75600D03*
X16000Y50200D03*
X16000Y24800D03*
X244000Y355000D03*
X244000Y329600D03*
X244000Y304200D03*
X244000Y278800D03*
X244000Y253400D03*
X244000Y228000D03*
X244000Y202600D03*
X244000Y177200D03*
X244000Y151800D03*
X244000Y126400D03*
X244000Y101000D03*
X244000Y75600D03*
X244000Y50200D03*
X244000Y24800D03*
D14*
X222000Y255320D03*
X222000Y246680D03*
D15*
X222000Y232500D03*
X222000Y215500D03*
D16*
X53320Y53000D03*
X44680Y53000D03*
D17*
X46500Y39000D03*
X63500Y39000D03*
D14*
X222000Y343320D03*
X222000Y334680D03*
D15*
X222000Y320500D03*
X222000Y303500D03*
D18*
X84000Y282000D03*
X144000Y282000D03*
X114000Y282000D03*
X84000Y252000D03*
X84000Y222000D03*
X114000Y252000D03*
X114000Y222000D03*
X144000Y252000D03*
X144000Y222000D03*
X84000Y362000D03*
X114000Y362000D03*
X144000Y362000D03*
X174000Y362000D03*
X204000Y362000D03*
X213000Y182000D03*
X213000Y152000D03*
X84000Y152000D03*
X44000Y192000D03*
X24000Y372000D03*
X61000Y340000D03*
X195000Y282000D03*
X174000Y222000D03*
X174000Y252000D03*
X174000Y282000D03*
X189000Y99000D03*
D19*
X225000Y69200D02*
X244000Y50200D01*
X225000Y69200D02*
X225000Y91000D01*
X217000Y99000D01*
X189000Y99000D01*
D18*
X54000Y67000D03*
D20*
X53320Y66320D02*
X53320Y53000D01*
X53320Y66320D02*
X54000Y67000D01*
D18*
X164000Y213000D03*
D20*
X164000Y233000D01*
X186320Y255320D02*
X222000Y255320D01*
X186320Y255320D02*
X164000Y233000D01*
D19*
X61000Y309000D02*
X60788Y308788D01*
X61000Y309000D02*
X85000Y309000D01*
D18*
X85000Y309000D03*
D21*
X163680Y343320D02*
X222000Y343320D01*
X163680Y343320D02*
X156000Y351000D01*
X91000Y351000D01*
X85000Y345000D02*
X85000Y309000D01*
X85000Y345000D02*
X91000Y351000D01*
D18*
X163000Y327000D03*
D19*
X162500Y327500D02*
X128000Y327500D01*
X162500Y327500D02*
X163000Y327000D01*
D18*
X164000Y97000D03*
D22*
X158000Y97000D01*
X150000Y89000D01*
X150000Y60000D01*
X145000Y55000D01*
X75064Y49064D02*
X75064Y19064D01*
X68000Y12000D01*
X28800Y12000D02*
X16000Y24800D01*
X81000Y55000D02*
X145000Y55000D01*
X81000Y55000D02*
X75064Y49064D01*
X68000Y12000D02*
X28800Y12000D01*
D18*
X151000Y112000D03*
D20*
X159000Y112000D01*
X164000Y107000D01*
X164000Y97000D01*
D18*
X128000Y69000D03*
X141000Y69000D03*
D21*
X128000Y69000D01*
D18*
X43000Y72000D03*
D21*
X122000Y75000D02*
X128000Y69000D01*
X122000Y75000D02*
X122000Y87000D01*
X118000Y91000D01*
X48000Y91000D02*
X43000Y86000D01*
X43000Y72000D01*
X48000Y91000D02*
X118000Y91000D01*
D18*
X49000Y98000D03*
D21*
X52476Y94524D01*
X141000Y99000D02*
X141000Y110000D01*
X136524Y94524D02*
X52476Y94524D01*
X136524Y94524D02*
X141000Y99000D01*
D18*
X141000Y110000D03*
X117000Y153000D03*
X169000Y126000D03*
D19*
X126000Y126000D01*
X117000Y135000D01*
X117000Y153000D01*
D18*
X65000Y290000D03*
D21*
X46524Y290000D01*
X43524Y287000D01*
X43524Y209540D01*
X30000Y196016D01*
X30000Y56000D02*
X33000Y53000D01*
X44680Y53000D01*
X30000Y56000D02*
X30000Y196016D01*
X44680Y40820D02*
X46500Y39000D01*
X44680Y40820D02*
X44680Y53000D01*
D18*
X45000Y27000D03*
D21*
X45000Y37500D01*
X46500Y39000D01*
X31600Y202600D02*
X16000Y202600D01*
X40000Y211000D02*
X40000Y384000D01*
X44000Y388000D01*
X226000Y388000D02*
X233000Y381000D01*
X40000Y211000D02*
X31600Y202600D01*
X44000Y388000D02*
X226000Y388000D01*
D18*
X233000Y375000D03*
D21*
X233000Y381000D01*
X222000Y334680D02*
X222000Y329000D01*
X222000Y320500D01*
X222000Y329000D02*
X243400Y329000D01*
X244000Y329600D01*
X222000Y241000D02*
X222000Y232500D01*
X222000Y241000D02*
X222000Y246680D01*
X222000Y241000D02*
X238000Y241000D01*
X244000Y235000D01*
X244000Y228000D01*
D18*
X45000Y151000D03*
X100000Y205000D03*
D21*
X45000Y154000D02*
X45000Y151000D01*
X45000Y154000D02*
X51476Y160476D01*
X51476Y166460D02*
X75540Y190524D01*
X95000Y190524D02*
X100000Y195524D01*
X100000Y205000D01*
X51476Y166460D02*
X51476Y160476D01*
X75540Y190524D02*
X95000Y190524D01*
D18*
X55000Y153000D03*
X113000Y205000D03*
D21*
X55000Y165000D02*
X55000Y153000D01*
X77000Y187000D02*
X107000Y187000D01*
X113000Y193000D01*
X113000Y205000D01*
X77000Y187000D02*
X55000Y165000D01*
D18*
X125000Y205000D03*
D21*
X136524Y193476D01*
X174557Y193476D02*
X182952Y185081D01*
X174557Y193476D02*
X136524Y193476D01*
X182952Y185081D02*
X182952Y132081D01*
X196081Y118952D01*
X216000Y118952D02*
X232000Y102952D01*
X232000Y86000D01*
X242400Y75600D01*
X244000Y75600D01*
X216000Y118952D02*
X196081Y118952D01*
D18*
X138000Y205000D03*
D21*
X138000Y200000D01*
X141000Y197000D02*
X176016Y197000D01*
X141000Y197000D02*
X138000Y200000D01*
X176016Y197000D02*
X186476Y186540D01*
X186476Y133540D01*
X197540Y122476D01*
X239000Y101000D02*
X244000Y101000D01*
X239000Y101000D02*
X217524Y122476D01*
X197540Y122476D01*
D18*
X151000Y205000D03*
D21*
X155000Y201000D01*
X177000Y201000D01*
X190000Y188000D01*
X190000Y136000D02*
X200000Y126000D01*
X243600Y126000D01*
X244000Y126400D01*
X190000Y136000D02*
X190000Y188000D01*
M02*
