G04 EAGLE Gerber RS-274X export*
G75*
%MOMM*%
%FSLAX34Y34*%
%LPD*%
%IN*%
%IPPOS*%
%AMOC8*
5,1,8,0,0,1.08239X$1,22.5*%
G01*
%ADD10C,0.254000*%


D10*
X3000Y13350D02*
X3048Y12243D01*
X3193Y11145D01*
X3433Y10063D01*
X3766Y9006D01*
X4190Y7983D01*
X4701Y7000D01*
X5297Y6066D01*
X5971Y5187D01*
X6720Y4370D01*
X7537Y3621D01*
X8416Y2947D01*
X9350Y2351D01*
X10333Y1840D01*
X11356Y1416D01*
X12413Y1083D01*
X13495Y843D01*
X14593Y698D01*
X15700Y650D01*
X244300Y650D01*
X245407Y698D01*
X246505Y843D01*
X247587Y1083D01*
X248644Y1416D01*
X249667Y1840D01*
X250650Y2351D01*
X251584Y2947D01*
X252463Y3621D01*
X253280Y4370D01*
X254029Y5187D01*
X254703Y6066D01*
X255299Y7000D01*
X255810Y7983D01*
X256234Y9006D01*
X256567Y10063D01*
X256807Y11145D01*
X256952Y12243D01*
X257000Y13350D01*
X257000Y438800D01*
X256952Y439907D01*
X256807Y441005D01*
X256567Y442087D01*
X256234Y443144D01*
X255810Y444167D01*
X255299Y445150D01*
X254703Y446084D01*
X254029Y446963D01*
X253280Y447780D01*
X252463Y448529D01*
X251584Y449203D01*
X250650Y449799D01*
X249667Y450310D01*
X248644Y450734D01*
X247587Y451067D01*
X246505Y451307D01*
X245407Y451452D01*
X244300Y451500D01*
X209200Y451500D01*
X209200Y394000D01*
X48450Y394000D01*
X48450Y451500D01*
X15700Y451500D01*
X14593Y451452D01*
X13495Y451307D01*
X12413Y451067D01*
X11356Y450734D01*
X10333Y450310D01*
X9350Y449799D01*
X8416Y449203D01*
X7537Y448529D01*
X6720Y447780D01*
X5971Y446963D01*
X5297Y446084D01*
X4701Y445150D01*
X4190Y444167D01*
X3766Y443144D01*
X3433Y442087D01*
X3193Y441005D01*
X3048Y439907D01*
X3000Y438800D01*
X3000Y13350D01*
X169950Y28000D02*
X169962Y27717D01*
X169999Y27436D01*
X170061Y27159D01*
X170146Y26888D01*
X170255Y26627D01*
X170385Y26375D01*
X170538Y26136D01*
X170710Y25911D01*
X170902Y25702D01*
X171111Y25510D01*
X171336Y25338D01*
X171575Y25185D01*
X171827Y25055D01*
X172088Y24946D01*
X172359Y24861D01*
X172636Y24799D01*
X172917Y24762D01*
X173200Y24750D01*
X173483Y24762D01*
X173764Y24799D01*
X174041Y24861D01*
X174312Y24946D01*
X174574Y25055D01*
X174825Y25185D01*
X175064Y25338D01*
X175289Y25510D01*
X175498Y25702D01*
X175690Y25911D01*
X175862Y26136D01*
X176015Y26375D01*
X176146Y26627D01*
X176254Y26888D01*
X176339Y27159D01*
X176401Y27436D01*
X176438Y27717D01*
X176450Y28000D01*
X176450Y34000D01*
X176438Y34283D01*
X176401Y34564D01*
X176339Y34841D01*
X176254Y35112D01*
X176146Y35374D01*
X176015Y35625D01*
X175862Y35864D01*
X175690Y36089D01*
X175498Y36298D01*
X175289Y36490D01*
X175064Y36662D01*
X174825Y36815D01*
X174574Y36946D01*
X174312Y37054D01*
X174041Y37139D01*
X173764Y37201D01*
X173483Y37238D01*
X173200Y37250D01*
X172917Y37238D01*
X172636Y37201D01*
X172359Y37139D01*
X172088Y37054D01*
X171827Y36946D01*
X171575Y36815D01*
X171336Y36662D01*
X171111Y36490D01*
X170902Y36298D01*
X170710Y36089D01*
X170538Y35864D01*
X170385Y35625D01*
X170255Y35374D01*
X170146Y35112D01*
X170061Y34841D01*
X169999Y34564D01*
X169962Y34283D01*
X169950Y34000D01*
X169950Y28000D01*
X83550Y28000D02*
X83562Y27717D01*
X83599Y27436D01*
X83661Y27159D01*
X83746Y26888D01*
X83855Y26627D01*
X83985Y26375D01*
X84138Y26136D01*
X84310Y25911D01*
X84502Y25702D01*
X84711Y25510D01*
X84936Y25338D01*
X85175Y25185D01*
X85427Y25055D01*
X85688Y24946D01*
X85959Y24861D01*
X86236Y24799D01*
X86517Y24762D01*
X86800Y24750D01*
X87083Y24762D01*
X87364Y24799D01*
X87641Y24861D01*
X87912Y24946D01*
X88174Y25055D01*
X88425Y25185D01*
X88664Y25338D01*
X88889Y25510D01*
X89098Y25702D01*
X89290Y25911D01*
X89462Y26136D01*
X89615Y26375D01*
X89746Y26627D01*
X89854Y26888D01*
X89939Y27159D01*
X90001Y27436D01*
X90038Y27717D01*
X90050Y28000D01*
X90050Y34000D01*
X90038Y34283D01*
X90001Y34564D01*
X89939Y34841D01*
X89854Y35112D01*
X89746Y35374D01*
X89615Y35625D01*
X89462Y35864D01*
X89290Y36089D01*
X89098Y36298D01*
X88889Y36490D01*
X88664Y36662D01*
X88425Y36815D01*
X88174Y36946D01*
X87912Y37054D01*
X87641Y37139D01*
X87364Y37201D01*
X87083Y37238D01*
X86800Y37250D01*
X86517Y37238D01*
X86236Y37201D01*
X85959Y37139D01*
X85688Y37054D01*
X85427Y36946D01*
X85175Y36815D01*
X84936Y36662D01*
X84711Y36490D01*
X84502Y36298D01*
X84310Y36089D01*
X84138Y35864D01*
X83985Y35625D01*
X83855Y35374D01*
X83746Y35112D01*
X83661Y34841D01*
X83599Y34564D01*
X83562Y34283D01*
X83550Y34000D01*
X83550Y28000D01*
X169950Y67300D02*
X169962Y67017D01*
X169999Y66736D01*
X170061Y66459D01*
X170146Y66188D01*
X170255Y65927D01*
X170385Y65675D01*
X170538Y65436D01*
X170710Y65211D01*
X170902Y65002D01*
X171111Y64810D01*
X171336Y64638D01*
X171575Y64485D01*
X171827Y64355D01*
X172088Y64246D01*
X172359Y64161D01*
X172636Y64099D01*
X172917Y64062D01*
X173200Y64050D01*
X173483Y64062D01*
X173764Y64099D01*
X174041Y64161D01*
X174312Y64246D01*
X174574Y64355D01*
X174825Y64485D01*
X175064Y64638D01*
X175289Y64810D01*
X175498Y65002D01*
X175690Y65211D01*
X175862Y65436D01*
X176015Y65675D01*
X176146Y65927D01*
X176254Y66188D01*
X176339Y66459D01*
X176401Y66736D01*
X176438Y67017D01*
X176450Y67300D01*
X176450Y78300D01*
X176438Y78583D01*
X176401Y78864D01*
X176339Y79141D01*
X176254Y79412D01*
X176146Y79674D01*
X176015Y79925D01*
X175862Y80164D01*
X175690Y80389D01*
X175498Y80598D01*
X175289Y80790D01*
X175064Y80962D01*
X174825Y81115D01*
X174574Y81246D01*
X174312Y81354D01*
X174041Y81439D01*
X173764Y81501D01*
X173483Y81538D01*
X173200Y81550D01*
X172917Y81538D01*
X172636Y81501D01*
X172359Y81439D01*
X172088Y81354D01*
X171827Y81246D01*
X171575Y81115D01*
X171336Y80962D01*
X171111Y80790D01*
X170902Y80598D01*
X170710Y80389D01*
X170538Y80164D01*
X170385Y79925D01*
X170255Y79674D01*
X170146Y79412D01*
X170061Y79141D01*
X169999Y78864D01*
X169962Y78583D01*
X169950Y78300D01*
X169950Y67300D01*
X83550Y67300D02*
X83562Y67017D01*
X83599Y66736D01*
X83661Y66459D01*
X83746Y66188D01*
X83855Y65927D01*
X83985Y65675D01*
X84138Y65436D01*
X84310Y65211D01*
X84502Y65002D01*
X84711Y64810D01*
X84936Y64638D01*
X85175Y64485D01*
X85427Y64355D01*
X85688Y64246D01*
X85959Y64161D01*
X86236Y64099D01*
X86517Y64062D01*
X86800Y64050D01*
X87083Y64062D01*
X87364Y64099D01*
X87641Y64161D01*
X87912Y64246D01*
X88174Y64355D01*
X88425Y64485D01*
X88664Y64638D01*
X88889Y64810D01*
X89098Y65002D01*
X89290Y65211D01*
X89462Y65436D01*
X89615Y65675D01*
X89746Y65927D01*
X89854Y66188D01*
X89939Y66459D01*
X90001Y66736D01*
X90038Y67017D01*
X90050Y67300D01*
X90050Y78300D01*
X90038Y78583D01*
X90001Y78864D01*
X89939Y79141D01*
X89854Y79412D01*
X89746Y79674D01*
X89615Y79925D01*
X89462Y80164D01*
X89290Y80389D01*
X89098Y80598D01*
X88889Y80790D01*
X88664Y80962D01*
X88425Y81115D01*
X88174Y81246D01*
X87912Y81354D01*
X87641Y81439D01*
X87364Y81501D01*
X87083Y81538D01*
X86800Y81550D01*
X86517Y81538D01*
X86236Y81501D01*
X85959Y81439D01*
X85688Y81354D01*
X85427Y81246D01*
X85175Y81115D01*
X84936Y80962D01*
X84711Y80790D01*
X84502Y80598D01*
X84310Y80389D01*
X84138Y80164D01*
X83985Y79925D01*
X83855Y79674D01*
X83746Y79412D01*
X83661Y79141D01*
X83599Y78864D01*
X83562Y78583D01*
X83550Y78300D01*
X83550Y67300D01*
X104600Y67271D02*
X104540Y66816D01*
X104421Y66373D01*
X104246Y65949D01*
X104016Y65551D01*
X103737Y65187D01*
X103413Y64863D01*
X103049Y64584D01*
X102651Y64354D01*
X102227Y64179D01*
X101784Y64060D01*
X101329Y64000D01*
X100871Y64000D01*
X100416Y64060D01*
X99973Y64179D01*
X99549Y64354D01*
X99151Y64584D01*
X98787Y64863D01*
X98463Y65187D01*
X98184Y65551D01*
X97954Y65949D01*
X97779Y66373D01*
X97660Y66816D01*
X97600Y67271D01*
X97600Y67729D01*
X97660Y68184D01*
X97779Y68627D01*
X97954Y69051D01*
X98184Y69449D01*
X98463Y69813D01*
X98787Y70137D01*
X99151Y70416D01*
X99549Y70646D01*
X99973Y70821D01*
X100416Y70940D01*
X100871Y71000D01*
X101329Y71000D01*
X101784Y70940D01*
X102227Y70821D01*
X102651Y70646D01*
X103049Y70416D01*
X103413Y70137D01*
X103737Y69813D01*
X104016Y69449D01*
X104246Y69051D01*
X104421Y68627D01*
X104540Y68184D01*
X104600Y67729D01*
X104600Y67271D01*
X162400Y67271D02*
X162340Y66816D01*
X162221Y66373D01*
X162046Y65949D01*
X161816Y65551D01*
X161537Y65187D01*
X161213Y64863D01*
X160849Y64584D01*
X160451Y64354D01*
X160027Y64179D01*
X159584Y64060D01*
X159129Y64000D01*
X158671Y64000D01*
X158216Y64060D01*
X157773Y64179D01*
X157349Y64354D01*
X156951Y64584D01*
X156587Y64863D01*
X156263Y65187D01*
X155984Y65551D01*
X155754Y65949D01*
X155579Y66373D01*
X155460Y66816D01*
X155400Y67271D01*
X155400Y67729D01*
X155460Y68184D01*
X155579Y68627D01*
X155754Y69051D01*
X155984Y69449D01*
X156263Y69813D01*
X156587Y70137D01*
X156951Y70416D01*
X157349Y70646D01*
X157773Y70821D01*
X158216Y70940D01*
X158671Y71000D01*
X159129Y71000D01*
X159584Y70940D01*
X160027Y70821D01*
X160451Y70646D01*
X160849Y70416D01*
X161213Y70137D01*
X161537Y69813D01*
X161816Y69449D01*
X162046Y69051D01*
X162221Y68627D01*
X162340Y68184D01*
X162400Y67729D01*
X162400Y67271D01*
M02*
