G04 EAGLE Gerber RS-274X export*
G75*
%MOMM*%
%FSLAX34Y34*%
%LPD*%
%INSilkscreen Top*%
%IPPOS*%
%AMOC8*
5,1,8,0,0,1.08239X$1,22.5*%
G01*
%ADD10C,0.101600*%
%ADD11C,0.127000*%
%ADD12C,0.203200*%
%ADD13C,0.254000*%
%ADD14C,0.152400*%
%ADD15C,0.200000*%
%ADD16C,0.076200*%
%ADD17R,1.100000X0.600000*%
%ADD18C,0.400000*%


D10*
X63808Y212403D02*
X72896Y212403D01*
X72896Y212402D02*
X72995Y212400D01*
X73095Y212394D01*
X73194Y212385D01*
X73292Y212372D01*
X73390Y212355D01*
X73488Y212334D01*
X73584Y212309D01*
X73679Y212281D01*
X73773Y212249D01*
X73866Y212214D01*
X73958Y212175D01*
X74048Y212132D01*
X74136Y212087D01*
X74223Y212037D01*
X74307Y211985D01*
X74390Y211929D01*
X74470Y211871D01*
X74548Y211809D01*
X74623Y211744D01*
X74696Y211676D01*
X74766Y211606D01*
X74834Y211533D01*
X74899Y211458D01*
X74961Y211380D01*
X75019Y211300D01*
X75075Y211217D01*
X75127Y211133D01*
X75177Y211046D01*
X75222Y210958D01*
X75265Y210868D01*
X75304Y210776D01*
X75339Y210683D01*
X75371Y210589D01*
X75399Y210494D01*
X75424Y210398D01*
X75445Y210300D01*
X75462Y210202D01*
X75475Y210104D01*
X75484Y210005D01*
X75490Y209905D01*
X75492Y209806D01*
X75492Y208508D01*
X75492Y218080D02*
X63808Y218080D01*
X75492Y218080D02*
X75492Y223273D01*
X75492Y230145D02*
X75492Y232742D01*
X75492Y230145D02*
X75490Y230046D01*
X75484Y229946D01*
X75475Y229847D01*
X75462Y229749D01*
X75445Y229651D01*
X75424Y229553D01*
X75399Y229457D01*
X75371Y229362D01*
X75339Y229268D01*
X75304Y229175D01*
X75265Y229083D01*
X75222Y228993D01*
X75177Y228905D01*
X75127Y228818D01*
X75075Y228734D01*
X75019Y228651D01*
X74961Y228571D01*
X74899Y228493D01*
X74834Y228418D01*
X74766Y228345D01*
X74696Y228275D01*
X74623Y228207D01*
X74548Y228142D01*
X74470Y228080D01*
X74390Y228022D01*
X74307Y227966D01*
X74223Y227914D01*
X74136Y227864D01*
X74048Y227819D01*
X73958Y227776D01*
X73866Y227737D01*
X73773Y227702D01*
X73679Y227670D01*
X73584Y227642D01*
X73488Y227617D01*
X73390Y227596D01*
X73292Y227579D01*
X73194Y227566D01*
X73095Y227557D01*
X72995Y227551D01*
X72896Y227549D01*
X66404Y227549D01*
X66404Y227548D02*
X66305Y227550D01*
X66205Y227556D01*
X66106Y227565D01*
X66008Y227578D01*
X65910Y227596D01*
X65812Y227616D01*
X65716Y227641D01*
X65620Y227669D01*
X65526Y227701D01*
X65433Y227736D01*
X65342Y227775D01*
X65252Y227818D01*
X65163Y227863D01*
X65077Y227913D01*
X64992Y227965D01*
X64910Y228021D01*
X64830Y228080D01*
X64752Y228141D01*
X64676Y228206D01*
X64603Y228274D01*
X64533Y228344D01*
X64465Y228417D01*
X64400Y228493D01*
X64339Y228571D01*
X64280Y228651D01*
X64224Y228733D01*
X64172Y228818D01*
X64123Y228904D01*
X64077Y228993D01*
X64034Y229083D01*
X63995Y229174D01*
X63960Y229267D01*
X63928Y229361D01*
X63900Y229457D01*
X63875Y229553D01*
X63855Y229651D01*
X63837Y229749D01*
X63824Y229847D01*
X63815Y229946D01*
X63809Y230045D01*
X63807Y230145D01*
X63808Y230145D02*
X63808Y232742D01*
X63808Y239835D02*
X72896Y239835D01*
X72896Y239834D02*
X72995Y239832D01*
X73095Y239826D01*
X73194Y239817D01*
X73292Y239804D01*
X73390Y239787D01*
X73488Y239766D01*
X73584Y239741D01*
X73679Y239713D01*
X73773Y239681D01*
X73866Y239646D01*
X73958Y239607D01*
X74048Y239564D01*
X74136Y239519D01*
X74223Y239469D01*
X74307Y239417D01*
X74390Y239361D01*
X74470Y239303D01*
X74548Y239241D01*
X74623Y239176D01*
X74696Y239108D01*
X74766Y239038D01*
X74834Y238965D01*
X74899Y238890D01*
X74961Y238812D01*
X75019Y238732D01*
X75075Y238649D01*
X75127Y238565D01*
X75177Y238478D01*
X75222Y238390D01*
X75265Y238300D01*
X75304Y238208D01*
X75339Y238115D01*
X75371Y238021D01*
X75399Y237926D01*
X75424Y237830D01*
X75445Y237732D01*
X75462Y237634D01*
X75475Y237536D01*
X75484Y237437D01*
X75490Y237337D01*
X75492Y237238D01*
X75492Y235940D01*
X75492Y245512D02*
X63808Y245512D01*
X75492Y245512D02*
X75492Y250705D01*
X75492Y257577D02*
X75492Y260174D01*
X75492Y257577D02*
X75490Y257478D01*
X75484Y257378D01*
X75475Y257279D01*
X75462Y257181D01*
X75445Y257083D01*
X75424Y256985D01*
X75399Y256889D01*
X75371Y256794D01*
X75339Y256700D01*
X75304Y256607D01*
X75265Y256515D01*
X75222Y256425D01*
X75177Y256337D01*
X75127Y256250D01*
X75075Y256166D01*
X75019Y256083D01*
X74961Y256003D01*
X74899Y255925D01*
X74834Y255850D01*
X74766Y255777D01*
X74696Y255707D01*
X74623Y255639D01*
X74548Y255574D01*
X74470Y255512D01*
X74390Y255454D01*
X74307Y255398D01*
X74223Y255346D01*
X74136Y255296D01*
X74048Y255251D01*
X73958Y255208D01*
X73866Y255169D01*
X73773Y255134D01*
X73679Y255102D01*
X73584Y255074D01*
X73488Y255049D01*
X73390Y255028D01*
X73292Y255011D01*
X73194Y254998D01*
X73095Y254989D01*
X72995Y254983D01*
X72896Y254981D01*
X66404Y254981D01*
X66404Y254980D02*
X66305Y254982D01*
X66205Y254988D01*
X66106Y254997D01*
X66008Y255010D01*
X65910Y255028D01*
X65812Y255048D01*
X65716Y255073D01*
X65620Y255101D01*
X65526Y255133D01*
X65433Y255168D01*
X65342Y255207D01*
X65252Y255250D01*
X65163Y255295D01*
X65077Y255345D01*
X64992Y255397D01*
X64910Y255453D01*
X64830Y255512D01*
X64752Y255573D01*
X64676Y255638D01*
X64603Y255706D01*
X64533Y255776D01*
X64465Y255849D01*
X64400Y255925D01*
X64339Y256003D01*
X64280Y256083D01*
X64224Y256165D01*
X64172Y256250D01*
X64123Y256336D01*
X64077Y256425D01*
X64034Y256515D01*
X63995Y256606D01*
X63960Y256699D01*
X63928Y256793D01*
X63900Y256889D01*
X63875Y256985D01*
X63855Y257083D01*
X63837Y257181D01*
X63824Y257279D01*
X63815Y257378D01*
X63809Y257477D01*
X63807Y257577D01*
X63808Y257577D02*
X63808Y260174D01*
X63808Y267267D02*
X72896Y267267D01*
X72896Y267266D02*
X72995Y267264D01*
X73095Y267258D01*
X73194Y267249D01*
X73292Y267236D01*
X73390Y267219D01*
X73488Y267198D01*
X73584Y267173D01*
X73679Y267145D01*
X73773Y267113D01*
X73866Y267078D01*
X73958Y267039D01*
X74048Y266996D01*
X74136Y266951D01*
X74223Y266901D01*
X74307Y266849D01*
X74390Y266793D01*
X74470Y266735D01*
X74548Y266673D01*
X74623Y266608D01*
X74696Y266540D01*
X74766Y266470D01*
X74834Y266397D01*
X74899Y266322D01*
X74961Y266244D01*
X75019Y266164D01*
X75075Y266081D01*
X75127Y265997D01*
X75177Y265910D01*
X75222Y265822D01*
X75265Y265732D01*
X75304Y265640D01*
X75339Y265547D01*
X75371Y265453D01*
X75399Y265358D01*
X75424Y265262D01*
X75445Y265164D01*
X75462Y265066D01*
X75475Y264968D01*
X75484Y264869D01*
X75490Y264769D01*
X75492Y264670D01*
X75492Y263372D01*
X75492Y272944D02*
X63808Y272944D01*
X75492Y272944D02*
X75492Y278137D01*
X75492Y285009D02*
X75492Y287606D01*
X75492Y285009D02*
X75490Y284910D01*
X75484Y284810D01*
X75475Y284711D01*
X75462Y284613D01*
X75445Y284515D01*
X75424Y284417D01*
X75399Y284321D01*
X75371Y284226D01*
X75339Y284132D01*
X75304Y284039D01*
X75265Y283947D01*
X75222Y283857D01*
X75177Y283769D01*
X75127Y283682D01*
X75075Y283598D01*
X75019Y283515D01*
X74961Y283435D01*
X74899Y283357D01*
X74834Y283282D01*
X74766Y283209D01*
X74696Y283139D01*
X74623Y283071D01*
X74548Y283006D01*
X74470Y282944D01*
X74390Y282886D01*
X74307Y282830D01*
X74223Y282778D01*
X74136Y282728D01*
X74048Y282683D01*
X73958Y282640D01*
X73866Y282601D01*
X73773Y282566D01*
X73679Y282534D01*
X73584Y282506D01*
X73488Y282481D01*
X73390Y282460D01*
X73292Y282443D01*
X73194Y282430D01*
X73095Y282421D01*
X72995Y282415D01*
X72896Y282413D01*
X66404Y282413D01*
X66404Y282412D02*
X66305Y282414D01*
X66205Y282420D01*
X66106Y282429D01*
X66008Y282442D01*
X65910Y282460D01*
X65812Y282480D01*
X65716Y282505D01*
X65620Y282533D01*
X65526Y282565D01*
X65433Y282600D01*
X65342Y282639D01*
X65252Y282682D01*
X65163Y282727D01*
X65077Y282777D01*
X64992Y282829D01*
X64910Y282885D01*
X64830Y282944D01*
X64752Y283005D01*
X64676Y283070D01*
X64603Y283138D01*
X64533Y283208D01*
X64465Y283281D01*
X64400Y283357D01*
X64339Y283435D01*
X64280Y283515D01*
X64224Y283597D01*
X64172Y283682D01*
X64123Y283768D01*
X64077Y283857D01*
X64034Y283947D01*
X63995Y284038D01*
X63960Y284131D01*
X63928Y284225D01*
X63900Y284321D01*
X63875Y284417D01*
X63855Y284515D01*
X63837Y284613D01*
X63824Y284711D01*
X63815Y284810D01*
X63809Y284909D01*
X63807Y285009D01*
X63808Y285009D02*
X63808Y287606D01*
X63808Y294699D02*
X72896Y294699D01*
X72896Y294698D02*
X72995Y294696D01*
X73095Y294690D01*
X73194Y294681D01*
X73292Y294668D01*
X73390Y294651D01*
X73488Y294630D01*
X73584Y294605D01*
X73679Y294577D01*
X73773Y294545D01*
X73866Y294510D01*
X73958Y294471D01*
X74048Y294428D01*
X74136Y294383D01*
X74223Y294333D01*
X74307Y294281D01*
X74390Y294225D01*
X74470Y294167D01*
X74548Y294105D01*
X74623Y294040D01*
X74696Y293972D01*
X74766Y293902D01*
X74834Y293829D01*
X74899Y293754D01*
X74961Y293676D01*
X75019Y293596D01*
X75075Y293513D01*
X75127Y293429D01*
X75177Y293342D01*
X75222Y293254D01*
X75265Y293164D01*
X75304Y293072D01*
X75339Y292979D01*
X75371Y292885D01*
X75399Y292790D01*
X75424Y292694D01*
X75445Y292596D01*
X75462Y292498D01*
X75475Y292400D01*
X75484Y292301D01*
X75490Y292201D01*
X75492Y292102D01*
X75492Y290804D01*
X75492Y300376D02*
X63808Y300376D01*
X75492Y300376D02*
X75492Y305569D01*
X75492Y312441D02*
X75492Y315038D01*
X75492Y312441D02*
X75490Y312342D01*
X75484Y312242D01*
X75475Y312143D01*
X75462Y312045D01*
X75445Y311947D01*
X75424Y311849D01*
X75399Y311753D01*
X75371Y311658D01*
X75339Y311564D01*
X75304Y311471D01*
X75265Y311379D01*
X75222Y311289D01*
X75177Y311201D01*
X75127Y311114D01*
X75075Y311030D01*
X75019Y310947D01*
X74961Y310867D01*
X74899Y310789D01*
X74834Y310714D01*
X74766Y310641D01*
X74696Y310571D01*
X74623Y310503D01*
X74548Y310438D01*
X74470Y310376D01*
X74390Y310318D01*
X74307Y310262D01*
X74223Y310210D01*
X74136Y310160D01*
X74048Y310115D01*
X73958Y310072D01*
X73866Y310033D01*
X73773Y309998D01*
X73679Y309966D01*
X73584Y309938D01*
X73488Y309913D01*
X73390Y309892D01*
X73292Y309875D01*
X73194Y309862D01*
X73095Y309853D01*
X72995Y309847D01*
X72896Y309845D01*
X66404Y309845D01*
X66404Y309844D02*
X66305Y309846D01*
X66205Y309852D01*
X66106Y309861D01*
X66008Y309874D01*
X65910Y309892D01*
X65812Y309912D01*
X65716Y309937D01*
X65620Y309965D01*
X65526Y309997D01*
X65433Y310032D01*
X65342Y310071D01*
X65252Y310114D01*
X65163Y310159D01*
X65077Y310209D01*
X64992Y310261D01*
X64910Y310317D01*
X64830Y310376D01*
X64752Y310437D01*
X64676Y310502D01*
X64603Y310570D01*
X64533Y310640D01*
X64465Y310713D01*
X64400Y310789D01*
X64339Y310867D01*
X64280Y310947D01*
X64224Y311029D01*
X64172Y311114D01*
X64123Y311200D01*
X64077Y311289D01*
X64034Y311379D01*
X63995Y311470D01*
X63960Y311563D01*
X63928Y311657D01*
X63900Y311753D01*
X63875Y311849D01*
X63855Y311947D01*
X63837Y312045D01*
X63824Y312143D01*
X63815Y312242D01*
X63809Y312341D01*
X63807Y312441D01*
X63808Y312441D02*
X63808Y315038D01*
X23508Y409508D02*
X23508Y416620D01*
X25484Y416620D01*
X25571Y416618D01*
X25659Y416612D01*
X25746Y416603D01*
X25832Y416589D01*
X25918Y416572D01*
X26002Y416551D01*
X26086Y416526D01*
X26169Y416497D01*
X26250Y416465D01*
X26330Y416430D01*
X26408Y416391D01*
X26485Y416348D01*
X26559Y416302D01*
X26631Y416253D01*
X26701Y416201D01*
X26769Y416145D01*
X26834Y416087D01*
X26897Y416026D01*
X26956Y415962D01*
X27013Y415895D01*
X27067Y415827D01*
X27118Y415755D01*
X27165Y415682D01*
X27210Y415607D01*
X27251Y415529D01*
X27288Y415450D01*
X27322Y415370D01*
X27352Y415288D01*
X27379Y415205D01*
X27402Y415120D01*
X27421Y415035D01*
X27436Y414949D01*
X27448Y414862D01*
X27456Y414775D01*
X27460Y414688D01*
X27460Y414600D01*
X27456Y414513D01*
X27448Y414426D01*
X27436Y414339D01*
X27421Y414253D01*
X27402Y414168D01*
X27379Y414083D01*
X27352Y414000D01*
X27322Y413918D01*
X27288Y413838D01*
X27251Y413759D01*
X27210Y413681D01*
X27165Y413606D01*
X27118Y413533D01*
X27067Y413461D01*
X27013Y413393D01*
X26956Y413326D01*
X26897Y413262D01*
X26834Y413201D01*
X26769Y413143D01*
X26701Y413087D01*
X26631Y413035D01*
X26559Y412986D01*
X26485Y412940D01*
X26408Y412897D01*
X26330Y412858D01*
X26250Y412823D01*
X26169Y412791D01*
X26086Y412762D01*
X26002Y412737D01*
X25918Y412716D01*
X25832Y412699D01*
X25746Y412685D01*
X25659Y412676D01*
X25571Y412670D01*
X25484Y412668D01*
X25484Y412669D02*
X23508Y412669D01*
X25879Y412669D02*
X27459Y409508D01*
X230508Y413459D02*
X232484Y413459D01*
X232484Y413460D02*
X232571Y413458D01*
X232659Y413452D01*
X232746Y413443D01*
X232832Y413429D01*
X232918Y413412D01*
X233002Y413391D01*
X233086Y413366D01*
X233169Y413337D01*
X233250Y413305D01*
X233330Y413270D01*
X233408Y413231D01*
X233485Y413188D01*
X233559Y413142D01*
X233631Y413093D01*
X233701Y413041D01*
X233769Y412985D01*
X233834Y412927D01*
X233897Y412866D01*
X233956Y412802D01*
X234013Y412735D01*
X234067Y412667D01*
X234118Y412595D01*
X234165Y412522D01*
X234210Y412447D01*
X234251Y412369D01*
X234288Y412290D01*
X234322Y412210D01*
X234352Y412128D01*
X234379Y412045D01*
X234402Y411960D01*
X234421Y411875D01*
X234436Y411789D01*
X234448Y411702D01*
X234456Y411615D01*
X234460Y411528D01*
X234460Y411440D01*
X234456Y411353D01*
X234448Y411266D01*
X234436Y411179D01*
X234421Y411093D01*
X234402Y411008D01*
X234379Y410923D01*
X234352Y410840D01*
X234322Y410758D01*
X234288Y410678D01*
X234251Y410599D01*
X234210Y410521D01*
X234165Y410446D01*
X234118Y410373D01*
X234067Y410301D01*
X234013Y410233D01*
X233956Y410166D01*
X233897Y410102D01*
X233834Y410041D01*
X233769Y409983D01*
X233701Y409927D01*
X233631Y409875D01*
X233559Y409826D01*
X233485Y409780D01*
X233408Y409737D01*
X233330Y409698D01*
X233250Y409663D01*
X233169Y409631D01*
X233086Y409602D01*
X233002Y409577D01*
X232918Y409556D01*
X232832Y409539D01*
X232746Y409525D01*
X232659Y409516D01*
X232571Y409510D01*
X232484Y409508D01*
X230508Y409508D01*
X230508Y416620D01*
X232484Y416620D01*
X232563Y416618D01*
X232641Y416612D01*
X232719Y416602D01*
X232797Y416589D01*
X232874Y416571D01*
X232950Y416550D01*
X233024Y416525D01*
X233098Y416496D01*
X233170Y416464D01*
X233240Y416428D01*
X233308Y416388D01*
X233374Y416345D01*
X233438Y416299D01*
X233500Y416250D01*
X233559Y416198D01*
X233615Y416143D01*
X233669Y416085D01*
X233719Y416025D01*
X233767Y415962D01*
X233811Y415897D01*
X233852Y415830D01*
X233890Y415761D01*
X233924Y415690D01*
X233955Y415617D01*
X233982Y415543D01*
X234005Y415468D01*
X234024Y415392D01*
X234040Y415314D01*
X234052Y415236D01*
X234060Y415158D01*
X234064Y415079D01*
X234064Y415001D01*
X234060Y414922D01*
X234052Y414844D01*
X234040Y414766D01*
X234024Y414688D01*
X234005Y414612D01*
X233982Y414537D01*
X233955Y414463D01*
X233924Y414390D01*
X233890Y414319D01*
X233852Y414250D01*
X233811Y414183D01*
X233767Y414118D01*
X233719Y414055D01*
X233669Y413995D01*
X233615Y413937D01*
X233559Y413882D01*
X233500Y413830D01*
X233438Y413781D01*
X233374Y413735D01*
X233308Y413692D01*
X233240Y413652D01*
X233170Y413616D01*
X233098Y413584D01*
X233024Y413555D01*
X232950Y413530D01*
X232874Y413509D01*
X232797Y413491D01*
X232719Y413478D01*
X232641Y413468D01*
X232563Y413462D01*
X232484Y413460D01*
D11*
X35790Y342785D02*
X28932Y345071D01*
X35790Y347357D01*
X34076Y346786D02*
X34076Y343357D01*
X35790Y350725D02*
X28932Y350725D01*
X28932Y352630D01*
X28934Y352715D01*
X28940Y352801D01*
X28949Y352886D01*
X28963Y352970D01*
X28980Y353054D01*
X29001Y353137D01*
X29025Y353219D01*
X29053Y353299D01*
X29085Y353379D01*
X29121Y353457D01*
X29159Y353533D01*
X29202Y353607D01*
X29247Y353679D01*
X29296Y353750D01*
X29348Y353818D01*
X29402Y353883D01*
X29460Y353946D01*
X29521Y354007D01*
X29584Y354065D01*
X29649Y354119D01*
X29717Y354171D01*
X29788Y354220D01*
X29860Y354265D01*
X29934Y354308D01*
X30010Y354346D01*
X30088Y354382D01*
X30168Y354414D01*
X30248Y354442D01*
X30330Y354466D01*
X30413Y354487D01*
X30497Y354504D01*
X30581Y354518D01*
X30666Y354527D01*
X30752Y354533D01*
X30837Y354535D01*
X33885Y354535D01*
X33970Y354533D01*
X34056Y354527D01*
X34141Y354518D01*
X34225Y354504D01*
X34309Y354487D01*
X34392Y354466D01*
X34474Y354442D01*
X34554Y354414D01*
X34634Y354382D01*
X34712Y354346D01*
X34788Y354308D01*
X34862Y354265D01*
X34934Y354220D01*
X35005Y354171D01*
X35073Y354119D01*
X35138Y354065D01*
X35201Y354007D01*
X35262Y353946D01*
X35320Y353883D01*
X35374Y353818D01*
X35426Y353750D01*
X35475Y353679D01*
X35520Y353607D01*
X35563Y353533D01*
X35601Y353457D01*
X35637Y353379D01*
X35669Y353299D01*
X35697Y353219D01*
X35721Y353137D01*
X35742Y353054D01*
X35759Y352970D01*
X35773Y352886D01*
X35782Y352801D01*
X35788Y352715D01*
X35790Y352630D01*
X35790Y350725D01*
X35790Y359777D02*
X35790Y361301D01*
X35790Y359777D02*
X35788Y359700D01*
X35782Y359623D01*
X35772Y359546D01*
X35759Y359470D01*
X35741Y359395D01*
X35720Y359321D01*
X35695Y359248D01*
X35666Y359176D01*
X35634Y359106D01*
X35599Y359037D01*
X35559Y358971D01*
X35517Y358906D01*
X35471Y358844D01*
X35422Y358784D01*
X35371Y358727D01*
X35316Y358672D01*
X35259Y358621D01*
X35199Y358572D01*
X35137Y358526D01*
X35072Y358484D01*
X35006Y358444D01*
X34937Y358409D01*
X34867Y358377D01*
X34795Y358348D01*
X34722Y358323D01*
X34648Y358302D01*
X34573Y358284D01*
X34497Y358271D01*
X34420Y358261D01*
X34343Y358255D01*
X34266Y358253D01*
X30456Y358253D01*
X30379Y358255D01*
X30302Y358261D01*
X30225Y358271D01*
X30149Y358284D01*
X30074Y358302D01*
X30000Y358323D01*
X29927Y358348D01*
X29855Y358377D01*
X29785Y358409D01*
X29716Y358444D01*
X29650Y358484D01*
X29585Y358526D01*
X29523Y358572D01*
X29463Y358621D01*
X29406Y358672D01*
X29351Y358727D01*
X29300Y358784D01*
X29251Y358844D01*
X29205Y358906D01*
X29163Y358971D01*
X29123Y359037D01*
X29088Y359106D01*
X29056Y359176D01*
X29027Y359248D01*
X29002Y359321D01*
X28981Y359395D01*
X28963Y359470D01*
X28950Y359546D01*
X28940Y359623D01*
X28934Y359700D01*
X28932Y359777D01*
X28932Y361301D01*
X30456Y364380D02*
X28932Y366285D01*
X35790Y366285D01*
X35790Y364380D02*
X35790Y368190D01*
X35790Y323833D02*
X35790Y322309D01*
X35788Y322232D01*
X35782Y322155D01*
X35772Y322078D01*
X35759Y322002D01*
X35741Y321927D01*
X35720Y321853D01*
X35695Y321780D01*
X35666Y321708D01*
X35634Y321638D01*
X35599Y321569D01*
X35559Y321503D01*
X35517Y321438D01*
X35471Y321376D01*
X35422Y321316D01*
X35371Y321259D01*
X35316Y321204D01*
X35259Y321153D01*
X35199Y321104D01*
X35137Y321058D01*
X35072Y321016D01*
X35006Y320976D01*
X34937Y320941D01*
X34867Y320909D01*
X34795Y320880D01*
X34722Y320855D01*
X34648Y320834D01*
X34573Y320816D01*
X34497Y320803D01*
X34420Y320793D01*
X34343Y320787D01*
X34266Y320785D01*
X30456Y320785D01*
X30379Y320787D01*
X30302Y320793D01*
X30225Y320803D01*
X30149Y320816D01*
X30074Y320834D01*
X30000Y320855D01*
X29927Y320880D01*
X29855Y320909D01*
X29785Y320941D01*
X29716Y320976D01*
X29650Y321016D01*
X29585Y321058D01*
X29523Y321104D01*
X29463Y321153D01*
X29406Y321204D01*
X29351Y321259D01*
X29300Y321316D01*
X29251Y321376D01*
X29205Y321438D01*
X29163Y321503D01*
X29123Y321569D01*
X29088Y321638D01*
X29056Y321708D01*
X29027Y321780D01*
X29002Y321853D01*
X28981Y321927D01*
X28963Y322002D01*
X28950Y322078D01*
X28940Y322155D01*
X28934Y322232D01*
X28932Y322309D01*
X28932Y323833D01*
X28932Y327178D02*
X35790Y327178D01*
X35790Y330226D01*
X35790Y333656D02*
X28932Y333656D01*
X28932Y337466D02*
X33123Y333656D01*
X31599Y335180D02*
X35790Y337466D01*
X36790Y291785D02*
X29932Y291785D01*
X33742Y294071D01*
X29932Y296357D01*
X36790Y296357D01*
X36790Y300655D02*
X29932Y300655D01*
X36790Y299893D02*
X36790Y301417D01*
X29932Y301417D02*
X29932Y299893D01*
X36790Y306644D02*
X36788Y306721D01*
X36782Y306798D01*
X36772Y306875D01*
X36759Y306951D01*
X36741Y307026D01*
X36720Y307100D01*
X36695Y307173D01*
X36666Y307245D01*
X36634Y307315D01*
X36599Y307384D01*
X36559Y307450D01*
X36517Y307515D01*
X36471Y307577D01*
X36422Y307637D01*
X36371Y307694D01*
X36316Y307749D01*
X36259Y307800D01*
X36199Y307849D01*
X36137Y307895D01*
X36072Y307937D01*
X36006Y307977D01*
X35937Y308012D01*
X35867Y308044D01*
X35795Y308073D01*
X35722Y308098D01*
X35648Y308119D01*
X35573Y308137D01*
X35497Y308150D01*
X35420Y308160D01*
X35343Y308166D01*
X35266Y308168D01*
X36790Y306644D02*
X36788Y306534D01*
X36782Y306423D01*
X36773Y306313D01*
X36760Y306203D01*
X36743Y306094D01*
X36722Y305986D01*
X36698Y305878D01*
X36669Y305771D01*
X36638Y305665D01*
X36602Y305561D01*
X36563Y305457D01*
X36521Y305355D01*
X36475Y305255D01*
X36425Y305156D01*
X36373Y305059D01*
X36316Y304963D01*
X36257Y304870D01*
X36195Y304779D01*
X36129Y304690D01*
X36061Y304603D01*
X35989Y304519D01*
X35915Y304437D01*
X35838Y304358D01*
X31456Y304548D02*
X31379Y304550D01*
X31302Y304556D01*
X31225Y304566D01*
X31149Y304579D01*
X31074Y304597D01*
X31000Y304618D01*
X30927Y304643D01*
X30855Y304672D01*
X30785Y304704D01*
X30716Y304739D01*
X30650Y304779D01*
X30585Y304821D01*
X30523Y304867D01*
X30463Y304916D01*
X30406Y304967D01*
X30351Y305022D01*
X30300Y305079D01*
X30251Y305139D01*
X30205Y305201D01*
X30163Y305266D01*
X30123Y305332D01*
X30088Y305401D01*
X30056Y305471D01*
X30027Y305543D01*
X30002Y305616D01*
X29981Y305690D01*
X29963Y305765D01*
X29950Y305841D01*
X29940Y305918D01*
X29934Y305995D01*
X29932Y306072D01*
X29934Y306174D01*
X29939Y306276D01*
X29948Y306378D01*
X29961Y306479D01*
X29978Y306580D01*
X29997Y306680D01*
X30021Y306780D01*
X30048Y306878D01*
X30079Y306976D01*
X30113Y307072D01*
X30150Y307167D01*
X30191Y307261D01*
X30235Y307353D01*
X30283Y307443D01*
X30333Y307532D01*
X30387Y307619D01*
X30444Y307704D01*
X30504Y307787D01*
X32790Y305310D02*
X32749Y305245D01*
X32706Y305182D01*
X32659Y305122D01*
X32609Y305063D01*
X32557Y305008D01*
X32502Y304955D01*
X32444Y304904D01*
X32384Y304857D01*
X32321Y304813D01*
X32257Y304771D01*
X32191Y304733D01*
X32122Y304699D01*
X32052Y304668D01*
X31981Y304640D01*
X31909Y304616D01*
X31835Y304595D01*
X31760Y304578D01*
X31685Y304565D01*
X31609Y304556D01*
X31533Y304550D01*
X31456Y304548D01*
X33932Y307406D02*
X33973Y307471D01*
X34016Y307534D01*
X34063Y307594D01*
X34113Y307653D01*
X34165Y307708D01*
X34220Y307761D01*
X34278Y307812D01*
X34338Y307859D01*
X34401Y307903D01*
X34465Y307945D01*
X34531Y307983D01*
X34600Y308017D01*
X34670Y308048D01*
X34741Y308076D01*
X34813Y308100D01*
X34887Y308121D01*
X34962Y308138D01*
X35037Y308151D01*
X35113Y308160D01*
X35189Y308166D01*
X35266Y308168D01*
X33933Y307406D02*
X32790Y305310D01*
X31837Y311429D02*
X34885Y311429D01*
X31837Y311429D02*
X31752Y311431D01*
X31666Y311437D01*
X31581Y311446D01*
X31497Y311460D01*
X31413Y311477D01*
X31330Y311498D01*
X31248Y311522D01*
X31168Y311550D01*
X31088Y311582D01*
X31010Y311618D01*
X30934Y311656D01*
X30860Y311699D01*
X30788Y311744D01*
X30717Y311793D01*
X30649Y311845D01*
X30584Y311899D01*
X30521Y311957D01*
X30460Y312018D01*
X30402Y312081D01*
X30348Y312146D01*
X30296Y312214D01*
X30247Y312285D01*
X30202Y312357D01*
X30159Y312431D01*
X30121Y312507D01*
X30085Y312585D01*
X30053Y312665D01*
X30025Y312745D01*
X30001Y312827D01*
X29980Y312910D01*
X29963Y312994D01*
X29949Y313078D01*
X29940Y313163D01*
X29934Y313249D01*
X29932Y313334D01*
X29934Y313419D01*
X29940Y313505D01*
X29949Y313590D01*
X29963Y313674D01*
X29980Y313758D01*
X30001Y313841D01*
X30025Y313923D01*
X30053Y314003D01*
X30085Y314083D01*
X30121Y314161D01*
X30159Y314237D01*
X30202Y314311D01*
X30247Y314383D01*
X30296Y314454D01*
X30348Y314522D01*
X30402Y314587D01*
X30460Y314650D01*
X30521Y314711D01*
X30584Y314769D01*
X30649Y314823D01*
X30717Y314875D01*
X30788Y314924D01*
X30860Y314969D01*
X30934Y315012D01*
X31010Y315050D01*
X31088Y315086D01*
X31168Y315118D01*
X31248Y315146D01*
X31330Y315170D01*
X31413Y315191D01*
X31497Y315208D01*
X31581Y315222D01*
X31666Y315231D01*
X31752Y315237D01*
X31837Y315239D01*
X34885Y315239D01*
X34970Y315237D01*
X35056Y315231D01*
X35141Y315222D01*
X35225Y315208D01*
X35309Y315191D01*
X35392Y315170D01*
X35474Y315146D01*
X35554Y315118D01*
X35634Y315086D01*
X35712Y315050D01*
X35788Y315012D01*
X35862Y314969D01*
X35934Y314924D01*
X36005Y314875D01*
X36073Y314823D01*
X36138Y314769D01*
X36201Y314711D01*
X36262Y314650D01*
X36320Y314587D01*
X36374Y314522D01*
X36426Y314454D01*
X36475Y314383D01*
X36520Y314311D01*
X36563Y314237D01*
X36601Y314161D01*
X36637Y314083D01*
X36669Y314003D01*
X36697Y313923D01*
X36721Y313841D01*
X36742Y313758D01*
X36759Y313674D01*
X36773Y313590D01*
X36782Y313505D01*
X36788Y313419D01*
X36790Y313334D01*
X36788Y313249D01*
X36782Y313163D01*
X36773Y313078D01*
X36759Y312994D01*
X36742Y312910D01*
X36721Y312827D01*
X36697Y312745D01*
X36669Y312665D01*
X36637Y312585D01*
X36601Y312507D01*
X36563Y312431D01*
X36520Y312357D01*
X36475Y312285D01*
X36426Y312214D01*
X36374Y312146D01*
X36320Y312081D01*
X36262Y312018D01*
X36201Y311957D01*
X36138Y311899D01*
X36073Y311845D01*
X36005Y311793D01*
X35934Y311744D01*
X35862Y311699D01*
X35788Y311656D01*
X35712Y311618D01*
X35634Y311582D01*
X35554Y311550D01*
X35474Y311522D01*
X35392Y311498D01*
X35309Y311477D01*
X35225Y311460D01*
X35141Y311446D01*
X35056Y311437D01*
X34970Y311431D01*
X34885Y311429D01*
X36790Y265785D02*
X29932Y265785D01*
X33742Y268071D01*
X29932Y270357D01*
X36790Y270357D01*
X34885Y274213D02*
X31837Y274213D01*
X31752Y274215D01*
X31666Y274221D01*
X31581Y274230D01*
X31497Y274244D01*
X31413Y274261D01*
X31330Y274282D01*
X31248Y274306D01*
X31168Y274334D01*
X31088Y274366D01*
X31010Y274402D01*
X30934Y274440D01*
X30860Y274483D01*
X30788Y274528D01*
X30717Y274577D01*
X30649Y274629D01*
X30584Y274683D01*
X30521Y274741D01*
X30460Y274802D01*
X30402Y274865D01*
X30348Y274930D01*
X30296Y274998D01*
X30247Y275069D01*
X30202Y275141D01*
X30159Y275215D01*
X30121Y275291D01*
X30085Y275369D01*
X30053Y275449D01*
X30025Y275529D01*
X30001Y275611D01*
X29980Y275694D01*
X29963Y275778D01*
X29949Y275862D01*
X29940Y275947D01*
X29934Y276033D01*
X29932Y276118D01*
X29934Y276203D01*
X29940Y276289D01*
X29949Y276374D01*
X29963Y276458D01*
X29980Y276542D01*
X30001Y276625D01*
X30025Y276707D01*
X30053Y276787D01*
X30085Y276867D01*
X30121Y276945D01*
X30159Y277021D01*
X30202Y277095D01*
X30247Y277167D01*
X30296Y277238D01*
X30348Y277306D01*
X30402Y277371D01*
X30460Y277434D01*
X30521Y277495D01*
X30584Y277553D01*
X30649Y277607D01*
X30717Y277659D01*
X30788Y277708D01*
X30860Y277753D01*
X30934Y277796D01*
X31010Y277834D01*
X31088Y277870D01*
X31168Y277902D01*
X31248Y277930D01*
X31330Y277954D01*
X31413Y277975D01*
X31497Y277992D01*
X31581Y278006D01*
X31666Y278015D01*
X31752Y278021D01*
X31837Y278023D01*
X34885Y278023D01*
X34970Y278021D01*
X35056Y278015D01*
X35141Y278006D01*
X35225Y277992D01*
X35309Y277975D01*
X35392Y277954D01*
X35474Y277930D01*
X35554Y277902D01*
X35634Y277870D01*
X35712Y277834D01*
X35788Y277796D01*
X35862Y277753D01*
X35934Y277708D01*
X36005Y277659D01*
X36073Y277607D01*
X36138Y277553D01*
X36201Y277495D01*
X36262Y277434D01*
X36320Y277371D01*
X36374Y277306D01*
X36426Y277238D01*
X36475Y277167D01*
X36520Y277095D01*
X36563Y277021D01*
X36601Y276945D01*
X36637Y276867D01*
X36669Y276787D01*
X36697Y276707D01*
X36721Y276625D01*
X36742Y276542D01*
X36759Y276458D01*
X36773Y276374D01*
X36782Y276289D01*
X36788Y276203D01*
X36790Y276118D01*
X36788Y276033D01*
X36782Y275947D01*
X36773Y275862D01*
X36759Y275778D01*
X36742Y275694D01*
X36721Y275611D01*
X36697Y275529D01*
X36669Y275449D01*
X36637Y275369D01*
X36601Y275291D01*
X36563Y275215D01*
X36520Y275141D01*
X36475Y275069D01*
X36426Y274998D01*
X36374Y274930D01*
X36320Y274865D01*
X36262Y274802D01*
X36201Y274741D01*
X36138Y274683D01*
X36073Y274629D01*
X36005Y274577D01*
X35934Y274528D01*
X35862Y274483D01*
X35788Y274440D01*
X35712Y274402D01*
X35634Y274366D01*
X35554Y274334D01*
X35474Y274306D01*
X35392Y274282D01*
X35309Y274261D01*
X35225Y274244D01*
X35141Y274230D01*
X35056Y274221D01*
X34970Y274215D01*
X34885Y274213D01*
X36790Y283570D02*
X36788Y283647D01*
X36782Y283724D01*
X36772Y283801D01*
X36759Y283877D01*
X36741Y283952D01*
X36720Y284026D01*
X36695Y284099D01*
X36666Y284171D01*
X36634Y284241D01*
X36599Y284310D01*
X36559Y284376D01*
X36517Y284441D01*
X36471Y284503D01*
X36422Y284563D01*
X36371Y284620D01*
X36316Y284675D01*
X36259Y284726D01*
X36199Y284775D01*
X36137Y284821D01*
X36072Y284863D01*
X36006Y284903D01*
X35937Y284938D01*
X35867Y284970D01*
X35795Y284999D01*
X35722Y285024D01*
X35648Y285045D01*
X35573Y285063D01*
X35497Y285076D01*
X35420Y285086D01*
X35343Y285092D01*
X35266Y285094D01*
X36790Y283570D02*
X36788Y283460D01*
X36782Y283349D01*
X36773Y283239D01*
X36760Y283129D01*
X36743Y283020D01*
X36722Y282912D01*
X36698Y282804D01*
X36669Y282697D01*
X36638Y282591D01*
X36602Y282487D01*
X36563Y282383D01*
X36521Y282281D01*
X36475Y282181D01*
X36425Y282082D01*
X36373Y281985D01*
X36316Y281889D01*
X36257Y281796D01*
X36195Y281705D01*
X36129Y281616D01*
X36061Y281529D01*
X35989Y281445D01*
X35915Y281363D01*
X35838Y281284D01*
X31456Y281475D02*
X31379Y281477D01*
X31302Y281483D01*
X31225Y281493D01*
X31149Y281506D01*
X31074Y281524D01*
X31000Y281545D01*
X30927Y281570D01*
X30855Y281599D01*
X30785Y281631D01*
X30716Y281666D01*
X30650Y281706D01*
X30585Y281748D01*
X30523Y281794D01*
X30463Y281843D01*
X30406Y281894D01*
X30351Y281949D01*
X30300Y282006D01*
X30251Y282066D01*
X30205Y282128D01*
X30163Y282193D01*
X30123Y282259D01*
X30088Y282328D01*
X30056Y282398D01*
X30027Y282470D01*
X30002Y282543D01*
X29981Y282617D01*
X29963Y282692D01*
X29950Y282768D01*
X29940Y282845D01*
X29934Y282922D01*
X29932Y282999D01*
X29934Y283101D01*
X29939Y283203D01*
X29948Y283305D01*
X29961Y283406D01*
X29978Y283507D01*
X29997Y283607D01*
X30021Y283707D01*
X30048Y283805D01*
X30079Y283903D01*
X30113Y283999D01*
X30150Y284094D01*
X30191Y284188D01*
X30235Y284280D01*
X30283Y284370D01*
X30333Y284459D01*
X30387Y284546D01*
X30444Y284631D01*
X30504Y284714D01*
X32790Y282236D02*
X32749Y282171D01*
X32706Y282108D01*
X32659Y282048D01*
X32609Y281989D01*
X32557Y281934D01*
X32502Y281881D01*
X32444Y281830D01*
X32384Y281783D01*
X32321Y281739D01*
X32257Y281697D01*
X32191Y281659D01*
X32122Y281625D01*
X32052Y281594D01*
X31981Y281566D01*
X31909Y281542D01*
X31835Y281521D01*
X31760Y281504D01*
X31685Y281491D01*
X31609Y281482D01*
X31533Y281476D01*
X31456Y281474D01*
X33932Y284332D02*
X33973Y284397D01*
X34016Y284460D01*
X34063Y284520D01*
X34113Y284579D01*
X34165Y284634D01*
X34220Y284687D01*
X34278Y284738D01*
X34338Y284785D01*
X34401Y284829D01*
X34465Y284871D01*
X34531Y284909D01*
X34600Y284943D01*
X34670Y284974D01*
X34741Y285002D01*
X34813Y285026D01*
X34887Y285047D01*
X34962Y285064D01*
X35037Y285077D01*
X35113Y285086D01*
X35189Y285092D01*
X35266Y285094D01*
X33933Y284332D02*
X32790Y282237D01*
X29932Y288797D02*
X36790Y288797D01*
X36790Y288035D02*
X36790Y289559D01*
X29932Y289559D02*
X29932Y288035D01*
X36266Y252595D02*
X36343Y252593D01*
X36420Y252587D01*
X36497Y252577D01*
X36573Y252564D01*
X36648Y252546D01*
X36722Y252525D01*
X36795Y252500D01*
X36867Y252471D01*
X36937Y252439D01*
X37006Y252404D01*
X37072Y252364D01*
X37137Y252322D01*
X37199Y252276D01*
X37259Y252227D01*
X37316Y252176D01*
X37371Y252121D01*
X37422Y252064D01*
X37471Y252004D01*
X37517Y251942D01*
X37559Y251877D01*
X37599Y251811D01*
X37634Y251742D01*
X37666Y251672D01*
X37695Y251600D01*
X37720Y251527D01*
X37741Y251453D01*
X37759Y251378D01*
X37772Y251302D01*
X37782Y251225D01*
X37788Y251148D01*
X37790Y251071D01*
X37788Y250961D01*
X37782Y250850D01*
X37773Y250740D01*
X37760Y250630D01*
X37743Y250521D01*
X37722Y250413D01*
X37698Y250305D01*
X37669Y250198D01*
X37638Y250092D01*
X37602Y249988D01*
X37563Y249884D01*
X37521Y249782D01*
X37475Y249682D01*
X37425Y249583D01*
X37373Y249486D01*
X37316Y249390D01*
X37257Y249297D01*
X37195Y249206D01*
X37129Y249117D01*
X37061Y249030D01*
X36989Y248946D01*
X36915Y248864D01*
X36838Y248785D01*
X32456Y248976D02*
X32379Y248978D01*
X32302Y248984D01*
X32225Y248994D01*
X32149Y249007D01*
X32074Y249025D01*
X32000Y249046D01*
X31927Y249071D01*
X31855Y249100D01*
X31785Y249132D01*
X31716Y249167D01*
X31650Y249207D01*
X31585Y249249D01*
X31523Y249295D01*
X31463Y249344D01*
X31406Y249395D01*
X31351Y249450D01*
X31300Y249507D01*
X31251Y249567D01*
X31205Y249629D01*
X31163Y249694D01*
X31123Y249760D01*
X31088Y249829D01*
X31056Y249899D01*
X31027Y249971D01*
X31002Y250044D01*
X30981Y250118D01*
X30963Y250193D01*
X30950Y250269D01*
X30940Y250346D01*
X30934Y250423D01*
X30932Y250500D01*
X30934Y250602D01*
X30939Y250704D01*
X30948Y250806D01*
X30961Y250907D01*
X30978Y251008D01*
X30997Y251108D01*
X31021Y251208D01*
X31048Y251306D01*
X31079Y251404D01*
X31113Y251500D01*
X31150Y251595D01*
X31191Y251689D01*
X31235Y251781D01*
X31283Y251871D01*
X31333Y251960D01*
X31387Y252047D01*
X31444Y252132D01*
X31504Y252215D01*
X33790Y249737D02*
X33749Y249672D01*
X33706Y249609D01*
X33659Y249549D01*
X33609Y249490D01*
X33557Y249435D01*
X33502Y249382D01*
X33444Y249331D01*
X33384Y249284D01*
X33321Y249240D01*
X33257Y249198D01*
X33191Y249160D01*
X33122Y249126D01*
X33052Y249095D01*
X32981Y249067D01*
X32909Y249043D01*
X32835Y249022D01*
X32760Y249005D01*
X32685Y248992D01*
X32609Y248983D01*
X32533Y248977D01*
X32456Y248975D01*
X34932Y251833D02*
X34973Y251898D01*
X35016Y251961D01*
X35063Y252021D01*
X35113Y252080D01*
X35165Y252135D01*
X35220Y252188D01*
X35278Y252239D01*
X35338Y252286D01*
X35401Y252330D01*
X35465Y252372D01*
X35531Y252410D01*
X35600Y252444D01*
X35670Y252475D01*
X35741Y252503D01*
X35813Y252527D01*
X35887Y252548D01*
X35962Y252565D01*
X36037Y252578D01*
X36113Y252587D01*
X36189Y252593D01*
X36266Y252595D01*
X34933Y251833D02*
X33790Y249738D01*
X37790Y256122D02*
X37790Y259170D01*
X37790Y256122D02*
X30932Y256122D01*
X30932Y259170D01*
X33980Y258408D02*
X33980Y256122D01*
X31632Y231691D02*
X31571Y231562D01*
X31513Y231432D01*
X31459Y231300D01*
X31408Y231167D01*
X31361Y231033D01*
X31316Y230897D01*
X31276Y230761D01*
X31239Y230623D01*
X31205Y230485D01*
X31174Y230346D01*
X31148Y230206D01*
X31124Y230065D01*
X31105Y229924D01*
X31089Y229783D01*
X31076Y229641D01*
X31067Y229499D01*
X31062Y229356D01*
X31060Y229214D01*
X31631Y231690D02*
X31657Y231759D01*
X31686Y231825D01*
X31718Y231891D01*
X31753Y231954D01*
X31792Y232016D01*
X31834Y232076D01*
X31879Y232133D01*
X31927Y232188D01*
X31978Y232240D01*
X32031Y232290D01*
X32087Y232336D01*
X32145Y232380D01*
X32206Y232421D01*
X32268Y232459D01*
X32332Y232493D01*
X32398Y232524D01*
X32466Y232552D01*
X32535Y232576D01*
X32605Y232596D01*
X32676Y232613D01*
X32747Y232626D01*
X32819Y232635D01*
X32892Y232641D01*
X32965Y232643D01*
X33038Y232641D01*
X33111Y232635D01*
X33183Y232626D01*
X33254Y232613D01*
X33325Y232596D01*
X33395Y232576D01*
X33464Y232552D01*
X33532Y232524D01*
X33598Y232493D01*
X33662Y232459D01*
X33724Y232421D01*
X33785Y232380D01*
X33843Y232336D01*
X33899Y232290D01*
X33952Y232240D01*
X34003Y232188D01*
X34051Y232133D01*
X34096Y232076D01*
X34138Y232016D01*
X34177Y231954D01*
X34212Y231891D01*
X34244Y231825D01*
X34273Y231759D01*
X34299Y231690D01*
X34299Y231691D02*
X34360Y231562D01*
X34418Y231432D01*
X34472Y231300D01*
X34523Y231167D01*
X34570Y231033D01*
X34615Y230897D01*
X34655Y230761D01*
X34692Y230623D01*
X34726Y230485D01*
X34757Y230346D01*
X34783Y230206D01*
X34807Y230065D01*
X34826Y229924D01*
X34842Y229783D01*
X34855Y229641D01*
X34864Y229499D01*
X34869Y229356D01*
X34871Y229214D01*
X31060Y229214D02*
X31062Y229072D01*
X31067Y228929D01*
X31076Y228787D01*
X31089Y228645D01*
X31105Y228504D01*
X31124Y228363D01*
X31148Y228222D01*
X31174Y228082D01*
X31205Y227943D01*
X31239Y227805D01*
X31276Y227667D01*
X31316Y227531D01*
X31361Y227395D01*
X31408Y227261D01*
X31459Y227128D01*
X31513Y226996D01*
X31571Y226866D01*
X31632Y226737D01*
X31631Y226738D02*
X31657Y226669D01*
X31686Y226603D01*
X31718Y226537D01*
X31753Y226474D01*
X31792Y226412D01*
X31834Y226352D01*
X31879Y226295D01*
X31927Y226240D01*
X31978Y226188D01*
X32031Y226138D01*
X32087Y226092D01*
X32145Y226048D01*
X32206Y226007D01*
X32268Y225969D01*
X32332Y225935D01*
X32398Y225904D01*
X32466Y225876D01*
X32535Y225852D01*
X32605Y225832D01*
X32676Y225815D01*
X32747Y225802D01*
X32819Y225793D01*
X32892Y225787D01*
X32965Y225785D01*
X34299Y226737D02*
X34360Y226866D01*
X34418Y226996D01*
X34472Y227128D01*
X34523Y227261D01*
X34570Y227395D01*
X34615Y227531D01*
X34655Y227667D01*
X34692Y227805D01*
X34726Y227943D01*
X34757Y228082D01*
X34783Y228222D01*
X34807Y228363D01*
X34826Y228504D01*
X34842Y228645D01*
X34855Y228787D01*
X34864Y228929D01*
X34869Y229072D01*
X34871Y229214D01*
X34299Y226738D02*
X34273Y226669D01*
X34244Y226603D01*
X34212Y226537D01*
X34177Y226474D01*
X34138Y226412D01*
X34096Y226352D01*
X34051Y226295D01*
X34003Y226240D01*
X33952Y226188D01*
X33899Y226138D01*
X33843Y226092D01*
X33785Y226048D01*
X33724Y226007D01*
X33662Y225969D01*
X33598Y225935D01*
X33532Y225904D01*
X33464Y225876D01*
X33395Y225852D01*
X33325Y225832D01*
X33254Y225815D01*
X33183Y225802D01*
X33111Y225793D01*
X33038Y225787D01*
X32965Y225785D01*
X31441Y227309D02*
X34489Y231119D01*
X31965Y206643D02*
X30060Y205119D01*
X31965Y206643D02*
X31965Y199785D01*
X30060Y199785D02*
X33870Y199785D01*
X32156Y180644D02*
X32238Y180642D01*
X32319Y180636D01*
X32400Y180627D01*
X32481Y180613D01*
X32560Y180596D01*
X32639Y180575D01*
X32717Y180550D01*
X32793Y180521D01*
X32868Y180489D01*
X32942Y180453D01*
X33014Y180414D01*
X33083Y180372D01*
X33151Y180326D01*
X33216Y180277D01*
X33279Y180225D01*
X33339Y180170D01*
X33397Y180112D01*
X33452Y180052D01*
X33504Y179989D01*
X33553Y179924D01*
X33599Y179856D01*
X33641Y179787D01*
X33680Y179715D01*
X33716Y179641D01*
X33748Y179566D01*
X33777Y179490D01*
X33802Y179412D01*
X33823Y179333D01*
X33840Y179254D01*
X33854Y179173D01*
X33863Y179092D01*
X33869Y179011D01*
X33871Y178929D01*
X32156Y180643D02*
X32064Y180641D01*
X31972Y180635D01*
X31880Y180626D01*
X31788Y180612D01*
X31698Y180595D01*
X31608Y180574D01*
X31519Y180549D01*
X31431Y180520D01*
X31344Y180488D01*
X31259Y180452D01*
X31176Y180413D01*
X31094Y180370D01*
X31014Y180324D01*
X30936Y180274D01*
X30860Y180222D01*
X30787Y180166D01*
X30716Y180107D01*
X30647Y180045D01*
X30581Y179980D01*
X30518Y179913D01*
X30458Y179843D01*
X30400Y179771D01*
X30346Y179696D01*
X30295Y179619D01*
X30247Y179540D01*
X30203Y179459D01*
X30162Y179376D01*
X30124Y179292D01*
X30090Y179206D01*
X30060Y179119D01*
X33299Y177595D02*
X33358Y177654D01*
X33414Y177715D01*
X33467Y177778D01*
X33518Y177844D01*
X33565Y177912D01*
X33609Y177982D01*
X33650Y178054D01*
X33688Y178128D01*
X33722Y178203D01*
X33753Y178280D01*
X33780Y178358D01*
X33804Y178438D01*
X33825Y178518D01*
X33841Y178599D01*
X33854Y178681D01*
X33864Y178763D01*
X33869Y178846D01*
X33871Y178929D01*
X33299Y177595D02*
X30060Y173785D01*
X33870Y173785D01*
X31965Y147785D02*
X30060Y147785D01*
X31965Y147785D02*
X32050Y147787D01*
X32136Y147793D01*
X32221Y147802D01*
X32305Y147816D01*
X32389Y147833D01*
X32472Y147854D01*
X32554Y147878D01*
X32634Y147906D01*
X32714Y147938D01*
X32792Y147974D01*
X32868Y148012D01*
X32942Y148055D01*
X33014Y148100D01*
X33085Y148149D01*
X33153Y148201D01*
X33218Y148255D01*
X33281Y148313D01*
X33342Y148374D01*
X33400Y148437D01*
X33454Y148502D01*
X33506Y148570D01*
X33555Y148641D01*
X33600Y148713D01*
X33643Y148787D01*
X33681Y148863D01*
X33717Y148941D01*
X33749Y149021D01*
X33777Y149101D01*
X33801Y149183D01*
X33822Y149266D01*
X33839Y149350D01*
X33853Y149434D01*
X33862Y149519D01*
X33868Y149605D01*
X33870Y149690D01*
X33868Y149775D01*
X33862Y149861D01*
X33853Y149946D01*
X33839Y150030D01*
X33822Y150114D01*
X33801Y150197D01*
X33777Y150279D01*
X33749Y150359D01*
X33717Y150439D01*
X33681Y150517D01*
X33643Y150593D01*
X33600Y150667D01*
X33555Y150739D01*
X33506Y150810D01*
X33454Y150878D01*
X33400Y150943D01*
X33342Y151006D01*
X33281Y151067D01*
X33218Y151125D01*
X33153Y151179D01*
X33085Y151231D01*
X33014Y151280D01*
X32942Y151325D01*
X32868Y151368D01*
X32792Y151406D01*
X32714Y151442D01*
X32634Y151474D01*
X32554Y151502D01*
X32472Y151526D01*
X32389Y151547D01*
X32305Y151564D01*
X32221Y151578D01*
X32136Y151587D01*
X32050Y151593D01*
X31965Y151595D01*
X32346Y154643D02*
X30060Y154643D01*
X32346Y154643D02*
X32423Y154641D01*
X32500Y154635D01*
X32577Y154625D01*
X32653Y154612D01*
X32728Y154594D01*
X32802Y154573D01*
X32875Y154548D01*
X32947Y154519D01*
X33017Y154487D01*
X33086Y154452D01*
X33152Y154412D01*
X33217Y154370D01*
X33279Y154324D01*
X33339Y154275D01*
X33396Y154224D01*
X33451Y154169D01*
X33502Y154112D01*
X33551Y154052D01*
X33597Y153990D01*
X33639Y153925D01*
X33679Y153859D01*
X33714Y153790D01*
X33746Y153720D01*
X33775Y153648D01*
X33800Y153575D01*
X33821Y153501D01*
X33839Y153426D01*
X33852Y153350D01*
X33862Y153273D01*
X33868Y153196D01*
X33870Y153119D01*
X33868Y153042D01*
X33862Y152965D01*
X33852Y152888D01*
X33839Y152812D01*
X33821Y152737D01*
X33800Y152663D01*
X33775Y152590D01*
X33746Y152518D01*
X33714Y152448D01*
X33679Y152379D01*
X33639Y152313D01*
X33597Y152248D01*
X33551Y152186D01*
X33502Y152126D01*
X33451Y152069D01*
X33396Y152014D01*
X33339Y151963D01*
X33279Y151914D01*
X33217Y151868D01*
X33152Y151826D01*
X33086Y151786D01*
X33017Y151751D01*
X32947Y151719D01*
X32875Y151690D01*
X32802Y151665D01*
X32728Y151644D01*
X32653Y151626D01*
X32577Y151613D01*
X32500Y151603D01*
X32423Y151597D01*
X32346Y151595D01*
X30822Y151595D01*
X31584Y131643D02*
X30060Y126309D01*
X33870Y126309D01*
X32727Y127833D02*
X32727Y124785D01*
X32346Y97785D02*
X30060Y97785D01*
X32346Y97785D02*
X32423Y97787D01*
X32500Y97793D01*
X32577Y97803D01*
X32653Y97816D01*
X32728Y97834D01*
X32802Y97855D01*
X32875Y97880D01*
X32947Y97909D01*
X33017Y97941D01*
X33086Y97976D01*
X33152Y98016D01*
X33217Y98058D01*
X33279Y98104D01*
X33339Y98153D01*
X33396Y98204D01*
X33451Y98259D01*
X33502Y98316D01*
X33551Y98376D01*
X33597Y98438D01*
X33639Y98503D01*
X33679Y98569D01*
X33714Y98638D01*
X33746Y98708D01*
X33775Y98780D01*
X33800Y98853D01*
X33821Y98927D01*
X33839Y99002D01*
X33852Y99078D01*
X33862Y99155D01*
X33868Y99232D01*
X33870Y99309D01*
X33870Y100071D01*
X33868Y100148D01*
X33862Y100225D01*
X33852Y100302D01*
X33839Y100378D01*
X33821Y100453D01*
X33800Y100527D01*
X33775Y100600D01*
X33746Y100672D01*
X33714Y100742D01*
X33679Y100811D01*
X33639Y100877D01*
X33597Y100942D01*
X33551Y101004D01*
X33502Y101064D01*
X33451Y101121D01*
X33396Y101176D01*
X33339Y101227D01*
X33279Y101276D01*
X33217Y101322D01*
X33152Y101364D01*
X33086Y101404D01*
X33017Y101439D01*
X32947Y101471D01*
X32875Y101500D01*
X32802Y101525D01*
X32728Y101546D01*
X32653Y101564D01*
X32577Y101577D01*
X32500Y101587D01*
X32423Y101593D01*
X32346Y101595D01*
X30060Y101595D01*
X30060Y104643D01*
X33870Y104643D01*
X32346Y76595D02*
X30060Y76595D01*
X32346Y76595D02*
X32423Y76593D01*
X32500Y76587D01*
X32577Y76577D01*
X32653Y76564D01*
X32728Y76546D01*
X32802Y76525D01*
X32875Y76500D01*
X32947Y76471D01*
X33017Y76439D01*
X33086Y76404D01*
X33152Y76364D01*
X33217Y76322D01*
X33279Y76276D01*
X33339Y76227D01*
X33396Y76176D01*
X33451Y76121D01*
X33502Y76064D01*
X33551Y76004D01*
X33597Y75942D01*
X33639Y75877D01*
X33679Y75811D01*
X33714Y75742D01*
X33746Y75672D01*
X33775Y75600D01*
X33800Y75527D01*
X33821Y75453D01*
X33839Y75378D01*
X33852Y75302D01*
X33862Y75225D01*
X33868Y75148D01*
X33870Y75071D01*
X33870Y74690D01*
X33868Y74605D01*
X33862Y74519D01*
X33853Y74434D01*
X33839Y74350D01*
X33822Y74266D01*
X33801Y74183D01*
X33777Y74101D01*
X33749Y74021D01*
X33717Y73941D01*
X33681Y73863D01*
X33643Y73787D01*
X33600Y73713D01*
X33555Y73641D01*
X33506Y73570D01*
X33454Y73502D01*
X33400Y73437D01*
X33342Y73374D01*
X33281Y73313D01*
X33218Y73255D01*
X33153Y73201D01*
X33085Y73149D01*
X33014Y73100D01*
X32942Y73055D01*
X32868Y73012D01*
X32792Y72974D01*
X32714Y72938D01*
X32634Y72906D01*
X32554Y72878D01*
X32472Y72854D01*
X32389Y72833D01*
X32305Y72816D01*
X32221Y72802D01*
X32136Y72793D01*
X32050Y72787D01*
X31965Y72785D01*
X31880Y72787D01*
X31794Y72793D01*
X31709Y72802D01*
X31625Y72816D01*
X31541Y72833D01*
X31458Y72854D01*
X31376Y72878D01*
X31296Y72906D01*
X31216Y72938D01*
X31138Y72974D01*
X31062Y73012D01*
X30988Y73055D01*
X30916Y73100D01*
X30845Y73149D01*
X30777Y73201D01*
X30712Y73255D01*
X30649Y73313D01*
X30588Y73374D01*
X30530Y73437D01*
X30476Y73502D01*
X30424Y73570D01*
X30375Y73641D01*
X30330Y73713D01*
X30287Y73787D01*
X30249Y73863D01*
X30213Y73941D01*
X30181Y74021D01*
X30153Y74101D01*
X30129Y74183D01*
X30108Y74266D01*
X30091Y74350D01*
X30077Y74434D01*
X30068Y74519D01*
X30062Y74605D01*
X30060Y74690D01*
X30060Y76595D01*
X30062Y76704D01*
X30068Y76812D01*
X30077Y76921D01*
X30091Y77029D01*
X30108Y77136D01*
X30130Y77243D01*
X30155Y77349D01*
X30183Y77454D01*
X30216Y77558D01*
X30252Y77660D01*
X30292Y77761D01*
X30335Y77861D01*
X30382Y77959D01*
X30433Y78056D01*
X30487Y78150D01*
X30544Y78243D01*
X30604Y78333D01*
X30668Y78422D01*
X30735Y78508D01*
X30804Y78591D01*
X30877Y78672D01*
X30953Y78750D01*
X31031Y78826D01*
X31112Y78899D01*
X31195Y78968D01*
X31281Y79035D01*
X31370Y79099D01*
X31460Y79159D01*
X31553Y79216D01*
X31647Y79270D01*
X31744Y79321D01*
X31842Y79368D01*
X31942Y79411D01*
X32043Y79451D01*
X32145Y79487D01*
X32249Y79520D01*
X32354Y79548D01*
X32460Y79573D01*
X32567Y79595D01*
X32674Y79612D01*
X32782Y79626D01*
X32891Y79635D01*
X32999Y79641D01*
X33108Y79643D01*
X30060Y54643D02*
X30060Y53881D01*
X30060Y54643D02*
X33870Y54643D01*
X31965Y47785D01*
X34790Y22071D02*
X34790Y19785D01*
X34790Y22071D02*
X34788Y22148D01*
X34782Y22225D01*
X34772Y22302D01*
X34759Y22378D01*
X34741Y22453D01*
X34720Y22527D01*
X34695Y22600D01*
X34666Y22672D01*
X34634Y22742D01*
X34599Y22811D01*
X34559Y22877D01*
X34517Y22942D01*
X34471Y23004D01*
X34422Y23064D01*
X34371Y23121D01*
X34316Y23176D01*
X34259Y23227D01*
X34199Y23276D01*
X34137Y23322D01*
X34072Y23364D01*
X34006Y23404D01*
X33937Y23439D01*
X33867Y23471D01*
X33795Y23500D01*
X33722Y23525D01*
X33648Y23546D01*
X33573Y23564D01*
X33497Y23577D01*
X33420Y23587D01*
X33343Y23593D01*
X33266Y23595D01*
X32504Y23595D01*
X32427Y23593D01*
X32350Y23587D01*
X32273Y23577D01*
X32197Y23564D01*
X32122Y23546D01*
X32048Y23525D01*
X31975Y23500D01*
X31903Y23471D01*
X31833Y23439D01*
X31764Y23404D01*
X31698Y23364D01*
X31633Y23322D01*
X31571Y23276D01*
X31511Y23227D01*
X31454Y23176D01*
X31399Y23121D01*
X31348Y23064D01*
X31299Y23004D01*
X31253Y22942D01*
X31211Y22877D01*
X31171Y22811D01*
X31136Y22742D01*
X31104Y22672D01*
X31075Y22600D01*
X31050Y22527D01*
X31029Y22453D01*
X31011Y22378D01*
X30998Y22302D01*
X30988Y22225D01*
X30982Y22148D01*
X30980Y22071D01*
X30980Y19785D01*
X27932Y19785D01*
X27932Y23595D01*
X27932Y26719D02*
X34790Y29005D01*
X27932Y31291D01*
X221932Y344071D02*
X228790Y341785D01*
X228790Y346357D02*
X221932Y344071D01*
X227076Y345786D02*
X227076Y342357D01*
X228790Y349725D02*
X221932Y349725D01*
X221932Y351630D01*
X221934Y351715D01*
X221940Y351801D01*
X221949Y351886D01*
X221963Y351970D01*
X221980Y352054D01*
X222001Y352137D01*
X222025Y352219D01*
X222053Y352299D01*
X222085Y352379D01*
X222121Y352457D01*
X222159Y352533D01*
X222202Y352607D01*
X222247Y352679D01*
X222296Y352750D01*
X222348Y352818D01*
X222402Y352883D01*
X222460Y352946D01*
X222521Y353007D01*
X222584Y353065D01*
X222649Y353119D01*
X222717Y353171D01*
X222788Y353220D01*
X222860Y353265D01*
X222934Y353308D01*
X223010Y353346D01*
X223088Y353382D01*
X223168Y353414D01*
X223248Y353442D01*
X223330Y353466D01*
X223413Y353487D01*
X223497Y353504D01*
X223581Y353518D01*
X223666Y353527D01*
X223752Y353533D01*
X223837Y353535D01*
X226885Y353535D01*
X226970Y353533D01*
X227056Y353527D01*
X227141Y353518D01*
X227225Y353504D01*
X227309Y353487D01*
X227392Y353466D01*
X227474Y353442D01*
X227554Y353414D01*
X227634Y353382D01*
X227712Y353346D01*
X227788Y353308D01*
X227862Y353265D01*
X227934Y353220D01*
X228005Y353171D01*
X228073Y353119D01*
X228138Y353065D01*
X228201Y353007D01*
X228262Y352946D01*
X228320Y352883D01*
X228374Y352818D01*
X228426Y352750D01*
X228475Y352679D01*
X228520Y352607D01*
X228563Y352533D01*
X228601Y352457D01*
X228637Y352379D01*
X228669Y352299D01*
X228697Y352219D01*
X228721Y352137D01*
X228742Y352054D01*
X228759Y351970D01*
X228773Y351886D01*
X228782Y351801D01*
X228788Y351715D01*
X228790Y351630D01*
X228790Y349725D01*
X228790Y358777D02*
X228790Y360301D01*
X228790Y358777D02*
X228788Y358700D01*
X228782Y358623D01*
X228772Y358546D01*
X228759Y358470D01*
X228741Y358395D01*
X228720Y358321D01*
X228695Y358248D01*
X228666Y358176D01*
X228634Y358106D01*
X228599Y358037D01*
X228559Y357971D01*
X228517Y357906D01*
X228471Y357844D01*
X228422Y357784D01*
X228371Y357727D01*
X228316Y357672D01*
X228259Y357621D01*
X228199Y357572D01*
X228137Y357526D01*
X228072Y357484D01*
X228006Y357444D01*
X227937Y357409D01*
X227867Y357377D01*
X227795Y357348D01*
X227722Y357323D01*
X227648Y357302D01*
X227573Y357284D01*
X227497Y357271D01*
X227420Y357261D01*
X227343Y357255D01*
X227266Y357253D01*
X223456Y357253D01*
X223379Y357255D01*
X223302Y357261D01*
X223225Y357271D01*
X223149Y357284D01*
X223074Y357302D01*
X223000Y357323D01*
X222927Y357348D01*
X222855Y357377D01*
X222785Y357409D01*
X222716Y357444D01*
X222650Y357484D01*
X222585Y357526D01*
X222523Y357572D01*
X222463Y357621D01*
X222406Y357672D01*
X222351Y357727D01*
X222300Y357784D01*
X222251Y357844D01*
X222205Y357906D01*
X222163Y357971D01*
X222123Y358037D01*
X222088Y358106D01*
X222056Y358176D01*
X222027Y358248D01*
X222002Y358321D01*
X221981Y358395D01*
X221963Y358470D01*
X221950Y358546D01*
X221940Y358623D01*
X221934Y358700D01*
X221932Y358777D01*
X221932Y360301D01*
X221932Y365476D02*
X221934Y365558D01*
X221940Y365639D01*
X221949Y365720D01*
X221963Y365801D01*
X221980Y365880D01*
X222001Y365959D01*
X222026Y366037D01*
X222055Y366113D01*
X222087Y366188D01*
X222123Y366262D01*
X222162Y366334D01*
X222204Y366403D01*
X222250Y366471D01*
X222299Y366536D01*
X222351Y366599D01*
X222406Y366659D01*
X222464Y366717D01*
X222524Y366772D01*
X222587Y366824D01*
X222652Y366873D01*
X222720Y366919D01*
X222790Y366961D01*
X222861Y367000D01*
X222935Y367036D01*
X223010Y367068D01*
X223086Y367097D01*
X223164Y367122D01*
X223243Y367143D01*
X223322Y367160D01*
X223403Y367174D01*
X223484Y367183D01*
X223565Y367189D01*
X223647Y367191D01*
X221932Y365476D02*
X221934Y365384D01*
X221940Y365292D01*
X221949Y365200D01*
X221963Y365108D01*
X221980Y365018D01*
X222001Y364928D01*
X222026Y364839D01*
X222055Y364751D01*
X222087Y364664D01*
X222123Y364579D01*
X222162Y364496D01*
X222205Y364414D01*
X222251Y364334D01*
X222301Y364256D01*
X222353Y364180D01*
X222409Y364107D01*
X222468Y364036D01*
X222530Y363967D01*
X222595Y363901D01*
X222662Y363838D01*
X222732Y363778D01*
X222804Y363720D01*
X222879Y363666D01*
X222956Y363615D01*
X223035Y363567D01*
X223116Y363523D01*
X223199Y363482D01*
X223283Y363444D01*
X223369Y363410D01*
X223456Y363380D01*
X224981Y366619D02*
X224922Y366678D01*
X224861Y366734D01*
X224798Y366787D01*
X224732Y366838D01*
X224664Y366885D01*
X224594Y366929D01*
X224522Y366970D01*
X224448Y367008D01*
X224373Y367042D01*
X224296Y367073D01*
X224218Y367100D01*
X224138Y367124D01*
X224058Y367145D01*
X223977Y367161D01*
X223895Y367174D01*
X223813Y367184D01*
X223730Y367189D01*
X223647Y367191D01*
X224980Y366619D02*
X228790Y363380D01*
X228790Y367190D01*
X221570Y332515D02*
X219665Y330991D01*
X221570Y332515D02*
X221570Y325657D01*
X219665Y325657D02*
X223475Y325657D01*
X226980Y331753D02*
X226980Y332515D01*
X230790Y332515D01*
X228885Y325657D01*
X221570Y307515D02*
X219665Y305991D01*
X221570Y307515D02*
X221570Y300657D01*
X219665Y300657D02*
X223475Y300657D01*
X226980Y304467D02*
X229266Y304467D01*
X229343Y304465D01*
X229420Y304459D01*
X229497Y304449D01*
X229573Y304436D01*
X229648Y304418D01*
X229722Y304397D01*
X229795Y304372D01*
X229867Y304343D01*
X229937Y304311D01*
X230006Y304276D01*
X230072Y304236D01*
X230137Y304194D01*
X230199Y304148D01*
X230259Y304099D01*
X230316Y304048D01*
X230371Y303993D01*
X230422Y303936D01*
X230471Y303876D01*
X230517Y303814D01*
X230559Y303749D01*
X230599Y303683D01*
X230634Y303614D01*
X230666Y303544D01*
X230695Y303472D01*
X230720Y303399D01*
X230741Y303325D01*
X230759Y303250D01*
X230772Y303174D01*
X230782Y303097D01*
X230788Y303020D01*
X230790Y302943D01*
X230790Y302562D01*
X230788Y302477D01*
X230782Y302391D01*
X230773Y302306D01*
X230759Y302222D01*
X230742Y302138D01*
X230721Y302055D01*
X230697Y301973D01*
X230669Y301893D01*
X230637Y301813D01*
X230601Y301735D01*
X230563Y301659D01*
X230520Y301585D01*
X230475Y301513D01*
X230426Y301442D01*
X230374Y301374D01*
X230320Y301309D01*
X230262Y301246D01*
X230201Y301185D01*
X230138Y301127D01*
X230073Y301073D01*
X230005Y301021D01*
X229934Y300972D01*
X229862Y300927D01*
X229788Y300884D01*
X229712Y300846D01*
X229634Y300810D01*
X229554Y300778D01*
X229474Y300750D01*
X229392Y300726D01*
X229309Y300705D01*
X229225Y300688D01*
X229141Y300674D01*
X229056Y300665D01*
X228970Y300659D01*
X228885Y300657D01*
X228800Y300659D01*
X228714Y300665D01*
X228629Y300674D01*
X228545Y300688D01*
X228461Y300705D01*
X228378Y300726D01*
X228296Y300750D01*
X228216Y300778D01*
X228136Y300810D01*
X228058Y300846D01*
X227982Y300884D01*
X227908Y300927D01*
X227836Y300972D01*
X227765Y301021D01*
X227697Y301073D01*
X227632Y301127D01*
X227569Y301185D01*
X227508Y301246D01*
X227450Y301309D01*
X227396Y301374D01*
X227344Y301442D01*
X227295Y301513D01*
X227250Y301585D01*
X227207Y301659D01*
X227169Y301735D01*
X227133Y301813D01*
X227101Y301893D01*
X227073Y301973D01*
X227049Y302055D01*
X227028Y302138D01*
X227011Y302222D01*
X226997Y302306D01*
X226988Y302391D01*
X226982Y302477D01*
X226980Y302562D01*
X226980Y304467D01*
X226982Y304576D01*
X226988Y304684D01*
X226997Y304793D01*
X227011Y304901D01*
X227028Y305008D01*
X227050Y305115D01*
X227075Y305221D01*
X227103Y305326D01*
X227136Y305430D01*
X227172Y305532D01*
X227212Y305633D01*
X227255Y305733D01*
X227302Y305831D01*
X227353Y305928D01*
X227407Y306022D01*
X227464Y306115D01*
X227524Y306205D01*
X227588Y306294D01*
X227655Y306380D01*
X227724Y306463D01*
X227797Y306544D01*
X227873Y306622D01*
X227951Y306698D01*
X228032Y306771D01*
X228115Y306840D01*
X228201Y306907D01*
X228290Y306971D01*
X228380Y307031D01*
X228473Y307088D01*
X228567Y307142D01*
X228664Y307193D01*
X228762Y307240D01*
X228862Y307283D01*
X228963Y307323D01*
X229065Y307359D01*
X229169Y307392D01*
X229274Y307420D01*
X229380Y307445D01*
X229487Y307467D01*
X229594Y307484D01*
X229702Y307498D01*
X229811Y307507D01*
X229919Y307513D01*
X230028Y307515D01*
X221570Y281515D02*
X219665Y279991D01*
X221570Y281515D02*
X221570Y274657D01*
X219665Y274657D02*
X223475Y274657D01*
X226980Y274657D02*
X229266Y274657D01*
X229343Y274659D01*
X229420Y274665D01*
X229497Y274675D01*
X229573Y274688D01*
X229648Y274706D01*
X229722Y274727D01*
X229795Y274752D01*
X229867Y274781D01*
X229937Y274813D01*
X230006Y274848D01*
X230072Y274888D01*
X230137Y274930D01*
X230199Y274976D01*
X230259Y275025D01*
X230316Y275076D01*
X230371Y275131D01*
X230422Y275188D01*
X230471Y275248D01*
X230517Y275310D01*
X230559Y275375D01*
X230599Y275441D01*
X230634Y275510D01*
X230666Y275580D01*
X230695Y275652D01*
X230720Y275725D01*
X230741Y275799D01*
X230759Y275874D01*
X230772Y275950D01*
X230782Y276027D01*
X230788Y276104D01*
X230790Y276181D01*
X230790Y276943D01*
X230788Y277020D01*
X230782Y277097D01*
X230772Y277174D01*
X230759Y277250D01*
X230741Y277325D01*
X230720Y277399D01*
X230695Y277472D01*
X230666Y277544D01*
X230634Y277614D01*
X230599Y277683D01*
X230559Y277749D01*
X230517Y277814D01*
X230471Y277876D01*
X230422Y277936D01*
X230371Y277993D01*
X230316Y278048D01*
X230259Y278099D01*
X230199Y278148D01*
X230137Y278194D01*
X230072Y278236D01*
X230006Y278276D01*
X229937Y278311D01*
X229867Y278343D01*
X229795Y278372D01*
X229722Y278397D01*
X229648Y278418D01*
X229573Y278436D01*
X229497Y278449D01*
X229420Y278459D01*
X229343Y278465D01*
X229266Y278467D01*
X226980Y278467D01*
X226980Y281515D01*
X230790Y281515D01*
X221570Y256515D02*
X219665Y254991D01*
X221570Y256515D02*
X221570Y249657D01*
X219665Y249657D02*
X223475Y249657D01*
X226980Y251181D02*
X228504Y256515D01*
X226980Y251181D02*
X230790Y251181D01*
X229647Y252705D02*
X229647Y249657D01*
X229918Y220120D02*
X223060Y220120D01*
X223060Y222025D01*
X223062Y222110D01*
X223068Y222196D01*
X223077Y222281D01*
X223091Y222365D01*
X223108Y222449D01*
X223129Y222532D01*
X223153Y222614D01*
X223181Y222694D01*
X223213Y222774D01*
X223249Y222852D01*
X223287Y222928D01*
X223330Y223002D01*
X223375Y223074D01*
X223424Y223145D01*
X223476Y223213D01*
X223530Y223278D01*
X223588Y223341D01*
X223649Y223402D01*
X223712Y223460D01*
X223777Y223514D01*
X223845Y223566D01*
X223916Y223615D01*
X223988Y223660D01*
X224062Y223703D01*
X224138Y223741D01*
X224216Y223777D01*
X224296Y223809D01*
X224376Y223837D01*
X224458Y223861D01*
X224541Y223882D01*
X224625Y223899D01*
X224709Y223913D01*
X224794Y223922D01*
X224880Y223928D01*
X224965Y223930D01*
X225050Y223928D01*
X225136Y223922D01*
X225221Y223913D01*
X225305Y223899D01*
X225389Y223882D01*
X225472Y223861D01*
X225554Y223837D01*
X225634Y223809D01*
X225714Y223777D01*
X225792Y223741D01*
X225868Y223703D01*
X225942Y223660D01*
X226014Y223615D01*
X226085Y223566D01*
X226153Y223514D01*
X226218Y223460D01*
X226281Y223402D01*
X226342Y223341D01*
X226400Y223278D01*
X226454Y223213D01*
X226506Y223145D01*
X226555Y223074D01*
X226600Y223002D01*
X226643Y222928D01*
X226681Y222852D01*
X226717Y222774D01*
X226749Y222694D01*
X226777Y222614D01*
X226801Y222532D01*
X226822Y222449D01*
X226839Y222365D01*
X226853Y222281D01*
X226862Y222196D01*
X226868Y222110D01*
X226870Y222025D01*
X226870Y220120D01*
X226870Y222406D02*
X229918Y223930D01*
X229918Y229407D02*
X229916Y229484D01*
X229910Y229561D01*
X229900Y229638D01*
X229887Y229714D01*
X229869Y229789D01*
X229848Y229863D01*
X229823Y229936D01*
X229794Y230008D01*
X229762Y230078D01*
X229727Y230147D01*
X229687Y230213D01*
X229645Y230278D01*
X229599Y230340D01*
X229550Y230400D01*
X229499Y230457D01*
X229444Y230512D01*
X229387Y230563D01*
X229327Y230612D01*
X229265Y230658D01*
X229200Y230700D01*
X229134Y230740D01*
X229065Y230775D01*
X228995Y230807D01*
X228923Y230836D01*
X228850Y230861D01*
X228776Y230882D01*
X228701Y230900D01*
X228625Y230913D01*
X228548Y230923D01*
X228471Y230929D01*
X228394Y230931D01*
X229918Y229407D02*
X229916Y229297D01*
X229910Y229186D01*
X229901Y229076D01*
X229888Y228966D01*
X229871Y228857D01*
X229850Y228749D01*
X229826Y228641D01*
X229797Y228534D01*
X229766Y228428D01*
X229730Y228324D01*
X229691Y228220D01*
X229649Y228118D01*
X229603Y228018D01*
X229553Y227919D01*
X229501Y227822D01*
X229444Y227726D01*
X229385Y227633D01*
X229323Y227542D01*
X229257Y227453D01*
X229189Y227366D01*
X229117Y227282D01*
X229043Y227200D01*
X228966Y227121D01*
X224584Y227312D02*
X224507Y227314D01*
X224430Y227320D01*
X224353Y227330D01*
X224277Y227343D01*
X224202Y227361D01*
X224128Y227382D01*
X224055Y227407D01*
X223983Y227436D01*
X223913Y227468D01*
X223844Y227503D01*
X223778Y227543D01*
X223713Y227585D01*
X223651Y227631D01*
X223591Y227680D01*
X223534Y227731D01*
X223479Y227786D01*
X223428Y227843D01*
X223379Y227903D01*
X223333Y227965D01*
X223291Y228030D01*
X223251Y228096D01*
X223216Y228165D01*
X223184Y228235D01*
X223155Y228307D01*
X223130Y228380D01*
X223109Y228454D01*
X223091Y228529D01*
X223078Y228605D01*
X223068Y228682D01*
X223062Y228759D01*
X223060Y228836D01*
X223062Y228938D01*
X223067Y229040D01*
X223076Y229142D01*
X223089Y229243D01*
X223106Y229344D01*
X223125Y229444D01*
X223149Y229544D01*
X223176Y229642D01*
X223207Y229740D01*
X223241Y229836D01*
X223278Y229931D01*
X223319Y230025D01*
X223363Y230117D01*
X223411Y230207D01*
X223461Y230296D01*
X223515Y230383D01*
X223572Y230468D01*
X223632Y230551D01*
X225918Y228074D02*
X225877Y228009D01*
X225834Y227946D01*
X225787Y227886D01*
X225737Y227827D01*
X225685Y227772D01*
X225630Y227719D01*
X225572Y227668D01*
X225512Y227621D01*
X225449Y227577D01*
X225385Y227535D01*
X225319Y227497D01*
X225250Y227463D01*
X225180Y227432D01*
X225109Y227404D01*
X225037Y227380D01*
X224963Y227359D01*
X224888Y227342D01*
X224813Y227329D01*
X224737Y227320D01*
X224661Y227314D01*
X224584Y227312D01*
X227060Y230170D02*
X227101Y230235D01*
X227144Y230298D01*
X227191Y230358D01*
X227241Y230417D01*
X227293Y230472D01*
X227348Y230525D01*
X227406Y230576D01*
X227466Y230623D01*
X227529Y230667D01*
X227593Y230709D01*
X227659Y230747D01*
X227728Y230781D01*
X227798Y230812D01*
X227869Y230840D01*
X227941Y230864D01*
X228015Y230885D01*
X228090Y230902D01*
X228165Y230915D01*
X228241Y230924D01*
X228317Y230930D01*
X228394Y230932D01*
X227061Y230169D02*
X225918Y228074D01*
X223060Y235610D02*
X229918Y235610D01*
X223060Y233705D02*
X223060Y237515D01*
X221570Y206515D02*
X219665Y204991D01*
X221570Y206515D02*
X221570Y199657D01*
X219665Y199657D02*
X223475Y199657D01*
X226980Y199657D02*
X228885Y199657D01*
X228970Y199659D01*
X229056Y199665D01*
X229141Y199674D01*
X229225Y199688D01*
X229309Y199705D01*
X229392Y199726D01*
X229474Y199750D01*
X229554Y199778D01*
X229634Y199810D01*
X229712Y199846D01*
X229788Y199884D01*
X229862Y199927D01*
X229934Y199972D01*
X230005Y200021D01*
X230073Y200073D01*
X230138Y200127D01*
X230201Y200185D01*
X230262Y200246D01*
X230320Y200309D01*
X230374Y200374D01*
X230426Y200442D01*
X230475Y200513D01*
X230520Y200585D01*
X230563Y200659D01*
X230601Y200735D01*
X230637Y200813D01*
X230669Y200893D01*
X230697Y200973D01*
X230721Y201055D01*
X230742Y201138D01*
X230759Y201222D01*
X230773Y201306D01*
X230782Y201391D01*
X230788Y201477D01*
X230790Y201562D01*
X230788Y201647D01*
X230782Y201733D01*
X230773Y201818D01*
X230759Y201902D01*
X230742Y201986D01*
X230721Y202069D01*
X230697Y202151D01*
X230669Y202231D01*
X230637Y202311D01*
X230601Y202389D01*
X230563Y202465D01*
X230520Y202539D01*
X230475Y202611D01*
X230426Y202682D01*
X230374Y202750D01*
X230320Y202815D01*
X230262Y202878D01*
X230201Y202939D01*
X230138Y202997D01*
X230073Y203051D01*
X230005Y203103D01*
X229934Y203152D01*
X229862Y203197D01*
X229788Y203240D01*
X229712Y203278D01*
X229634Y203314D01*
X229554Y203346D01*
X229474Y203374D01*
X229392Y203398D01*
X229309Y203419D01*
X229225Y203436D01*
X229141Y203450D01*
X229056Y203459D01*
X228970Y203465D01*
X228885Y203467D01*
X229266Y206515D02*
X226980Y206515D01*
X229266Y206515D02*
X229343Y206513D01*
X229420Y206507D01*
X229497Y206497D01*
X229573Y206484D01*
X229648Y206466D01*
X229722Y206445D01*
X229795Y206420D01*
X229867Y206391D01*
X229937Y206359D01*
X230006Y206324D01*
X230072Y206284D01*
X230137Y206242D01*
X230199Y206196D01*
X230259Y206147D01*
X230316Y206096D01*
X230371Y206041D01*
X230422Y205984D01*
X230471Y205924D01*
X230517Y205862D01*
X230559Y205797D01*
X230599Y205731D01*
X230634Y205662D01*
X230666Y205592D01*
X230695Y205520D01*
X230720Y205447D01*
X230741Y205373D01*
X230759Y205298D01*
X230772Y205222D01*
X230782Y205145D01*
X230788Y205068D01*
X230790Y204991D01*
X230788Y204914D01*
X230782Y204837D01*
X230772Y204760D01*
X230759Y204684D01*
X230741Y204609D01*
X230720Y204535D01*
X230695Y204462D01*
X230666Y204390D01*
X230634Y204320D01*
X230599Y204251D01*
X230559Y204185D01*
X230517Y204120D01*
X230471Y204058D01*
X230422Y203998D01*
X230371Y203941D01*
X230316Y203886D01*
X230259Y203835D01*
X230199Y203786D01*
X230137Y203740D01*
X230072Y203698D01*
X230006Y203658D01*
X229937Y203623D01*
X229867Y203591D01*
X229795Y203562D01*
X229722Y203537D01*
X229648Y203516D01*
X229573Y203498D01*
X229497Y203485D01*
X229420Y203475D01*
X229343Y203469D01*
X229266Y203467D01*
X227742Y203467D01*
X221570Y180515D02*
X219665Y178991D01*
X221570Y180515D02*
X221570Y173657D01*
X219665Y173657D02*
X223475Y173657D01*
X229076Y180516D02*
X229158Y180514D01*
X229239Y180508D01*
X229320Y180499D01*
X229401Y180485D01*
X229480Y180468D01*
X229559Y180447D01*
X229637Y180422D01*
X229713Y180393D01*
X229788Y180361D01*
X229862Y180325D01*
X229934Y180286D01*
X230003Y180244D01*
X230071Y180198D01*
X230136Y180149D01*
X230199Y180097D01*
X230259Y180042D01*
X230317Y179984D01*
X230372Y179924D01*
X230424Y179861D01*
X230473Y179796D01*
X230519Y179728D01*
X230561Y179659D01*
X230600Y179587D01*
X230636Y179513D01*
X230668Y179438D01*
X230697Y179362D01*
X230722Y179284D01*
X230743Y179205D01*
X230760Y179126D01*
X230774Y179045D01*
X230783Y178964D01*
X230789Y178883D01*
X230791Y178801D01*
X229076Y180515D02*
X228984Y180513D01*
X228892Y180507D01*
X228800Y180498D01*
X228708Y180484D01*
X228618Y180467D01*
X228528Y180446D01*
X228439Y180421D01*
X228351Y180392D01*
X228264Y180360D01*
X228179Y180324D01*
X228096Y180285D01*
X228014Y180242D01*
X227934Y180196D01*
X227856Y180146D01*
X227780Y180094D01*
X227707Y180038D01*
X227636Y179979D01*
X227567Y179917D01*
X227501Y179852D01*
X227438Y179785D01*
X227378Y179715D01*
X227320Y179643D01*
X227266Y179568D01*
X227215Y179491D01*
X227167Y179412D01*
X227123Y179331D01*
X227082Y179248D01*
X227044Y179164D01*
X227010Y179078D01*
X226980Y178991D01*
X230219Y177467D02*
X230278Y177526D01*
X230334Y177587D01*
X230387Y177650D01*
X230438Y177716D01*
X230485Y177784D01*
X230529Y177854D01*
X230570Y177926D01*
X230608Y178000D01*
X230642Y178075D01*
X230673Y178152D01*
X230700Y178230D01*
X230724Y178310D01*
X230745Y178390D01*
X230761Y178471D01*
X230774Y178553D01*
X230784Y178635D01*
X230789Y178718D01*
X230791Y178801D01*
X230219Y177467D02*
X226980Y173657D01*
X230790Y173657D01*
X221570Y155515D02*
X219665Y153991D01*
X221570Y155515D02*
X221570Y148657D01*
X219665Y148657D02*
X223475Y148657D01*
X226980Y153991D02*
X228885Y155515D01*
X228885Y148657D01*
X226980Y148657D02*
X230790Y148657D01*
X221570Y129515D02*
X219665Y127991D01*
X221570Y129515D02*
X221570Y122657D01*
X219665Y122657D02*
X223475Y122657D01*
X226980Y126086D02*
X226982Y126228D01*
X226987Y126371D01*
X226996Y126513D01*
X227009Y126655D01*
X227025Y126796D01*
X227044Y126937D01*
X227068Y127078D01*
X227094Y127218D01*
X227125Y127357D01*
X227159Y127495D01*
X227196Y127633D01*
X227236Y127769D01*
X227281Y127905D01*
X227328Y128039D01*
X227379Y128172D01*
X227433Y128304D01*
X227491Y128434D01*
X227552Y128563D01*
X227551Y128562D02*
X227577Y128631D01*
X227606Y128697D01*
X227638Y128763D01*
X227673Y128826D01*
X227712Y128888D01*
X227754Y128948D01*
X227799Y129005D01*
X227847Y129060D01*
X227898Y129112D01*
X227951Y129162D01*
X228007Y129208D01*
X228065Y129252D01*
X228126Y129293D01*
X228188Y129331D01*
X228252Y129365D01*
X228318Y129396D01*
X228386Y129424D01*
X228455Y129448D01*
X228525Y129468D01*
X228596Y129485D01*
X228667Y129498D01*
X228739Y129507D01*
X228812Y129513D01*
X228885Y129515D01*
X228958Y129513D01*
X229031Y129507D01*
X229103Y129498D01*
X229174Y129485D01*
X229245Y129468D01*
X229315Y129448D01*
X229384Y129424D01*
X229452Y129396D01*
X229518Y129365D01*
X229582Y129331D01*
X229644Y129293D01*
X229705Y129252D01*
X229763Y129208D01*
X229819Y129162D01*
X229872Y129112D01*
X229923Y129060D01*
X229971Y129005D01*
X230016Y128948D01*
X230058Y128888D01*
X230097Y128826D01*
X230132Y128763D01*
X230164Y128697D01*
X230193Y128631D01*
X230219Y128562D01*
X230219Y128563D02*
X230280Y128434D01*
X230338Y128304D01*
X230392Y128172D01*
X230443Y128039D01*
X230490Y127905D01*
X230535Y127769D01*
X230575Y127633D01*
X230612Y127495D01*
X230646Y127357D01*
X230677Y127218D01*
X230703Y127078D01*
X230727Y126937D01*
X230746Y126796D01*
X230762Y126655D01*
X230775Y126513D01*
X230784Y126371D01*
X230789Y126228D01*
X230791Y126086D01*
X226980Y126086D02*
X226982Y125944D01*
X226987Y125801D01*
X226996Y125659D01*
X227009Y125517D01*
X227025Y125376D01*
X227044Y125235D01*
X227068Y125094D01*
X227094Y124954D01*
X227125Y124815D01*
X227159Y124677D01*
X227196Y124539D01*
X227236Y124403D01*
X227281Y124267D01*
X227328Y124133D01*
X227379Y124000D01*
X227433Y123868D01*
X227491Y123738D01*
X227552Y123609D01*
X227551Y123610D02*
X227577Y123541D01*
X227606Y123475D01*
X227638Y123409D01*
X227673Y123346D01*
X227712Y123284D01*
X227754Y123224D01*
X227799Y123167D01*
X227847Y123112D01*
X227898Y123060D01*
X227951Y123010D01*
X228007Y122964D01*
X228065Y122920D01*
X228126Y122879D01*
X228188Y122841D01*
X228252Y122807D01*
X228318Y122776D01*
X228386Y122748D01*
X228455Y122724D01*
X228525Y122704D01*
X228596Y122687D01*
X228667Y122674D01*
X228739Y122665D01*
X228812Y122659D01*
X228885Y122657D01*
X230219Y123609D02*
X230280Y123738D01*
X230338Y123868D01*
X230392Y124000D01*
X230443Y124133D01*
X230490Y124267D01*
X230535Y124403D01*
X230575Y124539D01*
X230612Y124677D01*
X230646Y124815D01*
X230677Y124954D01*
X230703Y125094D01*
X230727Y125235D01*
X230746Y125376D01*
X230762Y125517D01*
X230775Y125659D01*
X230784Y125801D01*
X230789Y125944D01*
X230791Y126086D01*
X230219Y123610D02*
X230193Y123541D01*
X230164Y123475D01*
X230132Y123409D01*
X230097Y123346D01*
X230058Y123284D01*
X230016Y123224D01*
X229971Y123167D01*
X229923Y123112D01*
X229872Y123060D01*
X229819Y123010D01*
X229763Y122964D01*
X229705Y122920D01*
X229644Y122879D01*
X229582Y122841D01*
X229518Y122807D01*
X229452Y122776D01*
X229384Y122748D01*
X229315Y122724D01*
X229245Y122704D01*
X229174Y122687D01*
X229103Y122674D01*
X229031Y122665D01*
X228958Y122659D01*
X228885Y122657D01*
X227361Y124181D02*
X230409Y127991D01*
X230790Y100705D02*
X228504Y100705D01*
X228427Y100707D01*
X228350Y100713D01*
X228273Y100723D01*
X228197Y100736D01*
X228122Y100754D01*
X228048Y100775D01*
X227975Y100800D01*
X227903Y100829D01*
X227833Y100861D01*
X227764Y100896D01*
X227698Y100936D01*
X227633Y100978D01*
X227571Y101024D01*
X227511Y101073D01*
X227454Y101124D01*
X227399Y101179D01*
X227348Y101236D01*
X227299Y101296D01*
X227253Y101358D01*
X227211Y101423D01*
X227171Y101489D01*
X227136Y101558D01*
X227104Y101628D01*
X227075Y101700D01*
X227050Y101773D01*
X227029Y101847D01*
X227011Y101922D01*
X226998Y101998D01*
X226988Y102075D01*
X226982Y102152D01*
X226980Y102229D01*
X226980Y102610D01*
X226982Y102695D01*
X226988Y102781D01*
X226997Y102866D01*
X227011Y102950D01*
X227028Y103034D01*
X227049Y103117D01*
X227073Y103199D01*
X227101Y103279D01*
X227133Y103359D01*
X227169Y103437D01*
X227207Y103513D01*
X227250Y103587D01*
X227295Y103659D01*
X227344Y103730D01*
X227396Y103798D01*
X227450Y103863D01*
X227508Y103926D01*
X227569Y103987D01*
X227632Y104045D01*
X227697Y104099D01*
X227765Y104151D01*
X227836Y104200D01*
X227908Y104245D01*
X227982Y104288D01*
X228058Y104326D01*
X228136Y104362D01*
X228216Y104394D01*
X228296Y104422D01*
X228378Y104446D01*
X228461Y104467D01*
X228545Y104484D01*
X228629Y104498D01*
X228714Y104507D01*
X228800Y104513D01*
X228885Y104515D01*
X228970Y104513D01*
X229056Y104507D01*
X229141Y104498D01*
X229225Y104484D01*
X229309Y104467D01*
X229392Y104446D01*
X229474Y104422D01*
X229554Y104394D01*
X229634Y104362D01*
X229712Y104326D01*
X229788Y104288D01*
X229862Y104245D01*
X229934Y104200D01*
X230005Y104151D01*
X230073Y104099D01*
X230138Y104045D01*
X230201Y103987D01*
X230262Y103926D01*
X230320Y103863D01*
X230374Y103798D01*
X230426Y103730D01*
X230475Y103659D01*
X230520Y103587D01*
X230563Y103513D01*
X230601Y103437D01*
X230637Y103359D01*
X230669Y103279D01*
X230697Y103199D01*
X230721Y103117D01*
X230742Y103034D01*
X230759Y102950D01*
X230773Y102866D01*
X230782Y102781D01*
X230788Y102695D01*
X230790Y102610D01*
X230790Y100705D01*
X230788Y100596D01*
X230782Y100488D01*
X230773Y100379D01*
X230759Y100271D01*
X230742Y100164D01*
X230720Y100057D01*
X230695Y99951D01*
X230667Y99846D01*
X230634Y99742D01*
X230598Y99640D01*
X230558Y99539D01*
X230515Y99439D01*
X230468Y99341D01*
X230417Y99244D01*
X230363Y99150D01*
X230306Y99057D01*
X230246Y98967D01*
X230182Y98878D01*
X230115Y98792D01*
X230046Y98709D01*
X229973Y98628D01*
X229897Y98550D01*
X229819Y98474D01*
X229738Y98401D01*
X229655Y98332D01*
X229569Y98265D01*
X229480Y98201D01*
X229390Y98141D01*
X229297Y98084D01*
X229203Y98030D01*
X229106Y97979D01*
X229008Y97932D01*
X228908Y97889D01*
X228807Y97849D01*
X228705Y97813D01*
X228601Y97780D01*
X228496Y97752D01*
X228390Y97727D01*
X228283Y97705D01*
X228176Y97688D01*
X228068Y97674D01*
X227959Y97665D01*
X227851Y97659D01*
X227742Y97657D01*
X226980Y73562D02*
X226982Y73647D01*
X226988Y73733D01*
X226997Y73818D01*
X227011Y73902D01*
X227028Y73986D01*
X227049Y74069D01*
X227073Y74151D01*
X227101Y74231D01*
X227133Y74311D01*
X227169Y74389D01*
X227207Y74465D01*
X227250Y74539D01*
X227295Y74611D01*
X227344Y74682D01*
X227396Y74750D01*
X227450Y74815D01*
X227508Y74878D01*
X227569Y74939D01*
X227632Y74997D01*
X227697Y75051D01*
X227765Y75103D01*
X227836Y75152D01*
X227908Y75197D01*
X227982Y75240D01*
X228058Y75278D01*
X228136Y75314D01*
X228216Y75346D01*
X228296Y75374D01*
X228378Y75398D01*
X228461Y75419D01*
X228545Y75436D01*
X228629Y75450D01*
X228714Y75459D01*
X228800Y75465D01*
X228885Y75467D01*
X228970Y75465D01*
X229056Y75459D01*
X229141Y75450D01*
X229225Y75436D01*
X229309Y75419D01*
X229392Y75398D01*
X229474Y75374D01*
X229554Y75346D01*
X229634Y75314D01*
X229712Y75278D01*
X229788Y75240D01*
X229862Y75197D01*
X229934Y75152D01*
X230005Y75103D01*
X230073Y75051D01*
X230138Y74997D01*
X230201Y74939D01*
X230262Y74878D01*
X230320Y74815D01*
X230374Y74750D01*
X230426Y74682D01*
X230475Y74611D01*
X230520Y74539D01*
X230563Y74465D01*
X230601Y74389D01*
X230637Y74311D01*
X230669Y74231D01*
X230697Y74151D01*
X230721Y74069D01*
X230742Y73986D01*
X230759Y73902D01*
X230773Y73818D01*
X230782Y73733D01*
X230788Y73647D01*
X230790Y73562D01*
X230788Y73477D01*
X230782Y73391D01*
X230773Y73306D01*
X230759Y73222D01*
X230742Y73138D01*
X230721Y73055D01*
X230697Y72973D01*
X230669Y72893D01*
X230637Y72813D01*
X230601Y72735D01*
X230563Y72659D01*
X230520Y72585D01*
X230475Y72513D01*
X230426Y72442D01*
X230374Y72374D01*
X230320Y72309D01*
X230262Y72246D01*
X230201Y72185D01*
X230138Y72127D01*
X230073Y72073D01*
X230005Y72021D01*
X229934Y71972D01*
X229862Y71927D01*
X229788Y71884D01*
X229712Y71846D01*
X229634Y71810D01*
X229554Y71778D01*
X229474Y71750D01*
X229392Y71726D01*
X229309Y71705D01*
X229225Y71688D01*
X229141Y71674D01*
X229056Y71665D01*
X228970Y71659D01*
X228885Y71657D01*
X228800Y71659D01*
X228714Y71665D01*
X228629Y71674D01*
X228545Y71688D01*
X228461Y71705D01*
X228378Y71726D01*
X228296Y71750D01*
X228216Y71778D01*
X228136Y71810D01*
X228058Y71846D01*
X227982Y71884D01*
X227908Y71927D01*
X227836Y71972D01*
X227765Y72021D01*
X227697Y72073D01*
X227632Y72127D01*
X227569Y72185D01*
X227508Y72246D01*
X227450Y72309D01*
X227396Y72374D01*
X227344Y72442D01*
X227295Y72513D01*
X227250Y72585D01*
X227207Y72659D01*
X227169Y72735D01*
X227133Y72813D01*
X227101Y72893D01*
X227073Y72973D01*
X227049Y73055D01*
X227028Y73138D01*
X227011Y73222D01*
X226997Y73306D01*
X226988Y73391D01*
X226982Y73477D01*
X226980Y73562D01*
X227361Y76991D02*
X227363Y77068D01*
X227369Y77145D01*
X227379Y77222D01*
X227392Y77298D01*
X227410Y77373D01*
X227431Y77447D01*
X227456Y77520D01*
X227485Y77592D01*
X227517Y77662D01*
X227552Y77731D01*
X227592Y77797D01*
X227634Y77862D01*
X227680Y77924D01*
X227729Y77984D01*
X227780Y78041D01*
X227835Y78096D01*
X227892Y78147D01*
X227952Y78196D01*
X228014Y78242D01*
X228079Y78284D01*
X228145Y78324D01*
X228214Y78359D01*
X228284Y78391D01*
X228356Y78420D01*
X228429Y78445D01*
X228503Y78466D01*
X228578Y78484D01*
X228654Y78497D01*
X228731Y78507D01*
X228808Y78513D01*
X228885Y78515D01*
X228962Y78513D01*
X229039Y78507D01*
X229116Y78497D01*
X229192Y78484D01*
X229267Y78466D01*
X229341Y78445D01*
X229414Y78420D01*
X229486Y78391D01*
X229556Y78359D01*
X229625Y78324D01*
X229691Y78284D01*
X229756Y78242D01*
X229818Y78196D01*
X229878Y78147D01*
X229935Y78096D01*
X229990Y78041D01*
X230041Y77984D01*
X230090Y77924D01*
X230136Y77862D01*
X230178Y77797D01*
X230218Y77731D01*
X230253Y77662D01*
X230285Y77592D01*
X230314Y77520D01*
X230339Y77447D01*
X230360Y77373D01*
X230378Y77298D01*
X230391Y77222D01*
X230401Y77145D01*
X230407Y77068D01*
X230409Y76991D01*
X230407Y76914D01*
X230401Y76837D01*
X230391Y76760D01*
X230378Y76684D01*
X230360Y76609D01*
X230339Y76535D01*
X230314Y76462D01*
X230285Y76390D01*
X230253Y76320D01*
X230218Y76251D01*
X230178Y76185D01*
X230136Y76120D01*
X230090Y76058D01*
X230041Y75998D01*
X229990Y75941D01*
X229935Y75886D01*
X229878Y75835D01*
X229818Y75786D01*
X229756Y75740D01*
X229691Y75698D01*
X229625Y75658D01*
X229556Y75623D01*
X229486Y75591D01*
X229414Y75562D01*
X229341Y75537D01*
X229267Y75516D01*
X229192Y75498D01*
X229116Y75485D01*
X229039Y75475D01*
X228962Y75469D01*
X228885Y75467D01*
X228808Y75469D01*
X228731Y75475D01*
X228654Y75485D01*
X228578Y75498D01*
X228503Y75516D01*
X228429Y75537D01*
X228356Y75562D01*
X228284Y75591D01*
X228214Y75623D01*
X228145Y75658D01*
X228079Y75698D01*
X228014Y75740D01*
X227952Y75786D01*
X227892Y75835D01*
X227835Y75886D01*
X227780Y75941D01*
X227729Y75998D01*
X227680Y76058D01*
X227634Y76120D01*
X227592Y76185D01*
X227552Y76251D01*
X227517Y76320D01*
X227485Y76390D01*
X227456Y76462D01*
X227431Y76535D01*
X227410Y76609D01*
X227392Y76684D01*
X227379Y76760D01*
X227369Y76837D01*
X227363Y76914D01*
X227361Y76991D01*
X232918Y41980D02*
X232918Y40075D01*
X232918Y41980D02*
X232916Y42065D01*
X232910Y42151D01*
X232901Y42236D01*
X232887Y42320D01*
X232870Y42404D01*
X232849Y42487D01*
X232825Y42569D01*
X232797Y42649D01*
X232765Y42729D01*
X232729Y42807D01*
X232691Y42883D01*
X232648Y42957D01*
X232603Y43029D01*
X232554Y43100D01*
X232502Y43168D01*
X232448Y43233D01*
X232390Y43296D01*
X232329Y43357D01*
X232266Y43415D01*
X232201Y43469D01*
X232133Y43521D01*
X232062Y43570D01*
X231990Y43615D01*
X231916Y43658D01*
X231840Y43696D01*
X231762Y43732D01*
X231682Y43764D01*
X231602Y43792D01*
X231520Y43816D01*
X231437Y43837D01*
X231353Y43854D01*
X231269Y43868D01*
X231184Y43877D01*
X231098Y43883D01*
X231013Y43885D01*
X230928Y43883D01*
X230842Y43877D01*
X230757Y43868D01*
X230673Y43854D01*
X230589Y43837D01*
X230506Y43816D01*
X230424Y43792D01*
X230344Y43764D01*
X230264Y43732D01*
X230186Y43696D01*
X230110Y43658D01*
X230036Y43615D01*
X229964Y43570D01*
X229893Y43521D01*
X229825Y43469D01*
X229760Y43415D01*
X229697Y43357D01*
X229636Y43296D01*
X229578Y43233D01*
X229524Y43168D01*
X229472Y43100D01*
X229423Y43029D01*
X229378Y42957D01*
X229335Y42883D01*
X229297Y42807D01*
X229261Y42729D01*
X229229Y42649D01*
X229201Y42569D01*
X229177Y42487D01*
X229156Y42404D01*
X229139Y42320D01*
X229125Y42236D01*
X229116Y42151D01*
X229110Y42065D01*
X229108Y41980D01*
X226060Y42361D02*
X226060Y40075D01*
X226060Y42361D02*
X226062Y42438D01*
X226068Y42515D01*
X226078Y42592D01*
X226091Y42668D01*
X226109Y42743D01*
X226130Y42817D01*
X226155Y42890D01*
X226184Y42962D01*
X226216Y43032D01*
X226251Y43101D01*
X226291Y43167D01*
X226333Y43232D01*
X226379Y43294D01*
X226428Y43354D01*
X226479Y43411D01*
X226534Y43466D01*
X226591Y43517D01*
X226651Y43566D01*
X226713Y43612D01*
X226778Y43654D01*
X226844Y43694D01*
X226913Y43729D01*
X226983Y43761D01*
X227055Y43790D01*
X227128Y43815D01*
X227202Y43836D01*
X227277Y43854D01*
X227353Y43867D01*
X227430Y43877D01*
X227507Y43883D01*
X227584Y43885D01*
X227661Y43883D01*
X227738Y43877D01*
X227815Y43867D01*
X227891Y43854D01*
X227966Y43836D01*
X228040Y43815D01*
X228113Y43790D01*
X228185Y43761D01*
X228255Y43729D01*
X228324Y43694D01*
X228390Y43654D01*
X228455Y43612D01*
X228517Y43566D01*
X228577Y43517D01*
X228634Y43466D01*
X228689Y43411D01*
X228740Y43354D01*
X228789Y43294D01*
X228835Y43232D01*
X228877Y43167D01*
X228917Y43101D01*
X228952Y43032D01*
X228984Y42962D01*
X229013Y42890D01*
X229038Y42817D01*
X229059Y42743D01*
X229077Y42668D01*
X229090Y42592D01*
X229100Y42515D01*
X229106Y42438D01*
X229108Y42361D01*
X229108Y40837D01*
X226060Y47009D02*
X232918Y49295D01*
X226060Y51581D01*
X232918Y54705D02*
X232918Y56610D01*
X232916Y56695D01*
X232910Y56781D01*
X232901Y56866D01*
X232887Y56950D01*
X232870Y57034D01*
X232849Y57117D01*
X232825Y57199D01*
X232797Y57279D01*
X232765Y57359D01*
X232729Y57437D01*
X232691Y57513D01*
X232648Y57587D01*
X232603Y57659D01*
X232554Y57730D01*
X232502Y57798D01*
X232448Y57863D01*
X232390Y57926D01*
X232329Y57987D01*
X232266Y58045D01*
X232201Y58099D01*
X232133Y58151D01*
X232062Y58200D01*
X231990Y58245D01*
X231916Y58288D01*
X231840Y58326D01*
X231762Y58362D01*
X231682Y58394D01*
X231602Y58422D01*
X231520Y58446D01*
X231437Y58467D01*
X231353Y58484D01*
X231269Y58498D01*
X231184Y58507D01*
X231098Y58513D01*
X231013Y58515D01*
X230928Y58513D01*
X230842Y58507D01*
X230757Y58498D01*
X230673Y58484D01*
X230589Y58467D01*
X230506Y58446D01*
X230424Y58422D01*
X230344Y58394D01*
X230264Y58362D01*
X230186Y58326D01*
X230110Y58288D01*
X230036Y58245D01*
X229964Y58200D01*
X229893Y58151D01*
X229825Y58099D01*
X229760Y58045D01*
X229697Y57987D01*
X229636Y57926D01*
X229578Y57863D01*
X229524Y57798D01*
X229472Y57730D01*
X229423Y57659D01*
X229378Y57587D01*
X229335Y57513D01*
X229297Y57437D01*
X229261Y57359D01*
X229229Y57279D01*
X229201Y57199D01*
X229177Y57117D01*
X229156Y57034D01*
X229139Y56950D01*
X229125Y56866D01*
X229116Y56781D01*
X229110Y56695D01*
X229108Y56610D01*
X226060Y56991D02*
X226060Y54705D01*
X226060Y56991D02*
X226062Y57068D01*
X226068Y57145D01*
X226078Y57222D01*
X226091Y57298D01*
X226109Y57373D01*
X226130Y57447D01*
X226155Y57520D01*
X226184Y57592D01*
X226216Y57662D01*
X226251Y57731D01*
X226291Y57797D01*
X226333Y57862D01*
X226379Y57924D01*
X226428Y57984D01*
X226479Y58041D01*
X226534Y58096D01*
X226591Y58147D01*
X226651Y58196D01*
X226713Y58242D01*
X226778Y58284D01*
X226844Y58324D01*
X226913Y58359D01*
X226983Y58391D01*
X227055Y58420D01*
X227128Y58445D01*
X227202Y58466D01*
X227277Y58484D01*
X227353Y58497D01*
X227430Y58507D01*
X227507Y58513D01*
X227584Y58515D01*
X227661Y58513D01*
X227738Y58507D01*
X227815Y58497D01*
X227891Y58484D01*
X227966Y58466D01*
X228040Y58445D01*
X228113Y58420D01*
X228185Y58391D01*
X228255Y58359D01*
X228324Y58324D01*
X228390Y58284D01*
X228455Y58242D01*
X228517Y58196D01*
X228577Y58147D01*
X228634Y58096D01*
X228689Y58041D01*
X228740Y57984D01*
X228789Y57924D01*
X228835Y57862D01*
X228877Y57797D01*
X228917Y57731D01*
X228952Y57662D01*
X228984Y57592D01*
X229013Y57520D01*
X229038Y57447D01*
X229059Y57373D01*
X229077Y57298D01*
X229090Y57222D01*
X229100Y57145D01*
X229106Y57068D01*
X229108Y56991D01*
X229108Y55467D01*
X229108Y16909D02*
X229108Y15766D01*
X229108Y16909D02*
X232918Y16909D01*
X232918Y14623D01*
X232916Y14546D01*
X232910Y14469D01*
X232900Y14392D01*
X232887Y14316D01*
X232869Y14241D01*
X232848Y14167D01*
X232823Y14094D01*
X232794Y14022D01*
X232762Y13952D01*
X232727Y13883D01*
X232687Y13817D01*
X232645Y13752D01*
X232599Y13690D01*
X232550Y13630D01*
X232499Y13573D01*
X232444Y13518D01*
X232387Y13467D01*
X232327Y13418D01*
X232265Y13372D01*
X232200Y13330D01*
X232134Y13290D01*
X232065Y13255D01*
X231995Y13223D01*
X231923Y13194D01*
X231850Y13169D01*
X231776Y13148D01*
X231701Y13130D01*
X231625Y13117D01*
X231548Y13107D01*
X231471Y13101D01*
X231394Y13099D01*
X227584Y13099D01*
X227507Y13101D01*
X227430Y13107D01*
X227353Y13117D01*
X227277Y13130D01*
X227202Y13148D01*
X227128Y13169D01*
X227055Y13194D01*
X226983Y13223D01*
X226913Y13255D01*
X226844Y13290D01*
X226778Y13330D01*
X226713Y13372D01*
X226651Y13418D01*
X226591Y13467D01*
X226534Y13518D01*
X226479Y13573D01*
X226428Y13630D01*
X226379Y13690D01*
X226333Y13752D01*
X226291Y13817D01*
X226251Y13883D01*
X226216Y13952D01*
X226184Y14022D01*
X226155Y14094D01*
X226130Y14167D01*
X226109Y14241D01*
X226091Y14316D01*
X226078Y14392D01*
X226068Y14469D01*
X226062Y14546D01*
X226060Y14623D01*
X226060Y16909D01*
X226060Y20902D02*
X232918Y20902D01*
X232918Y24712D02*
X226060Y20902D01*
X226060Y24712D02*
X232918Y24712D01*
X232918Y28705D02*
X226060Y28705D01*
X226060Y30610D01*
X226062Y30695D01*
X226068Y30781D01*
X226077Y30866D01*
X226091Y30950D01*
X226108Y31034D01*
X226129Y31117D01*
X226153Y31199D01*
X226181Y31279D01*
X226213Y31359D01*
X226249Y31437D01*
X226287Y31513D01*
X226330Y31587D01*
X226375Y31659D01*
X226424Y31730D01*
X226476Y31798D01*
X226530Y31863D01*
X226588Y31926D01*
X226649Y31987D01*
X226712Y32045D01*
X226777Y32099D01*
X226845Y32151D01*
X226916Y32200D01*
X226988Y32245D01*
X227062Y32288D01*
X227138Y32326D01*
X227216Y32362D01*
X227296Y32394D01*
X227376Y32422D01*
X227458Y32446D01*
X227541Y32467D01*
X227625Y32484D01*
X227709Y32498D01*
X227794Y32507D01*
X227880Y32513D01*
X227965Y32515D01*
X231013Y32515D01*
X231098Y32513D01*
X231184Y32507D01*
X231269Y32498D01*
X231353Y32484D01*
X231437Y32467D01*
X231520Y32446D01*
X231602Y32422D01*
X231682Y32394D01*
X231762Y32362D01*
X231840Y32326D01*
X231916Y32288D01*
X231990Y32245D01*
X232062Y32200D01*
X232133Y32151D01*
X232201Y32099D01*
X232266Y32045D01*
X232329Y31987D01*
X232390Y31926D01*
X232448Y31863D01*
X232502Y31798D01*
X232554Y31730D01*
X232603Y31659D01*
X232648Y31587D01*
X232691Y31513D01*
X232729Y31437D01*
X232765Y31359D01*
X232797Y31279D01*
X232825Y31199D01*
X232849Y31117D01*
X232870Y31034D01*
X232887Y30950D01*
X232901Y30866D01*
X232910Y30781D01*
X232916Y30695D01*
X232918Y30610D01*
X232918Y28705D01*
D12*
X134294Y166700D02*
X125706Y166700D01*
X125706Y141300D02*
X134294Y141300D01*
X122912Y151316D02*
X122912Y156684D01*
D13*
X140160Y137998D03*
D12*
X67000Y43380D02*
X67000Y16620D01*
X39000Y16620D02*
X39000Y43380D01*
X51700Y9000D02*
X54300Y9000D01*
X54300Y51000D02*
X51700Y51000D01*
D11*
X44950Y30000D02*
X44952Y30198D01*
X44960Y30395D01*
X44972Y30592D01*
X44989Y30789D01*
X45011Y30985D01*
X45037Y31181D01*
X45069Y31376D01*
X45105Y31570D01*
X45146Y31764D01*
X45191Y31956D01*
X45242Y32147D01*
X45297Y32337D01*
X45356Y32525D01*
X45421Y32712D01*
X45489Y32897D01*
X45563Y33081D01*
X45641Y33262D01*
X45723Y33442D01*
X45810Y33619D01*
X45901Y33795D01*
X45996Y33968D01*
X46095Y34139D01*
X46199Y34307D01*
X46307Y34472D01*
X46418Y34635D01*
X46534Y34795D01*
X46654Y34953D01*
X46777Y35107D01*
X46904Y35258D01*
X47035Y35406D01*
X47170Y35551D01*
X47308Y35692D01*
X47449Y35830D01*
X47594Y35965D01*
X47742Y36096D01*
X47893Y36223D01*
X48047Y36346D01*
X48205Y36466D01*
X48365Y36582D01*
X48528Y36693D01*
X48693Y36801D01*
X48861Y36905D01*
X49032Y37004D01*
X49205Y37099D01*
X49381Y37190D01*
X49558Y37277D01*
X49738Y37359D01*
X49919Y37437D01*
X50103Y37511D01*
X50288Y37579D01*
X50475Y37644D01*
X50663Y37703D01*
X50853Y37758D01*
X51044Y37809D01*
X51236Y37854D01*
X51430Y37895D01*
X51624Y37931D01*
X51819Y37963D01*
X52015Y37989D01*
X52211Y38011D01*
X52408Y38028D01*
X52605Y38040D01*
X52802Y38048D01*
X53000Y38050D01*
X53198Y38048D01*
X53395Y38040D01*
X53592Y38028D01*
X53789Y38011D01*
X53985Y37989D01*
X54181Y37963D01*
X54376Y37931D01*
X54570Y37895D01*
X54764Y37854D01*
X54956Y37809D01*
X55147Y37758D01*
X55337Y37703D01*
X55525Y37644D01*
X55712Y37579D01*
X55897Y37511D01*
X56081Y37437D01*
X56262Y37359D01*
X56442Y37277D01*
X56619Y37190D01*
X56795Y37099D01*
X56968Y37004D01*
X57139Y36905D01*
X57307Y36801D01*
X57472Y36693D01*
X57635Y36582D01*
X57795Y36466D01*
X57953Y36346D01*
X58107Y36223D01*
X58258Y36096D01*
X58406Y35965D01*
X58551Y35830D01*
X58692Y35692D01*
X58830Y35551D01*
X58965Y35406D01*
X59096Y35258D01*
X59223Y35107D01*
X59346Y34953D01*
X59466Y34795D01*
X59582Y34635D01*
X59693Y34472D01*
X59801Y34307D01*
X59905Y34139D01*
X60004Y33968D01*
X60099Y33795D01*
X60190Y33619D01*
X60277Y33442D01*
X60359Y33262D01*
X60437Y33081D01*
X60511Y32897D01*
X60579Y32712D01*
X60644Y32525D01*
X60703Y32337D01*
X60758Y32147D01*
X60809Y31956D01*
X60854Y31764D01*
X60895Y31570D01*
X60931Y31376D01*
X60963Y31181D01*
X60989Y30985D01*
X61011Y30789D01*
X61028Y30592D01*
X61040Y30395D01*
X61048Y30198D01*
X61050Y30000D01*
X61048Y29802D01*
X61040Y29605D01*
X61028Y29408D01*
X61011Y29211D01*
X60989Y29015D01*
X60963Y28819D01*
X60931Y28624D01*
X60895Y28430D01*
X60854Y28236D01*
X60809Y28044D01*
X60758Y27853D01*
X60703Y27663D01*
X60644Y27475D01*
X60579Y27288D01*
X60511Y27103D01*
X60437Y26919D01*
X60359Y26738D01*
X60277Y26558D01*
X60190Y26381D01*
X60099Y26205D01*
X60004Y26032D01*
X59905Y25861D01*
X59801Y25693D01*
X59693Y25528D01*
X59582Y25365D01*
X59466Y25205D01*
X59346Y25047D01*
X59223Y24893D01*
X59096Y24742D01*
X58965Y24594D01*
X58830Y24449D01*
X58692Y24308D01*
X58551Y24170D01*
X58406Y24035D01*
X58258Y23904D01*
X58107Y23777D01*
X57953Y23654D01*
X57795Y23534D01*
X57635Y23418D01*
X57472Y23307D01*
X57307Y23199D01*
X57139Y23095D01*
X56968Y22996D01*
X56795Y22901D01*
X56619Y22810D01*
X56442Y22723D01*
X56262Y22641D01*
X56081Y22563D01*
X55897Y22489D01*
X55712Y22421D01*
X55525Y22356D01*
X55337Y22297D01*
X55147Y22242D01*
X54956Y22191D01*
X54764Y22146D01*
X54570Y22105D01*
X54376Y22069D01*
X54181Y22037D01*
X53985Y22011D01*
X53789Y21989D01*
X53592Y21972D01*
X53395Y21960D01*
X53198Y21952D01*
X53000Y21950D01*
X52802Y21952D01*
X52605Y21960D01*
X52408Y21972D01*
X52211Y21989D01*
X52015Y22011D01*
X51819Y22037D01*
X51624Y22069D01*
X51430Y22105D01*
X51236Y22146D01*
X51044Y22191D01*
X50853Y22242D01*
X50663Y22297D01*
X50475Y22356D01*
X50288Y22421D01*
X50103Y22489D01*
X49919Y22563D01*
X49738Y22641D01*
X49558Y22723D01*
X49381Y22810D01*
X49205Y22901D01*
X49032Y22996D01*
X48861Y23095D01*
X48693Y23199D01*
X48528Y23307D01*
X48365Y23418D01*
X48205Y23534D01*
X48047Y23654D01*
X47893Y23777D01*
X47742Y23904D01*
X47594Y24035D01*
X47449Y24170D01*
X47308Y24308D01*
X47170Y24449D01*
X47035Y24594D01*
X46904Y24742D01*
X46777Y24893D01*
X46654Y25047D01*
X46534Y25205D01*
X46418Y25365D01*
X46307Y25528D01*
X46199Y25693D01*
X46095Y25861D01*
X45996Y26032D01*
X45901Y26205D01*
X45810Y26381D01*
X45723Y26558D01*
X45641Y26738D01*
X45563Y26919D01*
X45489Y27103D01*
X45421Y27288D01*
X45356Y27475D01*
X45297Y27663D01*
X45242Y27853D01*
X45191Y28044D01*
X45146Y28236D01*
X45105Y28430D01*
X45069Y28624D01*
X45037Y28819D01*
X45011Y29015D01*
X44989Y29211D01*
X44972Y29408D01*
X44960Y29605D01*
X44952Y29802D01*
X44950Y30000D01*
D14*
X44244Y64303D02*
X42409Y64303D01*
X44244Y64302D02*
X44329Y64300D01*
X44413Y64294D01*
X44497Y64284D01*
X44581Y64271D01*
X44664Y64253D01*
X44746Y64232D01*
X44827Y64207D01*
X44907Y64178D01*
X44985Y64146D01*
X45061Y64110D01*
X45136Y64070D01*
X45209Y64027D01*
X45280Y63981D01*
X45349Y63932D01*
X45416Y63879D01*
X45480Y63823D01*
X45541Y63765D01*
X45599Y63704D01*
X45655Y63640D01*
X45708Y63573D01*
X45757Y63504D01*
X45803Y63433D01*
X45846Y63360D01*
X45886Y63285D01*
X45922Y63209D01*
X45954Y63131D01*
X45983Y63051D01*
X46008Y62970D01*
X46029Y62888D01*
X46047Y62805D01*
X46060Y62721D01*
X46070Y62637D01*
X46076Y62553D01*
X46078Y62468D01*
X46076Y62383D01*
X46070Y62299D01*
X46060Y62215D01*
X46047Y62131D01*
X46029Y62048D01*
X46008Y61966D01*
X45983Y61885D01*
X45954Y61805D01*
X45922Y61727D01*
X45886Y61651D01*
X45846Y61576D01*
X45803Y61503D01*
X45757Y61432D01*
X45708Y61363D01*
X45655Y61296D01*
X45599Y61232D01*
X45541Y61171D01*
X45480Y61113D01*
X45416Y61057D01*
X45349Y61004D01*
X45280Y60955D01*
X45209Y60909D01*
X45136Y60866D01*
X45061Y60826D01*
X44985Y60790D01*
X44907Y60758D01*
X44827Y60729D01*
X44746Y60704D01*
X44664Y60683D01*
X44581Y60665D01*
X44497Y60652D01*
X44413Y60642D01*
X44329Y60636D01*
X44244Y60634D01*
X42409Y60634D01*
X42409Y67238D01*
X44244Y67238D01*
X44320Y67236D01*
X44395Y67230D01*
X44470Y67221D01*
X44544Y67207D01*
X44618Y67190D01*
X44690Y67168D01*
X44762Y67144D01*
X44832Y67115D01*
X44900Y67083D01*
X44967Y67048D01*
X45032Y67009D01*
X45095Y66966D01*
X45155Y66921D01*
X45213Y66873D01*
X45269Y66821D01*
X45321Y66767D01*
X45371Y66710D01*
X45418Y66651D01*
X45462Y66590D01*
X45503Y66526D01*
X45540Y66460D01*
X45574Y66392D01*
X45604Y66323D01*
X45631Y66252D01*
X45654Y66180D01*
X45673Y66107D01*
X45688Y66033D01*
X45700Y65958D01*
X45708Y65883D01*
X45712Y65808D01*
X45712Y65732D01*
X45708Y65657D01*
X45700Y65582D01*
X45688Y65507D01*
X45673Y65433D01*
X45654Y65360D01*
X45631Y65288D01*
X45604Y65217D01*
X45574Y65148D01*
X45540Y65080D01*
X45503Y65014D01*
X45462Y64950D01*
X45418Y64889D01*
X45371Y64830D01*
X45321Y64773D01*
X45269Y64719D01*
X45213Y64667D01*
X45155Y64619D01*
X45095Y64574D01*
X45032Y64531D01*
X44967Y64492D01*
X44900Y64457D01*
X44832Y64425D01*
X44762Y64396D01*
X44690Y64372D01*
X44618Y64350D01*
X44544Y64333D01*
X44470Y64319D01*
X44395Y64310D01*
X44320Y64304D01*
X44244Y64302D01*
X49299Y65404D02*
X49299Y62468D01*
X49300Y65404D02*
X49302Y65489D01*
X49308Y65573D01*
X49318Y65657D01*
X49331Y65741D01*
X49349Y65824D01*
X49370Y65906D01*
X49395Y65987D01*
X49424Y66067D01*
X49456Y66145D01*
X49492Y66221D01*
X49532Y66296D01*
X49575Y66369D01*
X49621Y66440D01*
X49670Y66509D01*
X49723Y66576D01*
X49779Y66640D01*
X49837Y66701D01*
X49898Y66759D01*
X49962Y66815D01*
X50029Y66868D01*
X50098Y66917D01*
X50169Y66963D01*
X50242Y67006D01*
X50317Y67046D01*
X50393Y67082D01*
X50471Y67114D01*
X50551Y67143D01*
X50632Y67168D01*
X50714Y67189D01*
X50797Y67207D01*
X50881Y67220D01*
X50965Y67230D01*
X51049Y67236D01*
X51134Y67238D01*
X51219Y67236D01*
X51303Y67230D01*
X51387Y67220D01*
X51471Y67207D01*
X51554Y67189D01*
X51636Y67168D01*
X51717Y67143D01*
X51797Y67114D01*
X51875Y67082D01*
X51951Y67046D01*
X52026Y67006D01*
X52099Y66963D01*
X52170Y66917D01*
X52239Y66868D01*
X52306Y66815D01*
X52370Y66759D01*
X52431Y66701D01*
X52489Y66640D01*
X52545Y66576D01*
X52598Y66509D01*
X52647Y66440D01*
X52693Y66369D01*
X52736Y66296D01*
X52776Y66221D01*
X52812Y66145D01*
X52844Y66067D01*
X52873Y65987D01*
X52898Y65906D01*
X52919Y65824D01*
X52937Y65741D01*
X52950Y65657D01*
X52960Y65573D01*
X52966Y65489D01*
X52968Y65404D01*
X52968Y62468D01*
X52966Y62383D01*
X52960Y62299D01*
X52950Y62215D01*
X52937Y62131D01*
X52919Y62048D01*
X52898Y61966D01*
X52873Y61885D01*
X52844Y61805D01*
X52812Y61727D01*
X52776Y61651D01*
X52736Y61576D01*
X52693Y61503D01*
X52647Y61432D01*
X52598Y61363D01*
X52545Y61296D01*
X52489Y61232D01*
X52431Y61171D01*
X52370Y61113D01*
X52306Y61057D01*
X52239Y61004D01*
X52170Y60955D01*
X52099Y60909D01*
X52026Y60866D01*
X51951Y60826D01*
X51875Y60790D01*
X51797Y60758D01*
X51717Y60729D01*
X51636Y60704D01*
X51554Y60683D01*
X51471Y60665D01*
X51387Y60652D01*
X51303Y60642D01*
X51219Y60636D01*
X51134Y60634D01*
X51049Y60636D01*
X50965Y60642D01*
X50881Y60652D01*
X50797Y60665D01*
X50714Y60683D01*
X50632Y60704D01*
X50551Y60729D01*
X50471Y60758D01*
X50393Y60790D01*
X50317Y60826D01*
X50242Y60866D01*
X50169Y60909D01*
X50098Y60955D01*
X50029Y61004D01*
X49962Y61057D01*
X49898Y61113D01*
X49837Y61171D01*
X49779Y61232D01*
X49723Y61296D01*
X49670Y61363D01*
X49621Y61432D01*
X49575Y61503D01*
X49532Y61576D01*
X49492Y61651D01*
X49456Y61727D01*
X49424Y61805D01*
X49395Y61885D01*
X49370Y61966D01*
X49349Y62048D01*
X49331Y62131D01*
X49318Y62215D01*
X49308Y62299D01*
X49302Y62383D01*
X49300Y62468D01*
X56614Y62468D02*
X56614Y65404D01*
X56615Y65404D02*
X56617Y65489D01*
X56623Y65573D01*
X56633Y65657D01*
X56646Y65741D01*
X56664Y65824D01*
X56685Y65906D01*
X56710Y65987D01*
X56739Y66067D01*
X56771Y66145D01*
X56807Y66221D01*
X56847Y66296D01*
X56890Y66369D01*
X56936Y66440D01*
X56985Y66509D01*
X57038Y66576D01*
X57094Y66640D01*
X57152Y66701D01*
X57213Y66759D01*
X57277Y66815D01*
X57344Y66868D01*
X57413Y66917D01*
X57484Y66963D01*
X57557Y67006D01*
X57632Y67046D01*
X57708Y67082D01*
X57786Y67114D01*
X57866Y67143D01*
X57947Y67168D01*
X58029Y67189D01*
X58112Y67207D01*
X58196Y67220D01*
X58280Y67230D01*
X58364Y67236D01*
X58449Y67238D01*
X58534Y67236D01*
X58618Y67230D01*
X58702Y67220D01*
X58786Y67207D01*
X58869Y67189D01*
X58951Y67168D01*
X59032Y67143D01*
X59112Y67114D01*
X59190Y67082D01*
X59266Y67046D01*
X59341Y67006D01*
X59414Y66963D01*
X59485Y66917D01*
X59554Y66868D01*
X59621Y66815D01*
X59685Y66759D01*
X59746Y66701D01*
X59804Y66640D01*
X59860Y66576D01*
X59913Y66509D01*
X59962Y66440D01*
X60008Y66369D01*
X60051Y66296D01*
X60091Y66221D01*
X60127Y66145D01*
X60159Y66067D01*
X60188Y65987D01*
X60213Y65906D01*
X60234Y65824D01*
X60252Y65741D01*
X60265Y65657D01*
X60275Y65573D01*
X60281Y65489D01*
X60283Y65404D01*
X60283Y62468D01*
X60281Y62383D01*
X60275Y62299D01*
X60265Y62215D01*
X60252Y62131D01*
X60234Y62048D01*
X60213Y61966D01*
X60188Y61885D01*
X60159Y61805D01*
X60127Y61727D01*
X60091Y61651D01*
X60051Y61576D01*
X60008Y61503D01*
X59962Y61432D01*
X59913Y61363D01*
X59860Y61296D01*
X59804Y61232D01*
X59746Y61171D01*
X59685Y61113D01*
X59621Y61057D01*
X59554Y61004D01*
X59485Y60955D01*
X59414Y60909D01*
X59341Y60866D01*
X59266Y60826D01*
X59190Y60790D01*
X59112Y60758D01*
X59032Y60729D01*
X58951Y60704D01*
X58869Y60683D01*
X58786Y60665D01*
X58702Y60652D01*
X58618Y60642D01*
X58534Y60636D01*
X58449Y60634D01*
X58364Y60636D01*
X58280Y60642D01*
X58196Y60652D01*
X58112Y60665D01*
X58029Y60683D01*
X57947Y60704D01*
X57866Y60729D01*
X57786Y60758D01*
X57708Y60790D01*
X57632Y60826D01*
X57557Y60866D01*
X57484Y60909D01*
X57413Y60955D01*
X57344Y61004D01*
X57277Y61057D01*
X57213Y61113D01*
X57152Y61171D01*
X57094Y61232D01*
X57038Y61296D01*
X56985Y61363D01*
X56936Y61432D01*
X56890Y61503D01*
X56847Y61576D01*
X56807Y61651D01*
X56771Y61727D01*
X56739Y61805D01*
X56710Y61885D01*
X56685Y61966D01*
X56664Y62048D01*
X56646Y62131D01*
X56633Y62215D01*
X56623Y62299D01*
X56617Y62383D01*
X56615Y62468D01*
X65276Y60634D02*
X65276Y67238D01*
X63442Y67238D02*
X67111Y67238D01*
D12*
X221000Y82620D02*
X221000Y109380D01*
X193000Y109380D02*
X193000Y82620D01*
X205700Y75000D02*
X208300Y75000D01*
X208300Y117000D02*
X205700Y117000D01*
D11*
X198950Y96000D02*
X198952Y96198D01*
X198960Y96395D01*
X198972Y96592D01*
X198989Y96789D01*
X199011Y96985D01*
X199037Y97181D01*
X199069Y97376D01*
X199105Y97570D01*
X199146Y97764D01*
X199191Y97956D01*
X199242Y98147D01*
X199297Y98337D01*
X199356Y98525D01*
X199421Y98712D01*
X199489Y98897D01*
X199563Y99081D01*
X199641Y99262D01*
X199723Y99442D01*
X199810Y99619D01*
X199901Y99795D01*
X199996Y99968D01*
X200095Y100139D01*
X200199Y100307D01*
X200307Y100472D01*
X200418Y100635D01*
X200534Y100795D01*
X200654Y100953D01*
X200777Y101107D01*
X200904Y101258D01*
X201035Y101406D01*
X201170Y101551D01*
X201308Y101692D01*
X201449Y101830D01*
X201594Y101965D01*
X201742Y102096D01*
X201893Y102223D01*
X202047Y102346D01*
X202205Y102466D01*
X202365Y102582D01*
X202528Y102693D01*
X202693Y102801D01*
X202861Y102905D01*
X203032Y103004D01*
X203205Y103099D01*
X203381Y103190D01*
X203558Y103277D01*
X203738Y103359D01*
X203919Y103437D01*
X204103Y103511D01*
X204288Y103579D01*
X204475Y103644D01*
X204663Y103703D01*
X204853Y103758D01*
X205044Y103809D01*
X205236Y103854D01*
X205430Y103895D01*
X205624Y103931D01*
X205819Y103963D01*
X206015Y103989D01*
X206211Y104011D01*
X206408Y104028D01*
X206605Y104040D01*
X206802Y104048D01*
X207000Y104050D01*
X207198Y104048D01*
X207395Y104040D01*
X207592Y104028D01*
X207789Y104011D01*
X207985Y103989D01*
X208181Y103963D01*
X208376Y103931D01*
X208570Y103895D01*
X208764Y103854D01*
X208956Y103809D01*
X209147Y103758D01*
X209337Y103703D01*
X209525Y103644D01*
X209712Y103579D01*
X209897Y103511D01*
X210081Y103437D01*
X210262Y103359D01*
X210442Y103277D01*
X210619Y103190D01*
X210795Y103099D01*
X210968Y103004D01*
X211139Y102905D01*
X211307Y102801D01*
X211472Y102693D01*
X211635Y102582D01*
X211795Y102466D01*
X211953Y102346D01*
X212107Y102223D01*
X212258Y102096D01*
X212406Y101965D01*
X212551Y101830D01*
X212692Y101692D01*
X212830Y101551D01*
X212965Y101406D01*
X213096Y101258D01*
X213223Y101107D01*
X213346Y100953D01*
X213466Y100795D01*
X213582Y100635D01*
X213693Y100472D01*
X213801Y100307D01*
X213905Y100139D01*
X214004Y99968D01*
X214099Y99795D01*
X214190Y99619D01*
X214277Y99442D01*
X214359Y99262D01*
X214437Y99081D01*
X214511Y98897D01*
X214579Y98712D01*
X214644Y98525D01*
X214703Y98337D01*
X214758Y98147D01*
X214809Y97956D01*
X214854Y97764D01*
X214895Y97570D01*
X214931Y97376D01*
X214963Y97181D01*
X214989Y96985D01*
X215011Y96789D01*
X215028Y96592D01*
X215040Y96395D01*
X215048Y96198D01*
X215050Y96000D01*
X215048Y95802D01*
X215040Y95605D01*
X215028Y95408D01*
X215011Y95211D01*
X214989Y95015D01*
X214963Y94819D01*
X214931Y94624D01*
X214895Y94430D01*
X214854Y94236D01*
X214809Y94044D01*
X214758Y93853D01*
X214703Y93663D01*
X214644Y93475D01*
X214579Y93288D01*
X214511Y93103D01*
X214437Y92919D01*
X214359Y92738D01*
X214277Y92558D01*
X214190Y92381D01*
X214099Y92205D01*
X214004Y92032D01*
X213905Y91861D01*
X213801Y91693D01*
X213693Y91528D01*
X213582Y91365D01*
X213466Y91205D01*
X213346Y91047D01*
X213223Y90893D01*
X213096Y90742D01*
X212965Y90594D01*
X212830Y90449D01*
X212692Y90308D01*
X212551Y90170D01*
X212406Y90035D01*
X212258Y89904D01*
X212107Y89777D01*
X211953Y89654D01*
X211795Y89534D01*
X211635Y89418D01*
X211472Y89307D01*
X211307Y89199D01*
X211139Y89095D01*
X210968Y88996D01*
X210795Y88901D01*
X210619Y88810D01*
X210442Y88723D01*
X210262Y88641D01*
X210081Y88563D01*
X209897Y88489D01*
X209712Y88421D01*
X209525Y88356D01*
X209337Y88297D01*
X209147Y88242D01*
X208956Y88191D01*
X208764Y88146D01*
X208570Y88105D01*
X208376Y88069D01*
X208181Y88037D01*
X207985Y88011D01*
X207789Y87989D01*
X207592Y87972D01*
X207395Y87960D01*
X207198Y87952D01*
X207000Y87950D01*
X206802Y87952D01*
X206605Y87960D01*
X206408Y87972D01*
X206211Y87989D01*
X206015Y88011D01*
X205819Y88037D01*
X205624Y88069D01*
X205430Y88105D01*
X205236Y88146D01*
X205044Y88191D01*
X204853Y88242D01*
X204663Y88297D01*
X204475Y88356D01*
X204288Y88421D01*
X204103Y88489D01*
X203919Y88563D01*
X203738Y88641D01*
X203558Y88723D01*
X203381Y88810D01*
X203205Y88901D01*
X203032Y88996D01*
X202861Y89095D01*
X202693Y89199D01*
X202528Y89307D01*
X202365Y89418D01*
X202205Y89534D01*
X202047Y89654D01*
X201893Y89777D01*
X201742Y89904D01*
X201594Y90035D01*
X201449Y90170D01*
X201308Y90308D01*
X201170Y90449D01*
X201035Y90594D01*
X200904Y90742D01*
X200777Y90893D01*
X200654Y91047D01*
X200534Y91205D01*
X200418Y91365D01*
X200307Y91528D01*
X200199Y91693D01*
X200095Y91861D01*
X199996Y92032D01*
X199901Y92205D01*
X199810Y92381D01*
X199723Y92558D01*
X199641Y92738D01*
X199563Y92919D01*
X199489Y93103D01*
X199421Y93288D01*
X199356Y93475D01*
X199297Y93663D01*
X199242Y93853D01*
X199191Y94044D01*
X199146Y94236D01*
X199105Y94430D01*
X199069Y94624D01*
X199037Y94819D01*
X199011Y95015D01*
X198989Y95211D01*
X198972Y95408D01*
X198960Y95605D01*
X198952Y95802D01*
X198950Y96000D01*
D14*
X199189Y128303D02*
X201023Y128303D01*
X201023Y128302D02*
X201108Y128300D01*
X201192Y128294D01*
X201276Y128284D01*
X201360Y128271D01*
X201443Y128253D01*
X201525Y128232D01*
X201606Y128207D01*
X201686Y128178D01*
X201764Y128146D01*
X201840Y128110D01*
X201915Y128070D01*
X201988Y128027D01*
X202059Y127981D01*
X202128Y127932D01*
X202195Y127879D01*
X202259Y127823D01*
X202320Y127765D01*
X202378Y127704D01*
X202434Y127640D01*
X202487Y127573D01*
X202536Y127504D01*
X202582Y127433D01*
X202625Y127360D01*
X202665Y127285D01*
X202701Y127209D01*
X202733Y127131D01*
X202762Y127051D01*
X202787Y126970D01*
X202808Y126888D01*
X202826Y126805D01*
X202839Y126721D01*
X202849Y126637D01*
X202855Y126553D01*
X202857Y126468D01*
X202855Y126383D01*
X202849Y126299D01*
X202839Y126215D01*
X202826Y126131D01*
X202808Y126048D01*
X202787Y125966D01*
X202762Y125885D01*
X202733Y125805D01*
X202701Y125727D01*
X202665Y125651D01*
X202625Y125576D01*
X202582Y125503D01*
X202536Y125432D01*
X202487Y125363D01*
X202434Y125296D01*
X202378Y125232D01*
X202320Y125171D01*
X202259Y125113D01*
X202195Y125057D01*
X202128Y125004D01*
X202059Y124955D01*
X201988Y124909D01*
X201915Y124866D01*
X201840Y124826D01*
X201764Y124790D01*
X201686Y124758D01*
X201606Y124729D01*
X201525Y124704D01*
X201443Y124683D01*
X201360Y124665D01*
X201276Y124652D01*
X201192Y124642D01*
X201108Y124636D01*
X201023Y124634D01*
X199189Y124634D01*
X199189Y131238D01*
X201023Y131238D01*
X201099Y131236D01*
X201174Y131230D01*
X201249Y131221D01*
X201323Y131207D01*
X201397Y131190D01*
X201469Y131168D01*
X201541Y131144D01*
X201611Y131115D01*
X201679Y131083D01*
X201746Y131048D01*
X201811Y131009D01*
X201874Y130966D01*
X201934Y130921D01*
X201992Y130873D01*
X202048Y130821D01*
X202100Y130767D01*
X202150Y130710D01*
X202197Y130651D01*
X202241Y130590D01*
X202282Y130526D01*
X202319Y130460D01*
X202353Y130392D01*
X202383Y130323D01*
X202410Y130252D01*
X202433Y130180D01*
X202452Y130107D01*
X202467Y130033D01*
X202479Y129958D01*
X202487Y129883D01*
X202491Y129808D01*
X202491Y129732D01*
X202487Y129657D01*
X202479Y129582D01*
X202467Y129507D01*
X202452Y129433D01*
X202433Y129360D01*
X202410Y129288D01*
X202383Y129217D01*
X202353Y129148D01*
X202319Y129080D01*
X202282Y129014D01*
X202241Y128950D01*
X202197Y128889D01*
X202150Y128830D01*
X202100Y128773D01*
X202048Y128719D01*
X201992Y128667D01*
X201934Y128619D01*
X201874Y128574D01*
X201811Y128531D01*
X201746Y128492D01*
X201679Y128457D01*
X201611Y128425D01*
X201541Y128396D01*
X201469Y128372D01*
X201397Y128350D01*
X201323Y128333D01*
X201249Y128319D01*
X201174Y128310D01*
X201099Y128304D01*
X201023Y128302D01*
X207426Y131238D02*
X207426Y124634D01*
X209260Y131238D02*
X205591Y131238D01*
X212662Y131238D02*
X212662Y124634D01*
X216331Y124634D02*
X212662Y131238D01*
X216331Y131238D02*
X216331Y124634D01*
D11*
X9125Y394238D02*
X9125Y403763D01*
X247875Y403763D02*
X247875Y394238D01*
D10*
X157004Y170508D02*
X155423Y170508D01*
X155345Y170510D01*
X155268Y170516D01*
X155191Y170525D01*
X155115Y170538D01*
X155039Y170555D01*
X154964Y170576D01*
X154891Y170600D01*
X154818Y170628D01*
X154747Y170660D01*
X154678Y170695D01*
X154611Y170733D01*
X154545Y170774D01*
X154482Y170819D01*
X154421Y170867D01*
X154362Y170917D01*
X154306Y170971D01*
X154252Y171027D01*
X154202Y171086D01*
X154154Y171147D01*
X154109Y171210D01*
X154068Y171276D01*
X154030Y171343D01*
X153995Y171412D01*
X153963Y171483D01*
X153935Y171556D01*
X153911Y171629D01*
X153890Y171704D01*
X153873Y171780D01*
X153860Y171856D01*
X153851Y171933D01*
X153845Y172010D01*
X153843Y172088D01*
X153843Y176040D01*
X153845Y176118D01*
X153851Y176195D01*
X153860Y176272D01*
X153873Y176348D01*
X153890Y176424D01*
X153911Y176499D01*
X153935Y176572D01*
X153963Y176645D01*
X153995Y176716D01*
X154030Y176785D01*
X154068Y176852D01*
X154109Y176918D01*
X154154Y176981D01*
X154202Y177042D01*
X154252Y177101D01*
X154306Y177157D01*
X154362Y177211D01*
X154421Y177261D01*
X154482Y177309D01*
X154545Y177354D01*
X154611Y177395D01*
X154678Y177433D01*
X154747Y177468D01*
X154818Y177500D01*
X154891Y177528D01*
X154964Y177552D01*
X155039Y177573D01*
X155115Y177590D01*
X155191Y177603D01*
X155268Y177612D01*
X155345Y177618D01*
X155423Y177620D01*
X157004Y177620D01*
X159966Y176040D02*
X161942Y177620D01*
X161942Y170508D01*
X163917Y170508D02*
X159966Y170508D01*
X99004Y170508D02*
X97423Y170508D01*
X97345Y170510D01*
X97268Y170516D01*
X97191Y170525D01*
X97115Y170538D01*
X97039Y170555D01*
X96964Y170576D01*
X96891Y170600D01*
X96818Y170628D01*
X96747Y170660D01*
X96678Y170695D01*
X96611Y170733D01*
X96545Y170774D01*
X96482Y170819D01*
X96421Y170867D01*
X96362Y170917D01*
X96306Y170971D01*
X96252Y171027D01*
X96202Y171086D01*
X96154Y171147D01*
X96109Y171210D01*
X96068Y171276D01*
X96030Y171343D01*
X95995Y171412D01*
X95963Y171483D01*
X95935Y171556D01*
X95911Y171629D01*
X95890Y171704D01*
X95873Y171780D01*
X95860Y171856D01*
X95851Y171933D01*
X95845Y172010D01*
X95843Y172088D01*
X95843Y176040D01*
X95845Y176118D01*
X95851Y176195D01*
X95860Y176272D01*
X95873Y176348D01*
X95890Y176424D01*
X95911Y176499D01*
X95935Y176572D01*
X95963Y176645D01*
X95995Y176716D01*
X96030Y176785D01*
X96068Y176852D01*
X96109Y176918D01*
X96154Y176981D01*
X96202Y177042D01*
X96252Y177101D01*
X96306Y177157D01*
X96362Y177211D01*
X96421Y177261D01*
X96482Y177309D01*
X96545Y177354D01*
X96611Y177395D01*
X96678Y177433D01*
X96747Y177468D01*
X96818Y177500D01*
X96891Y177528D01*
X96964Y177552D01*
X97039Y177573D01*
X97115Y177590D01*
X97191Y177603D01*
X97268Y177612D01*
X97345Y177618D01*
X97423Y177620D01*
X99004Y177620D01*
X104139Y177620D02*
X104221Y177618D01*
X104303Y177612D01*
X104385Y177603D01*
X104466Y177590D01*
X104546Y177573D01*
X104626Y177552D01*
X104704Y177528D01*
X104781Y177500D01*
X104857Y177469D01*
X104932Y177434D01*
X105004Y177395D01*
X105075Y177354D01*
X105144Y177309D01*
X105210Y177261D01*
X105275Y177210D01*
X105337Y177156D01*
X105396Y177099D01*
X105453Y177040D01*
X105507Y176978D01*
X105558Y176913D01*
X105606Y176847D01*
X105651Y176778D01*
X105692Y176707D01*
X105731Y176635D01*
X105766Y176560D01*
X105797Y176484D01*
X105825Y176407D01*
X105849Y176329D01*
X105870Y176249D01*
X105887Y176169D01*
X105900Y176088D01*
X105909Y176006D01*
X105915Y175924D01*
X105917Y175842D01*
X104139Y177620D02*
X104046Y177618D01*
X103954Y177612D01*
X103862Y177603D01*
X103770Y177590D01*
X103679Y177573D01*
X103589Y177553D01*
X103499Y177529D01*
X103411Y177501D01*
X103323Y177469D01*
X103238Y177435D01*
X103153Y177396D01*
X103071Y177355D01*
X102990Y177310D01*
X102910Y177261D01*
X102833Y177210D01*
X102758Y177156D01*
X102686Y177098D01*
X102616Y177038D01*
X102548Y176974D01*
X102483Y176909D01*
X102420Y176840D01*
X102361Y176769D01*
X102304Y176696D01*
X102250Y176620D01*
X102200Y176543D01*
X102152Y176463D01*
X102108Y176382D01*
X102068Y176298D01*
X102030Y176214D01*
X101996Y176127D01*
X101966Y176040D01*
X105324Y174459D02*
X105385Y174520D01*
X105443Y174583D01*
X105498Y174649D01*
X105551Y174717D01*
X105600Y174788D01*
X105645Y174860D01*
X105688Y174935D01*
X105727Y175011D01*
X105763Y175090D01*
X105795Y175169D01*
X105823Y175250D01*
X105848Y175333D01*
X105869Y175416D01*
X105886Y175500D01*
X105900Y175585D01*
X105909Y175670D01*
X105915Y175756D01*
X105917Y175842D01*
X105325Y174459D02*
X101966Y170508D01*
X105917Y170508D01*
D12*
X221000Y43380D02*
X221000Y16620D01*
X193000Y16620D02*
X193000Y43380D01*
X205700Y9000D02*
X208300Y9000D01*
X208300Y51000D02*
X205700Y51000D01*
D11*
X198950Y30000D02*
X198952Y30198D01*
X198960Y30395D01*
X198972Y30592D01*
X198989Y30789D01*
X199011Y30985D01*
X199037Y31181D01*
X199069Y31376D01*
X199105Y31570D01*
X199146Y31764D01*
X199191Y31956D01*
X199242Y32147D01*
X199297Y32337D01*
X199356Y32525D01*
X199421Y32712D01*
X199489Y32897D01*
X199563Y33081D01*
X199641Y33262D01*
X199723Y33442D01*
X199810Y33619D01*
X199901Y33795D01*
X199996Y33968D01*
X200095Y34139D01*
X200199Y34307D01*
X200307Y34472D01*
X200418Y34635D01*
X200534Y34795D01*
X200654Y34953D01*
X200777Y35107D01*
X200904Y35258D01*
X201035Y35406D01*
X201170Y35551D01*
X201308Y35692D01*
X201449Y35830D01*
X201594Y35965D01*
X201742Y36096D01*
X201893Y36223D01*
X202047Y36346D01*
X202205Y36466D01*
X202365Y36582D01*
X202528Y36693D01*
X202693Y36801D01*
X202861Y36905D01*
X203032Y37004D01*
X203205Y37099D01*
X203381Y37190D01*
X203558Y37277D01*
X203738Y37359D01*
X203919Y37437D01*
X204103Y37511D01*
X204288Y37579D01*
X204475Y37644D01*
X204663Y37703D01*
X204853Y37758D01*
X205044Y37809D01*
X205236Y37854D01*
X205430Y37895D01*
X205624Y37931D01*
X205819Y37963D01*
X206015Y37989D01*
X206211Y38011D01*
X206408Y38028D01*
X206605Y38040D01*
X206802Y38048D01*
X207000Y38050D01*
X207198Y38048D01*
X207395Y38040D01*
X207592Y38028D01*
X207789Y38011D01*
X207985Y37989D01*
X208181Y37963D01*
X208376Y37931D01*
X208570Y37895D01*
X208764Y37854D01*
X208956Y37809D01*
X209147Y37758D01*
X209337Y37703D01*
X209525Y37644D01*
X209712Y37579D01*
X209897Y37511D01*
X210081Y37437D01*
X210262Y37359D01*
X210442Y37277D01*
X210619Y37190D01*
X210795Y37099D01*
X210968Y37004D01*
X211139Y36905D01*
X211307Y36801D01*
X211472Y36693D01*
X211635Y36582D01*
X211795Y36466D01*
X211953Y36346D01*
X212107Y36223D01*
X212258Y36096D01*
X212406Y35965D01*
X212551Y35830D01*
X212692Y35692D01*
X212830Y35551D01*
X212965Y35406D01*
X213096Y35258D01*
X213223Y35107D01*
X213346Y34953D01*
X213466Y34795D01*
X213582Y34635D01*
X213693Y34472D01*
X213801Y34307D01*
X213905Y34139D01*
X214004Y33968D01*
X214099Y33795D01*
X214190Y33619D01*
X214277Y33442D01*
X214359Y33262D01*
X214437Y33081D01*
X214511Y32897D01*
X214579Y32712D01*
X214644Y32525D01*
X214703Y32337D01*
X214758Y32147D01*
X214809Y31956D01*
X214854Y31764D01*
X214895Y31570D01*
X214931Y31376D01*
X214963Y31181D01*
X214989Y30985D01*
X215011Y30789D01*
X215028Y30592D01*
X215040Y30395D01*
X215048Y30198D01*
X215050Y30000D01*
X215048Y29802D01*
X215040Y29605D01*
X215028Y29408D01*
X215011Y29211D01*
X214989Y29015D01*
X214963Y28819D01*
X214931Y28624D01*
X214895Y28430D01*
X214854Y28236D01*
X214809Y28044D01*
X214758Y27853D01*
X214703Y27663D01*
X214644Y27475D01*
X214579Y27288D01*
X214511Y27103D01*
X214437Y26919D01*
X214359Y26738D01*
X214277Y26558D01*
X214190Y26381D01*
X214099Y26205D01*
X214004Y26032D01*
X213905Y25861D01*
X213801Y25693D01*
X213693Y25528D01*
X213582Y25365D01*
X213466Y25205D01*
X213346Y25047D01*
X213223Y24893D01*
X213096Y24742D01*
X212965Y24594D01*
X212830Y24449D01*
X212692Y24308D01*
X212551Y24170D01*
X212406Y24035D01*
X212258Y23904D01*
X212107Y23777D01*
X211953Y23654D01*
X211795Y23534D01*
X211635Y23418D01*
X211472Y23307D01*
X211307Y23199D01*
X211139Y23095D01*
X210968Y22996D01*
X210795Y22901D01*
X210619Y22810D01*
X210442Y22723D01*
X210262Y22641D01*
X210081Y22563D01*
X209897Y22489D01*
X209712Y22421D01*
X209525Y22356D01*
X209337Y22297D01*
X209147Y22242D01*
X208956Y22191D01*
X208764Y22146D01*
X208570Y22105D01*
X208376Y22069D01*
X208181Y22037D01*
X207985Y22011D01*
X207789Y21989D01*
X207592Y21972D01*
X207395Y21960D01*
X207198Y21952D01*
X207000Y21950D01*
X206802Y21952D01*
X206605Y21960D01*
X206408Y21972D01*
X206211Y21989D01*
X206015Y22011D01*
X205819Y22037D01*
X205624Y22069D01*
X205430Y22105D01*
X205236Y22146D01*
X205044Y22191D01*
X204853Y22242D01*
X204663Y22297D01*
X204475Y22356D01*
X204288Y22421D01*
X204103Y22489D01*
X203919Y22563D01*
X203738Y22641D01*
X203558Y22723D01*
X203381Y22810D01*
X203205Y22901D01*
X203032Y22996D01*
X202861Y23095D01*
X202693Y23199D01*
X202528Y23307D01*
X202365Y23418D01*
X202205Y23534D01*
X202047Y23654D01*
X201893Y23777D01*
X201742Y23904D01*
X201594Y24035D01*
X201449Y24170D01*
X201308Y24308D01*
X201170Y24449D01*
X201035Y24594D01*
X200904Y24742D01*
X200777Y24893D01*
X200654Y25047D01*
X200534Y25205D01*
X200418Y25365D01*
X200307Y25528D01*
X200199Y25693D01*
X200095Y25861D01*
X199996Y26032D01*
X199901Y26205D01*
X199810Y26381D01*
X199723Y26558D01*
X199641Y26738D01*
X199563Y26919D01*
X199489Y27103D01*
X199421Y27288D01*
X199356Y27475D01*
X199297Y27663D01*
X199242Y27853D01*
X199191Y28044D01*
X199146Y28236D01*
X199105Y28430D01*
X199069Y28624D01*
X199037Y28819D01*
X199011Y29015D01*
X198989Y29211D01*
X198972Y29408D01*
X198960Y29605D01*
X198952Y29802D01*
X198950Y30000D01*
D14*
X199137Y59762D02*
X199137Y66366D01*
X200972Y66366D01*
X201057Y66364D01*
X201141Y66358D01*
X201225Y66348D01*
X201309Y66335D01*
X201392Y66317D01*
X201474Y66296D01*
X201555Y66271D01*
X201635Y66242D01*
X201713Y66210D01*
X201789Y66174D01*
X201864Y66134D01*
X201937Y66091D01*
X202008Y66045D01*
X202077Y65996D01*
X202144Y65943D01*
X202208Y65887D01*
X202269Y65829D01*
X202327Y65768D01*
X202383Y65704D01*
X202436Y65637D01*
X202485Y65568D01*
X202531Y65497D01*
X202574Y65424D01*
X202614Y65349D01*
X202650Y65273D01*
X202682Y65195D01*
X202711Y65115D01*
X202736Y65034D01*
X202757Y64952D01*
X202775Y64869D01*
X202788Y64785D01*
X202798Y64701D01*
X202804Y64617D01*
X202806Y64532D01*
X202804Y64447D01*
X202798Y64363D01*
X202788Y64279D01*
X202775Y64195D01*
X202757Y64112D01*
X202736Y64030D01*
X202711Y63949D01*
X202682Y63869D01*
X202650Y63791D01*
X202614Y63715D01*
X202574Y63640D01*
X202531Y63567D01*
X202485Y63496D01*
X202436Y63427D01*
X202383Y63360D01*
X202327Y63296D01*
X202269Y63235D01*
X202208Y63177D01*
X202144Y63121D01*
X202077Y63068D01*
X202008Y63019D01*
X201937Y62973D01*
X201864Y62930D01*
X201789Y62890D01*
X201713Y62854D01*
X201635Y62822D01*
X201555Y62793D01*
X201474Y62768D01*
X201392Y62747D01*
X201309Y62729D01*
X201225Y62716D01*
X201141Y62706D01*
X201057Y62700D01*
X200972Y62698D01*
X200972Y62697D02*
X199137Y62697D01*
X201339Y62697D02*
X202806Y59762D01*
X208331Y59762D02*
X208405Y59764D01*
X208479Y59770D01*
X208553Y59779D01*
X208626Y59792D01*
X208699Y59809D01*
X208770Y59829D01*
X208841Y59853D01*
X208910Y59881D01*
X208977Y59912D01*
X209043Y59946D01*
X209108Y59984D01*
X209170Y60025D01*
X209230Y60069D01*
X209287Y60116D01*
X209342Y60166D01*
X209395Y60219D01*
X209445Y60274D01*
X209492Y60331D01*
X209536Y60391D01*
X209577Y60453D01*
X209615Y60518D01*
X209649Y60583D01*
X209680Y60651D01*
X209708Y60720D01*
X209732Y60791D01*
X209752Y60862D01*
X209769Y60934D01*
X209782Y61008D01*
X209791Y61081D01*
X209797Y61156D01*
X209799Y61230D01*
X208331Y59762D02*
X208220Y59764D01*
X208109Y59770D01*
X207998Y59780D01*
X207887Y59794D01*
X207778Y59812D01*
X207669Y59834D01*
X207560Y59859D01*
X207453Y59889D01*
X207347Y59922D01*
X207242Y59960D01*
X207139Y60000D01*
X207037Y60045D01*
X206937Y60093D01*
X206838Y60145D01*
X206742Y60200D01*
X206647Y60259D01*
X206555Y60321D01*
X206465Y60387D01*
X206377Y60455D01*
X206292Y60527D01*
X206210Y60602D01*
X206130Y60679D01*
X206313Y64898D02*
X206315Y64972D01*
X206321Y65047D01*
X206330Y65120D01*
X206343Y65194D01*
X206360Y65266D01*
X206380Y65337D01*
X206404Y65408D01*
X206432Y65477D01*
X206463Y65544D01*
X206497Y65610D01*
X206535Y65675D01*
X206576Y65737D01*
X206620Y65797D01*
X206667Y65854D01*
X206717Y65909D01*
X206770Y65962D01*
X206825Y66012D01*
X206882Y66059D01*
X206942Y66103D01*
X207004Y66144D01*
X207069Y66182D01*
X207135Y66216D01*
X207202Y66247D01*
X207271Y66275D01*
X207342Y66299D01*
X207413Y66319D01*
X207485Y66336D01*
X207559Y66349D01*
X207632Y66358D01*
X207707Y66364D01*
X207781Y66366D01*
X207885Y66364D01*
X207989Y66358D01*
X208093Y66348D01*
X208196Y66335D01*
X208299Y66317D01*
X208401Y66295D01*
X208502Y66270D01*
X208602Y66241D01*
X208701Y66208D01*
X208798Y66171D01*
X208894Y66131D01*
X208989Y66087D01*
X209081Y66039D01*
X209172Y65989D01*
X209261Y65934D01*
X209348Y65877D01*
X209432Y65816D01*
X207047Y63613D02*
X206984Y63652D01*
X206924Y63694D01*
X206866Y63739D01*
X206809Y63787D01*
X206756Y63838D01*
X206705Y63891D01*
X206656Y63946D01*
X206611Y64004D01*
X206568Y64064D01*
X206528Y64126D01*
X206492Y64190D01*
X206458Y64256D01*
X206428Y64324D01*
X206401Y64392D01*
X206378Y64462D01*
X206358Y64533D01*
X206342Y64605D01*
X206329Y64678D01*
X206320Y64751D01*
X206315Y64824D01*
X206313Y64898D01*
X209065Y62515D02*
X209128Y62476D01*
X209188Y62434D01*
X209247Y62389D01*
X209303Y62341D01*
X209356Y62290D01*
X209407Y62237D01*
X209456Y62182D01*
X209501Y62124D01*
X209544Y62064D01*
X209584Y62002D01*
X209620Y61938D01*
X209654Y61872D01*
X209684Y61804D01*
X209711Y61736D01*
X209734Y61666D01*
X209754Y61595D01*
X209770Y61523D01*
X209783Y61450D01*
X209792Y61377D01*
X209797Y61304D01*
X209799Y61230D01*
X209065Y62514D02*
X207047Y63614D01*
X214548Y66366D02*
X214548Y59762D01*
X212714Y66366D02*
X216383Y66366D01*
D11*
X85300Y59100D02*
X85300Y44700D01*
X174700Y44700D02*
X174700Y59100D01*
X174700Y17300D02*
X174700Y5000D01*
X85300Y5000D01*
X85300Y17300D01*
D15*
X95000Y95000D02*
X95002Y95063D01*
X95008Y95125D01*
X95018Y95187D01*
X95031Y95249D01*
X95049Y95309D01*
X95070Y95368D01*
X95095Y95426D01*
X95124Y95482D01*
X95156Y95536D01*
X95191Y95588D01*
X95229Y95637D01*
X95271Y95685D01*
X95315Y95729D01*
X95363Y95771D01*
X95412Y95809D01*
X95464Y95844D01*
X95518Y95876D01*
X95574Y95905D01*
X95632Y95930D01*
X95691Y95951D01*
X95751Y95969D01*
X95813Y95982D01*
X95875Y95992D01*
X95937Y95998D01*
X96000Y96000D01*
X96063Y95998D01*
X96125Y95992D01*
X96187Y95982D01*
X96249Y95969D01*
X96309Y95951D01*
X96368Y95930D01*
X96426Y95905D01*
X96482Y95876D01*
X96536Y95844D01*
X96588Y95809D01*
X96637Y95771D01*
X96685Y95729D01*
X96729Y95685D01*
X96771Y95637D01*
X96809Y95588D01*
X96844Y95536D01*
X96876Y95482D01*
X96905Y95426D01*
X96930Y95368D01*
X96951Y95309D01*
X96969Y95249D01*
X96982Y95187D01*
X96992Y95125D01*
X96998Y95063D01*
X97000Y95000D01*
X96998Y94937D01*
X96992Y94875D01*
X96982Y94813D01*
X96969Y94751D01*
X96951Y94691D01*
X96930Y94632D01*
X96905Y94574D01*
X96876Y94518D01*
X96844Y94464D01*
X96809Y94412D01*
X96771Y94363D01*
X96729Y94315D01*
X96685Y94271D01*
X96637Y94229D01*
X96588Y94191D01*
X96536Y94156D01*
X96482Y94124D01*
X96426Y94095D01*
X96368Y94070D01*
X96309Y94049D01*
X96249Y94031D01*
X96187Y94018D01*
X96125Y94008D01*
X96063Y94002D01*
X96000Y94000D01*
X95937Y94002D01*
X95875Y94008D01*
X95813Y94018D01*
X95751Y94031D01*
X95691Y94049D01*
X95632Y94070D01*
X95574Y94095D01*
X95518Y94124D01*
X95464Y94156D01*
X95412Y94191D01*
X95363Y94229D01*
X95315Y94271D01*
X95271Y94315D01*
X95229Y94363D01*
X95191Y94412D01*
X95156Y94464D01*
X95124Y94518D01*
X95095Y94574D01*
X95070Y94632D01*
X95049Y94691D01*
X95031Y94751D01*
X95018Y94813D01*
X95008Y94875D01*
X95002Y94937D01*
X95000Y95000D01*
D16*
X92681Y126881D02*
X92681Y134247D01*
X94727Y134247D01*
X94816Y134245D01*
X94905Y134239D01*
X94994Y134229D01*
X95082Y134216D01*
X95170Y134199D01*
X95257Y134177D01*
X95342Y134152D01*
X95427Y134124D01*
X95510Y134091D01*
X95592Y134055D01*
X95672Y134016D01*
X95750Y133973D01*
X95826Y133927D01*
X95901Y133877D01*
X95973Y133824D01*
X96042Y133768D01*
X96109Y133709D01*
X96174Y133648D01*
X96235Y133583D01*
X96294Y133516D01*
X96350Y133447D01*
X96403Y133375D01*
X96453Y133300D01*
X96499Y133224D01*
X96542Y133146D01*
X96581Y133066D01*
X96617Y132984D01*
X96650Y132901D01*
X96678Y132816D01*
X96703Y132731D01*
X96725Y132644D01*
X96742Y132556D01*
X96755Y132468D01*
X96765Y132379D01*
X96771Y132290D01*
X96773Y132201D01*
X96771Y132112D01*
X96765Y132023D01*
X96755Y131934D01*
X96742Y131846D01*
X96725Y131758D01*
X96703Y131671D01*
X96678Y131586D01*
X96650Y131501D01*
X96617Y131418D01*
X96581Y131336D01*
X96542Y131256D01*
X96499Y131178D01*
X96453Y131102D01*
X96403Y131027D01*
X96350Y130955D01*
X96294Y130886D01*
X96235Y130819D01*
X96174Y130754D01*
X96109Y130693D01*
X96042Y130634D01*
X95973Y130578D01*
X95901Y130525D01*
X95826Y130475D01*
X95750Y130429D01*
X95672Y130386D01*
X95592Y130347D01*
X95510Y130311D01*
X95427Y130278D01*
X95342Y130250D01*
X95257Y130225D01*
X95170Y130203D01*
X95082Y130186D01*
X94994Y130173D01*
X94905Y130163D01*
X94816Y130157D01*
X94727Y130155D01*
X92681Y130155D01*
X95136Y130155D02*
X96773Y126881D01*
X99945Y128518D02*
X101582Y134247D01*
X99945Y128518D02*
X104037Y128518D01*
X102810Y130155D02*
X102810Y126881D01*
X150681Y106247D02*
X150681Y98881D01*
X150681Y106247D02*
X152727Y106247D01*
X152816Y106245D01*
X152905Y106239D01*
X152994Y106229D01*
X153082Y106216D01*
X153170Y106199D01*
X153257Y106177D01*
X153342Y106152D01*
X153427Y106124D01*
X153510Y106091D01*
X153592Y106055D01*
X153672Y106016D01*
X153750Y105973D01*
X153826Y105927D01*
X153901Y105877D01*
X153973Y105824D01*
X154042Y105768D01*
X154109Y105709D01*
X154174Y105648D01*
X154235Y105583D01*
X154294Y105516D01*
X154350Y105447D01*
X154403Y105375D01*
X154453Y105300D01*
X154499Y105224D01*
X154542Y105146D01*
X154581Y105066D01*
X154617Y104984D01*
X154650Y104901D01*
X154678Y104816D01*
X154703Y104731D01*
X154725Y104644D01*
X154742Y104556D01*
X154755Y104468D01*
X154765Y104379D01*
X154771Y104290D01*
X154773Y104201D01*
X154771Y104112D01*
X154765Y104023D01*
X154755Y103934D01*
X154742Y103846D01*
X154725Y103758D01*
X154703Y103671D01*
X154678Y103586D01*
X154650Y103501D01*
X154617Y103418D01*
X154581Y103336D01*
X154542Y103256D01*
X154499Y103178D01*
X154453Y103102D01*
X154403Y103027D01*
X154350Y102955D01*
X154294Y102886D01*
X154235Y102819D01*
X154174Y102754D01*
X154109Y102693D01*
X154042Y102634D01*
X153973Y102578D01*
X153901Y102525D01*
X153826Y102475D01*
X153750Y102429D01*
X153672Y102386D01*
X153592Y102347D01*
X153510Y102311D01*
X153427Y102278D01*
X153342Y102250D01*
X153257Y102225D01*
X153170Y102203D01*
X153082Y102186D01*
X152994Y102173D01*
X152905Y102163D01*
X152816Y102157D01*
X152727Y102155D01*
X150681Y102155D01*
X153136Y102155D02*
X154773Y98881D01*
X157945Y104610D02*
X159991Y106247D01*
X159991Y98881D01*
X157945Y98881D02*
X162037Y98881D01*
X165261Y102564D02*
X165263Y102717D01*
X165269Y102870D01*
X165278Y103022D01*
X165292Y103175D01*
X165309Y103327D01*
X165330Y103478D01*
X165355Y103629D01*
X165384Y103779D01*
X165416Y103929D01*
X165453Y104077D01*
X165493Y104225D01*
X165536Y104372D01*
X165584Y104517D01*
X165635Y104661D01*
X165689Y104804D01*
X165748Y104946D01*
X165809Y105085D01*
X165875Y105224D01*
X165874Y105224D02*
X165900Y105294D01*
X165930Y105364D01*
X165963Y105431D01*
X165999Y105497D01*
X166038Y105561D01*
X166081Y105623D01*
X166127Y105682D01*
X166175Y105740D01*
X166226Y105794D01*
X166280Y105847D01*
X166337Y105896D01*
X166396Y105943D01*
X166457Y105986D01*
X166520Y106027D01*
X166585Y106064D01*
X166652Y106099D01*
X166721Y106129D01*
X166791Y106157D01*
X166862Y106180D01*
X166934Y106201D01*
X167007Y106217D01*
X167081Y106230D01*
X167156Y106240D01*
X167231Y106245D01*
X167306Y106247D01*
X167381Y106245D01*
X167456Y106240D01*
X167531Y106230D01*
X167605Y106217D01*
X167678Y106201D01*
X167750Y106180D01*
X167821Y106157D01*
X167891Y106129D01*
X167960Y106099D01*
X168027Y106064D01*
X168092Y106027D01*
X168155Y105986D01*
X168216Y105943D01*
X168275Y105896D01*
X168332Y105847D01*
X168386Y105794D01*
X168437Y105740D01*
X168486Y105682D01*
X168531Y105623D01*
X168574Y105561D01*
X168613Y105497D01*
X168650Y105431D01*
X168682Y105363D01*
X168712Y105294D01*
X168738Y105224D01*
X168803Y105086D01*
X168865Y104946D01*
X168923Y104804D01*
X168978Y104661D01*
X169029Y104517D01*
X169077Y104372D01*
X169120Y104225D01*
X169160Y104078D01*
X169197Y103929D01*
X169229Y103779D01*
X169258Y103629D01*
X169283Y103478D01*
X169304Y103327D01*
X169321Y103175D01*
X169335Y103022D01*
X169344Y102870D01*
X169350Y102717D01*
X169352Y102564D01*
X165260Y102564D02*
X165262Y102411D01*
X165268Y102258D01*
X165277Y102105D01*
X165291Y101953D01*
X165308Y101801D01*
X165329Y101650D01*
X165354Y101499D01*
X165383Y101348D01*
X165415Y101199D01*
X165452Y101050D01*
X165492Y100903D01*
X165535Y100756D01*
X165583Y100611D01*
X165634Y100466D01*
X165689Y100324D01*
X165747Y100182D01*
X165809Y100042D01*
X165874Y99904D01*
X165900Y99833D01*
X165930Y99764D01*
X165963Y99697D01*
X165999Y99631D01*
X166038Y99567D01*
X166081Y99505D01*
X166127Y99446D01*
X166175Y99388D01*
X166226Y99334D01*
X166280Y99281D01*
X166337Y99232D01*
X166396Y99185D01*
X166457Y99142D01*
X166520Y99101D01*
X166585Y99064D01*
X166652Y99029D01*
X166721Y98999D01*
X166791Y98971D01*
X166862Y98948D01*
X166934Y98927D01*
X167007Y98911D01*
X167081Y98898D01*
X167156Y98888D01*
X167231Y98883D01*
X167306Y98881D01*
X168738Y99904D02*
X168803Y100042D01*
X168865Y100182D01*
X168923Y100324D01*
X168978Y100467D01*
X169029Y100611D01*
X169077Y100756D01*
X169120Y100903D01*
X169160Y101051D01*
X169197Y101199D01*
X169229Y101349D01*
X169258Y101499D01*
X169283Y101650D01*
X169304Y101801D01*
X169321Y101953D01*
X169335Y102106D01*
X169344Y102258D01*
X169350Y102411D01*
X169352Y102564D01*
X168738Y99904D02*
X168712Y99834D01*
X168682Y99764D01*
X168650Y99697D01*
X168613Y99631D01*
X168574Y99567D01*
X168531Y99505D01*
X168485Y99446D01*
X168437Y99388D01*
X168386Y99334D01*
X168332Y99281D01*
X168275Y99232D01*
X168216Y99185D01*
X168155Y99142D01*
X168092Y99101D01*
X168027Y99064D01*
X167960Y99029D01*
X167891Y98999D01*
X167821Y98971D01*
X167750Y98948D01*
X167678Y98927D01*
X167605Y98911D01*
X167531Y98898D01*
X167456Y98888D01*
X167381Y98883D01*
X167306Y98881D01*
X165669Y100518D02*
X168943Y104610D01*
D12*
X173776Y150476D02*
X173776Y158604D01*
X180364Y158604D01*
X202224Y158604D02*
X202224Y150476D01*
X202224Y158604D02*
X195636Y158604D01*
D14*
X180476Y176311D02*
X180476Y179246D01*
X180477Y179246D02*
X180479Y179331D01*
X180485Y179415D01*
X180495Y179499D01*
X180508Y179583D01*
X180526Y179666D01*
X180547Y179748D01*
X180572Y179829D01*
X180601Y179909D01*
X180633Y179987D01*
X180669Y180063D01*
X180709Y180138D01*
X180752Y180211D01*
X180798Y180282D01*
X180847Y180351D01*
X180900Y180418D01*
X180956Y180482D01*
X181014Y180543D01*
X181075Y180601D01*
X181139Y180657D01*
X181206Y180710D01*
X181275Y180759D01*
X181346Y180805D01*
X181419Y180848D01*
X181494Y180888D01*
X181570Y180924D01*
X181648Y180956D01*
X181728Y180985D01*
X181809Y181010D01*
X181891Y181031D01*
X181974Y181049D01*
X182058Y181062D01*
X182142Y181072D01*
X182226Y181078D01*
X182311Y181080D01*
X182396Y181078D01*
X182480Y181072D01*
X182564Y181062D01*
X182648Y181049D01*
X182731Y181031D01*
X182813Y181010D01*
X182894Y180985D01*
X182974Y180956D01*
X183052Y180924D01*
X183128Y180888D01*
X183203Y180848D01*
X183276Y180805D01*
X183347Y180759D01*
X183416Y180710D01*
X183483Y180657D01*
X183547Y180601D01*
X183608Y180543D01*
X183666Y180482D01*
X183722Y180418D01*
X183775Y180351D01*
X183824Y180282D01*
X183870Y180211D01*
X183913Y180138D01*
X183953Y180063D01*
X183989Y179987D01*
X184021Y179909D01*
X184050Y179829D01*
X184075Y179748D01*
X184096Y179666D01*
X184114Y179583D01*
X184127Y179499D01*
X184137Y179415D01*
X184143Y179331D01*
X184145Y179246D01*
X184145Y176311D01*
X184143Y176226D01*
X184137Y176142D01*
X184127Y176058D01*
X184114Y175974D01*
X184096Y175891D01*
X184075Y175809D01*
X184050Y175728D01*
X184021Y175648D01*
X183989Y175570D01*
X183953Y175494D01*
X183913Y175419D01*
X183870Y175346D01*
X183824Y175275D01*
X183775Y175206D01*
X183722Y175139D01*
X183666Y175075D01*
X183608Y175014D01*
X183547Y174956D01*
X183483Y174900D01*
X183416Y174847D01*
X183347Y174798D01*
X183276Y174752D01*
X183203Y174709D01*
X183128Y174669D01*
X183052Y174633D01*
X182974Y174601D01*
X182894Y174572D01*
X182813Y174547D01*
X182731Y174526D01*
X182648Y174508D01*
X182564Y174495D01*
X182480Y174485D01*
X182396Y174479D01*
X182311Y174477D01*
X182226Y174479D01*
X182142Y174485D01*
X182058Y174495D01*
X181974Y174508D01*
X181891Y174526D01*
X181809Y174547D01*
X181728Y174572D01*
X181648Y174601D01*
X181570Y174633D01*
X181494Y174669D01*
X181419Y174709D01*
X181346Y174752D01*
X181275Y174798D01*
X181206Y174847D01*
X181139Y174900D01*
X181075Y174956D01*
X181014Y175014D01*
X180956Y175075D01*
X180900Y175139D01*
X180847Y175206D01*
X180798Y175275D01*
X180752Y175346D01*
X180709Y175419D01*
X180669Y175494D01*
X180633Y175570D01*
X180601Y175648D01*
X180572Y175728D01*
X180547Y175809D01*
X180526Y175891D01*
X180508Y175974D01*
X180495Y176058D01*
X180485Y176142D01*
X180479Y176226D01*
X180477Y176311D01*
X183411Y175944D02*
X184879Y174476D01*
X187322Y174476D02*
X189156Y174476D01*
X189156Y174477D02*
X189241Y174479D01*
X189325Y174485D01*
X189409Y174495D01*
X189493Y174508D01*
X189576Y174526D01*
X189658Y174547D01*
X189739Y174572D01*
X189819Y174601D01*
X189897Y174633D01*
X189973Y174669D01*
X190048Y174709D01*
X190121Y174752D01*
X190192Y174798D01*
X190261Y174847D01*
X190328Y174900D01*
X190392Y174956D01*
X190453Y175014D01*
X190511Y175075D01*
X190567Y175139D01*
X190620Y175206D01*
X190669Y175275D01*
X190715Y175346D01*
X190758Y175419D01*
X190798Y175494D01*
X190834Y175570D01*
X190866Y175648D01*
X190895Y175728D01*
X190920Y175809D01*
X190941Y175891D01*
X190959Y175974D01*
X190972Y176058D01*
X190982Y176142D01*
X190988Y176226D01*
X190990Y176311D01*
X190988Y176396D01*
X190982Y176480D01*
X190972Y176564D01*
X190959Y176648D01*
X190941Y176731D01*
X190920Y176813D01*
X190895Y176894D01*
X190866Y176974D01*
X190834Y177052D01*
X190798Y177128D01*
X190758Y177203D01*
X190715Y177276D01*
X190669Y177347D01*
X190620Y177416D01*
X190567Y177483D01*
X190511Y177547D01*
X190453Y177608D01*
X190392Y177666D01*
X190328Y177722D01*
X190261Y177775D01*
X190192Y177824D01*
X190121Y177870D01*
X190048Y177913D01*
X189973Y177953D01*
X189897Y177989D01*
X189819Y178021D01*
X189739Y178050D01*
X189658Y178075D01*
X189576Y178096D01*
X189493Y178114D01*
X189409Y178127D01*
X189325Y178137D01*
X189241Y178143D01*
X189156Y178145D01*
X189523Y181080D02*
X187322Y181080D01*
X189523Y181081D02*
X189599Y181079D01*
X189674Y181073D01*
X189749Y181064D01*
X189823Y181050D01*
X189897Y181033D01*
X189969Y181011D01*
X190041Y180987D01*
X190111Y180958D01*
X190179Y180926D01*
X190246Y180891D01*
X190311Y180852D01*
X190374Y180809D01*
X190434Y180764D01*
X190492Y180716D01*
X190548Y180664D01*
X190600Y180610D01*
X190650Y180553D01*
X190697Y180494D01*
X190741Y180433D01*
X190782Y180369D01*
X190819Y180303D01*
X190853Y180235D01*
X190883Y180166D01*
X190910Y180095D01*
X190933Y180023D01*
X190952Y179950D01*
X190967Y179876D01*
X190979Y179801D01*
X190987Y179726D01*
X190991Y179651D01*
X190991Y179575D01*
X190987Y179500D01*
X190979Y179425D01*
X190967Y179350D01*
X190952Y179276D01*
X190933Y179203D01*
X190910Y179131D01*
X190883Y179060D01*
X190853Y178991D01*
X190819Y178923D01*
X190782Y178857D01*
X190741Y178793D01*
X190697Y178732D01*
X190650Y178673D01*
X190600Y178616D01*
X190548Y178562D01*
X190492Y178510D01*
X190434Y178462D01*
X190374Y178417D01*
X190311Y178374D01*
X190246Y178335D01*
X190179Y178300D01*
X190111Y178268D01*
X190041Y178239D01*
X189969Y178215D01*
X189897Y178193D01*
X189823Y178176D01*
X189749Y178162D01*
X189674Y178153D01*
X189599Y178147D01*
X189523Y178145D01*
X188055Y178145D01*
D10*
X172500Y121500D02*
X172500Y104500D01*
X183500Y104500D02*
X183500Y121500D01*
D17*
X178000Y109500D03*
D16*
X158881Y128881D02*
X158881Y136247D01*
X160927Y136247D01*
X161016Y136245D01*
X161105Y136239D01*
X161194Y136229D01*
X161282Y136216D01*
X161370Y136199D01*
X161457Y136177D01*
X161542Y136152D01*
X161627Y136124D01*
X161710Y136091D01*
X161792Y136055D01*
X161872Y136016D01*
X161950Y135973D01*
X162026Y135927D01*
X162101Y135877D01*
X162173Y135824D01*
X162242Y135768D01*
X162309Y135709D01*
X162374Y135648D01*
X162435Y135583D01*
X162494Y135516D01*
X162550Y135447D01*
X162603Y135375D01*
X162653Y135300D01*
X162699Y135224D01*
X162742Y135146D01*
X162781Y135066D01*
X162817Y134984D01*
X162850Y134901D01*
X162878Y134816D01*
X162903Y134731D01*
X162925Y134644D01*
X162942Y134556D01*
X162955Y134468D01*
X162965Y134379D01*
X162971Y134290D01*
X162973Y134201D01*
X162973Y130927D01*
X162971Y130838D01*
X162965Y130749D01*
X162955Y130660D01*
X162942Y130572D01*
X162925Y130484D01*
X162903Y130397D01*
X162878Y130312D01*
X162850Y130227D01*
X162817Y130144D01*
X162781Y130062D01*
X162742Y129982D01*
X162699Y129904D01*
X162653Y129828D01*
X162603Y129753D01*
X162550Y129681D01*
X162494Y129612D01*
X162435Y129545D01*
X162374Y129480D01*
X162309Y129419D01*
X162242Y129360D01*
X162173Y129304D01*
X162101Y129251D01*
X162026Y129201D01*
X161950Y129155D01*
X161872Y129112D01*
X161792Y129073D01*
X161710Y129037D01*
X161627Y129004D01*
X161542Y128976D01*
X161457Y128951D01*
X161370Y128929D01*
X161282Y128912D01*
X161194Y128899D01*
X161105Y128889D01*
X161016Y128883D01*
X160927Y128881D01*
X158881Y128881D01*
X166440Y128881D02*
X168895Y128881D01*
X168973Y128883D01*
X169051Y128888D01*
X169128Y128898D01*
X169205Y128911D01*
X169281Y128927D01*
X169356Y128947D01*
X169430Y128971D01*
X169503Y128998D01*
X169575Y129029D01*
X169645Y129063D01*
X169714Y129100D01*
X169780Y129141D01*
X169845Y129185D01*
X169907Y129231D01*
X169967Y129281D01*
X170025Y129333D01*
X170080Y129388D01*
X170132Y129446D01*
X170182Y129506D01*
X170228Y129568D01*
X170272Y129633D01*
X170313Y129700D01*
X170350Y129768D01*
X170384Y129838D01*
X170415Y129910D01*
X170442Y129983D01*
X170466Y130057D01*
X170486Y130132D01*
X170502Y130208D01*
X170515Y130285D01*
X170525Y130362D01*
X170530Y130440D01*
X170532Y130518D01*
X170532Y131336D01*
X170530Y131414D01*
X170525Y131492D01*
X170515Y131569D01*
X170502Y131646D01*
X170486Y131722D01*
X170466Y131797D01*
X170442Y131871D01*
X170415Y131944D01*
X170384Y132016D01*
X170350Y132086D01*
X170313Y132155D01*
X170272Y132221D01*
X170228Y132286D01*
X170182Y132348D01*
X170132Y132408D01*
X170080Y132466D01*
X170025Y132521D01*
X169967Y132573D01*
X169907Y132623D01*
X169845Y132669D01*
X169780Y132713D01*
X169714Y132754D01*
X169645Y132791D01*
X169575Y132825D01*
X169503Y132856D01*
X169430Y132883D01*
X169356Y132907D01*
X169281Y132927D01*
X169205Y132943D01*
X169128Y132956D01*
X169051Y132966D01*
X168973Y132971D01*
X168895Y132973D01*
X166440Y132973D01*
X166440Y136247D01*
X170532Y136247D01*
X56881Y150081D02*
X56881Y157447D01*
X58927Y157447D01*
X59016Y157445D01*
X59105Y157439D01*
X59194Y157429D01*
X59282Y157416D01*
X59370Y157399D01*
X59457Y157377D01*
X59542Y157352D01*
X59627Y157324D01*
X59710Y157291D01*
X59792Y157255D01*
X59872Y157216D01*
X59950Y157173D01*
X60026Y157127D01*
X60101Y157077D01*
X60173Y157024D01*
X60242Y156968D01*
X60309Y156909D01*
X60374Y156848D01*
X60435Y156783D01*
X60494Y156716D01*
X60550Y156647D01*
X60603Y156575D01*
X60653Y156500D01*
X60699Y156424D01*
X60742Y156346D01*
X60781Y156266D01*
X60817Y156184D01*
X60850Y156101D01*
X60878Y156016D01*
X60903Y155931D01*
X60925Y155844D01*
X60942Y155756D01*
X60955Y155668D01*
X60965Y155579D01*
X60971Y155490D01*
X60973Y155401D01*
X60971Y155312D01*
X60965Y155223D01*
X60955Y155134D01*
X60942Y155046D01*
X60925Y154958D01*
X60903Y154871D01*
X60878Y154786D01*
X60850Y154701D01*
X60817Y154618D01*
X60781Y154536D01*
X60742Y154456D01*
X60699Y154378D01*
X60653Y154302D01*
X60603Y154227D01*
X60550Y154155D01*
X60494Y154086D01*
X60435Y154019D01*
X60374Y153954D01*
X60309Y153893D01*
X60242Y153834D01*
X60173Y153778D01*
X60101Y153725D01*
X60026Y153675D01*
X59950Y153629D01*
X59872Y153586D01*
X59792Y153547D01*
X59710Y153511D01*
X59627Y153478D01*
X59542Y153450D01*
X59457Y153425D01*
X59370Y153403D01*
X59282Y153386D01*
X59194Y153373D01*
X59105Y153363D01*
X59016Y153357D01*
X58927Y153355D01*
X56881Y153355D01*
X59336Y153355D02*
X60973Y150081D01*
X64145Y155810D02*
X66191Y157447D01*
X66191Y150081D01*
X64145Y150081D02*
X68237Y150081D01*
X71460Y155810D02*
X73506Y157447D01*
X73506Y150081D01*
X71460Y150081D02*
X75552Y150081D01*
D11*
X123500Y125750D02*
X136500Y125750D01*
X136500Y94250D02*
X123500Y94250D01*
D15*
X107000Y118000D02*
X107002Y118063D01*
X107008Y118125D01*
X107018Y118187D01*
X107031Y118249D01*
X107049Y118309D01*
X107070Y118368D01*
X107095Y118426D01*
X107124Y118482D01*
X107156Y118536D01*
X107191Y118588D01*
X107229Y118637D01*
X107271Y118685D01*
X107315Y118729D01*
X107363Y118771D01*
X107412Y118809D01*
X107464Y118844D01*
X107518Y118876D01*
X107574Y118905D01*
X107632Y118930D01*
X107691Y118951D01*
X107751Y118969D01*
X107813Y118982D01*
X107875Y118992D01*
X107937Y118998D01*
X108000Y119000D01*
X108063Y118998D01*
X108125Y118992D01*
X108187Y118982D01*
X108249Y118969D01*
X108309Y118951D01*
X108368Y118930D01*
X108426Y118905D01*
X108482Y118876D01*
X108536Y118844D01*
X108588Y118809D01*
X108637Y118771D01*
X108685Y118729D01*
X108729Y118685D01*
X108771Y118637D01*
X108809Y118588D01*
X108844Y118536D01*
X108876Y118482D01*
X108905Y118426D01*
X108930Y118368D01*
X108951Y118309D01*
X108969Y118249D01*
X108982Y118187D01*
X108992Y118125D01*
X108998Y118063D01*
X109000Y118000D01*
X108998Y117937D01*
X108992Y117875D01*
X108982Y117813D01*
X108969Y117751D01*
X108951Y117691D01*
X108930Y117632D01*
X108905Y117574D01*
X108876Y117518D01*
X108844Y117464D01*
X108809Y117412D01*
X108771Y117363D01*
X108729Y117315D01*
X108685Y117271D01*
X108637Y117229D01*
X108588Y117191D01*
X108536Y117156D01*
X108482Y117124D01*
X108426Y117095D01*
X108368Y117070D01*
X108309Y117049D01*
X108249Y117031D01*
X108187Y117018D01*
X108125Y117008D01*
X108063Y117002D01*
X108000Y117000D01*
X107937Y117002D01*
X107875Y117008D01*
X107813Y117018D01*
X107751Y117031D01*
X107691Y117049D01*
X107632Y117070D01*
X107574Y117095D01*
X107518Y117124D01*
X107464Y117156D01*
X107412Y117191D01*
X107363Y117229D01*
X107315Y117271D01*
X107271Y117315D01*
X107229Y117363D01*
X107191Y117412D01*
X107156Y117464D01*
X107124Y117518D01*
X107095Y117574D01*
X107070Y117632D01*
X107049Y117691D01*
X107031Y117751D01*
X107018Y117813D01*
X107008Y117875D01*
X107002Y117937D01*
X107000Y118000D01*
D12*
X67250Y122000D02*
X67250Y94000D01*
X38750Y94000D02*
X38750Y122000D01*
D18*
X37500Y90500D03*
D14*
X80947Y127634D02*
X82415Y127634D01*
X80947Y127634D02*
X80873Y127636D01*
X80798Y127642D01*
X80725Y127651D01*
X80651Y127664D01*
X80579Y127681D01*
X80508Y127701D01*
X80437Y127725D01*
X80368Y127753D01*
X80301Y127784D01*
X80235Y127818D01*
X80170Y127856D01*
X80108Y127897D01*
X80048Y127941D01*
X79991Y127988D01*
X79936Y128038D01*
X79883Y128091D01*
X79833Y128146D01*
X79786Y128203D01*
X79742Y128263D01*
X79701Y128325D01*
X79663Y128390D01*
X79629Y128456D01*
X79598Y128523D01*
X79570Y128592D01*
X79546Y128663D01*
X79526Y128734D01*
X79509Y128806D01*
X79496Y128880D01*
X79487Y128953D01*
X79481Y129028D01*
X79479Y129102D01*
X79480Y129102D02*
X79480Y132770D01*
X79479Y132770D02*
X79481Y132844D01*
X79487Y132919D01*
X79496Y132992D01*
X79509Y133066D01*
X79526Y133138D01*
X79546Y133209D01*
X79570Y133280D01*
X79598Y133349D01*
X79629Y133416D01*
X79663Y133482D01*
X79701Y133547D01*
X79742Y133609D01*
X79786Y133669D01*
X79833Y133726D01*
X79883Y133781D01*
X79936Y133834D01*
X79991Y133884D01*
X80048Y133931D01*
X80108Y133975D01*
X80170Y134016D01*
X80235Y134054D01*
X80300Y134088D01*
X80368Y134119D01*
X80437Y134147D01*
X80508Y134171D01*
X80579Y134191D01*
X80651Y134208D01*
X80725Y134221D01*
X80798Y134230D01*
X80873Y134236D01*
X80947Y134238D01*
X82415Y134238D01*
X87079Y134238D02*
X85611Y129102D01*
X89280Y129102D01*
X88180Y130569D02*
X88180Y127634D01*
D11*
X48990Y191540D02*
X209010Y191540D01*
X48990Y191540D02*
X48990Y392200D01*
X48990Y450620D01*
X209010Y450620D01*
X209010Y392200D02*
X209010Y191540D01*
X209010Y392200D02*
X209010Y450620D01*
X209010Y392200D02*
X48990Y392200D01*
X168370Y378230D02*
X168370Y349020D01*
X197580Y349020D01*
X197580Y378230D01*
X168370Y378230D01*
M02*
