G04 EAGLE Gerber RS-274X export*
G75*
%MOMM*%
%FSLAX34Y34*%
%LPD*%
%INSilkscreen Bottom*%
%IPPOS*%
%AMOC8*
5,1,8,0,0,1.08239X$1,22.5*%
G01*
%ADD10C,0.203200*%
%ADD11C,0.127000*%
%ADD12C,0.101600*%
%ADD13C,0.152400*%
%ADD14C,0.076200*%


D10*
X224553Y21166D02*
X224553Y24722D01*
X228109Y22351D02*
X219219Y22351D01*
X219137Y22353D01*
X219055Y22359D01*
X218973Y22368D01*
X218892Y22381D01*
X218812Y22398D01*
X218732Y22419D01*
X218654Y22443D01*
X218577Y22471D01*
X218501Y22502D01*
X218426Y22537D01*
X218354Y22576D01*
X218283Y22617D01*
X218214Y22662D01*
X218148Y22710D01*
X218083Y22761D01*
X218021Y22815D01*
X217962Y22872D01*
X217905Y22931D01*
X217851Y22993D01*
X217800Y23058D01*
X217752Y23124D01*
X217707Y23193D01*
X217666Y23264D01*
X217627Y23336D01*
X217592Y23411D01*
X217561Y23487D01*
X217533Y23564D01*
X217509Y23642D01*
X217488Y23722D01*
X217471Y23802D01*
X217458Y23883D01*
X217449Y23965D01*
X217443Y24047D01*
X217441Y24129D01*
X217441Y24722D01*
X217441Y28882D02*
X218034Y28882D01*
X218034Y29475D01*
X217441Y29475D01*
X217441Y28882D01*
X217441Y34767D02*
X224553Y34767D01*
X224553Y40101D01*
X224551Y40183D01*
X224545Y40265D01*
X224536Y40347D01*
X224523Y40428D01*
X224506Y40508D01*
X224485Y40588D01*
X224461Y40666D01*
X224433Y40743D01*
X224402Y40819D01*
X224367Y40894D01*
X224328Y40966D01*
X224287Y41037D01*
X224242Y41106D01*
X224194Y41172D01*
X224143Y41237D01*
X224089Y41299D01*
X224032Y41358D01*
X223973Y41415D01*
X223911Y41469D01*
X223846Y41520D01*
X223780Y41568D01*
X223711Y41613D01*
X223640Y41654D01*
X223568Y41693D01*
X223493Y41728D01*
X223417Y41759D01*
X223340Y41787D01*
X223262Y41811D01*
X223182Y41832D01*
X223102Y41849D01*
X223021Y41862D01*
X222939Y41871D01*
X222857Y41877D01*
X222775Y41879D01*
X217441Y41879D01*
X217441Y38323D02*
X224553Y38323D01*
X217441Y49541D02*
X217441Y52504D01*
X217441Y49541D02*
X217443Y49459D01*
X217449Y49377D01*
X217458Y49295D01*
X217471Y49214D01*
X217488Y49134D01*
X217509Y49054D01*
X217533Y48976D01*
X217561Y48899D01*
X217592Y48823D01*
X217627Y48748D01*
X217666Y48676D01*
X217707Y48605D01*
X217752Y48536D01*
X217800Y48470D01*
X217851Y48405D01*
X217905Y48343D01*
X217962Y48284D01*
X218021Y48227D01*
X218083Y48173D01*
X218148Y48122D01*
X218214Y48074D01*
X218283Y48029D01*
X218354Y47988D01*
X218426Y47949D01*
X218501Y47914D01*
X218577Y47883D01*
X218654Y47855D01*
X218732Y47831D01*
X218812Y47810D01*
X218892Y47793D01*
X218973Y47780D01*
X219055Y47771D01*
X219137Y47765D01*
X219219Y47763D01*
X222182Y47763D01*
X222279Y47765D01*
X222375Y47771D01*
X222471Y47781D01*
X222567Y47795D01*
X222662Y47812D01*
X222757Y47834D01*
X222850Y47859D01*
X222942Y47888D01*
X223033Y47921D01*
X223123Y47958D01*
X223211Y47998D01*
X223297Y48042D01*
X223381Y48089D01*
X223464Y48139D01*
X223544Y48193D01*
X223622Y48251D01*
X223698Y48311D01*
X223771Y48374D01*
X223841Y48440D01*
X223909Y48510D01*
X223974Y48581D01*
X224036Y48656D01*
X224094Y48733D01*
X224150Y48812D01*
X224202Y48893D01*
X224251Y48977D01*
X224297Y49062D01*
X224339Y49149D01*
X224377Y49238D01*
X224412Y49328D01*
X224443Y49420D01*
X224470Y49513D01*
X224494Y49606D01*
X224513Y49701D01*
X224529Y49797D01*
X224541Y49893D01*
X224549Y49989D01*
X224553Y50086D01*
X224553Y50182D01*
X224549Y50279D01*
X224541Y50375D01*
X224529Y50471D01*
X224513Y50567D01*
X224494Y50662D01*
X224470Y50755D01*
X224443Y50848D01*
X224412Y50940D01*
X224377Y51030D01*
X224339Y51119D01*
X224297Y51206D01*
X224251Y51291D01*
X224202Y51375D01*
X224150Y51456D01*
X224094Y51535D01*
X224036Y51612D01*
X223974Y51687D01*
X223909Y51758D01*
X223841Y51828D01*
X223771Y51894D01*
X223698Y51957D01*
X223622Y52017D01*
X223544Y52075D01*
X223464Y52129D01*
X223381Y52179D01*
X223297Y52226D01*
X223211Y52270D01*
X223123Y52310D01*
X223033Y52347D01*
X222942Y52380D01*
X222850Y52409D01*
X222757Y52434D01*
X222662Y52456D01*
X222567Y52473D01*
X222471Y52487D01*
X222375Y52497D01*
X222279Y52503D01*
X222182Y52505D01*
X222182Y52504D02*
X220997Y52504D01*
X220997Y47763D01*
X216256Y57288D02*
X229294Y62029D01*
X228109Y71466D02*
X217441Y71466D01*
X217441Y68502D01*
X217443Y68420D01*
X217449Y68338D01*
X217458Y68256D01*
X217471Y68175D01*
X217488Y68095D01*
X217509Y68015D01*
X217533Y67937D01*
X217561Y67860D01*
X217592Y67784D01*
X217627Y67709D01*
X217666Y67637D01*
X217707Y67566D01*
X217752Y67497D01*
X217800Y67431D01*
X217851Y67366D01*
X217905Y67304D01*
X217962Y67245D01*
X218021Y67188D01*
X218083Y67134D01*
X218148Y67083D01*
X218214Y67035D01*
X218283Y66990D01*
X218354Y66949D01*
X218426Y66910D01*
X218501Y66875D01*
X218577Y66844D01*
X218654Y66816D01*
X218732Y66792D01*
X218812Y66771D01*
X218892Y66754D01*
X218973Y66741D01*
X219055Y66732D01*
X219137Y66726D01*
X219219Y66724D01*
X222775Y66724D01*
X222857Y66726D01*
X222939Y66732D01*
X223021Y66741D01*
X223102Y66754D01*
X223182Y66771D01*
X223262Y66792D01*
X223340Y66816D01*
X223417Y66844D01*
X223493Y66875D01*
X223568Y66910D01*
X223640Y66949D01*
X223711Y66990D01*
X223780Y67035D01*
X223846Y67083D01*
X223911Y67134D01*
X223973Y67188D01*
X224032Y67245D01*
X224089Y67304D01*
X224143Y67366D01*
X224194Y67431D01*
X224242Y67497D01*
X224287Y67566D01*
X224328Y67637D01*
X224367Y67709D01*
X224402Y67784D01*
X224433Y67860D01*
X224461Y67937D01*
X224485Y68015D01*
X224506Y68095D01*
X224523Y68175D01*
X224536Y68256D01*
X224545Y68338D01*
X224551Y68420D01*
X224553Y68502D01*
X224553Y71466D01*
X217441Y78878D02*
X217441Y81841D01*
X217441Y78878D02*
X217443Y78796D01*
X217449Y78714D01*
X217458Y78632D01*
X217471Y78551D01*
X217488Y78471D01*
X217509Y78391D01*
X217533Y78313D01*
X217561Y78236D01*
X217592Y78160D01*
X217627Y78085D01*
X217666Y78013D01*
X217707Y77942D01*
X217752Y77873D01*
X217800Y77807D01*
X217851Y77742D01*
X217905Y77680D01*
X217962Y77621D01*
X218021Y77564D01*
X218083Y77510D01*
X218148Y77459D01*
X218214Y77411D01*
X218283Y77366D01*
X218354Y77325D01*
X218426Y77286D01*
X218501Y77251D01*
X218577Y77220D01*
X218654Y77192D01*
X218732Y77168D01*
X218812Y77147D01*
X218892Y77130D01*
X218973Y77117D01*
X219055Y77108D01*
X219137Y77102D01*
X219219Y77100D01*
X222182Y77100D01*
X222182Y77099D02*
X222279Y77101D01*
X222375Y77107D01*
X222471Y77117D01*
X222567Y77131D01*
X222662Y77148D01*
X222757Y77170D01*
X222850Y77195D01*
X222942Y77224D01*
X223033Y77257D01*
X223123Y77294D01*
X223211Y77334D01*
X223297Y77378D01*
X223381Y77425D01*
X223464Y77475D01*
X223544Y77529D01*
X223622Y77587D01*
X223698Y77647D01*
X223771Y77710D01*
X223841Y77776D01*
X223909Y77846D01*
X223974Y77917D01*
X224036Y77992D01*
X224094Y78069D01*
X224150Y78148D01*
X224202Y78229D01*
X224251Y78313D01*
X224297Y78398D01*
X224339Y78485D01*
X224377Y78574D01*
X224412Y78664D01*
X224443Y78756D01*
X224470Y78849D01*
X224494Y78942D01*
X224513Y79037D01*
X224529Y79133D01*
X224541Y79229D01*
X224549Y79325D01*
X224553Y79422D01*
X224553Y79518D01*
X224549Y79615D01*
X224541Y79711D01*
X224529Y79807D01*
X224513Y79903D01*
X224494Y79998D01*
X224470Y80091D01*
X224443Y80184D01*
X224412Y80276D01*
X224377Y80366D01*
X224339Y80455D01*
X224297Y80542D01*
X224251Y80627D01*
X224202Y80711D01*
X224150Y80792D01*
X224094Y80871D01*
X224036Y80948D01*
X223974Y81023D01*
X223909Y81094D01*
X223841Y81164D01*
X223771Y81230D01*
X223698Y81293D01*
X223622Y81353D01*
X223544Y81411D01*
X223464Y81465D01*
X223381Y81515D01*
X223297Y81562D01*
X223211Y81606D01*
X223123Y81646D01*
X223033Y81683D01*
X222942Y81716D01*
X222850Y81745D01*
X222757Y81770D01*
X222662Y81792D01*
X222567Y81809D01*
X222471Y81823D01*
X222375Y81833D01*
X222279Y81839D01*
X222182Y81841D01*
X220997Y81841D01*
X220997Y77100D01*
X221590Y88992D02*
X221590Y91659D01*
X221589Y88992D02*
X221587Y88903D01*
X221581Y88814D01*
X221572Y88725D01*
X221558Y88637D01*
X221541Y88549D01*
X221520Y88462D01*
X221496Y88377D01*
X221467Y88292D01*
X221435Y88209D01*
X221400Y88127D01*
X221361Y88046D01*
X221319Y87968D01*
X221273Y87891D01*
X221224Y87817D01*
X221172Y87744D01*
X221116Y87674D01*
X221058Y87606D01*
X220997Y87541D01*
X220933Y87479D01*
X220867Y87419D01*
X220798Y87363D01*
X220727Y87309D01*
X220653Y87258D01*
X220578Y87211D01*
X220500Y87167D01*
X220421Y87126D01*
X220340Y87089D01*
X220257Y87055D01*
X220173Y87025D01*
X220088Y86999D01*
X220001Y86976D01*
X219914Y86957D01*
X219826Y86941D01*
X219738Y86930D01*
X219649Y86922D01*
X219560Y86918D01*
X219470Y86918D01*
X219381Y86922D01*
X219292Y86930D01*
X219204Y86941D01*
X219116Y86957D01*
X219029Y86976D01*
X218942Y86999D01*
X218857Y87025D01*
X218773Y87055D01*
X218690Y87089D01*
X218609Y87126D01*
X218530Y87167D01*
X218452Y87211D01*
X218377Y87258D01*
X218303Y87309D01*
X218232Y87363D01*
X218163Y87419D01*
X218097Y87479D01*
X218033Y87541D01*
X217972Y87606D01*
X217914Y87674D01*
X217858Y87744D01*
X217806Y87817D01*
X217757Y87891D01*
X217711Y87968D01*
X217669Y88046D01*
X217630Y88127D01*
X217595Y88209D01*
X217563Y88292D01*
X217534Y88377D01*
X217510Y88462D01*
X217489Y88549D01*
X217472Y88637D01*
X217458Y88725D01*
X217449Y88814D01*
X217443Y88903D01*
X217441Y88992D01*
X217441Y91659D01*
X222775Y91659D01*
X222857Y91657D01*
X222939Y91651D01*
X223021Y91642D01*
X223102Y91629D01*
X223182Y91612D01*
X223262Y91591D01*
X223340Y91567D01*
X223417Y91539D01*
X223493Y91508D01*
X223568Y91473D01*
X223640Y91434D01*
X223711Y91393D01*
X223780Y91348D01*
X223846Y91300D01*
X223911Y91249D01*
X223973Y91195D01*
X224032Y91138D01*
X224089Y91079D01*
X224143Y91017D01*
X224194Y90952D01*
X224242Y90886D01*
X224287Y90817D01*
X224328Y90746D01*
X224367Y90674D01*
X224402Y90599D01*
X224433Y90523D01*
X224461Y90446D01*
X224485Y90368D01*
X224506Y90288D01*
X224523Y90208D01*
X224536Y90127D01*
X224545Y90045D01*
X224551Y89963D01*
X224553Y89881D01*
X224553Y87510D01*
X217441Y96912D02*
X224553Y101653D01*
X224553Y96912D02*
X217441Y101653D01*
X217441Y106056D02*
X224553Y110797D01*
X224553Y106056D02*
X217441Y110797D01*
D11*
X83788Y302000D02*
X83788Y378000D01*
X37788Y378000D02*
X37788Y302000D01*
D12*
X86948Y332886D02*
X86948Y334466D01*
X86948Y332886D02*
X86950Y332808D01*
X86956Y332731D01*
X86965Y332654D01*
X86978Y332578D01*
X86995Y332502D01*
X87016Y332427D01*
X87040Y332354D01*
X87068Y332281D01*
X87100Y332210D01*
X87135Y332141D01*
X87173Y332074D01*
X87214Y332008D01*
X87259Y331945D01*
X87307Y331884D01*
X87357Y331825D01*
X87411Y331769D01*
X87467Y331715D01*
X87526Y331665D01*
X87587Y331617D01*
X87650Y331572D01*
X87716Y331531D01*
X87783Y331493D01*
X87852Y331458D01*
X87923Y331426D01*
X87996Y331398D01*
X88069Y331374D01*
X88144Y331353D01*
X88220Y331336D01*
X88296Y331323D01*
X88373Y331314D01*
X88450Y331308D01*
X88528Y331306D01*
X88528Y331305D02*
X92480Y331305D01*
X92480Y331306D02*
X92558Y331308D01*
X92635Y331314D01*
X92712Y331323D01*
X92788Y331336D01*
X92864Y331353D01*
X92939Y331374D01*
X93012Y331398D01*
X93085Y331426D01*
X93156Y331458D01*
X93225Y331493D01*
X93292Y331531D01*
X93358Y331572D01*
X93421Y331617D01*
X93482Y331665D01*
X93541Y331715D01*
X93597Y331769D01*
X93651Y331825D01*
X93701Y331884D01*
X93749Y331945D01*
X93794Y332008D01*
X93835Y332074D01*
X93873Y332141D01*
X93908Y332210D01*
X93940Y332281D01*
X93968Y332354D01*
X93992Y332427D01*
X94013Y332502D01*
X94030Y332578D01*
X94043Y332654D01*
X94052Y332731D01*
X94058Y332808D01*
X94060Y332886D01*
X94060Y334466D01*
X92480Y337428D02*
X94060Y339404D01*
X86948Y339404D01*
X86948Y337428D02*
X86948Y341380D01*
X86948Y344744D02*
X86948Y346719D01*
X86950Y346806D01*
X86956Y346894D01*
X86965Y346981D01*
X86979Y347067D01*
X86996Y347153D01*
X87017Y347237D01*
X87042Y347321D01*
X87071Y347404D01*
X87103Y347485D01*
X87138Y347565D01*
X87177Y347643D01*
X87220Y347720D01*
X87266Y347794D01*
X87315Y347866D01*
X87367Y347936D01*
X87423Y348004D01*
X87481Y348069D01*
X87542Y348132D01*
X87606Y348191D01*
X87673Y348248D01*
X87741Y348302D01*
X87813Y348353D01*
X87886Y348400D01*
X87961Y348445D01*
X88039Y348486D01*
X88118Y348523D01*
X88198Y348557D01*
X88280Y348587D01*
X88363Y348614D01*
X88448Y348637D01*
X88533Y348656D01*
X88619Y348671D01*
X88706Y348683D01*
X88793Y348691D01*
X88880Y348695D01*
X88968Y348695D01*
X89055Y348691D01*
X89142Y348683D01*
X89229Y348671D01*
X89315Y348656D01*
X89400Y348637D01*
X89485Y348614D01*
X89568Y348587D01*
X89650Y348557D01*
X89730Y348523D01*
X89809Y348486D01*
X89887Y348445D01*
X89962Y348400D01*
X90035Y348353D01*
X90107Y348302D01*
X90175Y348248D01*
X90242Y348191D01*
X90306Y348132D01*
X90367Y348069D01*
X90425Y348004D01*
X90481Y347936D01*
X90533Y347866D01*
X90582Y347794D01*
X90628Y347720D01*
X90671Y347643D01*
X90710Y347565D01*
X90745Y347485D01*
X90777Y347404D01*
X90806Y347321D01*
X90831Y347237D01*
X90852Y347153D01*
X90869Y347067D01*
X90883Y346981D01*
X90892Y346894D01*
X90898Y346806D01*
X90900Y346719D01*
X94060Y347114D02*
X94060Y344744D01*
X94060Y347114D02*
X94058Y347193D01*
X94052Y347271D01*
X94042Y347349D01*
X94029Y347427D01*
X94011Y347504D01*
X93990Y347580D01*
X93965Y347654D01*
X93936Y347728D01*
X93904Y347800D01*
X93868Y347870D01*
X93828Y347938D01*
X93785Y348004D01*
X93739Y348068D01*
X93690Y348130D01*
X93638Y348189D01*
X93583Y348245D01*
X93525Y348299D01*
X93465Y348349D01*
X93402Y348397D01*
X93337Y348441D01*
X93270Y348482D01*
X93201Y348520D01*
X93130Y348554D01*
X93057Y348585D01*
X92983Y348612D01*
X92908Y348635D01*
X92832Y348654D01*
X92754Y348670D01*
X92676Y348682D01*
X92598Y348690D01*
X92519Y348694D01*
X92441Y348694D01*
X92362Y348690D01*
X92284Y348682D01*
X92206Y348670D01*
X92128Y348654D01*
X92052Y348635D01*
X91977Y348612D01*
X91903Y348585D01*
X91830Y348554D01*
X91759Y348520D01*
X91690Y348482D01*
X91623Y348441D01*
X91558Y348397D01*
X91495Y348349D01*
X91435Y348299D01*
X91377Y348245D01*
X91322Y348189D01*
X91270Y348130D01*
X91221Y348068D01*
X91175Y348004D01*
X91132Y347938D01*
X91092Y347870D01*
X91056Y347800D01*
X91024Y347728D01*
X90995Y347654D01*
X90970Y347580D01*
X90949Y347504D01*
X90931Y347427D01*
X90918Y347349D01*
X90908Y347271D01*
X90902Y347193D01*
X90900Y347114D01*
X90899Y347114D02*
X90899Y345534D01*
D13*
X92948Y323000D02*
X108696Y323000D01*
X92948Y323000D02*
X92948Y290982D01*
X47990Y290982D01*
X47990Y71018D01*
X92948Y71018D01*
X92948Y39000D01*
X163052Y39000D02*
X163052Y71018D01*
X208010Y71018D01*
X208010Y280982D01*
X198010Y290982D01*
X163052Y290982D01*
X163052Y323000D01*
X147304Y323000D01*
X108442Y39000D02*
X92948Y39000D01*
X147304Y39000D02*
X163052Y39000D01*
D14*
X228319Y261881D02*
X228319Y269247D01*
X226273Y269247D01*
X226184Y269245D01*
X226095Y269239D01*
X226006Y269229D01*
X225918Y269216D01*
X225830Y269199D01*
X225743Y269177D01*
X225658Y269152D01*
X225573Y269124D01*
X225490Y269091D01*
X225408Y269055D01*
X225328Y269016D01*
X225250Y268973D01*
X225174Y268927D01*
X225099Y268877D01*
X225027Y268824D01*
X224958Y268768D01*
X224891Y268709D01*
X224826Y268648D01*
X224765Y268583D01*
X224706Y268516D01*
X224650Y268447D01*
X224597Y268375D01*
X224547Y268300D01*
X224501Y268224D01*
X224458Y268146D01*
X224419Y268066D01*
X224383Y267984D01*
X224350Y267901D01*
X224322Y267816D01*
X224297Y267731D01*
X224275Y267644D01*
X224258Y267556D01*
X224245Y267468D01*
X224235Y267379D01*
X224229Y267290D01*
X224227Y267201D01*
X224229Y267112D01*
X224235Y267023D01*
X224245Y266934D01*
X224258Y266846D01*
X224275Y266758D01*
X224297Y266671D01*
X224322Y266586D01*
X224350Y266501D01*
X224383Y266418D01*
X224419Y266336D01*
X224458Y266256D01*
X224501Y266178D01*
X224547Y266102D01*
X224597Y266027D01*
X224650Y265955D01*
X224706Y265886D01*
X224765Y265819D01*
X224826Y265754D01*
X224891Y265693D01*
X224958Y265634D01*
X225027Y265578D01*
X225099Y265525D01*
X225174Y265475D01*
X225250Y265429D01*
X225328Y265386D01*
X225408Y265347D01*
X225490Y265311D01*
X225573Y265278D01*
X225658Y265250D01*
X225743Y265225D01*
X225830Y265203D01*
X225918Y265186D01*
X226006Y265173D01*
X226095Y265163D01*
X226184Y265157D01*
X226273Y265155D01*
X228319Y265155D01*
X225864Y265155D02*
X224227Y261881D01*
X216962Y267406D02*
X216964Y267491D01*
X216970Y267576D01*
X216980Y267660D01*
X216993Y267744D01*
X217011Y267828D01*
X217032Y267910D01*
X217057Y267991D01*
X217086Y268071D01*
X217119Y268150D01*
X217155Y268227D01*
X217195Y268302D01*
X217238Y268376D01*
X217284Y268447D01*
X217334Y268516D01*
X217387Y268583D01*
X217443Y268647D01*
X217502Y268708D01*
X217563Y268767D01*
X217627Y268823D01*
X217694Y268876D01*
X217763Y268926D01*
X217834Y268972D01*
X217908Y269015D01*
X217983Y269055D01*
X218060Y269091D01*
X218139Y269124D01*
X218219Y269153D01*
X218300Y269178D01*
X218382Y269199D01*
X218466Y269217D01*
X218550Y269230D01*
X218634Y269240D01*
X218719Y269246D01*
X218804Y269248D01*
X218804Y269247D02*
X218900Y269245D01*
X218996Y269239D01*
X219091Y269229D01*
X219186Y269216D01*
X219281Y269198D01*
X219374Y269177D01*
X219467Y269152D01*
X219558Y269123D01*
X219649Y269091D01*
X219738Y269055D01*
X219825Y269015D01*
X219911Y268972D01*
X219995Y268926D01*
X220077Y268876D01*
X220157Y268822D01*
X220234Y268766D01*
X220309Y268706D01*
X220382Y268644D01*
X220452Y268578D01*
X220520Y268510D01*
X220585Y268439D01*
X220646Y268366D01*
X220705Y268290D01*
X220761Y268211D01*
X220813Y268131D01*
X220862Y268048D01*
X220908Y267964D01*
X220950Y267878D01*
X220988Y267790D01*
X221023Y267701D01*
X221055Y267610D01*
X217577Y265974D02*
X217517Y266033D01*
X217460Y266095D01*
X217405Y266159D01*
X217354Y266226D01*
X217305Y266295D01*
X217259Y266365D01*
X217216Y266438D01*
X217176Y266512D01*
X217140Y266588D01*
X217107Y266666D01*
X217077Y266745D01*
X217050Y266825D01*
X217027Y266906D01*
X217008Y266988D01*
X216992Y267070D01*
X216979Y267154D01*
X216970Y267238D01*
X216965Y267322D01*
X216963Y267406D01*
X217577Y265973D02*
X221055Y261881D01*
X216963Y261881D01*
D13*
X224345Y198762D02*
X225813Y198762D01*
X225887Y198764D01*
X225962Y198770D01*
X226035Y198779D01*
X226109Y198792D01*
X226181Y198809D01*
X226252Y198829D01*
X226323Y198853D01*
X226392Y198881D01*
X226460Y198912D01*
X226525Y198946D01*
X226590Y198984D01*
X226652Y199025D01*
X226712Y199069D01*
X226769Y199116D01*
X226824Y199166D01*
X226877Y199219D01*
X226927Y199274D01*
X226974Y199331D01*
X227018Y199391D01*
X227059Y199453D01*
X227097Y199518D01*
X227131Y199584D01*
X227162Y199651D01*
X227190Y199720D01*
X227214Y199791D01*
X227234Y199862D01*
X227251Y199935D01*
X227264Y200008D01*
X227273Y200082D01*
X227279Y200156D01*
X227281Y200230D01*
X227280Y200230D02*
X227280Y203898D01*
X227281Y203898D02*
X227279Y203972D01*
X227273Y204047D01*
X227264Y204120D01*
X227251Y204193D01*
X227234Y204266D01*
X227214Y204337D01*
X227190Y204408D01*
X227162Y204477D01*
X227131Y204544D01*
X227097Y204610D01*
X227059Y204675D01*
X227018Y204737D01*
X226974Y204797D01*
X226927Y204854D01*
X226877Y204909D01*
X226824Y204962D01*
X226769Y205012D01*
X226712Y205059D01*
X226652Y205103D01*
X226590Y205144D01*
X226525Y205182D01*
X226460Y205216D01*
X226392Y205247D01*
X226323Y205275D01*
X226253Y205299D01*
X226181Y205319D01*
X226109Y205336D01*
X226035Y205349D01*
X225962Y205358D01*
X225887Y205364D01*
X225813Y205366D01*
X224345Y205366D01*
X221149Y198762D02*
X219314Y198762D01*
X219229Y198764D01*
X219145Y198770D01*
X219061Y198780D01*
X218977Y198793D01*
X218894Y198811D01*
X218812Y198832D01*
X218731Y198857D01*
X218651Y198886D01*
X218573Y198918D01*
X218497Y198954D01*
X218422Y198994D01*
X218349Y199037D01*
X218278Y199083D01*
X218209Y199132D01*
X218142Y199185D01*
X218078Y199241D01*
X218017Y199299D01*
X217959Y199360D01*
X217903Y199424D01*
X217850Y199491D01*
X217801Y199560D01*
X217755Y199631D01*
X217712Y199704D01*
X217672Y199779D01*
X217636Y199855D01*
X217604Y199933D01*
X217575Y200013D01*
X217550Y200094D01*
X217529Y200176D01*
X217511Y200259D01*
X217498Y200343D01*
X217488Y200427D01*
X217482Y200511D01*
X217480Y200596D01*
X217482Y200681D01*
X217488Y200765D01*
X217498Y200849D01*
X217511Y200933D01*
X217529Y201016D01*
X217550Y201098D01*
X217575Y201179D01*
X217604Y201259D01*
X217636Y201337D01*
X217672Y201413D01*
X217712Y201488D01*
X217755Y201561D01*
X217801Y201632D01*
X217850Y201701D01*
X217903Y201768D01*
X217959Y201832D01*
X218017Y201893D01*
X218078Y201951D01*
X218142Y202007D01*
X218209Y202060D01*
X218278Y202109D01*
X218349Y202155D01*
X218422Y202198D01*
X218497Y202238D01*
X218573Y202274D01*
X218651Y202306D01*
X218731Y202335D01*
X218812Y202360D01*
X218894Y202381D01*
X218977Y202399D01*
X219061Y202412D01*
X219145Y202422D01*
X219229Y202428D01*
X219314Y202430D01*
X218947Y205366D02*
X221149Y205366D01*
X218947Y205366D02*
X218871Y205364D01*
X218796Y205358D01*
X218721Y205349D01*
X218647Y205335D01*
X218573Y205318D01*
X218501Y205296D01*
X218429Y205272D01*
X218359Y205243D01*
X218291Y205211D01*
X218224Y205176D01*
X218159Y205137D01*
X218096Y205094D01*
X218036Y205049D01*
X217978Y205001D01*
X217922Y204949D01*
X217870Y204895D01*
X217820Y204838D01*
X217773Y204779D01*
X217729Y204718D01*
X217688Y204654D01*
X217651Y204588D01*
X217617Y204520D01*
X217587Y204451D01*
X217560Y204380D01*
X217537Y204308D01*
X217518Y204235D01*
X217503Y204161D01*
X217491Y204086D01*
X217483Y204011D01*
X217479Y203936D01*
X217479Y203860D01*
X217483Y203785D01*
X217491Y203710D01*
X217503Y203635D01*
X217518Y203561D01*
X217537Y203488D01*
X217560Y203416D01*
X217587Y203345D01*
X217617Y203276D01*
X217651Y203208D01*
X217688Y203142D01*
X217729Y203078D01*
X217773Y203017D01*
X217820Y202958D01*
X217870Y202901D01*
X217922Y202847D01*
X217978Y202795D01*
X218036Y202747D01*
X218096Y202702D01*
X218159Y202659D01*
X218224Y202620D01*
X218291Y202585D01*
X218359Y202553D01*
X218429Y202524D01*
X218501Y202500D01*
X218573Y202478D01*
X218647Y202461D01*
X218721Y202447D01*
X218796Y202438D01*
X218871Y202432D01*
X218947Y202430D01*
X218947Y202431D02*
X220415Y202431D01*
D14*
X58119Y67047D02*
X58119Y59681D01*
X58119Y67047D02*
X56073Y67047D01*
X55984Y67045D01*
X55895Y67039D01*
X55806Y67029D01*
X55718Y67016D01*
X55630Y66999D01*
X55543Y66977D01*
X55458Y66952D01*
X55373Y66924D01*
X55290Y66891D01*
X55208Y66855D01*
X55128Y66816D01*
X55050Y66773D01*
X54974Y66727D01*
X54899Y66677D01*
X54827Y66624D01*
X54758Y66568D01*
X54691Y66509D01*
X54626Y66448D01*
X54565Y66383D01*
X54506Y66316D01*
X54450Y66247D01*
X54397Y66175D01*
X54347Y66100D01*
X54301Y66024D01*
X54258Y65946D01*
X54219Y65866D01*
X54183Y65784D01*
X54150Y65701D01*
X54122Y65616D01*
X54097Y65531D01*
X54075Y65444D01*
X54058Y65356D01*
X54045Y65268D01*
X54035Y65179D01*
X54029Y65090D01*
X54027Y65001D01*
X54029Y64912D01*
X54035Y64823D01*
X54045Y64734D01*
X54058Y64646D01*
X54075Y64558D01*
X54097Y64471D01*
X54122Y64386D01*
X54150Y64301D01*
X54183Y64218D01*
X54219Y64136D01*
X54258Y64056D01*
X54301Y63978D01*
X54347Y63902D01*
X54397Y63827D01*
X54450Y63755D01*
X54506Y63686D01*
X54565Y63619D01*
X54626Y63554D01*
X54691Y63493D01*
X54758Y63434D01*
X54827Y63378D01*
X54899Y63325D01*
X54974Y63275D01*
X55050Y63229D01*
X55128Y63186D01*
X55208Y63147D01*
X55290Y63111D01*
X55373Y63078D01*
X55458Y63050D01*
X55543Y63025D01*
X55630Y63003D01*
X55718Y62986D01*
X55806Y62973D01*
X55895Y62963D01*
X55984Y62957D01*
X56073Y62955D01*
X58119Y62955D01*
X55664Y62955D02*
X54027Y59681D01*
X50855Y65410D02*
X48809Y67047D01*
X48809Y59681D01*
X50855Y59681D02*
X46763Y59681D01*
D13*
X56965Y24014D02*
X58433Y24014D01*
X58507Y24016D01*
X58582Y24022D01*
X58655Y24031D01*
X58729Y24044D01*
X58801Y24061D01*
X58872Y24081D01*
X58943Y24105D01*
X59012Y24133D01*
X59080Y24164D01*
X59145Y24198D01*
X59210Y24236D01*
X59272Y24277D01*
X59332Y24321D01*
X59389Y24368D01*
X59444Y24418D01*
X59497Y24471D01*
X59547Y24526D01*
X59594Y24583D01*
X59638Y24643D01*
X59679Y24705D01*
X59717Y24770D01*
X59751Y24836D01*
X59782Y24903D01*
X59810Y24972D01*
X59834Y25043D01*
X59854Y25114D01*
X59871Y25187D01*
X59884Y25260D01*
X59893Y25334D01*
X59899Y25408D01*
X59901Y25482D01*
X59900Y25482D02*
X59900Y29150D01*
X59901Y29150D02*
X59899Y29224D01*
X59893Y29299D01*
X59884Y29372D01*
X59871Y29445D01*
X59854Y29518D01*
X59834Y29589D01*
X59810Y29660D01*
X59782Y29729D01*
X59751Y29796D01*
X59717Y29862D01*
X59679Y29927D01*
X59638Y29989D01*
X59594Y30049D01*
X59547Y30106D01*
X59497Y30161D01*
X59444Y30214D01*
X59389Y30264D01*
X59332Y30311D01*
X59272Y30355D01*
X59210Y30396D01*
X59145Y30434D01*
X59080Y30468D01*
X59012Y30499D01*
X58943Y30527D01*
X58873Y30551D01*
X58801Y30571D01*
X58729Y30588D01*
X58655Y30601D01*
X58582Y30610D01*
X58507Y30616D01*
X58433Y30618D01*
X56965Y30618D01*
X53769Y24014D02*
X51567Y24014D01*
X51493Y24016D01*
X51418Y24022D01*
X51345Y24031D01*
X51271Y24044D01*
X51199Y24061D01*
X51128Y24081D01*
X51057Y24105D01*
X50988Y24133D01*
X50921Y24164D01*
X50855Y24198D01*
X50790Y24236D01*
X50728Y24277D01*
X50668Y24321D01*
X50611Y24368D01*
X50556Y24418D01*
X50503Y24471D01*
X50453Y24526D01*
X50406Y24583D01*
X50362Y24643D01*
X50321Y24705D01*
X50283Y24770D01*
X50249Y24835D01*
X50218Y24903D01*
X50190Y24972D01*
X50166Y25043D01*
X50146Y25114D01*
X50129Y25186D01*
X50116Y25260D01*
X50107Y25333D01*
X50101Y25408D01*
X50099Y25482D01*
X50100Y25482D02*
X50100Y26215D01*
X50099Y26215D02*
X50101Y26289D01*
X50107Y26364D01*
X50116Y26437D01*
X50129Y26511D01*
X50146Y26583D01*
X50166Y26654D01*
X50190Y26725D01*
X50218Y26794D01*
X50249Y26861D01*
X50283Y26927D01*
X50321Y26992D01*
X50362Y27054D01*
X50406Y27114D01*
X50453Y27171D01*
X50503Y27226D01*
X50556Y27279D01*
X50611Y27329D01*
X50668Y27376D01*
X50728Y27420D01*
X50790Y27461D01*
X50855Y27499D01*
X50921Y27533D01*
X50988Y27564D01*
X51057Y27592D01*
X51128Y27616D01*
X51199Y27636D01*
X51271Y27653D01*
X51345Y27666D01*
X51418Y27675D01*
X51493Y27681D01*
X51567Y27683D01*
X53769Y27683D01*
X53769Y30618D01*
X50100Y30618D01*
D14*
X228319Y349881D02*
X228319Y357247D01*
X226273Y357247D01*
X226184Y357245D01*
X226095Y357239D01*
X226006Y357229D01*
X225918Y357216D01*
X225830Y357199D01*
X225743Y357177D01*
X225658Y357152D01*
X225573Y357124D01*
X225490Y357091D01*
X225408Y357055D01*
X225328Y357016D01*
X225250Y356973D01*
X225174Y356927D01*
X225099Y356877D01*
X225027Y356824D01*
X224958Y356768D01*
X224891Y356709D01*
X224826Y356648D01*
X224765Y356583D01*
X224706Y356516D01*
X224650Y356447D01*
X224597Y356375D01*
X224547Y356300D01*
X224501Y356224D01*
X224458Y356146D01*
X224419Y356066D01*
X224383Y355984D01*
X224350Y355901D01*
X224322Y355816D01*
X224297Y355731D01*
X224275Y355644D01*
X224258Y355556D01*
X224245Y355468D01*
X224235Y355379D01*
X224229Y355290D01*
X224227Y355201D01*
X224229Y355112D01*
X224235Y355023D01*
X224245Y354934D01*
X224258Y354846D01*
X224275Y354758D01*
X224297Y354671D01*
X224322Y354586D01*
X224350Y354501D01*
X224383Y354418D01*
X224419Y354336D01*
X224458Y354256D01*
X224501Y354178D01*
X224547Y354102D01*
X224597Y354027D01*
X224650Y353955D01*
X224706Y353886D01*
X224765Y353819D01*
X224826Y353754D01*
X224891Y353693D01*
X224958Y353634D01*
X225027Y353578D01*
X225099Y353525D01*
X225174Y353475D01*
X225250Y353429D01*
X225328Y353386D01*
X225408Y353347D01*
X225490Y353311D01*
X225573Y353278D01*
X225658Y353250D01*
X225743Y353225D01*
X225830Y353203D01*
X225918Y353186D01*
X226006Y353173D01*
X226095Y353163D01*
X226184Y353157D01*
X226273Y353155D01*
X228319Y353155D01*
X225864Y353155D02*
X224227Y349881D01*
X221055Y353973D02*
X218600Y353973D01*
X218520Y353971D01*
X218440Y353965D01*
X218360Y353955D01*
X218281Y353942D01*
X218202Y353924D01*
X218125Y353903D01*
X218049Y353877D01*
X217974Y353848D01*
X217900Y353816D01*
X217828Y353780D01*
X217758Y353740D01*
X217691Y353697D01*
X217625Y353651D01*
X217562Y353601D01*
X217501Y353549D01*
X217442Y353494D01*
X217387Y353435D01*
X217335Y353375D01*
X217285Y353311D01*
X217239Y353245D01*
X217196Y353178D01*
X217156Y353108D01*
X217120Y353036D01*
X217088Y352962D01*
X217059Y352888D01*
X217033Y352811D01*
X217012Y352734D01*
X216994Y352655D01*
X216981Y352576D01*
X216971Y352496D01*
X216965Y352416D01*
X216963Y352336D01*
X216963Y351927D01*
X216965Y351838D01*
X216971Y351749D01*
X216981Y351660D01*
X216994Y351572D01*
X217011Y351484D01*
X217033Y351397D01*
X217058Y351312D01*
X217086Y351227D01*
X217119Y351144D01*
X217155Y351062D01*
X217194Y350982D01*
X217237Y350904D01*
X217283Y350828D01*
X217333Y350753D01*
X217386Y350681D01*
X217442Y350612D01*
X217501Y350545D01*
X217562Y350480D01*
X217627Y350419D01*
X217694Y350360D01*
X217763Y350304D01*
X217835Y350251D01*
X217910Y350201D01*
X217986Y350155D01*
X218064Y350112D01*
X218144Y350073D01*
X218226Y350037D01*
X218309Y350004D01*
X218394Y349976D01*
X218479Y349951D01*
X218566Y349929D01*
X218654Y349912D01*
X218742Y349899D01*
X218831Y349889D01*
X218920Y349883D01*
X219009Y349881D01*
X219098Y349883D01*
X219187Y349889D01*
X219276Y349899D01*
X219364Y349912D01*
X219452Y349929D01*
X219539Y349951D01*
X219624Y349976D01*
X219709Y350004D01*
X219792Y350037D01*
X219874Y350073D01*
X219954Y350112D01*
X220032Y350155D01*
X220108Y350201D01*
X220183Y350251D01*
X220255Y350304D01*
X220324Y350360D01*
X220391Y350419D01*
X220456Y350480D01*
X220517Y350545D01*
X220576Y350612D01*
X220632Y350681D01*
X220685Y350753D01*
X220735Y350828D01*
X220781Y350904D01*
X220824Y350982D01*
X220863Y351062D01*
X220899Y351144D01*
X220932Y351227D01*
X220960Y351312D01*
X220985Y351397D01*
X221007Y351484D01*
X221024Y351572D01*
X221037Y351660D01*
X221047Y351749D01*
X221053Y351838D01*
X221055Y351927D01*
X221055Y353973D01*
X221053Y354085D01*
X221047Y354196D01*
X221038Y354308D01*
X221025Y354419D01*
X221007Y354529D01*
X220987Y354639D01*
X220962Y354748D01*
X220934Y354856D01*
X220902Y354963D01*
X220866Y355069D01*
X220827Y355174D01*
X220784Y355277D01*
X220738Y355379D01*
X220688Y355479D01*
X220635Y355578D01*
X220578Y355674D01*
X220519Y355769D01*
X220456Y355861D01*
X220390Y355951D01*
X220321Y356039D01*
X220249Y356125D01*
X220174Y356208D01*
X220096Y356288D01*
X220016Y356366D01*
X219933Y356441D01*
X219847Y356513D01*
X219759Y356582D01*
X219669Y356648D01*
X219577Y356711D01*
X219482Y356770D01*
X219386Y356827D01*
X219287Y356880D01*
X219187Y356930D01*
X219085Y356976D01*
X218982Y357019D01*
X218877Y357058D01*
X218771Y357094D01*
X218664Y357126D01*
X218556Y357154D01*
X218447Y357179D01*
X218337Y357199D01*
X218227Y357217D01*
X218116Y357230D01*
X218004Y357239D01*
X217893Y357245D01*
X217781Y357247D01*
D13*
X224345Y287762D02*
X225813Y287762D01*
X225887Y287764D01*
X225962Y287770D01*
X226035Y287779D01*
X226109Y287792D01*
X226181Y287809D01*
X226252Y287829D01*
X226323Y287853D01*
X226392Y287881D01*
X226460Y287912D01*
X226525Y287946D01*
X226590Y287984D01*
X226652Y288025D01*
X226712Y288069D01*
X226769Y288116D01*
X226824Y288166D01*
X226877Y288219D01*
X226927Y288274D01*
X226974Y288331D01*
X227018Y288391D01*
X227059Y288453D01*
X227097Y288518D01*
X227131Y288584D01*
X227162Y288651D01*
X227190Y288720D01*
X227214Y288791D01*
X227234Y288862D01*
X227251Y288935D01*
X227264Y289008D01*
X227273Y289082D01*
X227279Y289156D01*
X227281Y289230D01*
X227280Y289230D02*
X227280Y292898D01*
X227281Y292898D02*
X227279Y292972D01*
X227273Y293047D01*
X227264Y293120D01*
X227251Y293193D01*
X227234Y293266D01*
X227214Y293337D01*
X227190Y293408D01*
X227162Y293477D01*
X227131Y293544D01*
X227097Y293610D01*
X227059Y293675D01*
X227018Y293737D01*
X226974Y293797D01*
X226927Y293854D01*
X226877Y293909D01*
X226824Y293962D01*
X226769Y294012D01*
X226712Y294059D01*
X226652Y294103D01*
X226590Y294144D01*
X226525Y294182D01*
X226460Y294216D01*
X226392Y294247D01*
X226323Y294275D01*
X226253Y294299D01*
X226181Y294319D01*
X226109Y294336D01*
X226035Y294349D01*
X225962Y294358D01*
X225887Y294364D01*
X225813Y294366D01*
X224345Y294366D01*
X221149Y291431D02*
X218947Y291431D01*
X218873Y291429D01*
X218798Y291423D01*
X218725Y291414D01*
X218651Y291401D01*
X218579Y291384D01*
X218508Y291364D01*
X218437Y291340D01*
X218368Y291312D01*
X218301Y291281D01*
X218235Y291247D01*
X218170Y291209D01*
X218108Y291168D01*
X218048Y291124D01*
X217991Y291077D01*
X217936Y291027D01*
X217883Y290974D01*
X217833Y290919D01*
X217786Y290862D01*
X217742Y290802D01*
X217701Y290740D01*
X217663Y290675D01*
X217629Y290609D01*
X217598Y290542D01*
X217570Y290473D01*
X217546Y290402D01*
X217526Y290331D01*
X217509Y290259D01*
X217496Y290185D01*
X217487Y290112D01*
X217481Y290037D01*
X217479Y289963D01*
X217480Y289963D02*
X217480Y289596D01*
X217482Y289511D01*
X217488Y289427D01*
X217498Y289343D01*
X217511Y289259D01*
X217529Y289176D01*
X217550Y289094D01*
X217575Y289013D01*
X217604Y288933D01*
X217636Y288855D01*
X217672Y288779D01*
X217712Y288704D01*
X217755Y288631D01*
X217801Y288560D01*
X217850Y288491D01*
X217903Y288424D01*
X217959Y288360D01*
X218017Y288299D01*
X218078Y288241D01*
X218142Y288185D01*
X218209Y288132D01*
X218278Y288083D01*
X218349Y288037D01*
X218422Y287994D01*
X218497Y287954D01*
X218573Y287918D01*
X218651Y287886D01*
X218731Y287857D01*
X218812Y287832D01*
X218894Y287811D01*
X218977Y287793D01*
X219061Y287780D01*
X219145Y287770D01*
X219229Y287764D01*
X219314Y287762D01*
X219399Y287764D01*
X219483Y287770D01*
X219567Y287780D01*
X219651Y287793D01*
X219734Y287811D01*
X219816Y287832D01*
X219897Y287857D01*
X219977Y287886D01*
X220055Y287918D01*
X220131Y287954D01*
X220206Y287994D01*
X220279Y288037D01*
X220350Y288083D01*
X220419Y288132D01*
X220486Y288185D01*
X220550Y288241D01*
X220611Y288299D01*
X220669Y288360D01*
X220725Y288424D01*
X220778Y288491D01*
X220827Y288560D01*
X220873Y288631D01*
X220916Y288704D01*
X220956Y288779D01*
X220992Y288855D01*
X221024Y288933D01*
X221053Y289013D01*
X221078Y289094D01*
X221099Y289176D01*
X221117Y289259D01*
X221130Y289343D01*
X221140Y289427D01*
X221146Y289511D01*
X221148Y289596D01*
X221149Y289596D02*
X221149Y291431D01*
X221147Y291538D01*
X221141Y291645D01*
X221131Y291752D01*
X221118Y291858D01*
X221100Y291964D01*
X221079Y292069D01*
X221054Y292173D01*
X221025Y292277D01*
X220992Y292379D01*
X220955Y292479D01*
X220915Y292579D01*
X220871Y292677D01*
X220824Y292773D01*
X220773Y292867D01*
X220719Y292960D01*
X220662Y293050D01*
X220601Y293139D01*
X220537Y293225D01*
X220470Y293308D01*
X220400Y293390D01*
X220327Y293468D01*
X220251Y293544D01*
X220173Y293617D01*
X220091Y293687D01*
X220008Y293754D01*
X219922Y293818D01*
X219833Y293879D01*
X219743Y293936D01*
X219650Y293990D01*
X219556Y294041D01*
X219460Y294088D01*
X219362Y294132D01*
X219263Y294172D01*
X219162Y294209D01*
X219060Y294242D01*
X218956Y294271D01*
X218852Y294296D01*
X218747Y294317D01*
X218641Y294335D01*
X218535Y294348D01*
X218428Y294358D01*
X218321Y294364D01*
X218214Y294366D01*
M02*
