G04 EAGLE Gerber RS-274X export*
G75*
%MOMM*%
%FSLAX34Y34*%
%LPD*%
%INSolderpaste Top*%
%IPPOS*%
%AMOC8*
5,1,8,0,0,1.08239X$1,22.5*%
G01*
%ADD10R,1.200000X0.550000*%
%ADD11R,1.000000X0.900000*%
%ADD12C,0.300000*%
%ADD13R,0.540000X0.600000*%
%ADD14R,1.000000X1.100000*%
%ADD15R,0.600000X1.450000*%
%ADD16R,0.300000X1.450000*%
%ADD17R,0.600000X0.540000*%
%ADD18R,1.000000X1.400000*%
%ADD19R,0.600000X0.800000*%
%ADD20C,0.247500*%
%ADD21C,0.147500*%
%ADD22R,0.250000X0.875000*%
%ADD23R,1.422400X0.711200*%
%ADD24C,0.028447*%
%ADD25R,0.711200X1.422400*%


D10*
X143001Y144500D03*
X143001Y154000D03*
X143001Y163500D03*
X116999Y163500D03*
X116999Y144500D03*
D11*
X45000Y50500D03*
X61000Y50500D03*
X61000Y9500D03*
X45000Y9500D03*
X199000Y50500D03*
X215000Y50500D03*
X215000Y9500D03*
X199000Y9500D03*
D12*
X19730Y395500D02*
X19730Y402500D01*
X19730Y395500D02*
X12730Y395500D01*
X12730Y402500D01*
X19730Y402500D01*
X19730Y398350D02*
X12730Y398350D01*
X12730Y401200D02*
X19730Y401200D01*
X37270Y402500D02*
X37270Y395500D01*
X30270Y395500D01*
X30270Y402500D01*
X37270Y402500D01*
X37270Y398350D02*
X30270Y398350D01*
X30270Y401200D02*
X37270Y401200D01*
X237270Y402500D02*
X237270Y395500D01*
X237270Y402500D02*
X244270Y402500D01*
X244270Y395500D01*
X237270Y395500D01*
X237270Y398350D02*
X244270Y398350D01*
X244270Y401200D02*
X237270Y401200D01*
X219730Y402500D02*
X219730Y395500D01*
X219730Y402500D02*
X226730Y402500D01*
X226730Y395500D01*
X219730Y395500D01*
X219730Y398350D02*
X226730Y398350D01*
X226730Y401200D02*
X219730Y401200D01*
D13*
X241320Y384000D03*
X232680Y384000D03*
X15680Y384000D03*
X24320Y384000D03*
D14*
X159500Y144500D03*
X159500Y161500D03*
X100500Y144500D03*
X100500Y161500D03*
D11*
X198000Y115500D03*
X214000Y115500D03*
X214000Y74500D03*
X198000Y74500D03*
D15*
X97500Y81950D03*
X105500Y81950D03*
D16*
X127500Y81950D03*
X122500Y81950D03*
X117500Y81950D03*
X112500Y81950D03*
X132500Y81950D03*
X137500Y81950D03*
X142500Y81950D03*
X147500Y81950D03*
D15*
X154500Y81950D03*
X162500Y81950D03*
D17*
X99000Y120320D03*
X99000Y111680D03*
X160000Y120320D03*
X160000Y111680D03*
D18*
X188000Y163000D03*
X197500Y141000D03*
X178500Y141000D03*
D19*
X178000Y100500D03*
X178000Y125500D03*
D13*
X69320Y144000D03*
X60680Y144000D03*
D20*
X114487Y113887D02*
X124413Y113887D01*
X114487Y113887D02*
X114487Y121313D01*
X124413Y121313D01*
X124413Y113887D01*
X124413Y116238D02*
X114487Y116238D01*
X114487Y118589D02*
X124413Y118589D01*
X124413Y120940D02*
X114487Y120940D01*
D21*
X113987Y98187D02*
X124913Y98187D01*
X113987Y98187D02*
X113987Y102613D01*
X124913Y102613D01*
X124913Y98187D01*
X124913Y99588D02*
X113987Y99588D01*
X113987Y100989D02*
X124913Y100989D01*
X124913Y102390D02*
X113987Y102390D01*
X135087Y98187D02*
X146013Y98187D01*
X135087Y98187D02*
X135087Y102613D01*
X146013Y102613D01*
X146013Y98187D01*
X146013Y99588D02*
X135087Y99588D01*
X135087Y100989D02*
X146013Y100989D01*
X146013Y102390D02*
X135087Y102390D01*
X135087Y117387D02*
X146013Y117387D01*
X135087Y117387D02*
X135087Y121813D01*
X146013Y121813D01*
X146013Y117387D01*
X146013Y118788D02*
X135087Y118788D01*
X135087Y120189D02*
X146013Y120189D01*
X146013Y121590D02*
X135087Y121590D01*
D22*
X43000Y85375D03*
X48000Y85375D03*
X53000Y85375D03*
X58000Y85375D03*
X63000Y85375D03*
X63000Y130625D03*
X58000Y130625D03*
X53000Y130625D03*
X48000Y130625D03*
X43000Y130625D03*
D14*
X84000Y101500D03*
X84000Y118500D03*
D23*
X49120Y318220D03*
D24*
X42350Y302106D02*
X56290Y302106D01*
X42350Y302106D02*
X42350Y308934D01*
X56290Y308934D01*
X56290Y302106D01*
X56290Y302376D02*
X42350Y302376D01*
X42350Y302646D02*
X56290Y302646D01*
X56290Y302916D02*
X42350Y302916D01*
X42350Y303186D02*
X56290Y303186D01*
X56290Y303456D02*
X42350Y303456D01*
X42350Y303726D02*
X56290Y303726D01*
X56290Y303996D02*
X42350Y303996D01*
X42350Y304266D02*
X56290Y304266D01*
X56290Y304536D02*
X42350Y304536D01*
X42350Y304806D02*
X56290Y304806D01*
X56290Y305076D02*
X42350Y305076D01*
X42350Y305346D02*
X56290Y305346D01*
X56290Y305616D02*
X42350Y305616D01*
X42350Y305886D02*
X56290Y305886D01*
X56290Y306156D02*
X42350Y306156D01*
X42350Y306426D02*
X56290Y306426D01*
X56290Y306696D02*
X42350Y306696D01*
X42350Y306966D02*
X56290Y306966D01*
X56290Y307236D02*
X42350Y307236D01*
X42350Y307506D02*
X56290Y307506D01*
X56290Y307776D02*
X42350Y307776D01*
X42350Y308046D02*
X56290Y308046D01*
X56290Y308316D02*
X42350Y308316D01*
X42350Y308586D02*
X56290Y308586D01*
X56290Y308856D02*
X42350Y308856D01*
D23*
X49320Y292820D03*
X49320Y280120D03*
X49320Y267420D03*
X49320Y254720D03*
X49320Y242020D03*
X49320Y229320D03*
X49320Y216620D03*
D25*
X74720Y191220D03*
X87420Y191220D03*
X100120Y191220D03*
X112820Y191220D03*
X125520Y191220D03*
X138220Y191220D03*
X150920Y191220D03*
X163620Y191220D03*
X176320Y191220D03*
D23*
X208070Y216620D03*
X208070Y229320D03*
X208070Y242020D03*
X208070Y254720D03*
X208070Y267420D03*
X208070Y280120D03*
X208070Y292820D03*
X208070Y305520D03*
X208070Y318220D03*
M02*
