G04 EAGLE Gerber RS-274X export*
G75*
%MOMM*%
%FSLAX34Y34*%
%LPD*%
%INSoldermask Top*%
%IPPOS*%
%AMOC8*
5,1,8,0,0,1.08239X$1,22.5*%
G01*
%ADD10R,1.403200X0.753200*%
%ADD11R,1.203200X1.103200*%
%ADD12C,0.505344*%
%ADD13R,0.743200X0.803200*%
%ADD14R,1.203200X1.303200*%
%ADD15R,0.803200X1.653200*%
%ADD16R,0.503200X1.653200*%
%ADD17C,1.361200*%
%ADD18C,0.903200*%
%ADD19R,0.803200X0.743200*%
%ADD20R,1.203200X1.603200*%
%ADD21R,0.803200X1.003200*%
%ADD22C,0.453416*%
%ADD23C,0.349006*%
%ADD24R,0.400000X1.100000*%
%ADD25R,1.625600X0.914400*%
%ADD26C,0.228600*%
%ADD27R,0.914400X1.625600*%
%ADD28C,2.082800*%


D10*
X143001Y144500D03*
X143001Y154000D03*
X143001Y163500D03*
X116999Y163500D03*
X116999Y144500D03*
D11*
X45000Y50500D03*
X61000Y50500D03*
X61000Y9500D03*
X45000Y9500D03*
X199000Y50500D03*
X215000Y50500D03*
X215000Y9500D03*
X199000Y9500D03*
D12*
X19720Y395510D02*
X19720Y402490D01*
X19720Y395510D02*
X12740Y395510D01*
X12740Y402490D01*
X19720Y402490D01*
X19720Y400310D02*
X12740Y400310D01*
X37260Y402490D02*
X37260Y395510D01*
X30280Y395510D01*
X30280Y402490D01*
X37260Y402490D01*
X37260Y400310D02*
X30280Y400310D01*
X237280Y402490D02*
X237280Y395510D01*
X237280Y402490D02*
X244260Y402490D01*
X244260Y395510D01*
X237280Y395510D01*
X237280Y400310D02*
X244260Y400310D01*
X219740Y402490D02*
X219740Y395510D01*
X219740Y402490D02*
X226720Y402490D01*
X226720Y395510D01*
X219740Y395510D01*
X219740Y400310D02*
X226720Y400310D01*
D13*
X241320Y384000D03*
X232680Y384000D03*
X15680Y384000D03*
X24320Y384000D03*
D14*
X159500Y144500D03*
X159500Y161500D03*
X100500Y144500D03*
X100500Y161500D03*
D11*
X198000Y115500D03*
X214000Y115500D03*
X214000Y74500D03*
X198000Y74500D03*
D15*
X97500Y81950D03*
X105500Y81950D03*
D16*
X127500Y81950D03*
X122500Y81950D03*
X117500Y81950D03*
X112500Y81950D03*
X132500Y81950D03*
X137500Y81950D03*
X142500Y81950D03*
X147500Y81950D03*
D15*
X154500Y81950D03*
X162500Y81950D03*
D17*
X86800Y78590D02*
X86800Y67010D01*
X173200Y67010D02*
X173200Y78590D01*
X86800Y36790D02*
X86800Y25210D01*
X173200Y25210D02*
X173200Y36790D01*
D18*
X101100Y67500D03*
X158900Y67500D03*
D19*
X99000Y120320D03*
X99000Y111680D03*
X160000Y120320D03*
X160000Y111680D03*
D20*
X188000Y163000D03*
X197500Y141000D03*
X178500Y141000D03*
D21*
X178000Y100500D03*
X178000Y125500D03*
D13*
X69320Y144000D03*
X60680Y144000D03*
D22*
X114501Y113901D02*
X124399Y113901D01*
X114501Y113901D02*
X114501Y121299D01*
X124399Y121299D01*
X124399Y113901D01*
X124399Y118208D02*
X114501Y118208D01*
D23*
X113979Y98179D02*
X124921Y98179D01*
X113979Y98179D02*
X113979Y102621D01*
X124921Y102621D01*
X124921Y98179D01*
X124921Y101494D02*
X113979Y101494D01*
X135079Y98179D02*
X146021Y98179D01*
X135079Y98179D02*
X135079Y102621D01*
X146021Y102621D01*
X146021Y98179D01*
X146021Y101494D02*
X135079Y101494D01*
X135079Y117379D02*
X146021Y117379D01*
X135079Y117379D02*
X135079Y121821D01*
X146021Y121821D01*
X146021Y117379D01*
X146021Y120694D02*
X135079Y120694D01*
D24*
X43000Y85500D03*
X48000Y85500D03*
X53000Y85500D03*
X58000Y85500D03*
X63000Y85500D03*
X63000Y130500D03*
X58000Y130500D03*
X53000Y130500D03*
X48000Y130500D03*
X43000Y130500D03*
D14*
X84000Y101500D03*
X84000Y118500D03*
D25*
X49120Y318220D03*
D26*
X42335Y302091D02*
X56305Y302091D01*
X42335Y302091D02*
X42335Y308949D01*
X56305Y308949D01*
X56305Y302091D01*
X56305Y304263D02*
X42335Y304263D01*
X42335Y306435D02*
X56305Y306435D01*
X56305Y308607D02*
X42335Y308607D01*
D25*
X49320Y292820D03*
X49320Y280120D03*
X49320Y267420D03*
X49320Y254720D03*
X49320Y242020D03*
X49320Y229320D03*
X49320Y216620D03*
D27*
X74720Y191220D03*
X87420Y191220D03*
X100120Y191220D03*
X112820Y191220D03*
X125520Y191220D03*
X138220Y191220D03*
X150920Y191220D03*
X163620Y191220D03*
X176320Y191220D03*
D25*
X208070Y216620D03*
X208070Y229320D03*
X208070Y242020D03*
X208070Y254720D03*
X208070Y267420D03*
X208070Y280120D03*
X208070Y292820D03*
X208070Y305520D03*
X208070Y318220D03*
D28*
X16000Y355000D03*
X16000Y329600D03*
X16000Y304200D03*
X16000Y278800D03*
X16000Y253400D03*
X16000Y228000D03*
X16000Y202600D03*
X16000Y177200D03*
X16000Y151800D03*
X16000Y126400D03*
X16000Y101000D03*
X16000Y75600D03*
X16000Y50200D03*
X16000Y24800D03*
X244000Y355000D03*
X244000Y329600D03*
X244000Y304200D03*
X244000Y278800D03*
X244000Y253400D03*
X244000Y228000D03*
X244000Y202600D03*
X244000Y177200D03*
X244000Y151800D03*
X244000Y126400D03*
X244000Y101000D03*
X244000Y75600D03*
X244000Y50200D03*
X244000Y24800D03*
M02*
