G04 EAGLE Gerber RS-274X export*
G75*
%MOMM*%
%FSLAX34Y34*%
%LPD*%
%INBottom Copper*%
%IPPOS*%
%AMOC8*
5,1,8,0,0,1.08239X$1,22.5*%
G01*
%ADD10C,1.016000*%
%ADD11C,0.450000*%
%ADD12C,0.503200*%
%ADD13C,0.152400*%
%ADD14C,0.403200*%

G36*
X20449Y3271D02*
X20449Y3271D01*
X20565Y3288D01*
X20571Y3290D01*
X20577Y3291D01*
X20679Y3346D01*
X20784Y3399D01*
X20789Y3404D01*
X20794Y3407D01*
X20874Y3491D01*
X20956Y3575D01*
X20960Y3581D01*
X20963Y3585D01*
X20971Y3602D01*
X21037Y3722D01*
X21490Y4815D01*
X21505Y4879D01*
X21530Y4940D01*
X21539Y5023D01*
X21546Y5055D01*
X21545Y5074D01*
X21548Y5107D01*
X21548Y5914D01*
X21534Y6004D01*
X21526Y6095D01*
X21514Y6124D01*
X21509Y6156D01*
X21466Y6237D01*
X21430Y6321D01*
X21404Y6353D01*
X21393Y6374D01*
X21370Y6396D01*
X21325Y6452D01*
X14477Y13300D01*
X14477Y51598D01*
X14474Y51618D01*
X14476Y51637D01*
X14454Y51739D01*
X14438Y51841D01*
X14428Y51858D01*
X14424Y51878D01*
X14371Y51967D01*
X14322Y52058D01*
X14308Y52072D01*
X14298Y52089D01*
X14219Y52156D01*
X14144Y52228D01*
X14126Y52236D01*
X14111Y52249D01*
X14015Y52288D01*
X13921Y52331D01*
X13901Y52333D01*
X13883Y52341D01*
X13790Y52351D01*
X11719Y54422D01*
X11719Y57338D01*
X13782Y59401D01*
X16698Y59401D01*
X16988Y59111D01*
X17046Y59069D01*
X17098Y59020D01*
X17145Y58998D01*
X17187Y58968D01*
X17256Y58947D01*
X17321Y58916D01*
X17373Y58911D01*
X17423Y58895D01*
X17494Y58897D01*
X17565Y58889D01*
X17616Y58900D01*
X17668Y58902D01*
X17736Y58926D01*
X17806Y58942D01*
X17851Y58968D01*
X17899Y58986D01*
X17955Y59031D01*
X18017Y59068D01*
X18051Y59107D01*
X18091Y59140D01*
X18130Y59200D01*
X18177Y59255D01*
X18196Y59303D01*
X18224Y59347D01*
X18242Y59416D01*
X18269Y59483D01*
X18277Y59554D01*
X18285Y59585D01*
X18283Y59609D01*
X18287Y59650D01*
X18287Y61508D01*
X18273Y61598D01*
X18265Y61689D01*
X18253Y61719D01*
X18248Y61751D01*
X18205Y61832D01*
X18169Y61916D01*
X18143Y61948D01*
X18132Y61968D01*
X18109Y61991D01*
X18064Y62047D01*
X16799Y63312D01*
X16799Y66228D01*
X18862Y68291D01*
X21778Y68291D01*
X23841Y66228D01*
X23841Y65242D01*
X23844Y65222D01*
X23842Y65203D01*
X23864Y65101D01*
X23880Y64999D01*
X23890Y64982D01*
X23894Y64962D01*
X23947Y64873D01*
X23996Y64782D01*
X24010Y64768D01*
X24020Y64751D01*
X24099Y64684D01*
X24174Y64612D01*
X24192Y64604D01*
X24207Y64591D01*
X24303Y64552D01*
X24397Y64509D01*
X24417Y64507D01*
X24435Y64499D01*
X24602Y64481D01*
X26858Y64481D01*
X28921Y62418D01*
X28921Y59502D01*
X28849Y59430D01*
X28807Y59372D01*
X28758Y59320D01*
X28736Y59273D01*
X28706Y59231D01*
X28685Y59162D01*
X28654Y59097D01*
X28649Y59045D01*
X28633Y58995D01*
X28635Y58924D01*
X28627Y58853D01*
X28638Y58802D01*
X28640Y58750D01*
X28664Y58682D01*
X28680Y58612D01*
X28706Y58567D01*
X28724Y58519D01*
X28769Y58463D01*
X28806Y58401D01*
X28845Y58367D01*
X28878Y58327D01*
X28938Y58288D01*
X28993Y58241D01*
X29041Y58222D01*
X29085Y58194D01*
X29154Y58176D01*
X29221Y58149D01*
X29292Y58141D01*
X29323Y58133D01*
X29347Y58135D01*
X29388Y58131D01*
X30668Y58131D01*
X32731Y56068D01*
X32731Y53152D01*
X30668Y51089D01*
X29154Y51089D01*
X29134Y51086D01*
X29114Y51088D01*
X29013Y51066D01*
X28911Y51050D01*
X28893Y51040D01*
X28874Y51036D01*
X28785Y50983D01*
X28694Y50934D01*
X28680Y50920D01*
X28663Y50910D01*
X28595Y50831D01*
X28524Y50756D01*
X28516Y50738D01*
X28503Y50723D01*
X28464Y50627D01*
X28421Y50533D01*
X28418Y50513D01*
X28411Y50495D01*
X28392Y50328D01*
X28392Y20800D01*
X28407Y20710D01*
X28414Y20619D01*
X28427Y20590D01*
X28432Y20558D01*
X28475Y20477D01*
X28511Y20393D01*
X28536Y20361D01*
X28547Y20340D01*
X28571Y20318D01*
X28615Y20262D01*
X30874Y18004D01*
X30948Y17951D01*
X31017Y17891D01*
X31047Y17879D01*
X31074Y17860D01*
X31160Y17833D01*
X31245Y17799D01*
X31286Y17795D01*
X31309Y17788D01*
X31341Y17789D01*
X31412Y17781D01*
X42557Y17781D01*
X47922Y12416D01*
X47996Y12363D01*
X48066Y12303D01*
X48096Y12291D01*
X48122Y12272D01*
X48209Y12245D01*
X48294Y12211D01*
X48335Y12207D01*
X48357Y12200D01*
X48389Y12201D01*
X48461Y12193D01*
X75805Y12193D01*
X75875Y12204D01*
X75947Y12206D01*
X75996Y12224D01*
X76047Y12232D01*
X76111Y12266D01*
X76178Y12291D01*
X76219Y12323D01*
X76265Y12348D01*
X76314Y12399D01*
X76370Y12444D01*
X76398Y12488D01*
X76434Y12526D01*
X76464Y12591D01*
X76503Y12651D01*
X76516Y12702D01*
X76538Y12749D01*
X76546Y12820D01*
X76563Y12890D01*
X76559Y12942D01*
X76565Y12993D01*
X76550Y13064D01*
X76544Y13135D01*
X76524Y13183D01*
X76513Y13234D01*
X76476Y13295D01*
X76448Y13361D01*
X76403Y13417D01*
X76387Y13445D01*
X76369Y13460D01*
X76343Y13492D01*
X46996Y42839D01*
X46938Y42881D01*
X46886Y42930D01*
X46839Y42952D01*
X46797Y42983D01*
X46728Y43004D01*
X46663Y43034D01*
X46611Y43040D01*
X46561Y43055D01*
X46490Y43053D01*
X46419Y43061D01*
X46368Y43050D01*
X46316Y43049D01*
X46248Y43024D01*
X46178Y43009D01*
X46134Y42982D01*
X46085Y42964D01*
X46029Y42919D01*
X45967Y42883D01*
X45933Y42843D01*
X45893Y42810D01*
X45854Y42750D01*
X45807Y42696D01*
X45788Y42647D01*
X45760Y42603D01*
X45742Y42534D01*
X45715Y42467D01*
X45707Y42396D01*
X45699Y42365D01*
X45701Y42342D01*
X45697Y42301D01*
X45697Y41611D01*
X43479Y39393D01*
X40341Y39393D01*
X38123Y41611D01*
X38123Y44749D01*
X40341Y46967D01*
X43479Y46967D01*
X43658Y46788D01*
X43716Y46746D01*
X43768Y46696D01*
X43815Y46674D01*
X43857Y46644D01*
X43926Y46623D01*
X43991Y46593D01*
X44043Y46587D01*
X44093Y46572D01*
X44164Y46573D01*
X44235Y46566D01*
X44286Y46577D01*
X44338Y46578D01*
X44406Y46603D01*
X44476Y46618D01*
X44521Y46645D01*
X44569Y46662D01*
X44625Y46707D01*
X44687Y46744D01*
X44721Y46784D01*
X44761Y46816D01*
X44800Y46876D01*
X44847Y46931D01*
X44866Y46979D01*
X44894Y47023D01*
X44912Y47092D01*
X44939Y47159D01*
X44947Y47230D01*
X44955Y47262D01*
X44953Y47285D01*
X44957Y47326D01*
X44957Y59218D01*
X44954Y59238D01*
X44956Y59257D01*
X44934Y59359D01*
X44918Y59461D01*
X44908Y59478D01*
X44904Y59498D01*
X44851Y59587D01*
X44802Y59678D01*
X44788Y59692D01*
X44778Y59709D01*
X44699Y59776D01*
X44624Y59848D01*
X44606Y59856D01*
X44591Y59869D01*
X44495Y59908D01*
X44401Y59951D01*
X44381Y59953D01*
X44363Y59961D01*
X44270Y59971D01*
X42199Y62042D01*
X42199Y64958D01*
X44262Y67021D01*
X47178Y67021D01*
X49241Y64958D01*
X49241Y62040D01*
X49193Y61973D01*
X49133Y61903D01*
X49121Y61873D01*
X49102Y61847D01*
X49075Y61760D01*
X49041Y61675D01*
X49037Y61634D01*
X49030Y61612D01*
X49031Y61580D01*
X49023Y61508D01*
X49023Y52030D01*
X49034Y51959D01*
X49036Y51887D01*
X49054Y51838D01*
X49062Y51787D01*
X49096Y51724D01*
X49121Y51656D01*
X49153Y51615D01*
X49178Y51569D01*
X49230Y51520D01*
X49274Y51464D01*
X49318Y51436D01*
X49356Y51400D01*
X49421Y51370D01*
X49481Y51331D01*
X49532Y51318D01*
X49579Y51296D01*
X49650Y51289D01*
X49720Y51271D01*
X49772Y51275D01*
X49823Y51269D01*
X49894Y51285D01*
X49965Y51290D01*
X50013Y51311D01*
X50064Y51322D01*
X50125Y51358D01*
X50191Y51387D01*
X50247Y51431D01*
X50275Y51448D01*
X50290Y51466D01*
X50322Y51491D01*
X50612Y51781D01*
X52868Y51781D01*
X52888Y51784D01*
X52907Y51782D01*
X53009Y51804D01*
X53111Y51820D01*
X53128Y51830D01*
X53148Y51834D01*
X53237Y51887D01*
X53328Y51936D01*
X53342Y51950D01*
X53359Y51960D01*
X53426Y52039D01*
X53498Y52114D01*
X53506Y52132D01*
X53519Y52147D01*
X53558Y52243D01*
X53601Y52337D01*
X53603Y52357D01*
X53611Y52375D01*
X53629Y52542D01*
X53629Y53528D01*
X55692Y55591D01*
X58608Y55591D01*
X60671Y53528D01*
X60671Y50610D01*
X60623Y50543D01*
X60563Y50473D01*
X60551Y50443D01*
X60532Y50417D01*
X60505Y50330D01*
X60471Y50245D01*
X60467Y50204D01*
X60460Y50182D01*
X60461Y50150D01*
X60453Y50078D01*
X60453Y43350D01*
X60467Y43260D01*
X60475Y43169D01*
X60487Y43139D01*
X60492Y43107D01*
X60535Y43027D01*
X60571Y42943D01*
X60597Y42911D01*
X60608Y42890D01*
X60631Y42868D01*
X60676Y42812D01*
X75832Y27656D01*
X75906Y27603D01*
X75975Y27543D01*
X76005Y27531D01*
X76032Y27512D01*
X76118Y27485D01*
X76203Y27451D01*
X76244Y27447D01*
X76267Y27440D01*
X76299Y27441D01*
X76370Y27433D01*
X98632Y27433D01*
X117813Y8252D01*
X117813Y7773D01*
X117832Y7658D01*
X117849Y7542D01*
X117851Y7536D01*
X117852Y7530D01*
X117907Y7428D01*
X117960Y7322D01*
X117965Y7318D01*
X117968Y7313D01*
X118052Y7233D01*
X118136Y7150D01*
X118142Y7147D01*
X118146Y7143D01*
X118163Y7135D01*
X118283Y7069D01*
X119377Y6616D01*
X121164Y4829D01*
X121427Y4195D01*
X121464Y4134D01*
X121494Y4068D01*
X121529Y4030D01*
X121556Y3986D01*
X121612Y3940D01*
X121660Y3887D01*
X121706Y3862D01*
X121746Y3829D01*
X121813Y3803D01*
X121876Y3769D01*
X121927Y3760D01*
X121975Y3741D01*
X122047Y3738D01*
X122118Y3725D01*
X122169Y3733D01*
X122221Y3730D01*
X122290Y3750D01*
X122361Y3761D01*
X122407Y3784D01*
X122457Y3799D01*
X122516Y3840D01*
X122580Y3872D01*
X122617Y3910D01*
X122659Y3939D01*
X122702Y3997D01*
X122752Y4048D01*
X122787Y4111D01*
X122806Y4137D01*
X122813Y4159D01*
X122833Y4195D01*
X123096Y4829D01*
X124883Y6616D01*
X125977Y7069D01*
X126077Y7131D01*
X126177Y7191D01*
X126181Y7196D01*
X126186Y7199D01*
X126261Y7290D01*
X126337Y7378D01*
X126339Y7384D01*
X126343Y7388D01*
X126385Y7497D01*
X126429Y7606D01*
X126430Y7613D01*
X126431Y7618D01*
X126432Y7636D01*
X126447Y7773D01*
X126447Y54513D01*
X126433Y54603D01*
X126425Y54694D01*
X126413Y54723D01*
X126408Y54755D01*
X126365Y54836D01*
X126329Y54920D01*
X126303Y54952D01*
X126292Y54973D01*
X126269Y54995D01*
X126224Y55051D01*
X117795Y63480D01*
X117779Y63491D01*
X117767Y63507D01*
X117680Y63563D01*
X117596Y63623D01*
X117577Y63629D01*
X117560Y63640D01*
X117460Y63665D01*
X117361Y63696D01*
X117341Y63695D01*
X117321Y63700D01*
X117218Y63692D01*
X117115Y63689D01*
X117096Y63682D01*
X117076Y63681D01*
X116981Y63641D01*
X116884Y63605D01*
X116868Y63592D01*
X116850Y63585D01*
X116719Y63480D01*
X115758Y62519D01*
X112842Y62519D01*
X110779Y64582D01*
X110779Y67498D01*
X112758Y69477D01*
X112770Y69493D01*
X112785Y69506D01*
X112841Y69593D01*
X112902Y69677D01*
X112907Y69696D01*
X112918Y69713D01*
X112944Y69813D01*
X112974Y69912D01*
X112973Y69932D01*
X112978Y69951D01*
X112970Y70054D01*
X112968Y70158D01*
X112961Y70177D01*
X112959Y70196D01*
X112919Y70291D01*
X112883Y70389D01*
X112871Y70405D01*
X112863Y70423D01*
X112758Y70554D01*
X111013Y72299D01*
X111013Y75021D01*
X112939Y76947D01*
X115661Y76947D01*
X117587Y75021D01*
X117587Y72299D01*
X115842Y70554D01*
X115830Y70538D01*
X115815Y70525D01*
X115759Y70438D01*
X115698Y70354D01*
X115693Y70335D01*
X115682Y70318D01*
X115656Y70218D01*
X115626Y70119D01*
X115627Y70099D01*
X115622Y70080D01*
X115630Y69977D01*
X115632Y69873D01*
X115639Y69854D01*
X115641Y69834D01*
X115681Y69740D01*
X115717Y69642D01*
X115729Y69626D01*
X115737Y69608D01*
X115842Y69477D01*
X117023Y68296D01*
X117097Y68243D01*
X117167Y68183D01*
X117197Y68171D01*
X117223Y68152D01*
X117310Y68125D01*
X117395Y68091D01*
X117436Y68087D01*
X117458Y68080D01*
X117490Y68081D01*
X117562Y68073D01*
X118952Y68073D01*
X120366Y66659D01*
X130513Y56512D01*
X130513Y7773D01*
X130532Y7658D01*
X130549Y7542D01*
X130551Y7536D01*
X130552Y7530D01*
X130607Y7428D01*
X130660Y7322D01*
X130665Y7318D01*
X130668Y7313D01*
X130752Y7233D01*
X130836Y7150D01*
X130842Y7147D01*
X130846Y7143D01*
X130863Y7135D01*
X130983Y7069D01*
X132077Y6616D01*
X133864Y4829D01*
X134323Y3722D01*
X134384Y3622D01*
X134444Y3522D01*
X134449Y3518D01*
X134452Y3513D01*
X134542Y3438D01*
X134631Y3362D01*
X134637Y3360D01*
X134642Y3356D01*
X134750Y3314D01*
X134859Y3270D01*
X134867Y3269D01*
X134871Y3268D01*
X134890Y3267D01*
X135026Y3252D01*
X244879Y3252D01*
X244899Y3255D01*
X244918Y3253D01*
X245020Y3275D01*
X245122Y3291D01*
X245139Y3301D01*
X245159Y3305D01*
X245248Y3358D01*
X245339Y3407D01*
X245353Y3421D01*
X245370Y3431D01*
X245437Y3510D01*
X245509Y3585D01*
X245517Y3603D01*
X245530Y3618D01*
X245569Y3714D01*
X245612Y3808D01*
X245614Y3828D01*
X245622Y3846D01*
X245640Y4013D01*
X245640Y159055D01*
X245637Y159075D01*
X245639Y159094D01*
X245617Y159196D01*
X245601Y159298D01*
X245591Y159315D01*
X245587Y159335D01*
X245534Y159424D01*
X245485Y159515D01*
X245471Y159529D01*
X245461Y159546D01*
X245382Y159613D01*
X245307Y159685D01*
X245289Y159693D01*
X245274Y159706D01*
X245178Y159745D01*
X245084Y159788D01*
X245064Y159790D01*
X245046Y159798D01*
X244879Y159816D01*
X135011Y159816D01*
X134897Y159797D01*
X134780Y159780D01*
X134775Y159778D01*
X134769Y159777D01*
X134666Y159722D01*
X134561Y159669D01*
X134557Y159664D01*
X134551Y159661D01*
X134471Y159577D01*
X134389Y159493D01*
X134385Y159487D01*
X134382Y159483D01*
X134374Y159466D01*
X134308Y159346D01*
X133781Y158074D01*
X131994Y156287D01*
X130900Y155834D01*
X130800Y155772D01*
X130700Y155712D01*
X130696Y155707D01*
X130691Y155704D01*
X130616Y155613D01*
X130540Y155525D01*
X130538Y155519D01*
X130534Y155515D01*
X130492Y155406D01*
X130448Y155297D01*
X130447Y155290D01*
X130446Y155285D01*
X130445Y155267D01*
X130430Y155130D01*
X130430Y126202D01*
X130433Y126182D01*
X130431Y126163D01*
X130453Y126061D01*
X130469Y125959D01*
X130479Y125942D01*
X130483Y125922D01*
X130536Y125833D01*
X130585Y125742D01*
X130599Y125728D01*
X130609Y125711D01*
X130688Y125644D01*
X130763Y125572D01*
X130781Y125564D01*
X130796Y125551D01*
X130892Y125512D01*
X130957Y125483D01*
X133061Y123378D01*
X133061Y120462D01*
X130998Y118399D01*
X128082Y118399D01*
X126019Y120462D01*
X126019Y123378D01*
X126141Y123500D01*
X126194Y123574D01*
X126254Y123644D01*
X126266Y123674D01*
X126285Y123700D01*
X126312Y123787D01*
X126346Y123872D01*
X126350Y123913D01*
X126357Y123935D01*
X126356Y123967D01*
X126364Y124039D01*
X126364Y143677D01*
X126353Y143748D01*
X126351Y143820D01*
X126333Y143869D01*
X126325Y143920D01*
X126291Y143983D01*
X126266Y144051D01*
X126234Y144092D01*
X126209Y144138D01*
X126158Y144187D01*
X126113Y144243D01*
X126069Y144271D01*
X126031Y144307D01*
X125966Y144337D01*
X125906Y144376D01*
X125855Y144389D01*
X125808Y144411D01*
X125737Y144418D01*
X125667Y144436D01*
X125615Y144432D01*
X125564Y144438D01*
X125493Y144422D01*
X125422Y144417D01*
X125374Y144396D01*
X125323Y144385D01*
X125262Y144349D01*
X125196Y144320D01*
X125140Y144276D01*
X125112Y144259D01*
X125097Y144241D01*
X125065Y144216D01*
X124648Y143799D01*
X123368Y143799D01*
X123297Y143788D01*
X123225Y143786D01*
X123176Y143768D01*
X123125Y143760D01*
X123062Y143726D01*
X122994Y143701D01*
X122953Y143669D01*
X122907Y143644D01*
X122858Y143593D01*
X122802Y143548D01*
X122774Y143504D01*
X122738Y143466D01*
X122708Y143401D01*
X122669Y143341D01*
X122656Y143290D01*
X122634Y143243D01*
X122627Y143172D01*
X122609Y143102D01*
X122613Y143050D01*
X122607Y142999D01*
X122623Y142928D01*
X122628Y142857D01*
X122649Y142809D01*
X122660Y142758D01*
X122696Y142697D01*
X122725Y142631D01*
X122769Y142575D01*
X122786Y142547D01*
X122804Y142532D01*
X122829Y142500D01*
X122901Y142428D01*
X122901Y139512D01*
X121087Y137698D01*
X121076Y137682D01*
X121060Y137670D01*
X121004Y137582D01*
X120944Y137499D01*
X120938Y137480D01*
X120927Y137463D01*
X120902Y137362D01*
X120871Y137263D01*
X120872Y137244D01*
X120867Y137224D01*
X120875Y137121D01*
X120878Y137018D01*
X120885Y136999D01*
X120886Y136979D01*
X120927Y136884D01*
X120962Y136787D01*
X120975Y136771D01*
X120983Y136753D01*
X121087Y136622D01*
X121631Y136078D01*
X121631Y133162D01*
X119568Y131099D01*
X117312Y131099D01*
X117292Y131096D01*
X117273Y131098D01*
X117171Y131076D01*
X117069Y131060D01*
X117052Y131050D01*
X117032Y131046D01*
X116943Y130993D01*
X116852Y130944D01*
X116838Y130930D01*
X116821Y130920D01*
X116754Y130841D01*
X116682Y130766D01*
X116674Y130748D01*
X116661Y130733D01*
X116622Y130637D01*
X116579Y130543D01*
X116577Y130523D01*
X116569Y130505D01*
X116551Y130338D01*
X116551Y129352D01*
X114488Y127289D01*
X111572Y127289D01*
X109509Y129352D01*
X109509Y131141D01*
X109505Y131165D01*
X109507Y131181D01*
X109493Y131244D01*
X109487Y131322D01*
X109475Y131351D01*
X109470Y131383D01*
X109459Y131404D01*
X109455Y131422D01*
X109420Y131480D01*
X109391Y131548D01*
X109365Y131580D01*
X109354Y131601D01*
X109339Y131615D01*
X109329Y131633D01*
X109312Y131647D01*
X109286Y131679D01*
X103521Y137444D01*
X103447Y137497D01*
X103378Y137557D01*
X103347Y137569D01*
X103321Y137588D01*
X103234Y137615D01*
X103149Y137649D01*
X103108Y137653D01*
X103086Y137660D01*
X103054Y137659D01*
X102983Y137667D01*
X74890Y137667D01*
X74819Y137656D01*
X74747Y137654D01*
X74698Y137636D01*
X74647Y137628D01*
X74584Y137594D01*
X74516Y137569D01*
X74476Y137537D01*
X74429Y137512D01*
X74380Y137460D01*
X74324Y137416D01*
X74296Y137372D01*
X74260Y137334D01*
X74230Y137269D01*
X74191Y137209D01*
X74178Y137158D01*
X74156Y137111D01*
X74149Y137040D01*
X74131Y136970D01*
X74135Y136918D01*
X74129Y136867D01*
X74145Y136796D01*
X74150Y136725D01*
X74171Y136677D01*
X74182Y136626D01*
X74218Y136565D01*
X74247Y136499D01*
X74291Y136443D01*
X74308Y136415D01*
X74326Y136400D01*
X74351Y136368D01*
X75911Y134808D01*
X75911Y131892D01*
X73848Y129829D01*
X70932Y129829D01*
X68869Y131892D01*
X68869Y133681D01*
X68855Y133771D01*
X68847Y133862D01*
X68835Y133891D01*
X68830Y133923D01*
X68787Y134004D01*
X68751Y134088D01*
X68725Y134120D01*
X68714Y134141D01*
X68691Y134163D01*
X68646Y134219D01*
X68215Y134650D01*
X68141Y134703D01*
X68072Y134763D01*
X68041Y134775D01*
X68015Y134794D01*
X67928Y134821D01*
X67843Y134855D01*
X67802Y134859D01*
X67780Y134866D01*
X67748Y134865D01*
X67677Y134873D01*
X8049Y134873D01*
X7935Y134854D01*
X7819Y134837D01*
X7813Y134835D01*
X7807Y134834D01*
X7704Y134779D01*
X7599Y134726D01*
X7595Y134721D01*
X7589Y134718D01*
X7510Y134634D01*
X7427Y134550D01*
X7423Y134544D01*
X7420Y134540D01*
X7412Y134523D01*
X7346Y134403D01*
X6781Y133039D01*
X4994Y131252D01*
X4360Y130989D01*
X4299Y130952D01*
X4233Y130922D01*
X4195Y130887D01*
X4151Y130860D01*
X4105Y130804D01*
X4052Y130756D01*
X4027Y130710D01*
X3994Y130670D01*
X3968Y130603D01*
X3934Y130540D01*
X3925Y130489D01*
X3906Y130441D01*
X3903Y130369D01*
X3890Y130298D01*
X3898Y130247D01*
X3895Y130195D01*
X3915Y130126D01*
X3926Y130055D01*
X3949Y130009D01*
X3964Y129959D01*
X4005Y129900D01*
X4037Y129836D01*
X4075Y129799D01*
X4104Y129757D01*
X4162Y129714D01*
X4213Y129664D01*
X4276Y129629D01*
X4302Y129610D01*
X4324Y129602D01*
X4360Y129583D01*
X4994Y129320D01*
X6781Y127533D01*
X7748Y125199D01*
X7748Y122673D01*
X6781Y120339D01*
X4994Y118552D01*
X4360Y118289D01*
X4299Y118252D01*
X4233Y118222D01*
X4195Y118187D01*
X4151Y118160D01*
X4105Y118104D01*
X4052Y118056D01*
X4027Y118010D01*
X3994Y117970D01*
X3968Y117903D01*
X3934Y117840D01*
X3925Y117789D01*
X3906Y117741D01*
X3903Y117669D01*
X3890Y117598D01*
X3898Y117547D01*
X3895Y117495D01*
X3915Y117426D01*
X3926Y117355D01*
X3949Y117309D01*
X3964Y117259D01*
X4005Y117200D01*
X4037Y117136D01*
X4075Y117099D01*
X4104Y117057D01*
X4162Y117014D01*
X4213Y116964D01*
X4276Y116929D01*
X4302Y116910D01*
X4324Y116902D01*
X4360Y116883D01*
X4994Y116620D01*
X6781Y114833D01*
X7748Y112499D01*
X7748Y109973D01*
X6781Y107639D01*
X4994Y105852D01*
X4360Y105589D01*
X4299Y105552D01*
X4233Y105522D01*
X4195Y105487D01*
X4151Y105460D01*
X4105Y105404D01*
X4052Y105356D01*
X4027Y105310D01*
X3994Y105270D01*
X3968Y105203D01*
X3934Y105140D01*
X3925Y105089D01*
X3906Y105041D01*
X3903Y104969D01*
X3890Y104898D01*
X3898Y104847D01*
X3895Y104795D01*
X3915Y104726D01*
X3926Y104655D01*
X3949Y104609D01*
X3964Y104559D01*
X4005Y104500D01*
X4037Y104436D01*
X4075Y104399D01*
X4104Y104357D01*
X4162Y104314D01*
X4213Y104264D01*
X4276Y104229D01*
X4302Y104210D01*
X4324Y104202D01*
X4360Y104183D01*
X4994Y103920D01*
X6781Y102133D01*
X7748Y99799D01*
X7748Y97273D01*
X6781Y94939D01*
X4994Y93152D01*
X4360Y92889D01*
X4299Y92852D01*
X4233Y92822D01*
X4195Y92787D01*
X4151Y92760D01*
X4105Y92704D01*
X4052Y92656D01*
X4027Y92610D01*
X3994Y92570D01*
X3968Y92503D01*
X3934Y92440D01*
X3925Y92389D01*
X3906Y92341D01*
X3903Y92269D01*
X3890Y92198D01*
X3898Y92147D01*
X3895Y92095D01*
X3915Y92026D01*
X3926Y91955D01*
X3949Y91909D01*
X3964Y91859D01*
X4005Y91800D01*
X4037Y91736D01*
X4075Y91699D01*
X4104Y91657D01*
X4162Y91614D01*
X4213Y91564D01*
X4276Y91529D01*
X4302Y91510D01*
X4324Y91502D01*
X4360Y91483D01*
X4994Y91220D01*
X6781Y89433D01*
X7748Y87099D01*
X7748Y84573D01*
X6781Y82239D01*
X4994Y80452D01*
X4360Y80189D01*
X4299Y80152D01*
X4233Y80122D01*
X4195Y80087D01*
X4151Y80060D01*
X4105Y80004D01*
X4052Y79956D01*
X4027Y79910D01*
X3994Y79870D01*
X3968Y79803D01*
X3934Y79740D01*
X3925Y79689D01*
X3906Y79641D01*
X3903Y79569D01*
X3890Y79498D01*
X3898Y79447D01*
X3895Y79395D01*
X3915Y79326D01*
X3926Y79255D01*
X3949Y79209D01*
X3964Y79159D01*
X4005Y79100D01*
X4037Y79036D01*
X4075Y78999D01*
X4104Y78957D01*
X4162Y78914D01*
X4213Y78864D01*
X4276Y78829D01*
X4302Y78810D01*
X4324Y78803D01*
X4360Y78783D01*
X4994Y78520D01*
X6781Y76733D01*
X7748Y74399D01*
X7748Y71873D01*
X6781Y69539D01*
X4994Y67752D01*
X4360Y67489D01*
X4299Y67452D01*
X4233Y67422D01*
X4195Y67387D01*
X4151Y67360D01*
X4105Y67304D01*
X4052Y67256D01*
X4027Y67210D01*
X3994Y67170D01*
X3968Y67103D01*
X3934Y67040D01*
X3925Y66989D01*
X3906Y66941D01*
X3903Y66869D01*
X3890Y66798D01*
X3898Y66747D01*
X3895Y66695D01*
X3915Y66626D01*
X3926Y66555D01*
X3949Y66509D01*
X3964Y66459D01*
X4005Y66400D01*
X4037Y66336D01*
X4075Y66299D01*
X4104Y66257D01*
X4162Y66214D01*
X4213Y66164D01*
X4276Y66129D01*
X4302Y66110D01*
X4324Y66103D01*
X4360Y66083D01*
X4994Y65820D01*
X6781Y64033D01*
X7748Y61699D01*
X7748Y59173D01*
X6781Y56839D01*
X4994Y55052D01*
X4360Y54789D01*
X4299Y54752D01*
X4233Y54722D01*
X4195Y54687D01*
X4151Y54660D01*
X4105Y54604D01*
X4052Y54556D01*
X4027Y54510D01*
X3994Y54470D01*
X3968Y54403D01*
X3934Y54340D01*
X3925Y54289D01*
X3906Y54241D01*
X3903Y54169D01*
X3890Y54098D01*
X3898Y54047D01*
X3895Y53995D01*
X3915Y53926D01*
X3926Y53855D01*
X3949Y53809D01*
X3964Y53759D01*
X4005Y53700D01*
X4037Y53636D01*
X4075Y53599D01*
X4104Y53557D01*
X4162Y53514D01*
X4213Y53464D01*
X4276Y53429D01*
X4302Y53410D01*
X4324Y53403D01*
X4360Y53383D01*
X4994Y53120D01*
X6781Y51333D01*
X7748Y48999D01*
X7748Y46473D01*
X6781Y44139D01*
X4994Y42352D01*
X4103Y41983D01*
X4003Y41921D01*
X3903Y41861D01*
X3899Y41856D01*
X3894Y41853D01*
X3819Y41763D01*
X3743Y41674D01*
X3741Y41668D01*
X3737Y41664D01*
X3695Y41556D01*
X3651Y41446D01*
X3650Y41439D01*
X3649Y41434D01*
X3648Y41416D01*
X3633Y41279D01*
X3633Y4013D01*
X3636Y3993D01*
X3634Y3974D01*
X3656Y3872D01*
X3672Y3770D01*
X3682Y3753D01*
X3686Y3733D01*
X3739Y3644D01*
X3788Y3553D01*
X3802Y3539D01*
X3812Y3522D01*
X3891Y3455D01*
X3966Y3383D01*
X3984Y3375D01*
X3999Y3362D01*
X4095Y3323D01*
X4189Y3280D01*
X4209Y3278D01*
X4227Y3270D01*
X4394Y3252D01*
X20334Y3252D01*
X20449Y3271D01*
G37*
G36*
X44887Y138950D02*
X44887Y138950D01*
X44959Y138952D01*
X45008Y138970D01*
X45059Y138978D01*
X45123Y139012D01*
X45190Y139037D01*
X45231Y139069D01*
X45277Y139094D01*
X45326Y139145D01*
X45382Y139190D01*
X45410Y139234D01*
X45446Y139272D01*
X45476Y139337D01*
X45515Y139397D01*
X45528Y139448D01*
X45550Y139495D01*
X45558Y139566D01*
X45575Y139636D01*
X45571Y139688D01*
X45577Y139739D01*
X45562Y139810D01*
X45556Y139881D01*
X45536Y139929D01*
X45525Y139980D01*
X45488Y140041D01*
X45460Y140107D01*
X45415Y140163D01*
X45399Y140191D01*
X45381Y140206D01*
X45355Y140238D01*
X29985Y155609D01*
X29891Y155676D01*
X29796Y155747D01*
X29790Y155749D01*
X29785Y155752D01*
X29674Y155786D01*
X29562Y155823D01*
X29556Y155823D01*
X29550Y155825D01*
X29433Y155822D01*
X29316Y155820D01*
X29309Y155818D01*
X29304Y155818D01*
X29286Y155812D01*
X29155Y155774D01*
X28060Y155320D01*
X25534Y155320D01*
X23200Y156287D01*
X21413Y158074D01*
X20886Y159346D01*
X20824Y159446D01*
X20764Y159546D01*
X20760Y159550D01*
X20756Y159555D01*
X20667Y159630D01*
X20577Y159706D01*
X20572Y159708D01*
X20567Y159712D01*
X20459Y159754D01*
X20349Y159798D01*
X20342Y159799D01*
X20337Y159800D01*
X20319Y159801D01*
X20183Y159816D01*
X4394Y159816D01*
X4374Y159813D01*
X4355Y159815D01*
X4253Y159793D01*
X4151Y159777D01*
X4134Y159767D01*
X4114Y159763D01*
X4025Y159710D01*
X3934Y159661D01*
X3920Y159647D01*
X3903Y159637D01*
X3836Y159558D01*
X3764Y159483D01*
X3756Y159465D01*
X3743Y159450D01*
X3704Y159354D01*
X3661Y159260D01*
X3659Y159240D01*
X3651Y159222D01*
X3633Y159055D01*
X3633Y143093D01*
X3651Y142978D01*
X3669Y142862D01*
X3671Y142856D01*
X3672Y142850D01*
X3727Y142747D01*
X3780Y142642D01*
X3785Y142638D01*
X3788Y142632D01*
X3873Y142552D01*
X3956Y142470D01*
X3962Y142467D01*
X3966Y142463D01*
X3983Y142455D01*
X4103Y142389D01*
X4994Y142020D01*
X6781Y140233D01*
X7122Y139409D01*
X7184Y139309D01*
X7244Y139209D01*
X7249Y139205D01*
X7252Y139200D01*
X7342Y139125D01*
X7431Y139049D01*
X7437Y139047D01*
X7442Y139043D01*
X7550Y139001D01*
X7659Y138957D01*
X7667Y138956D01*
X7671Y138955D01*
X7689Y138954D01*
X7826Y138939D01*
X44817Y138939D01*
X44887Y138950D01*
G37*
G36*
X109469Y3733D02*
X109469Y3733D01*
X109521Y3730D01*
X109590Y3750D01*
X109661Y3761D01*
X109707Y3784D01*
X109757Y3799D01*
X109816Y3840D01*
X109880Y3872D01*
X109917Y3910D01*
X109959Y3939D01*
X110002Y3997D01*
X110052Y4048D01*
X110087Y4111D01*
X110106Y4137D01*
X110113Y4159D01*
X110133Y4195D01*
X110396Y4829D01*
X112183Y6616D01*
X112202Y6624D01*
X112242Y6648D01*
X112285Y6664D01*
X112345Y6713D01*
X112412Y6754D01*
X112441Y6789D01*
X112477Y6818D01*
X112519Y6883D01*
X112568Y6943D01*
X112585Y6986D01*
X112610Y7025D01*
X112629Y7100D01*
X112657Y7173D01*
X112659Y7219D01*
X112670Y7263D01*
X112664Y7341D01*
X112667Y7419D01*
X112654Y7463D01*
X112651Y7508D01*
X112620Y7580D01*
X112599Y7655D01*
X112572Y7693D01*
X112554Y7735D01*
X112469Y7841D01*
X112458Y7857D01*
X112454Y7860D01*
X112450Y7866D01*
X97171Y23144D01*
X97097Y23197D01*
X97028Y23257D01*
X96997Y23269D01*
X96971Y23288D01*
X96884Y23315D01*
X96799Y23349D01*
X96758Y23353D01*
X96736Y23360D01*
X96704Y23359D01*
X96633Y23367D01*
X78007Y23367D01*
X77936Y23356D01*
X77864Y23354D01*
X77815Y23336D01*
X77764Y23328D01*
X77701Y23294D01*
X77633Y23269D01*
X77593Y23237D01*
X77547Y23212D01*
X77497Y23160D01*
X77441Y23116D01*
X77413Y23072D01*
X77377Y23034D01*
X77347Y22969D01*
X77308Y22909D01*
X77295Y22858D01*
X77274Y22811D01*
X77266Y22740D01*
X77248Y22670D01*
X77252Y22618D01*
X77246Y22567D01*
X77262Y22496D01*
X77267Y22425D01*
X77288Y22377D01*
X77299Y22326D01*
X77336Y22264D01*
X77364Y22199D01*
X77408Y22143D01*
X77425Y22115D01*
X77443Y22100D01*
X77468Y22068D01*
X87120Y12416D01*
X87194Y12363D01*
X87264Y12303D01*
X87294Y12291D01*
X87320Y12272D01*
X87407Y12245D01*
X87492Y12211D01*
X87533Y12207D01*
X87555Y12200D01*
X87587Y12201D01*
X87659Y12193D01*
X92750Y12193D01*
X92821Y12204D01*
X92893Y12206D01*
X92942Y12224D01*
X92993Y12232D01*
X93056Y12266D01*
X93124Y12291D01*
X93165Y12323D01*
X93211Y12348D01*
X93260Y12400D01*
X93316Y12444D01*
X93344Y12488D01*
X93380Y12526D01*
X93410Y12591D01*
X93449Y12651D01*
X93462Y12702D01*
X93484Y12749D01*
X93491Y12820D01*
X93509Y12890D01*
X93505Y12942D01*
X93511Y12993D01*
X93495Y13064D01*
X93490Y13135D01*
X93469Y13183D01*
X93458Y13234D01*
X93422Y13295D01*
X93393Y13361D01*
X93349Y13417D01*
X93332Y13445D01*
X93314Y13460D01*
X93289Y13492D01*
X92999Y13782D01*
X92999Y16698D01*
X95062Y18761D01*
X97978Y18761D01*
X100041Y16698D01*
X100041Y13782D01*
X97978Y11719D01*
X97305Y11719D01*
X97235Y11708D01*
X97163Y11706D01*
X97114Y11688D01*
X97063Y11680D01*
X96999Y11646D01*
X96932Y11621D01*
X96891Y11589D01*
X96845Y11564D01*
X96796Y11513D01*
X96740Y11468D01*
X96712Y11424D01*
X96676Y11386D01*
X96646Y11321D01*
X96607Y11261D01*
X96594Y11210D01*
X96572Y11163D01*
X96564Y11092D01*
X96547Y11022D01*
X96551Y10970D01*
X96545Y10919D01*
X96560Y10848D01*
X96566Y10777D01*
X96586Y10729D01*
X96597Y10678D01*
X96634Y10617D01*
X96662Y10551D01*
X96707Y10495D01*
X96723Y10467D01*
X96741Y10452D01*
X96767Y10420D01*
X99892Y7294D01*
X99986Y7227D01*
X100081Y7156D01*
X100087Y7154D01*
X100092Y7151D01*
X100203Y7117D01*
X100315Y7080D01*
X100321Y7080D01*
X100327Y7078D01*
X100444Y7081D01*
X100561Y7083D01*
X100568Y7085D01*
X100573Y7085D01*
X100591Y7091D01*
X100722Y7129D01*
X101817Y7583D01*
X104343Y7583D01*
X106677Y6616D01*
X108464Y4829D01*
X108727Y4195D01*
X108764Y4134D01*
X108794Y4068D01*
X108829Y4030D01*
X108856Y3986D01*
X108912Y3940D01*
X108960Y3887D01*
X109006Y3862D01*
X109046Y3829D01*
X109113Y3803D01*
X109176Y3769D01*
X109227Y3760D01*
X109275Y3741D01*
X109347Y3738D01*
X109418Y3725D01*
X109469Y3733D01*
G37*
%LPC*%
G36*
X27641Y124483D02*
X27641Y124483D01*
X25423Y126701D01*
X25423Y129839D01*
X27641Y132057D01*
X30779Y132057D01*
X32997Y129839D01*
X32997Y126701D01*
X30779Y124483D01*
X27641Y124483D01*
G37*
%LPD*%
%LPC*%
G36*
X115271Y47013D02*
X115271Y47013D01*
X113053Y49231D01*
X113053Y52369D01*
X115271Y54587D01*
X118409Y54587D01*
X120627Y52369D01*
X120627Y49231D01*
X118409Y47013D01*
X115271Y47013D01*
G37*
%LPD*%
%LPC*%
G36*
X59391Y15263D02*
X59391Y15263D01*
X57173Y17481D01*
X57173Y20619D01*
X59391Y22837D01*
X62529Y22837D01*
X64747Y20619D01*
X64747Y17481D01*
X62529Y15263D01*
X59391Y15263D01*
G37*
%LPD*%
%LPC*%
G36*
X112842Y81569D02*
X112842Y81569D01*
X110779Y83632D01*
X110779Y86548D01*
X112842Y88611D01*
X115758Y88611D01*
X117821Y86548D01*
X117821Y83632D01*
X115758Y81569D01*
X112842Y81569D01*
G37*
%LPD*%
%LPC*%
G36*
X110302Y21879D02*
X110302Y21879D01*
X108239Y23942D01*
X108239Y26858D01*
X110302Y28921D01*
X113218Y28921D01*
X115281Y26858D01*
X115281Y23942D01*
X113218Y21879D01*
X110302Y21879D01*
G37*
%LPD*%
D10*
X1397Y85836D03*
X1397Y98536D03*
X1397Y111236D03*
X1397Y123936D03*
X1397Y136636D03*
X1397Y73136D03*
X1397Y60436D03*
X1397Y47736D03*
X1397Y35036D03*
X77597Y161671D03*
X90297Y161671D03*
X102997Y161671D03*
X115697Y161671D03*
X128397Y161671D03*
X64897Y161671D03*
X52197Y161671D03*
X39497Y161671D03*
X26797Y161671D03*
X77680Y1232D03*
X90380Y1232D03*
X103080Y1232D03*
X115780Y1232D03*
X128480Y1232D03*
X64980Y1232D03*
X52280Y1232D03*
X39580Y1232D03*
X26880Y1232D03*
D11*
X165100Y128270D03*
X170180Y128270D03*
X175260Y128270D03*
X180340Y128270D03*
X185420Y128270D03*
X190500Y128270D03*
X195580Y128270D03*
X200660Y128270D03*
X205740Y128270D03*
X210820Y128270D03*
X215900Y128270D03*
X220980Y128270D03*
X226060Y128270D03*
X231140Y128270D03*
X236220Y128270D03*
X241300Y129540D03*
X165100Y116840D03*
X170180Y116840D03*
X175260Y116840D03*
X180340Y116840D03*
X185420Y116840D03*
X190500Y116840D03*
X195580Y116840D03*
X200660Y116840D03*
X205740Y116840D03*
X210820Y116840D03*
X215900Y116840D03*
X220980Y116840D03*
X226060Y116840D03*
X231140Y116840D03*
X236220Y116840D03*
X241300Y115570D03*
X241300Y144540D03*
X241300Y157040D03*
X231300Y157040D03*
X221300Y157040D03*
X211300Y157040D03*
X201300Y157040D03*
X191300Y157040D03*
X181300Y157040D03*
X171300Y157040D03*
X231300Y144540D03*
X221300Y144540D03*
X211300Y144540D03*
X201300Y144540D03*
X191300Y144540D03*
X181300Y144540D03*
X171300Y144540D03*
X241300Y103070D03*
X241300Y90570D03*
X241300Y78070D03*
X241300Y65570D03*
X241300Y54380D03*
X241300Y41920D03*
X241300Y29460D03*
X241300Y15730D03*
X231300Y103070D03*
X221300Y103070D03*
X211300Y103070D03*
X201300Y103070D03*
X191300Y103070D03*
X181300Y103070D03*
X171300Y103070D03*
X231300Y90570D03*
X221300Y90570D03*
X211300Y90570D03*
X201300Y90570D03*
X191300Y90570D03*
X181300Y90570D03*
X171300Y90570D03*
X231300Y78070D03*
X221300Y78070D03*
X211300Y78070D03*
X201300Y78070D03*
X191300Y78070D03*
X181300Y78070D03*
X171300Y78070D03*
X231300Y65570D03*
X221300Y65570D03*
X211300Y65570D03*
X201300Y65570D03*
X191300Y65570D03*
X181300Y65570D03*
X171300Y65570D03*
X231300Y54380D03*
X221300Y54380D03*
X211300Y54380D03*
X201300Y54380D03*
X191300Y54380D03*
X181300Y54380D03*
X171300Y54380D03*
X231300Y41920D03*
X221300Y41920D03*
X211300Y41920D03*
X201300Y41920D03*
X191300Y41920D03*
X181300Y41920D03*
X171300Y41920D03*
X231300Y29460D03*
X221300Y29460D03*
X211300Y29460D03*
X201300Y29460D03*
X191300Y29460D03*
X181300Y29460D03*
X171300Y29460D03*
X231300Y15730D03*
X221300Y15730D03*
X211300Y15730D03*
X201300Y15730D03*
X191300Y15730D03*
X181300Y15730D03*
X171300Y15730D03*
X160070Y5570D03*
X146300Y5570D03*
X161300Y157040D03*
X151300Y157040D03*
X141300Y157040D03*
X161300Y144540D03*
X151300Y144540D03*
X141300Y144540D03*
X171300Y5570D03*
X181300Y5570D03*
X191300Y5570D03*
X201300Y5570D03*
X211300Y5570D03*
X221300Y5570D03*
X231300Y5570D03*
X241300Y5570D03*
X74780Y91640D03*
X74780Y101800D03*
X74780Y110690D03*
X74780Y82750D03*
X74780Y72590D03*
X65890Y82750D03*
X57000Y82750D03*
X65890Y72590D03*
X57000Y72590D03*
X65890Y91640D03*
X57000Y91640D03*
X57000Y101800D03*
X65890Y101800D03*
X57000Y110690D03*
X65890Y110690D03*
X83670Y110690D03*
X92560Y110690D03*
X83670Y101800D03*
X92560Y101800D03*
X83670Y91640D03*
X83670Y82750D03*
X83670Y72590D03*
X92560Y91640D03*
X92560Y72590D03*
X92560Y82750D03*
X159870Y90570D03*
X148440Y90570D03*
X138280Y90570D03*
X159870Y78070D03*
X159870Y65570D03*
X159870Y54380D03*
X159870Y41920D03*
X159870Y29460D03*
X159870Y15730D03*
X147170Y29460D03*
X147170Y41920D03*
X147170Y54380D03*
X146300Y15730D03*
X159870Y103070D03*
D12*
X69850Y45720D03*
X88900Y16510D03*
D11*
X141300Y131840D03*
X141300Y120410D03*
D12*
X21590Y73660D03*
X22860Y113030D03*
D11*
X6680Y157040D03*
X6680Y144540D03*
X6600Y5570D03*
X18030Y5570D03*
X6600Y19540D03*
X44300Y28190D03*
X99390Y133110D03*
X24460Y144540D03*
X129390Y104340D03*
D12*
X41910Y43180D03*
X116840Y50800D03*
X29210Y128270D03*
X60960Y19050D03*
D11*
X96520Y15240D03*
X114300Y66040D03*
D13*
X118110Y66040D01*
X128480Y55670D02*
X128480Y6350D01*
X128480Y4013D01*
X128480Y55670D02*
X118110Y66040D01*
X128480Y4013D02*
X128480Y1232D01*
D14*
X114300Y73660D03*
D11*
X114300Y85090D03*
X129540Y121920D03*
D13*
X128397Y123063D02*
X128397Y161671D01*
X128397Y123063D02*
X129540Y121920D01*
D11*
X123190Y147320D03*
D13*
X122428Y148082D01*
X76708Y148082D01*
X64897Y159893D02*
X64897Y161671D01*
X64897Y159893D02*
X76708Y148082D01*
D11*
X119380Y140970D03*
D13*
X111607Y140970D01*
X107289Y145288D01*
X66802Y145288D01*
X52197Y159893D02*
X52197Y161671D01*
X52197Y159893D02*
X66802Y145288D01*
D11*
X118110Y134620D03*
D13*
X116840Y135890D01*
X112736Y135890D01*
X106132Y142494D01*
X59436Y142494D01*
X40259Y161671D02*
X39497Y161671D01*
X40259Y161671D02*
X59436Y142494D01*
D11*
X113030Y130810D03*
D13*
X104140Y139700D01*
X48768Y139700D02*
X26797Y161671D01*
X48768Y139700D02*
X104140Y139700D01*
D11*
X72390Y133350D03*
D13*
X68834Y136906D01*
X1667Y136906D01*
X1397Y136636D01*
D11*
X15240Y55880D03*
D13*
X16510Y54610D01*
X16510Y14142D01*
X23581Y7071D01*
X23581Y4531D01*
X26880Y1232D01*
D11*
X20320Y64770D03*
D13*
X25400Y10160D02*
X35560Y10160D01*
X39580Y6140D01*
X20320Y15240D02*
X20320Y64770D01*
X20320Y15240D02*
X25400Y10160D01*
X39580Y6140D02*
X39580Y1232D01*
D11*
X25400Y60960D03*
D13*
X23566Y59126D01*
X23566Y15946D01*
X26557Y12954D01*
X40558Y12954D01*
X52280Y1232D01*
D11*
X29210Y54610D03*
D13*
X27940Y54610D01*
X30255Y15748D02*
X41715Y15748D01*
X26360Y53030D02*
X27940Y54610D01*
X26360Y53030D02*
X26360Y19643D01*
X30255Y15748D01*
X41715Y15748D02*
X47303Y10160D01*
X74930Y10160D01*
X77680Y7410D01*
X77680Y1232D01*
D11*
X45720Y63500D03*
D13*
X46990Y62230D01*
X46990Y45720D01*
X88697Y4013D01*
X88697Y2915D02*
X90380Y1232D01*
X88697Y2915D02*
X88697Y4013D01*
D11*
X52070Y48260D03*
D13*
X53340Y46990D01*
X53340Y43321D01*
X94152Y10160D02*
X100299Y4013D01*
X100127Y4013D02*
X99060Y5080D01*
X97790Y6350D01*
X86501Y10160D02*
X53340Y43321D01*
X86501Y10160D02*
X94152Y10160D01*
X100127Y4013D02*
X100299Y4013D01*
X102908Y1232D02*
X103080Y1232D01*
X102908Y1232D02*
X100127Y4013D01*
D11*
X57150Y52070D03*
D13*
X58420Y50800D01*
X58420Y42193D01*
X75213Y25400D01*
X97790Y25400D01*
X115780Y7410D01*
X115780Y1232D01*
D11*
X111760Y25400D03*
M02*
