G04 EAGLE Gerber RS-274X export*
G75*
%MOMM*%
%FSLAX34Y34*%
%LPD*%
%INCopper Layer 2*%
%IPPOS*%
%AMOC8*
5,1,8,0,0,1.08239X$1,22.5*%
G01*
%ADD10C,0.975000*%
%ADD11C,0.403200*%
%ADD12C,0.503200*%
%ADD13C,0.200000*%

G36*
X20671Y3271D02*
X20671Y3271D01*
X20787Y3288D01*
X20792Y3290D01*
X20799Y3291D01*
X20901Y3346D01*
X21006Y3399D01*
X21010Y3404D01*
X21016Y3407D01*
X21096Y3491D01*
X21178Y3575D01*
X21182Y3581D01*
X21185Y3585D01*
X21193Y3602D01*
X21259Y3722D01*
X21670Y4713D01*
X23399Y6442D01*
X25658Y7378D01*
X28102Y7378D01*
X30361Y6442D01*
X32090Y4713D01*
X32501Y3722D01*
X32562Y3622D01*
X32622Y3522D01*
X32627Y3518D01*
X32630Y3513D01*
X32720Y3438D01*
X32809Y3362D01*
X32815Y3360D01*
X32820Y3356D01*
X32928Y3314D01*
X33037Y3270D01*
X33045Y3269D01*
X33050Y3268D01*
X33068Y3267D01*
X33204Y3252D01*
X33256Y3252D01*
X33290Y3257D01*
X33295Y3257D01*
X33303Y3259D01*
X33371Y3271D01*
X33487Y3288D01*
X33492Y3290D01*
X33499Y3291D01*
X33601Y3346D01*
X33706Y3399D01*
X33710Y3404D01*
X33716Y3407D01*
X33796Y3491D01*
X33878Y3575D01*
X33882Y3581D01*
X33885Y3585D01*
X33893Y3602D01*
X33959Y3722D01*
X34370Y4713D01*
X36099Y6442D01*
X38358Y7378D01*
X40802Y7378D01*
X43061Y6442D01*
X44790Y4713D01*
X45201Y3722D01*
X45262Y3622D01*
X45322Y3522D01*
X45327Y3518D01*
X45330Y3513D01*
X45420Y3438D01*
X45509Y3362D01*
X45515Y3360D01*
X45520Y3356D01*
X45628Y3314D01*
X45737Y3270D01*
X45745Y3269D01*
X45750Y3268D01*
X45768Y3267D01*
X45904Y3252D01*
X45956Y3252D01*
X45990Y3257D01*
X45995Y3257D01*
X46003Y3259D01*
X46071Y3271D01*
X46187Y3288D01*
X46192Y3290D01*
X46199Y3291D01*
X46301Y3346D01*
X46406Y3399D01*
X46410Y3404D01*
X46416Y3407D01*
X46496Y3491D01*
X46578Y3575D01*
X46582Y3581D01*
X46585Y3585D01*
X46593Y3602D01*
X46659Y3722D01*
X47070Y4713D01*
X48799Y6442D01*
X51058Y7378D01*
X53502Y7378D01*
X55761Y6442D01*
X57490Y4713D01*
X57901Y3722D01*
X57962Y3622D01*
X58022Y3522D01*
X58027Y3518D01*
X58030Y3513D01*
X58120Y3438D01*
X58209Y3362D01*
X58215Y3360D01*
X58220Y3356D01*
X58328Y3314D01*
X58437Y3270D01*
X58445Y3269D01*
X58450Y3268D01*
X58468Y3267D01*
X58604Y3252D01*
X58656Y3252D01*
X58690Y3257D01*
X58695Y3257D01*
X58703Y3259D01*
X58771Y3271D01*
X58887Y3288D01*
X58892Y3290D01*
X58899Y3291D01*
X59001Y3346D01*
X59106Y3399D01*
X59110Y3404D01*
X59116Y3407D01*
X59196Y3491D01*
X59278Y3575D01*
X59282Y3581D01*
X59285Y3585D01*
X59293Y3602D01*
X59359Y3722D01*
X59770Y4713D01*
X61499Y6442D01*
X63758Y7378D01*
X66202Y7378D01*
X68461Y6442D01*
X70190Y4713D01*
X70601Y3722D01*
X70662Y3622D01*
X70722Y3522D01*
X70727Y3518D01*
X70730Y3513D01*
X70820Y3438D01*
X70909Y3362D01*
X70915Y3360D01*
X70920Y3356D01*
X71028Y3314D01*
X71137Y3270D01*
X71145Y3269D01*
X71150Y3268D01*
X71168Y3267D01*
X71304Y3252D01*
X71356Y3252D01*
X71390Y3257D01*
X71395Y3257D01*
X71403Y3259D01*
X71471Y3271D01*
X71587Y3288D01*
X71592Y3290D01*
X71599Y3291D01*
X71701Y3346D01*
X71806Y3399D01*
X71810Y3404D01*
X71816Y3407D01*
X71896Y3491D01*
X71978Y3575D01*
X71982Y3581D01*
X71985Y3585D01*
X71993Y3602D01*
X72059Y3722D01*
X72470Y4713D01*
X74199Y6442D01*
X76458Y7378D01*
X78902Y7378D01*
X81161Y6442D01*
X82890Y4713D01*
X83301Y3722D01*
X83362Y3622D01*
X83422Y3522D01*
X83427Y3518D01*
X83430Y3513D01*
X83520Y3438D01*
X83609Y3362D01*
X83615Y3360D01*
X83620Y3356D01*
X83728Y3314D01*
X83837Y3270D01*
X83845Y3269D01*
X83850Y3268D01*
X83868Y3267D01*
X84004Y3252D01*
X84056Y3252D01*
X84090Y3257D01*
X84095Y3257D01*
X84103Y3259D01*
X84171Y3271D01*
X84287Y3288D01*
X84292Y3290D01*
X84299Y3291D01*
X84401Y3346D01*
X84506Y3399D01*
X84510Y3404D01*
X84516Y3407D01*
X84596Y3491D01*
X84678Y3575D01*
X84682Y3581D01*
X84685Y3585D01*
X84693Y3602D01*
X84759Y3722D01*
X85170Y4713D01*
X86899Y6442D01*
X89158Y7378D01*
X91602Y7378D01*
X93861Y6442D01*
X95590Y4713D01*
X96001Y3722D01*
X96062Y3622D01*
X96122Y3522D01*
X96127Y3518D01*
X96130Y3513D01*
X96220Y3438D01*
X96309Y3362D01*
X96315Y3360D01*
X96320Y3356D01*
X96428Y3314D01*
X96537Y3270D01*
X96545Y3269D01*
X96550Y3268D01*
X96568Y3267D01*
X96704Y3252D01*
X96756Y3252D01*
X96790Y3257D01*
X96795Y3257D01*
X96803Y3259D01*
X96871Y3271D01*
X96987Y3288D01*
X96992Y3290D01*
X96999Y3291D01*
X97101Y3346D01*
X97206Y3399D01*
X97210Y3404D01*
X97216Y3407D01*
X97296Y3491D01*
X97378Y3575D01*
X97382Y3581D01*
X97385Y3585D01*
X97393Y3602D01*
X97459Y3722D01*
X97870Y4713D01*
X99599Y6442D01*
X101858Y7378D01*
X104302Y7378D01*
X106561Y6442D01*
X108290Y4713D01*
X108701Y3722D01*
X108762Y3622D01*
X108822Y3522D01*
X108827Y3518D01*
X108830Y3513D01*
X108920Y3438D01*
X109009Y3362D01*
X109015Y3360D01*
X109020Y3356D01*
X109128Y3314D01*
X109237Y3270D01*
X109245Y3269D01*
X109250Y3268D01*
X109268Y3267D01*
X109404Y3252D01*
X109456Y3252D01*
X109490Y3257D01*
X109495Y3257D01*
X109503Y3259D01*
X109571Y3271D01*
X109687Y3288D01*
X109692Y3290D01*
X109699Y3291D01*
X109801Y3346D01*
X109906Y3399D01*
X109910Y3404D01*
X109916Y3407D01*
X109996Y3491D01*
X110078Y3575D01*
X110082Y3581D01*
X110085Y3585D01*
X110093Y3602D01*
X110159Y3722D01*
X110570Y4713D01*
X112299Y6442D01*
X114558Y7378D01*
X117002Y7378D01*
X119261Y6442D01*
X120990Y4713D01*
X121401Y3722D01*
X121462Y3622D01*
X121522Y3522D01*
X121527Y3518D01*
X121530Y3513D01*
X121620Y3438D01*
X121709Y3362D01*
X121715Y3360D01*
X121720Y3356D01*
X121828Y3314D01*
X121937Y3270D01*
X121945Y3269D01*
X121950Y3268D01*
X121968Y3267D01*
X122104Y3252D01*
X122156Y3252D01*
X122190Y3257D01*
X122195Y3257D01*
X122203Y3259D01*
X122271Y3271D01*
X122387Y3288D01*
X122392Y3290D01*
X122399Y3291D01*
X122501Y3346D01*
X122606Y3399D01*
X122610Y3404D01*
X122616Y3407D01*
X122696Y3491D01*
X122778Y3575D01*
X122782Y3581D01*
X122785Y3585D01*
X122793Y3602D01*
X122859Y3722D01*
X123270Y4713D01*
X124999Y6442D01*
X127258Y7378D01*
X129702Y7378D01*
X131961Y6442D01*
X133690Y4713D01*
X134101Y3722D01*
X134162Y3622D01*
X134222Y3522D01*
X134227Y3518D01*
X134230Y3513D01*
X134320Y3438D01*
X134409Y3362D01*
X134415Y3360D01*
X134420Y3356D01*
X134528Y3314D01*
X134637Y3270D01*
X134645Y3269D01*
X134650Y3268D01*
X134668Y3267D01*
X134804Y3252D01*
X244973Y3252D01*
X244993Y3255D01*
X245012Y3253D01*
X245114Y3275D01*
X245216Y3291D01*
X245233Y3301D01*
X245253Y3305D01*
X245342Y3358D01*
X245433Y3407D01*
X245447Y3421D01*
X245464Y3431D01*
X245531Y3510D01*
X245603Y3585D01*
X245611Y3603D01*
X245624Y3618D01*
X245663Y3714D01*
X245706Y3808D01*
X245708Y3828D01*
X245716Y3846D01*
X245734Y4013D01*
X245734Y159055D01*
X245731Y159075D01*
X245733Y159094D01*
X245711Y159196D01*
X245694Y159298D01*
X245685Y159315D01*
X245681Y159335D01*
X245628Y159424D01*
X245579Y159515D01*
X245565Y159529D01*
X245555Y159546D01*
X245476Y159613D01*
X245401Y159685D01*
X245383Y159693D01*
X245368Y159706D01*
X245272Y159745D01*
X245178Y159788D01*
X245158Y159790D01*
X245140Y159798D01*
X244973Y159816D01*
X134789Y159816D01*
X134675Y159797D01*
X134559Y159780D01*
X134553Y159778D01*
X134547Y159777D01*
X134444Y159722D01*
X134339Y159669D01*
X134335Y159664D01*
X134329Y159661D01*
X134250Y159577D01*
X134167Y159493D01*
X134163Y159487D01*
X134160Y159483D01*
X134152Y159466D01*
X134086Y159346D01*
X133607Y158190D01*
X131878Y156461D01*
X129619Y155525D01*
X127175Y155525D01*
X124916Y156461D01*
X123187Y158190D01*
X122750Y159244D01*
X122713Y159305D01*
X122683Y159370D01*
X122648Y159409D01*
X122621Y159453D01*
X122565Y159499D01*
X122517Y159551D01*
X122471Y159576D01*
X122431Y159610D01*
X122364Y159635D01*
X122301Y159670D01*
X122250Y159679D01*
X122202Y159698D01*
X122130Y159701D01*
X122059Y159714D01*
X122008Y159706D01*
X121956Y159708D01*
X121887Y159688D01*
X121816Y159678D01*
X121770Y159654D01*
X121720Y159640D01*
X121661Y159599D01*
X121597Y159566D01*
X121560Y159529D01*
X121518Y159499D01*
X121475Y159442D01*
X121425Y159391D01*
X121390Y159328D01*
X121371Y159302D01*
X121364Y159280D01*
X121344Y159244D01*
X120907Y158190D01*
X119178Y156461D01*
X116919Y155525D01*
X114475Y155525D01*
X112216Y156461D01*
X110487Y158190D01*
X110050Y159244D01*
X110013Y159305D01*
X109983Y159370D01*
X109948Y159409D01*
X109921Y159453D01*
X109865Y159499D01*
X109817Y159551D01*
X109771Y159576D01*
X109731Y159610D01*
X109664Y159635D01*
X109601Y159670D01*
X109550Y159679D01*
X109502Y159698D01*
X109430Y159701D01*
X109359Y159714D01*
X109308Y159706D01*
X109256Y159708D01*
X109187Y159688D01*
X109116Y159678D01*
X109070Y159654D01*
X109020Y159640D01*
X108961Y159599D01*
X108897Y159566D01*
X108860Y159529D01*
X108818Y159499D01*
X108775Y159442D01*
X108725Y159391D01*
X108690Y159328D01*
X108671Y159302D01*
X108664Y159280D01*
X108644Y159244D01*
X108207Y158190D01*
X106478Y156461D01*
X104219Y155525D01*
X101775Y155525D01*
X99516Y156461D01*
X97787Y158190D01*
X97350Y159244D01*
X97313Y159305D01*
X97283Y159370D01*
X97248Y159409D01*
X97221Y159453D01*
X97165Y159499D01*
X97117Y159551D01*
X97071Y159576D01*
X97031Y159610D01*
X96964Y159635D01*
X96901Y159670D01*
X96850Y159679D01*
X96802Y159698D01*
X96730Y159701D01*
X96659Y159714D01*
X96608Y159706D01*
X96556Y159708D01*
X96487Y159688D01*
X96416Y159678D01*
X96370Y159654D01*
X96320Y159640D01*
X96261Y159599D01*
X96197Y159566D01*
X96160Y159529D01*
X96118Y159499D01*
X96075Y159442D01*
X96025Y159391D01*
X95990Y159328D01*
X95971Y159302D01*
X95964Y159280D01*
X95944Y159244D01*
X95507Y158190D01*
X93778Y156461D01*
X91519Y155525D01*
X89075Y155525D01*
X86816Y156461D01*
X85087Y158190D01*
X84650Y159244D01*
X84613Y159305D01*
X84583Y159370D01*
X84548Y159409D01*
X84521Y159453D01*
X84465Y159499D01*
X84417Y159551D01*
X84371Y159576D01*
X84331Y159610D01*
X84264Y159635D01*
X84201Y159670D01*
X84150Y159679D01*
X84102Y159698D01*
X84030Y159701D01*
X83959Y159714D01*
X83908Y159706D01*
X83856Y159708D01*
X83787Y159688D01*
X83716Y159678D01*
X83670Y159654D01*
X83620Y159640D01*
X83561Y159599D01*
X83497Y159566D01*
X83460Y159529D01*
X83418Y159499D01*
X83375Y159442D01*
X83325Y159391D01*
X83290Y159328D01*
X83271Y159302D01*
X83264Y159280D01*
X83244Y159244D01*
X82807Y158190D01*
X81078Y156461D01*
X78819Y155525D01*
X76375Y155525D01*
X74116Y156461D01*
X72387Y158190D01*
X71950Y159244D01*
X71913Y159305D01*
X71883Y159370D01*
X71848Y159409D01*
X71821Y159453D01*
X71766Y159499D01*
X71717Y159551D01*
X71671Y159576D01*
X71631Y159610D01*
X71564Y159635D01*
X71501Y159670D01*
X71450Y159679D01*
X71402Y159698D01*
X71330Y159701D01*
X71259Y159714D01*
X71208Y159706D01*
X71156Y159708D01*
X71087Y159688D01*
X71016Y159678D01*
X70970Y159654D01*
X70920Y159640D01*
X70861Y159599D01*
X70797Y159566D01*
X70760Y159529D01*
X70718Y159499D01*
X70675Y159442D01*
X70625Y159391D01*
X70590Y159328D01*
X70571Y159302D01*
X70564Y159280D01*
X70544Y159244D01*
X70107Y158190D01*
X68378Y156461D01*
X66119Y155525D01*
X63675Y155525D01*
X61416Y156461D01*
X59687Y158190D01*
X59250Y159244D01*
X59213Y159305D01*
X59183Y159370D01*
X59148Y159409D01*
X59121Y159453D01*
X59066Y159499D01*
X59017Y159551D01*
X58971Y159576D01*
X58931Y159610D01*
X58864Y159635D01*
X58801Y159670D01*
X58750Y159679D01*
X58702Y159698D01*
X58630Y159701D01*
X58559Y159714D01*
X58508Y159706D01*
X58456Y159708D01*
X58387Y159688D01*
X58316Y159678D01*
X58270Y159654D01*
X58220Y159640D01*
X58161Y159599D01*
X58097Y159566D01*
X58060Y159529D01*
X58018Y159499D01*
X57975Y159442D01*
X57925Y159391D01*
X57890Y159328D01*
X57871Y159302D01*
X57864Y159280D01*
X57844Y159244D01*
X57407Y158190D01*
X55678Y156461D01*
X53419Y155525D01*
X50975Y155525D01*
X48716Y156461D01*
X46987Y158190D01*
X46550Y159244D01*
X46513Y159305D01*
X46483Y159370D01*
X46448Y159409D01*
X46421Y159453D01*
X46366Y159499D01*
X46317Y159551D01*
X46271Y159576D01*
X46231Y159610D01*
X46164Y159635D01*
X46101Y159670D01*
X46050Y159679D01*
X46002Y159698D01*
X45930Y159701D01*
X45859Y159714D01*
X45808Y159706D01*
X45756Y159708D01*
X45687Y159688D01*
X45616Y159678D01*
X45570Y159654D01*
X45520Y159640D01*
X45461Y159599D01*
X45397Y159566D01*
X45360Y159529D01*
X45318Y159499D01*
X45275Y159442D01*
X45225Y159391D01*
X45190Y159328D01*
X45171Y159302D01*
X45164Y159280D01*
X45144Y159244D01*
X44707Y158190D01*
X42978Y156461D01*
X40719Y155525D01*
X38275Y155525D01*
X36016Y156461D01*
X34287Y158190D01*
X33850Y159244D01*
X33813Y159305D01*
X33783Y159370D01*
X33748Y159409D01*
X33721Y159453D01*
X33666Y159499D01*
X33617Y159551D01*
X33571Y159576D01*
X33531Y159610D01*
X33464Y159635D01*
X33401Y159670D01*
X33350Y159679D01*
X33302Y159698D01*
X33230Y159701D01*
X33159Y159714D01*
X33108Y159706D01*
X33056Y159708D01*
X32987Y159688D01*
X32916Y159678D01*
X32870Y159654D01*
X32820Y159640D01*
X32761Y159599D01*
X32697Y159566D01*
X32660Y159529D01*
X32618Y159499D01*
X32575Y159442D01*
X32525Y159391D01*
X32490Y159328D01*
X32471Y159302D01*
X32464Y159280D01*
X32444Y159244D01*
X32007Y158190D01*
X30278Y156461D01*
X28019Y155525D01*
X25575Y155525D01*
X23316Y156461D01*
X21587Y158190D01*
X21108Y159346D01*
X21046Y159446D01*
X20986Y159546D01*
X20982Y159550D01*
X20978Y159555D01*
X20889Y159630D01*
X20799Y159706D01*
X20794Y159708D01*
X20789Y159712D01*
X20681Y159754D01*
X20571Y159798D01*
X20564Y159799D01*
X20559Y159800D01*
X20541Y159801D01*
X20405Y159816D01*
X4394Y159816D01*
X4374Y159813D01*
X4355Y159815D01*
X4253Y159793D01*
X4151Y159777D01*
X4134Y159767D01*
X4114Y159763D01*
X4025Y159710D01*
X3934Y159661D01*
X3920Y159647D01*
X3903Y159637D01*
X3836Y159558D01*
X3764Y159483D01*
X3756Y159465D01*
X3743Y159450D01*
X3704Y159354D01*
X3661Y159260D01*
X3659Y159240D01*
X3651Y159222D01*
X3633Y159055D01*
X3633Y142871D01*
X3652Y142756D01*
X3669Y142640D01*
X3671Y142634D01*
X3672Y142628D01*
X3727Y142525D01*
X3780Y142420D01*
X3785Y142416D01*
X3788Y142411D01*
X3872Y142331D01*
X3956Y142248D01*
X3962Y142245D01*
X3966Y142241D01*
X3983Y142233D01*
X4103Y142167D01*
X4878Y141846D01*
X6607Y140117D01*
X7543Y137858D01*
X7543Y135414D01*
X6607Y133155D01*
X4878Y131426D01*
X4103Y131105D01*
X4003Y131043D01*
X3903Y130983D01*
X3899Y130978D01*
X3894Y130975D01*
X3819Y130885D01*
X3743Y130796D01*
X3741Y130790D01*
X3737Y130786D01*
X3695Y130677D01*
X3651Y130568D01*
X3650Y130560D01*
X3649Y130556D01*
X3648Y130538D01*
X3633Y130401D01*
X3633Y130171D01*
X3652Y130056D01*
X3669Y129940D01*
X3671Y129934D01*
X3672Y129928D01*
X3727Y129825D01*
X3780Y129720D01*
X3785Y129716D01*
X3788Y129711D01*
X3872Y129631D01*
X3956Y129548D01*
X3962Y129545D01*
X3966Y129541D01*
X3983Y129533D01*
X4103Y129467D01*
X4878Y129146D01*
X6607Y127417D01*
X7543Y125158D01*
X7543Y122714D01*
X6607Y120455D01*
X4878Y118726D01*
X4103Y118405D01*
X4003Y118343D01*
X3903Y118283D01*
X3899Y118278D01*
X3894Y118275D01*
X3819Y118185D01*
X3743Y118096D01*
X3741Y118090D01*
X3737Y118086D01*
X3695Y117977D01*
X3651Y117868D01*
X3650Y117860D01*
X3649Y117856D01*
X3648Y117838D01*
X3633Y117701D01*
X3633Y117471D01*
X3652Y117356D01*
X3669Y117240D01*
X3671Y117234D01*
X3672Y117228D01*
X3727Y117124D01*
X3780Y117020D01*
X3785Y117016D01*
X3788Y117011D01*
X3873Y116930D01*
X3956Y116848D01*
X3962Y116845D01*
X3966Y116841D01*
X3983Y116833D01*
X4103Y116767D01*
X4878Y116446D01*
X6607Y114717D01*
X7543Y112458D01*
X7543Y110014D01*
X6607Y107755D01*
X4878Y106026D01*
X4103Y105705D01*
X4003Y105643D01*
X3903Y105583D01*
X3899Y105578D01*
X3894Y105575D01*
X3819Y105485D01*
X3743Y105396D01*
X3741Y105390D01*
X3737Y105386D01*
X3695Y105277D01*
X3651Y105168D01*
X3650Y105161D01*
X3649Y105156D01*
X3648Y105138D01*
X3633Y105001D01*
X3633Y104771D01*
X3652Y104656D01*
X3669Y104540D01*
X3671Y104534D01*
X3672Y104528D01*
X3727Y104425D01*
X3780Y104320D01*
X3785Y104316D01*
X3788Y104311D01*
X3873Y104230D01*
X3956Y104148D01*
X3962Y104145D01*
X3966Y104141D01*
X3983Y104133D01*
X4103Y104067D01*
X4878Y103746D01*
X6607Y102017D01*
X7543Y99758D01*
X7543Y97314D01*
X6607Y95055D01*
X4878Y93326D01*
X4103Y93005D01*
X4003Y92943D01*
X3903Y92883D01*
X3899Y92878D01*
X3894Y92875D01*
X3819Y92785D01*
X3743Y92696D01*
X3741Y92690D01*
X3737Y92686D01*
X3695Y92577D01*
X3651Y92468D01*
X3650Y92461D01*
X3649Y92456D01*
X3648Y92438D01*
X3633Y92301D01*
X3633Y92071D01*
X3652Y91956D01*
X3669Y91840D01*
X3671Y91834D01*
X3672Y91828D01*
X3727Y91725D01*
X3780Y91620D01*
X3785Y91616D01*
X3788Y91611D01*
X3873Y91530D01*
X3956Y91448D01*
X3962Y91445D01*
X3966Y91441D01*
X3983Y91433D01*
X4103Y91367D01*
X4878Y91046D01*
X6607Y89317D01*
X7543Y87058D01*
X7543Y84614D01*
X6607Y82355D01*
X4878Y80626D01*
X4103Y80305D01*
X4003Y80243D01*
X3903Y80183D01*
X3899Y80178D01*
X3894Y80175D01*
X3819Y80085D01*
X3743Y79996D01*
X3741Y79990D01*
X3737Y79986D01*
X3695Y79877D01*
X3651Y79768D01*
X3650Y79761D01*
X3649Y79756D01*
X3648Y79738D01*
X3633Y79601D01*
X3633Y79371D01*
X3636Y79353D01*
X3634Y79337D01*
X3652Y79255D01*
X3669Y79140D01*
X3671Y79134D01*
X3672Y79128D01*
X3684Y79106D01*
X3686Y79097D01*
X3711Y79055D01*
X3727Y79025D01*
X3780Y78920D01*
X3785Y78916D01*
X3788Y78911D01*
X3810Y78889D01*
X3812Y78886D01*
X3827Y78873D01*
X3872Y78831D01*
X3956Y78748D01*
X3962Y78745D01*
X3966Y78741D01*
X3983Y78733D01*
X4103Y78667D01*
X4878Y78346D01*
X6607Y76617D01*
X7543Y74358D01*
X7543Y71914D01*
X6607Y69655D01*
X4878Y67926D01*
X4103Y67605D01*
X4003Y67543D01*
X3903Y67483D01*
X3899Y67478D01*
X3894Y67475D01*
X3819Y67385D01*
X3743Y67296D01*
X3741Y67290D01*
X3737Y67286D01*
X3695Y67177D01*
X3651Y67068D01*
X3650Y67060D01*
X3649Y67056D01*
X3648Y67038D01*
X3633Y66901D01*
X3633Y66671D01*
X3652Y66556D01*
X3669Y66440D01*
X3671Y66434D01*
X3672Y66428D01*
X3727Y66325D01*
X3780Y66220D01*
X3785Y66216D01*
X3788Y66211D01*
X3872Y66131D01*
X3956Y66048D01*
X3962Y66045D01*
X3966Y66041D01*
X3983Y66033D01*
X4103Y65967D01*
X4878Y65646D01*
X6607Y63917D01*
X7543Y61658D01*
X7543Y59214D01*
X6607Y56955D01*
X4878Y55226D01*
X4103Y54905D01*
X4003Y54843D01*
X3903Y54783D01*
X3899Y54778D01*
X3894Y54775D01*
X3819Y54685D01*
X3743Y54596D01*
X3741Y54590D01*
X3737Y54586D01*
X3695Y54477D01*
X3651Y54368D01*
X3650Y54360D01*
X3649Y54356D01*
X3648Y54338D01*
X3633Y54201D01*
X3633Y53971D01*
X3652Y53856D01*
X3669Y53740D01*
X3671Y53734D01*
X3672Y53728D01*
X3727Y53625D01*
X3780Y53520D01*
X3785Y53516D01*
X3788Y53511D01*
X3872Y53431D01*
X3956Y53348D01*
X3962Y53345D01*
X3966Y53341D01*
X3983Y53333D01*
X4103Y53267D01*
X4878Y52946D01*
X6607Y51217D01*
X7543Y48958D01*
X7543Y46514D01*
X6607Y44255D01*
X4996Y42644D01*
X4941Y42567D01*
X4881Y42495D01*
X4870Y42468D01*
X4853Y42444D01*
X4825Y42354D01*
X4791Y42266D01*
X4789Y42237D01*
X4780Y42209D01*
X4783Y42115D01*
X4778Y42021D01*
X4786Y41993D01*
X4787Y41963D01*
X4819Y41875D01*
X4845Y41784D01*
X4861Y41760D01*
X4871Y41732D01*
X4930Y41659D01*
X4983Y41581D01*
X5012Y41557D01*
X5025Y41540D01*
X5052Y41523D01*
X5112Y41473D01*
X6124Y40796D01*
X7157Y39763D01*
X7969Y38549D01*
X8528Y37199D01*
X8655Y36559D01*
X4394Y36559D01*
X4374Y36556D01*
X4355Y36558D01*
X4253Y36536D01*
X4151Y36519D01*
X4134Y36510D01*
X4114Y36506D01*
X4025Y36453D01*
X3934Y36404D01*
X3920Y36390D01*
X3903Y36380D01*
X3836Y36301D01*
X3764Y36226D01*
X3756Y36208D01*
X3743Y36193D01*
X3704Y36097D01*
X3661Y36003D01*
X3659Y35983D01*
X3651Y35965D01*
X3633Y35798D01*
X3633Y34274D01*
X3636Y34254D01*
X3634Y34235D01*
X3656Y34133D01*
X3672Y34031D01*
X3682Y34014D01*
X3686Y33994D01*
X3739Y33905D01*
X3788Y33814D01*
X3802Y33800D01*
X3812Y33783D01*
X3891Y33716D01*
X3966Y33645D01*
X3984Y33636D01*
X3999Y33623D01*
X4095Y33584D01*
X4189Y33541D01*
X4209Y33539D01*
X4227Y33531D01*
X4394Y33513D01*
X8655Y33513D01*
X8528Y32873D01*
X7969Y31523D01*
X7676Y31085D01*
X7157Y30309D01*
X6124Y29276D01*
X4910Y28464D01*
X4103Y28130D01*
X4003Y28068D01*
X3903Y28008D01*
X3899Y28004D01*
X3894Y28000D01*
X3819Y27910D01*
X3743Y27822D01*
X3741Y27816D01*
X3737Y27811D01*
X3695Y27702D01*
X3651Y27593D01*
X3650Y27586D01*
X3649Y27581D01*
X3648Y27563D01*
X3633Y27427D01*
X3633Y4013D01*
X3636Y3993D01*
X3634Y3974D01*
X3656Y3872D01*
X3672Y3770D01*
X3682Y3753D01*
X3686Y3733D01*
X3739Y3644D01*
X3788Y3553D01*
X3802Y3539D01*
X3812Y3522D01*
X3891Y3455D01*
X3966Y3383D01*
X3984Y3375D01*
X3999Y3362D01*
X4095Y3323D01*
X4189Y3280D01*
X4209Y3278D01*
X4227Y3270D01*
X4394Y3252D01*
X20556Y3252D01*
X20671Y3271D01*
G37*
%LPC*%
G36*
X111669Y127523D02*
X111669Y127523D01*
X109743Y129449D01*
X109743Y132171D01*
X111669Y134097D01*
X114062Y134097D01*
X114082Y134100D01*
X114101Y134098D01*
X114203Y134120D01*
X114305Y134136D01*
X114322Y134146D01*
X114342Y134150D01*
X114431Y134203D01*
X114522Y134252D01*
X114536Y134266D01*
X114553Y134276D01*
X114620Y134355D01*
X114692Y134430D01*
X114700Y134448D01*
X114713Y134463D01*
X114752Y134559D01*
X114795Y134653D01*
X114797Y134673D01*
X114805Y134691D01*
X114823Y134858D01*
X114823Y135981D01*
X116734Y137892D01*
X116745Y137908D01*
X116761Y137920D01*
X116817Y138008D01*
X116877Y138091D01*
X116883Y138110D01*
X116894Y138127D01*
X116919Y138228D01*
X116949Y138327D01*
X116949Y138346D01*
X116954Y138366D01*
X116946Y138469D01*
X116943Y138572D01*
X116936Y138591D01*
X116935Y138611D01*
X116894Y138706D01*
X116859Y138803D01*
X116846Y138819D01*
X116838Y138837D01*
X116734Y138968D01*
X116093Y139609D01*
X116093Y142331D01*
X118019Y144257D01*
X119767Y144257D01*
X119838Y144268D01*
X119910Y144270D01*
X119959Y144288D01*
X120010Y144296D01*
X120073Y144330D01*
X120141Y144355D01*
X120182Y144387D01*
X120227Y144412D01*
X120277Y144463D01*
X120333Y144508D01*
X120361Y144552D01*
X120397Y144590D01*
X120427Y144655D01*
X120466Y144715D01*
X120479Y144766D01*
X120500Y144813D01*
X120508Y144884D01*
X120526Y144954D01*
X120522Y145006D01*
X120528Y145057D01*
X120512Y145128D01*
X120507Y145199D01*
X120486Y145247D01*
X120475Y145298D01*
X120438Y145359D01*
X120410Y145425D01*
X120366Y145481D01*
X120349Y145509D01*
X120331Y145524D01*
X120306Y145556D01*
X119903Y145959D01*
X119903Y148681D01*
X121829Y150607D01*
X124551Y150607D01*
X126477Y148681D01*
X126477Y145959D01*
X124551Y144033D01*
X122803Y144033D01*
X122732Y144022D01*
X122660Y144020D01*
X122611Y144002D01*
X122560Y143994D01*
X122497Y143960D01*
X122429Y143935D01*
X122388Y143903D01*
X122343Y143878D01*
X122293Y143827D01*
X122237Y143782D01*
X122209Y143738D01*
X122173Y143700D01*
X122143Y143635D01*
X122104Y143575D01*
X122091Y143524D01*
X122070Y143477D01*
X122062Y143406D01*
X122044Y143336D01*
X122048Y143284D01*
X122042Y143233D01*
X122058Y143162D01*
X122063Y143091D01*
X122084Y143043D01*
X122095Y142992D01*
X122132Y142931D01*
X122160Y142865D01*
X122204Y142809D01*
X122221Y142781D01*
X122239Y142766D01*
X122264Y142734D01*
X122667Y142331D01*
X122667Y139609D01*
X120756Y137698D01*
X120745Y137682D01*
X120729Y137670D01*
X120673Y137582D01*
X120613Y137499D01*
X120607Y137480D01*
X120596Y137463D01*
X120571Y137362D01*
X120541Y137263D01*
X120541Y137244D01*
X120536Y137224D01*
X120544Y137121D01*
X120547Y137018D01*
X120554Y136999D01*
X120555Y136979D01*
X120596Y136884D01*
X120631Y136787D01*
X120644Y136771D01*
X120652Y136753D01*
X120756Y136622D01*
X121397Y135981D01*
X121397Y133259D01*
X119471Y131333D01*
X117078Y131333D01*
X117058Y131330D01*
X117039Y131332D01*
X116937Y131310D01*
X116835Y131294D01*
X116818Y131284D01*
X116798Y131280D01*
X116709Y131227D01*
X116618Y131178D01*
X116604Y131164D01*
X116587Y131154D01*
X116520Y131075D01*
X116448Y131000D01*
X116440Y130982D01*
X116427Y130967D01*
X116388Y130871D01*
X116345Y130777D01*
X116343Y130757D01*
X116335Y130739D01*
X116317Y130572D01*
X116317Y129449D01*
X114391Y127523D01*
X111669Y127523D01*
G37*
%LPD*%
%LPC*%
G36*
X112939Y62753D02*
X112939Y62753D01*
X111013Y64679D01*
X111013Y67401D01*
X112924Y69312D01*
X112935Y69328D01*
X112951Y69340D01*
X113007Y69428D01*
X113067Y69511D01*
X113073Y69530D01*
X113084Y69547D01*
X113109Y69648D01*
X113139Y69747D01*
X113139Y69766D01*
X113144Y69786D01*
X113136Y69889D01*
X113133Y69992D01*
X113126Y70011D01*
X113125Y70031D01*
X113084Y70126D01*
X113049Y70223D01*
X113036Y70239D01*
X113028Y70257D01*
X112924Y70388D01*
X111013Y72299D01*
X111013Y75021D01*
X111806Y75814D01*
X111851Y75877D01*
X111876Y75904D01*
X111881Y75914D01*
X111919Y75958D01*
X111931Y75988D01*
X111950Y76014D01*
X111977Y76101D01*
X112011Y76186D01*
X112015Y76227D01*
X112022Y76249D01*
X112021Y76281D01*
X112029Y76353D01*
X112029Y82397D01*
X112015Y82487D01*
X112007Y82578D01*
X111995Y82608D01*
X111990Y82640D01*
X111947Y82721D01*
X111911Y82805D01*
X111885Y82837D01*
X111874Y82857D01*
X111851Y82880D01*
X111828Y82909D01*
X111825Y82913D01*
X111823Y82915D01*
X111806Y82936D01*
X111013Y83729D01*
X111013Y86451D01*
X112939Y88377D01*
X115661Y88377D01*
X117587Y86451D01*
X117587Y83729D01*
X116794Y82936D01*
X116748Y82872D01*
X116727Y82850D01*
X116723Y82841D01*
X116681Y82792D01*
X116669Y82762D01*
X116650Y82736D01*
X116623Y82649D01*
X116589Y82564D01*
X116585Y82523D01*
X116578Y82501D01*
X116579Y82469D01*
X116571Y82397D01*
X116571Y76353D01*
X116585Y76263D01*
X116593Y76172D01*
X116605Y76142D01*
X116610Y76110D01*
X116653Y76029D01*
X116689Y75945D01*
X116715Y75913D01*
X116726Y75893D01*
X116749Y75870D01*
X116767Y75848D01*
X116771Y75841D01*
X116776Y75837D01*
X116794Y75814D01*
X117587Y75021D01*
X117587Y72299D01*
X115676Y70388D01*
X115665Y70372D01*
X115649Y70360D01*
X115593Y70272D01*
X115533Y70189D01*
X115527Y70170D01*
X115516Y70153D01*
X115491Y70052D01*
X115461Y69953D01*
X115461Y69934D01*
X115456Y69914D01*
X115464Y69811D01*
X115467Y69708D01*
X115474Y69689D01*
X115475Y69669D01*
X115516Y69574D01*
X115551Y69477D01*
X115564Y69461D01*
X115572Y69443D01*
X115676Y69312D01*
X117587Y67401D01*
X117587Y64679D01*
X115661Y62753D01*
X112939Y62753D01*
G37*
%LPD*%
%LPC*%
G36*
X27849Y51323D02*
X27849Y51323D01*
X25923Y53249D01*
X25923Y55971D01*
X26326Y56374D01*
X26368Y56432D01*
X26417Y56484D01*
X26439Y56531D01*
X26469Y56573D01*
X26490Y56642D01*
X26520Y56707D01*
X26526Y56759D01*
X26542Y56809D01*
X26540Y56880D01*
X26548Y56951D01*
X26536Y57002D01*
X26535Y57054D01*
X26511Y57122D01*
X26495Y57192D01*
X26469Y57237D01*
X26451Y57285D01*
X26406Y57341D01*
X26369Y57403D01*
X26330Y57437D01*
X26297Y57477D01*
X26237Y57516D01*
X26182Y57563D01*
X26134Y57582D01*
X26090Y57610D01*
X26021Y57628D01*
X25954Y57655D01*
X25883Y57663D01*
X25852Y57671D01*
X25828Y57669D01*
X25787Y57673D01*
X24039Y57673D01*
X22113Y59599D01*
X22113Y60722D01*
X22110Y60742D01*
X22112Y60761D01*
X22090Y60863D01*
X22074Y60965D01*
X22064Y60982D01*
X22060Y61002D01*
X22007Y61091D01*
X21958Y61182D01*
X21944Y61196D01*
X21934Y61213D01*
X21855Y61280D01*
X21780Y61352D01*
X21762Y61360D01*
X21747Y61373D01*
X21651Y61412D01*
X21557Y61455D01*
X21537Y61457D01*
X21519Y61465D01*
X21352Y61483D01*
X18959Y61483D01*
X17033Y63409D01*
X17033Y66131D01*
X18959Y68057D01*
X21681Y68057D01*
X23607Y66131D01*
X23607Y65008D01*
X23610Y64988D01*
X23608Y64969D01*
X23630Y64867D01*
X23646Y64765D01*
X23656Y64748D01*
X23660Y64728D01*
X23713Y64639D01*
X23762Y64548D01*
X23776Y64534D01*
X23786Y64517D01*
X23865Y64450D01*
X23940Y64378D01*
X23958Y64370D01*
X23973Y64357D01*
X24069Y64318D01*
X24163Y64275D01*
X24183Y64273D01*
X24201Y64265D01*
X24368Y64247D01*
X26761Y64247D01*
X28687Y62321D01*
X28687Y59599D01*
X28284Y59196D01*
X28242Y59138D01*
X28193Y59086D01*
X28171Y59039D01*
X28141Y58997D01*
X28120Y58928D01*
X28090Y58863D01*
X28084Y58811D01*
X28068Y58761D01*
X28070Y58690D01*
X28062Y58619D01*
X28074Y58568D01*
X28075Y58516D01*
X28099Y58448D01*
X28115Y58378D01*
X28141Y58333D01*
X28159Y58285D01*
X28204Y58229D01*
X28241Y58167D01*
X28280Y58133D01*
X28313Y58093D01*
X28373Y58054D01*
X28428Y58007D01*
X28476Y57988D01*
X28520Y57960D01*
X28589Y57942D01*
X28656Y57915D01*
X28727Y57907D01*
X28758Y57899D01*
X28782Y57901D01*
X28823Y57897D01*
X30571Y57897D01*
X32497Y55971D01*
X32497Y53249D01*
X30571Y51323D01*
X27849Y51323D01*
G37*
%LPD*%
%LPC*%
G36*
X50709Y44973D02*
X50709Y44973D01*
X48783Y46899D01*
X48783Y49621D01*
X50709Y51547D01*
X53102Y51547D01*
X53122Y51550D01*
X53141Y51548D01*
X53243Y51570D01*
X53345Y51586D01*
X53362Y51596D01*
X53382Y51600D01*
X53471Y51653D01*
X53562Y51702D01*
X53576Y51716D01*
X53593Y51726D01*
X53660Y51805D01*
X53732Y51880D01*
X53740Y51898D01*
X53753Y51913D01*
X53792Y52009D01*
X53835Y52103D01*
X53837Y52123D01*
X53845Y52141D01*
X53863Y52308D01*
X53863Y53431D01*
X55789Y55357D01*
X58511Y55357D01*
X60437Y53431D01*
X60437Y50709D01*
X58511Y48783D01*
X56118Y48783D01*
X56098Y48780D01*
X56079Y48782D01*
X55977Y48760D01*
X55875Y48744D01*
X55858Y48734D01*
X55838Y48730D01*
X55749Y48677D01*
X55658Y48628D01*
X55644Y48614D01*
X55627Y48604D01*
X55560Y48525D01*
X55488Y48450D01*
X55480Y48432D01*
X55467Y48417D01*
X55428Y48321D01*
X55385Y48227D01*
X55383Y48207D01*
X55375Y48189D01*
X55357Y48022D01*
X55357Y46899D01*
X53431Y44973D01*
X50709Y44973D01*
G37*
%LPD*%
%LPC*%
G36*
X27641Y124483D02*
X27641Y124483D01*
X25423Y126701D01*
X25423Y129839D01*
X27641Y132057D01*
X30779Y132057D01*
X32997Y129839D01*
X32997Y126701D01*
X30779Y124483D01*
X27641Y124483D01*
G37*
%LPD*%
%LPC*%
G36*
X115271Y47013D02*
X115271Y47013D01*
X113053Y49231D01*
X113053Y52369D01*
X115271Y54587D01*
X118409Y54587D01*
X120627Y52369D01*
X120627Y49231D01*
X118409Y47013D01*
X115271Y47013D01*
G37*
%LPD*%
%LPC*%
G36*
X40341Y39393D02*
X40341Y39393D01*
X38123Y41611D01*
X38123Y44749D01*
X40341Y46967D01*
X43479Y46967D01*
X45697Y44749D01*
X45697Y41611D01*
X43479Y39393D01*
X40341Y39393D01*
G37*
%LPD*%
%LPC*%
G36*
X59391Y15263D02*
X59391Y15263D01*
X57173Y17481D01*
X57173Y20619D01*
X59391Y22837D01*
X62529Y22837D01*
X64747Y20619D01*
X64747Y17481D01*
X62529Y15263D01*
X59391Y15263D01*
G37*
%LPD*%
%LPC*%
G36*
X71029Y130063D02*
X71029Y130063D01*
X69103Y131989D01*
X69103Y134711D01*
X71029Y136637D01*
X73751Y136637D01*
X75677Y134711D01*
X75677Y131989D01*
X73751Y130063D01*
X71029Y130063D01*
G37*
%LPD*%
%LPC*%
G36*
X128179Y118633D02*
X128179Y118633D01*
X126253Y120559D01*
X126253Y123281D01*
X128179Y125207D01*
X130901Y125207D01*
X132827Y123281D01*
X132827Y120559D01*
X130901Y118633D01*
X128179Y118633D01*
G37*
%LPD*%
%LPC*%
G36*
X44359Y60213D02*
X44359Y60213D01*
X42433Y62139D01*
X42433Y64861D01*
X44359Y66787D01*
X47081Y66787D01*
X49007Y64861D01*
X49007Y62139D01*
X47081Y60213D01*
X44359Y60213D01*
G37*
%LPD*%
%LPC*%
G36*
X13879Y52593D02*
X13879Y52593D01*
X11953Y54519D01*
X11953Y57241D01*
X13879Y59167D01*
X16601Y59167D01*
X18527Y57241D01*
X18527Y54519D01*
X16601Y52593D01*
X13879Y52593D01*
G37*
%LPD*%
%LPC*%
G36*
X110399Y22113D02*
X110399Y22113D01*
X108473Y24039D01*
X108473Y26761D01*
X110399Y28687D01*
X113121Y28687D01*
X115047Y26761D01*
X115047Y24039D01*
X113121Y22113D01*
X110399Y22113D01*
G37*
%LPD*%
%LPC*%
G36*
X95159Y11953D02*
X95159Y11953D01*
X93233Y13879D01*
X93233Y16601D01*
X95159Y18527D01*
X97881Y18527D01*
X99807Y16601D01*
X99807Y13879D01*
X97881Y11953D01*
X95159Y11953D01*
G37*
%LPD*%
D10*
X1397Y85836D03*
X1397Y98536D03*
X1397Y111236D03*
X1397Y123936D03*
X1397Y136636D03*
X1397Y73136D03*
X1397Y60436D03*
X1397Y47736D03*
X1397Y35036D03*
X77597Y161671D03*
X90297Y161671D03*
X102997Y161671D03*
X115697Y161671D03*
X128397Y161671D03*
X64897Y161671D03*
X52197Y161671D03*
X39497Y161671D03*
X26797Y161671D03*
X77680Y1232D03*
X90380Y1232D03*
X103080Y1232D03*
X115780Y1232D03*
X128480Y1232D03*
X64980Y1232D03*
X52280Y1232D03*
X39580Y1232D03*
X26880Y1232D03*
D11*
X165100Y128270D03*
X170180Y128270D03*
X175260Y128270D03*
X180340Y128270D03*
X185420Y128270D03*
X190500Y128270D03*
X195580Y128270D03*
X200660Y128270D03*
X205740Y128270D03*
X210820Y128270D03*
X215900Y128270D03*
X220980Y128270D03*
X226060Y128270D03*
X231140Y128270D03*
X236220Y128270D03*
X241300Y129540D03*
X165100Y116840D03*
X170180Y116840D03*
X175260Y116840D03*
X180340Y116840D03*
X185420Y116840D03*
X190500Y116840D03*
X195580Y116840D03*
X200660Y116840D03*
X205740Y116840D03*
X210820Y116840D03*
X215900Y116840D03*
X220980Y116840D03*
X226060Y116840D03*
X231140Y116840D03*
X236220Y116840D03*
X241300Y115570D03*
X241300Y144540D03*
X241300Y157040D03*
X231300Y157040D03*
X221300Y157040D03*
X211300Y157040D03*
X201300Y157040D03*
X191300Y157040D03*
X181300Y157040D03*
X171300Y157040D03*
X231300Y144540D03*
X221300Y144540D03*
X211300Y144540D03*
X201300Y144540D03*
X191300Y144540D03*
X181300Y144540D03*
X171300Y144540D03*
X241300Y103070D03*
X241300Y90570D03*
X241300Y78070D03*
X241300Y65570D03*
X241300Y54380D03*
X241300Y41920D03*
X241300Y29460D03*
X241300Y15730D03*
X231300Y103070D03*
X221300Y103070D03*
X211300Y103070D03*
X201300Y103070D03*
X191300Y103070D03*
X181300Y103070D03*
X171300Y103070D03*
X231300Y90570D03*
X221300Y90570D03*
X211300Y90570D03*
X201300Y90570D03*
X191300Y90570D03*
X181300Y90570D03*
X171300Y90570D03*
X231300Y78070D03*
X221300Y78070D03*
X211300Y78070D03*
X201300Y78070D03*
X191300Y78070D03*
X181300Y78070D03*
X171300Y78070D03*
X231300Y65570D03*
X221300Y65570D03*
X211300Y65570D03*
X201300Y65570D03*
X191300Y65570D03*
X181300Y65570D03*
X171300Y65570D03*
X231300Y54380D03*
X221300Y54380D03*
X211300Y54380D03*
X201300Y54380D03*
X191300Y54380D03*
X181300Y54380D03*
X171300Y54380D03*
X231300Y41920D03*
X221300Y41920D03*
X211300Y41920D03*
X201300Y41920D03*
X191300Y41920D03*
X181300Y41920D03*
X171300Y41920D03*
X231300Y29460D03*
X221300Y29460D03*
X211300Y29460D03*
X201300Y29460D03*
X191300Y29460D03*
X181300Y29460D03*
X171300Y29460D03*
X231300Y15730D03*
X221300Y15730D03*
X211300Y15730D03*
X201300Y15730D03*
X191300Y15730D03*
X181300Y15730D03*
X171300Y15730D03*
X160070Y5570D03*
X146300Y5570D03*
X161300Y157040D03*
X151300Y157040D03*
X141300Y157040D03*
X161300Y144540D03*
X151300Y144540D03*
X141300Y144540D03*
X171300Y5570D03*
X181300Y5570D03*
X191300Y5570D03*
X201300Y5570D03*
X211300Y5570D03*
X221300Y5570D03*
X231300Y5570D03*
X241300Y5570D03*
X74780Y91640D03*
X74780Y101800D03*
X74780Y110690D03*
X74780Y82750D03*
X74780Y72590D03*
X65890Y82750D03*
X57000Y82750D03*
X65890Y72590D03*
X57000Y72590D03*
X65890Y91640D03*
X57000Y91640D03*
X57000Y101800D03*
X65890Y101800D03*
X57000Y110690D03*
X65890Y110690D03*
X83670Y110690D03*
X92560Y110690D03*
X83670Y101800D03*
X92560Y101800D03*
X83670Y91640D03*
X83670Y82750D03*
X83670Y72590D03*
X92560Y91640D03*
X92560Y72590D03*
X92560Y82750D03*
X159870Y90570D03*
X148440Y90570D03*
X138280Y90570D03*
X159870Y78070D03*
X159870Y65570D03*
X159870Y54380D03*
X159870Y41920D03*
X159870Y29460D03*
X159870Y15730D03*
X147170Y29460D03*
X147170Y41920D03*
X147170Y54380D03*
X146300Y15730D03*
X159870Y103070D03*
D12*
X69850Y45720D03*
X88900Y16510D03*
D11*
X141300Y131840D03*
X141300Y120410D03*
D12*
X21590Y73660D03*
X22860Y113030D03*
D11*
X6680Y157040D03*
X6680Y144540D03*
X6600Y5570D03*
X18030Y5570D03*
X6600Y19540D03*
X44300Y28190D03*
X99390Y133110D03*
X24460Y144540D03*
X129390Y104340D03*
X109070Y57160D03*
X120500Y89300D03*
D12*
X41910Y43180D03*
X116840Y50800D03*
X29210Y128270D03*
X60960Y19050D03*
D11*
X96520Y15240D03*
X114300Y66040D03*
X114300Y73660D03*
X114300Y85090D03*
D13*
X114300Y73660D01*
D11*
X129540Y121920D03*
X123190Y147320D03*
X119380Y140970D03*
X118110Y134620D03*
X113030Y130810D03*
X72390Y133350D03*
X15240Y55880D03*
X20320Y64770D03*
X25400Y60960D03*
X29210Y54610D03*
X45720Y63500D03*
X52070Y48260D03*
X57150Y52070D03*
X111760Y25400D03*
M02*
