G04 EAGLE Gerber RS-274X export*
G75*
%MOMM*%
%FSLAX34Y34*%
%LPD*%
%INCopper Layer 15*%
%IPPOS*%
%AMOC8*
5,1,8,0,0,1.08239X$1,22.5*%
G01*
%ADD10C,0.975000*%
%ADD11C,0.403200*%
%ADD12C,0.503200*%
%ADD13C,0.812800*%
%ADD14C,0.609600*%
%ADD15C,0.152400*%
%ADD16C,0.200000*%


D10*
X77994Y127D03*
X65294Y127D03*
X52594Y127D03*
X39894Y127D03*
X27194Y127D03*
X90694Y127D03*
X103394Y127D03*
X116094Y127D03*
X128794Y127D03*
X2159Y76327D03*
X2159Y89027D03*
X2159Y101727D03*
X2159Y114427D03*
X2159Y127127D03*
X2159Y63627D03*
X2159Y50927D03*
X2159Y38227D03*
X2159Y25527D03*
X162598Y76410D03*
X162598Y89110D03*
X162598Y101810D03*
X162598Y114510D03*
X162598Y127210D03*
X162598Y63710D03*
X162598Y51010D03*
X162598Y38310D03*
X162598Y25610D03*
D11*
X35560Y163830D03*
X35560Y168910D03*
X35560Y173990D03*
X35560Y179070D03*
X35560Y184150D03*
X35560Y189230D03*
X35560Y194310D03*
X35560Y199390D03*
X35560Y204470D03*
X35560Y209550D03*
X35560Y214630D03*
X35560Y219710D03*
X35560Y224790D03*
X35560Y229870D03*
X35560Y234950D03*
X34290Y240030D03*
X46990Y163830D03*
X46990Y168910D03*
X46990Y173990D03*
X46990Y179070D03*
X46990Y184150D03*
X46990Y189230D03*
X46990Y194310D03*
X46990Y199390D03*
X46990Y204470D03*
X46990Y209550D03*
X46990Y214630D03*
X46990Y219710D03*
X46990Y224790D03*
X46990Y229870D03*
X46990Y234950D03*
X48260Y240030D03*
X19290Y240030D03*
X6790Y240030D03*
X6790Y230030D03*
X6790Y220030D03*
X6790Y210030D03*
X6790Y200030D03*
X6790Y190030D03*
X6790Y180030D03*
X6790Y170030D03*
X19290Y230030D03*
X19290Y220030D03*
X19290Y210030D03*
X19290Y200030D03*
X19290Y190030D03*
X19290Y180030D03*
X19290Y170030D03*
X60760Y240030D03*
X73260Y240030D03*
X85760Y240030D03*
X98260Y240030D03*
X109450Y240030D03*
X121910Y240030D03*
X134370Y240030D03*
X148100Y240030D03*
X60760Y230030D03*
X60760Y220030D03*
X60760Y210030D03*
X60760Y200030D03*
X60760Y190030D03*
X60760Y180030D03*
X60760Y170030D03*
X73260Y230030D03*
X73260Y220030D03*
X73260Y210030D03*
X73260Y200030D03*
X73260Y190030D03*
X73260Y180030D03*
X73260Y170030D03*
X85760Y230030D03*
X85760Y220030D03*
X85760Y210030D03*
X85760Y200030D03*
X85760Y190030D03*
X85760Y180030D03*
X85760Y170030D03*
X98260Y230030D03*
X98260Y220030D03*
X98260Y210030D03*
X98260Y200030D03*
X98260Y190030D03*
X98260Y180030D03*
X98260Y170030D03*
X109450Y230030D03*
X109450Y220030D03*
X109450Y210030D03*
X109450Y200030D03*
X109450Y190030D03*
X109450Y180030D03*
X109450Y170030D03*
X121910Y230030D03*
X121910Y220030D03*
X121910Y210030D03*
X121910Y200030D03*
X121910Y190030D03*
X121910Y180030D03*
X121910Y170030D03*
X134370Y230030D03*
X134370Y220030D03*
X134370Y210030D03*
X134370Y200030D03*
X134370Y190030D03*
X134370Y180030D03*
X134370Y170030D03*
X148100Y230030D03*
X148100Y220030D03*
X148100Y210030D03*
X148100Y200030D03*
X148100Y190030D03*
X148100Y180030D03*
X148100Y170030D03*
X158260Y158800D03*
X158260Y145030D03*
X6790Y160030D03*
X6790Y150030D03*
X6790Y140030D03*
X19290Y160030D03*
X19290Y150030D03*
X19290Y140030D03*
X158260Y170030D03*
X158260Y180030D03*
X158260Y190030D03*
X158260Y200030D03*
X158260Y210030D03*
X158260Y220030D03*
X158260Y230030D03*
X158260Y240030D03*
X72190Y73510D03*
X62030Y73510D03*
X53140Y73510D03*
X81080Y73510D03*
X91240Y73510D03*
X81080Y64620D03*
X81080Y55730D03*
X91240Y64620D03*
X91240Y55730D03*
X72190Y64620D03*
X72190Y55730D03*
X62030Y55730D03*
X62030Y64620D03*
X53140Y55730D03*
X53140Y64620D03*
X53140Y82400D03*
X53140Y91290D03*
X62030Y82400D03*
X62030Y91290D03*
X72190Y82400D03*
X81080Y82400D03*
X91240Y82400D03*
X72190Y91290D03*
X91240Y91290D03*
X81080Y91290D03*
X73260Y158600D03*
X73260Y147170D03*
X73260Y137010D03*
X85760Y158600D03*
X98260Y158600D03*
X109450Y158600D03*
X121910Y158600D03*
X134370Y158600D03*
X148100Y158600D03*
X134370Y145900D03*
X121910Y145900D03*
X109450Y145900D03*
X148100Y145030D03*
X60760Y158600D03*
D12*
X118110Y68580D03*
X147320Y87630D03*
D11*
X31990Y140030D03*
X43420Y140030D03*
D12*
X89487Y25805D03*
D11*
X6790Y5410D03*
X19290Y5410D03*
X158260Y5330D03*
X158260Y16760D03*
X144290Y5330D03*
X135640Y43030D03*
X30720Y98120D03*
X59490Y128120D03*
X106670Y107800D03*
X74530Y119230D03*
X49570Y157891D03*
D12*
X34938Y24922D03*
D11*
X121910Y135740D03*
X134370Y135740D03*
X148100Y136140D03*
X158260Y136140D03*
D12*
X120650Y40640D03*
X113030Y115570D03*
X144780Y59690D03*
D13*
X120650Y40640D02*
X116840Y36830D01*
X136930Y56920D02*
X136930Y91670D01*
X113030Y115570D01*
X136930Y56920D02*
X120650Y40640D01*
X136930Y56920D02*
X139700Y59690D01*
X144780Y59690D01*
D11*
X148590Y95250D03*
D14*
X140510Y95250D01*
X136930Y91670D01*
D12*
X36830Y39370D03*
D13*
X39370Y36830D01*
X116840Y36830D01*
D11*
X97790Y113030D03*
X90170Y113030D03*
X78740Y113030D03*
X41910Y128270D03*
X16510Y121920D03*
X22860Y118110D03*
X29210Y116840D03*
X33020Y111760D03*
X30480Y71120D03*
X109220Y13970D03*
X101680Y19050D03*
X106090Y23630D03*
X110490Y27940D03*
X100330Y44450D03*
X115570Y50800D03*
X111760Y55880D03*
X138430Y110490D03*
D15*
X154940Y71368D02*
X162598Y63710D01*
X148590Y110490D02*
X138430Y110490D01*
X154940Y104140D02*
X154940Y71368D01*
X154940Y104140D02*
X148590Y110490D01*
D11*
X52820Y16052D03*
D16*
X52820Y16942D01*
X12700Y36403D02*
X12700Y95250D01*
X6223Y101727D01*
X32161Y16942D02*
X52820Y16942D01*
X32161Y16942D02*
X12700Y36403D01*
X6223Y101727D02*
X2159Y101727D01*
M02*
