G04 EAGLE Gerber RS-274X export*
G75*
%MOMM*%
%FSLAX34Y34*%
%LPD*%
%INSilkscreen Bottom*%
%IPPOS*%
%AMOC8*
5,1,8,0,0,1.08239X$1,22.5*%
G01*
%ADD10C,0.076200*%
%ADD11C,0.152400*%


D10*
X155533Y238793D02*
X155533Y233064D01*
X155535Y232986D01*
X155540Y232908D01*
X155550Y232831D01*
X155563Y232754D01*
X155579Y232678D01*
X155599Y232603D01*
X155623Y232529D01*
X155650Y232456D01*
X155681Y232384D01*
X155715Y232314D01*
X155752Y232246D01*
X155793Y232179D01*
X155837Y232114D01*
X155883Y232052D01*
X155933Y231992D01*
X155985Y231934D01*
X156040Y231879D01*
X156098Y231827D01*
X156158Y231777D01*
X156220Y231731D01*
X156285Y231687D01*
X156352Y231646D01*
X156420Y231609D01*
X156490Y231575D01*
X156562Y231544D01*
X156635Y231517D01*
X156709Y231493D01*
X156784Y231473D01*
X156860Y231457D01*
X156937Y231444D01*
X157014Y231434D01*
X157092Y231429D01*
X157170Y231427D01*
X157988Y231427D01*
X151839Y231427D02*
X151839Y238793D01*
X151839Y231427D02*
X148565Y231427D01*
X144145Y231427D02*
X142508Y231427D01*
X144145Y231427D02*
X144223Y231429D01*
X144301Y231434D01*
X144378Y231444D01*
X144455Y231457D01*
X144531Y231473D01*
X144606Y231493D01*
X144680Y231517D01*
X144753Y231544D01*
X144825Y231575D01*
X144895Y231609D01*
X144964Y231646D01*
X145030Y231687D01*
X145095Y231731D01*
X145157Y231777D01*
X145217Y231827D01*
X145275Y231879D01*
X145330Y231934D01*
X145382Y231992D01*
X145432Y232052D01*
X145478Y232114D01*
X145522Y232179D01*
X145563Y232246D01*
X145600Y232314D01*
X145634Y232384D01*
X145665Y232456D01*
X145692Y232529D01*
X145716Y232603D01*
X145736Y232678D01*
X145752Y232754D01*
X145765Y232831D01*
X145775Y232908D01*
X145780Y232986D01*
X145782Y233064D01*
X145781Y233064D02*
X145781Y237156D01*
X145782Y237156D02*
X145780Y237234D01*
X145775Y237312D01*
X145765Y237389D01*
X145752Y237466D01*
X145736Y237542D01*
X145716Y237617D01*
X145692Y237691D01*
X145665Y237764D01*
X145634Y237836D01*
X145600Y237906D01*
X145563Y237975D01*
X145522Y238041D01*
X145478Y238106D01*
X145432Y238168D01*
X145382Y238228D01*
X145330Y238286D01*
X145275Y238341D01*
X145217Y238393D01*
X145157Y238443D01*
X145095Y238489D01*
X145030Y238533D01*
X144964Y238574D01*
X144895Y238611D01*
X144825Y238645D01*
X144753Y238676D01*
X144680Y238703D01*
X144606Y238727D01*
X144531Y238747D01*
X144455Y238763D01*
X144378Y238776D01*
X144301Y238786D01*
X144223Y238791D01*
X144145Y238793D01*
X142508Y238793D01*
X137976Y238793D02*
X137976Y233064D01*
X137978Y232986D01*
X137983Y232908D01*
X137993Y232831D01*
X138006Y232754D01*
X138022Y232678D01*
X138042Y232603D01*
X138066Y232529D01*
X138093Y232456D01*
X138124Y232384D01*
X138158Y232314D01*
X138195Y232246D01*
X138236Y232179D01*
X138280Y232114D01*
X138326Y232052D01*
X138376Y231992D01*
X138428Y231934D01*
X138483Y231879D01*
X138541Y231827D01*
X138601Y231777D01*
X138663Y231731D01*
X138728Y231687D01*
X138795Y231646D01*
X138863Y231609D01*
X138933Y231575D01*
X139005Y231544D01*
X139078Y231517D01*
X139152Y231493D01*
X139227Y231473D01*
X139303Y231457D01*
X139380Y231444D01*
X139457Y231434D01*
X139535Y231429D01*
X139613Y231427D01*
X140432Y231427D01*
X134282Y231427D02*
X134282Y238793D01*
X134282Y231427D02*
X131009Y231427D01*
X126588Y231427D02*
X124951Y231427D01*
X126588Y231427D02*
X126666Y231429D01*
X126744Y231434D01*
X126821Y231444D01*
X126898Y231457D01*
X126974Y231473D01*
X127049Y231493D01*
X127123Y231517D01*
X127196Y231544D01*
X127268Y231575D01*
X127338Y231609D01*
X127407Y231646D01*
X127473Y231687D01*
X127538Y231731D01*
X127600Y231777D01*
X127660Y231827D01*
X127718Y231879D01*
X127773Y231934D01*
X127825Y231992D01*
X127875Y232052D01*
X127921Y232114D01*
X127965Y232179D01*
X128006Y232246D01*
X128043Y232314D01*
X128077Y232384D01*
X128108Y232456D01*
X128135Y232529D01*
X128159Y232603D01*
X128179Y232678D01*
X128195Y232754D01*
X128208Y232831D01*
X128218Y232908D01*
X128223Y232986D01*
X128225Y233064D01*
X128225Y237156D01*
X128223Y237234D01*
X128218Y237312D01*
X128208Y237389D01*
X128195Y237466D01*
X128179Y237542D01*
X128159Y237617D01*
X128135Y237691D01*
X128108Y237764D01*
X128077Y237836D01*
X128043Y237906D01*
X128006Y237975D01*
X127965Y238041D01*
X127921Y238106D01*
X127875Y238168D01*
X127825Y238228D01*
X127773Y238286D01*
X127718Y238341D01*
X127660Y238393D01*
X127600Y238443D01*
X127538Y238489D01*
X127473Y238533D01*
X127407Y238574D01*
X127338Y238611D01*
X127268Y238645D01*
X127196Y238676D01*
X127123Y238703D01*
X127049Y238727D01*
X126974Y238747D01*
X126898Y238763D01*
X126821Y238776D01*
X126744Y238786D01*
X126666Y238791D01*
X126588Y238793D01*
X124951Y238793D01*
X120420Y238793D02*
X120420Y233064D01*
X120422Y232986D01*
X120427Y232908D01*
X120437Y232831D01*
X120450Y232754D01*
X120466Y232678D01*
X120486Y232603D01*
X120510Y232529D01*
X120537Y232456D01*
X120568Y232384D01*
X120602Y232314D01*
X120639Y232246D01*
X120680Y232179D01*
X120724Y232114D01*
X120770Y232052D01*
X120820Y231992D01*
X120872Y231934D01*
X120927Y231879D01*
X120985Y231827D01*
X121045Y231777D01*
X121107Y231731D01*
X121172Y231687D01*
X121239Y231646D01*
X121307Y231609D01*
X121377Y231575D01*
X121449Y231544D01*
X121522Y231517D01*
X121596Y231493D01*
X121671Y231473D01*
X121747Y231457D01*
X121824Y231444D01*
X121901Y231434D01*
X121979Y231429D01*
X122057Y231427D01*
X122875Y231427D01*
X116726Y231427D02*
X116726Y238793D01*
X116726Y231427D02*
X113452Y231427D01*
X109032Y231427D02*
X107395Y231427D01*
X109032Y231427D02*
X109110Y231429D01*
X109188Y231434D01*
X109265Y231444D01*
X109342Y231457D01*
X109418Y231473D01*
X109493Y231493D01*
X109567Y231517D01*
X109640Y231544D01*
X109712Y231575D01*
X109782Y231609D01*
X109851Y231646D01*
X109917Y231687D01*
X109982Y231731D01*
X110044Y231777D01*
X110104Y231827D01*
X110162Y231879D01*
X110217Y231934D01*
X110269Y231992D01*
X110319Y232052D01*
X110365Y232114D01*
X110409Y232179D01*
X110450Y232246D01*
X110487Y232314D01*
X110521Y232384D01*
X110552Y232456D01*
X110579Y232529D01*
X110603Y232603D01*
X110623Y232678D01*
X110639Y232754D01*
X110652Y232831D01*
X110662Y232908D01*
X110667Y232986D01*
X110669Y233064D01*
X110669Y237156D01*
X110667Y237234D01*
X110662Y237312D01*
X110652Y237389D01*
X110639Y237466D01*
X110623Y237542D01*
X110603Y237617D01*
X110579Y237691D01*
X110552Y237764D01*
X110521Y237836D01*
X110487Y237906D01*
X110450Y237975D01*
X110409Y238041D01*
X110365Y238106D01*
X110319Y238168D01*
X110269Y238228D01*
X110217Y238286D01*
X110162Y238341D01*
X110104Y238393D01*
X110044Y238443D01*
X109982Y238489D01*
X109917Y238533D01*
X109851Y238574D01*
X109782Y238611D01*
X109712Y238645D01*
X109640Y238676D01*
X109567Y238703D01*
X109493Y238727D01*
X109418Y238747D01*
X109342Y238763D01*
X109265Y238776D01*
X109188Y238786D01*
X109110Y238791D01*
X109032Y238793D01*
X107395Y238793D01*
X102864Y238793D02*
X102864Y233064D01*
X102863Y233064D02*
X102865Y232986D01*
X102870Y232908D01*
X102880Y232831D01*
X102893Y232754D01*
X102909Y232678D01*
X102929Y232603D01*
X102953Y232529D01*
X102980Y232456D01*
X103011Y232384D01*
X103045Y232314D01*
X103082Y232246D01*
X103123Y232179D01*
X103167Y232114D01*
X103213Y232052D01*
X103263Y231992D01*
X103315Y231934D01*
X103370Y231879D01*
X103428Y231827D01*
X103488Y231777D01*
X103550Y231731D01*
X103615Y231687D01*
X103682Y231646D01*
X103750Y231609D01*
X103820Y231575D01*
X103892Y231544D01*
X103965Y231517D01*
X104039Y231493D01*
X104114Y231473D01*
X104190Y231457D01*
X104267Y231444D01*
X104344Y231434D01*
X104422Y231429D01*
X104500Y231427D01*
X105319Y231427D01*
X99170Y231427D02*
X99170Y238793D01*
X99170Y231427D02*
X95896Y231427D01*
X91475Y231427D02*
X89839Y231427D01*
X91475Y231427D02*
X91553Y231429D01*
X91631Y231434D01*
X91708Y231444D01*
X91785Y231457D01*
X91861Y231473D01*
X91936Y231493D01*
X92010Y231517D01*
X92083Y231544D01*
X92155Y231575D01*
X92225Y231609D01*
X92294Y231646D01*
X92360Y231687D01*
X92425Y231731D01*
X92487Y231777D01*
X92547Y231827D01*
X92605Y231879D01*
X92660Y231934D01*
X92712Y231992D01*
X92762Y232052D01*
X92808Y232114D01*
X92852Y232179D01*
X92893Y232246D01*
X92930Y232314D01*
X92964Y232384D01*
X92995Y232456D01*
X93022Y232529D01*
X93046Y232603D01*
X93066Y232678D01*
X93082Y232754D01*
X93095Y232831D01*
X93105Y232908D01*
X93110Y232986D01*
X93112Y233064D01*
X93112Y237156D01*
X93110Y237234D01*
X93105Y237312D01*
X93095Y237389D01*
X93082Y237466D01*
X93066Y237542D01*
X93046Y237617D01*
X93022Y237691D01*
X92995Y237764D01*
X92964Y237836D01*
X92930Y237906D01*
X92893Y237975D01*
X92852Y238041D01*
X92808Y238106D01*
X92762Y238168D01*
X92712Y238228D01*
X92660Y238286D01*
X92605Y238341D01*
X92547Y238393D01*
X92487Y238443D01*
X92425Y238489D01*
X92360Y238533D01*
X92294Y238574D01*
X92225Y238611D01*
X92155Y238645D01*
X92083Y238676D01*
X92010Y238703D01*
X91936Y238727D01*
X91861Y238747D01*
X91785Y238763D01*
X91708Y238776D01*
X91631Y238786D01*
X91553Y238791D01*
X91475Y238793D01*
X89839Y238793D01*
D11*
X33650Y130808D02*
X35852Y124204D01*
X31449Y124204D02*
X33650Y130808D01*
X31999Y125855D02*
X35301Y125855D01*
X27926Y124204D02*
X27926Y130808D01*
X26091Y130808D01*
X26006Y130806D01*
X25922Y130800D01*
X25838Y130790D01*
X25754Y130777D01*
X25671Y130759D01*
X25589Y130738D01*
X25508Y130713D01*
X25428Y130684D01*
X25350Y130652D01*
X25274Y130616D01*
X25199Y130576D01*
X25126Y130533D01*
X25055Y130487D01*
X24986Y130438D01*
X24919Y130385D01*
X24855Y130329D01*
X24794Y130271D01*
X24736Y130210D01*
X24680Y130146D01*
X24627Y130079D01*
X24578Y130010D01*
X24532Y129939D01*
X24489Y129866D01*
X24449Y129791D01*
X24413Y129715D01*
X24381Y129637D01*
X24352Y129557D01*
X24327Y129476D01*
X24306Y129394D01*
X24288Y129311D01*
X24275Y129227D01*
X24265Y129143D01*
X24259Y129059D01*
X24257Y128974D01*
X24257Y126038D01*
X24259Y125953D01*
X24265Y125869D01*
X24275Y125785D01*
X24288Y125701D01*
X24306Y125618D01*
X24327Y125536D01*
X24352Y125455D01*
X24381Y125375D01*
X24413Y125297D01*
X24449Y125221D01*
X24489Y125146D01*
X24532Y125073D01*
X24578Y125002D01*
X24627Y124933D01*
X24680Y124866D01*
X24736Y124802D01*
X24794Y124741D01*
X24855Y124683D01*
X24919Y124627D01*
X24986Y124574D01*
X25055Y124525D01*
X25126Y124479D01*
X25199Y124436D01*
X25274Y124396D01*
X25350Y124360D01*
X25428Y124328D01*
X25508Y124299D01*
X25589Y124274D01*
X25671Y124253D01*
X25754Y124235D01*
X25838Y124222D01*
X25922Y124212D01*
X26006Y124206D01*
X26091Y124204D01*
X27926Y124204D01*
X18935Y124204D02*
X17467Y124204D01*
X18935Y124204D02*
X19009Y124206D01*
X19084Y124212D01*
X19157Y124221D01*
X19231Y124234D01*
X19303Y124251D01*
X19374Y124271D01*
X19445Y124295D01*
X19514Y124323D01*
X19582Y124354D01*
X19647Y124388D01*
X19712Y124426D01*
X19774Y124467D01*
X19834Y124511D01*
X19891Y124558D01*
X19946Y124608D01*
X19999Y124661D01*
X20049Y124716D01*
X20096Y124773D01*
X20140Y124833D01*
X20181Y124895D01*
X20219Y124960D01*
X20253Y125026D01*
X20284Y125093D01*
X20312Y125162D01*
X20336Y125233D01*
X20356Y125304D01*
X20373Y125377D01*
X20386Y125450D01*
X20395Y125524D01*
X20401Y125598D01*
X20403Y125672D01*
X20402Y125672D02*
X20402Y129340D01*
X20403Y129340D02*
X20401Y129414D01*
X20395Y129489D01*
X20386Y129562D01*
X20373Y129635D01*
X20356Y129708D01*
X20336Y129779D01*
X20312Y129850D01*
X20284Y129919D01*
X20253Y129986D01*
X20219Y130052D01*
X20181Y130117D01*
X20140Y130179D01*
X20096Y130239D01*
X20049Y130296D01*
X19999Y130351D01*
X19946Y130404D01*
X19891Y130454D01*
X19834Y130501D01*
X19774Y130545D01*
X19712Y130586D01*
X19647Y130624D01*
X19582Y130658D01*
X19514Y130689D01*
X19445Y130717D01*
X19375Y130741D01*
X19303Y130761D01*
X19231Y130778D01*
X19157Y130791D01*
X19084Y130800D01*
X19009Y130806D01*
X18935Y130808D01*
X17467Y130808D01*
X14271Y129340D02*
X12436Y130808D01*
X12436Y124204D01*
X10602Y124204D02*
X14271Y124204D01*
X42238Y112972D02*
X42240Y112898D01*
X42246Y112823D01*
X42255Y112750D01*
X42268Y112676D01*
X42285Y112604D01*
X42305Y112533D01*
X42329Y112462D01*
X42357Y112393D01*
X42388Y112326D01*
X42422Y112260D01*
X42460Y112195D01*
X42501Y112133D01*
X42545Y112073D01*
X42592Y112016D01*
X42642Y111961D01*
X42695Y111908D01*
X42750Y111858D01*
X42807Y111811D01*
X42867Y111767D01*
X42929Y111726D01*
X42994Y111688D01*
X43060Y111654D01*
X43127Y111623D01*
X43196Y111595D01*
X43267Y111571D01*
X43338Y111551D01*
X43410Y111534D01*
X43484Y111521D01*
X43557Y111512D01*
X43632Y111506D01*
X43706Y111504D01*
X43817Y111506D01*
X43928Y111512D01*
X44039Y111522D01*
X44150Y111536D01*
X44259Y111554D01*
X44368Y111576D01*
X44477Y111601D01*
X44584Y111631D01*
X44690Y111664D01*
X44795Y111702D01*
X44898Y111742D01*
X45000Y111787D01*
X45100Y111835D01*
X45199Y111887D01*
X45295Y111942D01*
X45390Y112001D01*
X45482Y112063D01*
X45572Y112129D01*
X45660Y112197D01*
X45745Y112269D01*
X45827Y112344D01*
X45907Y112421D01*
X45724Y116640D02*
X45722Y116714D01*
X45716Y116789D01*
X45707Y116862D01*
X45694Y116936D01*
X45677Y117008D01*
X45657Y117079D01*
X45633Y117150D01*
X45605Y117219D01*
X45574Y117286D01*
X45540Y117352D01*
X45502Y117417D01*
X45461Y117479D01*
X45417Y117539D01*
X45370Y117596D01*
X45320Y117651D01*
X45267Y117704D01*
X45212Y117754D01*
X45155Y117801D01*
X45095Y117845D01*
X45033Y117886D01*
X44968Y117924D01*
X44902Y117958D01*
X44835Y117989D01*
X44766Y118017D01*
X44695Y118041D01*
X44624Y118061D01*
X44552Y118078D01*
X44478Y118091D01*
X44405Y118100D01*
X44330Y118106D01*
X44256Y118108D01*
X44152Y118106D01*
X44048Y118100D01*
X43944Y118090D01*
X43841Y118077D01*
X43738Y118059D01*
X43636Y118037D01*
X43535Y118012D01*
X43435Y117983D01*
X43336Y117950D01*
X43239Y117913D01*
X43143Y117873D01*
X43048Y117829D01*
X42956Y117781D01*
X42865Y117731D01*
X42776Y117676D01*
X42689Y117619D01*
X42605Y117558D01*
X44990Y115355D02*
X45053Y115394D01*
X45113Y115436D01*
X45172Y115481D01*
X45228Y115529D01*
X45281Y115580D01*
X45332Y115633D01*
X45381Y115688D01*
X45426Y115746D01*
X45469Y115806D01*
X45509Y115868D01*
X45545Y115932D01*
X45579Y115998D01*
X45609Y116066D01*
X45636Y116134D01*
X45659Y116204D01*
X45679Y116275D01*
X45695Y116347D01*
X45708Y116420D01*
X45717Y116493D01*
X45722Y116566D01*
X45724Y116640D01*
X42972Y114257D02*
X42909Y114218D01*
X42849Y114176D01*
X42791Y114131D01*
X42734Y114083D01*
X42681Y114032D01*
X42630Y113979D01*
X42581Y113924D01*
X42536Y113866D01*
X42493Y113806D01*
X42453Y113744D01*
X42417Y113680D01*
X42383Y113614D01*
X42353Y113546D01*
X42326Y113478D01*
X42303Y113408D01*
X42283Y113337D01*
X42267Y113265D01*
X42254Y113192D01*
X42245Y113119D01*
X42240Y113046D01*
X42238Y112972D01*
X42972Y114256D02*
X44990Y115356D01*
X38411Y118108D02*
X38411Y111504D01*
X38411Y118108D02*
X36577Y118108D01*
X36492Y118106D01*
X36408Y118100D01*
X36324Y118090D01*
X36240Y118077D01*
X36157Y118059D01*
X36075Y118038D01*
X35994Y118013D01*
X35914Y117984D01*
X35836Y117952D01*
X35760Y117916D01*
X35685Y117876D01*
X35612Y117833D01*
X35541Y117787D01*
X35472Y117738D01*
X35405Y117685D01*
X35341Y117629D01*
X35280Y117571D01*
X35222Y117510D01*
X35166Y117446D01*
X35113Y117379D01*
X35064Y117310D01*
X35018Y117239D01*
X34975Y117166D01*
X34935Y117091D01*
X34899Y117015D01*
X34867Y116937D01*
X34838Y116857D01*
X34813Y116776D01*
X34792Y116694D01*
X34774Y116611D01*
X34761Y116527D01*
X34751Y116443D01*
X34745Y116359D01*
X34743Y116274D01*
X34745Y116189D01*
X34751Y116105D01*
X34761Y116021D01*
X34774Y115937D01*
X34792Y115854D01*
X34813Y115772D01*
X34838Y115691D01*
X34867Y115611D01*
X34899Y115533D01*
X34935Y115457D01*
X34975Y115382D01*
X35018Y115309D01*
X35064Y115238D01*
X35113Y115169D01*
X35166Y115102D01*
X35222Y115038D01*
X35280Y114977D01*
X35341Y114919D01*
X35405Y114863D01*
X35472Y114810D01*
X35541Y114761D01*
X35612Y114715D01*
X35685Y114672D01*
X35760Y114632D01*
X35836Y114596D01*
X35914Y114564D01*
X35994Y114535D01*
X36075Y114510D01*
X36157Y114489D01*
X36240Y114471D01*
X36324Y114458D01*
X36408Y114448D01*
X36492Y114442D01*
X36577Y114440D01*
X36577Y114439D02*
X38411Y114439D01*
X31149Y111504D02*
X31149Y118108D01*
X31883Y111504D02*
X30416Y111504D01*
X30416Y118108D02*
X31883Y118108D01*
X25700Y111504D02*
X24232Y111504D01*
X25700Y111504D02*
X25774Y111506D01*
X25849Y111512D01*
X25922Y111521D01*
X25996Y111534D01*
X26068Y111551D01*
X26139Y111571D01*
X26210Y111595D01*
X26279Y111623D01*
X26347Y111654D01*
X26412Y111688D01*
X26477Y111726D01*
X26539Y111767D01*
X26599Y111811D01*
X26656Y111858D01*
X26711Y111908D01*
X26764Y111961D01*
X26814Y112016D01*
X26861Y112073D01*
X26905Y112133D01*
X26946Y112195D01*
X26984Y112260D01*
X27018Y112326D01*
X27049Y112393D01*
X27077Y112462D01*
X27101Y112533D01*
X27121Y112604D01*
X27138Y112677D01*
X27151Y112750D01*
X27160Y112824D01*
X27166Y112898D01*
X27168Y112972D01*
X27167Y112972D02*
X27167Y116640D01*
X27168Y116640D02*
X27166Y116714D01*
X27160Y116789D01*
X27151Y116862D01*
X27138Y116935D01*
X27121Y117008D01*
X27101Y117079D01*
X27077Y117150D01*
X27049Y117219D01*
X27018Y117286D01*
X26984Y117352D01*
X26946Y117417D01*
X26905Y117479D01*
X26861Y117539D01*
X26814Y117596D01*
X26764Y117651D01*
X26711Y117704D01*
X26656Y117754D01*
X26599Y117801D01*
X26539Y117845D01*
X26477Y117886D01*
X26412Y117924D01*
X26347Y117958D01*
X26279Y117989D01*
X26210Y118017D01*
X26140Y118041D01*
X26068Y118061D01*
X25996Y118078D01*
X25922Y118091D01*
X25849Y118100D01*
X25774Y118106D01*
X25700Y118108D01*
X24232Y118108D01*
X20768Y118108D02*
X20768Y111504D01*
X17833Y111504D01*
X14271Y111504D02*
X14271Y118108D01*
X10602Y118108D02*
X14271Y114072D01*
X12803Y115540D02*
X10602Y111504D01*
X49372Y100272D02*
X49374Y100198D01*
X49380Y100123D01*
X49389Y100050D01*
X49402Y99976D01*
X49419Y99904D01*
X49439Y99833D01*
X49463Y99762D01*
X49491Y99693D01*
X49522Y99626D01*
X49556Y99560D01*
X49594Y99495D01*
X49635Y99433D01*
X49679Y99373D01*
X49726Y99316D01*
X49776Y99261D01*
X49829Y99208D01*
X49884Y99158D01*
X49941Y99111D01*
X50001Y99067D01*
X50063Y99026D01*
X50128Y98988D01*
X50194Y98954D01*
X50261Y98923D01*
X50330Y98895D01*
X50401Y98871D01*
X50472Y98851D01*
X50544Y98834D01*
X50618Y98821D01*
X50691Y98812D01*
X50766Y98806D01*
X50840Y98804D01*
X50951Y98806D01*
X51062Y98812D01*
X51173Y98822D01*
X51284Y98836D01*
X51393Y98854D01*
X51502Y98876D01*
X51611Y98901D01*
X51718Y98931D01*
X51824Y98964D01*
X51929Y99002D01*
X52032Y99042D01*
X52134Y99087D01*
X52234Y99135D01*
X52333Y99187D01*
X52429Y99242D01*
X52524Y99301D01*
X52616Y99363D01*
X52706Y99429D01*
X52794Y99497D01*
X52879Y99569D01*
X52961Y99644D01*
X53041Y99721D01*
X52858Y103940D02*
X52856Y104014D01*
X52850Y104089D01*
X52841Y104162D01*
X52828Y104236D01*
X52811Y104308D01*
X52791Y104379D01*
X52767Y104450D01*
X52739Y104519D01*
X52708Y104586D01*
X52674Y104652D01*
X52636Y104717D01*
X52595Y104779D01*
X52551Y104839D01*
X52504Y104896D01*
X52454Y104951D01*
X52401Y105004D01*
X52346Y105054D01*
X52289Y105101D01*
X52229Y105145D01*
X52167Y105186D01*
X52102Y105224D01*
X52036Y105258D01*
X51969Y105289D01*
X51900Y105317D01*
X51829Y105341D01*
X51758Y105361D01*
X51686Y105378D01*
X51612Y105391D01*
X51539Y105400D01*
X51464Y105406D01*
X51390Y105408D01*
X51286Y105406D01*
X51182Y105400D01*
X51078Y105390D01*
X50975Y105377D01*
X50872Y105359D01*
X50770Y105337D01*
X50669Y105312D01*
X50569Y105283D01*
X50470Y105250D01*
X50373Y105213D01*
X50277Y105173D01*
X50182Y105129D01*
X50090Y105081D01*
X49999Y105031D01*
X49910Y104976D01*
X49823Y104919D01*
X49739Y104858D01*
X52124Y102655D02*
X52187Y102694D01*
X52247Y102736D01*
X52306Y102781D01*
X52362Y102829D01*
X52415Y102880D01*
X52466Y102933D01*
X52515Y102988D01*
X52560Y103046D01*
X52603Y103106D01*
X52643Y103168D01*
X52679Y103232D01*
X52713Y103298D01*
X52743Y103366D01*
X52770Y103434D01*
X52793Y103504D01*
X52813Y103575D01*
X52829Y103647D01*
X52842Y103720D01*
X52851Y103793D01*
X52856Y103866D01*
X52858Y103940D01*
X50106Y101557D02*
X50043Y101518D01*
X49983Y101476D01*
X49925Y101431D01*
X49868Y101383D01*
X49815Y101332D01*
X49764Y101279D01*
X49715Y101224D01*
X49670Y101166D01*
X49627Y101106D01*
X49587Y101044D01*
X49551Y100980D01*
X49517Y100914D01*
X49487Y100846D01*
X49460Y100778D01*
X49437Y100708D01*
X49417Y100637D01*
X49401Y100565D01*
X49388Y100492D01*
X49379Y100419D01*
X49374Y100346D01*
X49372Y100272D01*
X50106Y101556D02*
X52124Y102656D01*
X45545Y105408D02*
X45545Y98804D01*
X45545Y105408D02*
X43711Y105408D01*
X43626Y105406D01*
X43542Y105400D01*
X43458Y105390D01*
X43374Y105377D01*
X43291Y105359D01*
X43209Y105338D01*
X43128Y105313D01*
X43048Y105284D01*
X42970Y105252D01*
X42894Y105216D01*
X42819Y105176D01*
X42746Y105133D01*
X42675Y105087D01*
X42606Y105038D01*
X42539Y104985D01*
X42475Y104929D01*
X42414Y104871D01*
X42356Y104810D01*
X42300Y104746D01*
X42247Y104679D01*
X42198Y104610D01*
X42152Y104539D01*
X42109Y104466D01*
X42069Y104391D01*
X42033Y104315D01*
X42001Y104237D01*
X41972Y104157D01*
X41947Y104076D01*
X41926Y103994D01*
X41908Y103911D01*
X41895Y103827D01*
X41885Y103743D01*
X41879Y103659D01*
X41877Y103574D01*
X41879Y103489D01*
X41885Y103405D01*
X41895Y103321D01*
X41908Y103237D01*
X41926Y103154D01*
X41947Y103072D01*
X41972Y102991D01*
X42001Y102911D01*
X42033Y102833D01*
X42069Y102757D01*
X42109Y102682D01*
X42152Y102609D01*
X42198Y102538D01*
X42247Y102469D01*
X42300Y102402D01*
X42356Y102338D01*
X42414Y102277D01*
X42475Y102219D01*
X42539Y102163D01*
X42606Y102110D01*
X42675Y102061D01*
X42746Y102015D01*
X42819Y101972D01*
X42894Y101932D01*
X42970Y101896D01*
X43048Y101864D01*
X43128Y101835D01*
X43209Y101810D01*
X43291Y101789D01*
X43374Y101771D01*
X43458Y101758D01*
X43542Y101748D01*
X43626Y101742D01*
X43711Y101740D01*
X43711Y101739D02*
X45545Y101739D01*
X38283Y98804D02*
X38283Y105408D01*
X39017Y98804D02*
X37550Y98804D01*
X37550Y105408D02*
X39017Y105408D01*
X33901Y105408D02*
X33901Y98804D01*
X31700Y101739D02*
X33901Y105408D01*
X31700Y101739D02*
X29498Y105408D01*
X29498Y98804D01*
X25116Y98804D02*
X25116Y105408D01*
X25850Y98804D02*
X24382Y98804D01*
X24382Y105408D02*
X25850Y105408D01*
X19141Y98804D02*
X19067Y98806D01*
X18992Y98812D01*
X18919Y98821D01*
X18845Y98834D01*
X18773Y98851D01*
X18702Y98871D01*
X18631Y98895D01*
X18562Y98923D01*
X18495Y98954D01*
X18429Y98988D01*
X18364Y99026D01*
X18302Y99067D01*
X18242Y99111D01*
X18185Y99158D01*
X18130Y99208D01*
X18077Y99261D01*
X18027Y99316D01*
X17980Y99373D01*
X17936Y99433D01*
X17895Y99495D01*
X17857Y99560D01*
X17823Y99626D01*
X17792Y99693D01*
X17764Y99762D01*
X17740Y99833D01*
X17720Y99904D01*
X17703Y99976D01*
X17690Y100050D01*
X17681Y100123D01*
X17675Y100198D01*
X17673Y100272D01*
X19141Y98804D02*
X19252Y98806D01*
X19363Y98812D01*
X19474Y98822D01*
X19585Y98836D01*
X19694Y98854D01*
X19803Y98876D01*
X19912Y98901D01*
X20019Y98931D01*
X20125Y98964D01*
X20230Y99002D01*
X20333Y99042D01*
X20435Y99087D01*
X20535Y99135D01*
X20634Y99187D01*
X20730Y99242D01*
X20825Y99301D01*
X20917Y99363D01*
X21007Y99429D01*
X21095Y99497D01*
X21180Y99569D01*
X21262Y99644D01*
X21342Y99721D01*
X21159Y103940D02*
X21157Y104014D01*
X21151Y104089D01*
X21142Y104162D01*
X21129Y104236D01*
X21112Y104308D01*
X21092Y104379D01*
X21068Y104450D01*
X21040Y104519D01*
X21009Y104586D01*
X20975Y104652D01*
X20937Y104717D01*
X20896Y104779D01*
X20852Y104839D01*
X20805Y104896D01*
X20755Y104951D01*
X20702Y105004D01*
X20647Y105054D01*
X20590Y105101D01*
X20530Y105145D01*
X20468Y105186D01*
X20403Y105224D01*
X20337Y105258D01*
X20270Y105289D01*
X20201Y105317D01*
X20130Y105341D01*
X20059Y105361D01*
X19987Y105378D01*
X19913Y105391D01*
X19840Y105400D01*
X19765Y105406D01*
X19691Y105408D01*
X19587Y105406D01*
X19483Y105400D01*
X19379Y105390D01*
X19276Y105377D01*
X19173Y105359D01*
X19071Y105337D01*
X18970Y105312D01*
X18870Y105283D01*
X18771Y105250D01*
X18674Y105213D01*
X18578Y105173D01*
X18483Y105129D01*
X18391Y105081D01*
X18300Y105031D01*
X18211Y104976D01*
X18124Y104919D01*
X18040Y104858D01*
X20425Y102655D02*
X20488Y102694D01*
X20548Y102736D01*
X20607Y102781D01*
X20663Y102829D01*
X20716Y102880D01*
X20767Y102933D01*
X20816Y102988D01*
X20861Y103046D01*
X20904Y103106D01*
X20944Y103168D01*
X20980Y103232D01*
X21014Y103298D01*
X21044Y103366D01*
X21071Y103434D01*
X21094Y103504D01*
X21114Y103575D01*
X21130Y103647D01*
X21143Y103720D01*
X21152Y103793D01*
X21157Y103866D01*
X21159Y103940D01*
X18407Y101557D02*
X18344Y101518D01*
X18284Y101476D01*
X18226Y101431D01*
X18169Y101383D01*
X18116Y101332D01*
X18065Y101279D01*
X18016Y101224D01*
X17971Y101166D01*
X17928Y101106D01*
X17888Y101044D01*
X17852Y100980D01*
X17818Y100914D01*
X17788Y100846D01*
X17761Y100778D01*
X17738Y100708D01*
X17718Y100637D01*
X17702Y100565D01*
X17689Y100492D01*
X17680Y100419D01*
X17675Y100346D01*
X17673Y100272D01*
X18407Y101556D02*
X20425Y102656D01*
X14271Y103574D02*
X14271Y100638D01*
X14270Y103574D02*
X14268Y103659D01*
X14262Y103743D01*
X14252Y103827D01*
X14239Y103911D01*
X14221Y103994D01*
X14200Y104076D01*
X14175Y104157D01*
X14146Y104237D01*
X14114Y104315D01*
X14078Y104391D01*
X14038Y104466D01*
X13995Y104539D01*
X13949Y104610D01*
X13900Y104679D01*
X13847Y104746D01*
X13791Y104810D01*
X13733Y104871D01*
X13672Y104929D01*
X13608Y104985D01*
X13541Y105038D01*
X13472Y105087D01*
X13401Y105133D01*
X13328Y105176D01*
X13253Y105216D01*
X13177Y105252D01*
X13099Y105284D01*
X13019Y105313D01*
X12938Y105338D01*
X12856Y105359D01*
X12773Y105377D01*
X12689Y105390D01*
X12605Y105400D01*
X12521Y105406D01*
X12436Y105408D01*
X12351Y105406D01*
X12267Y105400D01*
X12183Y105390D01*
X12099Y105377D01*
X12016Y105359D01*
X11934Y105338D01*
X11853Y105313D01*
X11773Y105284D01*
X11695Y105252D01*
X11619Y105216D01*
X11544Y105176D01*
X11471Y105133D01*
X11400Y105087D01*
X11331Y105038D01*
X11264Y104985D01*
X11200Y104929D01*
X11139Y104871D01*
X11081Y104810D01*
X11025Y104746D01*
X10972Y104679D01*
X10923Y104610D01*
X10877Y104539D01*
X10834Y104466D01*
X10794Y104391D01*
X10758Y104315D01*
X10726Y104237D01*
X10697Y104157D01*
X10672Y104076D01*
X10651Y103994D01*
X10633Y103911D01*
X10620Y103827D01*
X10610Y103743D01*
X10604Y103659D01*
X10602Y103574D01*
X10602Y100638D01*
X10604Y100553D01*
X10610Y100469D01*
X10620Y100385D01*
X10633Y100301D01*
X10651Y100218D01*
X10672Y100136D01*
X10697Y100055D01*
X10726Y99975D01*
X10758Y99897D01*
X10794Y99821D01*
X10834Y99746D01*
X10877Y99673D01*
X10923Y99602D01*
X10972Y99533D01*
X11025Y99466D01*
X11081Y99402D01*
X11139Y99341D01*
X11200Y99283D01*
X11264Y99227D01*
X11331Y99174D01*
X11400Y99125D01*
X11471Y99079D01*
X11544Y99036D01*
X11619Y98996D01*
X11695Y98960D01*
X11773Y98928D01*
X11853Y98899D01*
X11934Y98874D01*
X12016Y98853D01*
X12099Y98835D01*
X12183Y98822D01*
X12267Y98812D01*
X12351Y98806D01*
X12436Y98804D01*
X12521Y98806D01*
X12605Y98812D01*
X12689Y98822D01*
X12773Y98835D01*
X12856Y98853D01*
X12938Y98874D01*
X13019Y98899D01*
X13099Y98928D01*
X13177Y98960D01*
X13253Y98996D01*
X13328Y99036D01*
X13401Y99079D01*
X13472Y99125D01*
X13541Y99174D01*
X13608Y99227D01*
X13672Y99283D01*
X13733Y99341D01*
X13791Y99402D01*
X13847Y99466D01*
X13900Y99533D01*
X13949Y99602D01*
X13995Y99673D01*
X14038Y99746D01*
X14078Y99821D01*
X14114Y99897D01*
X14146Y99975D01*
X14175Y100055D01*
X14200Y100136D01*
X14221Y100218D01*
X14239Y100301D01*
X14252Y100385D01*
X14262Y100469D01*
X14268Y100553D01*
X14270Y100638D01*
X49734Y87572D02*
X49736Y87498D01*
X49742Y87423D01*
X49751Y87350D01*
X49764Y87276D01*
X49781Y87204D01*
X49801Y87133D01*
X49825Y87062D01*
X49853Y86993D01*
X49884Y86926D01*
X49918Y86860D01*
X49956Y86795D01*
X49997Y86733D01*
X50041Y86673D01*
X50088Y86616D01*
X50138Y86561D01*
X50191Y86508D01*
X50246Y86458D01*
X50303Y86411D01*
X50363Y86367D01*
X50425Y86326D01*
X50490Y86288D01*
X50556Y86254D01*
X50623Y86223D01*
X50692Y86195D01*
X50763Y86171D01*
X50834Y86151D01*
X50906Y86134D01*
X50980Y86121D01*
X51053Y86112D01*
X51128Y86106D01*
X51202Y86104D01*
X51313Y86106D01*
X51424Y86112D01*
X51535Y86122D01*
X51646Y86136D01*
X51755Y86154D01*
X51864Y86176D01*
X51973Y86201D01*
X52080Y86231D01*
X52186Y86264D01*
X52291Y86302D01*
X52394Y86342D01*
X52496Y86387D01*
X52596Y86435D01*
X52695Y86487D01*
X52791Y86542D01*
X52886Y86601D01*
X52978Y86663D01*
X53068Y86729D01*
X53156Y86797D01*
X53241Y86869D01*
X53323Y86944D01*
X53403Y87021D01*
X53221Y91240D02*
X53219Y91314D01*
X53213Y91389D01*
X53204Y91462D01*
X53191Y91536D01*
X53174Y91608D01*
X53154Y91679D01*
X53130Y91750D01*
X53102Y91819D01*
X53071Y91886D01*
X53037Y91952D01*
X52999Y92017D01*
X52958Y92079D01*
X52914Y92139D01*
X52867Y92196D01*
X52817Y92251D01*
X52764Y92304D01*
X52709Y92354D01*
X52652Y92401D01*
X52592Y92445D01*
X52530Y92486D01*
X52465Y92524D01*
X52399Y92558D01*
X52332Y92589D01*
X52263Y92617D01*
X52192Y92641D01*
X52121Y92661D01*
X52049Y92678D01*
X51975Y92691D01*
X51902Y92700D01*
X51827Y92706D01*
X51753Y92708D01*
X51649Y92706D01*
X51545Y92700D01*
X51441Y92690D01*
X51338Y92677D01*
X51235Y92659D01*
X51133Y92637D01*
X51032Y92612D01*
X50932Y92583D01*
X50833Y92550D01*
X50736Y92513D01*
X50640Y92473D01*
X50545Y92429D01*
X50453Y92381D01*
X50362Y92331D01*
X50273Y92276D01*
X50186Y92219D01*
X50102Y92158D01*
X52487Y89955D02*
X52550Y89994D01*
X52610Y90036D01*
X52669Y90081D01*
X52725Y90129D01*
X52778Y90180D01*
X52829Y90233D01*
X52878Y90288D01*
X52923Y90346D01*
X52966Y90406D01*
X53006Y90468D01*
X53042Y90532D01*
X53076Y90598D01*
X53106Y90666D01*
X53133Y90734D01*
X53156Y90804D01*
X53176Y90875D01*
X53192Y90947D01*
X53205Y91020D01*
X53214Y91093D01*
X53219Y91166D01*
X53221Y91240D01*
X50468Y88857D02*
X50405Y88818D01*
X50345Y88776D01*
X50287Y88731D01*
X50230Y88683D01*
X50177Y88632D01*
X50126Y88579D01*
X50077Y88524D01*
X50032Y88466D01*
X49989Y88406D01*
X49949Y88344D01*
X49913Y88280D01*
X49879Y88214D01*
X49849Y88146D01*
X49822Y88078D01*
X49799Y88008D01*
X49779Y87937D01*
X49763Y87865D01*
X49750Y87792D01*
X49741Y87719D01*
X49736Y87646D01*
X49734Y87572D01*
X50469Y88856D02*
X52486Y89956D01*
X45907Y92708D02*
X45907Y86104D01*
X45907Y92708D02*
X44073Y92708D01*
X43988Y92706D01*
X43904Y92700D01*
X43820Y92690D01*
X43736Y92677D01*
X43653Y92659D01*
X43571Y92638D01*
X43490Y92613D01*
X43410Y92584D01*
X43332Y92552D01*
X43256Y92516D01*
X43181Y92476D01*
X43108Y92433D01*
X43037Y92387D01*
X42968Y92338D01*
X42901Y92285D01*
X42837Y92229D01*
X42776Y92171D01*
X42718Y92110D01*
X42662Y92046D01*
X42609Y91979D01*
X42560Y91910D01*
X42514Y91839D01*
X42471Y91766D01*
X42431Y91691D01*
X42395Y91615D01*
X42363Y91537D01*
X42334Y91457D01*
X42309Y91376D01*
X42288Y91294D01*
X42270Y91211D01*
X42257Y91127D01*
X42247Y91043D01*
X42241Y90959D01*
X42239Y90874D01*
X42241Y90789D01*
X42247Y90705D01*
X42257Y90621D01*
X42270Y90537D01*
X42288Y90454D01*
X42309Y90372D01*
X42334Y90291D01*
X42363Y90211D01*
X42395Y90133D01*
X42431Y90057D01*
X42471Y89982D01*
X42514Y89909D01*
X42560Y89838D01*
X42609Y89769D01*
X42662Y89702D01*
X42718Y89638D01*
X42776Y89577D01*
X42837Y89519D01*
X42901Y89463D01*
X42968Y89410D01*
X43037Y89361D01*
X43108Y89315D01*
X43181Y89272D01*
X43256Y89232D01*
X43332Y89196D01*
X43410Y89164D01*
X43490Y89135D01*
X43571Y89110D01*
X43653Y89089D01*
X43736Y89071D01*
X43820Y89058D01*
X43904Y89048D01*
X43988Y89042D01*
X44073Y89040D01*
X44073Y89039D02*
X45907Y89039D01*
X38646Y86104D02*
X38646Y92708D01*
X39380Y86104D02*
X37912Y86104D01*
X37912Y92708D02*
X39380Y92708D01*
X34263Y92708D02*
X34263Y86104D01*
X32062Y89039D02*
X34263Y92708D01*
X32062Y89039D02*
X29861Y92708D01*
X29861Y86104D01*
X25850Y87938D02*
X25850Y90874D01*
X25849Y90874D02*
X25847Y90959D01*
X25841Y91043D01*
X25831Y91127D01*
X25818Y91211D01*
X25800Y91294D01*
X25779Y91376D01*
X25754Y91457D01*
X25725Y91537D01*
X25693Y91615D01*
X25657Y91691D01*
X25617Y91766D01*
X25574Y91839D01*
X25528Y91910D01*
X25479Y91979D01*
X25426Y92046D01*
X25370Y92110D01*
X25312Y92171D01*
X25251Y92229D01*
X25187Y92285D01*
X25120Y92338D01*
X25051Y92387D01*
X24980Y92433D01*
X24907Y92476D01*
X24832Y92516D01*
X24756Y92552D01*
X24678Y92584D01*
X24598Y92613D01*
X24517Y92638D01*
X24435Y92659D01*
X24352Y92677D01*
X24268Y92690D01*
X24184Y92700D01*
X24100Y92706D01*
X24015Y92708D01*
X23930Y92706D01*
X23846Y92700D01*
X23762Y92690D01*
X23678Y92677D01*
X23595Y92659D01*
X23513Y92638D01*
X23432Y92613D01*
X23352Y92584D01*
X23274Y92552D01*
X23198Y92516D01*
X23123Y92476D01*
X23050Y92433D01*
X22979Y92387D01*
X22910Y92338D01*
X22843Y92285D01*
X22779Y92229D01*
X22718Y92171D01*
X22660Y92110D01*
X22604Y92046D01*
X22551Y91979D01*
X22502Y91910D01*
X22456Y91839D01*
X22413Y91766D01*
X22373Y91691D01*
X22337Y91615D01*
X22305Y91537D01*
X22276Y91457D01*
X22251Y91376D01*
X22230Y91294D01*
X22212Y91211D01*
X22199Y91127D01*
X22189Y91043D01*
X22183Y90959D01*
X22181Y90874D01*
X22181Y87938D01*
X22183Y87853D01*
X22189Y87769D01*
X22199Y87685D01*
X22212Y87601D01*
X22230Y87518D01*
X22251Y87436D01*
X22276Y87355D01*
X22305Y87275D01*
X22337Y87197D01*
X22373Y87121D01*
X22413Y87046D01*
X22456Y86973D01*
X22502Y86902D01*
X22551Y86833D01*
X22604Y86766D01*
X22660Y86702D01*
X22718Y86641D01*
X22779Y86583D01*
X22843Y86527D01*
X22910Y86474D01*
X22979Y86425D01*
X23050Y86379D01*
X23123Y86336D01*
X23198Y86296D01*
X23274Y86260D01*
X23352Y86228D01*
X23432Y86199D01*
X23513Y86174D01*
X23595Y86153D01*
X23678Y86135D01*
X23762Y86122D01*
X23846Y86112D01*
X23930Y86106D01*
X24015Y86104D01*
X24100Y86106D01*
X24184Y86112D01*
X24268Y86122D01*
X24352Y86135D01*
X24435Y86153D01*
X24517Y86174D01*
X24598Y86199D01*
X24678Y86228D01*
X24756Y86260D01*
X24832Y86296D01*
X24907Y86336D01*
X24980Y86379D01*
X25051Y86425D01*
X25120Y86474D01*
X25187Y86527D01*
X25251Y86583D01*
X25312Y86641D01*
X25370Y86702D01*
X25426Y86766D01*
X25479Y86833D01*
X25528Y86902D01*
X25574Y86973D01*
X25617Y87046D01*
X25657Y87121D01*
X25693Y87197D01*
X25725Y87275D01*
X25754Y87355D01*
X25779Y87436D01*
X25800Y87518D01*
X25818Y87601D01*
X25831Y87685D01*
X25841Y87769D01*
X25847Y87853D01*
X25849Y87938D01*
X16577Y86104D02*
X16503Y86106D01*
X16429Y86112D01*
X16355Y86121D01*
X16282Y86134D01*
X16209Y86151D01*
X16138Y86171D01*
X16067Y86195D01*
X15998Y86223D01*
X15931Y86254D01*
X15865Y86288D01*
X15800Y86326D01*
X15738Y86367D01*
X15678Y86411D01*
X15621Y86458D01*
X15566Y86508D01*
X15513Y86561D01*
X15463Y86616D01*
X15416Y86673D01*
X15372Y86733D01*
X15331Y86795D01*
X15293Y86860D01*
X15259Y86925D01*
X15228Y86993D01*
X15200Y87062D01*
X15176Y87133D01*
X15156Y87204D01*
X15139Y87276D01*
X15126Y87350D01*
X15117Y87423D01*
X15111Y87498D01*
X15109Y87572D01*
X16577Y86104D02*
X16688Y86106D01*
X16799Y86112D01*
X16910Y86122D01*
X17021Y86136D01*
X17130Y86154D01*
X17239Y86176D01*
X17348Y86201D01*
X17455Y86231D01*
X17561Y86264D01*
X17666Y86302D01*
X17769Y86342D01*
X17871Y86387D01*
X17971Y86435D01*
X18070Y86487D01*
X18166Y86542D01*
X18261Y86601D01*
X18353Y86663D01*
X18443Y86729D01*
X18531Y86797D01*
X18616Y86869D01*
X18698Y86944D01*
X18778Y87021D01*
X18596Y91240D02*
X18594Y91314D01*
X18588Y91389D01*
X18579Y91462D01*
X18566Y91536D01*
X18549Y91608D01*
X18529Y91679D01*
X18505Y91750D01*
X18477Y91819D01*
X18446Y91886D01*
X18412Y91952D01*
X18374Y92017D01*
X18333Y92079D01*
X18289Y92139D01*
X18242Y92196D01*
X18192Y92251D01*
X18139Y92304D01*
X18084Y92354D01*
X18027Y92401D01*
X17967Y92445D01*
X17905Y92486D01*
X17840Y92524D01*
X17774Y92558D01*
X17707Y92589D01*
X17638Y92617D01*
X17567Y92641D01*
X17496Y92661D01*
X17424Y92678D01*
X17350Y92691D01*
X17277Y92700D01*
X17202Y92706D01*
X17128Y92708D01*
X17024Y92706D01*
X16920Y92700D01*
X16816Y92690D01*
X16713Y92677D01*
X16610Y92659D01*
X16508Y92637D01*
X16407Y92612D01*
X16307Y92583D01*
X16208Y92550D01*
X16111Y92513D01*
X16015Y92473D01*
X15920Y92429D01*
X15828Y92381D01*
X15737Y92331D01*
X15648Y92276D01*
X15561Y92219D01*
X15477Y92158D01*
X17862Y89955D02*
X17925Y89994D01*
X17985Y90036D01*
X18044Y90081D01*
X18100Y90129D01*
X18153Y90180D01*
X18204Y90233D01*
X18253Y90288D01*
X18298Y90346D01*
X18341Y90406D01*
X18381Y90468D01*
X18417Y90532D01*
X18451Y90598D01*
X18481Y90666D01*
X18508Y90734D01*
X18531Y90804D01*
X18551Y90875D01*
X18567Y90947D01*
X18580Y91020D01*
X18589Y91093D01*
X18594Y91166D01*
X18596Y91240D01*
X15843Y88857D02*
X15780Y88818D01*
X15720Y88776D01*
X15662Y88731D01*
X15605Y88683D01*
X15552Y88632D01*
X15501Y88579D01*
X15452Y88524D01*
X15407Y88466D01*
X15364Y88406D01*
X15324Y88344D01*
X15288Y88280D01*
X15254Y88214D01*
X15224Y88146D01*
X15197Y88078D01*
X15174Y88008D01*
X15154Y87937D01*
X15138Y87865D01*
X15125Y87792D01*
X15116Y87719D01*
X15111Y87646D01*
X15109Y87572D01*
X15843Y88856D02*
X17861Y89956D01*
X11336Y92708D02*
X11336Y86104D01*
X12070Y86104D02*
X10602Y86104D01*
X10602Y92708D02*
X12070Y92708D01*
X48884Y74872D02*
X48886Y74798D01*
X48892Y74723D01*
X48901Y74650D01*
X48914Y74576D01*
X48931Y74504D01*
X48951Y74433D01*
X48975Y74362D01*
X49003Y74293D01*
X49034Y74226D01*
X49068Y74160D01*
X49106Y74095D01*
X49147Y74033D01*
X49191Y73973D01*
X49238Y73916D01*
X49288Y73861D01*
X49341Y73808D01*
X49396Y73758D01*
X49453Y73711D01*
X49513Y73667D01*
X49575Y73626D01*
X49640Y73588D01*
X49706Y73554D01*
X49773Y73523D01*
X49842Y73495D01*
X49913Y73471D01*
X49984Y73451D01*
X50056Y73434D01*
X50130Y73421D01*
X50203Y73412D01*
X50278Y73406D01*
X50352Y73404D01*
X50463Y73406D01*
X50574Y73412D01*
X50685Y73422D01*
X50796Y73436D01*
X50905Y73454D01*
X51014Y73476D01*
X51123Y73501D01*
X51230Y73531D01*
X51336Y73564D01*
X51441Y73602D01*
X51544Y73642D01*
X51646Y73687D01*
X51746Y73735D01*
X51845Y73787D01*
X51941Y73842D01*
X52036Y73901D01*
X52128Y73963D01*
X52218Y74029D01*
X52306Y74097D01*
X52391Y74169D01*
X52473Y74244D01*
X52553Y74321D01*
X52371Y78540D02*
X52369Y78614D01*
X52363Y78689D01*
X52354Y78762D01*
X52341Y78836D01*
X52324Y78908D01*
X52304Y78979D01*
X52280Y79050D01*
X52252Y79119D01*
X52221Y79186D01*
X52187Y79252D01*
X52149Y79317D01*
X52108Y79379D01*
X52064Y79439D01*
X52017Y79496D01*
X51967Y79551D01*
X51914Y79604D01*
X51859Y79654D01*
X51802Y79701D01*
X51742Y79745D01*
X51680Y79786D01*
X51615Y79824D01*
X51549Y79858D01*
X51482Y79889D01*
X51413Y79917D01*
X51342Y79941D01*
X51271Y79961D01*
X51199Y79978D01*
X51125Y79991D01*
X51052Y80000D01*
X50977Y80006D01*
X50903Y80008D01*
X50799Y80006D01*
X50695Y80000D01*
X50591Y79990D01*
X50488Y79977D01*
X50385Y79959D01*
X50283Y79937D01*
X50182Y79912D01*
X50082Y79883D01*
X49983Y79850D01*
X49886Y79813D01*
X49790Y79773D01*
X49695Y79729D01*
X49603Y79681D01*
X49512Y79631D01*
X49423Y79576D01*
X49336Y79519D01*
X49252Y79458D01*
X51637Y77255D02*
X51700Y77294D01*
X51760Y77336D01*
X51819Y77381D01*
X51875Y77429D01*
X51928Y77480D01*
X51979Y77533D01*
X52028Y77588D01*
X52073Y77646D01*
X52116Y77706D01*
X52156Y77768D01*
X52192Y77832D01*
X52226Y77898D01*
X52256Y77966D01*
X52283Y78034D01*
X52306Y78104D01*
X52326Y78175D01*
X52342Y78247D01*
X52355Y78320D01*
X52364Y78393D01*
X52369Y78466D01*
X52371Y78540D01*
X49618Y76157D02*
X49555Y76118D01*
X49495Y76076D01*
X49437Y76031D01*
X49380Y75983D01*
X49327Y75932D01*
X49276Y75879D01*
X49227Y75824D01*
X49182Y75766D01*
X49139Y75706D01*
X49099Y75644D01*
X49063Y75580D01*
X49029Y75514D01*
X48999Y75446D01*
X48972Y75378D01*
X48949Y75308D01*
X48929Y75237D01*
X48913Y75165D01*
X48900Y75092D01*
X48891Y75019D01*
X48886Y74946D01*
X48884Y74872D01*
X49619Y76156D02*
X51636Y77256D01*
X45057Y80008D02*
X45057Y73404D01*
X45057Y80008D02*
X43223Y80008D01*
X43138Y80006D01*
X43054Y80000D01*
X42970Y79990D01*
X42886Y79977D01*
X42803Y79959D01*
X42721Y79938D01*
X42640Y79913D01*
X42560Y79884D01*
X42482Y79852D01*
X42406Y79816D01*
X42331Y79776D01*
X42258Y79733D01*
X42187Y79687D01*
X42118Y79638D01*
X42051Y79585D01*
X41987Y79529D01*
X41926Y79471D01*
X41868Y79410D01*
X41812Y79346D01*
X41759Y79279D01*
X41710Y79210D01*
X41664Y79139D01*
X41621Y79066D01*
X41581Y78991D01*
X41545Y78915D01*
X41513Y78837D01*
X41484Y78757D01*
X41459Y78676D01*
X41438Y78594D01*
X41420Y78511D01*
X41407Y78427D01*
X41397Y78343D01*
X41391Y78259D01*
X41389Y78174D01*
X41391Y78089D01*
X41397Y78005D01*
X41407Y77921D01*
X41420Y77837D01*
X41438Y77754D01*
X41459Y77672D01*
X41484Y77591D01*
X41513Y77511D01*
X41545Y77433D01*
X41581Y77357D01*
X41621Y77282D01*
X41664Y77209D01*
X41710Y77138D01*
X41759Y77069D01*
X41812Y77002D01*
X41868Y76938D01*
X41926Y76877D01*
X41987Y76819D01*
X42051Y76763D01*
X42118Y76710D01*
X42187Y76661D01*
X42258Y76615D01*
X42331Y76572D01*
X42406Y76532D01*
X42482Y76496D01*
X42560Y76464D01*
X42640Y76435D01*
X42721Y76410D01*
X42803Y76389D01*
X42886Y76371D01*
X42970Y76358D01*
X43054Y76348D01*
X43138Y76342D01*
X43223Y76340D01*
X43223Y76339D02*
X45057Y76339D01*
X37796Y73404D02*
X37796Y80008D01*
X38529Y73404D02*
X37062Y73404D01*
X37062Y80008D02*
X38529Y80008D01*
X31821Y73404D02*
X31747Y73406D01*
X31672Y73412D01*
X31599Y73421D01*
X31525Y73434D01*
X31453Y73451D01*
X31382Y73471D01*
X31311Y73495D01*
X31242Y73523D01*
X31175Y73554D01*
X31109Y73588D01*
X31044Y73626D01*
X30982Y73667D01*
X30922Y73711D01*
X30865Y73758D01*
X30810Y73808D01*
X30757Y73861D01*
X30707Y73916D01*
X30660Y73973D01*
X30616Y74033D01*
X30575Y74095D01*
X30537Y74160D01*
X30503Y74226D01*
X30472Y74293D01*
X30444Y74362D01*
X30420Y74433D01*
X30400Y74504D01*
X30383Y74576D01*
X30370Y74650D01*
X30361Y74723D01*
X30355Y74798D01*
X30353Y74872D01*
X31821Y73404D02*
X31932Y73406D01*
X32043Y73412D01*
X32154Y73422D01*
X32265Y73436D01*
X32374Y73454D01*
X32483Y73476D01*
X32592Y73501D01*
X32699Y73531D01*
X32805Y73564D01*
X32910Y73602D01*
X33013Y73642D01*
X33115Y73687D01*
X33215Y73735D01*
X33314Y73787D01*
X33410Y73842D01*
X33505Y73901D01*
X33597Y73963D01*
X33687Y74029D01*
X33775Y74097D01*
X33860Y74169D01*
X33942Y74244D01*
X34022Y74321D01*
X33839Y78540D02*
X33837Y78614D01*
X33831Y78689D01*
X33822Y78762D01*
X33809Y78836D01*
X33792Y78908D01*
X33772Y78979D01*
X33748Y79050D01*
X33720Y79119D01*
X33689Y79186D01*
X33655Y79252D01*
X33617Y79317D01*
X33576Y79379D01*
X33532Y79439D01*
X33485Y79496D01*
X33435Y79551D01*
X33382Y79604D01*
X33327Y79654D01*
X33270Y79701D01*
X33210Y79745D01*
X33148Y79786D01*
X33083Y79824D01*
X33017Y79858D01*
X32950Y79889D01*
X32881Y79917D01*
X32810Y79941D01*
X32739Y79961D01*
X32667Y79978D01*
X32593Y79991D01*
X32520Y80000D01*
X32445Y80006D01*
X32371Y80008D01*
X32267Y80006D01*
X32163Y80000D01*
X32059Y79990D01*
X31956Y79977D01*
X31853Y79959D01*
X31751Y79937D01*
X31650Y79912D01*
X31550Y79883D01*
X31451Y79850D01*
X31354Y79813D01*
X31258Y79773D01*
X31163Y79729D01*
X31071Y79681D01*
X30980Y79631D01*
X30891Y79576D01*
X30804Y79519D01*
X30720Y79458D01*
X33105Y77255D02*
X33168Y77294D01*
X33228Y77336D01*
X33287Y77381D01*
X33343Y77429D01*
X33396Y77480D01*
X33447Y77533D01*
X33496Y77588D01*
X33541Y77646D01*
X33584Y77706D01*
X33624Y77768D01*
X33660Y77832D01*
X33694Y77898D01*
X33724Y77966D01*
X33751Y78034D01*
X33774Y78104D01*
X33794Y78175D01*
X33810Y78247D01*
X33823Y78320D01*
X33832Y78393D01*
X33837Y78466D01*
X33839Y78540D01*
X31086Y76157D02*
X31023Y76118D01*
X30963Y76076D01*
X30905Y76031D01*
X30848Y75983D01*
X30795Y75932D01*
X30744Y75879D01*
X30695Y75824D01*
X30650Y75766D01*
X30607Y75706D01*
X30567Y75644D01*
X30531Y75580D01*
X30497Y75514D01*
X30467Y75446D01*
X30440Y75378D01*
X30417Y75308D01*
X30397Y75237D01*
X30381Y75165D01*
X30368Y75092D01*
X30359Y75019D01*
X30354Y74946D01*
X30352Y74872D01*
X31087Y76156D02*
X33105Y77256D01*
X26683Y73404D02*
X23747Y73404D01*
X26683Y73404D02*
X26683Y80008D01*
X23747Y80008D01*
X24481Y77073D02*
X26683Y77073D01*
X20343Y80008D02*
X20343Y73404D01*
X17408Y73404D01*
X14271Y76706D02*
X14269Y76851D01*
X14263Y76996D01*
X14254Y77141D01*
X14240Y77286D01*
X14223Y77430D01*
X14201Y77573D01*
X14176Y77717D01*
X14147Y77859D01*
X14115Y78000D01*
X14078Y78141D01*
X14038Y78280D01*
X13994Y78419D01*
X13947Y78556D01*
X13896Y78692D01*
X13841Y78826D01*
X13783Y78959D01*
X13721Y79091D01*
X13695Y79160D01*
X13666Y79227D01*
X13633Y79293D01*
X13597Y79356D01*
X13557Y79418D01*
X13514Y79477D01*
X13468Y79534D01*
X13419Y79588D01*
X13367Y79640D01*
X13312Y79689D01*
X13255Y79734D01*
X13195Y79777D01*
X13133Y79816D01*
X13070Y79852D01*
X13004Y79885D01*
X12937Y79913D01*
X12868Y79939D01*
X12798Y79960D01*
X12727Y79978D01*
X12655Y79991D01*
X12582Y80001D01*
X12509Y80007D01*
X12436Y80009D01*
X12436Y80008D02*
X12363Y80006D01*
X12290Y80000D01*
X12217Y79990D01*
X12146Y79977D01*
X12074Y79959D01*
X12004Y79938D01*
X11936Y79912D01*
X11868Y79884D01*
X11803Y79851D01*
X11739Y79815D01*
X11677Y79776D01*
X11618Y79734D01*
X11561Y79688D01*
X11506Y79639D01*
X11454Y79588D01*
X11405Y79533D01*
X11359Y79476D01*
X11316Y79417D01*
X11276Y79356D01*
X11240Y79292D01*
X11207Y79227D01*
X11178Y79160D01*
X11152Y79091D01*
X11090Y78959D01*
X11032Y78826D01*
X10977Y78692D01*
X10926Y78556D01*
X10879Y78419D01*
X10835Y78280D01*
X10795Y78141D01*
X10758Y78000D01*
X10726Y77859D01*
X10697Y77717D01*
X10672Y77574D01*
X10650Y77430D01*
X10633Y77286D01*
X10619Y77141D01*
X10610Y76996D01*
X10604Y76851D01*
X10602Y76706D01*
X14270Y76706D02*
X14268Y76561D01*
X14262Y76416D01*
X14253Y76271D01*
X14239Y76126D01*
X14222Y75982D01*
X14200Y75839D01*
X14175Y75696D01*
X14147Y75553D01*
X14114Y75412D01*
X14077Y75271D01*
X14037Y75132D01*
X13993Y74993D01*
X13946Y74856D01*
X13895Y74720D01*
X13840Y74586D01*
X13782Y74453D01*
X13720Y74321D01*
X13721Y74322D02*
X13695Y74253D01*
X13666Y74186D01*
X13633Y74120D01*
X13597Y74057D01*
X13557Y73995D01*
X13514Y73936D01*
X13468Y73879D01*
X13419Y73825D01*
X13367Y73773D01*
X13312Y73724D01*
X13255Y73679D01*
X13195Y73636D01*
X13133Y73597D01*
X13070Y73561D01*
X13004Y73528D01*
X12937Y73500D01*
X12868Y73474D01*
X12798Y73453D01*
X12727Y73435D01*
X12655Y73422D01*
X12582Y73412D01*
X12509Y73406D01*
X12436Y73404D01*
X11152Y74321D02*
X11090Y74453D01*
X11032Y74586D01*
X10977Y74720D01*
X10926Y74856D01*
X10879Y74993D01*
X10835Y75132D01*
X10795Y75271D01*
X10758Y75412D01*
X10726Y75553D01*
X10697Y75695D01*
X10672Y75838D01*
X10650Y75982D01*
X10633Y76126D01*
X10619Y76271D01*
X10610Y76416D01*
X10604Y76561D01*
X10602Y76706D01*
X11152Y74321D02*
X11178Y74252D01*
X11207Y74185D01*
X11240Y74120D01*
X11276Y74056D01*
X11316Y73995D01*
X11359Y73936D01*
X11405Y73879D01*
X11454Y73824D01*
X11506Y73773D01*
X11561Y73724D01*
X11618Y73678D01*
X11677Y73636D01*
X11739Y73597D01*
X11803Y73561D01*
X11868Y73528D01*
X11936Y73500D01*
X12004Y73474D01*
X12074Y73453D01*
X12146Y73435D01*
X12217Y73422D01*
X12290Y73412D01*
X12363Y73406D01*
X12436Y73404D01*
X13904Y74872D02*
X10969Y78540D01*
X33534Y67308D02*
X33534Y60704D01*
X33534Y67308D02*
X31700Y67308D01*
X31615Y67306D01*
X31531Y67300D01*
X31447Y67290D01*
X31363Y67277D01*
X31280Y67259D01*
X31198Y67238D01*
X31117Y67213D01*
X31037Y67184D01*
X30959Y67152D01*
X30883Y67116D01*
X30808Y67076D01*
X30735Y67033D01*
X30664Y66987D01*
X30595Y66938D01*
X30528Y66885D01*
X30464Y66829D01*
X30403Y66771D01*
X30345Y66710D01*
X30289Y66646D01*
X30236Y66579D01*
X30187Y66510D01*
X30141Y66439D01*
X30098Y66366D01*
X30058Y66291D01*
X30022Y66215D01*
X29990Y66137D01*
X29961Y66057D01*
X29936Y65976D01*
X29915Y65894D01*
X29897Y65811D01*
X29884Y65727D01*
X29874Y65643D01*
X29868Y65559D01*
X29866Y65474D01*
X29865Y65474D02*
X29865Y62538D01*
X29866Y62538D02*
X29868Y62453D01*
X29874Y62369D01*
X29884Y62285D01*
X29897Y62201D01*
X29915Y62118D01*
X29936Y62036D01*
X29961Y61955D01*
X29990Y61875D01*
X30022Y61797D01*
X30058Y61721D01*
X30098Y61646D01*
X30141Y61573D01*
X30187Y61502D01*
X30236Y61433D01*
X30289Y61366D01*
X30345Y61302D01*
X30403Y61241D01*
X30464Y61183D01*
X30528Y61127D01*
X30595Y61074D01*
X30664Y61025D01*
X30735Y60979D01*
X30808Y60936D01*
X30883Y60896D01*
X30959Y60860D01*
X31037Y60828D01*
X31117Y60799D01*
X31198Y60774D01*
X31280Y60753D01*
X31363Y60735D01*
X31447Y60722D01*
X31531Y60712D01*
X31615Y60706D01*
X31700Y60704D01*
X33534Y60704D01*
X25604Y60704D02*
X25604Y67308D01*
X26338Y60704D02*
X24870Y60704D01*
X24870Y67308D02*
X26338Y67308D01*
X21586Y65474D02*
X21586Y62538D01*
X21586Y65474D02*
X21584Y65559D01*
X21578Y65643D01*
X21568Y65727D01*
X21555Y65811D01*
X21537Y65894D01*
X21516Y65976D01*
X21491Y66057D01*
X21462Y66137D01*
X21430Y66215D01*
X21394Y66291D01*
X21354Y66366D01*
X21311Y66439D01*
X21265Y66510D01*
X21216Y66579D01*
X21163Y66646D01*
X21107Y66710D01*
X21049Y66771D01*
X20988Y66829D01*
X20924Y66885D01*
X20857Y66938D01*
X20788Y66987D01*
X20717Y67033D01*
X20644Y67076D01*
X20569Y67116D01*
X20493Y67152D01*
X20415Y67184D01*
X20335Y67213D01*
X20254Y67238D01*
X20172Y67259D01*
X20089Y67277D01*
X20005Y67290D01*
X19921Y67300D01*
X19837Y67306D01*
X19752Y67308D01*
X19667Y67306D01*
X19583Y67300D01*
X19499Y67290D01*
X19415Y67277D01*
X19332Y67259D01*
X19250Y67238D01*
X19169Y67213D01*
X19089Y67184D01*
X19011Y67152D01*
X18935Y67116D01*
X18860Y67076D01*
X18787Y67033D01*
X18716Y66987D01*
X18647Y66938D01*
X18580Y66885D01*
X18516Y66829D01*
X18455Y66771D01*
X18397Y66710D01*
X18341Y66646D01*
X18288Y66579D01*
X18239Y66510D01*
X18193Y66439D01*
X18150Y66366D01*
X18110Y66291D01*
X18074Y66215D01*
X18042Y66137D01*
X18013Y66057D01*
X17988Y65976D01*
X17967Y65894D01*
X17949Y65811D01*
X17936Y65727D01*
X17926Y65643D01*
X17920Y65559D01*
X17918Y65474D01*
X17917Y65474D02*
X17917Y62538D01*
X17918Y62538D02*
X17920Y62453D01*
X17926Y62369D01*
X17936Y62285D01*
X17949Y62201D01*
X17967Y62118D01*
X17988Y62036D01*
X18013Y61955D01*
X18042Y61875D01*
X18074Y61797D01*
X18110Y61721D01*
X18150Y61646D01*
X18193Y61573D01*
X18239Y61502D01*
X18288Y61433D01*
X18341Y61366D01*
X18397Y61302D01*
X18455Y61241D01*
X18516Y61183D01*
X18580Y61127D01*
X18647Y61074D01*
X18716Y61025D01*
X18787Y60979D01*
X18860Y60936D01*
X18935Y60896D01*
X19011Y60860D01*
X19089Y60828D01*
X19169Y60799D01*
X19250Y60774D01*
X19332Y60753D01*
X19415Y60735D01*
X19499Y60722D01*
X19583Y60712D01*
X19667Y60706D01*
X19752Y60704D01*
X19837Y60706D01*
X19921Y60712D01*
X20005Y60722D01*
X20089Y60735D01*
X20172Y60753D01*
X20254Y60774D01*
X20335Y60799D01*
X20415Y60828D01*
X20493Y60860D01*
X20569Y60896D01*
X20644Y60936D01*
X20717Y60979D01*
X20788Y61025D01*
X20857Y61074D01*
X20924Y61127D01*
X20988Y61183D01*
X21049Y61241D01*
X21107Y61302D01*
X21163Y61366D01*
X21216Y61433D01*
X21265Y61502D01*
X21311Y61573D01*
X21354Y61646D01*
X21394Y61721D01*
X21430Y61797D01*
X21462Y61875D01*
X21491Y61955D01*
X21516Y62036D01*
X21537Y62118D01*
X21555Y62201D01*
X21568Y62285D01*
X21578Y62369D01*
X21584Y62453D01*
X21586Y62538D01*
X14271Y64006D02*
X14269Y64151D01*
X14263Y64296D01*
X14254Y64441D01*
X14240Y64586D01*
X14223Y64730D01*
X14201Y64873D01*
X14176Y65017D01*
X14147Y65159D01*
X14115Y65300D01*
X14078Y65441D01*
X14038Y65580D01*
X13994Y65719D01*
X13947Y65856D01*
X13896Y65992D01*
X13841Y66126D01*
X13783Y66259D01*
X13721Y66391D01*
X13695Y66460D01*
X13666Y66527D01*
X13633Y66593D01*
X13597Y66656D01*
X13557Y66718D01*
X13514Y66777D01*
X13468Y66834D01*
X13419Y66888D01*
X13367Y66940D01*
X13312Y66989D01*
X13255Y67034D01*
X13195Y67077D01*
X13133Y67116D01*
X13070Y67152D01*
X13004Y67185D01*
X12937Y67213D01*
X12868Y67239D01*
X12798Y67260D01*
X12727Y67278D01*
X12655Y67291D01*
X12582Y67301D01*
X12509Y67307D01*
X12436Y67309D01*
X12436Y67308D02*
X12363Y67306D01*
X12290Y67300D01*
X12217Y67290D01*
X12146Y67277D01*
X12074Y67259D01*
X12004Y67238D01*
X11936Y67212D01*
X11868Y67184D01*
X11803Y67151D01*
X11739Y67115D01*
X11677Y67076D01*
X11618Y67034D01*
X11561Y66988D01*
X11506Y66939D01*
X11454Y66888D01*
X11405Y66833D01*
X11359Y66776D01*
X11316Y66717D01*
X11276Y66656D01*
X11240Y66592D01*
X11207Y66527D01*
X11178Y66460D01*
X11152Y66391D01*
X11090Y66259D01*
X11032Y66126D01*
X10977Y65992D01*
X10926Y65856D01*
X10879Y65719D01*
X10835Y65580D01*
X10795Y65441D01*
X10758Y65300D01*
X10726Y65159D01*
X10697Y65017D01*
X10672Y64874D01*
X10650Y64730D01*
X10633Y64586D01*
X10619Y64441D01*
X10610Y64296D01*
X10604Y64151D01*
X10602Y64006D01*
X14270Y64006D02*
X14268Y63861D01*
X14262Y63716D01*
X14253Y63571D01*
X14239Y63426D01*
X14222Y63282D01*
X14200Y63139D01*
X14175Y62996D01*
X14147Y62853D01*
X14114Y62712D01*
X14077Y62571D01*
X14037Y62432D01*
X13993Y62293D01*
X13946Y62156D01*
X13895Y62020D01*
X13840Y61886D01*
X13782Y61753D01*
X13720Y61621D01*
X13721Y61622D02*
X13695Y61553D01*
X13666Y61486D01*
X13633Y61420D01*
X13597Y61357D01*
X13557Y61295D01*
X13514Y61236D01*
X13468Y61179D01*
X13419Y61125D01*
X13367Y61073D01*
X13312Y61024D01*
X13255Y60979D01*
X13195Y60936D01*
X13133Y60897D01*
X13070Y60861D01*
X13004Y60828D01*
X12937Y60800D01*
X12868Y60774D01*
X12798Y60753D01*
X12727Y60735D01*
X12655Y60722D01*
X12582Y60712D01*
X12509Y60706D01*
X12436Y60704D01*
X11152Y61621D02*
X11090Y61753D01*
X11032Y61886D01*
X10977Y62020D01*
X10926Y62156D01*
X10879Y62293D01*
X10835Y62432D01*
X10795Y62571D01*
X10758Y62712D01*
X10726Y62853D01*
X10697Y62995D01*
X10672Y63138D01*
X10650Y63282D01*
X10633Y63426D01*
X10619Y63571D01*
X10610Y63716D01*
X10604Y63861D01*
X10602Y64006D01*
X11152Y61621D02*
X11178Y61552D01*
X11207Y61485D01*
X11240Y61420D01*
X11276Y61356D01*
X11316Y61295D01*
X11359Y61236D01*
X11405Y61179D01*
X11454Y61124D01*
X11506Y61073D01*
X11561Y61024D01*
X11618Y60978D01*
X11677Y60936D01*
X11739Y60897D01*
X11803Y60861D01*
X11868Y60828D01*
X11936Y60800D01*
X12004Y60774D01*
X12074Y60753D01*
X12146Y60735D01*
X12217Y60722D01*
X12290Y60712D01*
X12363Y60706D01*
X12436Y60704D01*
X13904Y62172D02*
X10969Y65840D01*
X33534Y54608D02*
X33534Y48004D01*
X33534Y54608D02*
X31700Y54608D01*
X31615Y54606D01*
X31531Y54600D01*
X31447Y54590D01*
X31363Y54577D01*
X31280Y54559D01*
X31198Y54538D01*
X31117Y54513D01*
X31037Y54484D01*
X30959Y54452D01*
X30883Y54416D01*
X30808Y54376D01*
X30735Y54333D01*
X30664Y54287D01*
X30595Y54238D01*
X30528Y54185D01*
X30464Y54129D01*
X30403Y54071D01*
X30345Y54010D01*
X30289Y53946D01*
X30236Y53879D01*
X30187Y53810D01*
X30141Y53739D01*
X30098Y53666D01*
X30058Y53591D01*
X30022Y53515D01*
X29990Y53437D01*
X29961Y53357D01*
X29936Y53276D01*
X29915Y53194D01*
X29897Y53111D01*
X29884Y53027D01*
X29874Y52943D01*
X29868Y52859D01*
X29866Y52774D01*
X29865Y52774D02*
X29865Y49838D01*
X29866Y49838D02*
X29868Y49753D01*
X29874Y49669D01*
X29884Y49585D01*
X29897Y49501D01*
X29915Y49418D01*
X29936Y49336D01*
X29961Y49255D01*
X29990Y49175D01*
X30022Y49097D01*
X30058Y49021D01*
X30098Y48946D01*
X30141Y48873D01*
X30187Y48802D01*
X30236Y48733D01*
X30289Y48666D01*
X30345Y48602D01*
X30403Y48541D01*
X30464Y48483D01*
X30528Y48427D01*
X30595Y48374D01*
X30664Y48325D01*
X30735Y48279D01*
X30808Y48236D01*
X30883Y48196D01*
X30959Y48160D01*
X31037Y48128D01*
X31117Y48099D01*
X31198Y48074D01*
X31280Y48053D01*
X31363Y48035D01*
X31447Y48022D01*
X31531Y48012D01*
X31615Y48006D01*
X31700Y48004D01*
X33534Y48004D01*
X25604Y48004D02*
X25604Y54608D01*
X26338Y48004D02*
X24870Y48004D01*
X24870Y54608D02*
X26338Y54608D01*
X21586Y52774D02*
X21586Y49838D01*
X21586Y52774D02*
X21584Y52859D01*
X21578Y52943D01*
X21568Y53027D01*
X21555Y53111D01*
X21537Y53194D01*
X21516Y53276D01*
X21491Y53357D01*
X21462Y53437D01*
X21430Y53515D01*
X21394Y53591D01*
X21354Y53666D01*
X21311Y53739D01*
X21265Y53810D01*
X21216Y53879D01*
X21163Y53946D01*
X21107Y54010D01*
X21049Y54071D01*
X20988Y54129D01*
X20924Y54185D01*
X20857Y54238D01*
X20788Y54287D01*
X20717Y54333D01*
X20644Y54376D01*
X20569Y54416D01*
X20493Y54452D01*
X20415Y54484D01*
X20335Y54513D01*
X20254Y54538D01*
X20172Y54559D01*
X20089Y54577D01*
X20005Y54590D01*
X19921Y54600D01*
X19837Y54606D01*
X19752Y54608D01*
X19667Y54606D01*
X19583Y54600D01*
X19499Y54590D01*
X19415Y54577D01*
X19332Y54559D01*
X19250Y54538D01*
X19169Y54513D01*
X19089Y54484D01*
X19011Y54452D01*
X18935Y54416D01*
X18860Y54376D01*
X18787Y54333D01*
X18716Y54287D01*
X18647Y54238D01*
X18580Y54185D01*
X18516Y54129D01*
X18455Y54071D01*
X18397Y54010D01*
X18341Y53946D01*
X18288Y53879D01*
X18239Y53810D01*
X18193Y53739D01*
X18150Y53666D01*
X18110Y53591D01*
X18074Y53515D01*
X18042Y53437D01*
X18013Y53357D01*
X17988Y53276D01*
X17967Y53194D01*
X17949Y53111D01*
X17936Y53027D01*
X17926Y52943D01*
X17920Y52859D01*
X17918Y52774D01*
X17917Y52774D02*
X17917Y49838D01*
X17918Y49838D02*
X17920Y49753D01*
X17926Y49669D01*
X17936Y49585D01*
X17949Y49501D01*
X17967Y49418D01*
X17988Y49336D01*
X18013Y49255D01*
X18042Y49175D01*
X18074Y49097D01*
X18110Y49021D01*
X18150Y48946D01*
X18193Y48873D01*
X18239Y48802D01*
X18288Y48733D01*
X18341Y48666D01*
X18397Y48602D01*
X18455Y48541D01*
X18516Y48483D01*
X18580Y48427D01*
X18647Y48374D01*
X18716Y48325D01*
X18787Y48279D01*
X18860Y48236D01*
X18935Y48196D01*
X19011Y48160D01*
X19089Y48128D01*
X19169Y48099D01*
X19250Y48074D01*
X19332Y48053D01*
X19415Y48035D01*
X19499Y48022D01*
X19583Y48012D01*
X19667Y48006D01*
X19752Y48004D01*
X19837Y48006D01*
X19921Y48012D01*
X20005Y48022D01*
X20089Y48035D01*
X20172Y48053D01*
X20254Y48074D01*
X20335Y48099D01*
X20415Y48128D01*
X20493Y48160D01*
X20569Y48196D01*
X20644Y48236D01*
X20717Y48279D01*
X20788Y48325D01*
X20857Y48374D01*
X20924Y48427D01*
X20988Y48483D01*
X21049Y48541D01*
X21107Y48602D01*
X21163Y48666D01*
X21216Y48733D01*
X21265Y48802D01*
X21311Y48873D01*
X21354Y48946D01*
X21394Y49021D01*
X21430Y49097D01*
X21462Y49175D01*
X21491Y49255D01*
X21516Y49336D01*
X21537Y49418D01*
X21555Y49501D01*
X21568Y49585D01*
X21578Y49669D01*
X21584Y49753D01*
X21586Y49838D01*
X14271Y53140D02*
X12436Y54608D01*
X12436Y48004D01*
X10602Y48004D02*
X14271Y48004D01*
X33534Y41908D02*
X33534Y35304D01*
X33534Y41908D02*
X31700Y41908D01*
X31615Y41906D01*
X31531Y41900D01*
X31447Y41890D01*
X31363Y41877D01*
X31280Y41859D01*
X31198Y41838D01*
X31117Y41813D01*
X31037Y41784D01*
X30959Y41752D01*
X30883Y41716D01*
X30808Y41676D01*
X30735Y41633D01*
X30664Y41587D01*
X30595Y41538D01*
X30528Y41485D01*
X30464Y41429D01*
X30403Y41371D01*
X30345Y41310D01*
X30289Y41246D01*
X30236Y41179D01*
X30187Y41110D01*
X30141Y41039D01*
X30098Y40966D01*
X30058Y40891D01*
X30022Y40815D01*
X29990Y40737D01*
X29961Y40657D01*
X29936Y40576D01*
X29915Y40494D01*
X29897Y40411D01*
X29884Y40327D01*
X29874Y40243D01*
X29868Y40159D01*
X29866Y40074D01*
X29865Y40074D02*
X29865Y37138D01*
X29866Y37138D02*
X29868Y37053D01*
X29874Y36969D01*
X29884Y36885D01*
X29897Y36801D01*
X29915Y36718D01*
X29936Y36636D01*
X29961Y36555D01*
X29990Y36475D01*
X30022Y36397D01*
X30058Y36321D01*
X30098Y36246D01*
X30141Y36173D01*
X30187Y36102D01*
X30236Y36033D01*
X30289Y35966D01*
X30345Y35902D01*
X30403Y35841D01*
X30464Y35783D01*
X30528Y35727D01*
X30595Y35674D01*
X30664Y35625D01*
X30735Y35579D01*
X30808Y35536D01*
X30883Y35496D01*
X30959Y35460D01*
X31037Y35428D01*
X31117Y35399D01*
X31198Y35374D01*
X31280Y35353D01*
X31363Y35335D01*
X31447Y35322D01*
X31531Y35312D01*
X31615Y35306D01*
X31700Y35304D01*
X33534Y35304D01*
X25604Y35304D02*
X25604Y41908D01*
X26338Y35304D02*
X24870Y35304D01*
X24870Y41908D02*
X26338Y41908D01*
X21586Y40074D02*
X21586Y37138D01*
X21586Y40074D02*
X21584Y40159D01*
X21578Y40243D01*
X21568Y40327D01*
X21555Y40411D01*
X21537Y40494D01*
X21516Y40576D01*
X21491Y40657D01*
X21462Y40737D01*
X21430Y40815D01*
X21394Y40891D01*
X21354Y40966D01*
X21311Y41039D01*
X21265Y41110D01*
X21216Y41179D01*
X21163Y41246D01*
X21107Y41310D01*
X21049Y41371D01*
X20988Y41429D01*
X20924Y41485D01*
X20857Y41538D01*
X20788Y41587D01*
X20717Y41633D01*
X20644Y41676D01*
X20569Y41716D01*
X20493Y41752D01*
X20415Y41784D01*
X20335Y41813D01*
X20254Y41838D01*
X20172Y41859D01*
X20089Y41877D01*
X20005Y41890D01*
X19921Y41900D01*
X19837Y41906D01*
X19752Y41908D01*
X19667Y41906D01*
X19583Y41900D01*
X19499Y41890D01*
X19415Y41877D01*
X19332Y41859D01*
X19250Y41838D01*
X19169Y41813D01*
X19089Y41784D01*
X19011Y41752D01*
X18935Y41716D01*
X18860Y41676D01*
X18787Y41633D01*
X18716Y41587D01*
X18647Y41538D01*
X18580Y41485D01*
X18516Y41429D01*
X18455Y41371D01*
X18397Y41310D01*
X18341Y41246D01*
X18288Y41179D01*
X18239Y41110D01*
X18193Y41039D01*
X18150Y40966D01*
X18110Y40891D01*
X18074Y40815D01*
X18042Y40737D01*
X18013Y40657D01*
X17988Y40576D01*
X17967Y40494D01*
X17949Y40411D01*
X17936Y40327D01*
X17926Y40243D01*
X17920Y40159D01*
X17918Y40074D01*
X17917Y40074D02*
X17917Y37138D01*
X17918Y37138D02*
X17920Y37053D01*
X17926Y36969D01*
X17936Y36885D01*
X17949Y36801D01*
X17967Y36718D01*
X17988Y36636D01*
X18013Y36555D01*
X18042Y36475D01*
X18074Y36397D01*
X18110Y36321D01*
X18150Y36246D01*
X18193Y36173D01*
X18239Y36102D01*
X18288Y36033D01*
X18341Y35966D01*
X18397Y35902D01*
X18455Y35841D01*
X18516Y35783D01*
X18580Y35727D01*
X18647Y35674D01*
X18716Y35625D01*
X18787Y35579D01*
X18860Y35536D01*
X18935Y35496D01*
X19011Y35460D01*
X19089Y35428D01*
X19169Y35399D01*
X19250Y35374D01*
X19332Y35353D01*
X19415Y35335D01*
X19499Y35322D01*
X19583Y35312D01*
X19667Y35306D01*
X19752Y35304D01*
X19837Y35306D01*
X19921Y35312D01*
X20005Y35322D01*
X20089Y35335D01*
X20172Y35353D01*
X20254Y35374D01*
X20335Y35399D01*
X20415Y35428D01*
X20493Y35460D01*
X20569Y35496D01*
X20644Y35536D01*
X20717Y35579D01*
X20788Y35625D01*
X20857Y35674D01*
X20924Y35727D01*
X20988Y35783D01*
X21049Y35841D01*
X21107Y35902D01*
X21163Y35966D01*
X21216Y36033D01*
X21265Y36102D01*
X21311Y36173D01*
X21354Y36246D01*
X21394Y36321D01*
X21430Y36397D01*
X21462Y36475D01*
X21491Y36555D01*
X21516Y36636D01*
X21537Y36718D01*
X21555Y36801D01*
X21568Y36885D01*
X21578Y36969D01*
X21584Y37053D01*
X21586Y37138D01*
X12253Y41908D02*
X12174Y41906D01*
X12096Y41901D01*
X12018Y41891D01*
X11941Y41878D01*
X11864Y41861D01*
X11788Y41841D01*
X11713Y41817D01*
X11639Y41790D01*
X11567Y41759D01*
X11496Y41724D01*
X11428Y41687D01*
X11360Y41646D01*
X11295Y41602D01*
X11232Y41555D01*
X11172Y41505D01*
X11114Y41452D01*
X11058Y41396D01*
X11005Y41338D01*
X10955Y41278D01*
X10908Y41215D01*
X10864Y41150D01*
X10823Y41083D01*
X10786Y41014D01*
X10751Y40943D01*
X10720Y40871D01*
X10693Y40797D01*
X10669Y40722D01*
X10649Y40646D01*
X10632Y40569D01*
X10619Y40492D01*
X10609Y40414D01*
X10604Y40336D01*
X10602Y40257D01*
X12253Y41908D02*
X12342Y41906D01*
X12431Y41901D01*
X12519Y41891D01*
X12607Y41878D01*
X12694Y41862D01*
X12781Y41841D01*
X12866Y41817D01*
X12951Y41790D01*
X13034Y41759D01*
X13116Y41724D01*
X13197Y41686D01*
X13276Y41645D01*
X13352Y41601D01*
X13428Y41553D01*
X13501Y41502D01*
X13571Y41449D01*
X13640Y41392D01*
X13706Y41332D01*
X13769Y41270D01*
X13830Y41205D01*
X13888Y41138D01*
X13943Y41068D01*
X13996Y40996D01*
X14045Y40922D01*
X14091Y40846D01*
X14133Y40768D01*
X14173Y40688D01*
X14209Y40607D01*
X14242Y40524D01*
X14271Y40440D01*
X11152Y38973D02*
X11096Y39029D01*
X11042Y39088D01*
X10991Y39149D01*
X10942Y39213D01*
X10897Y39278D01*
X10854Y39346D01*
X10815Y39415D01*
X10778Y39486D01*
X10745Y39559D01*
X10716Y39633D01*
X10689Y39708D01*
X10666Y39784D01*
X10647Y39862D01*
X10631Y39940D01*
X10618Y40018D01*
X10609Y40098D01*
X10604Y40177D01*
X10602Y40257D01*
X11152Y38973D02*
X14271Y35304D01*
X10602Y35304D01*
X33534Y29208D02*
X33534Y22604D01*
X33534Y29208D02*
X31700Y29208D01*
X31615Y29206D01*
X31531Y29200D01*
X31447Y29190D01*
X31363Y29177D01*
X31280Y29159D01*
X31198Y29138D01*
X31117Y29113D01*
X31037Y29084D01*
X30959Y29052D01*
X30883Y29016D01*
X30808Y28976D01*
X30735Y28933D01*
X30664Y28887D01*
X30595Y28838D01*
X30528Y28785D01*
X30464Y28729D01*
X30403Y28671D01*
X30345Y28610D01*
X30289Y28546D01*
X30236Y28479D01*
X30187Y28410D01*
X30141Y28339D01*
X30098Y28266D01*
X30058Y28191D01*
X30022Y28115D01*
X29990Y28037D01*
X29961Y27957D01*
X29936Y27876D01*
X29915Y27794D01*
X29897Y27711D01*
X29884Y27627D01*
X29874Y27543D01*
X29868Y27459D01*
X29866Y27374D01*
X29865Y27374D02*
X29865Y24438D01*
X29866Y24438D02*
X29868Y24353D01*
X29874Y24269D01*
X29884Y24185D01*
X29897Y24101D01*
X29915Y24018D01*
X29936Y23936D01*
X29961Y23855D01*
X29990Y23775D01*
X30022Y23697D01*
X30058Y23621D01*
X30098Y23546D01*
X30141Y23473D01*
X30187Y23402D01*
X30236Y23333D01*
X30289Y23266D01*
X30345Y23202D01*
X30403Y23141D01*
X30464Y23083D01*
X30528Y23027D01*
X30595Y22974D01*
X30664Y22925D01*
X30735Y22879D01*
X30808Y22836D01*
X30883Y22796D01*
X30959Y22760D01*
X31037Y22728D01*
X31117Y22699D01*
X31198Y22674D01*
X31280Y22653D01*
X31363Y22635D01*
X31447Y22622D01*
X31531Y22612D01*
X31615Y22606D01*
X31700Y22604D01*
X33534Y22604D01*
X25604Y22604D02*
X25604Y29208D01*
X26338Y22604D02*
X24870Y22604D01*
X24870Y29208D02*
X26338Y29208D01*
X21586Y27374D02*
X21586Y24438D01*
X21586Y27374D02*
X21584Y27459D01*
X21578Y27543D01*
X21568Y27627D01*
X21555Y27711D01*
X21537Y27794D01*
X21516Y27876D01*
X21491Y27957D01*
X21462Y28037D01*
X21430Y28115D01*
X21394Y28191D01*
X21354Y28266D01*
X21311Y28339D01*
X21265Y28410D01*
X21216Y28479D01*
X21163Y28546D01*
X21107Y28610D01*
X21049Y28671D01*
X20988Y28729D01*
X20924Y28785D01*
X20857Y28838D01*
X20788Y28887D01*
X20717Y28933D01*
X20644Y28976D01*
X20569Y29016D01*
X20493Y29052D01*
X20415Y29084D01*
X20335Y29113D01*
X20254Y29138D01*
X20172Y29159D01*
X20089Y29177D01*
X20005Y29190D01*
X19921Y29200D01*
X19837Y29206D01*
X19752Y29208D01*
X19667Y29206D01*
X19583Y29200D01*
X19499Y29190D01*
X19415Y29177D01*
X19332Y29159D01*
X19250Y29138D01*
X19169Y29113D01*
X19089Y29084D01*
X19011Y29052D01*
X18935Y29016D01*
X18860Y28976D01*
X18787Y28933D01*
X18716Y28887D01*
X18647Y28838D01*
X18580Y28785D01*
X18516Y28729D01*
X18455Y28671D01*
X18397Y28610D01*
X18341Y28546D01*
X18288Y28479D01*
X18239Y28410D01*
X18193Y28339D01*
X18150Y28266D01*
X18110Y28191D01*
X18074Y28115D01*
X18042Y28037D01*
X18013Y27957D01*
X17988Y27876D01*
X17967Y27794D01*
X17949Y27711D01*
X17936Y27627D01*
X17926Y27543D01*
X17920Y27459D01*
X17918Y27374D01*
X17917Y27374D02*
X17917Y24438D01*
X17918Y24438D02*
X17920Y24353D01*
X17926Y24269D01*
X17936Y24185D01*
X17949Y24101D01*
X17967Y24018D01*
X17988Y23936D01*
X18013Y23855D01*
X18042Y23775D01*
X18074Y23697D01*
X18110Y23621D01*
X18150Y23546D01*
X18193Y23473D01*
X18239Y23402D01*
X18288Y23333D01*
X18341Y23266D01*
X18397Y23202D01*
X18455Y23141D01*
X18516Y23083D01*
X18580Y23027D01*
X18647Y22974D01*
X18716Y22925D01*
X18787Y22879D01*
X18860Y22836D01*
X18935Y22796D01*
X19011Y22760D01*
X19089Y22728D01*
X19169Y22699D01*
X19250Y22674D01*
X19332Y22653D01*
X19415Y22635D01*
X19499Y22622D01*
X19583Y22612D01*
X19667Y22606D01*
X19752Y22604D01*
X19837Y22606D01*
X19921Y22612D01*
X20005Y22622D01*
X20089Y22635D01*
X20172Y22653D01*
X20254Y22674D01*
X20335Y22699D01*
X20415Y22728D01*
X20493Y22760D01*
X20569Y22796D01*
X20644Y22836D01*
X20717Y22879D01*
X20788Y22925D01*
X20857Y22974D01*
X20924Y23027D01*
X20988Y23083D01*
X21049Y23141D01*
X21107Y23202D01*
X21163Y23266D01*
X21216Y23333D01*
X21265Y23402D01*
X21311Y23473D01*
X21354Y23546D01*
X21394Y23621D01*
X21430Y23697D01*
X21462Y23775D01*
X21491Y23855D01*
X21516Y23936D01*
X21537Y24018D01*
X21555Y24101D01*
X21568Y24185D01*
X21578Y24269D01*
X21584Y24353D01*
X21586Y24438D01*
X14271Y22604D02*
X12436Y22604D01*
X12351Y22606D01*
X12267Y22612D01*
X12183Y22622D01*
X12099Y22635D01*
X12016Y22653D01*
X11934Y22674D01*
X11853Y22699D01*
X11773Y22728D01*
X11695Y22760D01*
X11619Y22796D01*
X11544Y22836D01*
X11471Y22879D01*
X11400Y22925D01*
X11331Y22974D01*
X11264Y23027D01*
X11200Y23083D01*
X11139Y23141D01*
X11081Y23202D01*
X11025Y23266D01*
X10972Y23333D01*
X10923Y23402D01*
X10877Y23473D01*
X10834Y23546D01*
X10794Y23621D01*
X10758Y23697D01*
X10726Y23775D01*
X10697Y23855D01*
X10672Y23936D01*
X10651Y24018D01*
X10633Y24101D01*
X10620Y24185D01*
X10610Y24269D01*
X10604Y24353D01*
X10602Y24438D01*
X10604Y24523D01*
X10610Y24607D01*
X10620Y24691D01*
X10633Y24775D01*
X10651Y24858D01*
X10672Y24940D01*
X10697Y25021D01*
X10726Y25101D01*
X10758Y25179D01*
X10794Y25255D01*
X10834Y25330D01*
X10877Y25403D01*
X10923Y25474D01*
X10972Y25543D01*
X11025Y25610D01*
X11081Y25674D01*
X11139Y25735D01*
X11200Y25793D01*
X11264Y25849D01*
X11331Y25902D01*
X11400Y25951D01*
X11471Y25997D01*
X11544Y26040D01*
X11619Y26080D01*
X11695Y26116D01*
X11773Y26148D01*
X11853Y26177D01*
X11934Y26202D01*
X12016Y26223D01*
X12099Y26241D01*
X12183Y26254D01*
X12267Y26264D01*
X12351Y26270D01*
X12436Y26272D01*
X12070Y29208D02*
X14271Y29208D01*
X12070Y29208D02*
X11994Y29206D01*
X11919Y29200D01*
X11844Y29191D01*
X11770Y29177D01*
X11696Y29160D01*
X11624Y29138D01*
X11552Y29114D01*
X11482Y29085D01*
X11414Y29053D01*
X11347Y29018D01*
X11282Y28979D01*
X11219Y28936D01*
X11159Y28891D01*
X11101Y28843D01*
X11045Y28791D01*
X10993Y28737D01*
X10943Y28680D01*
X10896Y28621D01*
X10852Y28560D01*
X10811Y28496D01*
X10774Y28430D01*
X10740Y28362D01*
X10710Y28293D01*
X10683Y28222D01*
X10660Y28150D01*
X10641Y28077D01*
X10626Y28003D01*
X10614Y27928D01*
X10606Y27853D01*
X10602Y27778D01*
X10602Y27702D01*
X10606Y27627D01*
X10614Y27552D01*
X10626Y27477D01*
X10641Y27403D01*
X10660Y27330D01*
X10683Y27258D01*
X10710Y27187D01*
X10740Y27118D01*
X10774Y27050D01*
X10811Y26984D01*
X10852Y26920D01*
X10896Y26859D01*
X10943Y26800D01*
X10993Y26743D01*
X11045Y26689D01*
X11101Y26637D01*
X11159Y26589D01*
X11219Y26544D01*
X11282Y26501D01*
X11347Y26462D01*
X11414Y26427D01*
X11482Y26395D01*
X11552Y26366D01*
X11624Y26342D01*
X11696Y26320D01*
X11770Y26303D01*
X11844Y26289D01*
X11919Y26280D01*
X11994Y26274D01*
X12070Y26272D01*
X12070Y26273D02*
X13537Y26273D01*
X153858Y124712D02*
X151657Y131316D01*
X149455Y124712D01*
X150006Y126363D02*
X153308Y126363D01*
X145932Y124712D02*
X145932Y131316D01*
X144098Y131316D01*
X144013Y131314D01*
X143929Y131308D01*
X143845Y131298D01*
X143761Y131285D01*
X143678Y131267D01*
X143596Y131246D01*
X143515Y131221D01*
X143435Y131192D01*
X143357Y131160D01*
X143281Y131124D01*
X143206Y131084D01*
X143133Y131041D01*
X143062Y130995D01*
X142993Y130946D01*
X142926Y130893D01*
X142862Y130837D01*
X142801Y130779D01*
X142743Y130718D01*
X142687Y130654D01*
X142634Y130587D01*
X142585Y130518D01*
X142539Y130447D01*
X142496Y130374D01*
X142456Y130299D01*
X142420Y130223D01*
X142388Y130145D01*
X142359Y130065D01*
X142334Y129984D01*
X142313Y129902D01*
X142295Y129819D01*
X142282Y129735D01*
X142272Y129651D01*
X142266Y129567D01*
X142264Y129482D01*
X142263Y129482D02*
X142263Y126546D01*
X142264Y126546D02*
X142266Y126461D01*
X142272Y126377D01*
X142282Y126293D01*
X142295Y126209D01*
X142313Y126126D01*
X142334Y126044D01*
X142359Y125963D01*
X142388Y125883D01*
X142420Y125805D01*
X142456Y125729D01*
X142496Y125654D01*
X142539Y125581D01*
X142585Y125510D01*
X142634Y125441D01*
X142687Y125374D01*
X142743Y125310D01*
X142801Y125249D01*
X142862Y125191D01*
X142926Y125135D01*
X142993Y125082D01*
X143062Y125033D01*
X143133Y124987D01*
X143206Y124944D01*
X143281Y124904D01*
X143357Y124868D01*
X143435Y124836D01*
X143515Y124807D01*
X143596Y124782D01*
X143678Y124761D01*
X143761Y124743D01*
X143845Y124730D01*
X143929Y124720D01*
X144013Y124714D01*
X144098Y124712D01*
X145932Y124712D01*
X136941Y124712D02*
X135474Y124712D01*
X136941Y124712D02*
X137015Y124714D01*
X137090Y124720D01*
X137163Y124729D01*
X137237Y124742D01*
X137309Y124759D01*
X137380Y124779D01*
X137451Y124803D01*
X137520Y124831D01*
X137588Y124862D01*
X137653Y124896D01*
X137718Y124934D01*
X137780Y124975D01*
X137840Y125019D01*
X137897Y125066D01*
X137952Y125116D01*
X138005Y125169D01*
X138055Y125224D01*
X138102Y125281D01*
X138146Y125341D01*
X138187Y125403D01*
X138225Y125468D01*
X138259Y125534D01*
X138290Y125601D01*
X138318Y125670D01*
X138342Y125741D01*
X138362Y125812D01*
X138379Y125885D01*
X138392Y125958D01*
X138401Y126032D01*
X138407Y126106D01*
X138409Y126180D01*
X138409Y129848D01*
X138407Y129922D01*
X138401Y129997D01*
X138392Y130070D01*
X138379Y130143D01*
X138362Y130216D01*
X138342Y130287D01*
X138318Y130358D01*
X138290Y130427D01*
X138259Y130494D01*
X138225Y130560D01*
X138187Y130625D01*
X138146Y130687D01*
X138102Y130747D01*
X138055Y130804D01*
X138005Y130859D01*
X137952Y130912D01*
X137897Y130962D01*
X137840Y131009D01*
X137780Y131053D01*
X137718Y131094D01*
X137653Y131132D01*
X137588Y131166D01*
X137520Y131197D01*
X137451Y131225D01*
X137381Y131249D01*
X137309Y131269D01*
X137237Y131286D01*
X137163Y131299D01*
X137090Y131308D01*
X137015Y131314D01*
X136941Y131316D01*
X135474Y131316D01*
X130259Y131316D02*
X130180Y131314D01*
X130102Y131309D01*
X130024Y131299D01*
X129947Y131286D01*
X129870Y131269D01*
X129794Y131249D01*
X129719Y131225D01*
X129645Y131198D01*
X129573Y131167D01*
X129502Y131132D01*
X129434Y131095D01*
X129366Y131054D01*
X129301Y131010D01*
X129238Y130963D01*
X129178Y130913D01*
X129120Y130860D01*
X129064Y130804D01*
X129011Y130746D01*
X128961Y130686D01*
X128914Y130623D01*
X128870Y130558D01*
X128829Y130491D01*
X128792Y130422D01*
X128757Y130351D01*
X128726Y130279D01*
X128699Y130205D01*
X128675Y130130D01*
X128655Y130054D01*
X128638Y129977D01*
X128625Y129900D01*
X128615Y129822D01*
X128610Y129744D01*
X128608Y129665D01*
X130259Y131316D02*
X130348Y131314D01*
X130437Y131309D01*
X130525Y131299D01*
X130613Y131286D01*
X130700Y131270D01*
X130787Y131249D01*
X130872Y131225D01*
X130957Y131198D01*
X131040Y131167D01*
X131122Y131132D01*
X131203Y131094D01*
X131282Y131053D01*
X131358Y131009D01*
X131434Y130961D01*
X131507Y130910D01*
X131577Y130857D01*
X131646Y130800D01*
X131712Y130740D01*
X131775Y130678D01*
X131836Y130613D01*
X131894Y130546D01*
X131949Y130476D01*
X132002Y130404D01*
X132051Y130330D01*
X132097Y130254D01*
X132139Y130176D01*
X132179Y130096D01*
X132215Y130015D01*
X132248Y129932D01*
X132277Y129848D01*
X129159Y128381D02*
X129103Y128437D01*
X129049Y128496D01*
X128998Y128557D01*
X128949Y128621D01*
X128904Y128686D01*
X128861Y128754D01*
X128822Y128823D01*
X128785Y128894D01*
X128752Y128967D01*
X128723Y129041D01*
X128696Y129116D01*
X128673Y129192D01*
X128654Y129270D01*
X128638Y129348D01*
X128625Y129426D01*
X128616Y129506D01*
X128611Y129585D01*
X128609Y129665D01*
X129159Y128381D02*
X132277Y124712D01*
X128608Y124712D01*
X153858Y118616D02*
X153858Y112012D01*
X153858Y118616D02*
X152024Y118616D01*
X151939Y118614D01*
X151855Y118608D01*
X151771Y118598D01*
X151687Y118585D01*
X151604Y118567D01*
X151522Y118546D01*
X151441Y118521D01*
X151361Y118492D01*
X151283Y118460D01*
X151207Y118424D01*
X151132Y118384D01*
X151059Y118341D01*
X150988Y118295D01*
X150919Y118246D01*
X150852Y118193D01*
X150788Y118137D01*
X150727Y118079D01*
X150669Y118018D01*
X150613Y117954D01*
X150560Y117887D01*
X150511Y117818D01*
X150465Y117747D01*
X150422Y117674D01*
X150382Y117599D01*
X150346Y117523D01*
X150314Y117445D01*
X150285Y117365D01*
X150260Y117284D01*
X150239Y117202D01*
X150221Y117119D01*
X150208Y117035D01*
X150198Y116951D01*
X150192Y116867D01*
X150190Y116782D01*
X150189Y116782D02*
X150189Y113846D01*
X150190Y113846D02*
X150192Y113761D01*
X150198Y113677D01*
X150208Y113593D01*
X150221Y113509D01*
X150239Y113426D01*
X150260Y113344D01*
X150285Y113263D01*
X150314Y113183D01*
X150346Y113105D01*
X150382Y113029D01*
X150422Y112954D01*
X150465Y112881D01*
X150511Y112810D01*
X150560Y112741D01*
X150613Y112674D01*
X150669Y112610D01*
X150727Y112549D01*
X150788Y112491D01*
X150852Y112435D01*
X150919Y112382D01*
X150988Y112333D01*
X151059Y112287D01*
X151132Y112244D01*
X151207Y112204D01*
X151283Y112168D01*
X151361Y112136D01*
X151441Y112107D01*
X151522Y112082D01*
X151604Y112061D01*
X151687Y112043D01*
X151771Y112030D01*
X151855Y112020D01*
X151939Y112014D01*
X152024Y112012D01*
X153858Y112012D01*
X145928Y112012D02*
X145928Y118616D01*
X146661Y112012D02*
X145194Y112012D01*
X145194Y118616D02*
X146661Y118616D01*
X141910Y116782D02*
X141910Y113846D01*
X141909Y116782D02*
X141907Y116867D01*
X141901Y116951D01*
X141891Y117035D01*
X141878Y117119D01*
X141860Y117202D01*
X141839Y117284D01*
X141814Y117365D01*
X141785Y117445D01*
X141753Y117523D01*
X141717Y117599D01*
X141677Y117674D01*
X141634Y117747D01*
X141588Y117818D01*
X141539Y117887D01*
X141486Y117954D01*
X141430Y118018D01*
X141372Y118079D01*
X141311Y118137D01*
X141247Y118193D01*
X141180Y118246D01*
X141111Y118295D01*
X141040Y118341D01*
X140967Y118384D01*
X140892Y118424D01*
X140816Y118460D01*
X140738Y118492D01*
X140658Y118521D01*
X140577Y118546D01*
X140495Y118567D01*
X140412Y118585D01*
X140328Y118598D01*
X140244Y118608D01*
X140160Y118614D01*
X140075Y118616D01*
X139990Y118614D01*
X139906Y118608D01*
X139822Y118598D01*
X139738Y118585D01*
X139655Y118567D01*
X139573Y118546D01*
X139492Y118521D01*
X139412Y118492D01*
X139334Y118460D01*
X139258Y118424D01*
X139183Y118384D01*
X139110Y118341D01*
X139039Y118295D01*
X138970Y118246D01*
X138903Y118193D01*
X138839Y118137D01*
X138778Y118079D01*
X138720Y118018D01*
X138664Y117954D01*
X138611Y117887D01*
X138562Y117818D01*
X138516Y117747D01*
X138473Y117674D01*
X138433Y117599D01*
X138397Y117523D01*
X138365Y117445D01*
X138336Y117365D01*
X138311Y117284D01*
X138290Y117202D01*
X138272Y117119D01*
X138259Y117035D01*
X138249Y116951D01*
X138243Y116867D01*
X138241Y116782D01*
X138241Y113846D01*
X138243Y113761D01*
X138249Y113677D01*
X138259Y113593D01*
X138272Y113509D01*
X138290Y113426D01*
X138311Y113344D01*
X138336Y113263D01*
X138365Y113183D01*
X138397Y113105D01*
X138433Y113029D01*
X138473Y112954D01*
X138516Y112881D01*
X138562Y112810D01*
X138611Y112741D01*
X138664Y112674D01*
X138720Y112610D01*
X138778Y112549D01*
X138839Y112491D01*
X138903Y112435D01*
X138970Y112382D01*
X139039Y112333D01*
X139110Y112287D01*
X139183Y112244D01*
X139258Y112204D01*
X139334Y112168D01*
X139412Y112136D01*
X139492Y112107D01*
X139573Y112082D01*
X139655Y112061D01*
X139738Y112043D01*
X139822Y112030D01*
X139906Y112020D01*
X139990Y112014D01*
X140075Y112012D01*
X140160Y112014D01*
X140244Y112020D01*
X140328Y112030D01*
X140412Y112043D01*
X140495Y112061D01*
X140577Y112082D01*
X140658Y112107D01*
X140738Y112136D01*
X140816Y112168D01*
X140892Y112204D01*
X140967Y112244D01*
X141040Y112287D01*
X141111Y112333D01*
X141180Y112382D01*
X141247Y112435D01*
X141311Y112491D01*
X141372Y112549D01*
X141430Y112610D01*
X141486Y112674D01*
X141539Y112741D01*
X141588Y112810D01*
X141634Y112881D01*
X141677Y112954D01*
X141717Y113029D01*
X141753Y113105D01*
X141785Y113183D01*
X141814Y113263D01*
X141839Y113344D01*
X141860Y113426D01*
X141878Y113509D01*
X141891Y113593D01*
X141901Y113677D01*
X141907Y113761D01*
X141909Y113846D01*
X134595Y117148D02*
X132760Y118616D01*
X132760Y112012D01*
X130926Y112012D02*
X134595Y112012D01*
X127280Y117882D02*
X127280Y118616D01*
X123611Y118616D01*
X125445Y112012D01*
X153858Y105916D02*
X153858Y99312D01*
X153858Y105916D02*
X152024Y105916D01*
X151939Y105914D01*
X151855Y105908D01*
X151771Y105898D01*
X151687Y105885D01*
X151604Y105867D01*
X151522Y105846D01*
X151441Y105821D01*
X151361Y105792D01*
X151283Y105760D01*
X151207Y105724D01*
X151132Y105684D01*
X151059Y105641D01*
X150988Y105595D01*
X150919Y105546D01*
X150852Y105493D01*
X150788Y105437D01*
X150727Y105379D01*
X150669Y105318D01*
X150613Y105254D01*
X150560Y105187D01*
X150511Y105118D01*
X150465Y105047D01*
X150422Y104974D01*
X150382Y104899D01*
X150346Y104823D01*
X150314Y104745D01*
X150285Y104665D01*
X150260Y104584D01*
X150239Y104502D01*
X150221Y104419D01*
X150208Y104335D01*
X150198Y104251D01*
X150192Y104167D01*
X150190Y104082D01*
X150189Y104082D02*
X150189Y101146D01*
X150190Y101146D02*
X150192Y101061D01*
X150198Y100977D01*
X150208Y100893D01*
X150221Y100809D01*
X150239Y100726D01*
X150260Y100644D01*
X150285Y100563D01*
X150314Y100483D01*
X150346Y100405D01*
X150382Y100329D01*
X150422Y100254D01*
X150465Y100181D01*
X150511Y100110D01*
X150560Y100041D01*
X150613Y99974D01*
X150669Y99910D01*
X150727Y99849D01*
X150788Y99791D01*
X150852Y99735D01*
X150919Y99682D01*
X150988Y99633D01*
X151059Y99587D01*
X151132Y99544D01*
X151207Y99504D01*
X151283Y99468D01*
X151361Y99436D01*
X151441Y99407D01*
X151522Y99382D01*
X151604Y99361D01*
X151687Y99343D01*
X151771Y99330D01*
X151855Y99320D01*
X151939Y99314D01*
X152024Y99312D01*
X153858Y99312D01*
X145928Y99312D02*
X145928Y105916D01*
X146661Y99312D02*
X145194Y99312D01*
X145194Y105916D02*
X146661Y105916D01*
X141910Y104082D02*
X141910Y101146D01*
X141909Y104082D02*
X141907Y104167D01*
X141901Y104251D01*
X141891Y104335D01*
X141878Y104419D01*
X141860Y104502D01*
X141839Y104584D01*
X141814Y104665D01*
X141785Y104745D01*
X141753Y104823D01*
X141717Y104899D01*
X141677Y104974D01*
X141634Y105047D01*
X141588Y105118D01*
X141539Y105187D01*
X141486Y105254D01*
X141430Y105318D01*
X141372Y105379D01*
X141311Y105437D01*
X141247Y105493D01*
X141180Y105546D01*
X141111Y105595D01*
X141040Y105641D01*
X140967Y105684D01*
X140892Y105724D01*
X140816Y105760D01*
X140738Y105792D01*
X140658Y105821D01*
X140577Y105846D01*
X140495Y105867D01*
X140412Y105885D01*
X140328Y105898D01*
X140244Y105908D01*
X140160Y105914D01*
X140075Y105916D01*
X139990Y105914D01*
X139906Y105908D01*
X139822Y105898D01*
X139738Y105885D01*
X139655Y105867D01*
X139573Y105846D01*
X139492Y105821D01*
X139412Y105792D01*
X139334Y105760D01*
X139258Y105724D01*
X139183Y105684D01*
X139110Y105641D01*
X139039Y105595D01*
X138970Y105546D01*
X138903Y105493D01*
X138839Y105437D01*
X138778Y105379D01*
X138720Y105318D01*
X138664Y105254D01*
X138611Y105187D01*
X138562Y105118D01*
X138516Y105047D01*
X138473Y104974D01*
X138433Y104899D01*
X138397Y104823D01*
X138365Y104745D01*
X138336Y104665D01*
X138311Y104584D01*
X138290Y104502D01*
X138272Y104419D01*
X138259Y104335D01*
X138249Y104251D01*
X138243Y104167D01*
X138241Y104082D01*
X138241Y101146D01*
X138243Y101061D01*
X138249Y100977D01*
X138259Y100893D01*
X138272Y100809D01*
X138290Y100726D01*
X138311Y100644D01*
X138336Y100563D01*
X138365Y100483D01*
X138397Y100405D01*
X138433Y100329D01*
X138473Y100254D01*
X138516Y100181D01*
X138562Y100110D01*
X138611Y100041D01*
X138664Y99974D01*
X138720Y99910D01*
X138778Y99849D01*
X138839Y99791D01*
X138903Y99735D01*
X138970Y99682D01*
X139039Y99633D01*
X139110Y99587D01*
X139183Y99544D01*
X139258Y99504D01*
X139334Y99468D01*
X139412Y99436D01*
X139492Y99407D01*
X139573Y99382D01*
X139655Y99361D01*
X139738Y99343D01*
X139822Y99330D01*
X139906Y99320D01*
X139990Y99314D01*
X140075Y99312D01*
X140160Y99314D01*
X140244Y99320D01*
X140328Y99330D01*
X140412Y99343D01*
X140495Y99361D01*
X140577Y99382D01*
X140658Y99407D01*
X140738Y99436D01*
X140816Y99468D01*
X140892Y99504D01*
X140967Y99544D01*
X141040Y99587D01*
X141111Y99633D01*
X141180Y99682D01*
X141247Y99735D01*
X141311Y99791D01*
X141372Y99849D01*
X141430Y99910D01*
X141486Y99974D01*
X141539Y100041D01*
X141588Y100110D01*
X141634Y100181D01*
X141677Y100254D01*
X141717Y100329D01*
X141753Y100405D01*
X141785Y100483D01*
X141814Y100563D01*
X141839Y100644D01*
X141860Y100726D01*
X141878Y100809D01*
X141891Y100893D01*
X141901Y100977D01*
X141907Y101061D01*
X141909Y101146D01*
X134595Y104448D02*
X132760Y105916D01*
X132760Y99312D01*
X130926Y99312D02*
X134595Y99312D01*
X127280Y102981D02*
X125078Y102981D01*
X125004Y102979D01*
X124929Y102973D01*
X124856Y102964D01*
X124782Y102951D01*
X124710Y102934D01*
X124639Y102914D01*
X124568Y102890D01*
X124499Y102862D01*
X124432Y102831D01*
X124366Y102797D01*
X124301Y102759D01*
X124239Y102718D01*
X124179Y102674D01*
X124122Y102627D01*
X124067Y102577D01*
X124014Y102524D01*
X123964Y102469D01*
X123917Y102412D01*
X123873Y102352D01*
X123832Y102290D01*
X123794Y102225D01*
X123760Y102159D01*
X123729Y102092D01*
X123701Y102023D01*
X123677Y101952D01*
X123657Y101881D01*
X123640Y101809D01*
X123627Y101735D01*
X123618Y101662D01*
X123612Y101587D01*
X123610Y101513D01*
X123611Y101513D02*
X123611Y101146D01*
X123613Y101061D01*
X123619Y100977D01*
X123629Y100893D01*
X123642Y100809D01*
X123660Y100726D01*
X123681Y100644D01*
X123706Y100563D01*
X123735Y100483D01*
X123767Y100405D01*
X123803Y100329D01*
X123843Y100254D01*
X123886Y100181D01*
X123932Y100110D01*
X123981Y100041D01*
X124034Y99974D01*
X124090Y99910D01*
X124148Y99849D01*
X124209Y99791D01*
X124273Y99735D01*
X124340Y99682D01*
X124409Y99633D01*
X124480Y99587D01*
X124553Y99544D01*
X124628Y99504D01*
X124704Y99468D01*
X124782Y99436D01*
X124862Y99407D01*
X124943Y99382D01*
X125025Y99361D01*
X125108Y99343D01*
X125192Y99330D01*
X125276Y99320D01*
X125360Y99314D01*
X125445Y99312D01*
X125530Y99314D01*
X125614Y99320D01*
X125698Y99330D01*
X125782Y99343D01*
X125865Y99361D01*
X125947Y99382D01*
X126028Y99407D01*
X126108Y99436D01*
X126186Y99468D01*
X126262Y99504D01*
X126337Y99544D01*
X126410Y99587D01*
X126481Y99633D01*
X126550Y99682D01*
X126617Y99735D01*
X126681Y99791D01*
X126742Y99849D01*
X126800Y99910D01*
X126856Y99974D01*
X126909Y100041D01*
X126958Y100110D01*
X127004Y100181D01*
X127047Y100254D01*
X127087Y100329D01*
X127123Y100405D01*
X127155Y100483D01*
X127184Y100563D01*
X127209Y100644D01*
X127230Y100726D01*
X127248Y100809D01*
X127261Y100893D01*
X127271Y100977D01*
X127277Y101061D01*
X127279Y101146D01*
X127280Y101146D02*
X127280Y102981D01*
X127279Y102981D02*
X127277Y103088D01*
X127271Y103195D01*
X127261Y103302D01*
X127248Y103408D01*
X127230Y103514D01*
X127209Y103619D01*
X127184Y103723D01*
X127155Y103827D01*
X127122Y103929D01*
X127085Y104029D01*
X127045Y104129D01*
X127001Y104227D01*
X126954Y104323D01*
X126903Y104417D01*
X126849Y104510D01*
X126792Y104600D01*
X126731Y104689D01*
X126667Y104775D01*
X126600Y104858D01*
X126530Y104940D01*
X126457Y105018D01*
X126381Y105094D01*
X126303Y105167D01*
X126221Y105237D01*
X126138Y105304D01*
X126052Y105368D01*
X125963Y105429D01*
X125873Y105486D01*
X125780Y105540D01*
X125686Y105591D01*
X125590Y105638D01*
X125492Y105682D01*
X125393Y105722D01*
X125292Y105759D01*
X125190Y105792D01*
X125086Y105821D01*
X124982Y105846D01*
X124877Y105867D01*
X124771Y105885D01*
X124665Y105898D01*
X124558Y105908D01*
X124451Y105914D01*
X124344Y105916D01*
X153858Y93216D02*
X153858Y86612D01*
X153858Y93216D02*
X152024Y93216D01*
X151939Y93214D01*
X151855Y93208D01*
X151771Y93198D01*
X151687Y93185D01*
X151604Y93167D01*
X151522Y93146D01*
X151441Y93121D01*
X151361Y93092D01*
X151283Y93060D01*
X151207Y93024D01*
X151132Y92984D01*
X151059Y92941D01*
X150988Y92895D01*
X150919Y92846D01*
X150852Y92793D01*
X150788Y92737D01*
X150727Y92679D01*
X150669Y92618D01*
X150613Y92554D01*
X150560Y92487D01*
X150511Y92418D01*
X150465Y92347D01*
X150422Y92274D01*
X150382Y92199D01*
X150346Y92123D01*
X150314Y92045D01*
X150285Y91965D01*
X150260Y91884D01*
X150239Y91802D01*
X150221Y91719D01*
X150208Y91635D01*
X150198Y91551D01*
X150192Y91467D01*
X150190Y91382D01*
X150189Y91382D02*
X150189Y88446D01*
X150190Y88446D02*
X150192Y88361D01*
X150198Y88277D01*
X150208Y88193D01*
X150221Y88109D01*
X150239Y88026D01*
X150260Y87944D01*
X150285Y87863D01*
X150314Y87783D01*
X150346Y87705D01*
X150382Y87629D01*
X150422Y87554D01*
X150465Y87481D01*
X150511Y87410D01*
X150560Y87341D01*
X150613Y87274D01*
X150669Y87210D01*
X150727Y87149D01*
X150788Y87091D01*
X150852Y87035D01*
X150919Y86982D01*
X150988Y86933D01*
X151059Y86887D01*
X151132Y86844D01*
X151207Y86804D01*
X151283Y86768D01*
X151361Y86736D01*
X151441Y86707D01*
X151522Y86682D01*
X151604Y86661D01*
X151687Y86643D01*
X151771Y86630D01*
X151855Y86620D01*
X151939Y86614D01*
X152024Y86612D01*
X153858Y86612D01*
X145928Y86612D02*
X145928Y93216D01*
X146661Y86612D02*
X145194Y86612D01*
X145194Y93216D02*
X146661Y93216D01*
X141910Y91382D02*
X141910Y88446D01*
X141909Y91382D02*
X141907Y91467D01*
X141901Y91551D01*
X141891Y91635D01*
X141878Y91719D01*
X141860Y91802D01*
X141839Y91884D01*
X141814Y91965D01*
X141785Y92045D01*
X141753Y92123D01*
X141717Y92199D01*
X141677Y92274D01*
X141634Y92347D01*
X141588Y92418D01*
X141539Y92487D01*
X141486Y92554D01*
X141430Y92618D01*
X141372Y92679D01*
X141311Y92737D01*
X141247Y92793D01*
X141180Y92846D01*
X141111Y92895D01*
X141040Y92941D01*
X140967Y92984D01*
X140892Y93024D01*
X140816Y93060D01*
X140738Y93092D01*
X140658Y93121D01*
X140577Y93146D01*
X140495Y93167D01*
X140412Y93185D01*
X140328Y93198D01*
X140244Y93208D01*
X140160Y93214D01*
X140075Y93216D01*
X139990Y93214D01*
X139906Y93208D01*
X139822Y93198D01*
X139738Y93185D01*
X139655Y93167D01*
X139573Y93146D01*
X139492Y93121D01*
X139412Y93092D01*
X139334Y93060D01*
X139258Y93024D01*
X139183Y92984D01*
X139110Y92941D01*
X139039Y92895D01*
X138970Y92846D01*
X138903Y92793D01*
X138839Y92737D01*
X138778Y92679D01*
X138720Y92618D01*
X138664Y92554D01*
X138611Y92487D01*
X138562Y92418D01*
X138516Y92347D01*
X138473Y92274D01*
X138433Y92199D01*
X138397Y92123D01*
X138365Y92045D01*
X138336Y91965D01*
X138311Y91884D01*
X138290Y91802D01*
X138272Y91719D01*
X138259Y91635D01*
X138249Y91551D01*
X138243Y91467D01*
X138241Y91382D01*
X138241Y88446D01*
X138243Y88361D01*
X138249Y88277D01*
X138259Y88193D01*
X138272Y88109D01*
X138290Y88026D01*
X138311Y87944D01*
X138336Y87863D01*
X138365Y87783D01*
X138397Y87705D01*
X138433Y87629D01*
X138473Y87554D01*
X138516Y87481D01*
X138562Y87410D01*
X138611Y87341D01*
X138664Y87274D01*
X138720Y87210D01*
X138778Y87149D01*
X138839Y87091D01*
X138903Y87035D01*
X138970Y86982D01*
X139039Y86933D01*
X139110Y86887D01*
X139183Y86844D01*
X139258Y86804D01*
X139334Y86768D01*
X139412Y86736D01*
X139492Y86707D01*
X139573Y86682D01*
X139655Y86661D01*
X139738Y86643D01*
X139822Y86630D01*
X139906Y86620D01*
X139990Y86614D01*
X140075Y86612D01*
X140160Y86614D01*
X140244Y86620D01*
X140328Y86630D01*
X140412Y86643D01*
X140495Y86661D01*
X140577Y86682D01*
X140658Y86707D01*
X140738Y86736D01*
X140816Y86768D01*
X140892Y86804D01*
X140967Y86844D01*
X141040Y86887D01*
X141111Y86933D01*
X141180Y86982D01*
X141247Y87035D01*
X141311Y87091D01*
X141372Y87149D01*
X141430Y87210D01*
X141486Y87274D01*
X141539Y87341D01*
X141588Y87410D01*
X141634Y87481D01*
X141677Y87554D01*
X141717Y87629D01*
X141753Y87705D01*
X141785Y87783D01*
X141814Y87863D01*
X141839Y87944D01*
X141860Y88026D01*
X141878Y88109D01*
X141891Y88193D01*
X141901Y88277D01*
X141907Y88361D01*
X141909Y88446D01*
X134595Y91748D02*
X132760Y93216D01*
X132760Y86612D01*
X130926Y86612D02*
X134595Y86612D01*
X127280Y86612D02*
X125078Y86612D01*
X125004Y86614D01*
X124929Y86620D01*
X124856Y86629D01*
X124782Y86642D01*
X124710Y86659D01*
X124639Y86679D01*
X124568Y86703D01*
X124499Y86731D01*
X124432Y86762D01*
X124366Y86796D01*
X124301Y86834D01*
X124239Y86875D01*
X124179Y86919D01*
X124122Y86966D01*
X124067Y87016D01*
X124014Y87069D01*
X123964Y87124D01*
X123917Y87181D01*
X123873Y87241D01*
X123832Y87303D01*
X123794Y87368D01*
X123760Y87433D01*
X123729Y87501D01*
X123701Y87570D01*
X123677Y87641D01*
X123657Y87712D01*
X123640Y87784D01*
X123627Y87858D01*
X123618Y87931D01*
X123612Y88006D01*
X123610Y88080D01*
X123611Y88080D02*
X123611Y88813D01*
X123610Y88813D02*
X123612Y88887D01*
X123618Y88962D01*
X123627Y89035D01*
X123640Y89109D01*
X123657Y89181D01*
X123677Y89252D01*
X123701Y89323D01*
X123729Y89392D01*
X123760Y89459D01*
X123794Y89525D01*
X123832Y89590D01*
X123873Y89652D01*
X123917Y89712D01*
X123964Y89769D01*
X124014Y89824D01*
X124067Y89877D01*
X124122Y89927D01*
X124179Y89974D01*
X124239Y90018D01*
X124301Y90059D01*
X124366Y90097D01*
X124432Y90131D01*
X124499Y90162D01*
X124568Y90190D01*
X124639Y90214D01*
X124710Y90234D01*
X124782Y90251D01*
X124856Y90264D01*
X124929Y90273D01*
X125004Y90279D01*
X125078Y90281D01*
X127280Y90281D01*
X127280Y93216D01*
X123611Y93216D01*
X153858Y80516D02*
X153858Y73912D01*
X153858Y80516D02*
X152024Y80516D01*
X151939Y80514D01*
X151855Y80508D01*
X151771Y80498D01*
X151687Y80485D01*
X151604Y80467D01*
X151522Y80446D01*
X151441Y80421D01*
X151361Y80392D01*
X151283Y80360D01*
X151207Y80324D01*
X151132Y80284D01*
X151059Y80241D01*
X150988Y80195D01*
X150919Y80146D01*
X150852Y80093D01*
X150788Y80037D01*
X150727Y79979D01*
X150669Y79918D01*
X150613Y79854D01*
X150560Y79787D01*
X150511Y79718D01*
X150465Y79647D01*
X150422Y79574D01*
X150382Y79499D01*
X150346Y79423D01*
X150314Y79345D01*
X150285Y79265D01*
X150260Y79184D01*
X150239Y79102D01*
X150221Y79019D01*
X150208Y78935D01*
X150198Y78851D01*
X150192Y78767D01*
X150190Y78682D01*
X150189Y78682D02*
X150189Y75746D01*
X150190Y75746D02*
X150192Y75661D01*
X150198Y75577D01*
X150208Y75493D01*
X150221Y75409D01*
X150239Y75326D01*
X150260Y75244D01*
X150285Y75163D01*
X150314Y75083D01*
X150346Y75005D01*
X150382Y74929D01*
X150422Y74854D01*
X150465Y74781D01*
X150511Y74710D01*
X150560Y74641D01*
X150613Y74574D01*
X150669Y74510D01*
X150727Y74449D01*
X150788Y74391D01*
X150852Y74335D01*
X150919Y74282D01*
X150988Y74233D01*
X151059Y74187D01*
X151132Y74144D01*
X151207Y74104D01*
X151283Y74068D01*
X151361Y74036D01*
X151441Y74007D01*
X151522Y73982D01*
X151604Y73961D01*
X151687Y73943D01*
X151771Y73930D01*
X151855Y73920D01*
X151939Y73914D01*
X152024Y73912D01*
X153858Y73912D01*
X145928Y73912D02*
X145928Y80516D01*
X146661Y73912D02*
X145194Y73912D01*
X145194Y80516D02*
X146661Y80516D01*
X141910Y78682D02*
X141910Y75746D01*
X141909Y78682D02*
X141907Y78767D01*
X141901Y78851D01*
X141891Y78935D01*
X141878Y79019D01*
X141860Y79102D01*
X141839Y79184D01*
X141814Y79265D01*
X141785Y79345D01*
X141753Y79423D01*
X141717Y79499D01*
X141677Y79574D01*
X141634Y79647D01*
X141588Y79718D01*
X141539Y79787D01*
X141486Y79854D01*
X141430Y79918D01*
X141372Y79979D01*
X141311Y80037D01*
X141247Y80093D01*
X141180Y80146D01*
X141111Y80195D01*
X141040Y80241D01*
X140967Y80284D01*
X140892Y80324D01*
X140816Y80360D01*
X140738Y80392D01*
X140658Y80421D01*
X140577Y80446D01*
X140495Y80467D01*
X140412Y80485D01*
X140328Y80498D01*
X140244Y80508D01*
X140160Y80514D01*
X140075Y80516D01*
X139990Y80514D01*
X139906Y80508D01*
X139822Y80498D01*
X139738Y80485D01*
X139655Y80467D01*
X139573Y80446D01*
X139492Y80421D01*
X139412Y80392D01*
X139334Y80360D01*
X139258Y80324D01*
X139183Y80284D01*
X139110Y80241D01*
X139039Y80195D01*
X138970Y80146D01*
X138903Y80093D01*
X138839Y80037D01*
X138778Y79979D01*
X138720Y79918D01*
X138664Y79854D01*
X138611Y79787D01*
X138562Y79718D01*
X138516Y79647D01*
X138473Y79574D01*
X138433Y79499D01*
X138397Y79423D01*
X138365Y79345D01*
X138336Y79265D01*
X138311Y79184D01*
X138290Y79102D01*
X138272Y79019D01*
X138259Y78935D01*
X138249Y78851D01*
X138243Y78767D01*
X138241Y78682D01*
X138241Y75746D01*
X138243Y75661D01*
X138249Y75577D01*
X138259Y75493D01*
X138272Y75409D01*
X138290Y75326D01*
X138311Y75244D01*
X138336Y75163D01*
X138365Y75083D01*
X138397Y75005D01*
X138433Y74929D01*
X138473Y74854D01*
X138516Y74781D01*
X138562Y74710D01*
X138611Y74641D01*
X138664Y74574D01*
X138720Y74510D01*
X138778Y74449D01*
X138839Y74391D01*
X138903Y74335D01*
X138970Y74282D01*
X139039Y74233D01*
X139110Y74187D01*
X139183Y74144D01*
X139258Y74104D01*
X139334Y74068D01*
X139412Y74036D01*
X139492Y74007D01*
X139573Y73982D01*
X139655Y73961D01*
X139738Y73943D01*
X139822Y73930D01*
X139906Y73920D01*
X139990Y73914D01*
X140075Y73912D01*
X140160Y73914D01*
X140244Y73920D01*
X140328Y73930D01*
X140412Y73943D01*
X140495Y73961D01*
X140577Y73982D01*
X140658Y74007D01*
X140738Y74036D01*
X140816Y74068D01*
X140892Y74104D01*
X140967Y74144D01*
X141040Y74187D01*
X141111Y74233D01*
X141180Y74282D01*
X141247Y74335D01*
X141311Y74391D01*
X141372Y74449D01*
X141430Y74510D01*
X141486Y74574D01*
X141539Y74641D01*
X141588Y74710D01*
X141634Y74781D01*
X141677Y74854D01*
X141717Y74929D01*
X141753Y75005D01*
X141785Y75083D01*
X141814Y75163D01*
X141839Y75244D01*
X141860Y75326D01*
X141878Y75409D01*
X141891Y75493D01*
X141901Y75577D01*
X141907Y75661D01*
X141909Y75746D01*
X134595Y79048D02*
X132760Y80516D01*
X132760Y73912D01*
X130926Y73912D02*
X134595Y73912D01*
X127280Y75380D02*
X125812Y80516D01*
X127280Y75380D02*
X123611Y75380D01*
X124711Y76847D02*
X124711Y73912D01*
X153858Y67816D02*
X153858Y61212D01*
X153858Y67816D02*
X152024Y67816D01*
X151939Y67814D01*
X151855Y67808D01*
X151771Y67798D01*
X151687Y67785D01*
X151604Y67767D01*
X151522Y67746D01*
X151441Y67721D01*
X151361Y67692D01*
X151283Y67660D01*
X151207Y67624D01*
X151132Y67584D01*
X151059Y67541D01*
X150988Y67495D01*
X150919Y67446D01*
X150852Y67393D01*
X150788Y67337D01*
X150727Y67279D01*
X150669Y67218D01*
X150613Y67154D01*
X150560Y67087D01*
X150511Y67018D01*
X150465Y66947D01*
X150422Y66874D01*
X150382Y66799D01*
X150346Y66723D01*
X150314Y66645D01*
X150285Y66565D01*
X150260Y66484D01*
X150239Y66402D01*
X150221Y66319D01*
X150208Y66235D01*
X150198Y66151D01*
X150192Y66067D01*
X150190Y65982D01*
X150192Y65897D01*
X150198Y65813D01*
X150208Y65729D01*
X150221Y65645D01*
X150239Y65562D01*
X150260Y65480D01*
X150285Y65399D01*
X150314Y65319D01*
X150346Y65241D01*
X150382Y65165D01*
X150422Y65090D01*
X150465Y65017D01*
X150511Y64946D01*
X150560Y64877D01*
X150613Y64810D01*
X150669Y64746D01*
X150727Y64685D01*
X150788Y64627D01*
X150852Y64571D01*
X150919Y64518D01*
X150988Y64469D01*
X151059Y64423D01*
X151132Y64380D01*
X151207Y64340D01*
X151283Y64304D01*
X151361Y64272D01*
X151441Y64243D01*
X151522Y64218D01*
X151604Y64197D01*
X151687Y64179D01*
X151771Y64166D01*
X151855Y64156D01*
X151939Y64150D01*
X152024Y64148D01*
X152024Y64147D02*
X153858Y64147D01*
X151657Y64147D02*
X150189Y61212D01*
X146354Y61212D02*
X143419Y61212D01*
X146354Y61212D02*
X146354Y67816D01*
X143419Y67816D01*
X144152Y64881D02*
X146354Y64881D01*
X138324Y61212D02*
X138250Y61214D01*
X138175Y61220D01*
X138102Y61229D01*
X138028Y61242D01*
X137956Y61259D01*
X137885Y61279D01*
X137814Y61303D01*
X137745Y61331D01*
X137678Y61362D01*
X137612Y61396D01*
X137547Y61434D01*
X137485Y61475D01*
X137425Y61519D01*
X137368Y61566D01*
X137313Y61616D01*
X137260Y61669D01*
X137210Y61724D01*
X137163Y61781D01*
X137119Y61841D01*
X137078Y61903D01*
X137040Y61968D01*
X137006Y62034D01*
X136975Y62101D01*
X136947Y62170D01*
X136923Y62241D01*
X136903Y62312D01*
X136886Y62384D01*
X136873Y62458D01*
X136864Y62531D01*
X136858Y62606D01*
X136856Y62680D01*
X138324Y61212D02*
X138435Y61214D01*
X138546Y61220D01*
X138657Y61230D01*
X138768Y61244D01*
X138877Y61262D01*
X138986Y61284D01*
X139095Y61309D01*
X139202Y61339D01*
X139308Y61372D01*
X139413Y61410D01*
X139516Y61450D01*
X139618Y61495D01*
X139718Y61543D01*
X139817Y61595D01*
X139913Y61650D01*
X140008Y61709D01*
X140100Y61771D01*
X140190Y61837D01*
X140278Y61905D01*
X140363Y61977D01*
X140445Y62052D01*
X140525Y62129D01*
X140343Y66348D02*
X140341Y66422D01*
X140335Y66497D01*
X140326Y66570D01*
X140313Y66644D01*
X140296Y66716D01*
X140276Y66787D01*
X140252Y66858D01*
X140224Y66927D01*
X140193Y66994D01*
X140159Y67060D01*
X140121Y67125D01*
X140080Y67187D01*
X140036Y67247D01*
X139989Y67304D01*
X139939Y67359D01*
X139886Y67412D01*
X139831Y67462D01*
X139774Y67509D01*
X139714Y67553D01*
X139652Y67594D01*
X139587Y67632D01*
X139521Y67666D01*
X139454Y67697D01*
X139385Y67725D01*
X139314Y67749D01*
X139243Y67769D01*
X139171Y67786D01*
X139097Y67799D01*
X139024Y67808D01*
X138949Y67814D01*
X138875Y67816D01*
X138771Y67814D01*
X138667Y67808D01*
X138563Y67798D01*
X138460Y67785D01*
X138357Y67767D01*
X138255Y67745D01*
X138154Y67720D01*
X138054Y67691D01*
X137955Y67658D01*
X137858Y67621D01*
X137762Y67581D01*
X137667Y67537D01*
X137575Y67489D01*
X137484Y67439D01*
X137395Y67384D01*
X137308Y67327D01*
X137224Y67266D01*
X139609Y65063D02*
X139672Y65102D01*
X139732Y65144D01*
X139791Y65189D01*
X139847Y65237D01*
X139900Y65288D01*
X139951Y65341D01*
X140000Y65396D01*
X140045Y65454D01*
X140088Y65514D01*
X140128Y65576D01*
X140164Y65640D01*
X140198Y65706D01*
X140228Y65774D01*
X140255Y65842D01*
X140278Y65912D01*
X140298Y65983D01*
X140314Y66055D01*
X140327Y66128D01*
X140336Y66201D01*
X140341Y66274D01*
X140343Y66348D01*
X137590Y63965D02*
X137527Y63926D01*
X137467Y63884D01*
X137409Y63839D01*
X137352Y63791D01*
X137299Y63740D01*
X137248Y63687D01*
X137199Y63632D01*
X137154Y63574D01*
X137111Y63514D01*
X137071Y63452D01*
X137035Y63388D01*
X137001Y63322D01*
X136971Y63254D01*
X136944Y63186D01*
X136921Y63116D01*
X136901Y63045D01*
X136885Y62973D01*
X136872Y62900D01*
X136863Y62827D01*
X136858Y62754D01*
X136856Y62680D01*
X137591Y63964D02*
X139608Y65064D01*
X133186Y61212D02*
X130251Y61212D01*
X133186Y61212D02*
X133186Y67816D01*
X130251Y67816D01*
X130985Y64881D02*
X133186Y64881D01*
X125768Y67816D02*
X125768Y61212D01*
X127602Y67816D02*
X123933Y67816D01*
X121139Y60478D02*
X118204Y60478D01*
X114679Y61212D02*
X114679Y67816D01*
X111010Y61212D01*
X111010Y67816D01*
X153858Y55116D02*
X153858Y48512D01*
X153858Y55116D02*
X152024Y55116D01*
X151939Y55114D01*
X151855Y55108D01*
X151771Y55098D01*
X151687Y55085D01*
X151604Y55067D01*
X151522Y55046D01*
X151441Y55021D01*
X151361Y54992D01*
X151283Y54960D01*
X151207Y54924D01*
X151132Y54884D01*
X151059Y54841D01*
X150988Y54795D01*
X150919Y54746D01*
X150852Y54693D01*
X150788Y54637D01*
X150727Y54579D01*
X150669Y54518D01*
X150613Y54454D01*
X150560Y54387D01*
X150511Y54318D01*
X150465Y54247D01*
X150422Y54174D01*
X150382Y54099D01*
X150346Y54023D01*
X150314Y53945D01*
X150285Y53865D01*
X150260Y53784D01*
X150239Y53702D01*
X150221Y53619D01*
X150208Y53535D01*
X150198Y53451D01*
X150192Y53367D01*
X150190Y53282D01*
X150189Y53282D02*
X150189Y50346D01*
X150190Y50346D02*
X150192Y50261D01*
X150198Y50177D01*
X150208Y50093D01*
X150221Y50009D01*
X150239Y49926D01*
X150260Y49844D01*
X150285Y49763D01*
X150314Y49683D01*
X150346Y49605D01*
X150382Y49529D01*
X150422Y49454D01*
X150465Y49381D01*
X150511Y49310D01*
X150560Y49241D01*
X150613Y49174D01*
X150669Y49110D01*
X150727Y49049D01*
X150788Y48991D01*
X150852Y48935D01*
X150919Y48882D01*
X150988Y48833D01*
X151059Y48787D01*
X151132Y48744D01*
X151207Y48704D01*
X151283Y48668D01*
X151361Y48636D01*
X151441Y48607D01*
X151522Y48582D01*
X151604Y48561D01*
X151687Y48543D01*
X151771Y48530D01*
X151855Y48520D01*
X151939Y48514D01*
X152024Y48512D01*
X153858Y48512D01*
X145928Y48512D02*
X145928Y55116D01*
X146661Y48512D02*
X145194Y48512D01*
X145194Y55116D02*
X146661Y55116D01*
X141910Y53282D02*
X141910Y50346D01*
X141909Y53282D02*
X141907Y53367D01*
X141901Y53451D01*
X141891Y53535D01*
X141878Y53619D01*
X141860Y53702D01*
X141839Y53784D01*
X141814Y53865D01*
X141785Y53945D01*
X141753Y54023D01*
X141717Y54099D01*
X141677Y54174D01*
X141634Y54247D01*
X141588Y54318D01*
X141539Y54387D01*
X141486Y54454D01*
X141430Y54518D01*
X141372Y54579D01*
X141311Y54637D01*
X141247Y54693D01*
X141180Y54746D01*
X141111Y54795D01*
X141040Y54841D01*
X140967Y54884D01*
X140892Y54924D01*
X140816Y54960D01*
X140738Y54992D01*
X140658Y55021D01*
X140577Y55046D01*
X140495Y55067D01*
X140412Y55085D01*
X140328Y55098D01*
X140244Y55108D01*
X140160Y55114D01*
X140075Y55116D01*
X139990Y55114D01*
X139906Y55108D01*
X139822Y55098D01*
X139738Y55085D01*
X139655Y55067D01*
X139573Y55046D01*
X139492Y55021D01*
X139412Y54992D01*
X139334Y54960D01*
X139258Y54924D01*
X139183Y54884D01*
X139110Y54841D01*
X139039Y54795D01*
X138970Y54746D01*
X138903Y54693D01*
X138839Y54637D01*
X138778Y54579D01*
X138720Y54518D01*
X138664Y54454D01*
X138611Y54387D01*
X138562Y54318D01*
X138516Y54247D01*
X138473Y54174D01*
X138433Y54099D01*
X138397Y54023D01*
X138365Y53945D01*
X138336Y53865D01*
X138311Y53784D01*
X138290Y53702D01*
X138272Y53619D01*
X138259Y53535D01*
X138249Y53451D01*
X138243Y53367D01*
X138241Y53282D01*
X138241Y50346D01*
X138243Y50261D01*
X138249Y50177D01*
X138259Y50093D01*
X138272Y50009D01*
X138290Y49926D01*
X138311Y49844D01*
X138336Y49763D01*
X138365Y49683D01*
X138397Y49605D01*
X138433Y49529D01*
X138473Y49454D01*
X138516Y49381D01*
X138562Y49310D01*
X138611Y49241D01*
X138664Y49174D01*
X138720Y49110D01*
X138778Y49049D01*
X138839Y48991D01*
X138903Y48935D01*
X138970Y48882D01*
X139039Y48833D01*
X139110Y48787D01*
X139183Y48744D01*
X139258Y48704D01*
X139334Y48668D01*
X139412Y48636D01*
X139492Y48607D01*
X139573Y48582D01*
X139655Y48561D01*
X139738Y48543D01*
X139822Y48530D01*
X139906Y48520D01*
X139990Y48514D01*
X140075Y48512D01*
X140160Y48514D01*
X140244Y48520D01*
X140328Y48530D01*
X140412Y48543D01*
X140495Y48561D01*
X140577Y48582D01*
X140658Y48607D01*
X140738Y48636D01*
X140816Y48668D01*
X140892Y48704D01*
X140967Y48744D01*
X141040Y48787D01*
X141111Y48833D01*
X141180Y48882D01*
X141247Y48935D01*
X141311Y48991D01*
X141372Y49049D01*
X141430Y49110D01*
X141486Y49174D01*
X141539Y49241D01*
X141588Y49310D01*
X141634Y49381D01*
X141677Y49454D01*
X141717Y49529D01*
X141753Y49605D01*
X141785Y49683D01*
X141814Y49763D01*
X141839Y49844D01*
X141860Y49926D01*
X141878Y50009D01*
X141891Y50093D01*
X141901Y50177D01*
X141907Y50261D01*
X141909Y50346D01*
X134595Y53648D02*
X132760Y55116D01*
X132760Y48512D01*
X130926Y48512D02*
X134595Y48512D01*
X127280Y48512D02*
X125445Y48512D01*
X125360Y48514D01*
X125276Y48520D01*
X125192Y48530D01*
X125108Y48543D01*
X125025Y48561D01*
X124943Y48582D01*
X124862Y48607D01*
X124782Y48636D01*
X124704Y48668D01*
X124628Y48704D01*
X124553Y48744D01*
X124480Y48787D01*
X124409Y48833D01*
X124340Y48882D01*
X124273Y48935D01*
X124209Y48991D01*
X124148Y49049D01*
X124090Y49110D01*
X124034Y49174D01*
X123981Y49241D01*
X123932Y49310D01*
X123886Y49381D01*
X123843Y49454D01*
X123803Y49529D01*
X123767Y49605D01*
X123735Y49683D01*
X123706Y49763D01*
X123681Y49844D01*
X123660Y49926D01*
X123642Y50009D01*
X123629Y50093D01*
X123619Y50177D01*
X123613Y50261D01*
X123611Y50346D01*
X123613Y50431D01*
X123619Y50515D01*
X123629Y50599D01*
X123642Y50683D01*
X123660Y50766D01*
X123681Y50848D01*
X123706Y50929D01*
X123735Y51009D01*
X123767Y51087D01*
X123803Y51163D01*
X123843Y51238D01*
X123886Y51311D01*
X123932Y51382D01*
X123981Y51451D01*
X124034Y51518D01*
X124090Y51582D01*
X124148Y51643D01*
X124209Y51701D01*
X124273Y51757D01*
X124340Y51810D01*
X124409Y51859D01*
X124480Y51905D01*
X124553Y51948D01*
X124628Y51988D01*
X124704Y52024D01*
X124782Y52056D01*
X124862Y52085D01*
X124943Y52110D01*
X125025Y52131D01*
X125108Y52149D01*
X125192Y52162D01*
X125276Y52172D01*
X125360Y52178D01*
X125445Y52180D01*
X125078Y55116D02*
X127280Y55116D01*
X125078Y55116D02*
X125002Y55114D01*
X124927Y55108D01*
X124852Y55099D01*
X124778Y55085D01*
X124704Y55068D01*
X124632Y55046D01*
X124560Y55022D01*
X124490Y54993D01*
X124422Y54961D01*
X124355Y54926D01*
X124290Y54887D01*
X124227Y54844D01*
X124167Y54799D01*
X124109Y54751D01*
X124053Y54699D01*
X124001Y54645D01*
X123951Y54588D01*
X123904Y54529D01*
X123860Y54468D01*
X123819Y54404D01*
X123782Y54338D01*
X123748Y54270D01*
X123718Y54201D01*
X123691Y54130D01*
X123668Y54058D01*
X123649Y53985D01*
X123634Y53911D01*
X123622Y53836D01*
X123614Y53761D01*
X123610Y53686D01*
X123610Y53610D01*
X123614Y53535D01*
X123622Y53460D01*
X123634Y53385D01*
X123649Y53311D01*
X123668Y53238D01*
X123691Y53166D01*
X123718Y53095D01*
X123748Y53026D01*
X123782Y52958D01*
X123819Y52892D01*
X123860Y52828D01*
X123904Y52767D01*
X123951Y52708D01*
X124001Y52651D01*
X124053Y52597D01*
X124109Y52545D01*
X124167Y52497D01*
X124227Y52452D01*
X124290Y52409D01*
X124355Y52370D01*
X124422Y52335D01*
X124490Y52303D01*
X124560Y52274D01*
X124632Y52250D01*
X124704Y52228D01*
X124778Y52211D01*
X124852Y52197D01*
X124927Y52188D01*
X125002Y52182D01*
X125078Y52180D01*
X125078Y52181D02*
X126546Y52181D01*
X153858Y42416D02*
X153858Y35812D01*
X153858Y42416D02*
X152024Y42416D01*
X151939Y42414D01*
X151855Y42408D01*
X151771Y42398D01*
X151687Y42385D01*
X151604Y42367D01*
X151522Y42346D01*
X151441Y42321D01*
X151361Y42292D01*
X151283Y42260D01*
X151207Y42224D01*
X151132Y42184D01*
X151059Y42141D01*
X150988Y42095D01*
X150919Y42046D01*
X150852Y41993D01*
X150788Y41937D01*
X150727Y41879D01*
X150669Y41818D01*
X150613Y41754D01*
X150560Y41687D01*
X150511Y41618D01*
X150465Y41547D01*
X150422Y41474D01*
X150382Y41399D01*
X150346Y41323D01*
X150314Y41245D01*
X150285Y41165D01*
X150260Y41084D01*
X150239Y41002D01*
X150221Y40919D01*
X150208Y40835D01*
X150198Y40751D01*
X150192Y40667D01*
X150190Y40582D01*
X150189Y40582D02*
X150189Y37646D01*
X150190Y37646D02*
X150192Y37561D01*
X150198Y37477D01*
X150208Y37393D01*
X150221Y37309D01*
X150239Y37226D01*
X150260Y37144D01*
X150285Y37063D01*
X150314Y36983D01*
X150346Y36905D01*
X150382Y36829D01*
X150422Y36754D01*
X150465Y36681D01*
X150511Y36610D01*
X150560Y36541D01*
X150613Y36474D01*
X150669Y36410D01*
X150727Y36349D01*
X150788Y36291D01*
X150852Y36235D01*
X150919Y36182D01*
X150988Y36133D01*
X151059Y36087D01*
X151132Y36044D01*
X151207Y36004D01*
X151283Y35968D01*
X151361Y35936D01*
X151441Y35907D01*
X151522Y35882D01*
X151604Y35861D01*
X151687Y35843D01*
X151771Y35830D01*
X151855Y35820D01*
X151939Y35814D01*
X152024Y35812D01*
X153858Y35812D01*
X145928Y35812D02*
X145928Y42416D01*
X146661Y35812D02*
X145194Y35812D01*
X145194Y42416D02*
X146661Y42416D01*
X141910Y40582D02*
X141910Y37646D01*
X141909Y40582D02*
X141907Y40667D01*
X141901Y40751D01*
X141891Y40835D01*
X141878Y40919D01*
X141860Y41002D01*
X141839Y41084D01*
X141814Y41165D01*
X141785Y41245D01*
X141753Y41323D01*
X141717Y41399D01*
X141677Y41474D01*
X141634Y41547D01*
X141588Y41618D01*
X141539Y41687D01*
X141486Y41754D01*
X141430Y41818D01*
X141372Y41879D01*
X141311Y41937D01*
X141247Y41993D01*
X141180Y42046D01*
X141111Y42095D01*
X141040Y42141D01*
X140967Y42184D01*
X140892Y42224D01*
X140816Y42260D01*
X140738Y42292D01*
X140658Y42321D01*
X140577Y42346D01*
X140495Y42367D01*
X140412Y42385D01*
X140328Y42398D01*
X140244Y42408D01*
X140160Y42414D01*
X140075Y42416D01*
X139990Y42414D01*
X139906Y42408D01*
X139822Y42398D01*
X139738Y42385D01*
X139655Y42367D01*
X139573Y42346D01*
X139492Y42321D01*
X139412Y42292D01*
X139334Y42260D01*
X139258Y42224D01*
X139183Y42184D01*
X139110Y42141D01*
X139039Y42095D01*
X138970Y42046D01*
X138903Y41993D01*
X138839Y41937D01*
X138778Y41879D01*
X138720Y41818D01*
X138664Y41754D01*
X138611Y41687D01*
X138562Y41618D01*
X138516Y41547D01*
X138473Y41474D01*
X138433Y41399D01*
X138397Y41323D01*
X138365Y41245D01*
X138336Y41165D01*
X138311Y41084D01*
X138290Y41002D01*
X138272Y40919D01*
X138259Y40835D01*
X138249Y40751D01*
X138243Y40667D01*
X138241Y40582D01*
X138241Y37646D01*
X138243Y37561D01*
X138249Y37477D01*
X138259Y37393D01*
X138272Y37309D01*
X138290Y37226D01*
X138311Y37144D01*
X138336Y37063D01*
X138365Y36983D01*
X138397Y36905D01*
X138433Y36829D01*
X138473Y36754D01*
X138516Y36681D01*
X138562Y36610D01*
X138611Y36541D01*
X138664Y36474D01*
X138720Y36410D01*
X138778Y36349D01*
X138839Y36291D01*
X138903Y36235D01*
X138970Y36182D01*
X139039Y36133D01*
X139110Y36087D01*
X139183Y36044D01*
X139258Y36004D01*
X139334Y35968D01*
X139412Y35936D01*
X139492Y35907D01*
X139573Y35882D01*
X139655Y35861D01*
X139738Y35843D01*
X139822Y35830D01*
X139906Y35820D01*
X139990Y35814D01*
X140075Y35812D01*
X140160Y35814D01*
X140244Y35820D01*
X140328Y35830D01*
X140412Y35843D01*
X140495Y35861D01*
X140577Y35882D01*
X140658Y35907D01*
X140738Y35936D01*
X140816Y35968D01*
X140892Y36004D01*
X140967Y36044D01*
X141040Y36087D01*
X141111Y36133D01*
X141180Y36182D01*
X141247Y36235D01*
X141311Y36291D01*
X141372Y36349D01*
X141430Y36410D01*
X141486Y36474D01*
X141539Y36541D01*
X141588Y36610D01*
X141634Y36681D01*
X141677Y36754D01*
X141717Y36829D01*
X141753Y36905D01*
X141785Y36983D01*
X141814Y37063D01*
X141839Y37144D01*
X141860Y37226D01*
X141878Y37309D01*
X141891Y37393D01*
X141901Y37477D01*
X141907Y37561D01*
X141909Y37646D01*
X134595Y40948D02*
X132760Y42416D01*
X132760Y35812D01*
X130926Y35812D02*
X134595Y35812D01*
X125262Y42416D02*
X125183Y42414D01*
X125105Y42409D01*
X125027Y42399D01*
X124950Y42386D01*
X124873Y42369D01*
X124797Y42349D01*
X124722Y42325D01*
X124648Y42298D01*
X124576Y42267D01*
X124505Y42232D01*
X124437Y42195D01*
X124369Y42154D01*
X124304Y42110D01*
X124241Y42063D01*
X124181Y42013D01*
X124123Y41960D01*
X124067Y41904D01*
X124014Y41846D01*
X123964Y41786D01*
X123917Y41723D01*
X123873Y41658D01*
X123832Y41591D01*
X123795Y41522D01*
X123760Y41451D01*
X123729Y41379D01*
X123702Y41305D01*
X123678Y41230D01*
X123658Y41154D01*
X123641Y41077D01*
X123628Y41000D01*
X123618Y40922D01*
X123613Y40844D01*
X123611Y40765D01*
X125262Y42416D02*
X125351Y42414D01*
X125440Y42409D01*
X125528Y42399D01*
X125616Y42386D01*
X125703Y42370D01*
X125790Y42349D01*
X125875Y42325D01*
X125960Y42298D01*
X126043Y42267D01*
X126125Y42232D01*
X126206Y42194D01*
X126285Y42153D01*
X126361Y42109D01*
X126437Y42061D01*
X126510Y42010D01*
X126580Y41957D01*
X126649Y41900D01*
X126715Y41840D01*
X126778Y41778D01*
X126839Y41713D01*
X126897Y41646D01*
X126952Y41576D01*
X127005Y41504D01*
X127054Y41430D01*
X127100Y41354D01*
X127142Y41276D01*
X127182Y41196D01*
X127218Y41115D01*
X127251Y41032D01*
X127280Y40948D01*
X124161Y39481D02*
X124105Y39537D01*
X124051Y39596D01*
X124000Y39657D01*
X123951Y39721D01*
X123906Y39786D01*
X123863Y39854D01*
X123824Y39923D01*
X123787Y39994D01*
X123754Y40067D01*
X123725Y40141D01*
X123698Y40216D01*
X123675Y40292D01*
X123656Y40370D01*
X123640Y40448D01*
X123627Y40526D01*
X123618Y40606D01*
X123613Y40685D01*
X123611Y40765D01*
X124161Y39481D02*
X127280Y35812D01*
X123611Y35812D01*
X153858Y29716D02*
X153858Y23112D01*
X153858Y29716D02*
X152024Y29716D01*
X151939Y29714D01*
X151855Y29708D01*
X151771Y29698D01*
X151687Y29685D01*
X151604Y29667D01*
X151522Y29646D01*
X151441Y29621D01*
X151361Y29592D01*
X151283Y29560D01*
X151207Y29524D01*
X151132Y29484D01*
X151059Y29441D01*
X150988Y29395D01*
X150919Y29346D01*
X150852Y29293D01*
X150788Y29237D01*
X150727Y29179D01*
X150669Y29118D01*
X150613Y29054D01*
X150560Y28987D01*
X150511Y28918D01*
X150465Y28847D01*
X150422Y28774D01*
X150382Y28699D01*
X150346Y28623D01*
X150314Y28545D01*
X150285Y28465D01*
X150260Y28384D01*
X150239Y28302D01*
X150221Y28219D01*
X150208Y28135D01*
X150198Y28051D01*
X150192Y27967D01*
X150190Y27882D01*
X150189Y27882D02*
X150189Y24946D01*
X150190Y24946D02*
X150192Y24861D01*
X150198Y24777D01*
X150208Y24693D01*
X150221Y24609D01*
X150239Y24526D01*
X150260Y24444D01*
X150285Y24363D01*
X150314Y24283D01*
X150346Y24205D01*
X150382Y24129D01*
X150422Y24054D01*
X150465Y23981D01*
X150511Y23910D01*
X150560Y23841D01*
X150613Y23774D01*
X150669Y23710D01*
X150727Y23649D01*
X150788Y23591D01*
X150852Y23535D01*
X150919Y23482D01*
X150988Y23433D01*
X151059Y23387D01*
X151132Y23344D01*
X151207Y23304D01*
X151283Y23268D01*
X151361Y23236D01*
X151441Y23207D01*
X151522Y23182D01*
X151604Y23161D01*
X151687Y23143D01*
X151771Y23130D01*
X151855Y23120D01*
X151939Y23114D01*
X152024Y23112D01*
X153858Y23112D01*
X145928Y23112D02*
X145928Y29716D01*
X146661Y23112D02*
X145194Y23112D01*
X145194Y29716D02*
X146661Y29716D01*
X141910Y27882D02*
X141910Y24946D01*
X141909Y27882D02*
X141907Y27967D01*
X141901Y28051D01*
X141891Y28135D01*
X141878Y28219D01*
X141860Y28302D01*
X141839Y28384D01*
X141814Y28465D01*
X141785Y28545D01*
X141753Y28623D01*
X141717Y28699D01*
X141677Y28774D01*
X141634Y28847D01*
X141588Y28918D01*
X141539Y28987D01*
X141486Y29054D01*
X141430Y29118D01*
X141372Y29179D01*
X141311Y29237D01*
X141247Y29293D01*
X141180Y29346D01*
X141111Y29395D01*
X141040Y29441D01*
X140967Y29484D01*
X140892Y29524D01*
X140816Y29560D01*
X140738Y29592D01*
X140658Y29621D01*
X140577Y29646D01*
X140495Y29667D01*
X140412Y29685D01*
X140328Y29698D01*
X140244Y29708D01*
X140160Y29714D01*
X140075Y29716D01*
X139990Y29714D01*
X139906Y29708D01*
X139822Y29698D01*
X139738Y29685D01*
X139655Y29667D01*
X139573Y29646D01*
X139492Y29621D01*
X139412Y29592D01*
X139334Y29560D01*
X139258Y29524D01*
X139183Y29484D01*
X139110Y29441D01*
X139039Y29395D01*
X138970Y29346D01*
X138903Y29293D01*
X138839Y29237D01*
X138778Y29179D01*
X138720Y29118D01*
X138664Y29054D01*
X138611Y28987D01*
X138562Y28918D01*
X138516Y28847D01*
X138473Y28774D01*
X138433Y28699D01*
X138397Y28623D01*
X138365Y28545D01*
X138336Y28465D01*
X138311Y28384D01*
X138290Y28302D01*
X138272Y28219D01*
X138259Y28135D01*
X138249Y28051D01*
X138243Y27967D01*
X138241Y27882D01*
X138241Y24946D01*
X138243Y24861D01*
X138249Y24777D01*
X138259Y24693D01*
X138272Y24609D01*
X138290Y24526D01*
X138311Y24444D01*
X138336Y24363D01*
X138365Y24283D01*
X138397Y24205D01*
X138433Y24129D01*
X138473Y24054D01*
X138516Y23981D01*
X138562Y23910D01*
X138611Y23841D01*
X138664Y23774D01*
X138720Y23710D01*
X138778Y23649D01*
X138839Y23591D01*
X138903Y23535D01*
X138970Y23482D01*
X139039Y23433D01*
X139110Y23387D01*
X139183Y23344D01*
X139258Y23304D01*
X139334Y23268D01*
X139412Y23236D01*
X139492Y23207D01*
X139573Y23182D01*
X139655Y23161D01*
X139738Y23143D01*
X139822Y23130D01*
X139906Y23120D01*
X139990Y23114D01*
X140075Y23112D01*
X140160Y23114D01*
X140244Y23120D01*
X140328Y23130D01*
X140412Y23143D01*
X140495Y23161D01*
X140577Y23182D01*
X140658Y23207D01*
X140738Y23236D01*
X140816Y23268D01*
X140892Y23304D01*
X140967Y23344D01*
X141040Y23387D01*
X141111Y23433D01*
X141180Y23482D01*
X141247Y23535D01*
X141311Y23591D01*
X141372Y23649D01*
X141430Y23710D01*
X141486Y23774D01*
X141539Y23841D01*
X141588Y23910D01*
X141634Y23981D01*
X141677Y24054D01*
X141717Y24129D01*
X141753Y24205D01*
X141785Y24283D01*
X141814Y24363D01*
X141839Y24444D01*
X141860Y24526D01*
X141878Y24609D01*
X141891Y24693D01*
X141901Y24777D01*
X141907Y24861D01*
X141909Y24946D01*
X134595Y28248D02*
X132760Y29716D01*
X132760Y23112D01*
X130926Y23112D02*
X134595Y23112D01*
X127280Y28248D02*
X125445Y29716D01*
X125445Y23112D01*
X123611Y23112D02*
X127280Y23112D01*
X31176Y153922D02*
X24572Y153922D01*
X31176Y153922D02*
X31176Y155756D01*
X31174Y155841D01*
X31168Y155925D01*
X31158Y156009D01*
X31145Y156093D01*
X31127Y156176D01*
X31106Y156258D01*
X31081Y156339D01*
X31052Y156419D01*
X31020Y156497D01*
X30984Y156573D01*
X30944Y156648D01*
X30901Y156721D01*
X30855Y156792D01*
X30806Y156861D01*
X30753Y156928D01*
X30697Y156992D01*
X30639Y157053D01*
X30578Y157111D01*
X30514Y157167D01*
X30447Y157220D01*
X30378Y157269D01*
X30307Y157315D01*
X30234Y157358D01*
X30159Y157398D01*
X30083Y157434D01*
X30005Y157466D01*
X29925Y157495D01*
X29844Y157520D01*
X29762Y157541D01*
X29679Y157559D01*
X29595Y157572D01*
X29511Y157582D01*
X29427Y157588D01*
X29342Y157590D01*
X29342Y157591D02*
X26406Y157591D01*
X26406Y157590D02*
X26321Y157588D01*
X26237Y157582D01*
X26153Y157572D01*
X26069Y157559D01*
X25986Y157541D01*
X25904Y157520D01*
X25823Y157495D01*
X25743Y157466D01*
X25665Y157434D01*
X25589Y157398D01*
X25514Y157358D01*
X25441Y157315D01*
X25370Y157269D01*
X25301Y157220D01*
X25234Y157167D01*
X25170Y157111D01*
X25109Y157053D01*
X25051Y156992D01*
X24995Y156928D01*
X24942Y156861D01*
X24893Y156792D01*
X24847Y156721D01*
X24804Y156648D01*
X24764Y156573D01*
X24728Y156497D01*
X24696Y156419D01*
X24667Y156339D01*
X24642Y156258D01*
X24621Y156176D01*
X24603Y156093D01*
X24590Y156009D01*
X24580Y155925D01*
X24574Y155841D01*
X24572Y155756D01*
X24572Y153922D01*
X24572Y161852D02*
X31176Y161852D01*
X24572Y161119D02*
X24572Y162586D01*
X31176Y162586D02*
X31176Y161119D01*
X29342Y165870D02*
X26406Y165870D01*
X29342Y165871D02*
X29427Y165873D01*
X29511Y165879D01*
X29595Y165889D01*
X29679Y165902D01*
X29762Y165920D01*
X29844Y165941D01*
X29925Y165966D01*
X30005Y165995D01*
X30083Y166027D01*
X30159Y166063D01*
X30234Y166103D01*
X30307Y166146D01*
X30378Y166192D01*
X30447Y166241D01*
X30514Y166294D01*
X30578Y166350D01*
X30639Y166408D01*
X30697Y166469D01*
X30753Y166533D01*
X30806Y166600D01*
X30855Y166669D01*
X30901Y166740D01*
X30944Y166813D01*
X30984Y166888D01*
X31020Y166964D01*
X31052Y167042D01*
X31081Y167122D01*
X31106Y167203D01*
X31127Y167285D01*
X31145Y167368D01*
X31158Y167452D01*
X31168Y167536D01*
X31174Y167620D01*
X31176Y167705D01*
X31174Y167790D01*
X31168Y167874D01*
X31158Y167958D01*
X31145Y168042D01*
X31127Y168125D01*
X31106Y168207D01*
X31081Y168288D01*
X31052Y168368D01*
X31020Y168446D01*
X30984Y168522D01*
X30944Y168597D01*
X30901Y168670D01*
X30855Y168741D01*
X30806Y168810D01*
X30753Y168877D01*
X30697Y168941D01*
X30639Y169002D01*
X30578Y169060D01*
X30514Y169116D01*
X30447Y169169D01*
X30378Y169218D01*
X30307Y169264D01*
X30234Y169307D01*
X30159Y169347D01*
X30083Y169383D01*
X30005Y169415D01*
X29925Y169444D01*
X29844Y169469D01*
X29762Y169490D01*
X29679Y169508D01*
X29595Y169521D01*
X29511Y169531D01*
X29427Y169537D01*
X29342Y169539D01*
X26406Y169539D01*
X26321Y169537D01*
X26237Y169531D01*
X26153Y169521D01*
X26069Y169508D01*
X25986Y169490D01*
X25904Y169469D01*
X25823Y169444D01*
X25743Y169415D01*
X25665Y169383D01*
X25589Y169347D01*
X25514Y169307D01*
X25441Y169264D01*
X25370Y169218D01*
X25301Y169169D01*
X25234Y169116D01*
X25170Y169060D01*
X25109Y169002D01*
X25051Y168941D01*
X24995Y168877D01*
X24942Y168810D01*
X24893Y168741D01*
X24847Y168670D01*
X24804Y168597D01*
X24764Y168522D01*
X24728Y168446D01*
X24696Y168368D01*
X24667Y168288D01*
X24642Y168207D01*
X24621Y168125D01*
X24603Y168042D01*
X24590Y167958D01*
X24580Y167874D01*
X24574Y167790D01*
X24572Y167705D01*
X24574Y167620D01*
X24580Y167536D01*
X24590Y167452D01*
X24603Y167368D01*
X24621Y167285D01*
X24642Y167203D01*
X24667Y167122D01*
X24696Y167042D01*
X24728Y166964D01*
X24764Y166888D01*
X24804Y166813D01*
X24847Y166740D01*
X24893Y166669D01*
X24942Y166600D01*
X24995Y166533D01*
X25051Y166469D01*
X25109Y166408D01*
X25170Y166350D01*
X25234Y166294D01*
X25301Y166241D01*
X25370Y166192D01*
X25441Y166146D01*
X25514Y166103D01*
X25589Y166063D01*
X25665Y166027D01*
X25743Y165995D01*
X25823Y165966D01*
X25904Y165941D01*
X25986Y165920D01*
X26069Y165902D01*
X26153Y165889D01*
X26237Y165879D01*
X26321Y165873D01*
X26406Y165871D01*
X26040Y173185D02*
X31176Y174653D01*
X26040Y173185D02*
X26040Y176854D01*
X27507Y175754D02*
X24572Y175754D01*
X38542Y153922D02*
X45146Y153922D01*
X45146Y155756D01*
X45144Y155841D01*
X45138Y155925D01*
X45128Y156009D01*
X45115Y156093D01*
X45097Y156176D01*
X45076Y156258D01*
X45051Y156339D01*
X45022Y156419D01*
X44990Y156497D01*
X44954Y156573D01*
X44914Y156648D01*
X44871Y156721D01*
X44825Y156792D01*
X44776Y156861D01*
X44723Y156928D01*
X44667Y156992D01*
X44609Y157053D01*
X44548Y157111D01*
X44484Y157167D01*
X44417Y157220D01*
X44348Y157269D01*
X44277Y157315D01*
X44204Y157358D01*
X44129Y157398D01*
X44053Y157434D01*
X43975Y157466D01*
X43895Y157495D01*
X43814Y157520D01*
X43732Y157541D01*
X43649Y157559D01*
X43565Y157572D01*
X43481Y157582D01*
X43397Y157588D01*
X43312Y157590D01*
X43312Y157591D02*
X40376Y157591D01*
X40376Y157590D02*
X40291Y157588D01*
X40207Y157582D01*
X40123Y157572D01*
X40039Y157559D01*
X39956Y157541D01*
X39874Y157520D01*
X39793Y157495D01*
X39713Y157466D01*
X39635Y157434D01*
X39559Y157398D01*
X39484Y157358D01*
X39411Y157315D01*
X39340Y157269D01*
X39271Y157220D01*
X39204Y157167D01*
X39140Y157111D01*
X39079Y157053D01*
X39021Y156992D01*
X38965Y156928D01*
X38912Y156861D01*
X38863Y156792D01*
X38817Y156721D01*
X38774Y156648D01*
X38734Y156573D01*
X38698Y156497D01*
X38666Y156419D01*
X38637Y156339D01*
X38612Y156258D01*
X38591Y156176D01*
X38573Y156093D01*
X38560Y156009D01*
X38550Y155925D01*
X38544Y155841D01*
X38542Y155756D01*
X38542Y153922D01*
X38542Y161852D02*
X45146Y161852D01*
X38542Y161119D02*
X38542Y162586D01*
X45146Y162586D02*
X45146Y161119D01*
X43312Y165870D02*
X40376Y165870D01*
X43312Y165871D02*
X43397Y165873D01*
X43481Y165879D01*
X43565Y165889D01*
X43649Y165902D01*
X43732Y165920D01*
X43814Y165941D01*
X43895Y165966D01*
X43975Y165995D01*
X44053Y166027D01*
X44129Y166063D01*
X44204Y166103D01*
X44277Y166146D01*
X44348Y166192D01*
X44417Y166241D01*
X44484Y166294D01*
X44548Y166350D01*
X44609Y166408D01*
X44667Y166469D01*
X44723Y166533D01*
X44776Y166600D01*
X44825Y166669D01*
X44871Y166740D01*
X44914Y166813D01*
X44954Y166888D01*
X44990Y166964D01*
X45022Y167042D01*
X45051Y167122D01*
X45076Y167203D01*
X45097Y167285D01*
X45115Y167368D01*
X45128Y167452D01*
X45138Y167536D01*
X45144Y167620D01*
X45146Y167705D01*
X45144Y167790D01*
X45138Y167874D01*
X45128Y167958D01*
X45115Y168042D01*
X45097Y168125D01*
X45076Y168207D01*
X45051Y168288D01*
X45022Y168368D01*
X44990Y168446D01*
X44954Y168522D01*
X44914Y168597D01*
X44871Y168670D01*
X44825Y168741D01*
X44776Y168810D01*
X44723Y168877D01*
X44667Y168941D01*
X44609Y169002D01*
X44548Y169060D01*
X44484Y169116D01*
X44417Y169169D01*
X44348Y169218D01*
X44277Y169264D01*
X44204Y169307D01*
X44129Y169347D01*
X44053Y169383D01*
X43975Y169415D01*
X43895Y169444D01*
X43814Y169469D01*
X43732Y169490D01*
X43649Y169508D01*
X43565Y169521D01*
X43481Y169531D01*
X43397Y169537D01*
X43312Y169539D01*
X40376Y169539D01*
X40291Y169537D01*
X40207Y169531D01*
X40123Y169521D01*
X40039Y169508D01*
X39956Y169490D01*
X39874Y169469D01*
X39793Y169444D01*
X39713Y169415D01*
X39635Y169383D01*
X39559Y169347D01*
X39484Y169307D01*
X39411Y169264D01*
X39340Y169218D01*
X39271Y169169D01*
X39204Y169116D01*
X39140Y169060D01*
X39079Y169002D01*
X39021Y168941D01*
X38965Y168877D01*
X38912Y168810D01*
X38863Y168741D01*
X38817Y168670D01*
X38774Y168597D01*
X38734Y168522D01*
X38698Y168446D01*
X38666Y168368D01*
X38637Y168288D01*
X38612Y168207D01*
X38591Y168125D01*
X38573Y168042D01*
X38560Y167958D01*
X38550Y167874D01*
X38544Y167790D01*
X38542Y167705D01*
X38544Y167620D01*
X38550Y167536D01*
X38560Y167452D01*
X38573Y167368D01*
X38591Y167285D01*
X38612Y167203D01*
X38637Y167122D01*
X38666Y167042D01*
X38698Y166964D01*
X38734Y166888D01*
X38774Y166813D01*
X38817Y166740D01*
X38863Y166669D01*
X38912Y166600D01*
X38965Y166533D01*
X39021Y166469D01*
X39079Y166408D01*
X39140Y166350D01*
X39204Y166294D01*
X39271Y166241D01*
X39340Y166192D01*
X39411Y166146D01*
X39484Y166103D01*
X39559Y166063D01*
X39635Y166027D01*
X39713Y165995D01*
X39793Y165966D01*
X39874Y165941D01*
X39956Y165920D01*
X40039Y165902D01*
X40123Y165889D01*
X40207Y165879D01*
X40291Y165873D01*
X40376Y165871D01*
X38542Y173185D02*
X38542Y175387D01*
X38544Y175461D01*
X38550Y175536D01*
X38559Y175609D01*
X38572Y175683D01*
X38589Y175755D01*
X38609Y175826D01*
X38633Y175897D01*
X38661Y175966D01*
X38692Y176033D01*
X38726Y176099D01*
X38764Y176164D01*
X38805Y176226D01*
X38849Y176286D01*
X38896Y176343D01*
X38946Y176398D01*
X38999Y176451D01*
X39054Y176501D01*
X39111Y176548D01*
X39171Y176592D01*
X39233Y176633D01*
X39298Y176671D01*
X39363Y176705D01*
X39431Y176736D01*
X39500Y176764D01*
X39571Y176788D01*
X39642Y176808D01*
X39714Y176825D01*
X39788Y176838D01*
X39861Y176847D01*
X39936Y176853D01*
X40010Y176855D01*
X40010Y176854D02*
X40743Y176854D01*
X40743Y176855D02*
X40817Y176853D01*
X40892Y176847D01*
X40965Y176838D01*
X41039Y176825D01*
X41111Y176808D01*
X41182Y176788D01*
X41253Y176764D01*
X41322Y176736D01*
X41389Y176705D01*
X41455Y176671D01*
X41520Y176633D01*
X41582Y176592D01*
X41642Y176548D01*
X41699Y176501D01*
X41754Y176451D01*
X41807Y176398D01*
X41857Y176343D01*
X41904Y176286D01*
X41948Y176226D01*
X41989Y176164D01*
X42027Y176099D01*
X42061Y176033D01*
X42092Y175966D01*
X42120Y175897D01*
X42144Y175826D01*
X42164Y175755D01*
X42181Y175683D01*
X42194Y175609D01*
X42203Y175536D01*
X42209Y175461D01*
X42211Y175387D01*
X42211Y173185D01*
X45146Y173185D01*
X45146Y176854D01*
X51242Y153922D02*
X57846Y153922D01*
X57846Y155756D01*
X57844Y155841D01*
X57838Y155925D01*
X57828Y156009D01*
X57815Y156093D01*
X57797Y156176D01*
X57776Y156258D01*
X57751Y156339D01*
X57722Y156419D01*
X57690Y156497D01*
X57654Y156573D01*
X57614Y156648D01*
X57571Y156721D01*
X57525Y156792D01*
X57476Y156861D01*
X57423Y156928D01*
X57367Y156992D01*
X57309Y157053D01*
X57248Y157111D01*
X57184Y157167D01*
X57117Y157220D01*
X57048Y157269D01*
X56977Y157315D01*
X56904Y157358D01*
X56829Y157398D01*
X56753Y157434D01*
X56675Y157466D01*
X56595Y157495D01*
X56514Y157520D01*
X56432Y157541D01*
X56349Y157559D01*
X56265Y157572D01*
X56181Y157582D01*
X56097Y157588D01*
X56012Y157590D01*
X56012Y157591D02*
X53076Y157591D01*
X53076Y157590D02*
X52991Y157588D01*
X52907Y157582D01*
X52823Y157572D01*
X52739Y157559D01*
X52656Y157541D01*
X52574Y157520D01*
X52493Y157495D01*
X52413Y157466D01*
X52335Y157434D01*
X52259Y157398D01*
X52184Y157358D01*
X52111Y157315D01*
X52040Y157269D01*
X51971Y157220D01*
X51904Y157167D01*
X51840Y157111D01*
X51779Y157053D01*
X51721Y156992D01*
X51665Y156928D01*
X51612Y156861D01*
X51563Y156792D01*
X51517Y156721D01*
X51474Y156648D01*
X51434Y156573D01*
X51398Y156497D01*
X51366Y156419D01*
X51337Y156339D01*
X51312Y156258D01*
X51291Y156176D01*
X51273Y156093D01*
X51260Y156009D01*
X51250Y155925D01*
X51244Y155841D01*
X51242Y155756D01*
X51242Y153922D01*
X51242Y161852D02*
X57846Y161852D01*
X51242Y161119D02*
X51242Y162586D01*
X57846Y162586D02*
X57846Y161119D01*
X56012Y165870D02*
X53076Y165870D01*
X56012Y165871D02*
X56097Y165873D01*
X56181Y165879D01*
X56265Y165889D01*
X56349Y165902D01*
X56432Y165920D01*
X56514Y165941D01*
X56595Y165966D01*
X56675Y165995D01*
X56753Y166027D01*
X56829Y166063D01*
X56904Y166103D01*
X56977Y166146D01*
X57048Y166192D01*
X57117Y166241D01*
X57184Y166294D01*
X57248Y166350D01*
X57309Y166408D01*
X57367Y166469D01*
X57423Y166533D01*
X57476Y166600D01*
X57525Y166669D01*
X57571Y166740D01*
X57614Y166813D01*
X57654Y166888D01*
X57690Y166964D01*
X57722Y167042D01*
X57751Y167122D01*
X57776Y167203D01*
X57797Y167285D01*
X57815Y167368D01*
X57828Y167452D01*
X57838Y167536D01*
X57844Y167620D01*
X57846Y167705D01*
X57844Y167790D01*
X57838Y167874D01*
X57828Y167958D01*
X57815Y168042D01*
X57797Y168125D01*
X57776Y168207D01*
X57751Y168288D01*
X57722Y168368D01*
X57690Y168446D01*
X57654Y168522D01*
X57614Y168597D01*
X57571Y168670D01*
X57525Y168741D01*
X57476Y168810D01*
X57423Y168877D01*
X57367Y168941D01*
X57309Y169002D01*
X57248Y169060D01*
X57184Y169116D01*
X57117Y169169D01*
X57048Y169218D01*
X56977Y169264D01*
X56904Y169307D01*
X56829Y169347D01*
X56753Y169383D01*
X56675Y169415D01*
X56595Y169444D01*
X56514Y169469D01*
X56432Y169490D01*
X56349Y169508D01*
X56265Y169521D01*
X56181Y169531D01*
X56097Y169537D01*
X56012Y169539D01*
X53076Y169539D01*
X52991Y169537D01*
X52907Y169531D01*
X52823Y169521D01*
X52739Y169508D01*
X52656Y169490D01*
X52574Y169469D01*
X52493Y169444D01*
X52413Y169415D01*
X52335Y169383D01*
X52259Y169347D01*
X52184Y169307D01*
X52111Y169264D01*
X52040Y169218D01*
X51971Y169169D01*
X51904Y169116D01*
X51840Y169060D01*
X51779Y169002D01*
X51721Y168941D01*
X51665Y168877D01*
X51612Y168810D01*
X51563Y168741D01*
X51517Y168670D01*
X51474Y168597D01*
X51434Y168522D01*
X51398Y168446D01*
X51366Y168368D01*
X51337Y168288D01*
X51312Y168207D01*
X51291Y168125D01*
X51273Y168042D01*
X51260Y167958D01*
X51250Y167874D01*
X51244Y167790D01*
X51242Y167705D01*
X51244Y167620D01*
X51250Y167536D01*
X51260Y167452D01*
X51273Y167368D01*
X51291Y167285D01*
X51312Y167203D01*
X51337Y167122D01*
X51366Y167042D01*
X51398Y166964D01*
X51434Y166888D01*
X51474Y166813D01*
X51517Y166740D01*
X51563Y166669D01*
X51612Y166600D01*
X51665Y166533D01*
X51721Y166469D01*
X51779Y166408D01*
X51840Y166350D01*
X51904Y166294D01*
X51971Y166241D01*
X52040Y166192D01*
X52111Y166146D01*
X52184Y166103D01*
X52259Y166063D01*
X52335Y166027D01*
X52413Y165995D01*
X52493Y165966D01*
X52574Y165941D01*
X52656Y165920D01*
X52739Y165902D01*
X52823Y165889D01*
X52907Y165879D01*
X52991Y165873D01*
X53076Y165871D01*
X54911Y173185D02*
X54911Y175387D01*
X54909Y175461D01*
X54903Y175536D01*
X54894Y175609D01*
X54881Y175683D01*
X54864Y175755D01*
X54844Y175826D01*
X54820Y175897D01*
X54792Y175966D01*
X54761Y176033D01*
X54727Y176099D01*
X54689Y176164D01*
X54648Y176226D01*
X54604Y176286D01*
X54557Y176343D01*
X54507Y176398D01*
X54454Y176451D01*
X54399Y176501D01*
X54342Y176548D01*
X54282Y176592D01*
X54220Y176633D01*
X54155Y176671D01*
X54089Y176705D01*
X54022Y176736D01*
X53953Y176764D01*
X53882Y176788D01*
X53811Y176808D01*
X53739Y176825D01*
X53665Y176838D01*
X53592Y176847D01*
X53517Y176853D01*
X53443Y176855D01*
X53443Y176854D02*
X53076Y176854D01*
X52991Y176852D01*
X52907Y176846D01*
X52823Y176836D01*
X52739Y176823D01*
X52656Y176805D01*
X52574Y176784D01*
X52493Y176759D01*
X52413Y176730D01*
X52335Y176698D01*
X52259Y176662D01*
X52184Y176622D01*
X52111Y176579D01*
X52040Y176533D01*
X51971Y176484D01*
X51904Y176431D01*
X51840Y176375D01*
X51779Y176317D01*
X51721Y176256D01*
X51665Y176192D01*
X51612Y176125D01*
X51563Y176056D01*
X51517Y175985D01*
X51474Y175912D01*
X51434Y175837D01*
X51398Y175761D01*
X51366Y175683D01*
X51337Y175603D01*
X51312Y175522D01*
X51291Y175440D01*
X51273Y175357D01*
X51260Y175273D01*
X51250Y175189D01*
X51244Y175105D01*
X51242Y175020D01*
X51244Y174935D01*
X51250Y174851D01*
X51260Y174767D01*
X51273Y174683D01*
X51291Y174600D01*
X51312Y174518D01*
X51337Y174437D01*
X51366Y174357D01*
X51398Y174279D01*
X51434Y174203D01*
X51474Y174128D01*
X51517Y174055D01*
X51563Y173984D01*
X51612Y173915D01*
X51665Y173848D01*
X51721Y173784D01*
X51779Y173723D01*
X51840Y173665D01*
X51904Y173609D01*
X51971Y173556D01*
X52040Y173507D01*
X52111Y173461D01*
X52184Y173418D01*
X52259Y173378D01*
X52335Y173342D01*
X52413Y173310D01*
X52493Y173281D01*
X52574Y173256D01*
X52656Y173235D01*
X52739Y173217D01*
X52823Y173204D01*
X52907Y173194D01*
X52991Y173188D01*
X53076Y173186D01*
X53076Y173185D02*
X54911Y173185D01*
X55018Y173187D01*
X55125Y173193D01*
X55232Y173203D01*
X55338Y173216D01*
X55444Y173234D01*
X55549Y173255D01*
X55653Y173280D01*
X55757Y173309D01*
X55859Y173342D01*
X55959Y173379D01*
X56059Y173419D01*
X56157Y173463D01*
X56253Y173510D01*
X56347Y173561D01*
X56440Y173615D01*
X56530Y173672D01*
X56619Y173733D01*
X56705Y173797D01*
X56788Y173864D01*
X56870Y173934D01*
X56948Y174007D01*
X57024Y174083D01*
X57097Y174161D01*
X57167Y174243D01*
X57234Y174326D01*
X57298Y174412D01*
X57359Y174501D01*
X57416Y174591D01*
X57470Y174684D01*
X57521Y174778D01*
X57568Y174874D01*
X57612Y174972D01*
X57652Y175072D01*
X57689Y175172D01*
X57722Y175274D01*
X57751Y175378D01*
X57776Y175482D01*
X57797Y175587D01*
X57815Y175693D01*
X57828Y175799D01*
X57838Y175906D01*
X57844Y176013D01*
X57846Y176120D01*
X63942Y153922D02*
X70546Y153922D01*
X70546Y155756D01*
X70544Y155841D01*
X70538Y155925D01*
X70528Y156009D01*
X70515Y156093D01*
X70497Y156176D01*
X70476Y156258D01*
X70451Y156339D01*
X70422Y156419D01*
X70390Y156497D01*
X70354Y156573D01*
X70314Y156648D01*
X70271Y156721D01*
X70225Y156792D01*
X70176Y156861D01*
X70123Y156928D01*
X70067Y156992D01*
X70009Y157053D01*
X69948Y157111D01*
X69884Y157167D01*
X69817Y157220D01*
X69748Y157269D01*
X69677Y157315D01*
X69604Y157358D01*
X69529Y157398D01*
X69453Y157434D01*
X69375Y157466D01*
X69295Y157495D01*
X69214Y157520D01*
X69132Y157541D01*
X69049Y157559D01*
X68965Y157572D01*
X68881Y157582D01*
X68797Y157588D01*
X68712Y157590D01*
X68712Y157591D02*
X65776Y157591D01*
X65776Y157590D02*
X65691Y157588D01*
X65607Y157582D01*
X65523Y157572D01*
X65439Y157559D01*
X65356Y157541D01*
X65274Y157520D01*
X65193Y157495D01*
X65113Y157466D01*
X65035Y157434D01*
X64959Y157398D01*
X64884Y157358D01*
X64811Y157315D01*
X64740Y157269D01*
X64671Y157220D01*
X64604Y157167D01*
X64540Y157111D01*
X64479Y157053D01*
X64421Y156992D01*
X64365Y156928D01*
X64312Y156861D01*
X64263Y156792D01*
X64217Y156721D01*
X64174Y156648D01*
X64134Y156573D01*
X64098Y156497D01*
X64066Y156419D01*
X64037Y156339D01*
X64012Y156258D01*
X63991Y156176D01*
X63973Y156093D01*
X63960Y156009D01*
X63950Y155925D01*
X63944Y155841D01*
X63942Y155756D01*
X63942Y153922D01*
X63942Y161852D02*
X70546Y161852D01*
X63942Y161119D02*
X63942Y162586D01*
X70546Y162586D02*
X70546Y161119D01*
X68712Y165870D02*
X65776Y165870D01*
X68712Y165871D02*
X68797Y165873D01*
X68881Y165879D01*
X68965Y165889D01*
X69049Y165902D01*
X69132Y165920D01*
X69214Y165941D01*
X69295Y165966D01*
X69375Y165995D01*
X69453Y166027D01*
X69529Y166063D01*
X69604Y166103D01*
X69677Y166146D01*
X69748Y166192D01*
X69817Y166241D01*
X69884Y166294D01*
X69948Y166350D01*
X70009Y166408D01*
X70067Y166469D01*
X70123Y166533D01*
X70176Y166600D01*
X70225Y166669D01*
X70271Y166740D01*
X70314Y166813D01*
X70354Y166888D01*
X70390Y166964D01*
X70422Y167042D01*
X70451Y167122D01*
X70476Y167203D01*
X70497Y167285D01*
X70515Y167368D01*
X70528Y167452D01*
X70538Y167536D01*
X70544Y167620D01*
X70546Y167705D01*
X70544Y167790D01*
X70538Y167874D01*
X70528Y167958D01*
X70515Y168042D01*
X70497Y168125D01*
X70476Y168207D01*
X70451Y168288D01*
X70422Y168368D01*
X70390Y168446D01*
X70354Y168522D01*
X70314Y168597D01*
X70271Y168670D01*
X70225Y168741D01*
X70176Y168810D01*
X70123Y168877D01*
X70067Y168941D01*
X70009Y169002D01*
X69948Y169060D01*
X69884Y169116D01*
X69817Y169169D01*
X69748Y169218D01*
X69677Y169264D01*
X69604Y169307D01*
X69529Y169347D01*
X69453Y169383D01*
X69375Y169415D01*
X69295Y169444D01*
X69214Y169469D01*
X69132Y169490D01*
X69049Y169508D01*
X68965Y169521D01*
X68881Y169531D01*
X68797Y169537D01*
X68712Y169539D01*
X65776Y169539D01*
X65691Y169537D01*
X65607Y169531D01*
X65523Y169521D01*
X65439Y169508D01*
X65356Y169490D01*
X65274Y169469D01*
X65193Y169444D01*
X65113Y169415D01*
X65035Y169383D01*
X64959Y169347D01*
X64884Y169307D01*
X64811Y169264D01*
X64740Y169218D01*
X64671Y169169D01*
X64604Y169116D01*
X64540Y169060D01*
X64479Y169002D01*
X64421Y168941D01*
X64365Y168877D01*
X64312Y168810D01*
X64263Y168741D01*
X64217Y168670D01*
X64174Y168597D01*
X64134Y168522D01*
X64098Y168446D01*
X64066Y168368D01*
X64037Y168288D01*
X64012Y168207D01*
X63991Y168125D01*
X63973Y168042D01*
X63960Y167958D01*
X63950Y167874D01*
X63944Y167790D01*
X63942Y167705D01*
X63944Y167620D01*
X63950Y167536D01*
X63960Y167452D01*
X63973Y167368D01*
X63991Y167285D01*
X64012Y167203D01*
X64037Y167122D01*
X64066Y167042D01*
X64098Y166964D01*
X64134Y166888D01*
X64174Y166813D01*
X64217Y166740D01*
X64263Y166669D01*
X64312Y166600D01*
X64365Y166533D01*
X64421Y166469D01*
X64479Y166408D01*
X64540Y166350D01*
X64604Y166294D01*
X64671Y166241D01*
X64740Y166192D01*
X64811Y166146D01*
X64884Y166103D01*
X64959Y166063D01*
X65035Y166027D01*
X65113Y165995D01*
X65193Y165966D01*
X65274Y165941D01*
X65356Y165920D01*
X65439Y165902D01*
X65523Y165889D01*
X65607Y165879D01*
X65691Y165873D01*
X65776Y165871D01*
X69812Y173185D02*
X70546Y173185D01*
X70546Y176854D01*
X63942Y175020D01*
X76642Y153922D02*
X83246Y153922D01*
X83246Y155756D01*
X83244Y155841D01*
X83238Y155925D01*
X83228Y156009D01*
X83215Y156093D01*
X83197Y156176D01*
X83176Y156258D01*
X83151Y156339D01*
X83122Y156419D01*
X83090Y156497D01*
X83054Y156573D01*
X83014Y156648D01*
X82971Y156721D01*
X82925Y156792D01*
X82876Y156861D01*
X82823Y156928D01*
X82767Y156992D01*
X82709Y157053D01*
X82648Y157111D01*
X82584Y157167D01*
X82517Y157220D01*
X82448Y157269D01*
X82377Y157315D01*
X82304Y157358D01*
X82229Y157398D01*
X82153Y157434D01*
X82075Y157466D01*
X81995Y157495D01*
X81914Y157520D01*
X81832Y157541D01*
X81749Y157559D01*
X81665Y157572D01*
X81581Y157582D01*
X81497Y157588D01*
X81412Y157590D01*
X81412Y157591D02*
X78476Y157591D01*
X78476Y157590D02*
X78391Y157588D01*
X78307Y157582D01*
X78223Y157572D01*
X78139Y157559D01*
X78056Y157541D01*
X77974Y157520D01*
X77893Y157495D01*
X77813Y157466D01*
X77735Y157434D01*
X77659Y157398D01*
X77584Y157358D01*
X77511Y157315D01*
X77440Y157269D01*
X77371Y157220D01*
X77304Y157167D01*
X77240Y157111D01*
X77179Y157053D01*
X77121Y156992D01*
X77065Y156928D01*
X77012Y156861D01*
X76963Y156792D01*
X76917Y156721D01*
X76874Y156648D01*
X76834Y156573D01*
X76798Y156497D01*
X76766Y156419D01*
X76737Y156339D01*
X76712Y156258D01*
X76691Y156176D01*
X76673Y156093D01*
X76660Y156009D01*
X76650Y155925D01*
X76644Y155841D01*
X76642Y155756D01*
X76642Y153922D01*
X76642Y161852D02*
X83246Y161852D01*
X76642Y161119D02*
X76642Y162586D01*
X83246Y162586D02*
X83246Y161119D01*
X81412Y165870D02*
X78476Y165870D01*
X81412Y165871D02*
X81497Y165873D01*
X81581Y165879D01*
X81665Y165889D01*
X81749Y165902D01*
X81832Y165920D01*
X81914Y165941D01*
X81995Y165966D01*
X82075Y165995D01*
X82153Y166027D01*
X82229Y166063D01*
X82304Y166103D01*
X82377Y166146D01*
X82448Y166192D01*
X82517Y166241D01*
X82584Y166294D01*
X82648Y166350D01*
X82709Y166408D01*
X82767Y166469D01*
X82823Y166533D01*
X82876Y166600D01*
X82925Y166669D01*
X82971Y166740D01*
X83014Y166813D01*
X83054Y166888D01*
X83090Y166964D01*
X83122Y167042D01*
X83151Y167122D01*
X83176Y167203D01*
X83197Y167285D01*
X83215Y167368D01*
X83228Y167452D01*
X83238Y167536D01*
X83244Y167620D01*
X83246Y167705D01*
X83244Y167790D01*
X83238Y167874D01*
X83228Y167958D01*
X83215Y168042D01*
X83197Y168125D01*
X83176Y168207D01*
X83151Y168288D01*
X83122Y168368D01*
X83090Y168446D01*
X83054Y168522D01*
X83014Y168597D01*
X82971Y168670D01*
X82925Y168741D01*
X82876Y168810D01*
X82823Y168877D01*
X82767Y168941D01*
X82709Y169002D01*
X82648Y169060D01*
X82584Y169116D01*
X82517Y169169D01*
X82448Y169218D01*
X82377Y169264D01*
X82304Y169307D01*
X82229Y169347D01*
X82153Y169383D01*
X82075Y169415D01*
X81995Y169444D01*
X81914Y169469D01*
X81832Y169490D01*
X81749Y169508D01*
X81665Y169521D01*
X81581Y169531D01*
X81497Y169537D01*
X81412Y169539D01*
X78476Y169539D01*
X78391Y169537D01*
X78307Y169531D01*
X78223Y169521D01*
X78139Y169508D01*
X78056Y169490D01*
X77974Y169469D01*
X77893Y169444D01*
X77813Y169415D01*
X77735Y169383D01*
X77659Y169347D01*
X77584Y169307D01*
X77511Y169264D01*
X77440Y169218D01*
X77371Y169169D01*
X77304Y169116D01*
X77240Y169060D01*
X77179Y169002D01*
X77121Y168941D01*
X77065Y168877D01*
X77012Y168810D01*
X76963Y168741D01*
X76917Y168670D01*
X76874Y168597D01*
X76834Y168522D01*
X76798Y168446D01*
X76766Y168368D01*
X76737Y168288D01*
X76712Y168207D01*
X76691Y168125D01*
X76673Y168042D01*
X76660Y167958D01*
X76650Y167874D01*
X76644Y167790D01*
X76642Y167705D01*
X76644Y167620D01*
X76650Y167536D01*
X76660Y167452D01*
X76673Y167368D01*
X76691Y167285D01*
X76712Y167203D01*
X76737Y167122D01*
X76766Y167042D01*
X76798Y166964D01*
X76834Y166888D01*
X76874Y166813D01*
X76917Y166740D01*
X76963Y166669D01*
X77012Y166600D01*
X77065Y166533D01*
X77121Y166469D01*
X77179Y166408D01*
X77240Y166350D01*
X77304Y166294D01*
X77371Y166241D01*
X77440Y166192D01*
X77511Y166146D01*
X77584Y166103D01*
X77659Y166063D01*
X77735Y166027D01*
X77813Y165995D01*
X77893Y165966D01*
X77974Y165941D01*
X78056Y165920D01*
X78139Y165902D01*
X78223Y165889D01*
X78307Y165879D01*
X78391Y165873D01*
X78476Y165871D01*
X78476Y173186D02*
X78561Y173188D01*
X78645Y173194D01*
X78729Y173204D01*
X78813Y173217D01*
X78896Y173235D01*
X78978Y173256D01*
X79059Y173281D01*
X79139Y173310D01*
X79217Y173342D01*
X79293Y173378D01*
X79368Y173418D01*
X79441Y173461D01*
X79512Y173507D01*
X79581Y173556D01*
X79648Y173609D01*
X79712Y173665D01*
X79773Y173723D01*
X79831Y173784D01*
X79887Y173848D01*
X79940Y173915D01*
X79989Y173984D01*
X80035Y174055D01*
X80078Y174128D01*
X80118Y174203D01*
X80154Y174279D01*
X80186Y174357D01*
X80215Y174437D01*
X80240Y174518D01*
X80261Y174600D01*
X80279Y174683D01*
X80292Y174767D01*
X80302Y174851D01*
X80308Y174935D01*
X80310Y175020D01*
X80308Y175105D01*
X80302Y175189D01*
X80292Y175273D01*
X80279Y175357D01*
X80261Y175440D01*
X80240Y175522D01*
X80215Y175603D01*
X80186Y175683D01*
X80154Y175761D01*
X80118Y175837D01*
X80078Y175912D01*
X80035Y175985D01*
X79989Y176056D01*
X79940Y176125D01*
X79887Y176192D01*
X79831Y176256D01*
X79773Y176317D01*
X79712Y176375D01*
X79648Y176431D01*
X79581Y176484D01*
X79512Y176533D01*
X79441Y176579D01*
X79368Y176622D01*
X79293Y176662D01*
X79217Y176698D01*
X79139Y176730D01*
X79059Y176759D01*
X78978Y176784D01*
X78896Y176805D01*
X78813Y176823D01*
X78729Y176836D01*
X78645Y176846D01*
X78561Y176852D01*
X78476Y176854D01*
X78391Y176852D01*
X78307Y176846D01*
X78223Y176836D01*
X78139Y176823D01*
X78056Y176805D01*
X77974Y176784D01*
X77893Y176759D01*
X77813Y176730D01*
X77735Y176698D01*
X77659Y176662D01*
X77584Y176622D01*
X77511Y176579D01*
X77440Y176533D01*
X77371Y176484D01*
X77304Y176431D01*
X77240Y176375D01*
X77179Y176317D01*
X77121Y176256D01*
X77065Y176192D01*
X77012Y176125D01*
X76963Y176056D01*
X76917Y175985D01*
X76874Y175912D01*
X76834Y175837D01*
X76798Y175761D01*
X76766Y175683D01*
X76737Y175603D01*
X76712Y175522D01*
X76691Y175440D01*
X76673Y175357D01*
X76660Y175273D01*
X76650Y175189D01*
X76644Y175105D01*
X76642Y175020D01*
X76644Y174935D01*
X76650Y174851D01*
X76660Y174767D01*
X76673Y174683D01*
X76691Y174600D01*
X76712Y174518D01*
X76737Y174437D01*
X76766Y174357D01*
X76798Y174279D01*
X76834Y174203D01*
X76874Y174128D01*
X76917Y174055D01*
X76963Y173984D01*
X77012Y173915D01*
X77065Y173848D01*
X77121Y173784D01*
X77179Y173723D01*
X77240Y173665D01*
X77304Y173609D01*
X77371Y173556D01*
X77440Y173507D01*
X77511Y173461D01*
X77584Y173418D01*
X77659Y173378D01*
X77735Y173342D01*
X77813Y173310D01*
X77893Y173281D01*
X77974Y173256D01*
X78056Y173235D01*
X78139Y173217D01*
X78223Y173204D01*
X78307Y173194D01*
X78391Y173188D01*
X78476Y173186D01*
X81778Y173552D02*
X81854Y173554D01*
X81929Y173560D01*
X82004Y173569D01*
X82078Y173583D01*
X82152Y173600D01*
X82224Y173622D01*
X82296Y173646D01*
X82366Y173675D01*
X82434Y173707D01*
X82501Y173742D01*
X82566Y173781D01*
X82629Y173824D01*
X82689Y173869D01*
X82747Y173917D01*
X82803Y173969D01*
X82855Y174023D01*
X82905Y174080D01*
X82952Y174139D01*
X82996Y174200D01*
X83037Y174264D01*
X83074Y174330D01*
X83108Y174398D01*
X83138Y174467D01*
X83165Y174538D01*
X83188Y174610D01*
X83207Y174683D01*
X83222Y174757D01*
X83234Y174832D01*
X83242Y174907D01*
X83246Y174982D01*
X83246Y175058D01*
X83242Y175133D01*
X83234Y175208D01*
X83222Y175283D01*
X83207Y175357D01*
X83188Y175430D01*
X83165Y175502D01*
X83138Y175573D01*
X83108Y175642D01*
X83074Y175710D01*
X83037Y175776D01*
X82996Y175840D01*
X82952Y175901D01*
X82905Y175960D01*
X82855Y176017D01*
X82803Y176071D01*
X82747Y176123D01*
X82689Y176171D01*
X82629Y176216D01*
X82566Y176259D01*
X82501Y176298D01*
X82434Y176333D01*
X82366Y176365D01*
X82296Y176394D01*
X82224Y176418D01*
X82152Y176440D01*
X82078Y176457D01*
X82004Y176471D01*
X81929Y176480D01*
X81854Y176486D01*
X81778Y176488D01*
X81702Y176486D01*
X81627Y176480D01*
X81552Y176471D01*
X81478Y176457D01*
X81404Y176440D01*
X81332Y176418D01*
X81260Y176394D01*
X81190Y176365D01*
X81122Y176333D01*
X81055Y176298D01*
X80990Y176259D01*
X80927Y176216D01*
X80867Y176171D01*
X80809Y176123D01*
X80753Y176071D01*
X80701Y176017D01*
X80651Y175960D01*
X80604Y175901D01*
X80560Y175840D01*
X80519Y175776D01*
X80482Y175710D01*
X80448Y175642D01*
X80418Y175573D01*
X80391Y175502D01*
X80368Y175430D01*
X80349Y175357D01*
X80334Y175283D01*
X80322Y175208D01*
X80314Y175133D01*
X80310Y175058D01*
X80310Y174982D01*
X80314Y174907D01*
X80322Y174832D01*
X80334Y174757D01*
X80349Y174683D01*
X80368Y174610D01*
X80391Y174538D01*
X80418Y174467D01*
X80448Y174398D01*
X80482Y174330D01*
X80519Y174264D01*
X80560Y174200D01*
X80604Y174139D01*
X80651Y174080D01*
X80701Y174023D01*
X80753Y173969D01*
X80809Y173917D01*
X80867Y173869D01*
X80927Y173824D01*
X80990Y173781D01*
X81055Y173742D01*
X81122Y173707D01*
X81190Y173675D01*
X81260Y173646D01*
X81332Y173622D01*
X81404Y173600D01*
X81478Y173583D01*
X81552Y173569D01*
X81627Y173560D01*
X81702Y173554D01*
X81778Y173552D01*
X88072Y153922D02*
X94676Y153922D01*
X94676Y155756D01*
X94674Y155841D01*
X94668Y155925D01*
X94658Y156009D01*
X94645Y156093D01*
X94627Y156176D01*
X94606Y156258D01*
X94581Y156339D01*
X94552Y156419D01*
X94520Y156497D01*
X94484Y156573D01*
X94444Y156648D01*
X94401Y156721D01*
X94355Y156792D01*
X94306Y156861D01*
X94253Y156928D01*
X94197Y156992D01*
X94139Y157053D01*
X94078Y157111D01*
X94014Y157167D01*
X93947Y157220D01*
X93878Y157269D01*
X93807Y157315D01*
X93734Y157358D01*
X93659Y157398D01*
X93583Y157434D01*
X93505Y157466D01*
X93425Y157495D01*
X93344Y157520D01*
X93262Y157541D01*
X93179Y157559D01*
X93095Y157572D01*
X93011Y157582D01*
X92927Y157588D01*
X92842Y157590D01*
X92842Y157591D02*
X89906Y157591D01*
X89906Y157590D02*
X89821Y157588D01*
X89737Y157582D01*
X89653Y157572D01*
X89569Y157559D01*
X89486Y157541D01*
X89404Y157520D01*
X89323Y157495D01*
X89243Y157466D01*
X89165Y157434D01*
X89089Y157398D01*
X89014Y157358D01*
X88941Y157315D01*
X88870Y157269D01*
X88801Y157220D01*
X88734Y157167D01*
X88670Y157111D01*
X88609Y157053D01*
X88551Y156992D01*
X88495Y156928D01*
X88442Y156861D01*
X88393Y156792D01*
X88347Y156721D01*
X88304Y156648D01*
X88264Y156573D01*
X88228Y156497D01*
X88196Y156419D01*
X88167Y156339D01*
X88142Y156258D01*
X88121Y156176D01*
X88103Y156093D01*
X88090Y156009D01*
X88080Y155925D01*
X88074Y155841D01*
X88072Y155756D01*
X88072Y153922D01*
X88072Y161852D02*
X94676Y161852D01*
X88072Y161119D02*
X88072Y162586D01*
X94676Y162586D02*
X94676Y161119D01*
X92842Y165870D02*
X89906Y165870D01*
X92842Y165871D02*
X92927Y165873D01*
X93011Y165879D01*
X93095Y165889D01*
X93179Y165902D01*
X93262Y165920D01*
X93344Y165941D01*
X93425Y165966D01*
X93505Y165995D01*
X93583Y166027D01*
X93659Y166063D01*
X93734Y166103D01*
X93807Y166146D01*
X93878Y166192D01*
X93947Y166241D01*
X94014Y166294D01*
X94078Y166350D01*
X94139Y166408D01*
X94197Y166469D01*
X94253Y166533D01*
X94306Y166600D01*
X94355Y166669D01*
X94401Y166740D01*
X94444Y166813D01*
X94484Y166888D01*
X94520Y166964D01*
X94552Y167042D01*
X94581Y167122D01*
X94606Y167203D01*
X94627Y167285D01*
X94645Y167368D01*
X94658Y167452D01*
X94668Y167536D01*
X94674Y167620D01*
X94676Y167705D01*
X94674Y167790D01*
X94668Y167874D01*
X94658Y167958D01*
X94645Y168042D01*
X94627Y168125D01*
X94606Y168207D01*
X94581Y168288D01*
X94552Y168368D01*
X94520Y168446D01*
X94484Y168522D01*
X94444Y168597D01*
X94401Y168670D01*
X94355Y168741D01*
X94306Y168810D01*
X94253Y168877D01*
X94197Y168941D01*
X94139Y169002D01*
X94078Y169060D01*
X94014Y169116D01*
X93947Y169169D01*
X93878Y169218D01*
X93807Y169264D01*
X93734Y169307D01*
X93659Y169347D01*
X93583Y169383D01*
X93505Y169415D01*
X93425Y169444D01*
X93344Y169469D01*
X93262Y169490D01*
X93179Y169508D01*
X93095Y169521D01*
X93011Y169531D01*
X92927Y169537D01*
X92842Y169539D01*
X89906Y169539D01*
X89821Y169537D01*
X89737Y169531D01*
X89653Y169521D01*
X89569Y169508D01*
X89486Y169490D01*
X89404Y169469D01*
X89323Y169444D01*
X89243Y169415D01*
X89165Y169383D01*
X89089Y169347D01*
X89014Y169307D01*
X88941Y169264D01*
X88870Y169218D01*
X88801Y169169D01*
X88734Y169116D01*
X88670Y169060D01*
X88609Y169002D01*
X88551Y168941D01*
X88495Y168877D01*
X88442Y168810D01*
X88393Y168741D01*
X88347Y168670D01*
X88304Y168597D01*
X88264Y168522D01*
X88228Y168446D01*
X88196Y168368D01*
X88167Y168288D01*
X88142Y168207D01*
X88121Y168125D01*
X88103Y168042D01*
X88090Y167958D01*
X88080Y167874D01*
X88074Y167790D01*
X88072Y167705D01*
X88074Y167620D01*
X88080Y167536D01*
X88090Y167452D01*
X88103Y167368D01*
X88121Y167285D01*
X88142Y167203D01*
X88167Y167122D01*
X88196Y167042D01*
X88228Y166964D01*
X88264Y166888D01*
X88304Y166813D01*
X88347Y166740D01*
X88393Y166669D01*
X88442Y166600D01*
X88495Y166533D01*
X88551Y166469D01*
X88609Y166408D01*
X88670Y166350D01*
X88734Y166294D01*
X88801Y166241D01*
X88870Y166192D01*
X88941Y166146D01*
X89014Y166103D01*
X89089Y166063D01*
X89165Y166027D01*
X89243Y165995D01*
X89323Y165966D01*
X89404Y165941D01*
X89486Y165920D01*
X89569Y165902D01*
X89653Y165889D01*
X89737Y165879D01*
X89821Y165873D01*
X89906Y165871D01*
X91007Y174653D02*
X91007Y176854D01*
X91007Y174653D02*
X91009Y174579D01*
X91015Y174504D01*
X91024Y174431D01*
X91037Y174357D01*
X91054Y174285D01*
X91074Y174214D01*
X91098Y174143D01*
X91126Y174074D01*
X91157Y174007D01*
X91191Y173941D01*
X91229Y173876D01*
X91270Y173814D01*
X91314Y173754D01*
X91361Y173697D01*
X91411Y173642D01*
X91464Y173589D01*
X91519Y173539D01*
X91576Y173492D01*
X91636Y173448D01*
X91698Y173407D01*
X91763Y173369D01*
X91829Y173335D01*
X91896Y173304D01*
X91965Y173276D01*
X92036Y173252D01*
X92107Y173232D01*
X92179Y173215D01*
X92253Y173202D01*
X92326Y173193D01*
X92401Y173187D01*
X92475Y173185D01*
X92842Y173185D01*
X92842Y173186D02*
X92927Y173188D01*
X93011Y173194D01*
X93095Y173204D01*
X93179Y173217D01*
X93262Y173235D01*
X93344Y173256D01*
X93425Y173281D01*
X93505Y173310D01*
X93583Y173342D01*
X93659Y173378D01*
X93734Y173418D01*
X93807Y173461D01*
X93878Y173507D01*
X93947Y173556D01*
X94014Y173609D01*
X94078Y173665D01*
X94139Y173723D01*
X94197Y173784D01*
X94253Y173848D01*
X94306Y173915D01*
X94355Y173984D01*
X94401Y174055D01*
X94444Y174128D01*
X94484Y174203D01*
X94520Y174279D01*
X94552Y174357D01*
X94581Y174437D01*
X94606Y174518D01*
X94627Y174600D01*
X94645Y174683D01*
X94658Y174767D01*
X94668Y174851D01*
X94674Y174935D01*
X94676Y175020D01*
X94674Y175105D01*
X94668Y175189D01*
X94658Y175273D01*
X94645Y175357D01*
X94627Y175440D01*
X94606Y175522D01*
X94581Y175603D01*
X94552Y175683D01*
X94520Y175761D01*
X94484Y175837D01*
X94444Y175912D01*
X94401Y175985D01*
X94355Y176056D01*
X94306Y176125D01*
X94253Y176192D01*
X94197Y176256D01*
X94139Y176317D01*
X94078Y176375D01*
X94014Y176431D01*
X93947Y176484D01*
X93878Y176533D01*
X93807Y176579D01*
X93734Y176622D01*
X93659Y176662D01*
X93583Y176698D01*
X93505Y176730D01*
X93425Y176759D01*
X93344Y176784D01*
X93262Y176805D01*
X93179Y176823D01*
X93095Y176836D01*
X93011Y176846D01*
X92927Y176852D01*
X92842Y176854D01*
X91007Y176854D01*
X90900Y176852D01*
X90793Y176846D01*
X90686Y176836D01*
X90580Y176823D01*
X90474Y176805D01*
X90369Y176784D01*
X90265Y176759D01*
X90161Y176730D01*
X90059Y176697D01*
X89959Y176660D01*
X89859Y176620D01*
X89761Y176576D01*
X89665Y176529D01*
X89571Y176478D01*
X89478Y176424D01*
X89388Y176367D01*
X89299Y176306D01*
X89213Y176242D01*
X89130Y176175D01*
X89048Y176105D01*
X88970Y176032D01*
X88894Y175956D01*
X88821Y175878D01*
X88751Y175796D01*
X88684Y175713D01*
X88620Y175627D01*
X88559Y175538D01*
X88502Y175448D01*
X88448Y175355D01*
X88397Y175261D01*
X88350Y175165D01*
X88306Y175067D01*
X88266Y174967D01*
X88229Y174867D01*
X88196Y174765D01*
X88167Y174661D01*
X88142Y174557D01*
X88121Y174452D01*
X88103Y174346D01*
X88090Y174240D01*
X88080Y174133D01*
X88074Y174026D01*
X88072Y173919D01*
X99502Y153922D02*
X106106Y153922D01*
X106106Y155756D01*
X106104Y155841D01*
X106098Y155925D01*
X106088Y156009D01*
X106075Y156093D01*
X106057Y156176D01*
X106036Y156258D01*
X106011Y156339D01*
X105982Y156419D01*
X105950Y156497D01*
X105914Y156573D01*
X105874Y156648D01*
X105831Y156721D01*
X105785Y156792D01*
X105736Y156861D01*
X105683Y156928D01*
X105627Y156992D01*
X105569Y157053D01*
X105508Y157111D01*
X105444Y157167D01*
X105377Y157220D01*
X105308Y157269D01*
X105237Y157315D01*
X105164Y157358D01*
X105089Y157398D01*
X105013Y157434D01*
X104935Y157466D01*
X104855Y157495D01*
X104774Y157520D01*
X104692Y157541D01*
X104609Y157559D01*
X104525Y157572D01*
X104441Y157582D01*
X104357Y157588D01*
X104272Y157590D01*
X104272Y157591D02*
X101336Y157591D01*
X101336Y157590D02*
X101251Y157588D01*
X101167Y157582D01*
X101083Y157572D01*
X100999Y157559D01*
X100916Y157541D01*
X100834Y157520D01*
X100753Y157495D01*
X100673Y157466D01*
X100595Y157434D01*
X100519Y157398D01*
X100444Y157358D01*
X100371Y157315D01*
X100300Y157269D01*
X100231Y157220D01*
X100164Y157167D01*
X100100Y157111D01*
X100039Y157053D01*
X99981Y156992D01*
X99925Y156928D01*
X99872Y156861D01*
X99823Y156792D01*
X99777Y156721D01*
X99734Y156648D01*
X99694Y156573D01*
X99658Y156497D01*
X99626Y156419D01*
X99597Y156339D01*
X99572Y156258D01*
X99551Y156176D01*
X99533Y156093D01*
X99520Y156009D01*
X99510Y155925D01*
X99504Y155841D01*
X99502Y155756D01*
X99502Y153922D01*
X99502Y161852D02*
X106106Y161852D01*
X99502Y161119D02*
X99502Y162586D01*
X106106Y162586D02*
X106106Y161119D01*
X104272Y165870D02*
X101336Y165870D01*
X104272Y165871D02*
X104357Y165873D01*
X104441Y165879D01*
X104525Y165889D01*
X104609Y165902D01*
X104692Y165920D01*
X104774Y165941D01*
X104855Y165966D01*
X104935Y165995D01*
X105013Y166027D01*
X105089Y166063D01*
X105164Y166103D01*
X105237Y166146D01*
X105308Y166192D01*
X105377Y166241D01*
X105444Y166294D01*
X105508Y166350D01*
X105569Y166408D01*
X105627Y166469D01*
X105683Y166533D01*
X105736Y166600D01*
X105785Y166669D01*
X105831Y166740D01*
X105874Y166813D01*
X105914Y166888D01*
X105950Y166964D01*
X105982Y167042D01*
X106011Y167122D01*
X106036Y167203D01*
X106057Y167285D01*
X106075Y167368D01*
X106088Y167452D01*
X106098Y167536D01*
X106104Y167620D01*
X106106Y167705D01*
X106104Y167790D01*
X106098Y167874D01*
X106088Y167958D01*
X106075Y168042D01*
X106057Y168125D01*
X106036Y168207D01*
X106011Y168288D01*
X105982Y168368D01*
X105950Y168446D01*
X105914Y168522D01*
X105874Y168597D01*
X105831Y168670D01*
X105785Y168741D01*
X105736Y168810D01*
X105683Y168877D01*
X105627Y168941D01*
X105569Y169002D01*
X105508Y169060D01*
X105444Y169116D01*
X105377Y169169D01*
X105308Y169218D01*
X105237Y169264D01*
X105164Y169307D01*
X105089Y169347D01*
X105013Y169383D01*
X104935Y169415D01*
X104855Y169444D01*
X104774Y169469D01*
X104692Y169490D01*
X104609Y169508D01*
X104525Y169521D01*
X104441Y169531D01*
X104357Y169537D01*
X104272Y169539D01*
X101336Y169539D01*
X101251Y169537D01*
X101167Y169531D01*
X101083Y169521D01*
X100999Y169508D01*
X100916Y169490D01*
X100834Y169469D01*
X100753Y169444D01*
X100673Y169415D01*
X100595Y169383D01*
X100519Y169347D01*
X100444Y169307D01*
X100371Y169264D01*
X100300Y169218D01*
X100231Y169169D01*
X100164Y169116D01*
X100100Y169060D01*
X100039Y169002D01*
X99981Y168941D01*
X99925Y168877D01*
X99872Y168810D01*
X99823Y168741D01*
X99777Y168670D01*
X99734Y168597D01*
X99694Y168522D01*
X99658Y168446D01*
X99626Y168368D01*
X99597Y168288D01*
X99572Y168207D01*
X99551Y168125D01*
X99533Y168042D01*
X99520Y167958D01*
X99510Y167874D01*
X99504Y167790D01*
X99502Y167705D01*
X99504Y167620D01*
X99510Y167536D01*
X99520Y167452D01*
X99533Y167368D01*
X99551Y167285D01*
X99572Y167203D01*
X99597Y167122D01*
X99626Y167042D01*
X99658Y166964D01*
X99694Y166888D01*
X99734Y166813D01*
X99777Y166740D01*
X99823Y166669D01*
X99872Y166600D01*
X99925Y166533D01*
X99981Y166469D01*
X100039Y166408D01*
X100100Y166350D01*
X100164Y166294D01*
X100231Y166241D01*
X100300Y166192D01*
X100371Y166146D01*
X100444Y166103D01*
X100519Y166063D01*
X100595Y166027D01*
X100673Y165995D01*
X100753Y165966D01*
X100834Y165941D01*
X100916Y165920D01*
X100999Y165902D01*
X101083Y165889D01*
X101167Y165879D01*
X101251Y165873D01*
X101336Y165871D01*
X104638Y173185D02*
X106106Y175020D01*
X99502Y175020D01*
X99502Y176854D02*
X99502Y173185D01*
X102804Y180501D02*
X102949Y180503D01*
X103094Y180509D01*
X103239Y180518D01*
X103384Y180532D01*
X103528Y180549D01*
X103671Y180571D01*
X103815Y180596D01*
X103957Y180625D01*
X104098Y180657D01*
X104239Y180694D01*
X104378Y180734D01*
X104517Y180778D01*
X104654Y180825D01*
X104790Y180876D01*
X104924Y180931D01*
X105057Y180989D01*
X105189Y181051D01*
X105189Y181050D02*
X105258Y181076D01*
X105325Y181105D01*
X105391Y181138D01*
X105454Y181174D01*
X105516Y181214D01*
X105575Y181257D01*
X105632Y181303D01*
X105686Y181352D01*
X105738Y181404D01*
X105787Y181459D01*
X105832Y181516D01*
X105875Y181576D01*
X105914Y181638D01*
X105950Y181701D01*
X105983Y181767D01*
X106011Y181834D01*
X106037Y181903D01*
X106058Y181973D01*
X106076Y182044D01*
X106089Y182116D01*
X106099Y182189D01*
X106105Y182262D01*
X106107Y182335D01*
X106106Y182335D02*
X106104Y182408D01*
X106098Y182481D01*
X106088Y182554D01*
X106075Y182626D01*
X106057Y182697D01*
X106036Y182767D01*
X106010Y182835D01*
X105982Y182903D01*
X105949Y182968D01*
X105913Y183032D01*
X105874Y183094D01*
X105832Y183153D01*
X105786Y183210D01*
X105737Y183265D01*
X105686Y183317D01*
X105631Y183366D01*
X105574Y183412D01*
X105515Y183455D01*
X105454Y183495D01*
X105390Y183531D01*
X105325Y183564D01*
X105258Y183593D01*
X105189Y183619D01*
X105057Y183681D01*
X104924Y183739D01*
X104790Y183794D01*
X104654Y183845D01*
X104517Y183892D01*
X104378Y183936D01*
X104239Y183976D01*
X104098Y184013D01*
X103957Y184045D01*
X103815Y184074D01*
X103672Y184099D01*
X103528Y184121D01*
X103384Y184138D01*
X103239Y184152D01*
X103094Y184161D01*
X102949Y184167D01*
X102804Y184169D01*
X102804Y180501D02*
X102659Y180503D01*
X102514Y180509D01*
X102369Y180518D01*
X102224Y180532D01*
X102080Y180549D01*
X101937Y180571D01*
X101794Y180596D01*
X101651Y180624D01*
X101510Y180657D01*
X101369Y180694D01*
X101230Y180734D01*
X101091Y180778D01*
X100954Y180825D01*
X100818Y180876D01*
X100684Y180931D01*
X100551Y180989D01*
X100419Y181051D01*
X100420Y181050D02*
X100351Y181076D01*
X100284Y181105D01*
X100218Y181138D01*
X100155Y181174D01*
X100093Y181214D01*
X100034Y181257D01*
X99977Y181303D01*
X99923Y181352D01*
X99871Y181404D01*
X99822Y181459D01*
X99777Y181516D01*
X99734Y181576D01*
X99695Y181638D01*
X99659Y181701D01*
X99626Y181767D01*
X99598Y181834D01*
X99572Y181903D01*
X99551Y181973D01*
X99533Y182044D01*
X99520Y182116D01*
X99510Y182189D01*
X99504Y182262D01*
X99502Y182335D01*
X100419Y183619D02*
X100551Y183681D01*
X100684Y183739D01*
X100818Y183794D01*
X100954Y183845D01*
X101091Y183892D01*
X101230Y183936D01*
X101369Y183976D01*
X101510Y184013D01*
X101651Y184045D01*
X101793Y184074D01*
X101936Y184099D01*
X102080Y184121D01*
X102224Y184138D01*
X102369Y184152D01*
X102514Y184161D01*
X102659Y184167D01*
X102804Y184169D01*
X100419Y183619D02*
X100350Y183593D01*
X100283Y183564D01*
X100218Y183531D01*
X100154Y183495D01*
X100093Y183455D01*
X100034Y183412D01*
X99977Y183366D01*
X99922Y183317D01*
X99871Y183265D01*
X99822Y183210D01*
X99776Y183153D01*
X99734Y183094D01*
X99695Y183032D01*
X99659Y182968D01*
X99626Y182903D01*
X99598Y182835D01*
X99572Y182767D01*
X99551Y182697D01*
X99533Y182625D01*
X99520Y182554D01*
X99510Y182481D01*
X99504Y182408D01*
X99502Y182335D01*
X100970Y180867D02*
X104638Y183803D01*
X113472Y155756D02*
X113472Y153922D01*
X113472Y155756D02*
X113474Y155841D01*
X113480Y155925D01*
X113490Y156009D01*
X113503Y156093D01*
X113521Y156176D01*
X113542Y156258D01*
X113567Y156339D01*
X113596Y156419D01*
X113628Y156497D01*
X113664Y156573D01*
X113704Y156648D01*
X113747Y156721D01*
X113793Y156792D01*
X113842Y156861D01*
X113895Y156928D01*
X113951Y156992D01*
X114009Y157053D01*
X114070Y157111D01*
X114134Y157167D01*
X114201Y157220D01*
X114270Y157269D01*
X114341Y157315D01*
X114414Y157358D01*
X114489Y157398D01*
X114565Y157434D01*
X114643Y157466D01*
X114723Y157495D01*
X114804Y157520D01*
X114886Y157541D01*
X114969Y157559D01*
X115053Y157572D01*
X115137Y157582D01*
X115221Y157588D01*
X115306Y157590D01*
X115391Y157588D01*
X115475Y157582D01*
X115559Y157572D01*
X115643Y157559D01*
X115726Y157541D01*
X115808Y157520D01*
X115889Y157495D01*
X115969Y157466D01*
X116047Y157434D01*
X116123Y157398D01*
X116198Y157358D01*
X116271Y157315D01*
X116342Y157269D01*
X116411Y157220D01*
X116478Y157167D01*
X116542Y157111D01*
X116603Y157053D01*
X116661Y156992D01*
X116717Y156928D01*
X116770Y156861D01*
X116819Y156792D01*
X116865Y156721D01*
X116908Y156648D01*
X116948Y156573D01*
X116984Y156497D01*
X117016Y156419D01*
X117045Y156339D01*
X117070Y156258D01*
X117091Y156176D01*
X117109Y156093D01*
X117122Y156009D01*
X117132Y155925D01*
X117138Y155841D01*
X117140Y155756D01*
X120076Y156123D02*
X120076Y153922D01*
X120076Y156123D02*
X120074Y156199D01*
X120068Y156274D01*
X120059Y156349D01*
X120045Y156423D01*
X120028Y156497D01*
X120006Y156569D01*
X119982Y156641D01*
X119953Y156711D01*
X119921Y156779D01*
X119886Y156846D01*
X119847Y156911D01*
X119804Y156974D01*
X119759Y157034D01*
X119711Y157092D01*
X119659Y157148D01*
X119605Y157200D01*
X119548Y157250D01*
X119489Y157297D01*
X119428Y157341D01*
X119364Y157382D01*
X119298Y157419D01*
X119230Y157453D01*
X119161Y157483D01*
X119090Y157510D01*
X119018Y157533D01*
X118945Y157552D01*
X118871Y157567D01*
X118796Y157579D01*
X118721Y157587D01*
X118646Y157591D01*
X118570Y157591D01*
X118495Y157587D01*
X118420Y157579D01*
X118345Y157567D01*
X118271Y157552D01*
X118198Y157533D01*
X118126Y157510D01*
X118055Y157483D01*
X117986Y157453D01*
X117918Y157419D01*
X117852Y157382D01*
X117788Y157341D01*
X117727Y157297D01*
X117668Y157250D01*
X117611Y157200D01*
X117557Y157148D01*
X117505Y157092D01*
X117457Y157034D01*
X117412Y156974D01*
X117369Y156911D01*
X117330Y156846D01*
X117295Y156779D01*
X117263Y156711D01*
X117234Y156641D01*
X117210Y156569D01*
X117188Y156497D01*
X117171Y156423D01*
X117157Y156349D01*
X117148Y156274D01*
X117142Y156199D01*
X117140Y156123D01*
X117141Y156123D02*
X117141Y154656D01*
X120076Y160870D02*
X113472Y163072D01*
X120076Y165273D01*
X113472Y168552D02*
X113472Y170387D01*
X113474Y170472D01*
X113480Y170556D01*
X113490Y170640D01*
X113503Y170724D01*
X113521Y170807D01*
X113542Y170889D01*
X113567Y170970D01*
X113596Y171050D01*
X113628Y171128D01*
X113664Y171204D01*
X113704Y171279D01*
X113747Y171352D01*
X113793Y171423D01*
X113842Y171492D01*
X113895Y171559D01*
X113951Y171623D01*
X114009Y171684D01*
X114070Y171742D01*
X114134Y171798D01*
X114201Y171851D01*
X114270Y171900D01*
X114341Y171946D01*
X114414Y171989D01*
X114489Y172029D01*
X114565Y172065D01*
X114643Y172097D01*
X114723Y172126D01*
X114804Y172151D01*
X114886Y172172D01*
X114969Y172190D01*
X115053Y172203D01*
X115137Y172213D01*
X115221Y172219D01*
X115306Y172221D01*
X115391Y172219D01*
X115475Y172213D01*
X115559Y172203D01*
X115643Y172190D01*
X115726Y172172D01*
X115808Y172151D01*
X115889Y172126D01*
X115969Y172097D01*
X116047Y172065D01*
X116123Y172029D01*
X116198Y171989D01*
X116271Y171946D01*
X116342Y171900D01*
X116411Y171851D01*
X116478Y171798D01*
X116542Y171742D01*
X116603Y171684D01*
X116661Y171623D01*
X116717Y171559D01*
X116770Y171492D01*
X116819Y171423D01*
X116865Y171352D01*
X116908Y171279D01*
X116948Y171204D01*
X116984Y171128D01*
X117016Y171050D01*
X117045Y170970D01*
X117070Y170889D01*
X117091Y170807D01*
X117109Y170724D01*
X117122Y170640D01*
X117132Y170556D01*
X117138Y170472D01*
X117140Y170387D01*
X120076Y170754D02*
X120076Y168552D01*
X120076Y170754D02*
X120074Y170830D01*
X120068Y170905D01*
X120059Y170980D01*
X120045Y171054D01*
X120028Y171128D01*
X120006Y171200D01*
X119982Y171272D01*
X119953Y171342D01*
X119921Y171410D01*
X119886Y171477D01*
X119847Y171542D01*
X119804Y171605D01*
X119759Y171665D01*
X119711Y171723D01*
X119659Y171779D01*
X119605Y171831D01*
X119548Y171881D01*
X119489Y171928D01*
X119428Y171972D01*
X119364Y172013D01*
X119298Y172050D01*
X119230Y172084D01*
X119161Y172114D01*
X119090Y172141D01*
X119018Y172164D01*
X118945Y172183D01*
X118871Y172198D01*
X118796Y172210D01*
X118721Y172218D01*
X118646Y172222D01*
X118570Y172222D01*
X118495Y172218D01*
X118420Y172210D01*
X118345Y172198D01*
X118271Y172183D01*
X118198Y172164D01*
X118126Y172141D01*
X118055Y172114D01*
X117986Y172084D01*
X117918Y172050D01*
X117852Y172013D01*
X117788Y171972D01*
X117727Y171928D01*
X117668Y171881D01*
X117611Y171831D01*
X117557Y171779D01*
X117505Y171723D01*
X117457Y171665D01*
X117412Y171605D01*
X117369Y171542D01*
X117330Y171477D01*
X117295Y171410D01*
X117263Y171342D01*
X117234Y171272D01*
X117210Y171200D01*
X117188Y171128D01*
X117171Y171054D01*
X117157Y170980D01*
X117148Y170905D01*
X117142Y170830D01*
X117140Y170754D01*
X117141Y170754D02*
X117141Y169286D01*
X129841Y157591D02*
X129841Y156490D01*
X129841Y157591D02*
X126172Y157591D01*
X126172Y155390D01*
X126174Y155316D01*
X126180Y155241D01*
X126189Y155168D01*
X126202Y155094D01*
X126219Y155022D01*
X126239Y154951D01*
X126263Y154880D01*
X126291Y154811D01*
X126322Y154744D01*
X126356Y154678D01*
X126394Y154613D01*
X126435Y154551D01*
X126479Y154491D01*
X126526Y154434D01*
X126576Y154379D01*
X126629Y154326D01*
X126684Y154276D01*
X126741Y154229D01*
X126801Y154185D01*
X126863Y154144D01*
X126928Y154106D01*
X126994Y154072D01*
X127061Y154041D01*
X127130Y154013D01*
X127201Y153989D01*
X127272Y153969D01*
X127344Y153952D01*
X127418Y153939D01*
X127491Y153930D01*
X127566Y153924D01*
X127640Y153922D01*
X131308Y153922D01*
X131382Y153924D01*
X131457Y153930D01*
X131530Y153939D01*
X131604Y153952D01*
X131676Y153969D01*
X131747Y153989D01*
X131818Y154013D01*
X131887Y154041D01*
X131954Y154072D01*
X132020Y154106D01*
X132085Y154144D01*
X132147Y154185D01*
X132207Y154229D01*
X132264Y154276D01*
X132319Y154326D01*
X132372Y154379D01*
X132422Y154434D01*
X132469Y154491D01*
X132513Y154551D01*
X132554Y154613D01*
X132592Y154678D01*
X132626Y154743D01*
X132657Y154811D01*
X132685Y154880D01*
X132709Y154951D01*
X132729Y155022D01*
X132746Y155094D01*
X132759Y155168D01*
X132768Y155241D01*
X132774Y155316D01*
X132776Y155390D01*
X132776Y157591D01*
X132776Y161725D02*
X126172Y161725D01*
X126172Y165394D02*
X132776Y161725D01*
X132776Y165394D02*
X126172Y165394D01*
X126172Y169528D02*
X132776Y169528D01*
X132776Y171362D01*
X132774Y171447D01*
X132768Y171531D01*
X132758Y171615D01*
X132745Y171699D01*
X132727Y171782D01*
X132706Y171864D01*
X132681Y171945D01*
X132652Y172025D01*
X132620Y172103D01*
X132584Y172179D01*
X132544Y172254D01*
X132501Y172327D01*
X132455Y172398D01*
X132406Y172467D01*
X132353Y172534D01*
X132297Y172598D01*
X132239Y172659D01*
X132178Y172717D01*
X132114Y172773D01*
X132047Y172826D01*
X131978Y172875D01*
X131907Y172921D01*
X131834Y172964D01*
X131759Y173004D01*
X131683Y173040D01*
X131605Y173072D01*
X131525Y173101D01*
X131444Y173126D01*
X131362Y173147D01*
X131279Y173165D01*
X131195Y173178D01*
X131111Y173188D01*
X131027Y173194D01*
X130942Y173196D01*
X130942Y173197D02*
X128006Y173197D01*
X128006Y173196D02*
X127921Y173194D01*
X127837Y173188D01*
X127753Y173178D01*
X127669Y173165D01*
X127586Y173147D01*
X127504Y173126D01*
X127423Y173101D01*
X127343Y173072D01*
X127265Y173040D01*
X127189Y173004D01*
X127114Y172964D01*
X127041Y172921D01*
X126970Y172875D01*
X126901Y172826D01*
X126834Y172773D01*
X126770Y172717D01*
X126709Y172659D01*
X126651Y172598D01*
X126595Y172534D01*
X126542Y172467D01*
X126493Y172398D01*
X126447Y172327D01*
X126404Y172254D01*
X126364Y172179D01*
X126328Y172103D01*
X126296Y172025D01*
X126267Y171945D01*
X126242Y171864D01*
X126221Y171782D01*
X126203Y171699D01*
X126190Y171615D01*
X126180Y171531D01*
X126174Y171447D01*
X126172Y171362D01*
X126172Y169528D01*
X80010Y139700D02*
X74930Y144780D01*
X85090Y144780D01*
X83820Y143510D01*
X80010Y139700D01*
X80010Y140970D01*
X77470Y143510D01*
X82550Y143510D01*
X83820Y143510D01*
X82550Y143510D02*
X81280Y142240D01*
X80010Y142240D01*
X57846Y153922D02*
X51242Y153922D01*
X57846Y153922D02*
X57846Y155756D01*
X57844Y155841D01*
X57838Y155925D01*
X57828Y156009D01*
X57815Y156093D01*
X57797Y156176D01*
X57776Y156258D01*
X57751Y156339D01*
X57722Y156419D01*
X57690Y156497D01*
X57654Y156573D01*
X57614Y156648D01*
X57571Y156721D01*
X57525Y156792D01*
X57476Y156861D01*
X57423Y156928D01*
X57367Y156992D01*
X57309Y157053D01*
X57248Y157111D01*
X57184Y157167D01*
X57117Y157220D01*
X57048Y157269D01*
X56977Y157315D01*
X56904Y157358D01*
X56829Y157398D01*
X56753Y157434D01*
X56675Y157466D01*
X56595Y157495D01*
X56514Y157520D01*
X56432Y157541D01*
X56349Y157559D01*
X56265Y157572D01*
X56181Y157582D01*
X56097Y157588D01*
X56012Y157590D01*
X56012Y157591D02*
X53076Y157591D01*
X53076Y157590D02*
X52991Y157588D01*
X52907Y157582D01*
X52823Y157572D01*
X52739Y157559D01*
X52656Y157541D01*
X52574Y157520D01*
X52493Y157495D01*
X52413Y157466D01*
X52335Y157434D01*
X52259Y157398D01*
X52184Y157358D01*
X52111Y157315D01*
X52040Y157269D01*
X51971Y157220D01*
X51904Y157167D01*
X51840Y157111D01*
X51779Y157053D01*
X51721Y156992D01*
X51665Y156928D01*
X51612Y156861D01*
X51563Y156792D01*
X51517Y156721D01*
X51474Y156648D01*
X51434Y156573D01*
X51398Y156497D01*
X51366Y156419D01*
X51337Y156339D01*
X51312Y156258D01*
X51291Y156176D01*
X51273Y156093D01*
X51260Y156009D01*
X51250Y155925D01*
X51244Y155841D01*
X51242Y155756D01*
X51242Y153922D01*
X51242Y161852D02*
X57846Y161852D01*
X51242Y161119D02*
X51242Y162586D01*
X57846Y162586D02*
X57846Y161119D01*
X56012Y165870D02*
X53076Y165870D01*
X56012Y165871D02*
X56097Y165873D01*
X56181Y165879D01*
X56265Y165889D01*
X56349Y165902D01*
X56432Y165920D01*
X56514Y165941D01*
X56595Y165966D01*
X56675Y165995D01*
X56753Y166027D01*
X56829Y166063D01*
X56904Y166103D01*
X56977Y166146D01*
X57048Y166192D01*
X57117Y166241D01*
X57184Y166294D01*
X57248Y166350D01*
X57309Y166408D01*
X57367Y166469D01*
X57423Y166533D01*
X57476Y166600D01*
X57525Y166669D01*
X57571Y166740D01*
X57614Y166813D01*
X57654Y166888D01*
X57690Y166964D01*
X57722Y167042D01*
X57751Y167122D01*
X57776Y167203D01*
X57797Y167285D01*
X57815Y167368D01*
X57828Y167452D01*
X57838Y167536D01*
X57844Y167620D01*
X57846Y167705D01*
X57844Y167790D01*
X57838Y167874D01*
X57828Y167958D01*
X57815Y168042D01*
X57797Y168125D01*
X57776Y168207D01*
X57751Y168288D01*
X57722Y168368D01*
X57690Y168446D01*
X57654Y168522D01*
X57614Y168597D01*
X57571Y168670D01*
X57525Y168741D01*
X57476Y168810D01*
X57423Y168877D01*
X57367Y168941D01*
X57309Y169002D01*
X57248Y169060D01*
X57184Y169116D01*
X57117Y169169D01*
X57048Y169218D01*
X56977Y169264D01*
X56904Y169307D01*
X56829Y169347D01*
X56753Y169383D01*
X56675Y169415D01*
X56595Y169444D01*
X56514Y169469D01*
X56432Y169490D01*
X56349Y169508D01*
X56265Y169521D01*
X56181Y169531D01*
X56097Y169537D01*
X56012Y169539D01*
X53076Y169539D01*
X52991Y169537D01*
X52907Y169531D01*
X52823Y169521D01*
X52739Y169508D01*
X52656Y169490D01*
X52574Y169469D01*
X52493Y169444D01*
X52413Y169415D01*
X52335Y169383D01*
X52259Y169347D01*
X52184Y169307D01*
X52111Y169264D01*
X52040Y169218D01*
X51971Y169169D01*
X51904Y169116D01*
X51840Y169060D01*
X51779Y169002D01*
X51721Y168941D01*
X51665Y168877D01*
X51612Y168810D01*
X51563Y168741D01*
X51517Y168670D01*
X51474Y168597D01*
X51434Y168522D01*
X51398Y168446D01*
X51366Y168368D01*
X51337Y168288D01*
X51312Y168207D01*
X51291Y168125D01*
X51273Y168042D01*
X51260Y167958D01*
X51250Y167874D01*
X51244Y167790D01*
X51242Y167705D01*
X51244Y167620D01*
X51250Y167536D01*
X51260Y167452D01*
X51273Y167368D01*
X51291Y167285D01*
X51312Y167203D01*
X51337Y167122D01*
X51366Y167042D01*
X51398Y166964D01*
X51434Y166888D01*
X51474Y166813D01*
X51517Y166740D01*
X51563Y166669D01*
X51612Y166600D01*
X51665Y166533D01*
X51721Y166469D01*
X51779Y166408D01*
X51840Y166350D01*
X51904Y166294D01*
X51971Y166241D01*
X52040Y166192D01*
X52111Y166146D01*
X52184Y166103D01*
X52259Y166063D01*
X52335Y166027D01*
X52413Y165995D01*
X52493Y165966D01*
X52574Y165941D01*
X52656Y165920D01*
X52739Y165902D01*
X52823Y165889D01*
X52907Y165879D01*
X52991Y165873D01*
X53076Y165871D01*
X54911Y173185D02*
X54911Y175387D01*
X54909Y175461D01*
X54903Y175536D01*
X54894Y175609D01*
X54881Y175683D01*
X54864Y175755D01*
X54844Y175826D01*
X54820Y175897D01*
X54792Y175966D01*
X54761Y176033D01*
X54727Y176099D01*
X54689Y176164D01*
X54648Y176226D01*
X54604Y176286D01*
X54557Y176343D01*
X54507Y176398D01*
X54454Y176451D01*
X54399Y176501D01*
X54342Y176548D01*
X54282Y176592D01*
X54220Y176633D01*
X54155Y176671D01*
X54089Y176705D01*
X54022Y176736D01*
X53953Y176764D01*
X53882Y176788D01*
X53811Y176808D01*
X53739Y176825D01*
X53665Y176838D01*
X53592Y176847D01*
X53517Y176853D01*
X53443Y176855D01*
X53443Y176854D02*
X53076Y176854D01*
X52991Y176852D01*
X52907Y176846D01*
X52823Y176836D01*
X52739Y176823D01*
X52656Y176805D01*
X52574Y176784D01*
X52493Y176759D01*
X52413Y176730D01*
X52335Y176698D01*
X52259Y176662D01*
X52184Y176622D01*
X52111Y176579D01*
X52040Y176533D01*
X51971Y176484D01*
X51904Y176431D01*
X51840Y176375D01*
X51779Y176317D01*
X51721Y176256D01*
X51665Y176192D01*
X51612Y176125D01*
X51563Y176056D01*
X51517Y175985D01*
X51474Y175912D01*
X51434Y175837D01*
X51398Y175761D01*
X51366Y175683D01*
X51337Y175603D01*
X51312Y175522D01*
X51291Y175440D01*
X51273Y175357D01*
X51260Y175273D01*
X51250Y175189D01*
X51244Y175105D01*
X51242Y175020D01*
X51244Y174935D01*
X51250Y174851D01*
X51260Y174767D01*
X51273Y174683D01*
X51291Y174600D01*
X51312Y174518D01*
X51337Y174437D01*
X51366Y174357D01*
X51398Y174279D01*
X51434Y174203D01*
X51474Y174128D01*
X51517Y174055D01*
X51563Y173984D01*
X51612Y173915D01*
X51665Y173848D01*
X51721Y173784D01*
X51779Y173723D01*
X51840Y173665D01*
X51904Y173609D01*
X51971Y173556D01*
X52040Y173507D01*
X52111Y173461D01*
X52184Y173418D01*
X52259Y173378D01*
X52335Y173342D01*
X52413Y173310D01*
X52493Y173281D01*
X52574Y173256D01*
X52656Y173235D01*
X52739Y173217D01*
X52823Y173204D01*
X52907Y173194D01*
X52991Y173188D01*
X53076Y173186D01*
X53076Y173185D02*
X54911Y173185D01*
X55018Y173187D01*
X55125Y173193D01*
X55232Y173203D01*
X55338Y173216D01*
X55444Y173234D01*
X55549Y173255D01*
X55653Y173280D01*
X55757Y173309D01*
X55859Y173342D01*
X55959Y173379D01*
X56059Y173419D01*
X56157Y173463D01*
X56253Y173510D01*
X56347Y173561D01*
X56440Y173615D01*
X56530Y173672D01*
X56619Y173733D01*
X56705Y173797D01*
X56788Y173864D01*
X56870Y173934D01*
X56948Y174007D01*
X57024Y174083D01*
X57097Y174161D01*
X57167Y174243D01*
X57234Y174326D01*
X57298Y174412D01*
X57359Y174501D01*
X57416Y174591D01*
X57470Y174684D01*
X57521Y174778D01*
X57568Y174874D01*
X57612Y174972D01*
X57652Y175072D01*
X57689Y175172D01*
X57722Y175274D01*
X57751Y175378D01*
X57776Y175482D01*
X57797Y175587D01*
X57815Y175693D01*
X57828Y175799D01*
X57838Y175906D01*
X57844Y176013D01*
X57846Y176120D01*
X75372Y24382D02*
X81976Y24382D01*
X81976Y26216D01*
X81974Y26301D01*
X81968Y26385D01*
X81958Y26469D01*
X81945Y26553D01*
X81927Y26636D01*
X81906Y26718D01*
X81881Y26799D01*
X81852Y26879D01*
X81820Y26957D01*
X81784Y27033D01*
X81744Y27108D01*
X81701Y27181D01*
X81655Y27252D01*
X81606Y27321D01*
X81553Y27388D01*
X81497Y27452D01*
X81439Y27513D01*
X81378Y27571D01*
X81314Y27627D01*
X81247Y27680D01*
X81178Y27729D01*
X81107Y27775D01*
X81034Y27818D01*
X80959Y27858D01*
X80883Y27894D01*
X80805Y27926D01*
X80725Y27955D01*
X80644Y27980D01*
X80562Y28001D01*
X80479Y28019D01*
X80395Y28032D01*
X80311Y28042D01*
X80227Y28048D01*
X80142Y28050D01*
X80057Y28048D01*
X79973Y28042D01*
X79889Y28032D01*
X79805Y28019D01*
X79722Y28001D01*
X79640Y27980D01*
X79559Y27955D01*
X79479Y27926D01*
X79401Y27894D01*
X79325Y27858D01*
X79250Y27818D01*
X79177Y27775D01*
X79106Y27729D01*
X79037Y27680D01*
X78970Y27627D01*
X78906Y27571D01*
X78845Y27513D01*
X78787Y27452D01*
X78731Y27388D01*
X78678Y27321D01*
X78629Y27252D01*
X78583Y27181D01*
X78540Y27108D01*
X78500Y27033D01*
X78464Y26957D01*
X78432Y26879D01*
X78403Y26799D01*
X78378Y26718D01*
X78357Y26636D01*
X78339Y26553D01*
X78326Y26469D01*
X78316Y26385D01*
X78310Y26301D01*
X78308Y26216D01*
X78307Y26216D02*
X78307Y24382D01*
X78307Y26583D02*
X75372Y28051D01*
X75372Y31252D02*
X81976Y35654D01*
X81976Y31252D02*
X75372Y35654D01*
X68006Y26216D02*
X61402Y26216D01*
X68006Y24382D02*
X68006Y28051D01*
X61402Y30843D02*
X68006Y35245D01*
X68006Y30843D02*
X61402Y35245D01*
X88072Y26583D02*
X94676Y24382D01*
X94676Y28785D02*
X88072Y26583D01*
X88072Y33496D02*
X88072Y34964D01*
X88072Y33496D02*
X88074Y33422D01*
X88080Y33347D01*
X88089Y33274D01*
X88102Y33200D01*
X88119Y33128D01*
X88139Y33057D01*
X88163Y32986D01*
X88191Y32917D01*
X88222Y32850D01*
X88256Y32784D01*
X88294Y32719D01*
X88335Y32657D01*
X88379Y32597D01*
X88426Y32540D01*
X88476Y32485D01*
X88529Y32432D01*
X88584Y32382D01*
X88641Y32335D01*
X88701Y32291D01*
X88763Y32250D01*
X88828Y32212D01*
X88894Y32178D01*
X88961Y32147D01*
X89030Y32119D01*
X89101Y32095D01*
X89172Y32075D01*
X89244Y32058D01*
X89318Y32045D01*
X89391Y32036D01*
X89466Y32030D01*
X89540Y32028D01*
X89540Y32029D02*
X93208Y32029D01*
X93208Y32028D02*
X93282Y32030D01*
X93357Y32036D01*
X93430Y32045D01*
X93504Y32058D01*
X93576Y32075D01*
X93647Y32095D01*
X93718Y32119D01*
X93787Y32147D01*
X93854Y32178D01*
X93920Y32212D01*
X93985Y32250D01*
X94047Y32291D01*
X94107Y32335D01*
X94164Y32382D01*
X94219Y32432D01*
X94272Y32485D01*
X94322Y32540D01*
X94369Y32597D01*
X94413Y32657D01*
X94454Y32719D01*
X94492Y32784D01*
X94526Y32849D01*
X94557Y32917D01*
X94585Y32986D01*
X94609Y33057D01*
X94629Y33128D01*
X94646Y33200D01*
X94659Y33274D01*
X94668Y33347D01*
X94674Y33422D01*
X94676Y33496D01*
X94676Y34964D01*
X88072Y39592D02*
X88072Y41060D01*
X88072Y39592D02*
X88074Y39518D01*
X88080Y39443D01*
X88089Y39370D01*
X88102Y39296D01*
X88119Y39224D01*
X88139Y39153D01*
X88163Y39082D01*
X88191Y39013D01*
X88222Y38946D01*
X88256Y38880D01*
X88294Y38815D01*
X88335Y38753D01*
X88379Y38693D01*
X88426Y38636D01*
X88476Y38581D01*
X88529Y38528D01*
X88584Y38478D01*
X88641Y38431D01*
X88701Y38387D01*
X88763Y38346D01*
X88828Y38308D01*
X88894Y38274D01*
X88961Y38243D01*
X89030Y38215D01*
X89101Y38191D01*
X89172Y38171D01*
X89244Y38154D01*
X89318Y38141D01*
X89391Y38132D01*
X89466Y38126D01*
X89540Y38124D01*
X89540Y38125D02*
X93208Y38125D01*
X93208Y38124D02*
X93282Y38126D01*
X93357Y38132D01*
X93430Y38141D01*
X93504Y38154D01*
X93576Y38171D01*
X93647Y38191D01*
X93718Y38215D01*
X93787Y38243D01*
X93854Y38274D01*
X93920Y38308D01*
X93985Y38346D01*
X94047Y38387D01*
X94107Y38431D01*
X94164Y38478D01*
X94219Y38528D01*
X94272Y38581D01*
X94322Y38636D01*
X94369Y38693D01*
X94413Y38753D01*
X94454Y38815D01*
X94492Y38880D01*
X94526Y38945D01*
X94557Y39013D01*
X94585Y39082D01*
X94609Y39153D01*
X94629Y39224D01*
X94646Y39296D01*
X94659Y39370D01*
X94668Y39443D01*
X94674Y39518D01*
X94676Y39592D01*
X94676Y41060D01*
X55306Y25116D02*
X48702Y25116D01*
X48702Y24382D02*
X48702Y25850D01*
X55306Y25850D02*
X55306Y24382D01*
X48702Y31091D02*
X48704Y31165D01*
X48710Y31240D01*
X48719Y31313D01*
X48732Y31387D01*
X48749Y31459D01*
X48769Y31530D01*
X48793Y31601D01*
X48821Y31670D01*
X48852Y31737D01*
X48886Y31803D01*
X48924Y31868D01*
X48965Y31930D01*
X49009Y31990D01*
X49056Y32047D01*
X49106Y32102D01*
X49159Y32155D01*
X49214Y32205D01*
X49271Y32252D01*
X49331Y32296D01*
X49393Y32337D01*
X49458Y32375D01*
X49524Y32409D01*
X49591Y32440D01*
X49660Y32468D01*
X49731Y32492D01*
X49802Y32512D01*
X49874Y32529D01*
X49948Y32542D01*
X50021Y32551D01*
X50096Y32557D01*
X50170Y32559D01*
X48702Y31091D02*
X48704Y30980D01*
X48710Y30869D01*
X48720Y30758D01*
X48734Y30647D01*
X48752Y30538D01*
X48774Y30429D01*
X48799Y30320D01*
X48829Y30213D01*
X48862Y30107D01*
X48900Y30002D01*
X48940Y29899D01*
X48985Y29797D01*
X49033Y29697D01*
X49085Y29598D01*
X49140Y29502D01*
X49199Y29407D01*
X49261Y29315D01*
X49327Y29225D01*
X49395Y29137D01*
X49467Y29052D01*
X49542Y28970D01*
X49619Y28890D01*
X53838Y29073D02*
X53912Y29075D01*
X53987Y29081D01*
X54060Y29090D01*
X54134Y29103D01*
X54206Y29120D01*
X54277Y29140D01*
X54348Y29164D01*
X54417Y29192D01*
X54484Y29223D01*
X54550Y29257D01*
X54615Y29295D01*
X54677Y29336D01*
X54737Y29380D01*
X54794Y29427D01*
X54849Y29477D01*
X54902Y29530D01*
X54952Y29585D01*
X54999Y29642D01*
X55043Y29702D01*
X55084Y29764D01*
X55122Y29829D01*
X55156Y29895D01*
X55187Y29962D01*
X55215Y30031D01*
X55239Y30102D01*
X55259Y30173D01*
X55276Y30245D01*
X55289Y30319D01*
X55298Y30392D01*
X55304Y30467D01*
X55306Y30541D01*
X55304Y30645D01*
X55298Y30749D01*
X55288Y30853D01*
X55275Y30956D01*
X55257Y31059D01*
X55235Y31161D01*
X55210Y31262D01*
X55181Y31362D01*
X55148Y31461D01*
X55111Y31558D01*
X55071Y31654D01*
X55027Y31749D01*
X54979Y31841D01*
X54929Y31932D01*
X54874Y32021D01*
X54817Y32108D01*
X54756Y32192D01*
X52553Y29807D02*
X52592Y29744D01*
X52634Y29684D01*
X52679Y29626D01*
X52727Y29569D01*
X52778Y29516D01*
X52831Y29465D01*
X52886Y29416D01*
X52944Y29371D01*
X53004Y29328D01*
X53066Y29288D01*
X53130Y29252D01*
X53196Y29218D01*
X53264Y29188D01*
X53332Y29161D01*
X53402Y29138D01*
X53473Y29118D01*
X53545Y29102D01*
X53618Y29089D01*
X53691Y29080D01*
X53764Y29075D01*
X53838Y29073D01*
X51455Y31825D02*
X51416Y31888D01*
X51374Y31948D01*
X51329Y32007D01*
X51281Y32063D01*
X51230Y32116D01*
X51177Y32167D01*
X51122Y32216D01*
X51064Y32261D01*
X51004Y32304D01*
X50942Y32344D01*
X50878Y32380D01*
X50812Y32414D01*
X50744Y32444D01*
X50676Y32471D01*
X50606Y32494D01*
X50535Y32514D01*
X50463Y32530D01*
X50390Y32543D01*
X50317Y32552D01*
X50244Y32557D01*
X50170Y32559D01*
X51454Y31825D02*
X52554Y29807D01*
X55306Y36386D02*
X48702Y36386D01*
X55306Y36386D02*
X55306Y38220D01*
X55304Y38305D01*
X55298Y38389D01*
X55288Y38473D01*
X55275Y38557D01*
X55257Y38640D01*
X55236Y38722D01*
X55211Y38803D01*
X55182Y38883D01*
X55150Y38961D01*
X55114Y39037D01*
X55074Y39112D01*
X55031Y39185D01*
X54985Y39256D01*
X54936Y39325D01*
X54883Y39392D01*
X54827Y39456D01*
X54769Y39517D01*
X54708Y39575D01*
X54644Y39631D01*
X54577Y39684D01*
X54508Y39733D01*
X54437Y39779D01*
X54364Y39822D01*
X54289Y39862D01*
X54213Y39898D01*
X54135Y39930D01*
X54055Y39959D01*
X53974Y39984D01*
X53892Y40005D01*
X53809Y40023D01*
X53725Y40036D01*
X53641Y40046D01*
X53557Y40052D01*
X53472Y40054D01*
X53387Y40052D01*
X53303Y40046D01*
X53219Y40036D01*
X53135Y40023D01*
X53052Y40005D01*
X52970Y39984D01*
X52889Y39959D01*
X52809Y39930D01*
X52731Y39898D01*
X52655Y39862D01*
X52580Y39822D01*
X52507Y39779D01*
X52436Y39733D01*
X52367Y39684D01*
X52300Y39631D01*
X52236Y39575D01*
X52175Y39517D01*
X52117Y39456D01*
X52061Y39392D01*
X52008Y39325D01*
X51959Y39256D01*
X51913Y39185D01*
X51870Y39112D01*
X51830Y39037D01*
X51794Y38961D01*
X51762Y38883D01*
X51733Y38803D01*
X51708Y38722D01*
X51687Y38640D01*
X51669Y38557D01*
X51656Y38473D01*
X51646Y38389D01*
X51640Y38305D01*
X51638Y38220D01*
X51637Y38220D02*
X51637Y36386D01*
M02*
