G04 EAGLE Gerber RS-274X export*
G75*
%MOMM*%
%FSLAX34Y34*%
%LPD*%
%INSilkscreen Bottom*%
%IPPOS*%
%AMOC8*
5,1,8,0,0,1.08239X$1,22.5*%
G01*
%ADD10C,0.076200*%
%ADD11C,0.152400*%


D10*
X240063Y8297D02*
X234334Y8297D01*
X234256Y8295D01*
X234178Y8290D01*
X234101Y8280D01*
X234024Y8267D01*
X233948Y8251D01*
X233873Y8231D01*
X233799Y8207D01*
X233726Y8180D01*
X233654Y8149D01*
X233584Y8115D01*
X233516Y8078D01*
X233449Y8037D01*
X233384Y7993D01*
X233322Y7947D01*
X233262Y7897D01*
X233204Y7845D01*
X233149Y7790D01*
X233097Y7732D01*
X233047Y7672D01*
X233001Y7610D01*
X232957Y7545D01*
X232916Y7479D01*
X232879Y7410D01*
X232845Y7340D01*
X232814Y7268D01*
X232787Y7195D01*
X232763Y7121D01*
X232743Y7046D01*
X232727Y6970D01*
X232714Y6893D01*
X232704Y6816D01*
X232699Y6738D01*
X232697Y6660D01*
X232697Y5842D01*
X232697Y11991D02*
X240063Y11991D01*
X232697Y11991D02*
X232697Y15265D01*
X232697Y19685D02*
X232697Y21322D01*
X232697Y19685D02*
X232699Y19607D01*
X232704Y19529D01*
X232714Y19452D01*
X232727Y19375D01*
X232743Y19299D01*
X232763Y19224D01*
X232787Y19150D01*
X232814Y19077D01*
X232845Y19005D01*
X232879Y18935D01*
X232916Y18867D01*
X232957Y18800D01*
X233001Y18735D01*
X233047Y18673D01*
X233097Y18613D01*
X233149Y18555D01*
X233204Y18500D01*
X233262Y18448D01*
X233322Y18398D01*
X233384Y18352D01*
X233449Y18308D01*
X233516Y18267D01*
X233584Y18230D01*
X233654Y18196D01*
X233726Y18165D01*
X233799Y18138D01*
X233873Y18114D01*
X233948Y18094D01*
X234024Y18078D01*
X234101Y18065D01*
X234178Y18055D01*
X234256Y18050D01*
X234334Y18048D01*
X234334Y18049D02*
X238426Y18049D01*
X238426Y18048D02*
X238504Y18050D01*
X238582Y18055D01*
X238659Y18065D01*
X238736Y18078D01*
X238812Y18094D01*
X238887Y18114D01*
X238961Y18138D01*
X239034Y18165D01*
X239106Y18196D01*
X239176Y18230D01*
X239245Y18267D01*
X239311Y18308D01*
X239376Y18352D01*
X239438Y18398D01*
X239498Y18448D01*
X239556Y18500D01*
X239611Y18555D01*
X239663Y18613D01*
X239713Y18673D01*
X239759Y18735D01*
X239803Y18800D01*
X239844Y18867D01*
X239881Y18935D01*
X239915Y19005D01*
X239946Y19077D01*
X239973Y19150D01*
X239997Y19224D01*
X240017Y19299D01*
X240033Y19375D01*
X240046Y19452D01*
X240056Y19529D01*
X240061Y19607D01*
X240063Y19685D01*
X240063Y21322D01*
X240063Y25854D02*
X234334Y25854D01*
X234256Y25852D01*
X234178Y25847D01*
X234101Y25837D01*
X234024Y25824D01*
X233948Y25808D01*
X233873Y25788D01*
X233799Y25764D01*
X233726Y25737D01*
X233654Y25706D01*
X233584Y25672D01*
X233516Y25635D01*
X233449Y25594D01*
X233384Y25550D01*
X233322Y25504D01*
X233262Y25454D01*
X233204Y25402D01*
X233149Y25347D01*
X233097Y25289D01*
X233047Y25229D01*
X233001Y25167D01*
X232957Y25102D01*
X232916Y25036D01*
X232879Y24967D01*
X232845Y24897D01*
X232814Y24825D01*
X232787Y24752D01*
X232763Y24678D01*
X232743Y24603D01*
X232727Y24527D01*
X232714Y24450D01*
X232704Y24373D01*
X232699Y24295D01*
X232697Y24217D01*
X232697Y23398D01*
X232697Y29548D02*
X240063Y29548D01*
X232697Y29548D02*
X232697Y32821D01*
X232697Y37242D02*
X232697Y38879D01*
X232697Y37242D02*
X232699Y37164D01*
X232704Y37086D01*
X232714Y37009D01*
X232727Y36932D01*
X232743Y36856D01*
X232763Y36781D01*
X232787Y36707D01*
X232814Y36634D01*
X232845Y36562D01*
X232879Y36492D01*
X232916Y36424D01*
X232957Y36357D01*
X233001Y36292D01*
X233047Y36230D01*
X233097Y36170D01*
X233149Y36112D01*
X233204Y36057D01*
X233262Y36005D01*
X233322Y35955D01*
X233384Y35909D01*
X233449Y35865D01*
X233516Y35824D01*
X233584Y35787D01*
X233654Y35753D01*
X233726Y35722D01*
X233799Y35695D01*
X233873Y35671D01*
X233948Y35651D01*
X234024Y35635D01*
X234101Y35622D01*
X234178Y35612D01*
X234256Y35607D01*
X234334Y35605D01*
X238426Y35605D01*
X238504Y35607D01*
X238582Y35612D01*
X238659Y35622D01*
X238736Y35635D01*
X238812Y35651D01*
X238887Y35671D01*
X238961Y35695D01*
X239034Y35722D01*
X239106Y35753D01*
X239176Y35787D01*
X239245Y35824D01*
X239311Y35865D01*
X239376Y35909D01*
X239438Y35955D01*
X239498Y36005D01*
X239556Y36057D01*
X239611Y36112D01*
X239663Y36170D01*
X239713Y36230D01*
X239759Y36292D01*
X239803Y36357D01*
X239844Y36424D01*
X239881Y36492D01*
X239915Y36562D01*
X239946Y36634D01*
X239973Y36707D01*
X239997Y36781D01*
X240017Y36856D01*
X240033Y36932D01*
X240046Y37009D01*
X240056Y37086D01*
X240061Y37164D01*
X240063Y37242D01*
X240063Y38879D01*
X240063Y43410D02*
X234334Y43410D01*
X234256Y43408D01*
X234178Y43403D01*
X234101Y43393D01*
X234024Y43380D01*
X233948Y43364D01*
X233873Y43344D01*
X233799Y43320D01*
X233726Y43293D01*
X233654Y43262D01*
X233584Y43228D01*
X233516Y43191D01*
X233449Y43150D01*
X233384Y43106D01*
X233322Y43060D01*
X233262Y43010D01*
X233204Y42958D01*
X233149Y42903D01*
X233097Y42845D01*
X233047Y42785D01*
X233001Y42723D01*
X232957Y42658D01*
X232916Y42592D01*
X232879Y42523D01*
X232845Y42453D01*
X232814Y42381D01*
X232787Y42308D01*
X232763Y42234D01*
X232743Y42159D01*
X232727Y42083D01*
X232714Y42006D01*
X232704Y41929D01*
X232699Y41851D01*
X232697Y41773D01*
X232697Y40955D01*
X232697Y47104D02*
X240063Y47104D01*
X232697Y47104D02*
X232697Y50378D01*
X232697Y54798D02*
X232697Y56435D01*
X232697Y54798D02*
X232699Y54720D01*
X232704Y54642D01*
X232714Y54565D01*
X232727Y54488D01*
X232743Y54412D01*
X232763Y54337D01*
X232787Y54263D01*
X232814Y54190D01*
X232845Y54118D01*
X232879Y54048D01*
X232916Y53980D01*
X232957Y53913D01*
X233001Y53848D01*
X233047Y53786D01*
X233097Y53726D01*
X233149Y53668D01*
X233204Y53613D01*
X233262Y53561D01*
X233322Y53511D01*
X233384Y53465D01*
X233449Y53421D01*
X233516Y53380D01*
X233584Y53343D01*
X233654Y53309D01*
X233726Y53278D01*
X233799Y53251D01*
X233873Y53227D01*
X233948Y53207D01*
X234024Y53191D01*
X234101Y53178D01*
X234178Y53168D01*
X234256Y53163D01*
X234334Y53161D01*
X238426Y53161D01*
X238504Y53163D01*
X238582Y53168D01*
X238659Y53178D01*
X238736Y53191D01*
X238812Y53207D01*
X238887Y53227D01*
X238961Y53251D01*
X239034Y53278D01*
X239106Y53309D01*
X239176Y53343D01*
X239245Y53380D01*
X239311Y53421D01*
X239376Y53465D01*
X239438Y53511D01*
X239498Y53561D01*
X239556Y53613D01*
X239611Y53668D01*
X239663Y53726D01*
X239713Y53786D01*
X239759Y53848D01*
X239803Y53913D01*
X239844Y53980D01*
X239881Y54048D01*
X239915Y54118D01*
X239946Y54190D01*
X239973Y54263D01*
X239997Y54337D01*
X240017Y54412D01*
X240033Y54488D01*
X240046Y54565D01*
X240056Y54642D01*
X240061Y54720D01*
X240063Y54798D01*
X240063Y56435D01*
X240063Y60966D02*
X234334Y60966D01*
X234334Y60967D02*
X234256Y60965D01*
X234178Y60960D01*
X234101Y60950D01*
X234024Y60937D01*
X233948Y60921D01*
X233873Y60901D01*
X233799Y60877D01*
X233726Y60850D01*
X233654Y60819D01*
X233584Y60785D01*
X233516Y60748D01*
X233449Y60707D01*
X233384Y60663D01*
X233322Y60617D01*
X233262Y60567D01*
X233204Y60515D01*
X233149Y60460D01*
X233097Y60402D01*
X233047Y60342D01*
X233001Y60280D01*
X232957Y60215D01*
X232916Y60149D01*
X232879Y60080D01*
X232845Y60010D01*
X232814Y59938D01*
X232787Y59865D01*
X232763Y59791D01*
X232743Y59716D01*
X232727Y59640D01*
X232714Y59563D01*
X232704Y59486D01*
X232699Y59408D01*
X232697Y59330D01*
X232697Y58511D01*
X232697Y64660D02*
X240063Y64660D01*
X232697Y64660D02*
X232697Y67934D01*
X232697Y72355D02*
X232697Y73991D01*
X232697Y72355D02*
X232699Y72277D01*
X232704Y72199D01*
X232714Y72122D01*
X232727Y72045D01*
X232743Y71969D01*
X232763Y71894D01*
X232787Y71820D01*
X232814Y71747D01*
X232845Y71675D01*
X232879Y71605D01*
X232916Y71537D01*
X232957Y71470D01*
X233001Y71405D01*
X233047Y71343D01*
X233097Y71283D01*
X233149Y71225D01*
X233204Y71170D01*
X233262Y71118D01*
X233322Y71068D01*
X233384Y71022D01*
X233449Y70978D01*
X233516Y70937D01*
X233584Y70900D01*
X233654Y70866D01*
X233726Y70835D01*
X233799Y70808D01*
X233873Y70784D01*
X233948Y70764D01*
X234024Y70748D01*
X234101Y70735D01*
X234178Y70725D01*
X234256Y70720D01*
X234334Y70718D01*
X238426Y70718D01*
X238504Y70720D01*
X238582Y70725D01*
X238659Y70735D01*
X238736Y70748D01*
X238812Y70764D01*
X238887Y70784D01*
X238961Y70808D01*
X239034Y70835D01*
X239106Y70866D01*
X239176Y70900D01*
X239245Y70937D01*
X239311Y70978D01*
X239376Y71022D01*
X239438Y71068D01*
X239498Y71118D01*
X239556Y71170D01*
X239611Y71225D01*
X239663Y71283D01*
X239713Y71343D01*
X239759Y71405D01*
X239803Y71470D01*
X239844Y71537D01*
X239881Y71605D01*
X239915Y71675D01*
X239946Y71747D01*
X239973Y71820D01*
X239997Y71894D01*
X240017Y71969D01*
X240033Y72045D01*
X240046Y72122D01*
X240056Y72199D01*
X240061Y72277D01*
X240063Y72355D01*
X240063Y73991D01*
D11*
X132078Y130180D02*
X125474Y127978D01*
X125474Y132381D02*
X132078Y130180D01*
X127125Y131831D02*
X127125Y128529D01*
X125474Y135904D02*
X132078Y135904D01*
X132078Y137739D01*
X132076Y137824D01*
X132070Y137908D01*
X132060Y137992D01*
X132047Y138076D01*
X132029Y138159D01*
X132008Y138241D01*
X131983Y138322D01*
X131954Y138402D01*
X131922Y138480D01*
X131886Y138556D01*
X131846Y138631D01*
X131803Y138704D01*
X131757Y138775D01*
X131708Y138844D01*
X131655Y138911D01*
X131599Y138975D01*
X131541Y139036D01*
X131480Y139094D01*
X131416Y139150D01*
X131349Y139203D01*
X131280Y139252D01*
X131209Y139298D01*
X131136Y139341D01*
X131061Y139381D01*
X130985Y139417D01*
X130907Y139449D01*
X130827Y139478D01*
X130746Y139503D01*
X130664Y139524D01*
X130581Y139542D01*
X130497Y139555D01*
X130413Y139565D01*
X130329Y139571D01*
X130244Y139573D01*
X127308Y139573D01*
X127223Y139571D01*
X127139Y139565D01*
X127055Y139555D01*
X126971Y139542D01*
X126888Y139524D01*
X126806Y139503D01*
X126725Y139478D01*
X126645Y139449D01*
X126567Y139417D01*
X126491Y139381D01*
X126416Y139341D01*
X126343Y139298D01*
X126272Y139252D01*
X126203Y139203D01*
X126136Y139150D01*
X126072Y139094D01*
X126011Y139036D01*
X125953Y138975D01*
X125897Y138911D01*
X125844Y138844D01*
X125795Y138775D01*
X125749Y138704D01*
X125706Y138631D01*
X125666Y138556D01*
X125630Y138480D01*
X125598Y138402D01*
X125569Y138322D01*
X125544Y138241D01*
X125523Y138159D01*
X125505Y138076D01*
X125492Y137992D01*
X125482Y137908D01*
X125476Y137824D01*
X125474Y137739D01*
X125474Y135904D01*
X125474Y144895D02*
X125474Y146363D01*
X125474Y144895D02*
X125476Y144821D01*
X125482Y144746D01*
X125491Y144673D01*
X125504Y144599D01*
X125521Y144527D01*
X125541Y144456D01*
X125565Y144385D01*
X125593Y144316D01*
X125624Y144249D01*
X125658Y144183D01*
X125696Y144118D01*
X125737Y144056D01*
X125781Y143996D01*
X125828Y143939D01*
X125878Y143884D01*
X125931Y143831D01*
X125986Y143781D01*
X126043Y143734D01*
X126103Y143690D01*
X126165Y143649D01*
X126230Y143611D01*
X126296Y143577D01*
X126363Y143546D01*
X126432Y143518D01*
X126503Y143494D01*
X126574Y143474D01*
X126646Y143457D01*
X126720Y143444D01*
X126793Y143435D01*
X126868Y143429D01*
X126942Y143427D01*
X126942Y143428D02*
X130610Y143428D01*
X130610Y143427D02*
X130684Y143429D01*
X130759Y143435D01*
X130832Y143444D01*
X130906Y143457D01*
X130978Y143474D01*
X131049Y143494D01*
X131120Y143518D01*
X131189Y143546D01*
X131256Y143577D01*
X131322Y143611D01*
X131387Y143649D01*
X131449Y143690D01*
X131509Y143734D01*
X131566Y143781D01*
X131621Y143831D01*
X131674Y143884D01*
X131724Y143939D01*
X131771Y143996D01*
X131815Y144056D01*
X131856Y144118D01*
X131894Y144183D01*
X131928Y144248D01*
X131959Y144316D01*
X131987Y144385D01*
X132011Y144456D01*
X132031Y144527D01*
X132048Y144599D01*
X132061Y144673D01*
X132070Y144746D01*
X132076Y144821D01*
X132078Y144895D01*
X132078Y146363D01*
X130610Y149559D02*
X132078Y151394D01*
X125474Y151394D01*
X125474Y153228D02*
X125474Y149559D01*
X114242Y121592D02*
X114168Y121590D01*
X114093Y121584D01*
X114020Y121575D01*
X113946Y121562D01*
X113874Y121545D01*
X113803Y121525D01*
X113732Y121501D01*
X113663Y121473D01*
X113596Y121442D01*
X113530Y121408D01*
X113465Y121370D01*
X113403Y121329D01*
X113343Y121285D01*
X113286Y121238D01*
X113231Y121188D01*
X113178Y121135D01*
X113128Y121080D01*
X113081Y121023D01*
X113037Y120963D01*
X112996Y120901D01*
X112958Y120836D01*
X112924Y120770D01*
X112893Y120703D01*
X112865Y120634D01*
X112841Y120563D01*
X112821Y120492D01*
X112804Y120420D01*
X112791Y120346D01*
X112782Y120273D01*
X112776Y120198D01*
X112774Y120124D01*
X112776Y120013D01*
X112782Y119902D01*
X112792Y119791D01*
X112806Y119680D01*
X112824Y119571D01*
X112846Y119462D01*
X112871Y119353D01*
X112901Y119246D01*
X112934Y119140D01*
X112972Y119035D01*
X113012Y118932D01*
X113057Y118830D01*
X113105Y118730D01*
X113157Y118631D01*
X113212Y118535D01*
X113271Y118440D01*
X113333Y118348D01*
X113399Y118258D01*
X113467Y118170D01*
X113539Y118085D01*
X113614Y118003D01*
X113691Y117923D01*
X117910Y118106D02*
X117984Y118108D01*
X118059Y118114D01*
X118132Y118123D01*
X118206Y118136D01*
X118278Y118153D01*
X118349Y118173D01*
X118420Y118197D01*
X118489Y118225D01*
X118556Y118256D01*
X118622Y118290D01*
X118687Y118328D01*
X118749Y118369D01*
X118809Y118413D01*
X118866Y118460D01*
X118921Y118510D01*
X118974Y118563D01*
X119024Y118618D01*
X119071Y118675D01*
X119115Y118735D01*
X119156Y118797D01*
X119194Y118862D01*
X119228Y118928D01*
X119259Y118995D01*
X119287Y119064D01*
X119311Y119135D01*
X119331Y119206D01*
X119348Y119278D01*
X119361Y119352D01*
X119370Y119425D01*
X119376Y119500D01*
X119378Y119574D01*
X119376Y119678D01*
X119370Y119782D01*
X119360Y119886D01*
X119347Y119989D01*
X119329Y120092D01*
X119307Y120194D01*
X119282Y120295D01*
X119253Y120395D01*
X119220Y120494D01*
X119183Y120591D01*
X119143Y120687D01*
X119099Y120782D01*
X119051Y120874D01*
X119001Y120965D01*
X118946Y121054D01*
X118889Y121141D01*
X118828Y121225D01*
X116625Y118840D02*
X116664Y118777D01*
X116706Y118717D01*
X116751Y118659D01*
X116799Y118602D01*
X116850Y118549D01*
X116903Y118498D01*
X116958Y118449D01*
X117016Y118404D01*
X117076Y118361D01*
X117138Y118321D01*
X117202Y118285D01*
X117268Y118251D01*
X117336Y118221D01*
X117404Y118194D01*
X117474Y118171D01*
X117545Y118151D01*
X117617Y118135D01*
X117690Y118122D01*
X117763Y118113D01*
X117836Y118108D01*
X117910Y118106D01*
X115527Y120858D02*
X115488Y120921D01*
X115446Y120981D01*
X115401Y121040D01*
X115353Y121096D01*
X115302Y121149D01*
X115249Y121200D01*
X115194Y121249D01*
X115136Y121294D01*
X115076Y121337D01*
X115014Y121377D01*
X114950Y121413D01*
X114884Y121447D01*
X114816Y121477D01*
X114748Y121504D01*
X114678Y121527D01*
X114607Y121547D01*
X114535Y121563D01*
X114462Y121576D01*
X114389Y121585D01*
X114316Y121590D01*
X114242Y121592D01*
X115526Y120858D02*
X116626Y118840D01*
X119378Y125419D02*
X112774Y125419D01*
X119378Y125419D02*
X119378Y127254D01*
X119376Y127339D01*
X119370Y127423D01*
X119360Y127507D01*
X119347Y127591D01*
X119329Y127674D01*
X119308Y127756D01*
X119283Y127837D01*
X119254Y127917D01*
X119222Y127995D01*
X119186Y128071D01*
X119146Y128146D01*
X119103Y128219D01*
X119057Y128290D01*
X119008Y128359D01*
X118955Y128426D01*
X118899Y128490D01*
X118841Y128551D01*
X118780Y128609D01*
X118716Y128665D01*
X118649Y128718D01*
X118580Y128767D01*
X118509Y128813D01*
X118436Y128856D01*
X118361Y128896D01*
X118285Y128932D01*
X118207Y128964D01*
X118127Y128993D01*
X118046Y129018D01*
X117964Y129039D01*
X117881Y129057D01*
X117797Y129070D01*
X117713Y129080D01*
X117629Y129086D01*
X117544Y129088D01*
X117459Y129086D01*
X117375Y129080D01*
X117291Y129070D01*
X117207Y129057D01*
X117124Y129039D01*
X117042Y129018D01*
X116961Y128993D01*
X116881Y128964D01*
X116803Y128932D01*
X116727Y128896D01*
X116652Y128856D01*
X116579Y128813D01*
X116508Y128767D01*
X116439Y128718D01*
X116372Y128665D01*
X116308Y128609D01*
X116247Y128551D01*
X116189Y128490D01*
X116133Y128426D01*
X116080Y128359D01*
X116031Y128290D01*
X115985Y128219D01*
X115942Y128146D01*
X115902Y128071D01*
X115866Y127995D01*
X115834Y127917D01*
X115805Y127837D01*
X115780Y127756D01*
X115759Y127674D01*
X115741Y127591D01*
X115728Y127507D01*
X115718Y127423D01*
X115712Y127339D01*
X115710Y127254D01*
X115709Y127254D02*
X115709Y125419D01*
X112774Y132681D02*
X119378Y132681D01*
X112774Y131947D02*
X112774Y133414D01*
X119378Y133414D02*
X119378Y131947D01*
X112774Y138130D02*
X112774Y139598D01*
X112774Y138130D02*
X112776Y138056D01*
X112782Y137981D01*
X112791Y137908D01*
X112804Y137834D01*
X112821Y137762D01*
X112841Y137691D01*
X112865Y137620D01*
X112893Y137551D01*
X112924Y137484D01*
X112958Y137418D01*
X112996Y137353D01*
X113037Y137291D01*
X113081Y137231D01*
X113128Y137174D01*
X113178Y137119D01*
X113231Y137066D01*
X113286Y137016D01*
X113343Y136969D01*
X113403Y136925D01*
X113465Y136884D01*
X113530Y136846D01*
X113596Y136812D01*
X113663Y136781D01*
X113732Y136753D01*
X113803Y136729D01*
X113874Y136709D01*
X113946Y136692D01*
X114020Y136679D01*
X114093Y136670D01*
X114168Y136664D01*
X114242Y136662D01*
X114242Y136663D02*
X117910Y136663D01*
X117910Y136662D02*
X117984Y136664D01*
X118059Y136670D01*
X118132Y136679D01*
X118206Y136692D01*
X118278Y136709D01*
X118349Y136729D01*
X118420Y136753D01*
X118489Y136781D01*
X118556Y136812D01*
X118622Y136846D01*
X118687Y136884D01*
X118749Y136925D01*
X118809Y136969D01*
X118866Y137016D01*
X118921Y137066D01*
X118974Y137119D01*
X119024Y137174D01*
X119071Y137231D01*
X119115Y137291D01*
X119156Y137353D01*
X119194Y137418D01*
X119228Y137483D01*
X119259Y137551D01*
X119287Y137620D01*
X119311Y137691D01*
X119331Y137762D01*
X119348Y137834D01*
X119361Y137908D01*
X119370Y137981D01*
X119376Y138056D01*
X119378Y138130D01*
X119378Y139598D01*
X119378Y143062D02*
X112774Y143062D01*
X112774Y145997D01*
X112774Y149559D02*
X119378Y149559D01*
X119378Y153228D02*
X115342Y149559D01*
X116810Y151027D02*
X112774Y153228D01*
X101542Y114458D02*
X101468Y114456D01*
X101393Y114450D01*
X101320Y114441D01*
X101246Y114428D01*
X101174Y114411D01*
X101103Y114391D01*
X101032Y114367D01*
X100963Y114339D01*
X100896Y114308D01*
X100830Y114274D01*
X100765Y114236D01*
X100703Y114195D01*
X100643Y114151D01*
X100586Y114104D01*
X100531Y114054D01*
X100478Y114001D01*
X100428Y113946D01*
X100381Y113889D01*
X100337Y113829D01*
X100296Y113767D01*
X100258Y113702D01*
X100224Y113636D01*
X100193Y113569D01*
X100165Y113500D01*
X100141Y113429D01*
X100121Y113358D01*
X100104Y113286D01*
X100091Y113212D01*
X100082Y113139D01*
X100076Y113064D01*
X100074Y112990D01*
X100076Y112879D01*
X100082Y112768D01*
X100092Y112657D01*
X100106Y112546D01*
X100124Y112437D01*
X100146Y112328D01*
X100171Y112219D01*
X100201Y112112D01*
X100234Y112006D01*
X100272Y111901D01*
X100312Y111798D01*
X100357Y111696D01*
X100405Y111596D01*
X100457Y111497D01*
X100512Y111401D01*
X100571Y111306D01*
X100633Y111214D01*
X100699Y111124D01*
X100767Y111036D01*
X100839Y110951D01*
X100914Y110869D01*
X100991Y110789D01*
X105210Y110972D02*
X105284Y110974D01*
X105359Y110980D01*
X105432Y110989D01*
X105506Y111002D01*
X105578Y111019D01*
X105649Y111039D01*
X105720Y111063D01*
X105789Y111091D01*
X105856Y111122D01*
X105922Y111156D01*
X105987Y111194D01*
X106049Y111235D01*
X106109Y111279D01*
X106166Y111326D01*
X106221Y111376D01*
X106274Y111429D01*
X106324Y111484D01*
X106371Y111541D01*
X106415Y111601D01*
X106456Y111663D01*
X106494Y111728D01*
X106528Y111794D01*
X106559Y111861D01*
X106587Y111930D01*
X106611Y112001D01*
X106631Y112072D01*
X106648Y112144D01*
X106661Y112218D01*
X106670Y112291D01*
X106676Y112366D01*
X106678Y112440D01*
X106676Y112544D01*
X106670Y112648D01*
X106660Y112752D01*
X106647Y112855D01*
X106629Y112958D01*
X106607Y113060D01*
X106582Y113161D01*
X106553Y113261D01*
X106520Y113360D01*
X106483Y113457D01*
X106443Y113553D01*
X106399Y113648D01*
X106351Y113740D01*
X106301Y113831D01*
X106246Y113920D01*
X106189Y114007D01*
X106128Y114091D01*
X103925Y111706D02*
X103964Y111643D01*
X104006Y111583D01*
X104051Y111525D01*
X104099Y111468D01*
X104150Y111415D01*
X104203Y111364D01*
X104258Y111315D01*
X104316Y111270D01*
X104376Y111227D01*
X104438Y111187D01*
X104502Y111151D01*
X104568Y111117D01*
X104636Y111087D01*
X104704Y111060D01*
X104774Y111037D01*
X104845Y111017D01*
X104917Y111001D01*
X104990Y110988D01*
X105063Y110979D01*
X105136Y110974D01*
X105210Y110972D01*
X102827Y113724D02*
X102788Y113787D01*
X102746Y113847D01*
X102701Y113906D01*
X102653Y113962D01*
X102602Y114015D01*
X102549Y114066D01*
X102494Y114115D01*
X102436Y114160D01*
X102376Y114203D01*
X102314Y114243D01*
X102250Y114279D01*
X102184Y114313D01*
X102116Y114343D01*
X102048Y114370D01*
X101978Y114393D01*
X101907Y114413D01*
X101835Y114429D01*
X101762Y114442D01*
X101689Y114451D01*
X101616Y114456D01*
X101542Y114458D01*
X102826Y113724D02*
X103926Y111706D01*
X106678Y118285D02*
X100074Y118285D01*
X106678Y118285D02*
X106678Y120120D01*
X106676Y120205D01*
X106670Y120289D01*
X106660Y120373D01*
X106647Y120457D01*
X106629Y120540D01*
X106608Y120622D01*
X106583Y120703D01*
X106554Y120783D01*
X106522Y120861D01*
X106486Y120937D01*
X106446Y121012D01*
X106403Y121085D01*
X106357Y121156D01*
X106308Y121225D01*
X106255Y121292D01*
X106199Y121356D01*
X106141Y121417D01*
X106080Y121475D01*
X106016Y121531D01*
X105949Y121584D01*
X105880Y121633D01*
X105809Y121679D01*
X105736Y121722D01*
X105661Y121762D01*
X105585Y121798D01*
X105507Y121830D01*
X105427Y121859D01*
X105346Y121884D01*
X105264Y121905D01*
X105181Y121923D01*
X105097Y121936D01*
X105013Y121946D01*
X104929Y121952D01*
X104844Y121954D01*
X104759Y121952D01*
X104675Y121946D01*
X104591Y121936D01*
X104507Y121923D01*
X104424Y121905D01*
X104342Y121884D01*
X104261Y121859D01*
X104181Y121830D01*
X104103Y121798D01*
X104027Y121762D01*
X103952Y121722D01*
X103879Y121679D01*
X103808Y121633D01*
X103739Y121584D01*
X103672Y121531D01*
X103608Y121475D01*
X103547Y121417D01*
X103489Y121356D01*
X103433Y121292D01*
X103380Y121225D01*
X103331Y121156D01*
X103285Y121085D01*
X103242Y121012D01*
X103202Y120937D01*
X103166Y120861D01*
X103134Y120783D01*
X103105Y120703D01*
X103080Y120622D01*
X103059Y120540D01*
X103041Y120457D01*
X103028Y120373D01*
X103018Y120289D01*
X103012Y120205D01*
X103010Y120120D01*
X103009Y120120D02*
X103009Y118285D01*
X100074Y125547D02*
X106678Y125547D01*
X100074Y124813D02*
X100074Y126280D01*
X106678Y126280D02*
X106678Y124813D01*
X106678Y129929D02*
X100074Y129929D01*
X103009Y132130D02*
X106678Y129929D01*
X103009Y132130D02*
X106678Y134332D01*
X100074Y134332D01*
X100074Y138714D02*
X106678Y138714D01*
X100074Y137980D02*
X100074Y139448D01*
X106678Y139448D02*
X106678Y137980D01*
X100074Y144689D02*
X100076Y144763D01*
X100082Y144838D01*
X100091Y144911D01*
X100104Y144985D01*
X100121Y145057D01*
X100141Y145128D01*
X100165Y145199D01*
X100193Y145268D01*
X100224Y145335D01*
X100258Y145401D01*
X100296Y145466D01*
X100337Y145528D01*
X100381Y145588D01*
X100428Y145645D01*
X100478Y145700D01*
X100531Y145753D01*
X100586Y145803D01*
X100643Y145850D01*
X100703Y145894D01*
X100765Y145935D01*
X100830Y145973D01*
X100896Y146007D01*
X100963Y146038D01*
X101032Y146066D01*
X101103Y146090D01*
X101174Y146110D01*
X101246Y146127D01*
X101320Y146140D01*
X101393Y146149D01*
X101468Y146155D01*
X101542Y146157D01*
X100074Y144689D02*
X100076Y144578D01*
X100082Y144467D01*
X100092Y144356D01*
X100106Y144245D01*
X100124Y144136D01*
X100146Y144027D01*
X100171Y143918D01*
X100201Y143811D01*
X100234Y143705D01*
X100272Y143600D01*
X100312Y143497D01*
X100357Y143395D01*
X100405Y143295D01*
X100457Y143196D01*
X100512Y143100D01*
X100571Y143005D01*
X100633Y142913D01*
X100699Y142823D01*
X100767Y142735D01*
X100839Y142650D01*
X100914Y142568D01*
X100991Y142488D01*
X105210Y142671D02*
X105284Y142673D01*
X105359Y142679D01*
X105432Y142688D01*
X105506Y142701D01*
X105578Y142718D01*
X105649Y142738D01*
X105720Y142762D01*
X105789Y142790D01*
X105856Y142821D01*
X105922Y142855D01*
X105987Y142893D01*
X106049Y142934D01*
X106109Y142978D01*
X106166Y143025D01*
X106221Y143075D01*
X106274Y143128D01*
X106324Y143183D01*
X106371Y143240D01*
X106415Y143300D01*
X106456Y143362D01*
X106494Y143427D01*
X106528Y143493D01*
X106559Y143560D01*
X106587Y143629D01*
X106611Y143700D01*
X106631Y143771D01*
X106648Y143843D01*
X106661Y143917D01*
X106670Y143990D01*
X106676Y144065D01*
X106678Y144139D01*
X106676Y144243D01*
X106670Y144347D01*
X106660Y144451D01*
X106647Y144554D01*
X106629Y144657D01*
X106607Y144759D01*
X106582Y144860D01*
X106553Y144960D01*
X106520Y145059D01*
X106483Y145156D01*
X106443Y145252D01*
X106399Y145347D01*
X106351Y145439D01*
X106301Y145530D01*
X106246Y145619D01*
X106189Y145706D01*
X106128Y145790D01*
X103925Y143405D02*
X103964Y143342D01*
X104006Y143282D01*
X104051Y143224D01*
X104099Y143167D01*
X104150Y143114D01*
X104203Y143063D01*
X104258Y143014D01*
X104316Y142969D01*
X104376Y142926D01*
X104438Y142886D01*
X104502Y142850D01*
X104568Y142816D01*
X104636Y142786D01*
X104704Y142759D01*
X104774Y142736D01*
X104845Y142716D01*
X104917Y142700D01*
X104990Y142687D01*
X105063Y142678D01*
X105136Y142673D01*
X105210Y142671D01*
X102827Y145423D02*
X102788Y145486D01*
X102746Y145546D01*
X102701Y145605D01*
X102653Y145661D01*
X102602Y145714D01*
X102549Y145765D01*
X102494Y145814D01*
X102436Y145859D01*
X102376Y145902D01*
X102314Y145942D01*
X102250Y145978D01*
X102184Y146012D01*
X102116Y146042D01*
X102048Y146069D01*
X101978Y146092D01*
X101907Y146112D01*
X101835Y146128D01*
X101762Y146141D01*
X101689Y146150D01*
X101616Y146155D01*
X101542Y146157D01*
X102826Y145423D02*
X103926Y143405D01*
X104844Y149559D02*
X101908Y149559D01*
X104844Y149560D02*
X104929Y149562D01*
X105013Y149568D01*
X105097Y149578D01*
X105181Y149591D01*
X105264Y149609D01*
X105346Y149630D01*
X105427Y149655D01*
X105507Y149684D01*
X105585Y149716D01*
X105661Y149752D01*
X105736Y149792D01*
X105809Y149835D01*
X105880Y149881D01*
X105949Y149930D01*
X106016Y149983D01*
X106080Y150039D01*
X106141Y150097D01*
X106199Y150158D01*
X106255Y150222D01*
X106308Y150289D01*
X106357Y150358D01*
X106403Y150429D01*
X106446Y150502D01*
X106486Y150577D01*
X106522Y150653D01*
X106554Y150731D01*
X106583Y150811D01*
X106608Y150892D01*
X106629Y150974D01*
X106647Y151057D01*
X106660Y151141D01*
X106670Y151225D01*
X106676Y151309D01*
X106678Y151394D01*
X106676Y151479D01*
X106670Y151563D01*
X106660Y151647D01*
X106647Y151731D01*
X106629Y151814D01*
X106608Y151896D01*
X106583Y151977D01*
X106554Y152057D01*
X106522Y152135D01*
X106486Y152211D01*
X106446Y152286D01*
X106403Y152359D01*
X106357Y152430D01*
X106308Y152499D01*
X106255Y152566D01*
X106199Y152630D01*
X106141Y152691D01*
X106080Y152749D01*
X106016Y152805D01*
X105949Y152858D01*
X105880Y152907D01*
X105809Y152953D01*
X105736Y152996D01*
X105661Y153036D01*
X105585Y153072D01*
X105507Y153104D01*
X105427Y153133D01*
X105346Y153158D01*
X105264Y153179D01*
X105181Y153197D01*
X105097Y153210D01*
X105013Y153220D01*
X104929Y153226D01*
X104844Y153228D01*
X101908Y153228D01*
X101823Y153226D01*
X101739Y153220D01*
X101655Y153210D01*
X101571Y153197D01*
X101488Y153179D01*
X101406Y153158D01*
X101325Y153133D01*
X101245Y153104D01*
X101167Y153072D01*
X101091Y153036D01*
X101016Y152996D01*
X100943Y152953D01*
X100872Y152907D01*
X100803Y152858D01*
X100736Y152805D01*
X100672Y152749D01*
X100611Y152691D01*
X100553Y152630D01*
X100497Y152566D01*
X100444Y152499D01*
X100395Y152430D01*
X100349Y152359D01*
X100306Y152286D01*
X100266Y152211D01*
X100230Y152135D01*
X100198Y152057D01*
X100169Y151977D01*
X100144Y151896D01*
X100123Y151814D01*
X100105Y151731D01*
X100092Y151647D01*
X100082Y151563D01*
X100076Y151479D01*
X100074Y151394D01*
X100076Y151309D01*
X100082Y151225D01*
X100092Y151141D01*
X100105Y151057D01*
X100123Y150974D01*
X100144Y150892D01*
X100169Y150811D01*
X100198Y150731D01*
X100230Y150653D01*
X100266Y150577D01*
X100306Y150502D01*
X100349Y150429D01*
X100395Y150358D01*
X100444Y150289D01*
X100497Y150222D01*
X100553Y150158D01*
X100611Y150097D01*
X100672Y150039D01*
X100736Y149983D01*
X100803Y149930D01*
X100872Y149881D01*
X100943Y149835D01*
X101016Y149792D01*
X101091Y149752D01*
X101167Y149716D01*
X101245Y149684D01*
X101325Y149655D01*
X101406Y149630D01*
X101488Y149609D01*
X101571Y149591D01*
X101655Y149578D01*
X101739Y149568D01*
X101823Y149562D01*
X101908Y149560D01*
X88842Y114096D02*
X88768Y114094D01*
X88693Y114088D01*
X88620Y114079D01*
X88546Y114066D01*
X88474Y114049D01*
X88403Y114029D01*
X88332Y114005D01*
X88263Y113977D01*
X88196Y113946D01*
X88130Y113912D01*
X88065Y113874D01*
X88003Y113833D01*
X87943Y113789D01*
X87886Y113742D01*
X87831Y113692D01*
X87778Y113639D01*
X87728Y113584D01*
X87681Y113527D01*
X87637Y113467D01*
X87596Y113405D01*
X87558Y113340D01*
X87524Y113274D01*
X87493Y113207D01*
X87465Y113138D01*
X87441Y113067D01*
X87421Y112996D01*
X87404Y112924D01*
X87391Y112850D01*
X87382Y112777D01*
X87376Y112702D01*
X87374Y112628D01*
X87376Y112517D01*
X87382Y112406D01*
X87392Y112295D01*
X87406Y112184D01*
X87424Y112075D01*
X87446Y111966D01*
X87471Y111857D01*
X87501Y111750D01*
X87534Y111644D01*
X87572Y111539D01*
X87612Y111436D01*
X87657Y111334D01*
X87705Y111234D01*
X87757Y111135D01*
X87812Y111039D01*
X87871Y110944D01*
X87933Y110852D01*
X87999Y110762D01*
X88067Y110674D01*
X88139Y110589D01*
X88214Y110507D01*
X88291Y110427D01*
X92510Y110609D02*
X92584Y110611D01*
X92659Y110617D01*
X92732Y110626D01*
X92806Y110639D01*
X92878Y110656D01*
X92949Y110676D01*
X93020Y110700D01*
X93089Y110728D01*
X93156Y110759D01*
X93222Y110793D01*
X93287Y110831D01*
X93349Y110872D01*
X93409Y110916D01*
X93466Y110963D01*
X93521Y111013D01*
X93574Y111066D01*
X93624Y111121D01*
X93671Y111178D01*
X93715Y111238D01*
X93756Y111300D01*
X93794Y111365D01*
X93828Y111431D01*
X93859Y111498D01*
X93887Y111567D01*
X93911Y111638D01*
X93931Y111709D01*
X93948Y111781D01*
X93961Y111855D01*
X93970Y111928D01*
X93976Y112003D01*
X93978Y112077D01*
X93976Y112181D01*
X93970Y112285D01*
X93960Y112389D01*
X93947Y112492D01*
X93929Y112595D01*
X93907Y112697D01*
X93882Y112798D01*
X93853Y112898D01*
X93820Y112997D01*
X93783Y113094D01*
X93743Y113190D01*
X93699Y113285D01*
X93651Y113377D01*
X93601Y113468D01*
X93546Y113557D01*
X93489Y113644D01*
X93428Y113728D01*
X91225Y111343D02*
X91264Y111280D01*
X91306Y111220D01*
X91351Y111162D01*
X91399Y111105D01*
X91450Y111052D01*
X91503Y111001D01*
X91558Y110952D01*
X91616Y110907D01*
X91676Y110864D01*
X91738Y110824D01*
X91802Y110788D01*
X91868Y110754D01*
X91936Y110724D01*
X92004Y110697D01*
X92074Y110674D01*
X92145Y110654D01*
X92217Y110638D01*
X92290Y110625D01*
X92363Y110616D01*
X92436Y110611D01*
X92510Y110609D01*
X90127Y113362D02*
X90088Y113425D01*
X90046Y113485D01*
X90001Y113544D01*
X89953Y113600D01*
X89902Y113653D01*
X89849Y113704D01*
X89794Y113753D01*
X89736Y113798D01*
X89676Y113841D01*
X89614Y113881D01*
X89550Y113917D01*
X89484Y113951D01*
X89416Y113981D01*
X89348Y114008D01*
X89278Y114031D01*
X89207Y114051D01*
X89135Y114067D01*
X89062Y114080D01*
X88989Y114089D01*
X88916Y114094D01*
X88842Y114096D01*
X90126Y113361D02*
X91226Y111344D01*
X93978Y117923D02*
X87374Y117923D01*
X93978Y117923D02*
X93978Y119757D01*
X93976Y119842D01*
X93970Y119926D01*
X93960Y120010D01*
X93947Y120094D01*
X93929Y120177D01*
X93908Y120259D01*
X93883Y120340D01*
X93854Y120420D01*
X93822Y120498D01*
X93786Y120574D01*
X93746Y120649D01*
X93703Y120722D01*
X93657Y120793D01*
X93608Y120862D01*
X93555Y120929D01*
X93499Y120993D01*
X93441Y121054D01*
X93380Y121112D01*
X93316Y121168D01*
X93249Y121221D01*
X93180Y121270D01*
X93109Y121316D01*
X93036Y121359D01*
X92961Y121399D01*
X92885Y121435D01*
X92807Y121467D01*
X92727Y121496D01*
X92646Y121521D01*
X92564Y121542D01*
X92481Y121560D01*
X92397Y121573D01*
X92313Y121583D01*
X92229Y121589D01*
X92144Y121591D01*
X92059Y121589D01*
X91975Y121583D01*
X91891Y121573D01*
X91807Y121560D01*
X91724Y121542D01*
X91642Y121521D01*
X91561Y121496D01*
X91481Y121467D01*
X91403Y121435D01*
X91327Y121399D01*
X91252Y121359D01*
X91179Y121316D01*
X91108Y121270D01*
X91039Y121221D01*
X90972Y121168D01*
X90908Y121112D01*
X90847Y121054D01*
X90789Y120993D01*
X90733Y120929D01*
X90680Y120862D01*
X90631Y120793D01*
X90585Y120722D01*
X90542Y120649D01*
X90502Y120574D01*
X90466Y120498D01*
X90434Y120420D01*
X90405Y120340D01*
X90380Y120259D01*
X90359Y120177D01*
X90341Y120094D01*
X90328Y120010D01*
X90318Y119926D01*
X90312Y119842D01*
X90310Y119757D01*
X90309Y119757D02*
X90309Y117923D01*
X87374Y125184D02*
X93978Y125184D01*
X87374Y124450D02*
X87374Y125918D01*
X93978Y125918D02*
X93978Y124450D01*
X93978Y129567D02*
X87374Y129567D01*
X90309Y131768D02*
X93978Y129567D01*
X90309Y131768D02*
X93978Y133969D01*
X87374Y133969D01*
X89208Y137980D02*
X92144Y137980D01*
X92144Y137981D02*
X92229Y137983D01*
X92313Y137989D01*
X92397Y137999D01*
X92481Y138012D01*
X92564Y138030D01*
X92646Y138051D01*
X92727Y138076D01*
X92807Y138105D01*
X92885Y138137D01*
X92961Y138173D01*
X93036Y138213D01*
X93109Y138256D01*
X93180Y138302D01*
X93249Y138351D01*
X93316Y138404D01*
X93380Y138460D01*
X93441Y138518D01*
X93499Y138579D01*
X93555Y138643D01*
X93608Y138710D01*
X93657Y138779D01*
X93703Y138850D01*
X93746Y138923D01*
X93786Y138998D01*
X93822Y139074D01*
X93854Y139152D01*
X93883Y139232D01*
X93908Y139313D01*
X93929Y139395D01*
X93947Y139478D01*
X93960Y139562D01*
X93970Y139646D01*
X93976Y139730D01*
X93978Y139815D01*
X93976Y139900D01*
X93970Y139984D01*
X93960Y140068D01*
X93947Y140152D01*
X93929Y140235D01*
X93908Y140317D01*
X93883Y140398D01*
X93854Y140478D01*
X93822Y140556D01*
X93786Y140632D01*
X93746Y140707D01*
X93703Y140780D01*
X93657Y140851D01*
X93608Y140920D01*
X93555Y140987D01*
X93499Y141051D01*
X93441Y141112D01*
X93380Y141170D01*
X93316Y141226D01*
X93249Y141279D01*
X93180Y141328D01*
X93109Y141374D01*
X93036Y141417D01*
X92961Y141457D01*
X92885Y141493D01*
X92807Y141525D01*
X92727Y141554D01*
X92646Y141579D01*
X92564Y141600D01*
X92481Y141618D01*
X92397Y141631D01*
X92313Y141641D01*
X92229Y141647D01*
X92144Y141649D01*
X89208Y141649D01*
X89123Y141647D01*
X89039Y141641D01*
X88955Y141631D01*
X88871Y141618D01*
X88788Y141600D01*
X88706Y141579D01*
X88625Y141554D01*
X88545Y141525D01*
X88467Y141493D01*
X88391Y141457D01*
X88316Y141417D01*
X88243Y141374D01*
X88172Y141328D01*
X88103Y141279D01*
X88036Y141226D01*
X87972Y141170D01*
X87911Y141112D01*
X87853Y141051D01*
X87797Y140987D01*
X87744Y140920D01*
X87695Y140851D01*
X87649Y140780D01*
X87606Y140707D01*
X87566Y140632D01*
X87530Y140556D01*
X87498Y140478D01*
X87469Y140398D01*
X87444Y140317D01*
X87423Y140235D01*
X87405Y140152D01*
X87392Y140068D01*
X87382Y139984D01*
X87376Y139900D01*
X87374Y139815D01*
X87376Y139730D01*
X87382Y139646D01*
X87392Y139562D01*
X87405Y139478D01*
X87423Y139395D01*
X87444Y139313D01*
X87469Y139232D01*
X87498Y139152D01*
X87530Y139074D01*
X87566Y138998D01*
X87606Y138923D01*
X87649Y138850D01*
X87695Y138779D01*
X87744Y138710D01*
X87797Y138643D01*
X87853Y138579D01*
X87911Y138518D01*
X87972Y138460D01*
X88036Y138404D01*
X88103Y138351D01*
X88172Y138302D01*
X88243Y138256D01*
X88316Y138213D01*
X88391Y138173D01*
X88467Y138137D01*
X88545Y138105D01*
X88625Y138076D01*
X88706Y138051D01*
X88788Y138030D01*
X88871Y138012D01*
X88955Y137999D01*
X89039Y137989D01*
X89123Y137983D01*
X89208Y137981D01*
X87374Y147253D02*
X87376Y147327D01*
X87382Y147402D01*
X87391Y147475D01*
X87404Y147549D01*
X87421Y147621D01*
X87441Y147692D01*
X87465Y147763D01*
X87493Y147832D01*
X87524Y147899D01*
X87558Y147965D01*
X87596Y148030D01*
X87637Y148092D01*
X87681Y148152D01*
X87728Y148209D01*
X87778Y148264D01*
X87831Y148317D01*
X87886Y148367D01*
X87943Y148414D01*
X88003Y148458D01*
X88065Y148499D01*
X88130Y148537D01*
X88196Y148571D01*
X88263Y148602D01*
X88332Y148630D01*
X88403Y148654D01*
X88474Y148674D01*
X88546Y148691D01*
X88620Y148704D01*
X88693Y148713D01*
X88768Y148719D01*
X88842Y148721D01*
X87374Y147253D02*
X87376Y147142D01*
X87382Y147031D01*
X87392Y146920D01*
X87406Y146809D01*
X87424Y146700D01*
X87446Y146591D01*
X87471Y146482D01*
X87501Y146375D01*
X87534Y146269D01*
X87572Y146164D01*
X87612Y146061D01*
X87657Y145959D01*
X87705Y145859D01*
X87757Y145760D01*
X87812Y145664D01*
X87871Y145569D01*
X87933Y145477D01*
X87999Y145387D01*
X88067Y145299D01*
X88139Y145214D01*
X88214Y145132D01*
X88291Y145052D01*
X92510Y145235D02*
X92584Y145237D01*
X92659Y145243D01*
X92732Y145252D01*
X92806Y145265D01*
X92878Y145282D01*
X92949Y145302D01*
X93020Y145326D01*
X93089Y145354D01*
X93156Y145385D01*
X93222Y145419D01*
X93287Y145457D01*
X93349Y145498D01*
X93409Y145542D01*
X93466Y145589D01*
X93521Y145639D01*
X93574Y145692D01*
X93624Y145747D01*
X93671Y145804D01*
X93715Y145864D01*
X93756Y145926D01*
X93794Y145991D01*
X93828Y146057D01*
X93859Y146124D01*
X93887Y146193D01*
X93911Y146264D01*
X93931Y146335D01*
X93948Y146407D01*
X93961Y146481D01*
X93970Y146554D01*
X93976Y146629D01*
X93978Y146703D01*
X93976Y146807D01*
X93970Y146911D01*
X93960Y147015D01*
X93947Y147118D01*
X93929Y147221D01*
X93907Y147323D01*
X93882Y147424D01*
X93853Y147524D01*
X93820Y147623D01*
X93783Y147720D01*
X93743Y147816D01*
X93699Y147911D01*
X93651Y148003D01*
X93601Y148094D01*
X93546Y148183D01*
X93489Y148270D01*
X93428Y148354D01*
X91225Y145968D02*
X91264Y145905D01*
X91306Y145845D01*
X91351Y145787D01*
X91399Y145730D01*
X91450Y145677D01*
X91503Y145626D01*
X91558Y145577D01*
X91616Y145532D01*
X91676Y145489D01*
X91738Y145449D01*
X91802Y145413D01*
X91868Y145379D01*
X91936Y145349D01*
X92004Y145322D01*
X92074Y145299D01*
X92145Y145279D01*
X92217Y145263D01*
X92290Y145250D01*
X92363Y145241D01*
X92436Y145236D01*
X92510Y145234D01*
X90127Y147987D02*
X90088Y148050D01*
X90046Y148110D01*
X90001Y148169D01*
X89953Y148225D01*
X89902Y148278D01*
X89849Y148329D01*
X89794Y148378D01*
X89736Y148423D01*
X89676Y148466D01*
X89614Y148506D01*
X89550Y148542D01*
X89484Y148576D01*
X89416Y148606D01*
X89348Y148633D01*
X89278Y148656D01*
X89207Y148676D01*
X89135Y148692D01*
X89062Y148705D01*
X88989Y148714D01*
X88916Y148719D01*
X88842Y148721D01*
X90126Y147987D02*
X91226Y145969D01*
X93978Y152494D02*
X87374Y152494D01*
X87374Y151760D02*
X87374Y153228D01*
X93978Y153228D02*
X93978Y151760D01*
X76142Y114946D02*
X76068Y114944D01*
X75993Y114938D01*
X75920Y114929D01*
X75846Y114916D01*
X75774Y114899D01*
X75703Y114879D01*
X75632Y114855D01*
X75563Y114827D01*
X75496Y114796D01*
X75430Y114762D01*
X75365Y114724D01*
X75303Y114683D01*
X75243Y114639D01*
X75186Y114592D01*
X75131Y114542D01*
X75078Y114489D01*
X75028Y114434D01*
X74981Y114377D01*
X74937Y114317D01*
X74896Y114255D01*
X74858Y114190D01*
X74824Y114124D01*
X74793Y114057D01*
X74765Y113988D01*
X74741Y113917D01*
X74721Y113846D01*
X74704Y113774D01*
X74691Y113700D01*
X74682Y113627D01*
X74676Y113552D01*
X74674Y113478D01*
X74676Y113367D01*
X74682Y113256D01*
X74692Y113145D01*
X74706Y113034D01*
X74724Y112925D01*
X74746Y112816D01*
X74771Y112707D01*
X74801Y112600D01*
X74834Y112494D01*
X74872Y112389D01*
X74912Y112286D01*
X74957Y112184D01*
X75005Y112084D01*
X75057Y111985D01*
X75112Y111889D01*
X75171Y111794D01*
X75233Y111702D01*
X75299Y111612D01*
X75367Y111524D01*
X75439Y111439D01*
X75514Y111357D01*
X75591Y111277D01*
X79810Y111459D02*
X79884Y111461D01*
X79959Y111467D01*
X80032Y111476D01*
X80106Y111489D01*
X80178Y111506D01*
X80249Y111526D01*
X80320Y111550D01*
X80389Y111578D01*
X80456Y111609D01*
X80522Y111643D01*
X80587Y111681D01*
X80649Y111722D01*
X80709Y111766D01*
X80766Y111813D01*
X80821Y111863D01*
X80874Y111916D01*
X80924Y111971D01*
X80971Y112028D01*
X81015Y112088D01*
X81056Y112150D01*
X81094Y112215D01*
X81128Y112281D01*
X81159Y112348D01*
X81187Y112417D01*
X81211Y112488D01*
X81231Y112559D01*
X81248Y112631D01*
X81261Y112705D01*
X81270Y112778D01*
X81276Y112853D01*
X81278Y112927D01*
X81276Y113031D01*
X81270Y113135D01*
X81260Y113239D01*
X81247Y113342D01*
X81229Y113445D01*
X81207Y113547D01*
X81182Y113648D01*
X81153Y113748D01*
X81120Y113847D01*
X81083Y113944D01*
X81043Y114040D01*
X80999Y114135D01*
X80951Y114227D01*
X80901Y114318D01*
X80846Y114407D01*
X80789Y114494D01*
X80728Y114578D01*
X78525Y112193D02*
X78564Y112130D01*
X78606Y112070D01*
X78651Y112012D01*
X78699Y111955D01*
X78750Y111902D01*
X78803Y111851D01*
X78858Y111802D01*
X78916Y111757D01*
X78976Y111714D01*
X79038Y111674D01*
X79102Y111638D01*
X79168Y111604D01*
X79236Y111574D01*
X79304Y111547D01*
X79374Y111524D01*
X79445Y111504D01*
X79517Y111488D01*
X79590Y111475D01*
X79663Y111466D01*
X79736Y111461D01*
X79810Y111459D01*
X77427Y114212D02*
X77388Y114275D01*
X77346Y114335D01*
X77301Y114394D01*
X77253Y114450D01*
X77202Y114503D01*
X77149Y114554D01*
X77094Y114603D01*
X77036Y114648D01*
X76976Y114691D01*
X76914Y114731D01*
X76850Y114767D01*
X76784Y114801D01*
X76716Y114831D01*
X76648Y114858D01*
X76578Y114881D01*
X76507Y114901D01*
X76435Y114917D01*
X76362Y114930D01*
X76289Y114939D01*
X76216Y114944D01*
X76142Y114946D01*
X77426Y114211D02*
X78526Y112194D01*
X81278Y118773D02*
X74674Y118773D01*
X81278Y118773D02*
X81278Y120607D01*
X81276Y120692D01*
X81270Y120776D01*
X81260Y120860D01*
X81247Y120944D01*
X81229Y121027D01*
X81208Y121109D01*
X81183Y121190D01*
X81154Y121270D01*
X81122Y121348D01*
X81086Y121424D01*
X81046Y121499D01*
X81003Y121572D01*
X80957Y121643D01*
X80908Y121712D01*
X80855Y121779D01*
X80799Y121843D01*
X80741Y121904D01*
X80680Y121962D01*
X80616Y122018D01*
X80549Y122071D01*
X80480Y122120D01*
X80409Y122166D01*
X80336Y122209D01*
X80261Y122249D01*
X80185Y122285D01*
X80107Y122317D01*
X80027Y122346D01*
X79946Y122371D01*
X79864Y122392D01*
X79781Y122410D01*
X79697Y122423D01*
X79613Y122433D01*
X79529Y122439D01*
X79444Y122441D01*
X79359Y122439D01*
X79275Y122433D01*
X79191Y122423D01*
X79107Y122410D01*
X79024Y122392D01*
X78942Y122371D01*
X78861Y122346D01*
X78781Y122317D01*
X78703Y122285D01*
X78627Y122249D01*
X78552Y122209D01*
X78479Y122166D01*
X78408Y122120D01*
X78339Y122071D01*
X78272Y122018D01*
X78208Y121962D01*
X78147Y121904D01*
X78089Y121843D01*
X78033Y121779D01*
X77980Y121712D01*
X77931Y121643D01*
X77885Y121572D01*
X77842Y121499D01*
X77802Y121424D01*
X77766Y121348D01*
X77734Y121270D01*
X77705Y121190D01*
X77680Y121109D01*
X77659Y121027D01*
X77641Y120944D01*
X77628Y120860D01*
X77618Y120776D01*
X77612Y120692D01*
X77610Y120607D01*
X77609Y120607D02*
X77609Y118773D01*
X74674Y126034D02*
X81278Y126034D01*
X74674Y125301D02*
X74674Y126768D01*
X81278Y126768D02*
X81278Y125301D01*
X74674Y132009D02*
X74676Y132083D01*
X74682Y132158D01*
X74691Y132231D01*
X74704Y132305D01*
X74721Y132377D01*
X74741Y132448D01*
X74765Y132519D01*
X74793Y132588D01*
X74824Y132655D01*
X74858Y132721D01*
X74896Y132786D01*
X74937Y132848D01*
X74981Y132908D01*
X75028Y132965D01*
X75078Y133020D01*
X75131Y133073D01*
X75186Y133123D01*
X75243Y133170D01*
X75303Y133214D01*
X75365Y133255D01*
X75430Y133293D01*
X75496Y133327D01*
X75563Y133358D01*
X75632Y133386D01*
X75703Y133410D01*
X75774Y133430D01*
X75846Y133447D01*
X75920Y133460D01*
X75993Y133469D01*
X76068Y133475D01*
X76142Y133477D01*
X74674Y132009D02*
X74676Y131898D01*
X74682Y131787D01*
X74692Y131676D01*
X74706Y131565D01*
X74724Y131456D01*
X74746Y131347D01*
X74771Y131238D01*
X74801Y131131D01*
X74834Y131025D01*
X74872Y130920D01*
X74912Y130817D01*
X74957Y130715D01*
X75005Y130615D01*
X75057Y130516D01*
X75112Y130420D01*
X75171Y130325D01*
X75233Y130233D01*
X75299Y130143D01*
X75367Y130055D01*
X75439Y129970D01*
X75514Y129888D01*
X75591Y129808D01*
X79810Y129991D02*
X79884Y129993D01*
X79959Y129999D01*
X80032Y130008D01*
X80106Y130021D01*
X80178Y130038D01*
X80249Y130058D01*
X80320Y130082D01*
X80389Y130110D01*
X80456Y130141D01*
X80522Y130175D01*
X80587Y130213D01*
X80649Y130254D01*
X80709Y130298D01*
X80766Y130345D01*
X80821Y130395D01*
X80874Y130448D01*
X80924Y130503D01*
X80971Y130560D01*
X81015Y130620D01*
X81056Y130682D01*
X81094Y130747D01*
X81128Y130813D01*
X81159Y130880D01*
X81187Y130949D01*
X81211Y131020D01*
X81231Y131091D01*
X81248Y131163D01*
X81261Y131237D01*
X81270Y131310D01*
X81276Y131385D01*
X81278Y131459D01*
X81276Y131563D01*
X81270Y131667D01*
X81260Y131771D01*
X81247Y131874D01*
X81229Y131977D01*
X81207Y132079D01*
X81182Y132180D01*
X81153Y132280D01*
X81120Y132379D01*
X81083Y132476D01*
X81043Y132572D01*
X80999Y132667D01*
X80951Y132759D01*
X80901Y132850D01*
X80846Y132939D01*
X80789Y133026D01*
X80728Y133110D01*
X78525Y130725D02*
X78564Y130662D01*
X78606Y130602D01*
X78651Y130544D01*
X78699Y130487D01*
X78750Y130434D01*
X78803Y130383D01*
X78858Y130334D01*
X78916Y130289D01*
X78976Y130246D01*
X79038Y130206D01*
X79102Y130170D01*
X79168Y130136D01*
X79236Y130106D01*
X79304Y130079D01*
X79374Y130056D01*
X79445Y130036D01*
X79517Y130020D01*
X79590Y130007D01*
X79663Y129998D01*
X79736Y129993D01*
X79810Y129991D01*
X77427Y132744D02*
X77388Y132807D01*
X77346Y132867D01*
X77301Y132926D01*
X77253Y132982D01*
X77202Y133035D01*
X77149Y133086D01*
X77094Y133135D01*
X77036Y133180D01*
X76976Y133223D01*
X76914Y133263D01*
X76850Y133299D01*
X76784Y133333D01*
X76716Y133363D01*
X76648Y133390D01*
X76578Y133413D01*
X76507Y133433D01*
X76435Y133449D01*
X76362Y133462D01*
X76289Y133471D01*
X76216Y133476D01*
X76142Y133478D01*
X77426Y132743D02*
X78526Y130725D01*
X74674Y137148D02*
X74674Y140083D01*
X74674Y137148D02*
X81278Y137148D01*
X81278Y140083D01*
X78343Y139349D02*
X78343Y137148D01*
X81278Y143487D02*
X74674Y143487D01*
X74674Y146422D01*
X77976Y149559D02*
X78121Y149561D01*
X78266Y149567D01*
X78411Y149576D01*
X78556Y149590D01*
X78700Y149607D01*
X78843Y149629D01*
X78987Y149654D01*
X79129Y149683D01*
X79270Y149715D01*
X79411Y149752D01*
X79550Y149792D01*
X79689Y149836D01*
X79826Y149883D01*
X79962Y149934D01*
X80096Y149989D01*
X80229Y150047D01*
X80361Y150109D01*
X80430Y150135D01*
X80497Y150164D01*
X80563Y150197D01*
X80626Y150233D01*
X80688Y150273D01*
X80747Y150316D01*
X80804Y150362D01*
X80858Y150411D01*
X80910Y150463D01*
X80959Y150518D01*
X81004Y150575D01*
X81047Y150635D01*
X81086Y150697D01*
X81122Y150760D01*
X81155Y150826D01*
X81183Y150893D01*
X81209Y150962D01*
X81230Y151032D01*
X81248Y151103D01*
X81261Y151175D01*
X81271Y151248D01*
X81277Y151321D01*
X81279Y151394D01*
X81278Y151394D02*
X81276Y151467D01*
X81270Y151540D01*
X81260Y151613D01*
X81247Y151685D01*
X81229Y151756D01*
X81208Y151826D01*
X81182Y151894D01*
X81154Y151962D01*
X81121Y152027D01*
X81085Y152091D01*
X81046Y152153D01*
X81004Y152212D01*
X80958Y152269D01*
X80909Y152324D01*
X80858Y152376D01*
X80803Y152425D01*
X80746Y152471D01*
X80687Y152514D01*
X80626Y152554D01*
X80562Y152590D01*
X80497Y152623D01*
X80430Y152652D01*
X80361Y152678D01*
X80229Y152740D01*
X80096Y152798D01*
X79962Y152853D01*
X79826Y152904D01*
X79689Y152951D01*
X79550Y152995D01*
X79411Y153035D01*
X79270Y153072D01*
X79129Y153104D01*
X78987Y153133D01*
X78844Y153158D01*
X78700Y153180D01*
X78556Y153197D01*
X78411Y153211D01*
X78266Y153220D01*
X78121Y153226D01*
X77976Y153228D01*
X77976Y149560D02*
X77831Y149562D01*
X77686Y149568D01*
X77541Y149577D01*
X77396Y149591D01*
X77252Y149608D01*
X77109Y149630D01*
X76966Y149655D01*
X76823Y149683D01*
X76682Y149716D01*
X76541Y149753D01*
X76402Y149793D01*
X76263Y149837D01*
X76126Y149884D01*
X75990Y149935D01*
X75856Y149990D01*
X75723Y150048D01*
X75591Y150110D01*
X75592Y150109D02*
X75523Y150135D01*
X75456Y150164D01*
X75390Y150197D01*
X75327Y150233D01*
X75265Y150273D01*
X75206Y150316D01*
X75149Y150362D01*
X75095Y150411D01*
X75043Y150463D01*
X74994Y150518D01*
X74949Y150575D01*
X74906Y150635D01*
X74867Y150697D01*
X74831Y150760D01*
X74798Y150826D01*
X74770Y150893D01*
X74744Y150962D01*
X74723Y151032D01*
X74705Y151103D01*
X74692Y151175D01*
X74682Y151248D01*
X74676Y151321D01*
X74674Y151394D01*
X75591Y152678D02*
X75723Y152740D01*
X75856Y152798D01*
X75990Y152853D01*
X76126Y152904D01*
X76263Y152951D01*
X76402Y152995D01*
X76541Y153035D01*
X76682Y153072D01*
X76823Y153104D01*
X76965Y153133D01*
X77108Y153158D01*
X77252Y153180D01*
X77396Y153197D01*
X77541Y153211D01*
X77686Y153220D01*
X77831Y153226D01*
X77976Y153228D01*
X75591Y152678D02*
X75522Y152652D01*
X75455Y152623D01*
X75390Y152590D01*
X75326Y152554D01*
X75265Y152514D01*
X75206Y152471D01*
X75149Y152425D01*
X75094Y152376D01*
X75043Y152324D01*
X74994Y152269D01*
X74948Y152212D01*
X74906Y152153D01*
X74867Y152091D01*
X74831Y152027D01*
X74798Y151962D01*
X74770Y151894D01*
X74744Y151826D01*
X74723Y151756D01*
X74705Y151684D01*
X74692Y151613D01*
X74682Y151540D01*
X74676Y151467D01*
X74674Y151394D01*
X76142Y149926D02*
X79810Y152861D01*
X68578Y130296D02*
X61974Y130296D01*
X68578Y130296D02*
X68578Y132130D01*
X68576Y132215D01*
X68570Y132299D01*
X68560Y132383D01*
X68547Y132467D01*
X68529Y132550D01*
X68508Y132632D01*
X68483Y132713D01*
X68454Y132793D01*
X68422Y132871D01*
X68386Y132947D01*
X68346Y133022D01*
X68303Y133095D01*
X68257Y133166D01*
X68208Y133235D01*
X68155Y133302D01*
X68099Y133366D01*
X68041Y133427D01*
X67980Y133485D01*
X67916Y133541D01*
X67849Y133594D01*
X67780Y133643D01*
X67709Y133689D01*
X67636Y133732D01*
X67561Y133772D01*
X67485Y133808D01*
X67407Y133840D01*
X67327Y133869D01*
X67246Y133894D01*
X67164Y133915D01*
X67081Y133933D01*
X66997Y133946D01*
X66913Y133956D01*
X66829Y133962D01*
X66744Y133964D01*
X66744Y133965D02*
X63808Y133965D01*
X63808Y133964D02*
X63723Y133962D01*
X63639Y133956D01*
X63555Y133946D01*
X63471Y133933D01*
X63388Y133915D01*
X63306Y133894D01*
X63225Y133869D01*
X63145Y133840D01*
X63067Y133808D01*
X62991Y133772D01*
X62916Y133732D01*
X62843Y133689D01*
X62772Y133643D01*
X62703Y133594D01*
X62636Y133541D01*
X62572Y133485D01*
X62511Y133427D01*
X62453Y133366D01*
X62397Y133302D01*
X62344Y133235D01*
X62295Y133166D01*
X62249Y133095D01*
X62206Y133022D01*
X62166Y132947D01*
X62130Y132871D01*
X62098Y132793D01*
X62069Y132713D01*
X62044Y132632D01*
X62023Y132550D01*
X62005Y132467D01*
X61992Y132383D01*
X61982Y132299D01*
X61976Y132215D01*
X61974Y132130D01*
X61974Y130296D01*
X61974Y138226D02*
X68578Y138226D01*
X61974Y137492D02*
X61974Y138960D01*
X68578Y138960D02*
X68578Y137492D01*
X66744Y142244D02*
X63808Y142244D01*
X66744Y142244D02*
X66829Y142246D01*
X66913Y142252D01*
X66997Y142262D01*
X67081Y142275D01*
X67164Y142293D01*
X67246Y142314D01*
X67327Y142339D01*
X67407Y142368D01*
X67485Y142400D01*
X67561Y142436D01*
X67636Y142476D01*
X67709Y142519D01*
X67780Y142565D01*
X67849Y142614D01*
X67916Y142667D01*
X67980Y142723D01*
X68041Y142781D01*
X68099Y142842D01*
X68155Y142906D01*
X68208Y142973D01*
X68257Y143042D01*
X68303Y143113D01*
X68346Y143186D01*
X68386Y143261D01*
X68422Y143337D01*
X68454Y143415D01*
X68483Y143495D01*
X68508Y143576D01*
X68529Y143658D01*
X68547Y143741D01*
X68560Y143825D01*
X68570Y143909D01*
X68576Y143993D01*
X68578Y144078D01*
X68576Y144163D01*
X68570Y144247D01*
X68560Y144331D01*
X68547Y144415D01*
X68529Y144498D01*
X68508Y144580D01*
X68483Y144661D01*
X68454Y144741D01*
X68422Y144819D01*
X68386Y144895D01*
X68346Y144970D01*
X68303Y145043D01*
X68257Y145114D01*
X68208Y145183D01*
X68155Y145250D01*
X68099Y145314D01*
X68041Y145375D01*
X67980Y145433D01*
X67916Y145489D01*
X67849Y145542D01*
X67780Y145591D01*
X67709Y145637D01*
X67636Y145680D01*
X67561Y145720D01*
X67485Y145756D01*
X67407Y145788D01*
X67327Y145817D01*
X67246Y145842D01*
X67164Y145863D01*
X67081Y145881D01*
X66997Y145894D01*
X66913Y145904D01*
X66829Y145910D01*
X66744Y145912D01*
X66744Y145913D02*
X63808Y145913D01*
X63808Y145912D02*
X63723Y145910D01*
X63639Y145904D01*
X63555Y145894D01*
X63471Y145881D01*
X63388Y145863D01*
X63306Y145842D01*
X63225Y145817D01*
X63145Y145788D01*
X63067Y145756D01*
X62991Y145720D01*
X62916Y145680D01*
X62843Y145637D01*
X62772Y145591D01*
X62703Y145542D01*
X62636Y145489D01*
X62572Y145433D01*
X62511Y145375D01*
X62453Y145314D01*
X62397Y145250D01*
X62344Y145183D01*
X62295Y145114D01*
X62249Y145043D01*
X62206Y144970D01*
X62166Y144895D01*
X62130Y144819D01*
X62098Y144741D01*
X62069Y144661D01*
X62044Y144580D01*
X62023Y144498D01*
X62005Y144415D01*
X61992Y144331D01*
X61982Y144247D01*
X61976Y144163D01*
X61974Y144078D01*
X61976Y143993D01*
X61982Y143909D01*
X61992Y143825D01*
X62005Y143741D01*
X62023Y143658D01*
X62044Y143576D01*
X62069Y143495D01*
X62098Y143415D01*
X62130Y143337D01*
X62166Y143261D01*
X62206Y143186D01*
X62249Y143113D01*
X62295Y143042D01*
X62344Y142973D01*
X62397Y142906D01*
X62453Y142842D01*
X62511Y142781D01*
X62572Y142723D01*
X62636Y142667D01*
X62703Y142614D01*
X62772Y142565D01*
X62843Y142519D01*
X62916Y142476D01*
X62991Y142436D01*
X63067Y142400D01*
X63145Y142368D01*
X63225Y142339D01*
X63306Y142314D01*
X63388Y142293D01*
X63471Y142275D01*
X63555Y142262D01*
X63639Y142252D01*
X63723Y142246D01*
X63808Y142244D01*
X65276Y149559D02*
X65421Y149561D01*
X65566Y149567D01*
X65711Y149576D01*
X65856Y149590D01*
X66000Y149607D01*
X66143Y149629D01*
X66287Y149654D01*
X66429Y149683D01*
X66570Y149715D01*
X66711Y149752D01*
X66850Y149792D01*
X66989Y149836D01*
X67126Y149883D01*
X67262Y149934D01*
X67396Y149989D01*
X67529Y150047D01*
X67661Y150109D01*
X67730Y150135D01*
X67797Y150164D01*
X67863Y150197D01*
X67926Y150233D01*
X67988Y150273D01*
X68047Y150316D01*
X68104Y150362D01*
X68158Y150411D01*
X68210Y150463D01*
X68259Y150518D01*
X68304Y150575D01*
X68347Y150635D01*
X68386Y150697D01*
X68422Y150760D01*
X68455Y150826D01*
X68483Y150893D01*
X68509Y150962D01*
X68530Y151032D01*
X68548Y151103D01*
X68561Y151175D01*
X68571Y151248D01*
X68577Y151321D01*
X68579Y151394D01*
X68578Y151394D02*
X68576Y151467D01*
X68570Y151540D01*
X68560Y151613D01*
X68547Y151685D01*
X68529Y151756D01*
X68508Y151826D01*
X68482Y151894D01*
X68454Y151962D01*
X68421Y152027D01*
X68385Y152091D01*
X68346Y152153D01*
X68304Y152212D01*
X68258Y152269D01*
X68209Y152324D01*
X68158Y152376D01*
X68103Y152425D01*
X68046Y152471D01*
X67987Y152514D01*
X67926Y152554D01*
X67862Y152590D01*
X67797Y152623D01*
X67730Y152652D01*
X67661Y152678D01*
X67529Y152740D01*
X67396Y152798D01*
X67262Y152853D01*
X67126Y152904D01*
X66989Y152951D01*
X66850Y152995D01*
X66711Y153035D01*
X66570Y153072D01*
X66429Y153104D01*
X66287Y153133D01*
X66144Y153158D01*
X66000Y153180D01*
X65856Y153197D01*
X65711Y153211D01*
X65566Y153220D01*
X65421Y153226D01*
X65276Y153228D01*
X65276Y149560D02*
X65131Y149562D01*
X64986Y149568D01*
X64841Y149577D01*
X64696Y149591D01*
X64552Y149608D01*
X64409Y149630D01*
X64266Y149655D01*
X64123Y149683D01*
X63982Y149716D01*
X63841Y149753D01*
X63702Y149793D01*
X63563Y149837D01*
X63426Y149884D01*
X63290Y149935D01*
X63156Y149990D01*
X63023Y150048D01*
X62891Y150110D01*
X62892Y150109D02*
X62823Y150135D01*
X62756Y150164D01*
X62690Y150197D01*
X62627Y150233D01*
X62565Y150273D01*
X62506Y150316D01*
X62449Y150362D01*
X62395Y150411D01*
X62343Y150463D01*
X62294Y150518D01*
X62249Y150575D01*
X62206Y150635D01*
X62167Y150697D01*
X62131Y150760D01*
X62098Y150826D01*
X62070Y150893D01*
X62044Y150962D01*
X62023Y151032D01*
X62005Y151103D01*
X61992Y151175D01*
X61982Y151248D01*
X61976Y151321D01*
X61974Y151394D01*
X62891Y152678D02*
X63023Y152740D01*
X63156Y152798D01*
X63290Y152853D01*
X63426Y152904D01*
X63563Y152951D01*
X63702Y152995D01*
X63841Y153035D01*
X63982Y153072D01*
X64123Y153104D01*
X64265Y153133D01*
X64408Y153158D01*
X64552Y153180D01*
X64696Y153197D01*
X64841Y153211D01*
X64986Y153220D01*
X65131Y153226D01*
X65276Y153228D01*
X62891Y152678D02*
X62822Y152652D01*
X62755Y152623D01*
X62690Y152590D01*
X62626Y152554D01*
X62565Y152514D01*
X62506Y152471D01*
X62449Y152425D01*
X62394Y152376D01*
X62343Y152324D01*
X62294Y152269D01*
X62248Y152212D01*
X62206Y152153D01*
X62167Y152091D01*
X62131Y152027D01*
X62098Y151962D01*
X62070Y151894D01*
X62044Y151826D01*
X62023Y151756D01*
X62005Y151684D01*
X61992Y151613D01*
X61982Y151540D01*
X61976Y151467D01*
X61974Y151394D01*
X63442Y149926D02*
X67110Y152861D01*
X55878Y130296D02*
X49274Y130296D01*
X55878Y130296D02*
X55878Y132130D01*
X55876Y132215D01*
X55870Y132299D01*
X55860Y132383D01*
X55847Y132467D01*
X55829Y132550D01*
X55808Y132632D01*
X55783Y132713D01*
X55754Y132793D01*
X55722Y132871D01*
X55686Y132947D01*
X55646Y133022D01*
X55603Y133095D01*
X55557Y133166D01*
X55508Y133235D01*
X55455Y133302D01*
X55399Y133366D01*
X55341Y133427D01*
X55280Y133485D01*
X55216Y133541D01*
X55149Y133594D01*
X55080Y133643D01*
X55009Y133689D01*
X54936Y133732D01*
X54861Y133772D01*
X54785Y133808D01*
X54707Y133840D01*
X54627Y133869D01*
X54546Y133894D01*
X54464Y133915D01*
X54381Y133933D01*
X54297Y133946D01*
X54213Y133956D01*
X54129Y133962D01*
X54044Y133964D01*
X54044Y133965D02*
X51108Y133965D01*
X51108Y133964D02*
X51023Y133962D01*
X50939Y133956D01*
X50855Y133946D01*
X50771Y133933D01*
X50688Y133915D01*
X50606Y133894D01*
X50525Y133869D01*
X50445Y133840D01*
X50367Y133808D01*
X50291Y133772D01*
X50216Y133732D01*
X50143Y133689D01*
X50072Y133643D01*
X50003Y133594D01*
X49936Y133541D01*
X49872Y133485D01*
X49811Y133427D01*
X49753Y133366D01*
X49697Y133302D01*
X49644Y133235D01*
X49595Y133166D01*
X49549Y133095D01*
X49506Y133022D01*
X49466Y132947D01*
X49430Y132871D01*
X49398Y132793D01*
X49369Y132713D01*
X49344Y132632D01*
X49323Y132550D01*
X49305Y132467D01*
X49292Y132383D01*
X49282Y132299D01*
X49276Y132215D01*
X49274Y132130D01*
X49274Y130296D01*
X49274Y138226D02*
X55878Y138226D01*
X49274Y137492D02*
X49274Y138960D01*
X55878Y138960D02*
X55878Y137492D01*
X54044Y142244D02*
X51108Y142244D01*
X54044Y142244D02*
X54129Y142246D01*
X54213Y142252D01*
X54297Y142262D01*
X54381Y142275D01*
X54464Y142293D01*
X54546Y142314D01*
X54627Y142339D01*
X54707Y142368D01*
X54785Y142400D01*
X54861Y142436D01*
X54936Y142476D01*
X55009Y142519D01*
X55080Y142565D01*
X55149Y142614D01*
X55216Y142667D01*
X55280Y142723D01*
X55341Y142781D01*
X55399Y142842D01*
X55455Y142906D01*
X55508Y142973D01*
X55557Y143042D01*
X55603Y143113D01*
X55646Y143186D01*
X55686Y143261D01*
X55722Y143337D01*
X55754Y143415D01*
X55783Y143495D01*
X55808Y143576D01*
X55829Y143658D01*
X55847Y143741D01*
X55860Y143825D01*
X55870Y143909D01*
X55876Y143993D01*
X55878Y144078D01*
X55876Y144163D01*
X55870Y144247D01*
X55860Y144331D01*
X55847Y144415D01*
X55829Y144498D01*
X55808Y144580D01*
X55783Y144661D01*
X55754Y144741D01*
X55722Y144819D01*
X55686Y144895D01*
X55646Y144970D01*
X55603Y145043D01*
X55557Y145114D01*
X55508Y145183D01*
X55455Y145250D01*
X55399Y145314D01*
X55341Y145375D01*
X55280Y145433D01*
X55216Y145489D01*
X55149Y145542D01*
X55080Y145591D01*
X55009Y145637D01*
X54936Y145680D01*
X54861Y145720D01*
X54785Y145756D01*
X54707Y145788D01*
X54627Y145817D01*
X54546Y145842D01*
X54464Y145863D01*
X54381Y145881D01*
X54297Y145894D01*
X54213Y145904D01*
X54129Y145910D01*
X54044Y145912D01*
X54044Y145913D02*
X51108Y145913D01*
X51108Y145912D02*
X51023Y145910D01*
X50939Y145904D01*
X50855Y145894D01*
X50771Y145881D01*
X50688Y145863D01*
X50606Y145842D01*
X50525Y145817D01*
X50445Y145788D01*
X50367Y145756D01*
X50291Y145720D01*
X50216Y145680D01*
X50143Y145637D01*
X50072Y145591D01*
X50003Y145542D01*
X49936Y145489D01*
X49872Y145433D01*
X49811Y145375D01*
X49753Y145314D01*
X49697Y145250D01*
X49644Y145183D01*
X49595Y145114D01*
X49549Y145043D01*
X49506Y144970D01*
X49466Y144895D01*
X49430Y144819D01*
X49398Y144741D01*
X49369Y144661D01*
X49344Y144580D01*
X49323Y144498D01*
X49305Y144415D01*
X49292Y144331D01*
X49282Y144247D01*
X49276Y144163D01*
X49274Y144078D01*
X49276Y143993D01*
X49282Y143909D01*
X49292Y143825D01*
X49305Y143741D01*
X49323Y143658D01*
X49344Y143576D01*
X49369Y143495D01*
X49398Y143415D01*
X49430Y143337D01*
X49466Y143261D01*
X49506Y143186D01*
X49549Y143113D01*
X49595Y143042D01*
X49644Y142973D01*
X49697Y142906D01*
X49753Y142842D01*
X49811Y142781D01*
X49872Y142723D01*
X49936Y142667D01*
X50003Y142614D01*
X50072Y142565D01*
X50143Y142519D01*
X50216Y142476D01*
X50291Y142436D01*
X50367Y142400D01*
X50445Y142368D01*
X50525Y142339D01*
X50606Y142314D01*
X50688Y142293D01*
X50771Y142275D01*
X50855Y142262D01*
X50939Y142252D01*
X51023Y142246D01*
X51108Y142244D01*
X54410Y149559D02*
X55878Y151394D01*
X49274Y151394D01*
X49274Y153228D02*
X49274Y149559D01*
X43178Y130296D02*
X36574Y130296D01*
X43178Y130296D02*
X43178Y132130D01*
X43176Y132215D01*
X43170Y132299D01*
X43160Y132383D01*
X43147Y132467D01*
X43129Y132550D01*
X43108Y132632D01*
X43083Y132713D01*
X43054Y132793D01*
X43022Y132871D01*
X42986Y132947D01*
X42946Y133022D01*
X42903Y133095D01*
X42857Y133166D01*
X42808Y133235D01*
X42755Y133302D01*
X42699Y133366D01*
X42641Y133427D01*
X42580Y133485D01*
X42516Y133541D01*
X42449Y133594D01*
X42380Y133643D01*
X42309Y133689D01*
X42236Y133732D01*
X42161Y133772D01*
X42085Y133808D01*
X42007Y133840D01*
X41927Y133869D01*
X41846Y133894D01*
X41764Y133915D01*
X41681Y133933D01*
X41597Y133946D01*
X41513Y133956D01*
X41429Y133962D01*
X41344Y133964D01*
X41344Y133965D02*
X38408Y133965D01*
X38408Y133964D02*
X38323Y133962D01*
X38239Y133956D01*
X38155Y133946D01*
X38071Y133933D01*
X37988Y133915D01*
X37906Y133894D01*
X37825Y133869D01*
X37745Y133840D01*
X37667Y133808D01*
X37591Y133772D01*
X37516Y133732D01*
X37443Y133689D01*
X37372Y133643D01*
X37303Y133594D01*
X37236Y133541D01*
X37172Y133485D01*
X37111Y133427D01*
X37053Y133366D01*
X36997Y133302D01*
X36944Y133235D01*
X36895Y133166D01*
X36849Y133095D01*
X36806Y133022D01*
X36766Y132947D01*
X36730Y132871D01*
X36698Y132793D01*
X36669Y132713D01*
X36644Y132632D01*
X36623Y132550D01*
X36605Y132467D01*
X36592Y132383D01*
X36582Y132299D01*
X36576Y132215D01*
X36574Y132130D01*
X36574Y130296D01*
X36574Y138226D02*
X43178Y138226D01*
X36574Y137492D02*
X36574Y138960D01*
X43178Y138960D02*
X43178Y137492D01*
X41344Y142244D02*
X38408Y142244D01*
X41344Y142244D02*
X41429Y142246D01*
X41513Y142252D01*
X41597Y142262D01*
X41681Y142275D01*
X41764Y142293D01*
X41846Y142314D01*
X41927Y142339D01*
X42007Y142368D01*
X42085Y142400D01*
X42161Y142436D01*
X42236Y142476D01*
X42309Y142519D01*
X42380Y142565D01*
X42449Y142614D01*
X42516Y142667D01*
X42580Y142723D01*
X42641Y142781D01*
X42699Y142842D01*
X42755Y142906D01*
X42808Y142973D01*
X42857Y143042D01*
X42903Y143113D01*
X42946Y143186D01*
X42986Y143261D01*
X43022Y143337D01*
X43054Y143415D01*
X43083Y143495D01*
X43108Y143576D01*
X43129Y143658D01*
X43147Y143741D01*
X43160Y143825D01*
X43170Y143909D01*
X43176Y143993D01*
X43178Y144078D01*
X43176Y144163D01*
X43170Y144247D01*
X43160Y144331D01*
X43147Y144415D01*
X43129Y144498D01*
X43108Y144580D01*
X43083Y144661D01*
X43054Y144741D01*
X43022Y144819D01*
X42986Y144895D01*
X42946Y144970D01*
X42903Y145043D01*
X42857Y145114D01*
X42808Y145183D01*
X42755Y145250D01*
X42699Y145314D01*
X42641Y145375D01*
X42580Y145433D01*
X42516Y145489D01*
X42449Y145542D01*
X42380Y145591D01*
X42309Y145637D01*
X42236Y145680D01*
X42161Y145720D01*
X42085Y145756D01*
X42007Y145788D01*
X41927Y145817D01*
X41846Y145842D01*
X41764Y145863D01*
X41681Y145881D01*
X41597Y145894D01*
X41513Y145904D01*
X41429Y145910D01*
X41344Y145912D01*
X41344Y145913D02*
X38408Y145913D01*
X38408Y145912D02*
X38323Y145910D01*
X38239Y145904D01*
X38155Y145894D01*
X38071Y145881D01*
X37988Y145863D01*
X37906Y145842D01*
X37825Y145817D01*
X37745Y145788D01*
X37667Y145756D01*
X37591Y145720D01*
X37516Y145680D01*
X37443Y145637D01*
X37372Y145591D01*
X37303Y145542D01*
X37236Y145489D01*
X37172Y145433D01*
X37111Y145375D01*
X37053Y145314D01*
X36997Y145250D01*
X36944Y145183D01*
X36895Y145114D01*
X36849Y145043D01*
X36806Y144970D01*
X36766Y144895D01*
X36730Y144819D01*
X36698Y144741D01*
X36669Y144661D01*
X36644Y144580D01*
X36623Y144498D01*
X36605Y144415D01*
X36592Y144331D01*
X36582Y144247D01*
X36576Y144163D01*
X36574Y144078D01*
X36576Y143993D01*
X36582Y143909D01*
X36592Y143825D01*
X36605Y143741D01*
X36623Y143658D01*
X36644Y143576D01*
X36669Y143495D01*
X36698Y143415D01*
X36730Y143337D01*
X36766Y143261D01*
X36806Y143186D01*
X36849Y143113D01*
X36895Y143042D01*
X36944Y142973D01*
X36997Y142906D01*
X37053Y142842D01*
X37111Y142781D01*
X37172Y142723D01*
X37236Y142667D01*
X37303Y142614D01*
X37372Y142565D01*
X37443Y142519D01*
X37516Y142476D01*
X37591Y142436D01*
X37667Y142400D01*
X37745Y142368D01*
X37825Y142339D01*
X37906Y142314D01*
X37988Y142293D01*
X38071Y142275D01*
X38155Y142262D01*
X38239Y142252D01*
X38323Y142246D01*
X38408Y142244D01*
X43178Y151577D02*
X43176Y151656D01*
X43171Y151734D01*
X43161Y151812D01*
X43148Y151889D01*
X43131Y151966D01*
X43111Y152042D01*
X43087Y152117D01*
X43060Y152191D01*
X43029Y152263D01*
X42994Y152334D01*
X42957Y152403D01*
X42916Y152470D01*
X42872Y152535D01*
X42825Y152598D01*
X42775Y152658D01*
X42722Y152716D01*
X42666Y152772D01*
X42608Y152825D01*
X42548Y152875D01*
X42485Y152922D01*
X42420Y152966D01*
X42353Y153007D01*
X42284Y153044D01*
X42213Y153079D01*
X42141Y153110D01*
X42067Y153137D01*
X41992Y153161D01*
X41916Y153181D01*
X41839Y153198D01*
X41762Y153211D01*
X41684Y153221D01*
X41606Y153226D01*
X41527Y153228D01*
X43178Y151577D02*
X43176Y151488D01*
X43171Y151399D01*
X43161Y151311D01*
X43148Y151223D01*
X43132Y151136D01*
X43111Y151049D01*
X43087Y150964D01*
X43060Y150879D01*
X43029Y150796D01*
X42994Y150714D01*
X42956Y150633D01*
X42915Y150554D01*
X42871Y150478D01*
X42823Y150402D01*
X42772Y150329D01*
X42719Y150259D01*
X42662Y150190D01*
X42602Y150124D01*
X42540Y150061D01*
X42475Y150000D01*
X42408Y149942D01*
X42338Y149887D01*
X42266Y149834D01*
X42192Y149785D01*
X42116Y149739D01*
X42038Y149697D01*
X41958Y149657D01*
X41877Y149621D01*
X41794Y149588D01*
X41710Y149559D01*
X40243Y152678D02*
X40299Y152734D01*
X40358Y152788D01*
X40419Y152839D01*
X40483Y152888D01*
X40548Y152933D01*
X40616Y152976D01*
X40685Y153015D01*
X40756Y153052D01*
X40829Y153085D01*
X40903Y153114D01*
X40978Y153141D01*
X41054Y153164D01*
X41132Y153183D01*
X41210Y153199D01*
X41288Y153212D01*
X41368Y153221D01*
X41447Y153226D01*
X41527Y153228D01*
X40243Y152678D02*
X36574Y149559D01*
X36574Y153228D01*
X30478Y130296D02*
X23874Y130296D01*
X30478Y130296D02*
X30478Y132130D01*
X30476Y132215D01*
X30470Y132299D01*
X30460Y132383D01*
X30447Y132467D01*
X30429Y132550D01*
X30408Y132632D01*
X30383Y132713D01*
X30354Y132793D01*
X30322Y132871D01*
X30286Y132947D01*
X30246Y133022D01*
X30203Y133095D01*
X30157Y133166D01*
X30108Y133235D01*
X30055Y133302D01*
X29999Y133366D01*
X29941Y133427D01*
X29880Y133485D01*
X29816Y133541D01*
X29749Y133594D01*
X29680Y133643D01*
X29609Y133689D01*
X29536Y133732D01*
X29461Y133772D01*
X29385Y133808D01*
X29307Y133840D01*
X29227Y133869D01*
X29146Y133894D01*
X29064Y133915D01*
X28981Y133933D01*
X28897Y133946D01*
X28813Y133956D01*
X28729Y133962D01*
X28644Y133964D01*
X28644Y133965D02*
X25708Y133965D01*
X25708Y133964D02*
X25623Y133962D01*
X25539Y133956D01*
X25455Y133946D01*
X25371Y133933D01*
X25288Y133915D01*
X25206Y133894D01*
X25125Y133869D01*
X25045Y133840D01*
X24967Y133808D01*
X24891Y133772D01*
X24816Y133732D01*
X24743Y133689D01*
X24672Y133643D01*
X24603Y133594D01*
X24536Y133541D01*
X24472Y133485D01*
X24411Y133427D01*
X24353Y133366D01*
X24297Y133302D01*
X24244Y133235D01*
X24195Y133166D01*
X24149Y133095D01*
X24106Y133022D01*
X24066Y132947D01*
X24030Y132871D01*
X23998Y132793D01*
X23969Y132713D01*
X23944Y132632D01*
X23923Y132550D01*
X23905Y132467D01*
X23892Y132383D01*
X23882Y132299D01*
X23876Y132215D01*
X23874Y132130D01*
X23874Y130296D01*
X23874Y138226D02*
X30478Y138226D01*
X23874Y137492D02*
X23874Y138960D01*
X30478Y138960D02*
X30478Y137492D01*
X28644Y142244D02*
X25708Y142244D01*
X28644Y142244D02*
X28729Y142246D01*
X28813Y142252D01*
X28897Y142262D01*
X28981Y142275D01*
X29064Y142293D01*
X29146Y142314D01*
X29227Y142339D01*
X29307Y142368D01*
X29385Y142400D01*
X29461Y142436D01*
X29536Y142476D01*
X29609Y142519D01*
X29680Y142565D01*
X29749Y142614D01*
X29816Y142667D01*
X29880Y142723D01*
X29941Y142781D01*
X29999Y142842D01*
X30055Y142906D01*
X30108Y142973D01*
X30157Y143042D01*
X30203Y143113D01*
X30246Y143186D01*
X30286Y143261D01*
X30322Y143337D01*
X30354Y143415D01*
X30383Y143495D01*
X30408Y143576D01*
X30429Y143658D01*
X30447Y143741D01*
X30460Y143825D01*
X30470Y143909D01*
X30476Y143993D01*
X30478Y144078D01*
X30476Y144163D01*
X30470Y144247D01*
X30460Y144331D01*
X30447Y144415D01*
X30429Y144498D01*
X30408Y144580D01*
X30383Y144661D01*
X30354Y144741D01*
X30322Y144819D01*
X30286Y144895D01*
X30246Y144970D01*
X30203Y145043D01*
X30157Y145114D01*
X30108Y145183D01*
X30055Y145250D01*
X29999Y145314D01*
X29941Y145375D01*
X29880Y145433D01*
X29816Y145489D01*
X29749Y145542D01*
X29680Y145591D01*
X29609Y145637D01*
X29536Y145680D01*
X29461Y145720D01*
X29385Y145756D01*
X29307Y145788D01*
X29227Y145817D01*
X29146Y145842D01*
X29064Y145863D01*
X28981Y145881D01*
X28897Y145894D01*
X28813Y145904D01*
X28729Y145910D01*
X28644Y145912D01*
X28644Y145913D02*
X25708Y145913D01*
X25708Y145912D02*
X25623Y145910D01*
X25539Y145904D01*
X25455Y145894D01*
X25371Y145881D01*
X25288Y145863D01*
X25206Y145842D01*
X25125Y145817D01*
X25045Y145788D01*
X24967Y145756D01*
X24891Y145720D01*
X24816Y145680D01*
X24743Y145637D01*
X24672Y145591D01*
X24603Y145542D01*
X24536Y145489D01*
X24472Y145433D01*
X24411Y145375D01*
X24353Y145314D01*
X24297Y145250D01*
X24244Y145183D01*
X24195Y145114D01*
X24149Y145043D01*
X24106Y144970D01*
X24066Y144895D01*
X24030Y144819D01*
X23998Y144741D01*
X23969Y144661D01*
X23944Y144580D01*
X23923Y144498D01*
X23905Y144415D01*
X23892Y144331D01*
X23882Y144247D01*
X23876Y144163D01*
X23874Y144078D01*
X23876Y143993D01*
X23882Y143909D01*
X23892Y143825D01*
X23905Y143741D01*
X23923Y143658D01*
X23944Y143576D01*
X23969Y143495D01*
X23998Y143415D01*
X24030Y143337D01*
X24066Y143261D01*
X24106Y143186D01*
X24149Y143113D01*
X24195Y143042D01*
X24244Y142973D01*
X24297Y142906D01*
X24353Y142842D01*
X24411Y142781D01*
X24472Y142723D01*
X24536Y142667D01*
X24603Y142614D01*
X24672Y142565D01*
X24743Y142519D01*
X24816Y142476D01*
X24891Y142436D01*
X24967Y142400D01*
X25045Y142368D01*
X25125Y142339D01*
X25206Y142314D01*
X25288Y142293D01*
X25371Y142275D01*
X25455Y142262D01*
X25539Y142252D01*
X25623Y142246D01*
X25708Y142244D01*
X23874Y149559D02*
X23874Y151394D01*
X23876Y151479D01*
X23882Y151563D01*
X23892Y151647D01*
X23905Y151731D01*
X23923Y151814D01*
X23944Y151896D01*
X23969Y151977D01*
X23998Y152057D01*
X24030Y152135D01*
X24066Y152211D01*
X24106Y152286D01*
X24149Y152359D01*
X24195Y152430D01*
X24244Y152499D01*
X24297Y152566D01*
X24353Y152630D01*
X24411Y152691D01*
X24472Y152749D01*
X24536Y152805D01*
X24603Y152858D01*
X24672Y152907D01*
X24743Y152953D01*
X24816Y152996D01*
X24891Y153036D01*
X24967Y153072D01*
X25045Y153104D01*
X25125Y153133D01*
X25206Y153158D01*
X25288Y153179D01*
X25371Y153197D01*
X25455Y153210D01*
X25539Y153220D01*
X25623Y153226D01*
X25708Y153228D01*
X25793Y153226D01*
X25877Y153220D01*
X25961Y153210D01*
X26045Y153197D01*
X26128Y153179D01*
X26210Y153158D01*
X26291Y153133D01*
X26371Y153104D01*
X26449Y153072D01*
X26525Y153036D01*
X26600Y152996D01*
X26673Y152953D01*
X26744Y152907D01*
X26813Y152858D01*
X26880Y152805D01*
X26944Y152749D01*
X27005Y152691D01*
X27063Y152630D01*
X27119Y152566D01*
X27172Y152499D01*
X27221Y152430D01*
X27267Y152359D01*
X27310Y152286D01*
X27350Y152211D01*
X27386Y152135D01*
X27418Y152057D01*
X27447Y151977D01*
X27472Y151896D01*
X27493Y151814D01*
X27511Y151731D01*
X27524Y151647D01*
X27534Y151563D01*
X27540Y151479D01*
X27542Y151394D01*
X30478Y151760D02*
X30478Y149559D01*
X30478Y151760D02*
X30476Y151836D01*
X30470Y151911D01*
X30461Y151986D01*
X30447Y152060D01*
X30430Y152134D01*
X30408Y152206D01*
X30384Y152278D01*
X30355Y152348D01*
X30323Y152416D01*
X30288Y152483D01*
X30249Y152548D01*
X30206Y152611D01*
X30161Y152671D01*
X30113Y152729D01*
X30061Y152785D01*
X30007Y152837D01*
X29950Y152887D01*
X29891Y152934D01*
X29830Y152978D01*
X29766Y153019D01*
X29700Y153056D01*
X29632Y153090D01*
X29563Y153120D01*
X29492Y153147D01*
X29420Y153170D01*
X29347Y153189D01*
X29273Y153204D01*
X29198Y153216D01*
X29123Y153224D01*
X29048Y153228D01*
X28972Y153228D01*
X28897Y153224D01*
X28822Y153216D01*
X28747Y153204D01*
X28673Y153189D01*
X28600Y153170D01*
X28528Y153147D01*
X28457Y153120D01*
X28388Y153090D01*
X28320Y153056D01*
X28254Y153019D01*
X28190Y152978D01*
X28129Y152934D01*
X28070Y152887D01*
X28013Y152837D01*
X27959Y152785D01*
X27907Y152729D01*
X27859Y152671D01*
X27814Y152611D01*
X27771Y152548D01*
X27732Y152483D01*
X27697Y152416D01*
X27665Y152348D01*
X27636Y152278D01*
X27612Y152206D01*
X27590Y152134D01*
X27573Y152060D01*
X27559Y151986D01*
X27550Y151911D01*
X27544Y151836D01*
X27542Y151760D01*
X27543Y151760D02*
X27543Y150293D01*
X125982Y9972D02*
X132586Y12173D01*
X125982Y14375D01*
X127633Y13824D02*
X127633Y10522D01*
X125982Y17898D02*
X132586Y17898D01*
X132586Y19732D01*
X132584Y19817D01*
X132578Y19901D01*
X132568Y19985D01*
X132555Y20069D01*
X132537Y20152D01*
X132516Y20234D01*
X132491Y20315D01*
X132462Y20395D01*
X132430Y20473D01*
X132394Y20549D01*
X132354Y20624D01*
X132311Y20697D01*
X132265Y20768D01*
X132216Y20837D01*
X132163Y20904D01*
X132107Y20968D01*
X132049Y21029D01*
X131988Y21087D01*
X131924Y21143D01*
X131857Y21196D01*
X131788Y21245D01*
X131717Y21291D01*
X131644Y21334D01*
X131569Y21374D01*
X131493Y21410D01*
X131415Y21442D01*
X131335Y21471D01*
X131254Y21496D01*
X131172Y21517D01*
X131089Y21535D01*
X131005Y21548D01*
X130921Y21558D01*
X130837Y21564D01*
X130752Y21566D01*
X130752Y21567D02*
X127816Y21567D01*
X127816Y21566D02*
X127731Y21564D01*
X127647Y21558D01*
X127563Y21548D01*
X127479Y21535D01*
X127396Y21517D01*
X127314Y21496D01*
X127233Y21471D01*
X127153Y21442D01*
X127075Y21410D01*
X126999Y21374D01*
X126924Y21334D01*
X126851Y21291D01*
X126780Y21245D01*
X126711Y21196D01*
X126644Y21143D01*
X126580Y21087D01*
X126519Y21029D01*
X126461Y20968D01*
X126405Y20904D01*
X126352Y20837D01*
X126303Y20768D01*
X126257Y20697D01*
X126214Y20624D01*
X126174Y20549D01*
X126138Y20473D01*
X126106Y20395D01*
X126077Y20315D01*
X126052Y20234D01*
X126031Y20152D01*
X126013Y20069D01*
X126000Y19985D01*
X125990Y19901D01*
X125984Y19817D01*
X125982Y19732D01*
X125982Y17898D01*
X125982Y26889D02*
X125982Y28357D01*
X125982Y26889D02*
X125984Y26815D01*
X125990Y26740D01*
X125999Y26667D01*
X126012Y26593D01*
X126029Y26521D01*
X126049Y26450D01*
X126073Y26379D01*
X126101Y26310D01*
X126132Y26243D01*
X126166Y26177D01*
X126204Y26112D01*
X126245Y26050D01*
X126289Y25990D01*
X126336Y25933D01*
X126386Y25878D01*
X126439Y25825D01*
X126494Y25775D01*
X126551Y25728D01*
X126611Y25684D01*
X126673Y25643D01*
X126738Y25605D01*
X126804Y25571D01*
X126871Y25540D01*
X126940Y25512D01*
X127011Y25488D01*
X127082Y25468D01*
X127154Y25451D01*
X127228Y25438D01*
X127301Y25429D01*
X127376Y25423D01*
X127450Y25421D01*
X131118Y25421D01*
X131192Y25423D01*
X131267Y25429D01*
X131340Y25438D01*
X131414Y25451D01*
X131486Y25468D01*
X131557Y25488D01*
X131628Y25512D01*
X131697Y25540D01*
X131764Y25571D01*
X131830Y25605D01*
X131895Y25643D01*
X131957Y25684D01*
X132017Y25728D01*
X132074Y25775D01*
X132129Y25825D01*
X132182Y25878D01*
X132232Y25933D01*
X132279Y25990D01*
X132323Y26050D01*
X132364Y26112D01*
X132402Y26177D01*
X132436Y26242D01*
X132467Y26310D01*
X132495Y26379D01*
X132519Y26450D01*
X132539Y26521D01*
X132556Y26593D01*
X132569Y26667D01*
X132578Y26740D01*
X132584Y26815D01*
X132586Y26889D01*
X132586Y28357D01*
X132586Y33571D02*
X132584Y33650D01*
X132579Y33728D01*
X132569Y33806D01*
X132556Y33883D01*
X132539Y33960D01*
X132519Y34036D01*
X132495Y34111D01*
X132468Y34185D01*
X132437Y34257D01*
X132402Y34328D01*
X132365Y34397D01*
X132324Y34464D01*
X132280Y34529D01*
X132233Y34592D01*
X132183Y34652D01*
X132130Y34710D01*
X132074Y34766D01*
X132016Y34819D01*
X131956Y34869D01*
X131893Y34916D01*
X131828Y34960D01*
X131761Y35001D01*
X131692Y35038D01*
X131621Y35073D01*
X131549Y35104D01*
X131475Y35131D01*
X131400Y35155D01*
X131324Y35175D01*
X131247Y35192D01*
X131170Y35205D01*
X131092Y35215D01*
X131014Y35220D01*
X130935Y35222D01*
X132586Y33571D02*
X132584Y33482D01*
X132579Y33393D01*
X132569Y33305D01*
X132556Y33217D01*
X132540Y33130D01*
X132519Y33043D01*
X132495Y32958D01*
X132468Y32873D01*
X132437Y32790D01*
X132402Y32708D01*
X132364Y32627D01*
X132323Y32548D01*
X132279Y32472D01*
X132231Y32396D01*
X132180Y32323D01*
X132127Y32253D01*
X132070Y32184D01*
X132010Y32118D01*
X131948Y32055D01*
X131883Y31994D01*
X131816Y31936D01*
X131746Y31881D01*
X131674Y31828D01*
X131600Y31779D01*
X131524Y31733D01*
X131446Y31691D01*
X131366Y31651D01*
X131285Y31615D01*
X131202Y31582D01*
X131118Y31553D01*
X129651Y34671D02*
X129707Y34727D01*
X129766Y34781D01*
X129827Y34832D01*
X129891Y34881D01*
X129956Y34926D01*
X130024Y34969D01*
X130093Y35008D01*
X130164Y35045D01*
X130237Y35078D01*
X130311Y35107D01*
X130386Y35134D01*
X130462Y35157D01*
X130540Y35176D01*
X130618Y35192D01*
X130696Y35205D01*
X130776Y35214D01*
X130855Y35219D01*
X130935Y35221D01*
X129651Y34671D02*
X125982Y31553D01*
X125982Y35222D01*
X119886Y9972D02*
X113282Y9972D01*
X119886Y9972D02*
X119886Y11806D01*
X119884Y11891D01*
X119878Y11975D01*
X119868Y12059D01*
X119855Y12143D01*
X119837Y12226D01*
X119816Y12308D01*
X119791Y12389D01*
X119762Y12469D01*
X119730Y12547D01*
X119694Y12623D01*
X119654Y12698D01*
X119611Y12771D01*
X119565Y12842D01*
X119516Y12911D01*
X119463Y12978D01*
X119407Y13042D01*
X119349Y13103D01*
X119288Y13161D01*
X119224Y13217D01*
X119157Y13270D01*
X119088Y13319D01*
X119017Y13365D01*
X118944Y13408D01*
X118869Y13448D01*
X118793Y13484D01*
X118715Y13516D01*
X118635Y13545D01*
X118554Y13570D01*
X118472Y13591D01*
X118389Y13609D01*
X118305Y13622D01*
X118221Y13632D01*
X118137Y13638D01*
X118052Y13640D01*
X118052Y13641D02*
X115116Y13641D01*
X115116Y13640D02*
X115031Y13638D01*
X114947Y13632D01*
X114863Y13622D01*
X114779Y13609D01*
X114696Y13591D01*
X114614Y13570D01*
X114533Y13545D01*
X114453Y13516D01*
X114375Y13484D01*
X114299Y13448D01*
X114224Y13408D01*
X114151Y13365D01*
X114080Y13319D01*
X114011Y13270D01*
X113944Y13217D01*
X113880Y13161D01*
X113819Y13103D01*
X113761Y13042D01*
X113705Y12978D01*
X113652Y12911D01*
X113603Y12842D01*
X113557Y12771D01*
X113514Y12698D01*
X113474Y12623D01*
X113438Y12547D01*
X113406Y12469D01*
X113377Y12389D01*
X113352Y12308D01*
X113331Y12226D01*
X113313Y12143D01*
X113300Y12059D01*
X113290Y11975D01*
X113284Y11891D01*
X113282Y11806D01*
X113282Y9972D01*
X113282Y17902D02*
X119886Y17902D01*
X113282Y17169D02*
X113282Y18636D01*
X119886Y18636D02*
X119886Y17169D01*
X118052Y21920D02*
X115116Y21920D01*
X118052Y21921D02*
X118137Y21923D01*
X118221Y21929D01*
X118305Y21939D01*
X118389Y21952D01*
X118472Y21970D01*
X118554Y21991D01*
X118635Y22016D01*
X118715Y22045D01*
X118793Y22077D01*
X118869Y22113D01*
X118944Y22153D01*
X119017Y22196D01*
X119088Y22242D01*
X119157Y22291D01*
X119224Y22344D01*
X119288Y22400D01*
X119349Y22458D01*
X119407Y22519D01*
X119463Y22583D01*
X119516Y22650D01*
X119565Y22719D01*
X119611Y22790D01*
X119654Y22863D01*
X119694Y22938D01*
X119730Y23014D01*
X119762Y23092D01*
X119791Y23172D01*
X119816Y23253D01*
X119837Y23335D01*
X119855Y23418D01*
X119868Y23502D01*
X119878Y23586D01*
X119884Y23670D01*
X119886Y23755D01*
X119884Y23840D01*
X119878Y23924D01*
X119868Y24008D01*
X119855Y24092D01*
X119837Y24175D01*
X119816Y24257D01*
X119791Y24338D01*
X119762Y24418D01*
X119730Y24496D01*
X119694Y24572D01*
X119654Y24647D01*
X119611Y24720D01*
X119565Y24791D01*
X119516Y24860D01*
X119463Y24927D01*
X119407Y24991D01*
X119349Y25052D01*
X119288Y25110D01*
X119224Y25166D01*
X119157Y25219D01*
X119088Y25268D01*
X119017Y25314D01*
X118944Y25357D01*
X118869Y25397D01*
X118793Y25433D01*
X118715Y25465D01*
X118635Y25494D01*
X118554Y25519D01*
X118472Y25540D01*
X118389Y25558D01*
X118305Y25571D01*
X118221Y25581D01*
X118137Y25587D01*
X118052Y25589D01*
X115116Y25589D01*
X115031Y25587D01*
X114947Y25581D01*
X114863Y25571D01*
X114779Y25558D01*
X114696Y25540D01*
X114614Y25519D01*
X114533Y25494D01*
X114453Y25465D01*
X114375Y25433D01*
X114299Y25397D01*
X114224Y25357D01*
X114151Y25314D01*
X114080Y25268D01*
X114011Y25219D01*
X113944Y25166D01*
X113880Y25110D01*
X113819Y25052D01*
X113761Y24991D01*
X113705Y24927D01*
X113652Y24860D01*
X113603Y24791D01*
X113557Y24720D01*
X113514Y24647D01*
X113474Y24572D01*
X113438Y24496D01*
X113406Y24418D01*
X113377Y24338D01*
X113352Y24257D01*
X113331Y24175D01*
X113313Y24092D01*
X113300Y24008D01*
X113290Y23924D01*
X113284Y23840D01*
X113282Y23755D01*
X113284Y23670D01*
X113290Y23586D01*
X113300Y23502D01*
X113313Y23418D01*
X113331Y23335D01*
X113352Y23253D01*
X113377Y23172D01*
X113406Y23092D01*
X113438Y23014D01*
X113474Y22938D01*
X113514Y22863D01*
X113557Y22790D01*
X113603Y22719D01*
X113652Y22650D01*
X113705Y22583D01*
X113761Y22519D01*
X113819Y22458D01*
X113880Y22400D01*
X113944Y22344D01*
X114011Y22291D01*
X114080Y22242D01*
X114151Y22196D01*
X114224Y22153D01*
X114299Y22113D01*
X114375Y22077D01*
X114453Y22045D01*
X114533Y22016D01*
X114614Y21991D01*
X114696Y21970D01*
X114779Y21952D01*
X114863Y21939D01*
X114947Y21929D01*
X115031Y21923D01*
X115116Y21921D01*
X118418Y29235D02*
X119886Y31070D01*
X113282Y31070D01*
X113282Y32904D02*
X113282Y29235D01*
X119152Y36551D02*
X119886Y36551D01*
X119886Y40219D01*
X113282Y38385D01*
X107186Y9972D02*
X100582Y9972D01*
X107186Y9972D02*
X107186Y11806D01*
X107184Y11891D01*
X107178Y11975D01*
X107168Y12059D01*
X107155Y12143D01*
X107137Y12226D01*
X107116Y12308D01*
X107091Y12389D01*
X107062Y12469D01*
X107030Y12547D01*
X106994Y12623D01*
X106954Y12698D01*
X106911Y12771D01*
X106865Y12842D01*
X106816Y12911D01*
X106763Y12978D01*
X106707Y13042D01*
X106649Y13103D01*
X106588Y13161D01*
X106524Y13217D01*
X106457Y13270D01*
X106388Y13319D01*
X106317Y13365D01*
X106244Y13408D01*
X106169Y13448D01*
X106093Y13484D01*
X106015Y13516D01*
X105935Y13545D01*
X105854Y13570D01*
X105772Y13591D01*
X105689Y13609D01*
X105605Y13622D01*
X105521Y13632D01*
X105437Y13638D01*
X105352Y13640D01*
X105352Y13641D02*
X102416Y13641D01*
X102416Y13640D02*
X102331Y13638D01*
X102247Y13632D01*
X102163Y13622D01*
X102079Y13609D01*
X101996Y13591D01*
X101914Y13570D01*
X101833Y13545D01*
X101753Y13516D01*
X101675Y13484D01*
X101599Y13448D01*
X101524Y13408D01*
X101451Y13365D01*
X101380Y13319D01*
X101311Y13270D01*
X101244Y13217D01*
X101180Y13161D01*
X101119Y13103D01*
X101061Y13042D01*
X101005Y12978D01*
X100952Y12911D01*
X100903Y12842D01*
X100857Y12771D01*
X100814Y12698D01*
X100774Y12623D01*
X100738Y12547D01*
X100706Y12469D01*
X100677Y12389D01*
X100652Y12308D01*
X100631Y12226D01*
X100613Y12143D01*
X100600Y12059D01*
X100590Y11975D01*
X100584Y11891D01*
X100582Y11806D01*
X100582Y9972D01*
X100582Y17902D02*
X107186Y17902D01*
X100582Y17169D02*
X100582Y18636D01*
X107186Y18636D02*
X107186Y17169D01*
X105352Y21920D02*
X102416Y21920D01*
X105352Y21921D02*
X105437Y21923D01*
X105521Y21929D01*
X105605Y21939D01*
X105689Y21952D01*
X105772Y21970D01*
X105854Y21991D01*
X105935Y22016D01*
X106015Y22045D01*
X106093Y22077D01*
X106169Y22113D01*
X106244Y22153D01*
X106317Y22196D01*
X106388Y22242D01*
X106457Y22291D01*
X106524Y22344D01*
X106588Y22400D01*
X106649Y22458D01*
X106707Y22519D01*
X106763Y22583D01*
X106816Y22650D01*
X106865Y22719D01*
X106911Y22790D01*
X106954Y22863D01*
X106994Y22938D01*
X107030Y23014D01*
X107062Y23092D01*
X107091Y23172D01*
X107116Y23253D01*
X107137Y23335D01*
X107155Y23418D01*
X107168Y23502D01*
X107178Y23586D01*
X107184Y23670D01*
X107186Y23755D01*
X107184Y23840D01*
X107178Y23924D01*
X107168Y24008D01*
X107155Y24092D01*
X107137Y24175D01*
X107116Y24257D01*
X107091Y24338D01*
X107062Y24418D01*
X107030Y24496D01*
X106994Y24572D01*
X106954Y24647D01*
X106911Y24720D01*
X106865Y24791D01*
X106816Y24860D01*
X106763Y24927D01*
X106707Y24991D01*
X106649Y25052D01*
X106588Y25110D01*
X106524Y25166D01*
X106457Y25219D01*
X106388Y25268D01*
X106317Y25314D01*
X106244Y25357D01*
X106169Y25397D01*
X106093Y25433D01*
X106015Y25465D01*
X105935Y25494D01*
X105854Y25519D01*
X105772Y25540D01*
X105689Y25558D01*
X105605Y25571D01*
X105521Y25581D01*
X105437Y25587D01*
X105352Y25589D01*
X102416Y25589D01*
X102331Y25587D01*
X102247Y25581D01*
X102163Y25571D01*
X102079Y25558D01*
X101996Y25540D01*
X101914Y25519D01*
X101833Y25494D01*
X101753Y25465D01*
X101675Y25433D01*
X101599Y25397D01*
X101524Y25357D01*
X101451Y25314D01*
X101380Y25268D01*
X101311Y25219D01*
X101244Y25166D01*
X101180Y25110D01*
X101119Y25052D01*
X101061Y24991D01*
X101005Y24927D01*
X100952Y24860D01*
X100903Y24791D01*
X100857Y24720D01*
X100814Y24647D01*
X100774Y24572D01*
X100738Y24496D01*
X100706Y24418D01*
X100677Y24338D01*
X100652Y24257D01*
X100631Y24175D01*
X100613Y24092D01*
X100600Y24008D01*
X100590Y23924D01*
X100584Y23840D01*
X100582Y23755D01*
X100584Y23670D01*
X100590Y23586D01*
X100600Y23502D01*
X100613Y23418D01*
X100631Y23335D01*
X100652Y23253D01*
X100677Y23172D01*
X100706Y23092D01*
X100738Y23014D01*
X100774Y22938D01*
X100814Y22863D01*
X100857Y22790D01*
X100903Y22719D01*
X100952Y22650D01*
X101005Y22583D01*
X101061Y22519D01*
X101119Y22458D01*
X101180Y22400D01*
X101244Y22344D01*
X101311Y22291D01*
X101380Y22242D01*
X101451Y22196D01*
X101524Y22153D01*
X101599Y22113D01*
X101675Y22077D01*
X101753Y22045D01*
X101833Y22016D01*
X101914Y21991D01*
X101996Y21970D01*
X102079Y21952D01*
X102163Y21939D01*
X102247Y21929D01*
X102331Y21923D01*
X102416Y21921D01*
X105718Y29235D02*
X107186Y31070D01*
X100582Y31070D01*
X100582Y32904D02*
X100582Y29235D01*
X104251Y36551D02*
X104251Y38752D01*
X104249Y38826D01*
X104243Y38901D01*
X104234Y38974D01*
X104221Y39048D01*
X104204Y39120D01*
X104184Y39191D01*
X104160Y39262D01*
X104132Y39331D01*
X104101Y39398D01*
X104067Y39464D01*
X104029Y39529D01*
X103988Y39591D01*
X103944Y39651D01*
X103897Y39708D01*
X103847Y39763D01*
X103794Y39816D01*
X103739Y39866D01*
X103682Y39913D01*
X103622Y39957D01*
X103560Y39998D01*
X103495Y40036D01*
X103429Y40070D01*
X103362Y40101D01*
X103293Y40129D01*
X103222Y40153D01*
X103151Y40173D01*
X103079Y40190D01*
X103005Y40203D01*
X102932Y40212D01*
X102857Y40218D01*
X102783Y40220D01*
X102783Y40219D02*
X102416Y40219D01*
X102331Y40217D01*
X102247Y40211D01*
X102163Y40201D01*
X102079Y40188D01*
X101996Y40170D01*
X101914Y40149D01*
X101833Y40124D01*
X101753Y40095D01*
X101675Y40063D01*
X101599Y40027D01*
X101524Y39987D01*
X101451Y39944D01*
X101380Y39898D01*
X101311Y39849D01*
X101244Y39796D01*
X101180Y39740D01*
X101119Y39682D01*
X101061Y39621D01*
X101005Y39557D01*
X100952Y39490D01*
X100903Y39421D01*
X100857Y39350D01*
X100814Y39277D01*
X100774Y39202D01*
X100738Y39126D01*
X100706Y39048D01*
X100677Y38968D01*
X100652Y38887D01*
X100631Y38805D01*
X100613Y38722D01*
X100600Y38638D01*
X100590Y38554D01*
X100584Y38470D01*
X100582Y38385D01*
X100584Y38300D01*
X100590Y38216D01*
X100600Y38132D01*
X100613Y38048D01*
X100631Y37965D01*
X100652Y37883D01*
X100677Y37802D01*
X100706Y37722D01*
X100738Y37644D01*
X100774Y37568D01*
X100814Y37493D01*
X100857Y37420D01*
X100903Y37349D01*
X100952Y37280D01*
X101005Y37213D01*
X101061Y37149D01*
X101119Y37088D01*
X101180Y37030D01*
X101244Y36974D01*
X101311Y36921D01*
X101380Y36872D01*
X101451Y36826D01*
X101524Y36783D01*
X101599Y36743D01*
X101675Y36707D01*
X101753Y36675D01*
X101833Y36646D01*
X101914Y36621D01*
X101996Y36600D01*
X102079Y36582D01*
X102163Y36569D01*
X102247Y36559D01*
X102331Y36553D01*
X102416Y36551D01*
X104251Y36551D01*
X104358Y36553D01*
X104465Y36559D01*
X104572Y36569D01*
X104678Y36582D01*
X104784Y36600D01*
X104889Y36621D01*
X104993Y36646D01*
X105097Y36675D01*
X105199Y36708D01*
X105299Y36745D01*
X105399Y36785D01*
X105497Y36829D01*
X105593Y36876D01*
X105687Y36927D01*
X105780Y36981D01*
X105870Y37038D01*
X105959Y37099D01*
X106045Y37163D01*
X106128Y37230D01*
X106210Y37300D01*
X106288Y37373D01*
X106364Y37449D01*
X106437Y37527D01*
X106507Y37609D01*
X106574Y37692D01*
X106638Y37778D01*
X106699Y37867D01*
X106756Y37957D01*
X106810Y38050D01*
X106861Y38144D01*
X106908Y38240D01*
X106952Y38338D01*
X106992Y38438D01*
X107029Y38538D01*
X107062Y38640D01*
X107091Y38744D01*
X107116Y38848D01*
X107137Y38953D01*
X107155Y39059D01*
X107168Y39165D01*
X107178Y39272D01*
X107184Y39379D01*
X107186Y39486D01*
X94486Y9972D02*
X87882Y9972D01*
X94486Y9972D02*
X94486Y11806D01*
X94484Y11891D01*
X94478Y11975D01*
X94468Y12059D01*
X94455Y12143D01*
X94437Y12226D01*
X94416Y12308D01*
X94391Y12389D01*
X94362Y12469D01*
X94330Y12547D01*
X94294Y12623D01*
X94254Y12698D01*
X94211Y12771D01*
X94165Y12842D01*
X94116Y12911D01*
X94063Y12978D01*
X94007Y13042D01*
X93949Y13103D01*
X93888Y13161D01*
X93824Y13217D01*
X93757Y13270D01*
X93688Y13319D01*
X93617Y13365D01*
X93544Y13408D01*
X93469Y13448D01*
X93393Y13484D01*
X93315Y13516D01*
X93235Y13545D01*
X93154Y13570D01*
X93072Y13591D01*
X92989Y13609D01*
X92905Y13622D01*
X92821Y13632D01*
X92737Y13638D01*
X92652Y13640D01*
X92652Y13641D02*
X89716Y13641D01*
X89716Y13640D02*
X89631Y13638D01*
X89547Y13632D01*
X89463Y13622D01*
X89379Y13609D01*
X89296Y13591D01*
X89214Y13570D01*
X89133Y13545D01*
X89053Y13516D01*
X88975Y13484D01*
X88899Y13448D01*
X88824Y13408D01*
X88751Y13365D01*
X88680Y13319D01*
X88611Y13270D01*
X88544Y13217D01*
X88480Y13161D01*
X88419Y13103D01*
X88361Y13042D01*
X88305Y12978D01*
X88252Y12911D01*
X88203Y12842D01*
X88157Y12771D01*
X88114Y12698D01*
X88074Y12623D01*
X88038Y12547D01*
X88006Y12469D01*
X87977Y12389D01*
X87952Y12308D01*
X87931Y12226D01*
X87913Y12143D01*
X87900Y12059D01*
X87890Y11975D01*
X87884Y11891D01*
X87882Y11806D01*
X87882Y9972D01*
X87882Y17902D02*
X94486Y17902D01*
X87882Y17169D02*
X87882Y18636D01*
X94486Y18636D02*
X94486Y17169D01*
X92652Y21920D02*
X89716Y21920D01*
X92652Y21921D02*
X92737Y21923D01*
X92821Y21929D01*
X92905Y21939D01*
X92989Y21952D01*
X93072Y21970D01*
X93154Y21991D01*
X93235Y22016D01*
X93315Y22045D01*
X93393Y22077D01*
X93469Y22113D01*
X93544Y22153D01*
X93617Y22196D01*
X93688Y22242D01*
X93757Y22291D01*
X93824Y22344D01*
X93888Y22400D01*
X93949Y22458D01*
X94007Y22519D01*
X94063Y22583D01*
X94116Y22650D01*
X94165Y22719D01*
X94211Y22790D01*
X94254Y22863D01*
X94294Y22938D01*
X94330Y23014D01*
X94362Y23092D01*
X94391Y23172D01*
X94416Y23253D01*
X94437Y23335D01*
X94455Y23418D01*
X94468Y23502D01*
X94478Y23586D01*
X94484Y23670D01*
X94486Y23755D01*
X94484Y23840D01*
X94478Y23924D01*
X94468Y24008D01*
X94455Y24092D01*
X94437Y24175D01*
X94416Y24257D01*
X94391Y24338D01*
X94362Y24418D01*
X94330Y24496D01*
X94294Y24572D01*
X94254Y24647D01*
X94211Y24720D01*
X94165Y24791D01*
X94116Y24860D01*
X94063Y24927D01*
X94007Y24991D01*
X93949Y25052D01*
X93888Y25110D01*
X93824Y25166D01*
X93757Y25219D01*
X93688Y25268D01*
X93617Y25314D01*
X93544Y25357D01*
X93469Y25397D01*
X93393Y25433D01*
X93315Y25465D01*
X93235Y25494D01*
X93154Y25519D01*
X93072Y25540D01*
X92989Y25558D01*
X92905Y25571D01*
X92821Y25581D01*
X92737Y25587D01*
X92652Y25589D01*
X89716Y25589D01*
X89631Y25587D01*
X89547Y25581D01*
X89463Y25571D01*
X89379Y25558D01*
X89296Y25540D01*
X89214Y25519D01*
X89133Y25494D01*
X89053Y25465D01*
X88975Y25433D01*
X88899Y25397D01*
X88824Y25357D01*
X88751Y25314D01*
X88680Y25268D01*
X88611Y25219D01*
X88544Y25166D01*
X88480Y25110D01*
X88419Y25052D01*
X88361Y24991D01*
X88305Y24927D01*
X88252Y24860D01*
X88203Y24791D01*
X88157Y24720D01*
X88114Y24647D01*
X88074Y24572D01*
X88038Y24496D01*
X88006Y24418D01*
X87977Y24338D01*
X87952Y24257D01*
X87931Y24175D01*
X87913Y24092D01*
X87900Y24008D01*
X87890Y23924D01*
X87884Y23840D01*
X87882Y23755D01*
X87884Y23670D01*
X87890Y23586D01*
X87900Y23502D01*
X87913Y23418D01*
X87931Y23335D01*
X87952Y23253D01*
X87977Y23172D01*
X88006Y23092D01*
X88038Y23014D01*
X88074Y22938D01*
X88114Y22863D01*
X88157Y22790D01*
X88203Y22719D01*
X88252Y22650D01*
X88305Y22583D01*
X88361Y22519D01*
X88419Y22458D01*
X88480Y22400D01*
X88544Y22344D01*
X88611Y22291D01*
X88680Y22242D01*
X88751Y22196D01*
X88824Y22153D01*
X88899Y22113D01*
X88975Y22077D01*
X89053Y22045D01*
X89133Y22016D01*
X89214Y21991D01*
X89296Y21970D01*
X89379Y21952D01*
X89463Y21939D01*
X89547Y21929D01*
X89631Y21923D01*
X89716Y21921D01*
X93018Y29235D02*
X94486Y31070D01*
X87882Y31070D01*
X87882Y32904D02*
X87882Y29235D01*
X87882Y36551D02*
X87882Y38752D01*
X87884Y38826D01*
X87890Y38901D01*
X87899Y38974D01*
X87912Y39048D01*
X87929Y39120D01*
X87949Y39191D01*
X87973Y39262D01*
X88001Y39331D01*
X88032Y39398D01*
X88066Y39464D01*
X88104Y39529D01*
X88145Y39591D01*
X88189Y39651D01*
X88236Y39708D01*
X88286Y39763D01*
X88339Y39816D01*
X88394Y39866D01*
X88451Y39913D01*
X88511Y39957D01*
X88573Y39998D01*
X88638Y40036D01*
X88703Y40070D01*
X88771Y40101D01*
X88840Y40129D01*
X88911Y40153D01*
X88982Y40173D01*
X89054Y40190D01*
X89128Y40203D01*
X89201Y40212D01*
X89276Y40218D01*
X89350Y40220D01*
X89350Y40219D02*
X90083Y40219D01*
X90083Y40220D02*
X90157Y40218D01*
X90232Y40212D01*
X90305Y40203D01*
X90379Y40190D01*
X90451Y40173D01*
X90522Y40153D01*
X90593Y40129D01*
X90662Y40101D01*
X90729Y40070D01*
X90795Y40036D01*
X90860Y39998D01*
X90922Y39957D01*
X90982Y39913D01*
X91039Y39866D01*
X91094Y39816D01*
X91147Y39763D01*
X91197Y39708D01*
X91244Y39651D01*
X91288Y39591D01*
X91329Y39529D01*
X91367Y39464D01*
X91401Y39398D01*
X91432Y39331D01*
X91460Y39262D01*
X91484Y39191D01*
X91504Y39120D01*
X91521Y39048D01*
X91534Y38974D01*
X91543Y38901D01*
X91549Y38826D01*
X91551Y38752D01*
X91551Y36551D01*
X94486Y36551D01*
X94486Y40219D01*
X81786Y9972D02*
X75182Y9972D01*
X81786Y9972D02*
X81786Y11806D01*
X81784Y11891D01*
X81778Y11975D01*
X81768Y12059D01*
X81755Y12143D01*
X81737Y12226D01*
X81716Y12308D01*
X81691Y12389D01*
X81662Y12469D01*
X81630Y12547D01*
X81594Y12623D01*
X81554Y12698D01*
X81511Y12771D01*
X81465Y12842D01*
X81416Y12911D01*
X81363Y12978D01*
X81307Y13042D01*
X81249Y13103D01*
X81188Y13161D01*
X81124Y13217D01*
X81057Y13270D01*
X80988Y13319D01*
X80917Y13365D01*
X80844Y13408D01*
X80769Y13448D01*
X80693Y13484D01*
X80615Y13516D01*
X80535Y13545D01*
X80454Y13570D01*
X80372Y13591D01*
X80289Y13609D01*
X80205Y13622D01*
X80121Y13632D01*
X80037Y13638D01*
X79952Y13640D01*
X79952Y13641D02*
X77016Y13641D01*
X77016Y13640D02*
X76931Y13638D01*
X76847Y13632D01*
X76763Y13622D01*
X76679Y13609D01*
X76596Y13591D01*
X76514Y13570D01*
X76433Y13545D01*
X76353Y13516D01*
X76275Y13484D01*
X76199Y13448D01*
X76124Y13408D01*
X76051Y13365D01*
X75980Y13319D01*
X75911Y13270D01*
X75844Y13217D01*
X75780Y13161D01*
X75719Y13103D01*
X75661Y13042D01*
X75605Y12978D01*
X75552Y12911D01*
X75503Y12842D01*
X75457Y12771D01*
X75414Y12698D01*
X75374Y12623D01*
X75338Y12547D01*
X75306Y12469D01*
X75277Y12389D01*
X75252Y12308D01*
X75231Y12226D01*
X75213Y12143D01*
X75200Y12059D01*
X75190Y11975D01*
X75184Y11891D01*
X75182Y11806D01*
X75182Y9972D01*
X75182Y17902D02*
X81786Y17902D01*
X75182Y17169D02*
X75182Y18636D01*
X81786Y18636D02*
X81786Y17169D01*
X79952Y21920D02*
X77016Y21920D01*
X79952Y21921D02*
X80037Y21923D01*
X80121Y21929D01*
X80205Y21939D01*
X80289Y21952D01*
X80372Y21970D01*
X80454Y21991D01*
X80535Y22016D01*
X80615Y22045D01*
X80693Y22077D01*
X80769Y22113D01*
X80844Y22153D01*
X80917Y22196D01*
X80988Y22242D01*
X81057Y22291D01*
X81124Y22344D01*
X81188Y22400D01*
X81249Y22458D01*
X81307Y22519D01*
X81363Y22583D01*
X81416Y22650D01*
X81465Y22719D01*
X81511Y22790D01*
X81554Y22863D01*
X81594Y22938D01*
X81630Y23014D01*
X81662Y23092D01*
X81691Y23172D01*
X81716Y23253D01*
X81737Y23335D01*
X81755Y23418D01*
X81768Y23502D01*
X81778Y23586D01*
X81784Y23670D01*
X81786Y23755D01*
X81784Y23840D01*
X81778Y23924D01*
X81768Y24008D01*
X81755Y24092D01*
X81737Y24175D01*
X81716Y24257D01*
X81691Y24338D01*
X81662Y24418D01*
X81630Y24496D01*
X81594Y24572D01*
X81554Y24647D01*
X81511Y24720D01*
X81465Y24791D01*
X81416Y24860D01*
X81363Y24927D01*
X81307Y24991D01*
X81249Y25052D01*
X81188Y25110D01*
X81124Y25166D01*
X81057Y25219D01*
X80988Y25268D01*
X80917Y25314D01*
X80844Y25357D01*
X80769Y25397D01*
X80693Y25433D01*
X80615Y25465D01*
X80535Y25494D01*
X80454Y25519D01*
X80372Y25540D01*
X80289Y25558D01*
X80205Y25571D01*
X80121Y25581D01*
X80037Y25587D01*
X79952Y25589D01*
X77016Y25589D01*
X76931Y25587D01*
X76847Y25581D01*
X76763Y25571D01*
X76679Y25558D01*
X76596Y25540D01*
X76514Y25519D01*
X76433Y25494D01*
X76353Y25465D01*
X76275Y25433D01*
X76199Y25397D01*
X76124Y25357D01*
X76051Y25314D01*
X75980Y25268D01*
X75911Y25219D01*
X75844Y25166D01*
X75780Y25110D01*
X75719Y25052D01*
X75661Y24991D01*
X75605Y24927D01*
X75552Y24860D01*
X75503Y24791D01*
X75457Y24720D01*
X75414Y24647D01*
X75374Y24572D01*
X75338Y24496D01*
X75306Y24418D01*
X75277Y24338D01*
X75252Y24257D01*
X75231Y24175D01*
X75213Y24092D01*
X75200Y24008D01*
X75190Y23924D01*
X75184Y23840D01*
X75182Y23755D01*
X75184Y23670D01*
X75190Y23586D01*
X75200Y23502D01*
X75213Y23418D01*
X75231Y23335D01*
X75252Y23253D01*
X75277Y23172D01*
X75306Y23092D01*
X75338Y23014D01*
X75374Y22938D01*
X75414Y22863D01*
X75457Y22790D01*
X75503Y22719D01*
X75552Y22650D01*
X75605Y22583D01*
X75661Y22519D01*
X75719Y22458D01*
X75780Y22400D01*
X75844Y22344D01*
X75911Y22291D01*
X75980Y22242D01*
X76051Y22196D01*
X76124Y22153D01*
X76199Y22113D01*
X76275Y22077D01*
X76353Y22045D01*
X76433Y22016D01*
X76514Y21991D01*
X76596Y21970D01*
X76679Y21952D01*
X76763Y21939D01*
X76847Y21929D01*
X76931Y21923D01*
X77016Y21921D01*
X80318Y29235D02*
X81786Y31070D01*
X75182Y31070D01*
X75182Y32904D02*
X75182Y29235D01*
X76650Y36551D02*
X81786Y38018D01*
X76650Y36551D02*
X76650Y40219D01*
X78117Y39119D02*
X75182Y39119D01*
X69086Y9972D02*
X62482Y9972D01*
X69086Y9972D02*
X69086Y11806D01*
X69084Y11891D01*
X69078Y11975D01*
X69068Y12059D01*
X69055Y12143D01*
X69037Y12226D01*
X69016Y12308D01*
X68991Y12389D01*
X68962Y12469D01*
X68930Y12547D01*
X68894Y12623D01*
X68854Y12698D01*
X68811Y12771D01*
X68765Y12842D01*
X68716Y12911D01*
X68663Y12978D01*
X68607Y13042D01*
X68549Y13103D01*
X68488Y13161D01*
X68424Y13217D01*
X68357Y13270D01*
X68288Y13319D01*
X68217Y13365D01*
X68144Y13408D01*
X68069Y13448D01*
X67993Y13484D01*
X67915Y13516D01*
X67835Y13545D01*
X67754Y13570D01*
X67672Y13591D01*
X67589Y13609D01*
X67505Y13622D01*
X67421Y13632D01*
X67337Y13638D01*
X67252Y13640D01*
X67167Y13638D01*
X67083Y13632D01*
X66999Y13622D01*
X66915Y13609D01*
X66832Y13591D01*
X66750Y13570D01*
X66669Y13545D01*
X66589Y13516D01*
X66511Y13484D01*
X66435Y13448D01*
X66360Y13408D01*
X66287Y13365D01*
X66216Y13319D01*
X66147Y13270D01*
X66080Y13217D01*
X66016Y13161D01*
X65955Y13103D01*
X65897Y13042D01*
X65841Y12978D01*
X65788Y12911D01*
X65739Y12842D01*
X65693Y12771D01*
X65650Y12698D01*
X65610Y12623D01*
X65574Y12547D01*
X65542Y12469D01*
X65513Y12389D01*
X65488Y12308D01*
X65467Y12226D01*
X65449Y12143D01*
X65436Y12059D01*
X65426Y11975D01*
X65420Y11891D01*
X65418Y11806D01*
X65417Y11806D02*
X65417Y9972D01*
X65417Y12173D02*
X62482Y13641D01*
X62482Y17476D02*
X62482Y20412D01*
X62482Y17476D02*
X69086Y17476D01*
X69086Y20412D01*
X66151Y19678D02*
X66151Y17476D01*
X62482Y25506D02*
X62484Y25580D01*
X62490Y25655D01*
X62499Y25728D01*
X62512Y25802D01*
X62529Y25874D01*
X62549Y25945D01*
X62573Y26016D01*
X62601Y26085D01*
X62632Y26152D01*
X62666Y26218D01*
X62704Y26283D01*
X62745Y26345D01*
X62789Y26405D01*
X62836Y26462D01*
X62886Y26517D01*
X62939Y26570D01*
X62994Y26620D01*
X63051Y26667D01*
X63111Y26711D01*
X63173Y26752D01*
X63238Y26790D01*
X63304Y26824D01*
X63371Y26855D01*
X63440Y26883D01*
X63511Y26907D01*
X63582Y26927D01*
X63654Y26944D01*
X63728Y26957D01*
X63801Y26966D01*
X63876Y26972D01*
X63950Y26974D01*
X62482Y25506D02*
X62484Y25395D01*
X62490Y25284D01*
X62500Y25173D01*
X62514Y25062D01*
X62532Y24953D01*
X62554Y24844D01*
X62579Y24735D01*
X62609Y24628D01*
X62642Y24522D01*
X62680Y24417D01*
X62720Y24314D01*
X62765Y24212D01*
X62813Y24112D01*
X62865Y24013D01*
X62920Y23917D01*
X62979Y23822D01*
X63041Y23730D01*
X63107Y23640D01*
X63175Y23552D01*
X63247Y23467D01*
X63322Y23385D01*
X63399Y23305D01*
X67618Y23487D02*
X67692Y23489D01*
X67767Y23495D01*
X67840Y23504D01*
X67914Y23517D01*
X67986Y23534D01*
X68057Y23554D01*
X68128Y23578D01*
X68197Y23606D01*
X68264Y23637D01*
X68330Y23671D01*
X68395Y23709D01*
X68457Y23750D01*
X68517Y23794D01*
X68574Y23841D01*
X68629Y23891D01*
X68682Y23944D01*
X68732Y23999D01*
X68779Y24056D01*
X68823Y24116D01*
X68864Y24178D01*
X68902Y24243D01*
X68936Y24309D01*
X68967Y24376D01*
X68995Y24445D01*
X69019Y24516D01*
X69039Y24587D01*
X69056Y24659D01*
X69069Y24733D01*
X69078Y24806D01*
X69084Y24881D01*
X69086Y24955D01*
X69084Y25059D01*
X69078Y25163D01*
X69068Y25267D01*
X69055Y25370D01*
X69037Y25473D01*
X69015Y25575D01*
X68990Y25676D01*
X68961Y25776D01*
X68928Y25875D01*
X68891Y25972D01*
X68851Y26068D01*
X68807Y26163D01*
X68759Y26255D01*
X68709Y26346D01*
X68654Y26435D01*
X68597Y26522D01*
X68536Y26606D01*
X66333Y24221D02*
X66372Y24158D01*
X66414Y24098D01*
X66459Y24040D01*
X66507Y23983D01*
X66558Y23930D01*
X66611Y23879D01*
X66666Y23830D01*
X66724Y23785D01*
X66784Y23742D01*
X66846Y23702D01*
X66910Y23666D01*
X66976Y23632D01*
X67044Y23602D01*
X67112Y23575D01*
X67182Y23552D01*
X67253Y23532D01*
X67325Y23516D01*
X67398Y23503D01*
X67471Y23494D01*
X67544Y23489D01*
X67618Y23487D01*
X65235Y26240D02*
X65196Y26303D01*
X65154Y26363D01*
X65109Y26422D01*
X65061Y26478D01*
X65010Y26531D01*
X64957Y26582D01*
X64902Y26631D01*
X64844Y26676D01*
X64784Y26719D01*
X64722Y26759D01*
X64658Y26795D01*
X64592Y26829D01*
X64524Y26859D01*
X64456Y26886D01*
X64386Y26909D01*
X64315Y26929D01*
X64243Y26945D01*
X64170Y26958D01*
X64097Y26967D01*
X64024Y26972D01*
X63950Y26974D01*
X65234Y26239D02*
X66334Y24222D01*
X62482Y30644D02*
X62482Y33579D01*
X62482Y30644D02*
X69086Y30644D01*
X69086Y33579D01*
X66151Y32845D02*
X66151Y30644D01*
X69086Y38062D02*
X62482Y38062D01*
X69086Y36228D02*
X69086Y39897D01*
X61748Y42691D02*
X61748Y45626D01*
X62482Y49151D02*
X69086Y49151D01*
X62482Y52820D01*
X69086Y52820D01*
X56386Y9972D02*
X49782Y9972D01*
X56386Y9972D02*
X56386Y11806D01*
X56384Y11891D01*
X56378Y11975D01*
X56368Y12059D01*
X56355Y12143D01*
X56337Y12226D01*
X56316Y12308D01*
X56291Y12389D01*
X56262Y12469D01*
X56230Y12547D01*
X56194Y12623D01*
X56154Y12698D01*
X56111Y12771D01*
X56065Y12842D01*
X56016Y12911D01*
X55963Y12978D01*
X55907Y13042D01*
X55849Y13103D01*
X55788Y13161D01*
X55724Y13217D01*
X55657Y13270D01*
X55588Y13319D01*
X55517Y13365D01*
X55444Y13408D01*
X55369Y13448D01*
X55293Y13484D01*
X55215Y13516D01*
X55135Y13545D01*
X55054Y13570D01*
X54972Y13591D01*
X54889Y13609D01*
X54805Y13622D01*
X54721Y13632D01*
X54637Y13638D01*
X54552Y13640D01*
X54552Y13641D02*
X51616Y13641D01*
X51616Y13640D02*
X51531Y13638D01*
X51447Y13632D01*
X51363Y13622D01*
X51279Y13609D01*
X51196Y13591D01*
X51114Y13570D01*
X51033Y13545D01*
X50953Y13516D01*
X50875Y13484D01*
X50799Y13448D01*
X50724Y13408D01*
X50651Y13365D01*
X50580Y13319D01*
X50511Y13270D01*
X50444Y13217D01*
X50380Y13161D01*
X50319Y13103D01*
X50261Y13042D01*
X50205Y12978D01*
X50152Y12911D01*
X50103Y12842D01*
X50057Y12771D01*
X50014Y12698D01*
X49974Y12623D01*
X49938Y12547D01*
X49906Y12469D01*
X49877Y12389D01*
X49852Y12308D01*
X49831Y12226D01*
X49813Y12143D01*
X49800Y12059D01*
X49790Y11975D01*
X49784Y11891D01*
X49782Y11806D01*
X49782Y9972D01*
X49782Y17902D02*
X56386Y17902D01*
X49782Y17169D02*
X49782Y18636D01*
X56386Y18636D02*
X56386Y17169D01*
X54552Y21920D02*
X51616Y21920D01*
X54552Y21921D02*
X54637Y21923D01*
X54721Y21929D01*
X54805Y21939D01*
X54889Y21952D01*
X54972Y21970D01*
X55054Y21991D01*
X55135Y22016D01*
X55215Y22045D01*
X55293Y22077D01*
X55369Y22113D01*
X55444Y22153D01*
X55517Y22196D01*
X55588Y22242D01*
X55657Y22291D01*
X55724Y22344D01*
X55788Y22400D01*
X55849Y22458D01*
X55907Y22519D01*
X55963Y22583D01*
X56016Y22650D01*
X56065Y22719D01*
X56111Y22790D01*
X56154Y22863D01*
X56194Y22938D01*
X56230Y23014D01*
X56262Y23092D01*
X56291Y23172D01*
X56316Y23253D01*
X56337Y23335D01*
X56355Y23418D01*
X56368Y23502D01*
X56378Y23586D01*
X56384Y23670D01*
X56386Y23755D01*
X56384Y23840D01*
X56378Y23924D01*
X56368Y24008D01*
X56355Y24092D01*
X56337Y24175D01*
X56316Y24257D01*
X56291Y24338D01*
X56262Y24418D01*
X56230Y24496D01*
X56194Y24572D01*
X56154Y24647D01*
X56111Y24720D01*
X56065Y24791D01*
X56016Y24860D01*
X55963Y24927D01*
X55907Y24991D01*
X55849Y25052D01*
X55788Y25110D01*
X55724Y25166D01*
X55657Y25219D01*
X55588Y25268D01*
X55517Y25314D01*
X55444Y25357D01*
X55369Y25397D01*
X55293Y25433D01*
X55215Y25465D01*
X55135Y25494D01*
X55054Y25519D01*
X54972Y25540D01*
X54889Y25558D01*
X54805Y25571D01*
X54721Y25581D01*
X54637Y25587D01*
X54552Y25589D01*
X51616Y25589D01*
X51531Y25587D01*
X51447Y25581D01*
X51363Y25571D01*
X51279Y25558D01*
X51196Y25540D01*
X51114Y25519D01*
X51033Y25494D01*
X50953Y25465D01*
X50875Y25433D01*
X50799Y25397D01*
X50724Y25357D01*
X50651Y25314D01*
X50580Y25268D01*
X50511Y25219D01*
X50444Y25166D01*
X50380Y25110D01*
X50319Y25052D01*
X50261Y24991D01*
X50205Y24927D01*
X50152Y24860D01*
X50103Y24791D01*
X50057Y24720D01*
X50014Y24647D01*
X49974Y24572D01*
X49938Y24496D01*
X49906Y24418D01*
X49877Y24338D01*
X49852Y24257D01*
X49831Y24175D01*
X49813Y24092D01*
X49800Y24008D01*
X49790Y23924D01*
X49784Y23840D01*
X49782Y23755D01*
X49784Y23670D01*
X49790Y23586D01*
X49800Y23502D01*
X49813Y23418D01*
X49831Y23335D01*
X49852Y23253D01*
X49877Y23172D01*
X49906Y23092D01*
X49938Y23014D01*
X49974Y22938D01*
X50014Y22863D01*
X50057Y22790D01*
X50103Y22719D01*
X50152Y22650D01*
X50205Y22583D01*
X50261Y22519D01*
X50319Y22458D01*
X50380Y22400D01*
X50444Y22344D01*
X50511Y22291D01*
X50580Y22242D01*
X50651Y22196D01*
X50724Y22153D01*
X50799Y22113D01*
X50875Y22077D01*
X50953Y22045D01*
X51033Y22016D01*
X51114Y21991D01*
X51196Y21970D01*
X51279Y21952D01*
X51363Y21939D01*
X51447Y21929D01*
X51531Y21923D01*
X51616Y21921D01*
X54918Y29235D02*
X56386Y31070D01*
X49782Y31070D01*
X49782Y32904D02*
X49782Y29235D01*
X49782Y36551D02*
X49782Y38385D01*
X49784Y38470D01*
X49790Y38554D01*
X49800Y38638D01*
X49813Y38722D01*
X49831Y38805D01*
X49852Y38887D01*
X49877Y38968D01*
X49906Y39048D01*
X49938Y39126D01*
X49974Y39202D01*
X50014Y39277D01*
X50057Y39350D01*
X50103Y39421D01*
X50152Y39490D01*
X50205Y39557D01*
X50261Y39621D01*
X50319Y39682D01*
X50380Y39740D01*
X50444Y39796D01*
X50511Y39849D01*
X50580Y39898D01*
X50651Y39944D01*
X50724Y39987D01*
X50799Y40027D01*
X50875Y40063D01*
X50953Y40095D01*
X51033Y40124D01*
X51114Y40149D01*
X51196Y40170D01*
X51279Y40188D01*
X51363Y40201D01*
X51447Y40211D01*
X51531Y40217D01*
X51616Y40219D01*
X51701Y40217D01*
X51785Y40211D01*
X51869Y40201D01*
X51953Y40188D01*
X52036Y40170D01*
X52118Y40149D01*
X52199Y40124D01*
X52279Y40095D01*
X52357Y40063D01*
X52433Y40027D01*
X52508Y39987D01*
X52581Y39944D01*
X52652Y39898D01*
X52721Y39849D01*
X52788Y39796D01*
X52852Y39740D01*
X52913Y39682D01*
X52971Y39621D01*
X53027Y39557D01*
X53080Y39490D01*
X53129Y39421D01*
X53175Y39350D01*
X53218Y39277D01*
X53258Y39202D01*
X53294Y39126D01*
X53326Y39048D01*
X53355Y38968D01*
X53380Y38887D01*
X53401Y38805D01*
X53419Y38722D01*
X53432Y38638D01*
X53442Y38554D01*
X53448Y38470D01*
X53450Y38385D01*
X56386Y38752D02*
X56386Y36551D01*
X56386Y38752D02*
X56384Y38828D01*
X56378Y38903D01*
X56369Y38978D01*
X56355Y39052D01*
X56338Y39126D01*
X56316Y39198D01*
X56292Y39270D01*
X56263Y39340D01*
X56231Y39408D01*
X56196Y39475D01*
X56157Y39540D01*
X56114Y39603D01*
X56069Y39663D01*
X56021Y39721D01*
X55969Y39777D01*
X55915Y39829D01*
X55858Y39879D01*
X55799Y39926D01*
X55738Y39970D01*
X55674Y40011D01*
X55608Y40048D01*
X55540Y40082D01*
X55471Y40112D01*
X55400Y40139D01*
X55328Y40162D01*
X55255Y40181D01*
X55181Y40196D01*
X55106Y40208D01*
X55031Y40216D01*
X54956Y40220D01*
X54880Y40220D01*
X54805Y40216D01*
X54730Y40208D01*
X54655Y40196D01*
X54581Y40181D01*
X54508Y40162D01*
X54436Y40139D01*
X54365Y40112D01*
X54296Y40082D01*
X54228Y40048D01*
X54162Y40011D01*
X54098Y39970D01*
X54037Y39926D01*
X53978Y39879D01*
X53921Y39829D01*
X53867Y39777D01*
X53815Y39721D01*
X53767Y39663D01*
X53722Y39603D01*
X53679Y39540D01*
X53640Y39475D01*
X53605Y39408D01*
X53573Y39340D01*
X53544Y39270D01*
X53520Y39198D01*
X53498Y39126D01*
X53481Y39052D01*
X53467Y38978D01*
X53458Y38903D01*
X53452Y38828D01*
X53450Y38752D01*
X53451Y38752D02*
X53451Y37284D01*
X43686Y9972D02*
X37082Y9972D01*
X43686Y9972D02*
X43686Y11806D01*
X43684Y11891D01*
X43678Y11975D01*
X43668Y12059D01*
X43655Y12143D01*
X43637Y12226D01*
X43616Y12308D01*
X43591Y12389D01*
X43562Y12469D01*
X43530Y12547D01*
X43494Y12623D01*
X43454Y12698D01*
X43411Y12771D01*
X43365Y12842D01*
X43316Y12911D01*
X43263Y12978D01*
X43207Y13042D01*
X43149Y13103D01*
X43088Y13161D01*
X43024Y13217D01*
X42957Y13270D01*
X42888Y13319D01*
X42817Y13365D01*
X42744Y13408D01*
X42669Y13448D01*
X42593Y13484D01*
X42515Y13516D01*
X42435Y13545D01*
X42354Y13570D01*
X42272Y13591D01*
X42189Y13609D01*
X42105Y13622D01*
X42021Y13632D01*
X41937Y13638D01*
X41852Y13640D01*
X41852Y13641D02*
X38916Y13641D01*
X38916Y13640D02*
X38831Y13638D01*
X38747Y13632D01*
X38663Y13622D01*
X38579Y13609D01*
X38496Y13591D01*
X38414Y13570D01*
X38333Y13545D01*
X38253Y13516D01*
X38175Y13484D01*
X38099Y13448D01*
X38024Y13408D01*
X37951Y13365D01*
X37880Y13319D01*
X37811Y13270D01*
X37744Y13217D01*
X37680Y13161D01*
X37619Y13103D01*
X37561Y13042D01*
X37505Y12978D01*
X37452Y12911D01*
X37403Y12842D01*
X37357Y12771D01*
X37314Y12698D01*
X37274Y12623D01*
X37238Y12547D01*
X37206Y12469D01*
X37177Y12389D01*
X37152Y12308D01*
X37131Y12226D01*
X37113Y12143D01*
X37100Y12059D01*
X37090Y11975D01*
X37084Y11891D01*
X37082Y11806D01*
X37082Y9972D01*
X37082Y17902D02*
X43686Y17902D01*
X37082Y17169D02*
X37082Y18636D01*
X43686Y18636D02*
X43686Y17169D01*
X41852Y21920D02*
X38916Y21920D01*
X41852Y21921D02*
X41937Y21923D01*
X42021Y21929D01*
X42105Y21939D01*
X42189Y21952D01*
X42272Y21970D01*
X42354Y21991D01*
X42435Y22016D01*
X42515Y22045D01*
X42593Y22077D01*
X42669Y22113D01*
X42744Y22153D01*
X42817Y22196D01*
X42888Y22242D01*
X42957Y22291D01*
X43024Y22344D01*
X43088Y22400D01*
X43149Y22458D01*
X43207Y22519D01*
X43263Y22583D01*
X43316Y22650D01*
X43365Y22719D01*
X43411Y22790D01*
X43454Y22863D01*
X43494Y22938D01*
X43530Y23014D01*
X43562Y23092D01*
X43591Y23172D01*
X43616Y23253D01*
X43637Y23335D01*
X43655Y23418D01*
X43668Y23502D01*
X43678Y23586D01*
X43684Y23670D01*
X43686Y23755D01*
X43684Y23840D01*
X43678Y23924D01*
X43668Y24008D01*
X43655Y24092D01*
X43637Y24175D01*
X43616Y24257D01*
X43591Y24338D01*
X43562Y24418D01*
X43530Y24496D01*
X43494Y24572D01*
X43454Y24647D01*
X43411Y24720D01*
X43365Y24791D01*
X43316Y24860D01*
X43263Y24927D01*
X43207Y24991D01*
X43149Y25052D01*
X43088Y25110D01*
X43024Y25166D01*
X42957Y25219D01*
X42888Y25268D01*
X42817Y25314D01*
X42744Y25357D01*
X42669Y25397D01*
X42593Y25433D01*
X42515Y25465D01*
X42435Y25494D01*
X42354Y25519D01*
X42272Y25540D01*
X42189Y25558D01*
X42105Y25571D01*
X42021Y25581D01*
X41937Y25587D01*
X41852Y25589D01*
X38916Y25589D01*
X38831Y25587D01*
X38747Y25581D01*
X38663Y25571D01*
X38579Y25558D01*
X38496Y25540D01*
X38414Y25519D01*
X38333Y25494D01*
X38253Y25465D01*
X38175Y25433D01*
X38099Y25397D01*
X38024Y25357D01*
X37951Y25314D01*
X37880Y25268D01*
X37811Y25219D01*
X37744Y25166D01*
X37680Y25110D01*
X37619Y25052D01*
X37561Y24991D01*
X37505Y24927D01*
X37452Y24860D01*
X37403Y24791D01*
X37357Y24720D01*
X37314Y24647D01*
X37274Y24572D01*
X37238Y24496D01*
X37206Y24418D01*
X37177Y24338D01*
X37152Y24257D01*
X37131Y24175D01*
X37113Y24092D01*
X37100Y24008D01*
X37090Y23924D01*
X37084Y23840D01*
X37082Y23755D01*
X37084Y23670D01*
X37090Y23586D01*
X37100Y23502D01*
X37113Y23418D01*
X37131Y23335D01*
X37152Y23253D01*
X37177Y23172D01*
X37206Y23092D01*
X37238Y23014D01*
X37274Y22938D01*
X37314Y22863D01*
X37357Y22790D01*
X37403Y22719D01*
X37452Y22650D01*
X37505Y22583D01*
X37561Y22519D01*
X37619Y22458D01*
X37680Y22400D01*
X37744Y22344D01*
X37811Y22291D01*
X37880Y22242D01*
X37951Y22196D01*
X38024Y22153D01*
X38099Y22113D01*
X38175Y22077D01*
X38253Y22045D01*
X38333Y22016D01*
X38414Y21991D01*
X38496Y21970D01*
X38579Y21952D01*
X38663Y21939D01*
X38747Y21929D01*
X38831Y21923D01*
X38916Y21921D01*
X42218Y29235D02*
X43686Y31070D01*
X37082Y31070D01*
X37082Y32904D02*
X37082Y29235D01*
X43686Y38568D02*
X43684Y38647D01*
X43679Y38725D01*
X43669Y38803D01*
X43656Y38880D01*
X43639Y38957D01*
X43619Y39033D01*
X43595Y39108D01*
X43568Y39182D01*
X43537Y39254D01*
X43502Y39325D01*
X43465Y39394D01*
X43424Y39461D01*
X43380Y39526D01*
X43333Y39589D01*
X43283Y39649D01*
X43230Y39707D01*
X43174Y39763D01*
X43116Y39816D01*
X43056Y39866D01*
X42993Y39913D01*
X42928Y39957D01*
X42861Y39998D01*
X42792Y40035D01*
X42721Y40070D01*
X42649Y40101D01*
X42575Y40128D01*
X42500Y40152D01*
X42424Y40172D01*
X42347Y40189D01*
X42270Y40202D01*
X42192Y40212D01*
X42114Y40217D01*
X42035Y40219D01*
X43686Y38568D02*
X43684Y38479D01*
X43679Y38390D01*
X43669Y38302D01*
X43656Y38214D01*
X43640Y38127D01*
X43619Y38040D01*
X43595Y37955D01*
X43568Y37870D01*
X43537Y37787D01*
X43502Y37705D01*
X43464Y37624D01*
X43423Y37545D01*
X43379Y37469D01*
X43331Y37393D01*
X43280Y37320D01*
X43227Y37250D01*
X43170Y37181D01*
X43110Y37115D01*
X43048Y37052D01*
X42983Y36991D01*
X42916Y36933D01*
X42846Y36878D01*
X42774Y36825D01*
X42700Y36776D01*
X42624Y36730D01*
X42546Y36688D01*
X42466Y36648D01*
X42385Y36612D01*
X42302Y36579D01*
X42218Y36550D01*
X40751Y39669D02*
X40807Y39725D01*
X40866Y39779D01*
X40927Y39830D01*
X40991Y39879D01*
X41056Y39924D01*
X41124Y39967D01*
X41193Y40006D01*
X41264Y40043D01*
X41337Y40076D01*
X41411Y40105D01*
X41486Y40132D01*
X41562Y40155D01*
X41640Y40174D01*
X41718Y40190D01*
X41796Y40203D01*
X41876Y40212D01*
X41955Y40217D01*
X42035Y40219D01*
X40751Y39669D02*
X37082Y36551D01*
X37082Y40219D01*
X30986Y9972D02*
X24382Y9972D01*
X30986Y9972D02*
X30986Y11806D01*
X30984Y11891D01*
X30978Y11975D01*
X30968Y12059D01*
X30955Y12143D01*
X30937Y12226D01*
X30916Y12308D01*
X30891Y12389D01*
X30862Y12469D01*
X30830Y12547D01*
X30794Y12623D01*
X30754Y12698D01*
X30711Y12771D01*
X30665Y12842D01*
X30616Y12911D01*
X30563Y12978D01*
X30507Y13042D01*
X30449Y13103D01*
X30388Y13161D01*
X30324Y13217D01*
X30257Y13270D01*
X30188Y13319D01*
X30117Y13365D01*
X30044Y13408D01*
X29969Y13448D01*
X29893Y13484D01*
X29815Y13516D01*
X29735Y13545D01*
X29654Y13570D01*
X29572Y13591D01*
X29489Y13609D01*
X29405Y13622D01*
X29321Y13632D01*
X29237Y13638D01*
X29152Y13640D01*
X29152Y13641D02*
X26216Y13641D01*
X26216Y13640D02*
X26131Y13638D01*
X26047Y13632D01*
X25963Y13622D01*
X25879Y13609D01*
X25796Y13591D01*
X25714Y13570D01*
X25633Y13545D01*
X25553Y13516D01*
X25475Y13484D01*
X25399Y13448D01*
X25324Y13408D01*
X25251Y13365D01*
X25180Y13319D01*
X25111Y13270D01*
X25044Y13217D01*
X24980Y13161D01*
X24919Y13103D01*
X24861Y13042D01*
X24805Y12978D01*
X24752Y12911D01*
X24703Y12842D01*
X24657Y12771D01*
X24614Y12698D01*
X24574Y12623D01*
X24538Y12547D01*
X24506Y12469D01*
X24477Y12389D01*
X24452Y12308D01*
X24431Y12226D01*
X24413Y12143D01*
X24400Y12059D01*
X24390Y11975D01*
X24384Y11891D01*
X24382Y11806D01*
X24382Y9972D01*
X24382Y17902D02*
X30986Y17902D01*
X24382Y17169D02*
X24382Y18636D01*
X30986Y18636D02*
X30986Y17169D01*
X29152Y21920D02*
X26216Y21920D01*
X29152Y21921D02*
X29237Y21923D01*
X29321Y21929D01*
X29405Y21939D01*
X29489Y21952D01*
X29572Y21970D01*
X29654Y21991D01*
X29735Y22016D01*
X29815Y22045D01*
X29893Y22077D01*
X29969Y22113D01*
X30044Y22153D01*
X30117Y22196D01*
X30188Y22242D01*
X30257Y22291D01*
X30324Y22344D01*
X30388Y22400D01*
X30449Y22458D01*
X30507Y22519D01*
X30563Y22583D01*
X30616Y22650D01*
X30665Y22719D01*
X30711Y22790D01*
X30754Y22863D01*
X30794Y22938D01*
X30830Y23014D01*
X30862Y23092D01*
X30891Y23172D01*
X30916Y23253D01*
X30937Y23335D01*
X30955Y23418D01*
X30968Y23502D01*
X30978Y23586D01*
X30984Y23670D01*
X30986Y23755D01*
X30984Y23840D01*
X30978Y23924D01*
X30968Y24008D01*
X30955Y24092D01*
X30937Y24175D01*
X30916Y24257D01*
X30891Y24338D01*
X30862Y24418D01*
X30830Y24496D01*
X30794Y24572D01*
X30754Y24647D01*
X30711Y24720D01*
X30665Y24791D01*
X30616Y24860D01*
X30563Y24927D01*
X30507Y24991D01*
X30449Y25052D01*
X30388Y25110D01*
X30324Y25166D01*
X30257Y25219D01*
X30188Y25268D01*
X30117Y25314D01*
X30044Y25357D01*
X29969Y25397D01*
X29893Y25433D01*
X29815Y25465D01*
X29735Y25494D01*
X29654Y25519D01*
X29572Y25540D01*
X29489Y25558D01*
X29405Y25571D01*
X29321Y25581D01*
X29237Y25587D01*
X29152Y25589D01*
X26216Y25589D01*
X26131Y25587D01*
X26047Y25581D01*
X25963Y25571D01*
X25879Y25558D01*
X25796Y25540D01*
X25714Y25519D01*
X25633Y25494D01*
X25553Y25465D01*
X25475Y25433D01*
X25399Y25397D01*
X25324Y25357D01*
X25251Y25314D01*
X25180Y25268D01*
X25111Y25219D01*
X25044Y25166D01*
X24980Y25110D01*
X24919Y25052D01*
X24861Y24991D01*
X24805Y24927D01*
X24752Y24860D01*
X24703Y24791D01*
X24657Y24720D01*
X24614Y24647D01*
X24574Y24572D01*
X24538Y24496D01*
X24506Y24418D01*
X24477Y24338D01*
X24452Y24257D01*
X24431Y24175D01*
X24413Y24092D01*
X24400Y24008D01*
X24390Y23924D01*
X24384Y23840D01*
X24382Y23755D01*
X24384Y23670D01*
X24390Y23586D01*
X24400Y23502D01*
X24413Y23418D01*
X24431Y23335D01*
X24452Y23253D01*
X24477Y23172D01*
X24506Y23092D01*
X24538Y23014D01*
X24574Y22938D01*
X24614Y22863D01*
X24657Y22790D01*
X24703Y22719D01*
X24752Y22650D01*
X24805Y22583D01*
X24861Y22519D01*
X24919Y22458D01*
X24980Y22400D01*
X25044Y22344D01*
X25111Y22291D01*
X25180Y22242D01*
X25251Y22196D01*
X25324Y22153D01*
X25399Y22113D01*
X25475Y22077D01*
X25553Y22045D01*
X25633Y22016D01*
X25714Y21991D01*
X25796Y21970D01*
X25879Y21952D01*
X25963Y21939D01*
X26047Y21929D01*
X26131Y21923D01*
X26216Y21921D01*
X29518Y29235D02*
X30986Y31070D01*
X24382Y31070D01*
X24382Y32904D02*
X24382Y29235D01*
X29518Y36551D02*
X30986Y38385D01*
X24382Y38385D01*
X24382Y36551D02*
X24382Y40219D01*
X178124Y132654D02*
X178124Y139258D01*
X176290Y139258D01*
X176205Y139256D01*
X176121Y139250D01*
X176037Y139240D01*
X175953Y139227D01*
X175870Y139209D01*
X175788Y139188D01*
X175707Y139163D01*
X175627Y139134D01*
X175549Y139102D01*
X175473Y139066D01*
X175398Y139026D01*
X175325Y138983D01*
X175254Y138937D01*
X175185Y138888D01*
X175118Y138835D01*
X175054Y138779D01*
X174993Y138721D01*
X174935Y138660D01*
X174879Y138596D01*
X174826Y138529D01*
X174777Y138460D01*
X174731Y138389D01*
X174688Y138316D01*
X174648Y138241D01*
X174612Y138165D01*
X174580Y138087D01*
X174551Y138007D01*
X174526Y137926D01*
X174505Y137844D01*
X174487Y137761D01*
X174474Y137677D01*
X174464Y137593D01*
X174458Y137509D01*
X174456Y137424D01*
X174455Y137424D02*
X174455Y134488D01*
X174456Y134488D02*
X174458Y134403D01*
X174464Y134319D01*
X174474Y134235D01*
X174487Y134151D01*
X174505Y134068D01*
X174526Y133986D01*
X174551Y133905D01*
X174580Y133825D01*
X174612Y133747D01*
X174648Y133671D01*
X174688Y133596D01*
X174731Y133523D01*
X174777Y133452D01*
X174826Y133383D01*
X174879Y133316D01*
X174935Y133252D01*
X174993Y133191D01*
X175054Y133133D01*
X175118Y133077D01*
X175185Y133024D01*
X175254Y132975D01*
X175325Y132929D01*
X175398Y132886D01*
X175473Y132846D01*
X175549Y132810D01*
X175627Y132778D01*
X175707Y132749D01*
X175788Y132724D01*
X175870Y132703D01*
X175953Y132685D01*
X176037Y132672D01*
X176121Y132662D01*
X176205Y132656D01*
X176290Y132654D01*
X178124Y132654D01*
X170194Y132654D02*
X170194Y139258D01*
X170928Y132654D02*
X169460Y132654D01*
X169460Y139258D02*
X170928Y139258D01*
X166176Y137424D02*
X166176Y134488D01*
X166176Y137424D02*
X166174Y137509D01*
X166168Y137593D01*
X166158Y137677D01*
X166145Y137761D01*
X166127Y137844D01*
X166106Y137926D01*
X166081Y138007D01*
X166052Y138087D01*
X166020Y138165D01*
X165984Y138241D01*
X165944Y138316D01*
X165901Y138389D01*
X165855Y138460D01*
X165806Y138529D01*
X165753Y138596D01*
X165697Y138660D01*
X165639Y138721D01*
X165578Y138779D01*
X165514Y138835D01*
X165447Y138888D01*
X165378Y138937D01*
X165307Y138983D01*
X165234Y139026D01*
X165159Y139066D01*
X165083Y139102D01*
X165005Y139134D01*
X164925Y139163D01*
X164844Y139188D01*
X164762Y139209D01*
X164679Y139227D01*
X164595Y139240D01*
X164511Y139250D01*
X164427Y139256D01*
X164342Y139258D01*
X164257Y139256D01*
X164173Y139250D01*
X164089Y139240D01*
X164005Y139227D01*
X163922Y139209D01*
X163840Y139188D01*
X163759Y139163D01*
X163679Y139134D01*
X163601Y139102D01*
X163525Y139066D01*
X163450Y139026D01*
X163377Y138983D01*
X163306Y138937D01*
X163237Y138888D01*
X163170Y138835D01*
X163106Y138779D01*
X163045Y138721D01*
X162987Y138660D01*
X162931Y138596D01*
X162878Y138529D01*
X162829Y138460D01*
X162783Y138389D01*
X162740Y138316D01*
X162700Y138241D01*
X162664Y138165D01*
X162632Y138087D01*
X162603Y138007D01*
X162578Y137926D01*
X162557Y137844D01*
X162539Y137761D01*
X162526Y137677D01*
X162516Y137593D01*
X162510Y137509D01*
X162508Y137424D01*
X162507Y137424D02*
X162507Y134488D01*
X162508Y134488D02*
X162510Y134403D01*
X162516Y134319D01*
X162526Y134235D01*
X162539Y134151D01*
X162557Y134068D01*
X162578Y133986D01*
X162603Y133905D01*
X162632Y133825D01*
X162664Y133747D01*
X162700Y133671D01*
X162740Y133596D01*
X162783Y133523D01*
X162829Y133452D01*
X162878Y133383D01*
X162931Y133316D01*
X162987Y133252D01*
X163045Y133191D01*
X163106Y133133D01*
X163170Y133077D01*
X163237Y133024D01*
X163306Y132975D01*
X163377Y132929D01*
X163450Y132886D01*
X163525Y132846D01*
X163601Y132810D01*
X163679Y132778D01*
X163759Y132749D01*
X163840Y132724D01*
X163922Y132703D01*
X164005Y132685D01*
X164089Y132672D01*
X164173Y132662D01*
X164257Y132656D01*
X164342Y132654D01*
X164427Y132656D01*
X164511Y132662D01*
X164595Y132672D01*
X164679Y132685D01*
X164762Y132703D01*
X164844Y132724D01*
X164925Y132749D01*
X165005Y132778D01*
X165083Y132810D01*
X165159Y132846D01*
X165234Y132886D01*
X165307Y132929D01*
X165378Y132975D01*
X165447Y133024D01*
X165514Y133077D01*
X165578Y133133D01*
X165639Y133191D01*
X165697Y133252D01*
X165753Y133316D01*
X165806Y133383D01*
X165855Y133452D01*
X165901Y133523D01*
X165944Y133596D01*
X165984Y133671D01*
X166020Y133747D01*
X166052Y133825D01*
X166081Y133905D01*
X166106Y133986D01*
X166127Y134068D01*
X166145Y134151D01*
X166158Y134235D01*
X166168Y134319D01*
X166174Y134403D01*
X166176Y134488D01*
X158861Y134122D02*
X157393Y139258D01*
X158861Y134122D02*
X155192Y134122D01*
X156293Y135589D02*
X156293Y132654D01*
X178124Y125288D02*
X178124Y118684D01*
X178124Y125288D02*
X176290Y125288D01*
X176205Y125286D01*
X176121Y125280D01*
X176037Y125270D01*
X175953Y125257D01*
X175870Y125239D01*
X175788Y125218D01*
X175707Y125193D01*
X175627Y125164D01*
X175549Y125132D01*
X175473Y125096D01*
X175398Y125056D01*
X175325Y125013D01*
X175254Y124967D01*
X175185Y124918D01*
X175118Y124865D01*
X175054Y124809D01*
X174993Y124751D01*
X174935Y124690D01*
X174879Y124626D01*
X174826Y124559D01*
X174777Y124490D01*
X174731Y124419D01*
X174688Y124346D01*
X174648Y124271D01*
X174612Y124195D01*
X174580Y124117D01*
X174551Y124037D01*
X174526Y123956D01*
X174505Y123874D01*
X174487Y123791D01*
X174474Y123707D01*
X174464Y123623D01*
X174458Y123539D01*
X174456Y123454D01*
X174455Y123454D02*
X174455Y120518D01*
X174456Y120518D02*
X174458Y120433D01*
X174464Y120349D01*
X174474Y120265D01*
X174487Y120181D01*
X174505Y120098D01*
X174526Y120016D01*
X174551Y119935D01*
X174580Y119855D01*
X174612Y119777D01*
X174648Y119701D01*
X174688Y119626D01*
X174731Y119553D01*
X174777Y119482D01*
X174826Y119413D01*
X174879Y119346D01*
X174935Y119282D01*
X174993Y119221D01*
X175054Y119163D01*
X175118Y119107D01*
X175185Y119054D01*
X175254Y119005D01*
X175325Y118959D01*
X175398Y118916D01*
X175473Y118876D01*
X175549Y118840D01*
X175627Y118808D01*
X175707Y118779D01*
X175788Y118754D01*
X175870Y118733D01*
X175953Y118715D01*
X176037Y118702D01*
X176121Y118692D01*
X176205Y118686D01*
X176290Y118684D01*
X178124Y118684D01*
X170194Y118684D02*
X170194Y125288D01*
X170928Y118684D02*
X169460Y118684D01*
X169460Y125288D02*
X170928Y125288D01*
X166176Y123454D02*
X166176Y120518D01*
X166176Y123454D02*
X166174Y123539D01*
X166168Y123623D01*
X166158Y123707D01*
X166145Y123791D01*
X166127Y123874D01*
X166106Y123956D01*
X166081Y124037D01*
X166052Y124117D01*
X166020Y124195D01*
X165984Y124271D01*
X165944Y124346D01*
X165901Y124419D01*
X165855Y124490D01*
X165806Y124559D01*
X165753Y124626D01*
X165697Y124690D01*
X165639Y124751D01*
X165578Y124809D01*
X165514Y124865D01*
X165447Y124918D01*
X165378Y124967D01*
X165307Y125013D01*
X165234Y125056D01*
X165159Y125096D01*
X165083Y125132D01*
X165005Y125164D01*
X164925Y125193D01*
X164844Y125218D01*
X164762Y125239D01*
X164679Y125257D01*
X164595Y125270D01*
X164511Y125280D01*
X164427Y125286D01*
X164342Y125288D01*
X164257Y125286D01*
X164173Y125280D01*
X164089Y125270D01*
X164005Y125257D01*
X163922Y125239D01*
X163840Y125218D01*
X163759Y125193D01*
X163679Y125164D01*
X163601Y125132D01*
X163525Y125096D01*
X163450Y125056D01*
X163377Y125013D01*
X163306Y124967D01*
X163237Y124918D01*
X163170Y124865D01*
X163106Y124809D01*
X163045Y124751D01*
X162987Y124690D01*
X162931Y124626D01*
X162878Y124559D01*
X162829Y124490D01*
X162783Y124419D01*
X162740Y124346D01*
X162700Y124271D01*
X162664Y124195D01*
X162632Y124117D01*
X162603Y124037D01*
X162578Y123956D01*
X162557Y123874D01*
X162539Y123791D01*
X162526Y123707D01*
X162516Y123623D01*
X162510Y123539D01*
X162508Y123454D01*
X162507Y123454D02*
X162507Y120518D01*
X162508Y120518D02*
X162510Y120433D01*
X162516Y120349D01*
X162526Y120265D01*
X162539Y120181D01*
X162557Y120098D01*
X162578Y120016D01*
X162603Y119935D01*
X162632Y119855D01*
X162664Y119777D01*
X162700Y119701D01*
X162740Y119626D01*
X162783Y119553D01*
X162829Y119482D01*
X162878Y119413D01*
X162931Y119346D01*
X162987Y119282D01*
X163045Y119221D01*
X163106Y119163D01*
X163170Y119107D01*
X163237Y119054D01*
X163306Y119005D01*
X163377Y118959D01*
X163450Y118916D01*
X163525Y118876D01*
X163601Y118840D01*
X163679Y118808D01*
X163759Y118779D01*
X163840Y118754D01*
X163922Y118733D01*
X164005Y118715D01*
X164089Y118702D01*
X164173Y118692D01*
X164257Y118686D01*
X164342Y118684D01*
X164427Y118686D01*
X164511Y118692D01*
X164595Y118702D01*
X164679Y118715D01*
X164762Y118733D01*
X164844Y118754D01*
X164925Y118779D01*
X165005Y118808D01*
X165083Y118840D01*
X165159Y118876D01*
X165234Y118916D01*
X165307Y118959D01*
X165378Y119005D01*
X165447Y119054D01*
X165514Y119107D01*
X165578Y119163D01*
X165639Y119221D01*
X165697Y119282D01*
X165753Y119346D01*
X165806Y119413D01*
X165855Y119482D01*
X165901Y119553D01*
X165944Y119626D01*
X165984Y119701D01*
X166020Y119777D01*
X166052Y119855D01*
X166081Y119935D01*
X166106Y120016D01*
X166127Y120098D01*
X166145Y120181D01*
X166158Y120265D01*
X166168Y120349D01*
X166174Y120433D01*
X166176Y120518D01*
X158861Y118684D02*
X156660Y118684D01*
X156586Y118686D01*
X156511Y118692D01*
X156438Y118701D01*
X156364Y118714D01*
X156292Y118731D01*
X156221Y118751D01*
X156150Y118775D01*
X156081Y118803D01*
X156014Y118834D01*
X155948Y118868D01*
X155883Y118906D01*
X155821Y118947D01*
X155761Y118991D01*
X155704Y119038D01*
X155649Y119088D01*
X155596Y119141D01*
X155546Y119196D01*
X155499Y119253D01*
X155455Y119313D01*
X155414Y119375D01*
X155376Y119440D01*
X155342Y119505D01*
X155311Y119573D01*
X155283Y119642D01*
X155259Y119713D01*
X155239Y119784D01*
X155222Y119856D01*
X155209Y119930D01*
X155200Y120003D01*
X155194Y120078D01*
X155192Y120152D01*
X155192Y120885D01*
X155194Y120959D01*
X155200Y121034D01*
X155209Y121107D01*
X155222Y121181D01*
X155239Y121253D01*
X155259Y121324D01*
X155283Y121395D01*
X155311Y121464D01*
X155342Y121531D01*
X155376Y121597D01*
X155414Y121662D01*
X155455Y121724D01*
X155499Y121784D01*
X155546Y121841D01*
X155596Y121896D01*
X155649Y121949D01*
X155704Y121999D01*
X155761Y122046D01*
X155821Y122090D01*
X155883Y122131D01*
X155948Y122169D01*
X156014Y122203D01*
X156081Y122234D01*
X156150Y122262D01*
X156221Y122286D01*
X156292Y122306D01*
X156364Y122323D01*
X156438Y122336D01*
X156511Y122345D01*
X156586Y122351D01*
X156660Y122353D01*
X158861Y122353D01*
X158861Y125288D01*
X155192Y125288D01*
X178124Y112588D02*
X178124Y105984D01*
X178124Y112588D02*
X176290Y112588D01*
X176205Y112586D01*
X176121Y112580D01*
X176037Y112570D01*
X175953Y112557D01*
X175870Y112539D01*
X175788Y112518D01*
X175707Y112493D01*
X175627Y112464D01*
X175549Y112432D01*
X175473Y112396D01*
X175398Y112356D01*
X175325Y112313D01*
X175254Y112267D01*
X175185Y112218D01*
X175118Y112165D01*
X175054Y112109D01*
X174993Y112051D01*
X174935Y111990D01*
X174879Y111926D01*
X174826Y111859D01*
X174777Y111790D01*
X174731Y111719D01*
X174688Y111646D01*
X174648Y111571D01*
X174612Y111495D01*
X174580Y111417D01*
X174551Y111337D01*
X174526Y111256D01*
X174505Y111174D01*
X174487Y111091D01*
X174474Y111007D01*
X174464Y110923D01*
X174458Y110839D01*
X174456Y110754D01*
X174455Y110754D02*
X174455Y107818D01*
X174456Y107818D02*
X174458Y107733D01*
X174464Y107649D01*
X174474Y107565D01*
X174487Y107481D01*
X174505Y107398D01*
X174526Y107316D01*
X174551Y107235D01*
X174580Y107155D01*
X174612Y107077D01*
X174648Y107001D01*
X174688Y106926D01*
X174731Y106853D01*
X174777Y106782D01*
X174826Y106713D01*
X174879Y106646D01*
X174935Y106582D01*
X174993Y106521D01*
X175054Y106463D01*
X175118Y106407D01*
X175185Y106354D01*
X175254Y106305D01*
X175325Y106259D01*
X175398Y106216D01*
X175473Y106176D01*
X175549Y106140D01*
X175627Y106108D01*
X175707Y106079D01*
X175788Y106054D01*
X175870Y106033D01*
X175953Y106015D01*
X176037Y106002D01*
X176121Y105992D01*
X176205Y105986D01*
X176290Y105984D01*
X178124Y105984D01*
X170194Y105984D02*
X170194Y112588D01*
X170928Y105984D02*
X169460Y105984D01*
X169460Y112588D02*
X170928Y112588D01*
X166176Y110754D02*
X166176Y107818D01*
X166176Y110754D02*
X166174Y110839D01*
X166168Y110923D01*
X166158Y111007D01*
X166145Y111091D01*
X166127Y111174D01*
X166106Y111256D01*
X166081Y111337D01*
X166052Y111417D01*
X166020Y111495D01*
X165984Y111571D01*
X165944Y111646D01*
X165901Y111719D01*
X165855Y111790D01*
X165806Y111859D01*
X165753Y111926D01*
X165697Y111990D01*
X165639Y112051D01*
X165578Y112109D01*
X165514Y112165D01*
X165447Y112218D01*
X165378Y112267D01*
X165307Y112313D01*
X165234Y112356D01*
X165159Y112396D01*
X165083Y112432D01*
X165005Y112464D01*
X164925Y112493D01*
X164844Y112518D01*
X164762Y112539D01*
X164679Y112557D01*
X164595Y112570D01*
X164511Y112580D01*
X164427Y112586D01*
X164342Y112588D01*
X164257Y112586D01*
X164173Y112580D01*
X164089Y112570D01*
X164005Y112557D01*
X163922Y112539D01*
X163840Y112518D01*
X163759Y112493D01*
X163679Y112464D01*
X163601Y112432D01*
X163525Y112396D01*
X163450Y112356D01*
X163377Y112313D01*
X163306Y112267D01*
X163237Y112218D01*
X163170Y112165D01*
X163106Y112109D01*
X163045Y112051D01*
X162987Y111990D01*
X162931Y111926D01*
X162878Y111859D01*
X162829Y111790D01*
X162783Y111719D01*
X162740Y111646D01*
X162700Y111571D01*
X162664Y111495D01*
X162632Y111417D01*
X162603Y111337D01*
X162578Y111256D01*
X162557Y111174D01*
X162539Y111091D01*
X162526Y111007D01*
X162516Y110923D01*
X162510Y110839D01*
X162508Y110754D01*
X162507Y110754D02*
X162507Y107818D01*
X162508Y107818D02*
X162510Y107733D01*
X162516Y107649D01*
X162526Y107565D01*
X162539Y107481D01*
X162557Y107398D01*
X162578Y107316D01*
X162603Y107235D01*
X162632Y107155D01*
X162664Y107077D01*
X162700Y107001D01*
X162740Y106926D01*
X162783Y106853D01*
X162829Y106782D01*
X162878Y106713D01*
X162931Y106646D01*
X162987Y106582D01*
X163045Y106521D01*
X163106Y106463D01*
X163170Y106407D01*
X163237Y106354D01*
X163306Y106305D01*
X163377Y106259D01*
X163450Y106216D01*
X163525Y106176D01*
X163601Y106140D01*
X163679Y106108D01*
X163759Y106079D01*
X163840Y106054D01*
X163922Y106033D01*
X164005Y106015D01*
X164089Y106002D01*
X164173Y105992D01*
X164257Y105986D01*
X164342Y105984D01*
X164427Y105986D01*
X164511Y105992D01*
X164595Y106002D01*
X164679Y106015D01*
X164762Y106033D01*
X164844Y106054D01*
X164925Y106079D01*
X165005Y106108D01*
X165083Y106140D01*
X165159Y106176D01*
X165234Y106216D01*
X165307Y106259D01*
X165378Y106305D01*
X165447Y106354D01*
X165514Y106407D01*
X165578Y106463D01*
X165639Y106521D01*
X165697Y106582D01*
X165753Y106646D01*
X165806Y106713D01*
X165855Y106782D01*
X165901Y106853D01*
X165944Y106926D01*
X165984Y107001D01*
X166020Y107077D01*
X166052Y107155D01*
X166081Y107235D01*
X166106Y107316D01*
X166127Y107398D01*
X166145Y107481D01*
X166158Y107565D01*
X166168Y107649D01*
X166174Y107733D01*
X166176Y107818D01*
X158861Y109653D02*
X156660Y109653D01*
X156586Y109651D01*
X156511Y109645D01*
X156438Y109636D01*
X156364Y109623D01*
X156292Y109606D01*
X156221Y109586D01*
X156150Y109562D01*
X156081Y109534D01*
X156014Y109503D01*
X155948Y109469D01*
X155883Y109431D01*
X155821Y109390D01*
X155761Y109346D01*
X155704Y109299D01*
X155649Y109249D01*
X155596Y109196D01*
X155546Y109141D01*
X155499Y109084D01*
X155455Y109024D01*
X155414Y108962D01*
X155376Y108897D01*
X155342Y108831D01*
X155311Y108764D01*
X155283Y108695D01*
X155259Y108624D01*
X155239Y108553D01*
X155222Y108481D01*
X155209Y108407D01*
X155200Y108334D01*
X155194Y108259D01*
X155192Y108185D01*
X155192Y107818D01*
X155194Y107733D01*
X155200Y107649D01*
X155210Y107565D01*
X155223Y107481D01*
X155241Y107398D01*
X155262Y107316D01*
X155287Y107235D01*
X155316Y107155D01*
X155348Y107077D01*
X155384Y107001D01*
X155424Y106926D01*
X155467Y106853D01*
X155513Y106782D01*
X155562Y106713D01*
X155615Y106646D01*
X155671Y106582D01*
X155729Y106521D01*
X155790Y106463D01*
X155854Y106407D01*
X155921Y106354D01*
X155990Y106305D01*
X156061Y106259D01*
X156134Y106216D01*
X156209Y106176D01*
X156285Y106140D01*
X156363Y106108D01*
X156443Y106079D01*
X156524Y106054D01*
X156606Y106033D01*
X156689Y106015D01*
X156773Y106002D01*
X156857Y105992D01*
X156941Y105986D01*
X157026Y105984D01*
X157111Y105986D01*
X157195Y105992D01*
X157279Y106002D01*
X157363Y106015D01*
X157446Y106033D01*
X157528Y106054D01*
X157609Y106079D01*
X157689Y106108D01*
X157767Y106140D01*
X157843Y106176D01*
X157918Y106216D01*
X157991Y106259D01*
X158062Y106305D01*
X158131Y106354D01*
X158198Y106407D01*
X158262Y106463D01*
X158323Y106521D01*
X158381Y106582D01*
X158437Y106646D01*
X158490Y106713D01*
X158539Y106782D01*
X158585Y106853D01*
X158628Y106926D01*
X158668Y107001D01*
X158704Y107077D01*
X158736Y107155D01*
X158765Y107235D01*
X158790Y107316D01*
X158811Y107398D01*
X158829Y107481D01*
X158842Y107565D01*
X158852Y107649D01*
X158858Y107733D01*
X158860Y107818D01*
X158861Y107818D02*
X158861Y109653D01*
X158859Y109760D01*
X158853Y109867D01*
X158843Y109974D01*
X158830Y110080D01*
X158812Y110186D01*
X158791Y110291D01*
X158766Y110395D01*
X158737Y110499D01*
X158704Y110601D01*
X158667Y110701D01*
X158627Y110801D01*
X158583Y110899D01*
X158536Y110995D01*
X158485Y111089D01*
X158431Y111182D01*
X158374Y111272D01*
X158313Y111361D01*
X158249Y111447D01*
X158182Y111530D01*
X158112Y111612D01*
X158039Y111690D01*
X157963Y111766D01*
X157885Y111839D01*
X157803Y111909D01*
X157720Y111976D01*
X157634Y112040D01*
X157545Y112101D01*
X157455Y112158D01*
X157362Y112212D01*
X157268Y112263D01*
X157172Y112310D01*
X157074Y112354D01*
X156975Y112394D01*
X156874Y112431D01*
X156772Y112464D01*
X156668Y112493D01*
X156564Y112518D01*
X156459Y112539D01*
X156353Y112557D01*
X156247Y112570D01*
X156140Y112580D01*
X156033Y112586D01*
X155926Y112588D01*
X178124Y99888D02*
X178124Y93284D01*
X178124Y99888D02*
X176290Y99888D01*
X176205Y99886D01*
X176121Y99880D01*
X176037Y99870D01*
X175953Y99857D01*
X175870Y99839D01*
X175788Y99818D01*
X175707Y99793D01*
X175627Y99764D01*
X175549Y99732D01*
X175473Y99696D01*
X175398Y99656D01*
X175325Y99613D01*
X175254Y99567D01*
X175185Y99518D01*
X175118Y99465D01*
X175054Y99409D01*
X174993Y99351D01*
X174935Y99290D01*
X174879Y99226D01*
X174826Y99159D01*
X174777Y99090D01*
X174731Y99019D01*
X174688Y98946D01*
X174648Y98871D01*
X174612Y98795D01*
X174580Y98717D01*
X174551Y98637D01*
X174526Y98556D01*
X174505Y98474D01*
X174487Y98391D01*
X174474Y98307D01*
X174464Y98223D01*
X174458Y98139D01*
X174456Y98054D01*
X174455Y98054D02*
X174455Y95118D01*
X174456Y95118D02*
X174458Y95033D01*
X174464Y94949D01*
X174474Y94865D01*
X174487Y94781D01*
X174505Y94698D01*
X174526Y94616D01*
X174551Y94535D01*
X174580Y94455D01*
X174612Y94377D01*
X174648Y94301D01*
X174688Y94226D01*
X174731Y94153D01*
X174777Y94082D01*
X174826Y94013D01*
X174879Y93946D01*
X174935Y93882D01*
X174993Y93821D01*
X175054Y93763D01*
X175118Y93707D01*
X175185Y93654D01*
X175254Y93605D01*
X175325Y93559D01*
X175398Y93516D01*
X175473Y93476D01*
X175549Y93440D01*
X175627Y93408D01*
X175707Y93379D01*
X175788Y93354D01*
X175870Y93333D01*
X175953Y93315D01*
X176037Y93302D01*
X176121Y93292D01*
X176205Y93286D01*
X176290Y93284D01*
X178124Y93284D01*
X170194Y93284D02*
X170194Y99888D01*
X170928Y93284D02*
X169460Y93284D01*
X169460Y99888D02*
X170928Y99888D01*
X166176Y98054D02*
X166176Y95118D01*
X166176Y98054D02*
X166174Y98139D01*
X166168Y98223D01*
X166158Y98307D01*
X166145Y98391D01*
X166127Y98474D01*
X166106Y98556D01*
X166081Y98637D01*
X166052Y98717D01*
X166020Y98795D01*
X165984Y98871D01*
X165944Y98946D01*
X165901Y99019D01*
X165855Y99090D01*
X165806Y99159D01*
X165753Y99226D01*
X165697Y99290D01*
X165639Y99351D01*
X165578Y99409D01*
X165514Y99465D01*
X165447Y99518D01*
X165378Y99567D01*
X165307Y99613D01*
X165234Y99656D01*
X165159Y99696D01*
X165083Y99732D01*
X165005Y99764D01*
X164925Y99793D01*
X164844Y99818D01*
X164762Y99839D01*
X164679Y99857D01*
X164595Y99870D01*
X164511Y99880D01*
X164427Y99886D01*
X164342Y99888D01*
X164257Y99886D01*
X164173Y99880D01*
X164089Y99870D01*
X164005Y99857D01*
X163922Y99839D01*
X163840Y99818D01*
X163759Y99793D01*
X163679Y99764D01*
X163601Y99732D01*
X163525Y99696D01*
X163450Y99656D01*
X163377Y99613D01*
X163306Y99567D01*
X163237Y99518D01*
X163170Y99465D01*
X163106Y99409D01*
X163045Y99351D01*
X162987Y99290D01*
X162931Y99226D01*
X162878Y99159D01*
X162829Y99090D01*
X162783Y99019D01*
X162740Y98946D01*
X162700Y98871D01*
X162664Y98795D01*
X162632Y98717D01*
X162603Y98637D01*
X162578Y98556D01*
X162557Y98474D01*
X162539Y98391D01*
X162526Y98307D01*
X162516Y98223D01*
X162510Y98139D01*
X162508Y98054D01*
X162507Y98054D02*
X162507Y95118D01*
X162508Y95118D02*
X162510Y95033D01*
X162516Y94949D01*
X162526Y94865D01*
X162539Y94781D01*
X162557Y94698D01*
X162578Y94616D01*
X162603Y94535D01*
X162632Y94455D01*
X162664Y94377D01*
X162700Y94301D01*
X162740Y94226D01*
X162783Y94153D01*
X162829Y94082D01*
X162878Y94013D01*
X162931Y93946D01*
X162987Y93882D01*
X163045Y93821D01*
X163106Y93763D01*
X163170Y93707D01*
X163237Y93654D01*
X163306Y93605D01*
X163377Y93559D01*
X163450Y93516D01*
X163525Y93476D01*
X163601Y93440D01*
X163679Y93408D01*
X163759Y93379D01*
X163840Y93354D01*
X163922Y93333D01*
X164005Y93315D01*
X164089Y93302D01*
X164173Y93292D01*
X164257Y93286D01*
X164342Y93284D01*
X164427Y93286D01*
X164511Y93292D01*
X164595Y93302D01*
X164679Y93315D01*
X164762Y93333D01*
X164844Y93354D01*
X164925Y93379D01*
X165005Y93408D01*
X165083Y93440D01*
X165159Y93476D01*
X165234Y93516D01*
X165307Y93559D01*
X165378Y93605D01*
X165447Y93654D01*
X165514Y93707D01*
X165578Y93763D01*
X165639Y93821D01*
X165697Y93882D01*
X165753Y93946D01*
X165806Y94013D01*
X165855Y94082D01*
X165901Y94153D01*
X165944Y94226D01*
X165984Y94301D01*
X166020Y94377D01*
X166052Y94455D01*
X166081Y94535D01*
X166106Y94616D01*
X166127Y94698D01*
X166145Y94781D01*
X166158Y94865D01*
X166168Y94949D01*
X166174Y95033D01*
X166176Y95118D01*
X158861Y99154D02*
X158861Y99888D01*
X155192Y99888D01*
X157026Y93284D01*
X178124Y87188D02*
X178124Y80584D01*
X178124Y87188D02*
X176290Y87188D01*
X176205Y87186D01*
X176121Y87180D01*
X176037Y87170D01*
X175953Y87157D01*
X175870Y87139D01*
X175788Y87118D01*
X175707Y87093D01*
X175627Y87064D01*
X175549Y87032D01*
X175473Y86996D01*
X175398Y86956D01*
X175325Y86913D01*
X175254Y86867D01*
X175185Y86818D01*
X175118Y86765D01*
X175054Y86709D01*
X174993Y86651D01*
X174935Y86590D01*
X174879Y86526D01*
X174826Y86459D01*
X174777Y86390D01*
X174731Y86319D01*
X174688Y86246D01*
X174648Y86171D01*
X174612Y86095D01*
X174580Y86017D01*
X174551Y85937D01*
X174526Y85856D01*
X174505Y85774D01*
X174487Y85691D01*
X174474Y85607D01*
X174464Y85523D01*
X174458Y85439D01*
X174456Y85354D01*
X174455Y85354D02*
X174455Y82418D01*
X174456Y82418D02*
X174458Y82333D01*
X174464Y82249D01*
X174474Y82165D01*
X174487Y82081D01*
X174505Y81998D01*
X174526Y81916D01*
X174551Y81835D01*
X174580Y81755D01*
X174612Y81677D01*
X174648Y81601D01*
X174688Y81526D01*
X174731Y81453D01*
X174777Y81382D01*
X174826Y81313D01*
X174879Y81246D01*
X174935Y81182D01*
X174993Y81121D01*
X175054Y81063D01*
X175118Y81007D01*
X175185Y80954D01*
X175254Y80905D01*
X175325Y80859D01*
X175398Y80816D01*
X175473Y80776D01*
X175549Y80740D01*
X175627Y80708D01*
X175707Y80679D01*
X175788Y80654D01*
X175870Y80633D01*
X175953Y80615D01*
X176037Y80602D01*
X176121Y80592D01*
X176205Y80586D01*
X176290Y80584D01*
X178124Y80584D01*
X170194Y80584D02*
X170194Y87188D01*
X170928Y80584D02*
X169460Y80584D01*
X169460Y87188D02*
X170928Y87188D01*
X166176Y85354D02*
X166176Y82418D01*
X166176Y85354D02*
X166174Y85439D01*
X166168Y85523D01*
X166158Y85607D01*
X166145Y85691D01*
X166127Y85774D01*
X166106Y85856D01*
X166081Y85937D01*
X166052Y86017D01*
X166020Y86095D01*
X165984Y86171D01*
X165944Y86246D01*
X165901Y86319D01*
X165855Y86390D01*
X165806Y86459D01*
X165753Y86526D01*
X165697Y86590D01*
X165639Y86651D01*
X165578Y86709D01*
X165514Y86765D01*
X165447Y86818D01*
X165378Y86867D01*
X165307Y86913D01*
X165234Y86956D01*
X165159Y86996D01*
X165083Y87032D01*
X165005Y87064D01*
X164925Y87093D01*
X164844Y87118D01*
X164762Y87139D01*
X164679Y87157D01*
X164595Y87170D01*
X164511Y87180D01*
X164427Y87186D01*
X164342Y87188D01*
X164257Y87186D01*
X164173Y87180D01*
X164089Y87170D01*
X164005Y87157D01*
X163922Y87139D01*
X163840Y87118D01*
X163759Y87093D01*
X163679Y87064D01*
X163601Y87032D01*
X163525Y86996D01*
X163450Y86956D01*
X163377Y86913D01*
X163306Y86867D01*
X163237Y86818D01*
X163170Y86765D01*
X163106Y86709D01*
X163045Y86651D01*
X162987Y86590D01*
X162931Y86526D01*
X162878Y86459D01*
X162829Y86390D01*
X162783Y86319D01*
X162740Y86246D01*
X162700Y86171D01*
X162664Y86095D01*
X162632Y86017D01*
X162603Y85937D01*
X162578Y85856D01*
X162557Y85774D01*
X162539Y85691D01*
X162526Y85607D01*
X162516Y85523D01*
X162510Y85439D01*
X162508Y85354D01*
X162507Y85354D02*
X162507Y82418D01*
X162508Y82418D02*
X162510Y82333D01*
X162516Y82249D01*
X162526Y82165D01*
X162539Y82081D01*
X162557Y81998D01*
X162578Y81916D01*
X162603Y81835D01*
X162632Y81755D01*
X162664Y81677D01*
X162700Y81601D01*
X162740Y81526D01*
X162783Y81453D01*
X162829Y81382D01*
X162878Y81313D01*
X162931Y81246D01*
X162987Y81182D01*
X163045Y81121D01*
X163106Y81063D01*
X163170Y81007D01*
X163237Y80954D01*
X163306Y80905D01*
X163377Y80859D01*
X163450Y80816D01*
X163525Y80776D01*
X163601Y80740D01*
X163679Y80708D01*
X163759Y80679D01*
X163840Y80654D01*
X163922Y80633D01*
X164005Y80615D01*
X164089Y80602D01*
X164173Y80592D01*
X164257Y80586D01*
X164342Y80584D01*
X164427Y80586D01*
X164511Y80592D01*
X164595Y80602D01*
X164679Y80615D01*
X164762Y80633D01*
X164844Y80654D01*
X164925Y80679D01*
X165005Y80708D01*
X165083Y80740D01*
X165159Y80776D01*
X165234Y80816D01*
X165307Y80859D01*
X165378Y80905D01*
X165447Y80954D01*
X165514Y81007D01*
X165578Y81063D01*
X165639Y81121D01*
X165697Y81182D01*
X165753Y81246D01*
X165806Y81313D01*
X165855Y81382D01*
X165901Y81453D01*
X165944Y81526D01*
X165984Y81601D01*
X166020Y81677D01*
X166052Y81755D01*
X166081Y81835D01*
X166106Y81916D01*
X166127Y81998D01*
X166145Y82081D01*
X166158Y82165D01*
X166168Y82249D01*
X166174Y82333D01*
X166176Y82418D01*
X158860Y82418D02*
X158858Y82503D01*
X158852Y82587D01*
X158842Y82671D01*
X158829Y82755D01*
X158811Y82838D01*
X158790Y82920D01*
X158765Y83001D01*
X158736Y83081D01*
X158704Y83159D01*
X158668Y83235D01*
X158628Y83310D01*
X158585Y83383D01*
X158539Y83454D01*
X158490Y83523D01*
X158437Y83590D01*
X158381Y83654D01*
X158323Y83715D01*
X158262Y83773D01*
X158198Y83829D01*
X158131Y83882D01*
X158062Y83931D01*
X157991Y83977D01*
X157918Y84020D01*
X157843Y84060D01*
X157767Y84096D01*
X157689Y84128D01*
X157609Y84157D01*
X157528Y84182D01*
X157446Y84203D01*
X157363Y84221D01*
X157279Y84234D01*
X157195Y84244D01*
X157111Y84250D01*
X157026Y84252D01*
X156941Y84250D01*
X156857Y84244D01*
X156773Y84234D01*
X156689Y84221D01*
X156606Y84203D01*
X156524Y84182D01*
X156443Y84157D01*
X156363Y84128D01*
X156285Y84096D01*
X156209Y84060D01*
X156134Y84020D01*
X156061Y83977D01*
X155990Y83931D01*
X155921Y83882D01*
X155854Y83829D01*
X155790Y83773D01*
X155729Y83715D01*
X155671Y83654D01*
X155615Y83590D01*
X155562Y83523D01*
X155513Y83454D01*
X155467Y83383D01*
X155424Y83310D01*
X155384Y83235D01*
X155348Y83159D01*
X155316Y83081D01*
X155287Y83001D01*
X155262Y82920D01*
X155241Y82838D01*
X155223Y82755D01*
X155210Y82671D01*
X155200Y82587D01*
X155194Y82503D01*
X155192Y82418D01*
X155194Y82333D01*
X155200Y82249D01*
X155210Y82165D01*
X155223Y82081D01*
X155241Y81998D01*
X155262Y81916D01*
X155287Y81835D01*
X155316Y81755D01*
X155348Y81677D01*
X155384Y81601D01*
X155424Y81526D01*
X155467Y81453D01*
X155513Y81382D01*
X155562Y81313D01*
X155615Y81246D01*
X155671Y81182D01*
X155729Y81121D01*
X155790Y81063D01*
X155854Y81007D01*
X155921Y80954D01*
X155990Y80905D01*
X156061Y80859D01*
X156134Y80816D01*
X156209Y80776D01*
X156285Y80740D01*
X156363Y80708D01*
X156443Y80679D01*
X156524Y80654D01*
X156606Y80633D01*
X156689Y80615D01*
X156773Y80602D01*
X156857Y80592D01*
X156941Y80586D01*
X157026Y80584D01*
X157111Y80586D01*
X157195Y80592D01*
X157279Y80602D01*
X157363Y80615D01*
X157446Y80633D01*
X157528Y80654D01*
X157609Y80679D01*
X157689Y80708D01*
X157767Y80740D01*
X157843Y80776D01*
X157918Y80816D01*
X157991Y80859D01*
X158062Y80905D01*
X158131Y80954D01*
X158198Y81007D01*
X158262Y81063D01*
X158323Y81121D01*
X158381Y81182D01*
X158437Y81246D01*
X158490Y81313D01*
X158539Y81382D01*
X158585Y81453D01*
X158628Y81526D01*
X158668Y81601D01*
X158704Y81677D01*
X158736Y81755D01*
X158765Y81835D01*
X158790Y81916D01*
X158811Y81998D01*
X158829Y82081D01*
X158842Y82165D01*
X158852Y82249D01*
X158858Y82333D01*
X158860Y82418D01*
X158494Y85720D02*
X158492Y85796D01*
X158486Y85871D01*
X158477Y85946D01*
X158463Y86020D01*
X158446Y86094D01*
X158424Y86166D01*
X158400Y86238D01*
X158371Y86308D01*
X158339Y86376D01*
X158304Y86443D01*
X158265Y86508D01*
X158222Y86571D01*
X158177Y86631D01*
X158129Y86689D01*
X158077Y86745D01*
X158023Y86797D01*
X157966Y86847D01*
X157907Y86894D01*
X157846Y86938D01*
X157782Y86979D01*
X157716Y87016D01*
X157648Y87050D01*
X157579Y87080D01*
X157508Y87107D01*
X157436Y87130D01*
X157363Y87149D01*
X157289Y87164D01*
X157214Y87176D01*
X157139Y87184D01*
X157064Y87188D01*
X156988Y87188D01*
X156913Y87184D01*
X156838Y87176D01*
X156763Y87164D01*
X156689Y87149D01*
X156616Y87130D01*
X156544Y87107D01*
X156473Y87080D01*
X156404Y87050D01*
X156336Y87016D01*
X156270Y86979D01*
X156206Y86938D01*
X156145Y86894D01*
X156086Y86847D01*
X156029Y86797D01*
X155975Y86745D01*
X155923Y86689D01*
X155875Y86631D01*
X155830Y86571D01*
X155787Y86508D01*
X155748Y86443D01*
X155713Y86376D01*
X155681Y86308D01*
X155652Y86238D01*
X155628Y86166D01*
X155606Y86094D01*
X155589Y86020D01*
X155575Y85946D01*
X155566Y85871D01*
X155560Y85796D01*
X155558Y85720D01*
X155560Y85644D01*
X155566Y85569D01*
X155575Y85494D01*
X155589Y85420D01*
X155606Y85346D01*
X155628Y85274D01*
X155652Y85202D01*
X155681Y85132D01*
X155713Y85064D01*
X155748Y84997D01*
X155787Y84932D01*
X155830Y84869D01*
X155875Y84809D01*
X155923Y84751D01*
X155975Y84695D01*
X156029Y84643D01*
X156086Y84593D01*
X156145Y84546D01*
X156206Y84502D01*
X156270Y84461D01*
X156336Y84424D01*
X156404Y84390D01*
X156473Y84360D01*
X156544Y84333D01*
X156616Y84310D01*
X156689Y84291D01*
X156763Y84276D01*
X156838Y84264D01*
X156913Y84256D01*
X156988Y84252D01*
X157064Y84252D01*
X157139Y84256D01*
X157214Y84264D01*
X157289Y84276D01*
X157363Y84291D01*
X157436Y84310D01*
X157508Y84333D01*
X157579Y84360D01*
X157648Y84390D01*
X157716Y84424D01*
X157782Y84461D01*
X157846Y84502D01*
X157907Y84546D01*
X157966Y84593D01*
X158023Y84643D01*
X158077Y84695D01*
X158129Y84751D01*
X158177Y84809D01*
X158222Y84869D01*
X158265Y84932D01*
X158304Y84997D01*
X158339Y85064D01*
X158371Y85132D01*
X158400Y85202D01*
X158424Y85274D01*
X158446Y85346D01*
X158463Y85420D01*
X158477Y85494D01*
X158486Y85569D01*
X158492Y85644D01*
X158494Y85720D01*
X178124Y75758D02*
X178124Y69154D01*
X178124Y75758D02*
X176290Y75758D01*
X176205Y75756D01*
X176121Y75750D01*
X176037Y75740D01*
X175953Y75727D01*
X175870Y75709D01*
X175788Y75688D01*
X175707Y75663D01*
X175627Y75634D01*
X175549Y75602D01*
X175473Y75566D01*
X175398Y75526D01*
X175325Y75483D01*
X175254Y75437D01*
X175185Y75388D01*
X175118Y75335D01*
X175054Y75279D01*
X174993Y75221D01*
X174935Y75160D01*
X174879Y75096D01*
X174826Y75029D01*
X174777Y74960D01*
X174731Y74889D01*
X174688Y74816D01*
X174648Y74741D01*
X174612Y74665D01*
X174580Y74587D01*
X174551Y74507D01*
X174526Y74426D01*
X174505Y74344D01*
X174487Y74261D01*
X174474Y74177D01*
X174464Y74093D01*
X174458Y74009D01*
X174456Y73924D01*
X174455Y73924D02*
X174455Y70988D01*
X174456Y70988D02*
X174458Y70903D01*
X174464Y70819D01*
X174474Y70735D01*
X174487Y70651D01*
X174505Y70568D01*
X174526Y70486D01*
X174551Y70405D01*
X174580Y70325D01*
X174612Y70247D01*
X174648Y70171D01*
X174688Y70096D01*
X174731Y70023D01*
X174777Y69952D01*
X174826Y69883D01*
X174879Y69816D01*
X174935Y69752D01*
X174993Y69691D01*
X175054Y69633D01*
X175118Y69577D01*
X175185Y69524D01*
X175254Y69475D01*
X175325Y69429D01*
X175398Y69386D01*
X175473Y69346D01*
X175549Y69310D01*
X175627Y69278D01*
X175707Y69249D01*
X175788Y69224D01*
X175870Y69203D01*
X175953Y69185D01*
X176037Y69172D01*
X176121Y69162D01*
X176205Y69156D01*
X176290Y69154D01*
X178124Y69154D01*
X170194Y69154D02*
X170194Y75758D01*
X170928Y69154D02*
X169460Y69154D01*
X169460Y75758D02*
X170928Y75758D01*
X166176Y73924D02*
X166176Y70988D01*
X166176Y73924D02*
X166174Y74009D01*
X166168Y74093D01*
X166158Y74177D01*
X166145Y74261D01*
X166127Y74344D01*
X166106Y74426D01*
X166081Y74507D01*
X166052Y74587D01*
X166020Y74665D01*
X165984Y74741D01*
X165944Y74816D01*
X165901Y74889D01*
X165855Y74960D01*
X165806Y75029D01*
X165753Y75096D01*
X165697Y75160D01*
X165639Y75221D01*
X165578Y75279D01*
X165514Y75335D01*
X165447Y75388D01*
X165378Y75437D01*
X165307Y75483D01*
X165234Y75526D01*
X165159Y75566D01*
X165083Y75602D01*
X165005Y75634D01*
X164925Y75663D01*
X164844Y75688D01*
X164762Y75709D01*
X164679Y75727D01*
X164595Y75740D01*
X164511Y75750D01*
X164427Y75756D01*
X164342Y75758D01*
X164257Y75756D01*
X164173Y75750D01*
X164089Y75740D01*
X164005Y75727D01*
X163922Y75709D01*
X163840Y75688D01*
X163759Y75663D01*
X163679Y75634D01*
X163601Y75602D01*
X163525Y75566D01*
X163450Y75526D01*
X163377Y75483D01*
X163306Y75437D01*
X163237Y75388D01*
X163170Y75335D01*
X163106Y75279D01*
X163045Y75221D01*
X162987Y75160D01*
X162931Y75096D01*
X162878Y75029D01*
X162829Y74960D01*
X162783Y74889D01*
X162740Y74816D01*
X162700Y74741D01*
X162664Y74665D01*
X162632Y74587D01*
X162603Y74507D01*
X162578Y74426D01*
X162557Y74344D01*
X162539Y74261D01*
X162526Y74177D01*
X162516Y74093D01*
X162510Y74009D01*
X162508Y73924D01*
X162507Y73924D02*
X162507Y70988D01*
X162508Y70988D02*
X162510Y70903D01*
X162516Y70819D01*
X162526Y70735D01*
X162539Y70651D01*
X162557Y70568D01*
X162578Y70486D01*
X162603Y70405D01*
X162632Y70325D01*
X162664Y70247D01*
X162700Y70171D01*
X162740Y70096D01*
X162783Y70023D01*
X162829Y69952D01*
X162878Y69883D01*
X162931Y69816D01*
X162987Y69752D01*
X163045Y69691D01*
X163106Y69633D01*
X163170Y69577D01*
X163237Y69524D01*
X163306Y69475D01*
X163377Y69429D01*
X163450Y69386D01*
X163525Y69346D01*
X163601Y69310D01*
X163679Y69278D01*
X163759Y69249D01*
X163840Y69224D01*
X163922Y69203D01*
X164005Y69185D01*
X164089Y69172D01*
X164173Y69162D01*
X164257Y69156D01*
X164342Y69154D01*
X164427Y69156D01*
X164511Y69162D01*
X164595Y69172D01*
X164679Y69185D01*
X164762Y69203D01*
X164844Y69224D01*
X164925Y69249D01*
X165005Y69278D01*
X165083Y69310D01*
X165159Y69346D01*
X165234Y69386D01*
X165307Y69429D01*
X165378Y69475D01*
X165447Y69524D01*
X165514Y69577D01*
X165578Y69633D01*
X165639Y69691D01*
X165697Y69752D01*
X165753Y69816D01*
X165806Y69883D01*
X165855Y69952D01*
X165901Y70023D01*
X165944Y70096D01*
X165984Y70171D01*
X166020Y70247D01*
X166052Y70325D01*
X166081Y70405D01*
X166106Y70486D01*
X166127Y70568D01*
X166145Y70651D01*
X166158Y70735D01*
X166168Y70819D01*
X166174Y70903D01*
X166176Y70988D01*
X157393Y72089D02*
X155192Y72089D01*
X157393Y72089D02*
X157467Y72091D01*
X157542Y72097D01*
X157615Y72106D01*
X157689Y72119D01*
X157761Y72136D01*
X157832Y72156D01*
X157903Y72180D01*
X157972Y72208D01*
X158040Y72239D01*
X158105Y72273D01*
X158170Y72311D01*
X158232Y72352D01*
X158292Y72396D01*
X158349Y72443D01*
X158404Y72493D01*
X158457Y72546D01*
X158507Y72601D01*
X158554Y72658D01*
X158598Y72718D01*
X158639Y72780D01*
X158677Y72845D01*
X158711Y72911D01*
X158742Y72978D01*
X158770Y73047D01*
X158794Y73118D01*
X158814Y73189D01*
X158831Y73262D01*
X158844Y73335D01*
X158853Y73409D01*
X158859Y73483D01*
X158861Y73557D01*
X158861Y73924D01*
X158860Y73924D02*
X158858Y74009D01*
X158852Y74093D01*
X158842Y74177D01*
X158829Y74261D01*
X158811Y74344D01*
X158790Y74426D01*
X158765Y74507D01*
X158736Y74587D01*
X158704Y74665D01*
X158668Y74741D01*
X158628Y74816D01*
X158585Y74889D01*
X158539Y74960D01*
X158490Y75029D01*
X158437Y75096D01*
X158381Y75160D01*
X158323Y75221D01*
X158262Y75279D01*
X158198Y75335D01*
X158131Y75388D01*
X158062Y75437D01*
X157991Y75483D01*
X157918Y75526D01*
X157843Y75566D01*
X157767Y75602D01*
X157689Y75634D01*
X157609Y75663D01*
X157528Y75688D01*
X157446Y75709D01*
X157363Y75727D01*
X157279Y75740D01*
X157195Y75750D01*
X157111Y75756D01*
X157026Y75758D01*
X156941Y75756D01*
X156857Y75750D01*
X156773Y75740D01*
X156689Y75727D01*
X156606Y75709D01*
X156524Y75688D01*
X156443Y75663D01*
X156363Y75634D01*
X156285Y75602D01*
X156209Y75566D01*
X156134Y75526D01*
X156061Y75483D01*
X155990Y75437D01*
X155921Y75388D01*
X155854Y75335D01*
X155790Y75279D01*
X155729Y75221D01*
X155671Y75160D01*
X155615Y75096D01*
X155562Y75029D01*
X155513Y74960D01*
X155467Y74889D01*
X155424Y74816D01*
X155384Y74741D01*
X155348Y74665D01*
X155316Y74587D01*
X155287Y74507D01*
X155262Y74426D01*
X155241Y74344D01*
X155223Y74261D01*
X155210Y74177D01*
X155200Y74093D01*
X155194Y74009D01*
X155192Y73924D01*
X155192Y72089D01*
X155194Y71982D01*
X155200Y71875D01*
X155210Y71768D01*
X155223Y71662D01*
X155241Y71556D01*
X155262Y71451D01*
X155287Y71347D01*
X155316Y71243D01*
X155349Y71141D01*
X155386Y71041D01*
X155426Y70941D01*
X155470Y70843D01*
X155517Y70747D01*
X155568Y70653D01*
X155622Y70560D01*
X155679Y70470D01*
X155740Y70381D01*
X155804Y70295D01*
X155871Y70212D01*
X155941Y70130D01*
X156014Y70052D01*
X156090Y69976D01*
X156168Y69903D01*
X156250Y69833D01*
X156333Y69766D01*
X156419Y69702D01*
X156508Y69641D01*
X156598Y69584D01*
X156691Y69530D01*
X156785Y69479D01*
X156881Y69432D01*
X156979Y69388D01*
X157079Y69348D01*
X157179Y69311D01*
X157281Y69278D01*
X157385Y69249D01*
X157489Y69224D01*
X157594Y69203D01*
X157700Y69185D01*
X157806Y69172D01*
X157913Y69162D01*
X158020Y69156D01*
X158127Y69154D01*
X185439Y64328D02*
X185439Y57724D01*
X185439Y64328D02*
X183605Y64328D01*
X183520Y64326D01*
X183436Y64320D01*
X183352Y64310D01*
X183268Y64297D01*
X183185Y64279D01*
X183103Y64258D01*
X183022Y64233D01*
X182942Y64204D01*
X182864Y64172D01*
X182788Y64136D01*
X182713Y64096D01*
X182640Y64053D01*
X182569Y64007D01*
X182500Y63958D01*
X182433Y63905D01*
X182369Y63849D01*
X182308Y63791D01*
X182250Y63730D01*
X182194Y63666D01*
X182141Y63599D01*
X182092Y63530D01*
X182046Y63459D01*
X182003Y63386D01*
X181963Y63311D01*
X181927Y63235D01*
X181895Y63157D01*
X181866Y63077D01*
X181841Y62996D01*
X181820Y62914D01*
X181802Y62831D01*
X181789Y62747D01*
X181779Y62663D01*
X181773Y62579D01*
X181771Y62494D01*
X181771Y59558D01*
X181773Y59473D01*
X181779Y59389D01*
X181789Y59305D01*
X181802Y59221D01*
X181820Y59138D01*
X181841Y59056D01*
X181866Y58975D01*
X181895Y58895D01*
X181927Y58817D01*
X181963Y58741D01*
X182003Y58666D01*
X182046Y58593D01*
X182092Y58522D01*
X182141Y58453D01*
X182194Y58386D01*
X182250Y58322D01*
X182308Y58261D01*
X182369Y58203D01*
X182433Y58147D01*
X182500Y58094D01*
X182569Y58045D01*
X182640Y57999D01*
X182713Y57956D01*
X182788Y57916D01*
X182864Y57880D01*
X182942Y57848D01*
X183022Y57819D01*
X183103Y57794D01*
X183185Y57773D01*
X183268Y57755D01*
X183352Y57742D01*
X183436Y57732D01*
X183520Y57726D01*
X183605Y57724D01*
X185439Y57724D01*
X177509Y57724D02*
X177509Y64328D01*
X178243Y57724D02*
X176775Y57724D01*
X176775Y64328D02*
X178243Y64328D01*
X173491Y62494D02*
X173491Y59558D01*
X173491Y62494D02*
X173489Y62579D01*
X173483Y62663D01*
X173473Y62747D01*
X173460Y62831D01*
X173442Y62914D01*
X173421Y62996D01*
X173396Y63077D01*
X173367Y63157D01*
X173335Y63235D01*
X173299Y63311D01*
X173259Y63386D01*
X173216Y63459D01*
X173170Y63530D01*
X173121Y63599D01*
X173068Y63666D01*
X173012Y63730D01*
X172954Y63791D01*
X172893Y63849D01*
X172829Y63905D01*
X172762Y63958D01*
X172693Y64007D01*
X172622Y64053D01*
X172549Y64096D01*
X172474Y64136D01*
X172398Y64172D01*
X172320Y64204D01*
X172240Y64233D01*
X172159Y64258D01*
X172077Y64279D01*
X171994Y64297D01*
X171910Y64310D01*
X171826Y64320D01*
X171742Y64326D01*
X171657Y64328D01*
X171572Y64326D01*
X171488Y64320D01*
X171404Y64310D01*
X171320Y64297D01*
X171237Y64279D01*
X171155Y64258D01*
X171074Y64233D01*
X170994Y64204D01*
X170916Y64172D01*
X170840Y64136D01*
X170765Y64096D01*
X170692Y64053D01*
X170621Y64007D01*
X170552Y63958D01*
X170485Y63905D01*
X170421Y63849D01*
X170360Y63791D01*
X170302Y63730D01*
X170246Y63666D01*
X170193Y63599D01*
X170144Y63530D01*
X170098Y63459D01*
X170055Y63386D01*
X170015Y63311D01*
X169979Y63235D01*
X169947Y63157D01*
X169918Y63077D01*
X169893Y62996D01*
X169872Y62914D01*
X169854Y62831D01*
X169841Y62747D01*
X169831Y62663D01*
X169825Y62579D01*
X169823Y62494D01*
X169822Y62494D02*
X169822Y59558D01*
X169823Y59558D02*
X169825Y59473D01*
X169831Y59389D01*
X169841Y59305D01*
X169854Y59221D01*
X169872Y59138D01*
X169893Y59056D01*
X169918Y58975D01*
X169947Y58895D01*
X169979Y58817D01*
X170015Y58741D01*
X170055Y58666D01*
X170098Y58593D01*
X170144Y58522D01*
X170193Y58453D01*
X170246Y58386D01*
X170302Y58322D01*
X170360Y58261D01*
X170421Y58203D01*
X170485Y58147D01*
X170552Y58094D01*
X170621Y58045D01*
X170692Y57999D01*
X170765Y57956D01*
X170840Y57916D01*
X170916Y57880D01*
X170994Y57848D01*
X171074Y57819D01*
X171155Y57794D01*
X171237Y57773D01*
X171320Y57755D01*
X171404Y57742D01*
X171488Y57732D01*
X171572Y57726D01*
X171657Y57724D01*
X171742Y57726D01*
X171826Y57732D01*
X171910Y57742D01*
X171994Y57755D01*
X172077Y57773D01*
X172159Y57794D01*
X172240Y57819D01*
X172320Y57848D01*
X172398Y57880D01*
X172474Y57916D01*
X172549Y57956D01*
X172622Y57999D01*
X172693Y58045D01*
X172762Y58094D01*
X172829Y58147D01*
X172893Y58203D01*
X172954Y58261D01*
X173012Y58322D01*
X173068Y58386D01*
X173121Y58453D01*
X173170Y58522D01*
X173216Y58593D01*
X173259Y58666D01*
X173299Y58741D01*
X173335Y58817D01*
X173367Y58895D01*
X173396Y58975D01*
X173421Y59056D01*
X173442Y59138D01*
X173460Y59221D01*
X173473Y59305D01*
X173483Y59389D01*
X173489Y59473D01*
X173491Y59558D01*
X166176Y62860D02*
X164342Y64328D01*
X164342Y57724D01*
X166176Y57724D02*
X162507Y57724D01*
X158861Y61026D02*
X158859Y61171D01*
X158853Y61316D01*
X158844Y61461D01*
X158830Y61606D01*
X158813Y61750D01*
X158791Y61893D01*
X158766Y62037D01*
X158737Y62179D01*
X158705Y62320D01*
X158668Y62461D01*
X158628Y62600D01*
X158584Y62739D01*
X158537Y62876D01*
X158486Y63012D01*
X158431Y63146D01*
X158373Y63279D01*
X158311Y63411D01*
X158285Y63480D01*
X158256Y63547D01*
X158223Y63613D01*
X158187Y63676D01*
X158147Y63738D01*
X158104Y63797D01*
X158058Y63854D01*
X158009Y63908D01*
X157957Y63960D01*
X157902Y64009D01*
X157845Y64054D01*
X157785Y64097D01*
X157723Y64136D01*
X157660Y64172D01*
X157594Y64205D01*
X157527Y64233D01*
X157458Y64259D01*
X157388Y64280D01*
X157317Y64298D01*
X157245Y64311D01*
X157172Y64321D01*
X157099Y64327D01*
X157026Y64329D01*
X157026Y64328D02*
X156953Y64326D01*
X156880Y64320D01*
X156807Y64310D01*
X156736Y64297D01*
X156664Y64279D01*
X156594Y64258D01*
X156526Y64232D01*
X156458Y64204D01*
X156393Y64171D01*
X156329Y64135D01*
X156267Y64096D01*
X156208Y64054D01*
X156151Y64008D01*
X156096Y63959D01*
X156044Y63908D01*
X155995Y63853D01*
X155949Y63796D01*
X155906Y63737D01*
X155866Y63676D01*
X155830Y63612D01*
X155797Y63547D01*
X155768Y63480D01*
X155742Y63411D01*
X155680Y63279D01*
X155622Y63146D01*
X155567Y63012D01*
X155516Y62876D01*
X155469Y62739D01*
X155425Y62600D01*
X155385Y62461D01*
X155348Y62320D01*
X155316Y62179D01*
X155287Y62037D01*
X155262Y61894D01*
X155240Y61750D01*
X155223Y61606D01*
X155209Y61461D01*
X155200Y61316D01*
X155194Y61171D01*
X155192Y61026D01*
X158860Y61026D02*
X158858Y60881D01*
X158852Y60736D01*
X158843Y60591D01*
X158829Y60446D01*
X158812Y60302D01*
X158790Y60159D01*
X158765Y60016D01*
X158737Y59873D01*
X158704Y59732D01*
X158667Y59591D01*
X158627Y59452D01*
X158583Y59313D01*
X158536Y59176D01*
X158485Y59040D01*
X158430Y58906D01*
X158372Y58773D01*
X158310Y58641D01*
X158311Y58642D02*
X158285Y58573D01*
X158256Y58506D01*
X158223Y58440D01*
X158187Y58377D01*
X158147Y58315D01*
X158104Y58256D01*
X158058Y58199D01*
X158009Y58145D01*
X157957Y58093D01*
X157902Y58044D01*
X157845Y57999D01*
X157785Y57956D01*
X157723Y57917D01*
X157660Y57881D01*
X157594Y57848D01*
X157527Y57820D01*
X157458Y57794D01*
X157388Y57773D01*
X157317Y57755D01*
X157245Y57742D01*
X157172Y57732D01*
X157099Y57726D01*
X157026Y57724D01*
X155742Y58641D02*
X155680Y58773D01*
X155622Y58906D01*
X155567Y59040D01*
X155516Y59176D01*
X155469Y59313D01*
X155425Y59452D01*
X155385Y59591D01*
X155348Y59732D01*
X155316Y59873D01*
X155287Y60015D01*
X155262Y60158D01*
X155240Y60302D01*
X155223Y60446D01*
X155209Y60591D01*
X155200Y60736D01*
X155194Y60881D01*
X155192Y61026D01*
X155742Y58641D02*
X155768Y58572D01*
X155797Y58505D01*
X155830Y58440D01*
X155866Y58376D01*
X155906Y58315D01*
X155949Y58256D01*
X155995Y58199D01*
X156044Y58144D01*
X156096Y58093D01*
X156151Y58044D01*
X156208Y57998D01*
X156267Y57956D01*
X156329Y57917D01*
X156393Y57881D01*
X156458Y57848D01*
X156526Y57820D01*
X156594Y57794D01*
X156664Y57773D01*
X156736Y57755D01*
X156807Y57742D01*
X156880Y57732D01*
X156953Y57726D01*
X157026Y57724D01*
X158494Y59192D02*
X155559Y62860D01*
X171657Y43754D02*
X173491Y43754D01*
X171657Y43754D02*
X171572Y43756D01*
X171488Y43762D01*
X171404Y43772D01*
X171320Y43785D01*
X171237Y43803D01*
X171155Y43824D01*
X171074Y43849D01*
X170994Y43878D01*
X170916Y43910D01*
X170840Y43946D01*
X170765Y43986D01*
X170692Y44029D01*
X170621Y44075D01*
X170552Y44124D01*
X170485Y44177D01*
X170421Y44233D01*
X170360Y44291D01*
X170302Y44352D01*
X170246Y44416D01*
X170193Y44483D01*
X170144Y44552D01*
X170098Y44623D01*
X170055Y44696D01*
X170015Y44771D01*
X169979Y44847D01*
X169947Y44925D01*
X169918Y45005D01*
X169893Y45086D01*
X169872Y45168D01*
X169854Y45251D01*
X169841Y45335D01*
X169831Y45419D01*
X169825Y45503D01*
X169823Y45588D01*
X169825Y45673D01*
X169831Y45757D01*
X169841Y45841D01*
X169854Y45925D01*
X169872Y46008D01*
X169893Y46090D01*
X169918Y46171D01*
X169947Y46251D01*
X169979Y46329D01*
X170015Y46405D01*
X170055Y46480D01*
X170098Y46553D01*
X170144Y46624D01*
X170193Y46693D01*
X170246Y46760D01*
X170302Y46824D01*
X170360Y46885D01*
X170421Y46943D01*
X170485Y46999D01*
X170552Y47052D01*
X170621Y47101D01*
X170692Y47147D01*
X170765Y47190D01*
X170840Y47230D01*
X170916Y47266D01*
X170994Y47298D01*
X171074Y47327D01*
X171155Y47352D01*
X171237Y47373D01*
X171320Y47391D01*
X171404Y47404D01*
X171488Y47414D01*
X171572Y47420D01*
X171657Y47422D01*
X171290Y50358D02*
X173491Y50358D01*
X171290Y50358D02*
X171214Y50356D01*
X171139Y50350D01*
X171064Y50341D01*
X170990Y50327D01*
X170916Y50310D01*
X170844Y50288D01*
X170772Y50264D01*
X170702Y50235D01*
X170634Y50203D01*
X170567Y50168D01*
X170502Y50129D01*
X170439Y50086D01*
X170379Y50041D01*
X170321Y49993D01*
X170265Y49941D01*
X170213Y49887D01*
X170163Y49830D01*
X170116Y49771D01*
X170072Y49710D01*
X170031Y49646D01*
X169994Y49580D01*
X169960Y49512D01*
X169930Y49443D01*
X169903Y49372D01*
X169880Y49300D01*
X169861Y49227D01*
X169846Y49153D01*
X169834Y49078D01*
X169826Y49003D01*
X169822Y48928D01*
X169822Y48852D01*
X169826Y48777D01*
X169834Y48702D01*
X169846Y48627D01*
X169861Y48553D01*
X169880Y48480D01*
X169903Y48408D01*
X169930Y48337D01*
X169960Y48268D01*
X169994Y48200D01*
X170031Y48134D01*
X170072Y48070D01*
X170116Y48009D01*
X170163Y47950D01*
X170213Y47893D01*
X170265Y47839D01*
X170321Y47787D01*
X170379Y47739D01*
X170439Y47694D01*
X170502Y47651D01*
X170567Y47612D01*
X170634Y47577D01*
X170702Y47545D01*
X170772Y47516D01*
X170844Y47492D01*
X170916Y47470D01*
X170990Y47453D01*
X171064Y47439D01*
X171139Y47430D01*
X171214Y47424D01*
X171290Y47422D01*
X171290Y47423D02*
X172757Y47423D01*
X166543Y50358D02*
X164342Y43754D01*
X162140Y50358D01*
X158861Y43754D02*
X157026Y43754D01*
X156941Y43756D01*
X156857Y43762D01*
X156773Y43772D01*
X156689Y43785D01*
X156606Y43803D01*
X156524Y43824D01*
X156443Y43849D01*
X156363Y43878D01*
X156285Y43910D01*
X156209Y43946D01*
X156134Y43986D01*
X156061Y44029D01*
X155990Y44075D01*
X155921Y44124D01*
X155854Y44177D01*
X155790Y44233D01*
X155729Y44291D01*
X155671Y44352D01*
X155615Y44416D01*
X155562Y44483D01*
X155513Y44552D01*
X155467Y44623D01*
X155424Y44696D01*
X155384Y44771D01*
X155348Y44847D01*
X155316Y44925D01*
X155287Y45005D01*
X155262Y45086D01*
X155241Y45168D01*
X155223Y45251D01*
X155210Y45335D01*
X155200Y45419D01*
X155194Y45503D01*
X155192Y45588D01*
X155194Y45673D01*
X155200Y45757D01*
X155210Y45841D01*
X155223Y45925D01*
X155241Y46008D01*
X155262Y46090D01*
X155287Y46171D01*
X155316Y46251D01*
X155348Y46329D01*
X155384Y46405D01*
X155424Y46480D01*
X155467Y46553D01*
X155513Y46624D01*
X155562Y46693D01*
X155615Y46760D01*
X155671Y46824D01*
X155729Y46885D01*
X155790Y46943D01*
X155854Y46999D01*
X155921Y47052D01*
X155990Y47101D01*
X156061Y47147D01*
X156134Y47190D01*
X156209Y47230D01*
X156285Y47266D01*
X156363Y47298D01*
X156443Y47327D01*
X156524Y47352D01*
X156606Y47373D01*
X156689Y47391D01*
X156773Y47404D01*
X156857Y47414D01*
X156941Y47420D01*
X157026Y47422D01*
X156660Y50358D02*
X158861Y50358D01*
X156660Y50358D02*
X156584Y50356D01*
X156509Y50350D01*
X156434Y50341D01*
X156360Y50327D01*
X156286Y50310D01*
X156214Y50288D01*
X156142Y50264D01*
X156072Y50235D01*
X156004Y50203D01*
X155937Y50168D01*
X155872Y50129D01*
X155809Y50086D01*
X155749Y50041D01*
X155691Y49993D01*
X155635Y49941D01*
X155583Y49887D01*
X155533Y49830D01*
X155486Y49771D01*
X155442Y49710D01*
X155401Y49646D01*
X155364Y49580D01*
X155330Y49512D01*
X155300Y49443D01*
X155273Y49372D01*
X155250Y49300D01*
X155231Y49227D01*
X155216Y49153D01*
X155204Y49078D01*
X155196Y49003D01*
X155192Y48928D01*
X155192Y48852D01*
X155196Y48777D01*
X155204Y48702D01*
X155216Y48627D01*
X155231Y48553D01*
X155250Y48480D01*
X155273Y48408D01*
X155300Y48337D01*
X155330Y48268D01*
X155364Y48200D01*
X155401Y48134D01*
X155442Y48070D01*
X155486Y48009D01*
X155533Y47950D01*
X155583Y47893D01*
X155635Y47839D01*
X155691Y47787D01*
X155749Y47739D01*
X155809Y47694D01*
X155872Y47651D01*
X155937Y47612D01*
X156004Y47577D01*
X156072Y47545D01*
X156142Y47516D01*
X156214Y47492D01*
X156286Y47470D01*
X156360Y47453D01*
X156434Y47439D01*
X156509Y47430D01*
X156584Y47424D01*
X156660Y47422D01*
X156660Y47423D02*
X158127Y47423D01*
X170798Y34723D02*
X171898Y34723D01*
X170798Y34723D02*
X170798Y31054D01*
X172999Y31054D01*
X173073Y31056D01*
X173148Y31062D01*
X173221Y31071D01*
X173295Y31084D01*
X173367Y31101D01*
X173438Y31121D01*
X173509Y31145D01*
X173578Y31173D01*
X173646Y31204D01*
X173711Y31238D01*
X173776Y31276D01*
X173838Y31317D01*
X173898Y31361D01*
X173955Y31408D01*
X174010Y31458D01*
X174063Y31511D01*
X174113Y31566D01*
X174160Y31623D01*
X174204Y31683D01*
X174245Y31745D01*
X174283Y31810D01*
X174317Y31876D01*
X174348Y31943D01*
X174376Y32012D01*
X174400Y32083D01*
X174420Y32154D01*
X174437Y32227D01*
X174450Y32300D01*
X174459Y32374D01*
X174465Y32448D01*
X174467Y32522D01*
X174467Y36190D01*
X174465Y36264D01*
X174459Y36339D01*
X174450Y36412D01*
X174437Y36485D01*
X174420Y36558D01*
X174400Y36629D01*
X174376Y36700D01*
X174348Y36769D01*
X174317Y36836D01*
X174283Y36902D01*
X174245Y36967D01*
X174204Y37029D01*
X174160Y37089D01*
X174113Y37146D01*
X174063Y37201D01*
X174010Y37254D01*
X173955Y37304D01*
X173898Y37351D01*
X173838Y37395D01*
X173776Y37436D01*
X173711Y37474D01*
X173646Y37508D01*
X173578Y37539D01*
X173509Y37567D01*
X173439Y37591D01*
X173367Y37611D01*
X173295Y37628D01*
X173221Y37641D01*
X173148Y37650D01*
X173073Y37656D01*
X172999Y37658D01*
X170798Y37658D01*
X166664Y37658D02*
X166664Y31054D01*
X162995Y31054D02*
X166664Y37658D01*
X162995Y37658D02*
X162995Y31054D01*
X158861Y31054D02*
X158861Y37658D01*
X157026Y37658D01*
X156941Y37656D01*
X156857Y37650D01*
X156773Y37640D01*
X156689Y37627D01*
X156606Y37609D01*
X156524Y37588D01*
X156443Y37563D01*
X156363Y37534D01*
X156285Y37502D01*
X156209Y37466D01*
X156134Y37426D01*
X156061Y37383D01*
X155990Y37337D01*
X155921Y37288D01*
X155854Y37235D01*
X155790Y37179D01*
X155729Y37121D01*
X155671Y37060D01*
X155615Y36996D01*
X155562Y36929D01*
X155513Y36860D01*
X155467Y36789D01*
X155424Y36716D01*
X155384Y36641D01*
X155348Y36565D01*
X155316Y36487D01*
X155287Y36407D01*
X155262Y36326D01*
X155241Y36244D01*
X155223Y36161D01*
X155210Y36077D01*
X155200Y35993D01*
X155194Y35909D01*
X155192Y35824D01*
X155192Y32888D01*
X155194Y32803D01*
X155200Y32719D01*
X155210Y32635D01*
X155223Y32551D01*
X155241Y32468D01*
X155262Y32386D01*
X155287Y32305D01*
X155316Y32225D01*
X155348Y32147D01*
X155384Y32071D01*
X155424Y31996D01*
X155467Y31923D01*
X155513Y31852D01*
X155562Y31783D01*
X155615Y31716D01*
X155671Y31652D01*
X155729Y31591D01*
X155790Y31533D01*
X155854Y31477D01*
X155921Y31424D01*
X155990Y31375D01*
X156061Y31329D01*
X156134Y31286D01*
X156209Y31246D01*
X156285Y31210D01*
X156363Y31178D01*
X156443Y31149D01*
X156524Y31124D01*
X156606Y31103D01*
X156689Y31085D01*
X156773Y31072D01*
X156857Y31062D01*
X156941Y31056D01*
X157026Y31054D01*
X158861Y31054D01*
X140970Y83820D02*
X146050Y88900D01*
X146050Y78740D01*
X144780Y80010D01*
X140970Y83820D01*
X142240Y83820D01*
X144780Y86360D01*
X144780Y81280D01*
X144780Y80010D01*
X144780Y81280D02*
X143510Y82550D01*
X143510Y83820D01*
X178124Y105984D02*
X178124Y112588D01*
X176290Y112588D01*
X176205Y112586D01*
X176121Y112580D01*
X176037Y112570D01*
X175953Y112557D01*
X175870Y112539D01*
X175788Y112518D01*
X175707Y112493D01*
X175627Y112464D01*
X175549Y112432D01*
X175473Y112396D01*
X175398Y112356D01*
X175325Y112313D01*
X175254Y112267D01*
X175185Y112218D01*
X175118Y112165D01*
X175054Y112109D01*
X174993Y112051D01*
X174935Y111990D01*
X174879Y111926D01*
X174826Y111859D01*
X174777Y111790D01*
X174731Y111719D01*
X174688Y111646D01*
X174648Y111571D01*
X174612Y111495D01*
X174580Y111417D01*
X174551Y111337D01*
X174526Y111256D01*
X174505Y111174D01*
X174487Y111091D01*
X174474Y111007D01*
X174464Y110923D01*
X174458Y110839D01*
X174456Y110754D01*
X174455Y110754D02*
X174455Y107818D01*
X174456Y107818D02*
X174458Y107733D01*
X174464Y107649D01*
X174474Y107565D01*
X174487Y107481D01*
X174505Y107398D01*
X174526Y107316D01*
X174551Y107235D01*
X174580Y107155D01*
X174612Y107077D01*
X174648Y107001D01*
X174688Y106926D01*
X174731Y106853D01*
X174777Y106782D01*
X174826Y106713D01*
X174879Y106646D01*
X174935Y106582D01*
X174993Y106521D01*
X175054Y106463D01*
X175118Y106407D01*
X175185Y106354D01*
X175254Y106305D01*
X175325Y106259D01*
X175398Y106216D01*
X175473Y106176D01*
X175549Y106140D01*
X175627Y106108D01*
X175707Y106079D01*
X175788Y106054D01*
X175870Y106033D01*
X175953Y106015D01*
X176037Y106002D01*
X176121Y105992D01*
X176205Y105986D01*
X176290Y105984D01*
X178124Y105984D01*
X170194Y105984D02*
X170194Y112588D01*
X170928Y105984D02*
X169460Y105984D01*
X169460Y112588D02*
X170928Y112588D01*
X166176Y110754D02*
X166176Y107818D01*
X166176Y110754D02*
X166174Y110839D01*
X166168Y110923D01*
X166158Y111007D01*
X166145Y111091D01*
X166127Y111174D01*
X166106Y111256D01*
X166081Y111337D01*
X166052Y111417D01*
X166020Y111495D01*
X165984Y111571D01*
X165944Y111646D01*
X165901Y111719D01*
X165855Y111790D01*
X165806Y111859D01*
X165753Y111926D01*
X165697Y111990D01*
X165639Y112051D01*
X165578Y112109D01*
X165514Y112165D01*
X165447Y112218D01*
X165378Y112267D01*
X165307Y112313D01*
X165234Y112356D01*
X165159Y112396D01*
X165083Y112432D01*
X165005Y112464D01*
X164925Y112493D01*
X164844Y112518D01*
X164762Y112539D01*
X164679Y112557D01*
X164595Y112570D01*
X164511Y112580D01*
X164427Y112586D01*
X164342Y112588D01*
X164257Y112586D01*
X164173Y112580D01*
X164089Y112570D01*
X164005Y112557D01*
X163922Y112539D01*
X163840Y112518D01*
X163759Y112493D01*
X163679Y112464D01*
X163601Y112432D01*
X163525Y112396D01*
X163450Y112356D01*
X163377Y112313D01*
X163306Y112267D01*
X163237Y112218D01*
X163170Y112165D01*
X163106Y112109D01*
X163045Y112051D01*
X162987Y111990D01*
X162931Y111926D01*
X162878Y111859D01*
X162829Y111790D01*
X162783Y111719D01*
X162740Y111646D01*
X162700Y111571D01*
X162664Y111495D01*
X162632Y111417D01*
X162603Y111337D01*
X162578Y111256D01*
X162557Y111174D01*
X162539Y111091D01*
X162526Y111007D01*
X162516Y110923D01*
X162510Y110839D01*
X162508Y110754D01*
X162507Y110754D02*
X162507Y107818D01*
X162508Y107818D02*
X162510Y107733D01*
X162516Y107649D01*
X162526Y107565D01*
X162539Y107481D01*
X162557Y107398D01*
X162578Y107316D01*
X162603Y107235D01*
X162632Y107155D01*
X162664Y107077D01*
X162700Y107001D01*
X162740Y106926D01*
X162783Y106853D01*
X162829Y106782D01*
X162878Y106713D01*
X162931Y106646D01*
X162987Y106582D01*
X163045Y106521D01*
X163106Y106463D01*
X163170Y106407D01*
X163237Y106354D01*
X163306Y106305D01*
X163377Y106259D01*
X163450Y106216D01*
X163525Y106176D01*
X163601Y106140D01*
X163679Y106108D01*
X163759Y106079D01*
X163840Y106054D01*
X163922Y106033D01*
X164005Y106015D01*
X164089Y106002D01*
X164173Y105992D01*
X164257Y105986D01*
X164342Y105984D01*
X164427Y105986D01*
X164511Y105992D01*
X164595Y106002D01*
X164679Y106015D01*
X164762Y106033D01*
X164844Y106054D01*
X164925Y106079D01*
X165005Y106108D01*
X165083Y106140D01*
X165159Y106176D01*
X165234Y106216D01*
X165307Y106259D01*
X165378Y106305D01*
X165447Y106354D01*
X165514Y106407D01*
X165578Y106463D01*
X165639Y106521D01*
X165697Y106582D01*
X165753Y106646D01*
X165806Y106713D01*
X165855Y106782D01*
X165901Y106853D01*
X165944Y106926D01*
X165984Y107001D01*
X166020Y107077D01*
X166052Y107155D01*
X166081Y107235D01*
X166106Y107316D01*
X166127Y107398D01*
X166145Y107481D01*
X166158Y107565D01*
X166168Y107649D01*
X166174Y107733D01*
X166176Y107818D01*
X158861Y109653D02*
X156660Y109653D01*
X156586Y109651D01*
X156511Y109645D01*
X156438Y109636D01*
X156364Y109623D01*
X156292Y109606D01*
X156221Y109586D01*
X156150Y109562D01*
X156081Y109534D01*
X156014Y109503D01*
X155948Y109469D01*
X155883Y109431D01*
X155821Y109390D01*
X155761Y109346D01*
X155704Y109299D01*
X155649Y109249D01*
X155596Y109196D01*
X155546Y109141D01*
X155499Y109084D01*
X155455Y109024D01*
X155414Y108962D01*
X155376Y108897D01*
X155342Y108831D01*
X155311Y108764D01*
X155283Y108695D01*
X155259Y108624D01*
X155239Y108553D01*
X155222Y108481D01*
X155209Y108407D01*
X155200Y108334D01*
X155194Y108259D01*
X155192Y108185D01*
X155192Y107818D01*
X155194Y107733D01*
X155200Y107649D01*
X155210Y107565D01*
X155223Y107481D01*
X155241Y107398D01*
X155262Y107316D01*
X155287Y107235D01*
X155316Y107155D01*
X155348Y107077D01*
X155384Y107001D01*
X155424Y106926D01*
X155467Y106853D01*
X155513Y106782D01*
X155562Y106713D01*
X155615Y106646D01*
X155671Y106582D01*
X155729Y106521D01*
X155790Y106463D01*
X155854Y106407D01*
X155921Y106354D01*
X155990Y106305D01*
X156061Y106259D01*
X156134Y106216D01*
X156209Y106176D01*
X156285Y106140D01*
X156363Y106108D01*
X156443Y106079D01*
X156524Y106054D01*
X156606Y106033D01*
X156689Y106015D01*
X156773Y106002D01*
X156857Y105992D01*
X156941Y105986D01*
X157026Y105984D01*
X157111Y105986D01*
X157195Y105992D01*
X157279Y106002D01*
X157363Y106015D01*
X157446Y106033D01*
X157528Y106054D01*
X157609Y106079D01*
X157689Y106108D01*
X157767Y106140D01*
X157843Y106176D01*
X157918Y106216D01*
X157991Y106259D01*
X158062Y106305D01*
X158131Y106354D01*
X158198Y106407D01*
X158262Y106463D01*
X158323Y106521D01*
X158381Y106582D01*
X158437Y106646D01*
X158490Y106713D01*
X158539Y106782D01*
X158585Y106853D01*
X158628Y106926D01*
X158668Y107001D01*
X158704Y107077D01*
X158736Y107155D01*
X158765Y107235D01*
X158790Y107316D01*
X158811Y107398D01*
X158829Y107481D01*
X158842Y107565D01*
X158852Y107649D01*
X158858Y107733D01*
X158860Y107818D01*
X158861Y107818D02*
X158861Y109653D01*
X158859Y109760D01*
X158853Y109867D01*
X158843Y109974D01*
X158830Y110080D01*
X158812Y110186D01*
X158791Y110291D01*
X158766Y110395D01*
X158737Y110499D01*
X158704Y110601D01*
X158667Y110701D01*
X158627Y110801D01*
X158583Y110899D01*
X158536Y110995D01*
X158485Y111089D01*
X158431Y111182D01*
X158374Y111272D01*
X158313Y111361D01*
X158249Y111447D01*
X158182Y111530D01*
X158112Y111612D01*
X158039Y111690D01*
X157963Y111766D01*
X157885Y111839D01*
X157803Y111909D01*
X157720Y111976D01*
X157634Y112040D01*
X157545Y112101D01*
X157455Y112158D01*
X157362Y112212D01*
X157268Y112263D01*
X157172Y112310D01*
X157074Y112354D01*
X156975Y112394D01*
X156874Y112431D01*
X156772Y112464D01*
X156668Y112493D01*
X156564Y112518D01*
X156459Y112539D01*
X156353Y112557D01*
X156247Y112570D01*
X156140Y112580D01*
X156033Y112586D01*
X155926Y112588D01*
X36924Y88458D02*
X36924Y81854D01*
X36924Y88458D02*
X35090Y88458D01*
X35005Y88456D01*
X34921Y88450D01*
X34837Y88440D01*
X34753Y88427D01*
X34670Y88409D01*
X34588Y88388D01*
X34507Y88363D01*
X34427Y88334D01*
X34349Y88302D01*
X34273Y88266D01*
X34198Y88226D01*
X34125Y88183D01*
X34054Y88137D01*
X33985Y88088D01*
X33918Y88035D01*
X33854Y87979D01*
X33793Y87921D01*
X33735Y87860D01*
X33679Y87796D01*
X33626Y87729D01*
X33577Y87660D01*
X33531Y87589D01*
X33488Y87516D01*
X33448Y87441D01*
X33412Y87365D01*
X33380Y87287D01*
X33351Y87207D01*
X33326Y87126D01*
X33305Y87044D01*
X33287Y86961D01*
X33274Y86877D01*
X33264Y86793D01*
X33258Y86709D01*
X33256Y86624D01*
X33258Y86539D01*
X33264Y86455D01*
X33274Y86371D01*
X33287Y86287D01*
X33305Y86204D01*
X33326Y86122D01*
X33351Y86041D01*
X33380Y85961D01*
X33412Y85883D01*
X33448Y85807D01*
X33488Y85732D01*
X33531Y85659D01*
X33577Y85588D01*
X33626Y85519D01*
X33679Y85452D01*
X33735Y85388D01*
X33793Y85327D01*
X33854Y85269D01*
X33918Y85213D01*
X33985Y85160D01*
X34054Y85111D01*
X34125Y85065D01*
X34198Y85022D01*
X34273Y84982D01*
X34349Y84946D01*
X34427Y84914D01*
X34507Y84885D01*
X34588Y84860D01*
X34670Y84839D01*
X34753Y84821D01*
X34837Y84808D01*
X34921Y84798D01*
X35005Y84792D01*
X35090Y84790D01*
X35090Y84789D02*
X36924Y84789D01*
X34723Y84789D02*
X33255Y81854D01*
X30055Y81854D02*
X25652Y88458D01*
X30055Y88458D02*
X25652Y81854D01*
X34681Y95824D02*
X34681Y102428D01*
X36515Y102428D02*
X32846Y102428D01*
X30055Y95824D02*
X25652Y102428D01*
X30055Y102428D02*
X25652Y95824D01*
X42330Y75758D02*
X40128Y69154D01*
X37927Y75758D01*
X33216Y69154D02*
X31748Y69154D01*
X33216Y69154D02*
X33290Y69156D01*
X33365Y69162D01*
X33438Y69171D01*
X33512Y69184D01*
X33584Y69201D01*
X33655Y69221D01*
X33726Y69245D01*
X33795Y69273D01*
X33863Y69304D01*
X33928Y69338D01*
X33993Y69376D01*
X34055Y69417D01*
X34115Y69461D01*
X34172Y69508D01*
X34227Y69558D01*
X34280Y69611D01*
X34330Y69666D01*
X34377Y69723D01*
X34421Y69783D01*
X34462Y69845D01*
X34500Y69910D01*
X34534Y69976D01*
X34565Y70043D01*
X34593Y70112D01*
X34617Y70183D01*
X34637Y70254D01*
X34654Y70327D01*
X34667Y70400D01*
X34676Y70474D01*
X34682Y70548D01*
X34684Y70622D01*
X34683Y70622D02*
X34683Y74290D01*
X34681Y74364D01*
X34675Y74439D01*
X34666Y74512D01*
X34653Y74585D01*
X34636Y74658D01*
X34616Y74729D01*
X34592Y74800D01*
X34564Y74869D01*
X34533Y74936D01*
X34499Y75002D01*
X34461Y75067D01*
X34420Y75129D01*
X34376Y75189D01*
X34329Y75246D01*
X34279Y75301D01*
X34226Y75354D01*
X34171Y75404D01*
X34114Y75451D01*
X34054Y75495D01*
X33992Y75536D01*
X33927Y75574D01*
X33862Y75608D01*
X33794Y75639D01*
X33725Y75667D01*
X33655Y75691D01*
X33583Y75711D01*
X33511Y75728D01*
X33437Y75741D01*
X33364Y75750D01*
X33289Y75756D01*
X33215Y75758D01*
X33216Y75758D02*
X31748Y75758D01*
X27120Y69154D02*
X25652Y69154D01*
X27120Y69154D02*
X27194Y69156D01*
X27269Y69162D01*
X27342Y69171D01*
X27416Y69184D01*
X27488Y69201D01*
X27559Y69221D01*
X27630Y69245D01*
X27699Y69273D01*
X27767Y69304D01*
X27832Y69338D01*
X27897Y69376D01*
X27959Y69417D01*
X28019Y69461D01*
X28076Y69508D01*
X28131Y69558D01*
X28184Y69611D01*
X28234Y69666D01*
X28281Y69723D01*
X28325Y69783D01*
X28366Y69845D01*
X28404Y69910D01*
X28438Y69976D01*
X28469Y70043D01*
X28497Y70112D01*
X28521Y70183D01*
X28541Y70254D01*
X28558Y70327D01*
X28571Y70400D01*
X28580Y70474D01*
X28586Y70548D01*
X28588Y70622D01*
X28587Y70622D02*
X28587Y74290D01*
X28588Y74290D02*
X28586Y74364D01*
X28580Y74439D01*
X28571Y74512D01*
X28558Y74585D01*
X28541Y74658D01*
X28521Y74729D01*
X28497Y74800D01*
X28469Y74869D01*
X28438Y74936D01*
X28404Y75002D01*
X28366Y75067D01*
X28325Y75129D01*
X28281Y75189D01*
X28234Y75246D01*
X28184Y75301D01*
X28131Y75354D01*
X28076Y75404D01*
X28019Y75451D01*
X27959Y75495D01*
X27897Y75536D01*
X27832Y75574D01*
X27767Y75608D01*
X27699Y75639D01*
X27630Y75667D01*
X27560Y75691D01*
X27488Y75711D01*
X27416Y75728D01*
X27342Y75741D01*
X27269Y75750D01*
X27194Y75756D01*
X27120Y75758D01*
X25652Y75758D01*
X40591Y108524D02*
X40591Y115128D01*
X41325Y108524D02*
X39857Y108524D01*
X39857Y115128D02*
X41325Y115128D01*
X34616Y108524D02*
X34542Y108526D01*
X34467Y108532D01*
X34394Y108541D01*
X34320Y108554D01*
X34248Y108571D01*
X34177Y108591D01*
X34106Y108615D01*
X34037Y108643D01*
X33970Y108674D01*
X33904Y108708D01*
X33839Y108746D01*
X33777Y108787D01*
X33717Y108831D01*
X33660Y108878D01*
X33605Y108928D01*
X33552Y108981D01*
X33502Y109036D01*
X33455Y109093D01*
X33411Y109153D01*
X33370Y109215D01*
X33332Y109280D01*
X33298Y109346D01*
X33267Y109413D01*
X33239Y109482D01*
X33215Y109553D01*
X33195Y109624D01*
X33178Y109696D01*
X33165Y109770D01*
X33156Y109843D01*
X33150Y109918D01*
X33148Y109992D01*
X34616Y108524D02*
X34727Y108526D01*
X34838Y108532D01*
X34949Y108542D01*
X35060Y108556D01*
X35169Y108574D01*
X35278Y108596D01*
X35387Y108621D01*
X35494Y108651D01*
X35600Y108684D01*
X35705Y108722D01*
X35808Y108762D01*
X35910Y108807D01*
X36010Y108855D01*
X36109Y108907D01*
X36205Y108962D01*
X36300Y109021D01*
X36392Y109083D01*
X36482Y109149D01*
X36570Y109217D01*
X36655Y109289D01*
X36737Y109364D01*
X36817Y109441D01*
X36634Y113660D02*
X36632Y113734D01*
X36626Y113809D01*
X36617Y113882D01*
X36604Y113956D01*
X36587Y114028D01*
X36567Y114099D01*
X36543Y114170D01*
X36515Y114239D01*
X36484Y114306D01*
X36450Y114372D01*
X36412Y114437D01*
X36371Y114499D01*
X36327Y114559D01*
X36280Y114616D01*
X36230Y114671D01*
X36177Y114724D01*
X36122Y114774D01*
X36065Y114821D01*
X36005Y114865D01*
X35943Y114906D01*
X35878Y114944D01*
X35812Y114978D01*
X35745Y115009D01*
X35676Y115037D01*
X35605Y115061D01*
X35534Y115081D01*
X35462Y115098D01*
X35388Y115111D01*
X35315Y115120D01*
X35240Y115126D01*
X35166Y115128D01*
X35062Y115126D01*
X34958Y115120D01*
X34854Y115110D01*
X34751Y115097D01*
X34648Y115079D01*
X34546Y115057D01*
X34445Y115032D01*
X34345Y115003D01*
X34246Y114970D01*
X34149Y114933D01*
X34053Y114893D01*
X33958Y114849D01*
X33866Y114801D01*
X33775Y114751D01*
X33686Y114696D01*
X33599Y114639D01*
X33515Y114578D01*
X35900Y112375D02*
X35963Y112414D01*
X36023Y112456D01*
X36082Y112501D01*
X36138Y112549D01*
X36191Y112600D01*
X36242Y112653D01*
X36291Y112708D01*
X36336Y112766D01*
X36379Y112826D01*
X36419Y112888D01*
X36455Y112952D01*
X36489Y113018D01*
X36519Y113086D01*
X36546Y113154D01*
X36569Y113224D01*
X36589Y113295D01*
X36605Y113367D01*
X36618Y113440D01*
X36627Y113513D01*
X36632Y113586D01*
X36634Y113660D01*
X33882Y111277D02*
X33819Y111238D01*
X33759Y111196D01*
X33701Y111151D01*
X33644Y111103D01*
X33591Y111052D01*
X33540Y110999D01*
X33491Y110944D01*
X33446Y110886D01*
X33403Y110826D01*
X33363Y110764D01*
X33327Y110700D01*
X33293Y110634D01*
X33263Y110566D01*
X33236Y110498D01*
X33213Y110428D01*
X33193Y110357D01*
X33177Y110285D01*
X33164Y110212D01*
X33155Y110139D01*
X33150Y110066D01*
X33148Y109992D01*
X33882Y111276D02*
X35900Y112376D01*
X29321Y115128D02*
X29321Y108524D01*
X29321Y115128D02*
X27486Y115128D01*
X27401Y115126D01*
X27317Y115120D01*
X27233Y115110D01*
X27149Y115097D01*
X27066Y115079D01*
X26984Y115058D01*
X26903Y115033D01*
X26823Y115004D01*
X26745Y114972D01*
X26669Y114936D01*
X26594Y114896D01*
X26521Y114853D01*
X26450Y114807D01*
X26381Y114758D01*
X26314Y114705D01*
X26250Y114649D01*
X26189Y114591D01*
X26131Y114530D01*
X26075Y114466D01*
X26022Y114399D01*
X25973Y114330D01*
X25927Y114259D01*
X25884Y114186D01*
X25844Y114111D01*
X25808Y114035D01*
X25776Y113957D01*
X25747Y113877D01*
X25722Y113796D01*
X25701Y113714D01*
X25683Y113631D01*
X25670Y113547D01*
X25660Y113463D01*
X25654Y113379D01*
X25652Y113294D01*
X25654Y113209D01*
X25660Y113125D01*
X25670Y113041D01*
X25683Y112957D01*
X25701Y112874D01*
X25722Y112792D01*
X25747Y112711D01*
X25776Y112631D01*
X25808Y112553D01*
X25844Y112477D01*
X25884Y112402D01*
X25927Y112329D01*
X25973Y112258D01*
X26022Y112189D01*
X26075Y112122D01*
X26131Y112058D01*
X26189Y111997D01*
X26250Y111939D01*
X26314Y111883D01*
X26381Y111830D01*
X26450Y111781D01*
X26521Y111735D01*
X26594Y111692D01*
X26669Y111652D01*
X26745Y111616D01*
X26823Y111584D01*
X26903Y111555D01*
X26984Y111530D01*
X27066Y111509D01*
X27149Y111491D01*
X27233Y111478D01*
X27317Y111468D01*
X27401Y111462D01*
X27486Y111460D01*
X27486Y111459D02*
X29321Y111459D01*
M02*
