G04 EAGLE Gerber RS-274X export*
G75*
%MOMM*%
%FSLAX34Y34*%
%LPD*%
%INSilkscreen Top*%
%IPPOS*%
%AMOC8*
5,1,8,0,0,1.08239X$1,22.5*%
G01*
%ADD10C,0.152400*%
%ADD11C,0.076200*%
%ADD12C,0.120000*%
%ADD13C,0.050800*%
%ADD14C,0.203200*%
%ADD15C,0.200000*%


D10*
X238335Y64328D02*
X238335Y62127D01*
X240536Y63594D02*
X235033Y63594D01*
X235033Y63595D02*
X234969Y63593D01*
X234905Y63588D01*
X234842Y63578D01*
X234779Y63565D01*
X234717Y63549D01*
X234656Y63529D01*
X234597Y63505D01*
X234539Y63478D01*
X234483Y63447D01*
X234428Y63414D01*
X234376Y63377D01*
X234325Y63337D01*
X234277Y63295D01*
X234232Y63250D01*
X234190Y63202D01*
X234150Y63151D01*
X234113Y63099D01*
X234080Y63045D01*
X234049Y62988D01*
X234022Y62930D01*
X233998Y62871D01*
X233978Y62810D01*
X233962Y62748D01*
X233949Y62685D01*
X233939Y62622D01*
X233934Y62558D01*
X233932Y62494D01*
X233932Y62127D01*
X233932Y59411D02*
X234299Y59411D01*
X234299Y59044D01*
X233932Y59044D01*
X233932Y59411D01*
X233932Y55576D02*
X238335Y55576D01*
X238335Y52274D01*
X238333Y52210D01*
X238328Y52146D01*
X238318Y52083D01*
X238305Y52020D01*
X238289Y51958D01*
X238269Y51897D01*
X238245Y51838D01*
X238218Y51780D01*
X238187Y51724D01*
X238154Y51669D01*
X238117Y51617D01*
X238077Y51566D01*
X238035Y51518D01*
X237990Y51473D01*
X237942Y51431D01*
X237891Y51391D01*
X237839Y51354D01*
X237785Y51321D01*
X237728Y51290D01*
X237670Y51263D01*
X237611Y51239D01*
X237550Y51219D01*
X237488Y51203D01*
X237425Y51190D01*
X237362Y51180D01*
X237298Y51175D01*
X237234Y51173D01*
X237234Y51174D02*
X233932Y51174D01*
X233932Y53375D02*
X238335Y53375D01*
X233932Y46183D02*
X233932Y44348D01*
X233932Y46183D02*
X233934Y46247D01*
X233939Y46311D01*
X233949Y46374D01*
X233962Y46437D01*
X233978Y46499D01*
X233998Y46560D01*
X234022Y46619D01*
X234049Y46677D01*
X234080Y46734D01*
X234113Y46788D01*
X234150Y46840D01*
X234190Y46891D01*
X234232Y46939D01*
X234277Y46984D01*
X234325Y47026D01*
X234376Y47066D01*
X234428Y47103D01*
X234483Y47137D01*
X234539Y47167D01*
X234597Y47194D01*
X234656Y47218D01*
X234717Y47238D01*
X234779Y47254D01*
X234842Y47267D01*
X234905Y47277D01*
X234969Y47282D01*
X235033Y47284D01*
X235033Y47283D02*
X236867Y47283D01*
X236867Y47284D02*
X236943Y47282D01*
X237018Y47276D01*
X237093Y47267D01*
X237167Y47253D01*
X237241Y47236D01*
X237313Y47214D01*
X237385Y47190D01*
X237455Y47161D01*
X237523Y47129D01*
X237590Y47094D01*
X237655Y47055D01*
X237718Y47012D01*
X237778Y46967D01*
X237836Y46919D01*
X237892Y46867D01*
X237944Y46813D01*
X237994Y46756D01*
X238041Y46697D01*
X238085Y46636D01*
X238126Y46572D01*
X238163Y46506D01*
X238197Y46438D01*
X238227Y46369D01*
X238254Y46298D01*
X238277Y46226D01*
X238296Y46153D01*
X238311Y46079D01*
X238323Y46004D01*
X238331Y45929D01*
X238335Y45854D01*
X238335Y45778D01*
X238331Y45703D01*
X238323Y45628D01*
X238311Y45553D01*
X238296Y45479D01*
X238277Y45406D01*
X238254Y45334D01*
X238227Y45263D01*
X238197Y45194D01*
X238163Y45126D01*
X238126Y45060D01*
X238085Y44996D01*
X238041Y44935D01*
X237994Y44876D01*
X237944Y44819D01*
X237892Y44765D01*
X237836Y44713D01*
X237778Y44665D01*
X237718Y44620D01*
X237655Y44577D01*
X237590Y44538D01*
X237523Y44503D01*
X237455Y44471D01*
X237385Y44442D01*
X237313Y44418D01*
X237241Y44396D01*
X237167Y44379D01*
X237093Y44365D01*
X237018Y44356D01*
X236943Y44350D01*
X236867Y44348D01*
X236133Y44348D01*
X236133Y47283D01*
X233198Y41187D02*
X241270Y38252D01*
X240536Y32219D02*
X233932Y32219D01*
X233932Y34054D01*
X233934Y34118D01*
X233939Y34182D01*
X233949Y34245D01*
X233962Y34308D01*
X233978Y34370D01*
X233998Y34431D01*
X234022Y34490D01*
X234049Y34548D01*
X234080Y34605D01*
X234113Y34659D01*
X234150Y34711D01*
X234190Y34762D01*
X234232Y34810D01*
X234277Y34855D01*
X234325Y34897D01*
X234376Y34937D01*
X234428Y34974D01*
X234483Y35008D01*
X234539Y35038D01*
X234597Y35065D01*
X234656Y35089D01*
X234717Y35109D01*
X234779Y35125D01*
X234842Y35138D01*
X234905Y35148D01*
X234969Y35153D01*
X235033Y35155D01*
X237234Y35155D01*
X237298Y35153D01*
X237362Y35148D01*
X237425Y35138D01*
X237488Y35125D01*
X237550Y35109D01*
X237611Y35089D01*
X237670Y35065D01*
X237728Y35038D01*
X237785Y35007D01*
X237839Y34974D01*
X237891Y34937D01*
X237942Y34897D01*
X237990Y34855D01*
X238035Y34810D01*
X238077Y34762D01*
X238117Y34711D01*
X238154Y34659D01*
X238187Y34605D01*
X238218Y34548D01*
X238245Y34490D01*
X238269Y34431D01*
X238289Y34370D01*
X238305Y34308D01*
X238318Y34245D01*
X238328Y34182D01*
X238333Y34118D01*
X238335Y34054D01*
X238335Y32219D01*
X233932Y27407D02*
X233932Y25573D01*
X233932Y27407D02*
X233934Y27471D01*
X233939Y27535D01*
X233949Y27598D01*
X233962Y27661D01*
X233978Y27723D01*
X233998Y27784D01*
X234022Y27843D01*
X234049Y27901D01*
X234080Y27958D01*
X234113Y28012D01*
X234150Y28064D01*
X234190Y28115D01*
X234232Y28163D01*
X234277Y28208D01*
X234325Y28250D01*
X234376Y28290D01*
X234428Y28327D01*
X234483Y28361D01*
X234539Y28391D01*
X234597Y28418D01*
X234656Y28442D01*
X234717Y28462D01*
X234779Y28478D01*
X234842Y28491D01*
X234905Y28501D01*
X234969Y28506D01*
X235033Y28508D01*
X236867Y28508D01*
X236943Y28506D01*
X237018Y28500D01*
X237093Y28491D01*
X237167Y28477D01*
X237241Y28460D01*
X237313Y28438D01*
X237385Y28414D01*
X237455Y28385D01*
X237523Y28353D01*
X237590Y28318D01*
X237655Y28279D01*
X237718Y28236D01*
X237778Y28191D01*
X237836Y28143D01*
X237892Y28091D01*
X237944Y28037D01*
X237994Y27980D01*
X238041Y27921D01*
X238085Y27860D01*
X238126Y27796D01*
X238163Y27730D01*
X238197Y27662D01*
X238227Y27593D01*
X238254Y27522D01*
X238277Y27450D01*
X238296Y27377D01*
X238311Y27303D01*
X238323Y27228D01*
X238331Y27153D01*
X238335Y27078D01*
X238335Y27002D01*
X238331Y26927D01*
X238323Y26852D01*
X238311Y26777D01*
X238296Y26703D01*
X238277Y26630D01*
X238254Y26558D01*
X238227Y26487D01*
X238197Y26418D01*
X238163Y26350D01*
X238126Y26284D01*
X238085Y26220D01*
X238041Y26159D01*
X237994Y26100D01*
X237944Y26043D01*
X237892Y25989D01*
X237836Y25937D01*
X237778Y25889D01*
X237718Y25844D01*
X237655Y25801D01*
X237590Y25762D01*
X237523Y25727D01*
X237455Y25695D01*
X237385Y25666D01*
X237313Y25642D01*
X237241Y25620D01*
X237167Y25603D01*
X237093Y25589D01*
X237018Y25580D01*
X236943Y25574D01*
X236867Y25572D01*
X236867Y25573D02*
X236133Y25573D01*
X236133Y28508D01*
X236500Y20947D02*
X236500Y19296D01*
X236500Y20947D02*
X236498Y21018D01*
X236492Y21088D01*
X236482Y21158D01*
X236469Y21228D01*
X236452Y21296D01*
X236430Y21364D01*
X236406Y21430D01*
X236377Y21495D01*
X236345Y21558D01*
X236310Y21619D01*
X236271Y21679D01*
X236229Y21736D01*
X236184Y21790D01*
X236136Y21842D01*
X236086Y21892D01*
X236032Y21938D01*
X235976Y21982D01*
X235918Y22022D01*
X235858Y22059D01*
X235796Y22093D01*
X235732Y22123D01*
X235666Y22149D01*
X235599Y22172D01*
X235531Y22192D01*
X235462Y22207D01*
X235392Y22219D01*
X235322Y22227D01*
X235251Y22231D01*
X235181Y22231D01*
X235110Y22227D01*
X235040Y22219D01*
X234970Y22207D01*
X234901Y22192D01*
X234833Y22172D01*
X234766Y22149D01*
X234700Y22123D01*
X234636Y22093D01*
X234574Y22059D01*
X234514Y22022D01*
X234456Y21982D01*
X234400Y21938D01*
X234346Y21892D01*
X234296Y21842D01*
X234248Y21790D01*
X234203Y21736D01*
X234161Y21679D01*
X234122Y21619D01*
X234087Y21558D01*
X234055Y21495D01*
X234026Y21430D01*
X234002Y21364D01*
X233980Y21296D01*
X233963Y21228D01*
X233950Y21158D01*
X233940Y21088D01*
X233934Y21018D01*
X233932Y20947D01*
X233932Y19296D01*
X237234Y19296D01*
X237298Y19298D01*
X237362Y19303D01*
X237425Y19313D01*
X237488Y19326D01*
X237550Y19342D01*
X237611Y19362D01*
X237670Y19386D01*
X237728Y19413D01*
X237785Y19444D01*
X237839Y19477D01*
X237891Y19514D01*
X237942Y19554D01*
X237990Y19596D01*
X238035Y19641D01*
X238077Y19689D01*
X238117Y19740D01*
X238154Y19792D01*
X238188Y19847D01*
X238218Y19903D01*
X238245Y19961D01*
X238269Y20020D01*
X238289Y20081D01*
X238305Y20143D01*
X238318Y20206D01*
X238328Y20269D01*
X238333Y20333D01*
X238335Y20397D01*
X238335Y21864D01*
X233932Y15828D02*
X238335Y12893D01*
X238335Y15828D02*
X233932Y12893D01*
X233932Y9976D02*
X238335Y7041D01*
X238335Y9976D02*
X233932Y7041D01*
D11*
X158309Y104791D02*
X156785Y104791D01*
X156708Y104793D01*
X156631Y104799D01*
X156554Y104809D01*
X156478Y104822D01*
X156403Y104840D01*
X156329Y104861D01*
X156256Y104886D01*
X156184Y104915D01*
X156114Y104947D01*
X156045Y104982D01*
X155979Y105022D01*
X155914Y105064D01*
X155852Y105110D01*
X155792Y105159D01*
X155735Y105210D01*
X155680Y105265D01*
X155629Y105322D01*
X155580Y105382D01*
X155534Y105444D01*
X155492Y105509D01*
X155452Y105575D01*
X155417Y105644D01*
X155385Y105714D01*
X155356Y105786D01*
X155331Y105859D01*
X155310Y105933D01*
X155292Y106008D01*
X155279Y106084D01*
X155269Y106161D01*
X155263Y106238D01*
X155261Y106315D01*
X155261Y110125D01*
X155263Y110202D01*
X155269Y110279D01*
X155279Y110356D01*
X155292Y110432D01*
X155310Y110507D01*
X155331Y110581D01*
X155356Y110654D01*
X155385Y110726D01*
X155417Y110796D01*
X155452Y110865D01*
X155492Y110931D01*
X155534Y110996D01*
X155580Y111058D01*
X155629Y111118D01*
X155680Y111175D01*
X155735Y111230D01*
X155792Y111281D01*
X155852Y111330D01*
X155914Y111376D01*
X155979Y111418D01*
X156045Y111458D01*
X156114Y111493D01*
X156184Y111525D01*
X156256Y111554D01*
X156329Y111579D01*
X156403Y111600D01*
X156478Y111618D01*
X156554Y111631D01*
X156631Y111641D01*
X156708Y111647D01*
X156785Y111649D01*
X158309Y111649D01*
X160998Y110125D02*
X162903Y111649D01*
X162903Y104791D01*
X160998Y104791D02*
X164808Y104791D01*
X121412Y90805D02*
X121412Y89281D01*
X121410Y89204D01*
X121404Y89127D01*
X121394Y89050D01*
X121381Y88974D01*
X121363Y88899D01*
X121342Y88825D01*
X121317Y88752D01*
X121288Y88680D01*
X121256Y88610D01*
X121221Y88541D01*
X121181Y88475D01*
X121139Y88410D01*
X121093Y88348D01*
X121044Y88288D01*
X120993Y88231D01*
X120938Y88176D01*
X120881Y88125D01*
X120821Y88076D01*
X120759Y88030D01*
X120694Y87988D01*
X120628Y87948D01*
X120559Y87913D01*
X120489Y87881D01*
X120417Y87852D01*
X120344Y87827D01*
X120270Y87806D01*
X120195Y87788D01*
X120119Y87775D01*
X120042Y87765D01*
X119965Y87759D01*
X119888Y87757D01*
X116078Y87757D01*
X116001Y87759D01*
X115924Y87765D01*
X115847Y87775D01*
X115771Y87788D01*
X115696Y87806D01*
X115622Y87827D01*
X115549Y87852D01*
X115477Y87881D01*
X115407Y87913D01*
X115338Y87948D01*
X115272Y87988D01*
X115207Y88030D01*
X115145Y88076D01*
X115085Y88125D01*
X115028Y88176D01*
X114973Y88231D01*
X114922Y88288D01*
X114873Y88348D01*
X114827Y88410D01*
X114785Y88475D01*
X114745Y88541D01*
X114710Y88610D01*
X114678Y88680D01*
X114649Y88752D01*
X114624Y88825D01*
X114603Y88899D01*
X114585Y88974D01*
X114572Y89050D01*
X114562Y89127D01*
X114556Y89204D01*
X114554Y89281D01*
X114554Y90805D01*
X114554Y95590D02*
X114556Y95672D01*
X114562Y95753D01*
X114571Y95834D01*
X114585Y95915D01*
X114602Y95994D01*
X114623Y96073D01*
X114648Y96151D01*
X114677Y96227D01*
X114709Y96302D01*
X114745Y96376D01*
X114784Y96448D01*
X114826Y96517D01*
X114872Y96585D01*
X114921Y96650D01*
X114973Y96713D01*
X115028Y96773D01*
X115086Y96831D01*
X115146Y96886D01*
X115209Y96938D01*
X115274Y96987D01*
X115342Y97033D01*
X115412Y97075D01*
X115483Y97114D01*
X115557Y97150D01*
X115632Y97182D01*
X115708Y97211D01*
X115786Y97236D01*
X115865Y97257D01*
X115944Y97274D01*
X116025Y97288D01*
X116106Y97297D01*
X116187Y97303D01*
X116269Y97305D01*
X114554Y95590D02*
X114556Y95498D01*
X114562Y95406D01*
X114571Y95314D01*
X114585Y95222D01*
X114602Y95132D01*
X114623Y95042D01*
X114648Y94953D01*
X114677Y94865D01*
X114709Y94778D01*
X114745Y94693D01*
X114784Y94610D01*
X114827Y94528D01*
X114873Y94448D01*
X114923Y94370D01*
X114975Y94294D01*
X115031Y94221D01*
X115090Y94150D01*
X115152Y94081D01*
X115217Y94015D01*
X115284Y93952D01*
X115354Y93892D01*
X115426Y93834D01*
X115501Y93780D01*
X115578Y93729D01*
X115657Y93681D01*
X115738Y93637D01*
X115821Y93596D01*
X115905Y93558D01*
X115991Y93524D01*
X116078Y93494D01*
X117603Y96733D02*
X117544Y96792D01*
X117483Y96848D01*
X117420Y96901D01*
X117354Y96952D01*
X117286Y96999D01*
X117216Y97043D01*
X117144Y97084D01*
X117070Y97122D01*
X116995Y97156D01*
X116918Y97187D01*
X116840Y97214D01*
X116760Y97238D01*
X116680Y97259D01*
X116599Y97275D01*
X116517Y97288D01*
X116435Y97298D01*
X116352Y97303D01*
X116269Y97305D01*
X117602Y96733D02*
X121412Y93494D01*
X121412Y97304D01*
X137630Y31362D02*
X139154Y31362D01*
X137630Y31362D02*
X137553Y31364D01*
X137476Y31370D01*
X137399Y31380D01*
X137323Y31393D01*
X137248Y31411D01*
X137174Y31432D01*
X137101Y31457D01*
X137029Y31486D01*
X136959Y31518D01*
X136890Y31553D01*
X136824Y31593D01*
X136759Y31635D01*
X136697Y31681D01*
X136637Y31730D01*
X136580Y31781D01*
X136525Y31836D01*
X136474Y31893D01*
X136425Y31953D01*
X136379Y32015D01*
X136337Y32080D01*
X136297Y32146D01*
X136262Y32215D01*
X136230Y32285D01*
X136201Y32357D01*
X136176Y32430D01*
X136155Y32504D01*
X136137Y32579D01*
X136124Y32655D01*
X136114Y32732D01*
X136108Y32809D01*
X136106Y32886D01*
X136106Y36696D01*
X136108Y36773D01*
X136114Y36850D01*
X136124Y36927D01*
X136137Y37003D01*
X136155Y37078D01*
X136176Y37152D01*
X136201Y37225D01*
X136230Y37297D01*
X136262Y37367D01*
X136297Y37436D01*
X136337Y37502D01*
X136379Y37567D01*
X136425Y37629D01*
X136474Y37689D01*
X136525Y37746D01*
X136580Y37801D01*
X136637Y37852D01*
X136697Y37901D01*
X136759Y37947D01*
X136824Y37989D01*
X136890Y38029D01*
X136959Y38064D01*
X137029Y38096D01*
X137101Y38125D01*
X137174Y38150D01*
X137248Y38171D01*
X137323Y38189D01*
X137399Y38202D01*
X137476Y38212D01*
X137553Y38218D01*
X137630Y38220D01*
X139154Y38220D01*
X141843Y31362D02*
X144129Y31362D01*
X144206Y31364D01*
X144283Y31370D01*
X144360Y31380D01*
X144436Y31393D01*
X144511Y31411D01*
X144585Y31432D01*
X144658Y31457D01*
X144730Y31486D01*
X144800Y31518D01*
X144869Y31553D01*
X144935Y31593D01*
X145000Y31635D01*
X145062Y31681D01*
X145122Y31730D01*
X145179Y31781D01*
X145234Y31836D01*
X145285Y31893D01*
X145334Y31953D01*
X145380Y32015D01*
X145422Y32080D01*
X145462Y32146D01*
X145497Y32215D01*
X145529Y32285D01*
X145558Y32357D01*
X145583Y32430D01*
X145604Y32504D01*
X145622Y32579D01*
X145635Y32655D01*
X145645Y32732D01*
X145651Y32809D01*
X145653Y32886D01*
X145653Y33648D01*
X145651Y33725D01*
X145645Y33802D01*
X145635Y33879D01*
X145622Y33955D01*
X145604Y34030D01*
X145583Y34104D01*
X145558Y34177D01*
X145529Y34249D01*
X145497Y34319D01*
X145462Y34388D01*
X145422Y34454D01*
X145380Y34519D01*
X145334Y34581D01*
X145285Y34641D01*
X145234Y34698D01*
X145179Y34753D01*
X145122Y34804D01*
X145062Y34853D01*
X145000Y34899D01*
X144935Y34941D01*
X144869Y34981D01*
X144800Y35016D01*
X144730Y35048D01*
X144658Y35077D01*
X144585Y35102D01*
X144511Y35123D01*
X144436Y35141D01*
X144360Y35154D01*
X144283Y35164D01*
X144206Y35170D01*
X144129Y35172D01*
X141843Y35172D01*
X141843Y38220D01*
X145653Y38220D01*
X24428Y117686D02*
X24428Y119210D01*
X24428Y117686D02*
X24426Y117609D01*
X24420Y117532D01*
X24410Y117455D01*
X24397Y117379D01*
X24379Y117304D01*
X24358Y117230D01*
X24333Y117157D01*
X24304Y117085D01*
X24272Y117015D01*
X24237Y116946D01*
X24197Y116880D01*
X24155Y116815D01*
X24109Y116753D01*
X24060Y116693D01*
X24009Y116636D01*
X23954Y116581D01*
X23897Y116530D01*
X23837Y116481D01*
X23775Y116435D01*
X23710Y116393D01*
X23644Y116353D01*
X23575Y116318D01*
X23505Y116286D01*
X23433Y116257D01*
X23360Y116232D01*
X23286Y116211D01*
X23211Y116193D01*
X23135Y116180D01*
X23058Y116170D01*
X22981Y116164D01*
X22904Y116162D01*
X19094Y116162D01*
X19017Y116164D01*
X18940Y116170D01*
X18863Y116180D01*
X18787Y116193D01*
X18712Y116211D01*
X18638Y116232D01*
X18565Y116257D01*
X18493Y116286D01*
X18423Y116318D01*
X18354Y116353D01*
X18288Y116393D01*
X18223Y116435D01*
X18161Y116481D01*
X18101Y116530D01*
X18044Y116581D01*
X17989Y116636D01*
X17938Y116693D01*
X17889Y116753D01*
X17843Y116815D01*
X17801Y116880D01*
X17761Y116946D01*
X17726Y117015D01*
X17694Y117085D01*
X17665Y117157D01*
X17640Y117230D01*
X17619Y117304D01*
X17601Y117379D01*
X17588Y117455D01*
X17578Y117532D01*
X17572Y117609D01*
X17570Y117686D01*
X17570Y119210D01*
X20618Y121899D02*
X20618Y124185D01*
X20620Y124262D01*
X20626Y124339D01*
X20636Y124416D01*
X20649Y124492D01*
X20667Y124567D01*
X20688Y124641D01*
X20713Y124714D01*
X20742Y124786D01*
X20774Y124856D01*
X20809Y124925D01*
X20849Y124991D01*
X20891Y125056D01*
X20937Y125118D01*
X20986Y125178D01*
X21037Y125235D01*
X21092Y125290D01*
X21149Y125341D01*
X21209Y125390D01*
X21271Y125436D01*
X21336Y125478D01*
X21402Y125518D01*
X21471Y125553D01*
X21541Y125585D01*
X21613Y125614D01*
X21686Y125639D01*
X21760Y125660D01*
X21835Y125678D01*
X21911Y125691D01*
X21988Y125701D01*
X22065Y125707D01*
X22142Y125709D01*
X22523Y125709D01*
X22608Y125707D01*
X22694Y125701D01*
X22779Y125692D01*
X22863Y125678D01*
X22947Y125661D01*
X23030Y125640D01*
X23112Y125616D01*
X23192Y125588D01*
X23272Y125556D01*
X23350Y125520D01*
X23426Y125482D01*
X23500Y125439D01*
X23572Y125394D01*
X23643Y125345D01*
X23711Y125293D01*
X23776Y125239D01*
X23839Y125181D01*
X23900Y125120D01*
X23958Y125057D01*
X24012Y124992D01*
X24064Y124924D01*
X24113Y124853D01*
X24158Y124781D01*
X24201Y124707D01*
X24239Y124631D01*
X24275Y124553D01*
X24307Y124473D01*
X24335Y124393D01*
X24359Y124311D01*
X24380Y124228D01*
X24397Y124144D01*
X24411Y124060D01*
X24420Y123975D01*
X24426Y123889D01*
X24428Y123804D01*
X24426Y123719D01*
X24420Y123633D01*
X24411Y123548D01*
X24397Y123464D01*
X24380Y123380D01*
X24359Y123297D01*
X24335Y123215D01*
X24307Y123135D01*
X24275Y123055D01*
X24239Y122977D01*
X24201Y122901D01*
X24158Y122827D01*
X24113Y122755D01*
X24064Y122684D01*
X24012Y122616D01*
X23958Y122551D01*
X23900Y122488D01*
X23839Y122427D01*
X23776Y122369D01*
X23711Y122315D01*
X23643Y122263D01*
X23572Y122214D01*
X23500Y122169D01*
X23426Y122126D01*
X23350Y122088D01*
X23272Y122052D01*
X23192Y122020D01*
X23112Y121992D01*
X23030Y121968D01*
X22947Y121947D01*
X22863Y121930D01*
X22779Y121916D01*
X22694Y121907D01*
X22608Y121901D01*
X22523Y121899D01*
X20618Y121899D01*
X20509Y121901D01*
X20401Y121907D01*
X20292Y121916D01*
X20184Y121930D01*
X20077Y121947D01*
X19970Y121969D01*
X19864Y121994D01*
X19759Y122022D01*
X19655Y122055D01*
X19553Y122091D01*
X19452Y122131D01*
X19352Y122174D01*
X19254Y122221D01*
X19157Y122272D01*
X19063Y122326D01*
X18970Y122383D01*
X18880Y122443D01*
X18791Y122507D01*
X18705Y122574D01*
X18622Y122643D01*
X18541Y122716D01*
X18463Y122792D01*
X18387Y122870D01*
X18314Y122951D01*
X18245Y123034D01*
X18178Y123120D01*
X18114Y123209D01*
X18054Y123299D01*
X17997Y123392D01*
X17943Y123486D01*
X17892Y123583D01*
X17845Y123681D01*
X17802Y123781D01*
X17762Y123882D01*
X17726Y123984D01*
X17693Y124088D01*
X17665Y124193D01*
X17640Y124299D01*
X17618Y124406D01*
X17601Y124513D01*
X17587Y124621D01*
X17578Y124730D01*
X17572Y124838D01*
X17570Y124947D01*
X137366Y21483D02*
X138890Y21483D01*
X137366Y21483D02*
X137289Y21485D01*
X137212Y21491D01*
X137135Y21501D01*
X137059Y21514D01*
X136984Y21532D01*
X136910Y21553D01*
X136837Y21578D01*
X136765Y21607D01*
X136695Y21639D01*
X136626Y21674D01*
X136560Y21714D01*
X136495Y21756D01*
X136433Y21802D01*
X136373Y21851D01*
X136316Y21902D01*
X136261Y21957D01*
X136210Y22014D01*
X136161Y22074D01*
X136115Y22136D01*
X136073Y22201D01*
X136033Y22267D01*
X135998Y22336D01*
X135966Y22406D01*
X135937Y22478D01*
X135912Y22551D01*
X135891Y22625D01*
X135873Y22700D01*
X135860Y22776D01*
X135850Y22853D01*
X135844Y22930D01*
X135842Y23007D01*
X135842Y26817D01*
X135844Y26894D01*
X135850Y26971D01*
X135860Y27048D01*
X135873Y27124D01*
X135891Y27199D01*
X135912Y27273D01*
X135937Y27346D01*
X135966Y27418D01*
X135998Y27488D01*
X136033Y27557D01*
X136073Y27623D01*
X136115Y27688D01*
X136161Y27750D01*
X136210Y27810D01*
X136261Y27867D01*
X136316Y27922D01*
X136373Y27973D01*
X136433Y28022D01*
X136495Y28068D01*
X136560Y28110D01*
X136626Y28150D01*
X136695Y28185D01*
X136765Y28217D01*
X136837Y28246D01*
X136910Y28271D01*
X136984Y28292D01*
X137059Y28310D01*
X137135Y28323D01*
X137212Y28333D01*
X137289Y28339D01*
X137366Y28341D01*
X138890Y28341D01*
X141579Y28341D02*
X141579Y27579D01*
X141579Y28341D02*
X145389Y28341D01*
X143484Y21483D01*
X17931Y77758D02*
X17931Y79282D01*
X17931Y77758D02*
X17929Y77681D01*
X17923Y77604D01*
X17913Y77527D01*
X17900Y77451D01*
X17882Y77376D01*
X17861Y77302D01*
X17836Y77229D01*
X17807Y77157D01*
X17775Y77087D01*
X17740Y77018D01*
X17700Y76952D01*
X17658Y76887D01*
X17612Y76825D01*
X17563Y76765D01*
X17512Y76708D01*
X17457Y76653D01*
X17400Y76602D01*
X17340Y76553D01*
X17278Y76507D01*
X17213Y76465D01*
X17147Y76425D01*
X17078Y76390D01*
X17008Y76358D01*
X16936Y76329D01*
X16863Y76304D01*
X16789Y76283D01*
X16714Y76265D01*
X16638Y76252D01*
X16561Y76242D01*
X16484Y76236D01*
X16407Y76234D01*
X12597Y76234D01*
X12520Y76236D01*
X12443Y76242D01*
X12366Y76252D01*
X12290Y76265D01*
X12215Y76283D01*
X12141Y76304D01*
X12068Y76329D01*
X11996Y76358D01*
X11926Y76390D01*
X11857Y76425D01*
X11791Y76465D01*
X11726Y76507D01*
X11664Y76553D01*
X11604Y76602D01*
X11547Y76653D01*
X11492Y76708D01*
X11441Y76765D01*
X11392Y76825D01*
X11346Y76887D01*
X11304Y76952D01*
X11264Y77018D01*
X11229Y77087D01*
X11197Y77157D01*
X11168Y77229D01*
X11143Y77302D01*
X11122Y77376D01*
X11104Y77451D01*
X11091Y77527D01*
X11081Y77604D01*
X11075Y77681D01*
X11073Y77758D01*
X11073Y79282D01*
X12597Y81971D02*
X11073Y83876D01*
X17931Y83876D01*
X17931Y81971D02*
X17931Y85781D01*
X17931Y88829D02*
X17931Y90734D01*
X17929Y90819D01*
X17923Y90905D01*
X17914Y90990D01*
X17900Y91074D01*
X17883Y91158D01*
X17862Y91241D01*
X17838Y91323D01*
X17810Y91403D01*
X17778Y91483D01*
X17742Y91561D01*
X17704Y91637D01*
X17661Y91711D01*
X17616Y91783D01*
X17567Y91854D01*
X17515Y91922D01*
X17461Y91987D01*
X17403Y92050D01*
X17342Y92111D01*
X17279Y92169D01*
X17214Y92223D01*
X17146Y92275D01*
X17075Y92324D01*
X17003Y92369D01*
X16929Y92412D01*
X16853Y92450D01*
X16775Y92486D01*
X16695Y92518D01*
X16615Y92546D01*
X16533Y92570D01*
X16450Y92591D01*
X16366Y92608D01*
X16282Y92622D01*
X16197Y92631D01*
X16111Y92637D01*
X16026Y92639D01*
X15941Y92637D01*
X15855Y92631D01*
X15770Y92622D01*
X15686Y92608D01*
X15602Y92591D01*
X15519Y92570D01*
X15437Y92546D01*
X15357Y92518D01*
X15277Y92486D01*
X15199Y92450D01*
X15123Y92412D01*
X15049Y92369D01*
X14977Y92324D01*
X14906Y92275D01*
X14838Y92223D01*
X14773Y92169D01*
X14710Y92111D01*
X14649Y92050D01*
X14591Y91987D01*
X14537Y91922D01*
X14485Y91854D01*
X14436Y91783D01*
X14391Y91711D01*
X14348Y91637D01*
X14310Y91561D01*
X14274Y91483D01*
X14242Y91403D01*
X14214Y91323D01*
X14190Y91241D01*
X14169Y91158D01*
X14152Y91074D01*
X14138Y90990D01*
X14129Y90905D01*
X14123Y90819D01*
X14121Y90734D01*
X11073Y91115D02*
X11073Y88829D01*
X11073Y91115D02*
X11075Y91192D01*
X11081Y91269D01*
X11091Y91346D01*
X11104Y91422D01*
X11122Y91497D01*
X11143Y91571D01*
X11168Y91644D01*
X11197Y91716D01*
X11229Y91786D01*
X11264Y91855D01*
X11304Y91921D01*
X11346Y91986D01*
X11392Y92048D01*
X11441Y92108D01*
X11492Y92165D01*
X11547Y92220D01*
X11604Y92271D01*
X11664Y92320D01*
X11726Y92366D01*
X11791Y92408D01*
X11857Y92448D01*
X11926Y92483D01*
X11996Y92515D01*
X12068Y92544D01*
X12141Y92569D01*
X12215Y92590D01*
X12290Y92608D01*
X12366Y92621D01*
X12443Y92631D01*
X12520Y92637D01*
X12597Y92639D01*
X12674Y92637D01*
X12751Y92631D01*
X12828Y92621D01*
X12904Y92608D01*
X12979Y92590D01*
X13053Y92569D01*
X13126Y92544D01*
X13198Y92515D01*
X13268Y92483D01*
X13337Y92448D01*
X13403Y92408D01*
X13468Y92366D01*
X13530Y92320D01*
X13590Y92271D01*
X13647Y92220D01*
X13702Y92165D01*
X13753Y92108D01*
X13802Y92048D01*
X13848Y91986D01*
X13890Y91921D01*
X13930Y91855D01*
X13965Y91786D01*
X13997Y91716D01*
X14026Y91644D01*
X14051Y91571D01*
X14072Y91497D01*
X14090Y91422D01*
X14103Y91346D01*
X14113Y91269D01*
X14119Y91192D01*
X14121Y91115D01*
X14121Y89591D01*
D12*
X37998Y37000D02*
X37998Y31900D01*
X23998Y31900D02*
X23998Y37000D01*
D11*
X22235Y27824D02*
X22235Y26300D01*
X22233Y26223D01*
X22227Y26146D01*
X22217Y26069D01*
X22204Y25993D01*
X22186Y25918D01*
X22165Y25844D01*
X22140Y25771D01*
X22111Y25699D01*
X22079Y25629D01*
X22044Y25560D01*
X22004Y25494D01*
X21962Y25429D01*
X21916Y25367D01*
X21867Y25307D01*
X21816Y25250D01*
X21761Y25195D01*
X21704Y25144D01*
X21644Y25095D01*
X21582Y25049D01*
X21517Y25007D01*
X21451Y24967D01*
X21382Y24932D01*
X21312Y24900D01*
X21240Y24871D01*
X21167Y24846D01*
X21093Y24825D01*
X21018Y24807D01*
X20942Y24794D01*
X20865Y24784D01*
X20788Y24778D01*
X20711Y24776D01*
X16901Y24776D01*
X16824Y24778D01*
X16747Y24784D01*
X16670Y24794D01*
X16594Y24807D01*
X16519Y24825D01*
X16445Y24846D01*
X16372Y24871D01*
X16300Y24900D01*
X16230Y24932D01*
X16161Y24967D01*
X16095Y25007D01*
X16030Y25049D01*
X15968Y25095D01*
X15908Y25144D01*
X15851Y25195D01*
X15796Y25250D01*
X15745Y25307D01*
X15696Y25367D01*
X15650Y25429D01*
X15608Y25494D01*
X15568Y25560D01*
X15533Y25629D01*
X15501Y25699D01*
X15472Y25771D01*
X15447Y25844D01*
X15426Y25918D01*
X15408Y25993D01*
X15395Y26069D01*
X15385Y26146D01*
X15379Y26223D01*
X15377Y26300D01*
X15377Y27824D01*
X16901Y30513D02*
X15377Y32418D01*
X22235Y32418D01*
X22235Y30513D02*
X22235Y34323D01*
X18425Y37371D02*
X18425Y39657D01*
X18427Y39734D01*
X18433Y39811D01*
X18443Y39888D01*
X18456Y39964D01*
X18474Y40039D01*
X18495Y40113D01*
X18520Y40186D01*
X18549Y40258D01*
X18581Y40328D01*
X18616Y40397D01*
X18656Y40463D01*
X18698Y40528D01*
X18744Y40590D01*
X18793Y40650D01*
X18844Y40707D01*
X18899Y40762D01*
X18956Y40813D01*
X19016Y40862D01*
X19078Y40908D01*
X19143Y40950D01*
X19209Y40990D01*
X19278Y41025D01*
X19348Y41057D01*
X19420Y41086D01*
X19493Y41111D01*
X19567Y41132D01*
X19642Y41150D01*
X19718Y41163D01*
X19795Y41173D01*
X19872Y41179D01*
X19949Y41181D01*
X20330Y41181D01*
X20415Y41179D01*
X20501Y41173D01*
X20586Y41164D01*
X20670Y41150D01*
X20754Y41133D01*
X20837Y41112D01*
X20919Y41088D01*
X20999Y41060D01*
X21079Y41028D01*
X21157Y40992D01*
X21233Y40954D01*
X21307Y40911D01*
X21379Y40866D01*
X21450Y40817D01*
X21518Y40765D01*
X21583Y40711D01*
X21646Y40653D01*
X21707Y40592D01*
X21765Y40529D01*
X21819Y40464D01*
X21871Y40396D01*
X21920Y40325D01*
X21965Y40253D01*
X22008Y40179D01*
X22046Y40103D01*
X22082Y40025D01*
X22114Y39945D01*
X22142Y39865D01*
X22166Y39783D01*
X22187Y39700D01*
X22204Y39616D01*
X22218Y39532D01*
X22227Y39447D01*
X22233Y39361D01*
X22235Y39276D01*
X22233Y39191D01*
X22227Y39105D01*
X22218Y39020D01*
X22204Y38936D01*
X22187Y38852D01*
X22166Y38769D01*
X22142Y38687D01*
X22114Y38607D01*
X22082Y38527D01*
X22046Y38449D01*
X22008Y38373D01*
X21965Y38299D01*
X21920Y38227D01*
X21871Y38156D01*
X21819Y38088D01*
X21765Y38023D01*
X21707Y37960D01*
X21646Y37899D01*
X21583Y37841D01*
X21518Y37787D01*
X21450Y37735D01*
X21379Y37686D01*
X21307Y37641D01*
X21233Y37598D01*
X21157Y37560D01*
X21079Y37524D01*
X20999Y37492D01*
X20919Y37464D01*
X20837Y37440D01*
X20754Y37419D01*
X20670Y37402D01*
X20586Y37388D01*
X20501Y37379D01*
X20415Y37373D01*
X20330Y37371D01*
X18425Y37371D01*
X18316Y37373D01*
X18208Y37379D01*
X18099Y37388D01*
X17991Y37402D01*
X17884Y37419D01*
X17777Y37441D01*
X17671Y37466D01*
X17566Y37494D01*
X17462Y37527D01*
X17360Y37563D01*
X17259Y37603D01*
X17159Y37646D01*
X17061Y37693D01*
X16964Y37744D01*
X16870Y37798D01*
X16777Y37855D01*
X16687Y37915D01*
X16598Y37979D01*
X16512Y38046D01*
X16429Y38115D01*
X16348Y38188D01*
X16270Y38264D01*
X16194Y38342D01*
X16121Y38423D01*
X16052Y38506D01*
X15985Y38592D01*
X15921Y38681D01*
X15861Y38771D01*
X15804Y38864D01*
X15750Y38958D01*
X15699Y39055D01*
X15652Y39153D01*
X15609Y39253D01*
X15569Y39354D01*
X15533Y39456D01*
X15500Y39560D01*
X15472Y39665D01*
X15447Y39771D01*
X15425Y39878D01*
X15408Y39985D01*
X15394Y40093D01*
X15385Y40202D01*
X15379Y40310D01*
X15377Y40419D01*
X165010Y130613D02*
X166534Y130613D01*
X165010Y130613D02*
X164933Y130615D01*
X164856Y130621D01*
X164779Y130631D01*
X164703Y130644D01*
X164628Y130662D01*
X164554Y130683D01*
X164481Y130708D01*
X164409Y130737D01*
X164339Y130769D01*
X164270Y130804D01*
X164204Y130844D01*
X164139Y130886D01*
X164077Y130932D01*
X164017Y130981D01*
X163960Y131032D01*
X163905Y131087D01*
X163854Y131144D01*
X163805Y131204D01*
X163759Y131266D01*
X163717Y131331D01*
X163677Y131397D01*
X163642Y131466D01*
X163610Y131536D01*
X163581Y131608D01*
X163556Y131681D01*
X163535Y131755D01*
X163517Y131830D01*
X163504Y131906D01*
X163494Y131983D01*
X163488Y132060D01*
X163486Y132137D01*
X163486Y135947D01*
X163488Y136024D01*
X163494Y136101D01*
X163504Y136178D01*
X163517Y136254D01*
X163535Y136329D01*
X163556Y136403D01*
X163581Y136476D01*
X163610Y136548D01*
X163642Y136618D01*
X163677Y136687D01*
X163717Y136753D01*
X163759Y136818D01*
X163805Y136880D01*
X163854Y136940D01*
X163905Y136997D01*
X163960Y137052D01*
X164017Y137103D01*
X164077Y137152D01*
X164139Y137198D01*
X164204Y137240D01*
X164270Y137280D01*
X164339Y137315D01*
X164409Y137347D01*
X164481Y137376D01*
X164554Y137401D01*
X164628Y137422D01*
X164703Y137440D01*
X164779Y137453D01*
X164856Y137463D01*
X164933Y137469D01*
X165010Y137471D01*
X166534Y137471D01*
X169223Y135947D02*
X171128Y137471D01*
X171128Y130613D01*
X169223Y130613D02*
X173033Y130613D01*
X176081Y132518D02*
X176083Y132603D01*
X176089Y132689D01*
X176098Y132774D01*
X176112Y132858D01*
X176129Y132942D01*
X176150Y133025D01*
X176174Y133107D01*
X176202Y133187D01*
X176234Y133267D01*
X176270Y133345D01*
X176308Y133421D01*
X176351Y133495D01*
X176396Y133567D01*
X176445Y133638D01*
X176497Y133706D01*
X176551Y133771D01*
X176609Y133834D01*
X176670Y133895D01*
X176733Y133953D01*
X176798Y134007D01*
X176866Y134059D01*
X176937Y134108D01*
X177009Y134153D01*
X177083Y134196D01*
X177159Y134234D01*
X177237Y134270D01*
X177317Y134302D01*
X177397Y134330D01*
X177479Y134354D01*
X177562Y134375D01*
X177646Y134392D01*
X177730Y134406D01*
X177815Y134415D01*
X177901Y134421D01*
X177986Y134423D01*
X178071Y134421D01*
X178157Y134415D01*
X178242Y134406D01*
X178326Y134392D01*
X178410Y134375D01*
X178493Y134354D01*
X178575Y134330D01*
X178655Y134302D01*
X178735Y134270D01*
X178813Y134234D01*
X178889Y134196D01*
X178963Y134153D01*
X179035Y134108D01*
X179106Y134059D01*
X179174Y134007D01*
X179239Y133953D01*
X179302Y133895D01*
X179363Y133834D01*
X179421Y133771D01*
X179475Y133706D01*
X179527Y133638D01*
X179576Y133567D01*
X179621Y133495D01*
X179664Y133421D01*
X179702Y133345D01*
X179738Y133267D01*
X179770Y133187D01*
X179798Y133107D01*
X179822Y133025D01*
X179843Y132942D01*
X179860Y132858D01*
X179874Y132774D01*
X179883Y132689D01*
X179889Y132603D01*
X179891Y132518D01*
X179889Y132433D01*
X179883Y132347D01*
X179874Y132262D01*
X179860Y132178D01*
X179843Y132094D01*
X179822Y132011D01*
X179798Y131929D01*
X179770Y131849D01*
X179738Y131769D01*
X179702Y131691D01*
X179664Y131615D01*
X179621Y131541D01*
X179576Y131469D01*
X179527Y131398D01*
X179475Y131330D01*
X179421Y131265D01*
X179363Y131202D01*
X179302Y131141D01*
X179239Y131083D01*
X179174Y131029D01*
X179106Y130977D01*
X179035Y130928D01*
X178963Y130883D01*
X178889Y130840D01*
X178813Y130802D01*
X178735Y130766D01*
X178655Y130734D01*
X178575Y130706D01*
X178493Y130682D01*
X178410Y130661D01*
X178326Y130644D01*
X178242Y130630D01*
X178157Y130621D01*
X178071Y130615D01*
X177986Y130613D01*
X177901Y130615D01*
X177815Y130621D01*
X177730Y130630D01*
X177646Y130644D01*
X177562Y130661D01*
X177479Y130682D01*
X177397Y130706D01*
X177317Y130734D01*
X177237Y130766D01*
X177159Y130802D01*
X177083Y130840D01*
X177009Y130883D01*
X176937Y130928D01*
X176866Y130977D01*
X176798Y131029D01*
X176733Y131083D01*
X176670Y131141D01*
X176609Y131202D01*
X176551Y131265D01*
X176497Y131330D01*
X176445Y131398D01*
X176396Y131469D01*
X176351Y131541D01*
X176308Y131615D01*
X176270Y131691D01*
X176234Y131769D01*
X176202Y131849D01*
X176174Y131929D01*
X176150Y132011D01*
X176129Y132094D01*
X176112Y132178D01*
X176098Y132262D01*
X176089Y132347D01*
X176083Y132433D01*
X176081Y132518D01*
X176462Y135947D02*
X176464Y136024D01*
X176470Y136101D01*
X176480Y136178D01*
X176493Y136254D01*
X176511Y136329D01*
X176532Y136403D01*
X176557Y136476D01*
X176586Y136548D01*
X176618Y136618D01*
X176653Y136687D01*
X176693Y136753D01*
X176735Y136818D01*
X176781Y136880D01*
X176830Y136940D01*
X176881Y136997D01*
X176936Y137052D01*
X176993Y137103D01*
X177053Y137152D01*
X177115Y137198D01*
X177180Y137240D01*
X177246Y137280D01*
X177315Y137315D01*
X177385Y137347D01*
X177457Y137376D01*
X177530Y137401D01*
X177604Y137422D01*
X177679Y137440D01*
X177755Y137453D01*
X177832Y137463D01*
X177909Y137469D01*
X177986Y137471D01*
X178063Y137469D01*
X178140Y137463D01*
X178217Y137453D01*
X178293Y137440D01*
X178368Y137422D01*
X178442Y137401D01*
X178515Y137376D01*
X178587Y137347D01*
X178657Y137315D01*
X178726Y137280D01*
X178792Y137240D01*
X178857Y137198D01*
X178919Y137152D01*
X178979Y137103D01*
X179036Y137052D01*
X179091Y136997D01*
X179142Y136940D01*
X179191Y136880D01*
X179237Y136818D01*
X179279Y136753D01*
X179319Y136687D01*
X179354Y136618D01*
X179386Y136548D01*
X179415Y136476D01*
X179440Y136403D01*
X179461Y136329D01*
X179479Y136254D01*
X179492Y136178D01*
X179502Y136101D01*
X179508Y136024D01*
X179510Y135947D01*
X179508Y135870D01*
X179502Y135793D01*
X179492Y135716D01*
X179479Y135640D01*
X179461Y135565D01*
X179440Y135491D01*
X179415Y135418D01*
X179386Y135346D01*
X179354Y135276D01*
X179319Y135207D01*
X179279Y135141D01*
X179237Y135076D01*
X179191Y135014D01*
X179142Y134954D01*
X179091Y134897D01*
X179036Y134842D01*
X178979Y134791D01*
X178919Y134742D01*
X178857Y134696D01*
X178792Y134654D01*
X178726Y134614D01*
X178657Y134579D01*
X178587Y134547D01*
X178515Y134518D01*
X178442Y134493D01*
X178368Y134472D01*
X178293Y134454D01*
X178217Y134441D01*
X178140Y134431D01*
X178063Y134425D01*
X177986Y134423D01*
X177909Y134425D01*
X177832Y134431D01*
X177755Y134441D01*
X177679Y134454D01*
X177604Y134472D01*
X177530Y134493D01*
X177457Y134518D01*
X177385Y134547D01*
X177315Y134579D01*
X177246Y134614D01*
X177180Y134654D01*
X177115Y134696D01*
X177053Y134742D01*
X176993Y134791D01*
X176936Y134842D01*
X176881Y134897D01*
X176830Y134954D01*
X176781Y135014D01*
X176735Y135076D01*
X176693Y135141D01*
X176653Y135207D01*
X176618Y135276D01*
X176586Y135346D01*
X176557Y135418D01*
X176532Y135491D01*
X176511Y135565D01*
X176493Y135640D01*
X176480Y135716D01*
X176470Y135793D01*
X176464Y135870D01*
X176462Y135947D01*
D13*
X133427Y126594D02*
X133427Y119482D01*
X136588Y119482D01*
X139130Y125014D02*
X141105Y126594D01*
X141105Y119482D01*
X139130Y119482D02*
X143081Y119482D01*
X143683Y81950D02*
X145264Y81950D01*
X143683Y81950D02*
X143605Y81952D01*
X143528Y81958D01*
X143451Y81967D01*
X143375Y81980D01*
X143299Y81997D01*
X143224Y82018D01*
X143151Y82042D01*
X143078Y82070D01*
X143007Y82102D01*
X142938Y82137D01*
X142871Y82175D01*
X142805Y82216D01*
X142742Y82261D01*
X142681Y82309D01*
X142622Y82359D01*
X142566Y82413D01*
X142512Y82469D01*
X142462Y82528D01*
X142414Y82589D01*
X142369Y82652D01*
X142328Y82718D01*
X142290Y82785D01*
X142255Y82854D01*
X142223Y82925D01*
X142195Y82998D01*
X142171Y83071D01*
X142150Y83146D01*
X142133Y83222D01*
X142120Y83298D01*
X142111Y83375D01*
X142105Y83452D01*
X142103Y83530D01*
X142103Y87482D01*
X142105Y87560D01*
X142111Y87637D01*
X142120Y87714D01*
X142133Y87790D01*
X142150Y87866D01*
X142171Y87941D01*
X142195Y88014D01*
X142223Y88087D01*
X142255Y88158D01*
X142290Y88227D01*
X142328Y88294D01*
X142369Y88360D01*
X142414Y88423D01*
X142462Y88484D01*
X142512Y88543D01*
X142566Y88599D01*
X142622Y88653D01*
X142681Y88703D01*
X142742Y88751D01*
X142805Y88796D01*
X142871Y88837D01*
X142938Y88875D01*
X143007Y88910D01*
X143078Y88942D01*
X143151Y88970D01*
X143224Y88994D01*
X143299Y89015D01*
X143375Y89032D01*
X143451Y89045D01*
X143528Y89054D01*
X143605Y89060D01*
X143683Y89062D01*
X145264Y89062D01*
X147836Y81950D02*
X149812Y81950D01*
X149899Y81952D01*
X149987Y81958D01*
X150074Y81967D01*
X150160Y81981D01*
X150246Y81998D01*
X150330Y82019D01*
X150414Y82044D01*
X150497Y82073D01*
X150578Y82105D01*
X150658Y82140D01*
X150736Y82179D01*
X150813Y82222D01*
X150887Y82268D01*
X150959Y82317D01*
X151029Y82369D01*
X151097Y82425D01*
X151162Y82483D01*
X151225Y82544D01*
X151284Y82608D01*
X151341Y82675D01*
X151395Y82743D01*
X151446Y82815D01*
X151493Y82888D01*
X151538Y82963D01*
X151579Y83041D01*
X151616Y83120D01*
X151650Y83200D01*
X151680Y83282D01*
X151707Y83365D01*
X151730Y83450D01*
X151749Y83535D01*
X151764Y83621D01*
X151776Y83708D01*
X151784Y83795D01*
X151788Y83882D01*
X151788Y83970D01*
X151784Y84057D01*
X151776Y84144D01*
X151764Y84231D01*
X151749Y84317D01*
X151730Y84402D01*
X151707Y84487D01*
X151680Y84570D01*
X151650Y84652D01*
X151616Y84732D01*
X151579Y84811D01*
X151538Y84889D01*
X151493Y84964D01*
X151446Y85037D01*
X151395Y85109D01*
X151341Y85177D01*
X151284Y85244D01*
X151225Y85308D01*
X151162Y85369D01*
X151097Y85427D01*
X151029Y85483D01*
X150959Y85535D01*
X150887Y85584D01*
X150813Y85630D01*
X150736Y85673D01*
X150658Y85712D01*
X150578Y85747D01*
X150497Y85779D01*
X150414Y85808D01*
X150330Y85833D01*
X150246Y85854D01*
X150160Y85871D01*
X150074Y85885D01*
X149987Y85894D01*
X149899Y85900D01*
X149812Y85902D01*
X150207Y89062D02*
X147836Y89062D01*
X150207Y89062D02*
X150286Y89060D01*
X150364Y89054D01*
X150442Y89044D01*
X150520Y89031D01*
X150597Y89013D01*
X150673Y88992D01*
X150747Y88967D01*
X150821Y88938D01*
X150893Y88906D01*
X150963Y88870D01*
X151031Y88830D01*
X151097Y88787D01*
X151161Y88741D01*
X151223Y88692D01*
X151282Y88640D01*
X151338Y88585D01*
X151392Y88527D01*
X151442Y88467D01*
X151490Y88404D01*
X151534Y88339D01*
X151575Y88272D01*
X151613Y88203D01*
X151647Y88132D01*
X151678Y88059D01*
X151705Y87985D01*
X151728Y87910D01*
X151747Y87834D01*
X151763Y87756D01*
X151775Y87678D01*
X151783Y87600D01*
X151787Y87521D01*
X151787Y87443D01*
X151783Y87364D01*
X151775Y87286D01*
X151763Y87208D01*
X151747Y87130D01*
X151728Y87054D01*
X151705Y86979D01*
X151678Y86905D01*
X151647Y86832D01*
X151613Y86761D01*
X151575Y86692D01*
X151534Y86625D01*
X151490Y86560D01*
X151442Y86497D01*
X151392Y86437D01*
X151338Y86379D01*
X151282Y86324D01*
X151223Y86272D01*
X151161Y86223D01*
X151097Y86177D01*
X151031Y86134D01*
X150963Y86094D01*
X150893Y86058D01*
X150821Y86026D01*
X150747Y85997D01*
X150673Y85972D01*
X150597Y85951D01*
X150520Y85933D01*
X150442Y85920D01*
X150364Y85910D01*
X150286Y85904D01*
X150207Y85902D01*
X150207Y85901D02*
X148626Y85901D01*
X145746Y55529D02*
X144165Y55529D01*
X144087Y55531D01*
X144010Y55537D01*
X143933Y55546D01*
X143857Y55559D01*
X143781Y55576D01*
X143706Y55597D01*
X143633Y55621D01*
X143560Y55649D01*
X143489Y55681D01*
X143420Y55716D01*
X143353Y55754D01*
X143287Y55795D01*
X143224Y55840D01*
X143163Y55888D01*
X143104Y55938D01*
X143048Y55992D01*
X142994Y56048D01*
X142944Y56107D01*
X142896Y56168D01*
X142851Y56231D01*
X142810Y56297D01*
X142772Y56364D01*
X142737Y56433D01*
X142705Y56504D01*
X142677Y56577D01*
X142653Y56650D01*
X142632Y56725D01*
X142615Y56801D01*
X142602Y56877D01*
X142593Y56954D01*
X142587Y57031D01*
X142585Y57109D01*
X142585Y61061D01*
X142587Y61139D01*
X142593Y61216D01*
X142602Y61293D01*
X142615Y61369D01*
X142632Y61445D01*
X142653Y61520D01*
X142677Y61593D01*
X142705Y61666D01*
X142737Y61737D01*
X142772Y61806D01*
X142810Y61873D01*
X142851Y61939D01*
X142896Y62002D01*
X142944Y62063D01*
X142994Y62122D01*
X143048Y62178D01*
X143104Y62232D01*
X143163Y62282D01*
X143224Y62330D01*
X143287Y62375D01*
X143353Y62416D01*
X143420Y62454D01*
X143489Y62489D01*
X143560Y62521D01*
X143633Y62549D01*
X143706Y62573D01*
X143781Y62594D01*
X143857Y62611D01*
X143933Y62624D01*
X144010Y62633D01*
X144087Y62639D01*
X144165Y62641D01*
X145746Y62641D01*
X149899Y62641D02*
X148318Y57109D01*
X152269Y57109D01*
X151084Y58690D02*
X151084Y55529D01*
X164186Y121208D02*
X164186Y128340D01*
X164186Y121208D02*
X167356Y121208D01*
X169904Y122793D02*
X171488Y128340D01*
X169904Y122793D02*
X173866Y122793D01*
X172677Y124378D02*
X172677Y121208D01*
X131661Y88787D02*
X131661Y81675D01*
X134822Y81675D01*
X141315Y87009D02*
X141313Y87091D01*
X141307Y87173D01*
X141298Y87255D01*
X141285Y87336D01*
X141268Y87416D01*
X141247Y87496D01*
X141223Y87574D01*
X141195Y87651D01*
X141164Y87727D01*
X141129Y87802D01*
X141090Y87874D01*
X141049Y87945D01*
X141004Y88014D01*
X140956Y88080D01*
X140905Y88145D01*
X140851Y88207D01*
X140794Y88266D01*
X140735Y88323D01*
X140673Y88377D01*
X140608Y88428D01*
X140542Y88476D01*
X140473Y88521D01*
X140402Y88562D01*
X140330Y88601D01*
X140255Y88636D01*
X140179Y88667D01*
X140102Y88695D01*
X140024Y88719D01*
X139944Y88740D01*
X139864Y88757D01*
X139783Y88770D01*
X139701Y88779D01*
X139619Y88785D01*
X139537Y88787D01*
X139444Y88785D01*
X139352Y88779D01*
X139260Y88770D01*
X139168Y88757D01*
X139077Y88740D01*
X138987Y88720D01*
X138897Y88696D01*
X138809Y88668D01*
X138721Y88636D01*
X138636Y88602D01*
X138551Y88563D01*
X138469Y88522D01*
X138388Y88477D01*
X138308Y88428D01*
X138231Y88377D01*
X138156Y88323D01*
X138084Y88265D01*
X138014Y88205D01*
X137946Y88141D01*
X137881Y88076D01*
X137818Y88007D01*
X137759Y87936D01*
X137702Y87863D01*
X137648Y87787D01*
X137598Y87710D01*
X137550Y87630D01*
X137506Y87549D01*
X137466Y87465D01*
X137428Y87381D01*
X137394Y87294D01*
X137364Y87207D01*
X140722Y85626D02*
X140783Y85687D01*
X140841Y85750D01*
X140896Y85816D01*
X140949Y85884D01*
X140998Y85955D01*
X141043Y86027D01*
X141086Y86102D01*
X141125Y86178D01*
X141161Y86257D01*
X141193Y86336D01*
X141221Y86417D01*
X141246Y86500D01*
X141267Y86583D01*
X141284Y86667D01*
X141298Y86752D01*
X141307Y86837D01*
X141313Y86923D01*
X141315Y87009D01*
X140722Y85626D02*
X137364Y81675D01*
X141315Y81675D01*
X55056Y27168D02*
X55056Y25587D01*
X55054Y25509D01*
X55048Y25432D01*
X55039Y25355D01*
X55026Y25279D01*
X55009Y25203D01*
X54988Y25128D01*
X54964Y25055D01*
X54936Y24982D01*
X54904Y24911D01*
X54869Y24842D01*
X54831Y24775D01*
X54790Y24709D01*
X54745Y24646D01*
X54697Y24585D01*
X54647Y24526D01*
X54593Y24470D01*
X54537Y24416D01*
X54478Y24366D01*
X54417Y24318D01*
X54354Y24273D01*
X54288Y24232D01*
X54221Y24194D01*
X54152Y24159D01*
X54081Y24127D01*
X54008Y24099D01*
X53935Y24075D01*
X53860Y24054D01*
X53784Y24037D01*
X53708Y24024D01*
X53631Y24015D01*
X53554Y24009D01*
X53476Y24007D01*
X49525Y24007D01*
X49525Y24006D02*
X49447Y24008D01*
X49370Y24014D01*
X49293Y24023D01*
X49217Y24036D01*
X49141Y24053D01*
X49066Y24074D01*
X48992Y24098D01*
X48920Y24126D01*
X48849Y24158D01*
X48780Y24193D01*
X48712Y24231D01*
X48647Y24272D01*
X48583Y24317D01*
X48522Y24365D01*
X48463Y24416D01*
X48407Y24469D01*
X48354Y24525D01*
X48303Y24584D01*
X48255Y24645D01*
X48210Y24709D01*
X48169Y24774D01*
X48131Y24842D01*
X48096Y24911D01*
X48064Y24982D01*
X48036Y25054D01*
X48012Y25128D01*
X47991Y25203D01*
X47974Y25279D01*
X47961Y25355D01*
X47952Y25432D01*
X47946Y25509D01*
X47944Y25587D01*
X47944Y27168D01*
X49525Y29740D02*
X47944Y31716D01*
X55056Y31716D01*
X55056Y33691D02*
X55056Y29740D01*
X53476Y36598D02*
X47944Y38179D01*
X53476Y36598D02*
X53476Y40549D01*
X51895Y39364D02*
X55056Y39364D01*
X102732Y46104D02*
X102732Y47684D01*
X102732Y46104D02*
X102730Y46026D01*
X102724Y45949D01*
X102715Y45872D01*
X102702Y45796D01*
X102685Y45720D01*
X102664Y45645D01*
X102640Y45572D01*
X102612Y45499D01*
X102580Y45428D01*
X102545Y45359D01*
X102507Y45292D01*
X102466Y45226D01*
X102421Y45163D01*
X102373Y45102D01*
X102323Y45043D01*
X102269Y44987D01*
X102213Y44933D01*
X102154Y44883D01*
X102093Y44835D01*
X102030Y44790D01*
X101964Y44749D01*
X101897Y44711D01*
X101828Y44676D01*
X101757Y44644D01*
X101684Y44616D01*
X101611Y44592D01*
X101536Y44571D01*
X101460Y44554D01*
X101384Y44541D01*
X101307Y44532D01*
X101230Y44526D01*
X101152Y44524D01*
X101152Y44523D02*
X97201Y44523D01*
X97123Y44525D01*
X97046Y44531D01*
X96969Y44540D01*
X96893Y44553D01*
X96817Y44570D01*
X96742Y44591D01*
X96668Y44615D01*
X96596Y44643D01*
X96525Y44675D01*
X96456Y44710D01*
X96388Y44748D01*
X96323Y44789D01*
X96259Y44834D01*
X96198Y44882D01*
X96139Y44933D01*
X96083Y44986D01*
X96030Y45042D01*
X95979Y45101D01*
X95931Y45162D01*
X95886Y45226D01*
X95845Y45291D01*
X95807Y45359D01*
X95772Y45428D01*
X95740Y45499D01*
X95712Y45571D01*
X95688Y45645D01*
X95667Y45720D01*
X95650Y45796D01*
X95637Y45872D01*
X95628Y45949D01*
X95622Y46026D01*
X95620Y46104D01*
X95620Y47684D01*
X100757Y50256D02*
X100670Y50258D01*
X100582Y50264D01*
X100495Y50273D01*
X100409Y50287D01*
X100323Y50304D01*
X100239Y50325D01*
X100155Y50350D01*
X100072Y50379D01*
X99991Y50411D01*
X99911Y50446D01*
X99833Y50485D01*
X99756Y50528D01*
X99682Y50574D01*
X99610Y50623D01*
X99540Y50675D01*
X99472Y50731D01*
X99407Y50789D01*
X99344Y50850D01*
X99285Y50914D01*
X99228Y50981D01*
X99174Y51049D01*
X99123Y51121D01*
X99076Y51194D01*
X99031Y51269D01*
X98990Y51347D01*
X98953Y51426D01*
X98919Y51506D01*
X98889Y51588D01*
X98862Y51671D01*
X98839Y51756D01*
X98820Y51841D01*
X98805Y51927D01*
X98793Y52014D01*
X98785Y52101D01*
X98781Y52188D01*
X98781Y52276D01*
X98785Y52363D01*
X98793Y52450D01*
X98805Y52537D01*
X98820Y52623D01*
X98839Y52708D01*
X98862Y52793D01*
X98889Y52876D01*
X98919Y52958D01*
X98953Y53038D01*
X98990Y53117D01*
X99031Y53195D01*
X99076Y53270D01*
X99123Y53343D01*
X99174Y53415D01*
X99228Y53483D01*
X99285Y53550D01*
X99344Y53614D01*
X99407Y53675D01*
X99472Y53733D01*
X99540Y53789D01*
X99610Y53841D01*
X99682Y53890D01*
X99756Y53936D01*
X99833Y53979D01*
X99911Y54018D01*
X99991Y54053D01*
X100072Y54085D01*
X100155Y54114D01*
X100239Y54139D01*
X100323Y54160D01*
X100409Y54177D01*
X100495Y54191D01*
X100582Y54200D01*
X100670Y54206D01*
X100757Y54208D01*
X100844Y54206D01*
X100932Y54200D01*
X101019Y54191D01*
X101105Y54177D01*
X101191Y54160D01*
X101275Y54139D01*
X101359Y54114D01*
X101442Y54085D01*
X101523Y54053D01*
X101603Y54018D01*
X101681Y53979D01*
X101758Y53936D01*
X101832Y53890D01*
X101904Y53841D01*
X101974Y53789D01*
X102042Y53733D01*
X102107Y53675D01*
X102170Y53614D01*
X102229Y53550D01*
X102286Y53483D01*
X102340Y53415D01*
X102391Y53343D01*
X102438Y53270D01*
X102483Y53195D01*
X102524Y53117D01*
X102561Y53038D01*
X102595Y52958D01*
X102625Y52876D01*
X102652Y52793D01*
X102675Y52708D01*
X102694Y52623D01*
X102709Y52537D01*
X102721Y52450D01*
X102729Y52363D01*
X102733Y52276D01*
X102733Y52188D01*
X102729Y52101D01*
X102721Y52014D01*
X102709Y51927D01*
X102694Y51841D01*
X102675Y51756D01*
X102652Y51671D01*
X102625Y51588D01*
X102595Y51506D01*
X102561Y51426D01*
X102524Y51347D01*
X102483Y51269D01*
X102438Y51194D01*
X102391Y51121D01*
X102340Y51049D01*
X102286Y50981D01*
X102229Y50914D01*
X102170Y50850D01*
X102107Y50789D01*
X102042Y50731D01*
X101974Y50675D01*
X101904Y50623D01*
X101832Y50574D01*
X101758Y50528D01*
X101681Y50485D01*
X101603Y50446D01*
X101523Y50411D01*
X101442Y50379D01*
X101359Y50350D01*
X101275Y50325D01*
X101191Y50304D01*
X101105Y50287D01*
X101019Y50273D01*
X100932Y50264D01*
X100844Y50258D01*
X100757Y50256D01*
X97201Y50652D02*
X97122Y50654D01*
X97044Y50660D01*
X96966Y50670D01*
X96888Y50683D01*
X96811Y50701D01*
X96735Y50722D01*
X96661Y50747D01*
X96587Y50776D01*
X96515Y50808D01*
X96445Y50844D01*
X96377Y50884D01*
X96311Y50927D01*
X96247Y50973D01*
X96185Y51022D01*
X96126Y51074D01*
X96070Y51129D01*
X96016Y51187D01*
X95966Y51247D01*
X95918Y51310D01*
X95874Y51375D01*
X95833Y51442D01*
X95795Y51511D01*
X95761Y51582D01*
X95730Y51655D01*
X95703Y51729D01*
X95680Y51804D01*
X95661Y51880D01*
X95645Y51958D01*
X95633Y52036D01*
X95625Y52114D01*
X95621Y52193D01*
X95621Y52271D01*
X95625Y52350D01*
X95633Y52428D01*
X95645Y52506D01*
X95661Y52584D01*
X95680Y52660D01*
X95703Y52735D01*
X95730Y52809D01*
X95761Y52882D01*
X95795Y52953D01*
X95833Y53022D01*
X95874Y53089D01*
X95918Y53154D01*
X95966Y53217D01*
X96016Y53277D01*
X96070Y53335D01*
X96126Y53390D01*
X96185Y53442D01*
X96247Y53491D01*
X96311Y53537D01*
X96377Y53580D01*
X96445Y53620D01*
X96515Y53656D01*
X96587Y53688D01*
X96661Y53717D01*
X96735Y53742D01*
X96811Y53763D01*
X96888Y53781D01*
X96966Y53794D01*
X97044Y53804D01*
X97122Y53810D01*
X97201Y53812D01*
X97280Y53810D01*
X97358Y53804D01*
X97436Y53794D01*
X97514Y53781D01*
X97591Y53763D01*
X97667Y53742D01*
X97741Y53717D01*
X97815Y53688D01*
X97887Y53656D01*
X97957Y53620D01*
X98025Y53580D01*
X98091Y53537D01*
X98155Y53491D01*
X98217Y53442D01*
X98276Y53390D01*
X98332Y53335D01*
X98386Y53277D01*
X98436Y53217D01*
X98484Y53154D01*
X98528Y53089D01*
X98569Y53022D01*
X98607Y52953D01*
X98641Y52882D01*
X98672Y52809D01*
X98699Y52735D01*
X98722Y52660D01*
X98741Y52584D01*
X98757Y52506D01*
X98769Y52428D01*
X98777Y52350D01*
X98781Y52271D01*
X98781Y52193D01*
X98777Y52114D01*
X98769Y52036D01*
X98757Y51958D01*
X98741Y51880D01*
X98722Y51804D01*
X98699Y51729D01*
X98672Y51655D01*
X98641Y51582D01*
X98607Y51511D01*
X98569Y51442D01*
X98528Y51375D01*
X98484Y51310D01*
X98436Y51247D01*
X98386Y51187D01*
X98332Y51129D01*
X98276Y51074D01*
X98217Y51022D01*
X98155Y50973D01*
X98091Y50927D01*
X98025Y50884D01*
X97957Y50844D01*
X97887Y50808D01*
X97815Y50776D01*
X97741Y50747D01*
X97667Y50722D01*
X97591Y50701D01*
X97514Y50683D01*
X97436Y50670D01*
X97358Y50660D01*
X97280Y50654D01*
X97201Y50652D01*
D14*
X104984Y61976D02*
X104984Y121444D01*
X45516Y121444D01*
X45516Y61976D01*
X104984Y61976D01*
D13*
X143754Y54136D02*
X143754Y47024D01*
X143754Y54136D02*
X145730Y54136D01*
X145730Y54137D02*
X145817Y54135D01*
X145905Y54129D01*
X145992Y54120D01*
X146078Y54106D01*
X146164Y54089D01*
X146248Y54068D01*
X146332Y54043D01*
X146415Y54014D01*
X146496Y53982D01*
X146576Y53947D01*
X146654Y53908D01*
X146731Y53865D01*
X146805Y53819D01*
X146877Y53770D01*
X146947Y53718D01*
X147015Y53662D01*
X147080Y53604D01*
X147143Y53543D01*
X147202Y53479D01*
X147259Y53412D01*
X147313Y53344D01*
X147364Y53272D01*
X147411Y53199D01*
X147456Y53124D01*
X147497Y53046D01*
X147534Y52967D01*
X147568Y52887D01*
X147598Y52805D01*
X147625Y52722D01*
X147648Y52637D01*
X147667Y52552D01*
X147682Y52466D01*
X147694Y52379D01*
X147702Y52292D01*
X147706Y52205D01*
X147706Y52117D01*
X147702Y52030D01*
X147694Y51943D01*
X147682Y51856D01*
X147667Y51770D01*
X147648Y51685D01*
X147625Y51600D01*
X147598Y51517D01*
X147568Y51435D01*
X147534Y51355D01*
X147497Y51276D01*
X147456Y51198D01*
X147411Y51123D01*
X147364Y51050D01*
X147313Y50978D01*
X147259Y50910D01*
X147202Y50843D01*
X147143Y50779D01*
X147080Y50718D01*
X147015Y50660D01*
X146947Y50604D01*
X146877Y50552D01*
X146805Y50503D01*
X146731Y50457D01*
X146654Y50414D01*
X146576Y50375D01*
X146496Y50340D01*
X146415Y50308D01*
X146332Y50279D01*
X146248Y50254D01*
X146164Y50233D01*
X146078Y50216D01*
X145992Y50202D01*
X145905Y50193D01*
X145817Y50187D01*
X145730Y50185D01*
X143754Y50185D01*
X146125Y50185D02*
X147705Y47024D01*
X150572Y47024D02*
X152547Y47024D01*
X152634Y47026D01*
X152722Y47032D01*
X152809Y47041D01*
X152895Y47055D01*
X152981Y47072D01*
X153065Y47093D01*
X153149Y47118D01*
X153232Y47147D01*
X153313Y47179D01*
X153393Y47214D01*
X153471Y47253D01*
X153548Y47296D01*
X153622Y47342D01*
X153694Y47391D01*
X153764Y47443D01*
X153832Y47499D01*
X153897Y47557D01*
X153960Y47618D01*
X154019Y47682D01*
X154076Y47749D01*
X154130Y47817D01*
X154181Y47889D01*
X154228Y47962D01*
X154273Y48037D01*
X154314Y48115D01*
X154351Y48194D01*
X154385Y48274D01*
X154415Y48356D01*
X154442Y48439D01*
X154465Y48524D01*
X154484Y48609D01*
X154499Y48695D01*
X154511Y48782D01*
X154519Y48869D01*
X154523Y48956D01*
X154523Y49044D01*
X154519Y49131D01*
X154511Y49218D01*
X154499Y49305D01*
X154484Y49391D01*
X154465Y49476D01*
X154442Y49561D01*
X154415Y49644D01*
X154385Y49726D01*
X154351Y49806D01*
X154314Y49885D01*
X154273Y49963D01*
X154228Y50038D01*
X154181Y50111D01*
X154130Y50183D01*
X154076Y50251D01*
X154019Y50318D01*
X153960Y50382D01*
X153897Y50443D01*
X153832Y50501D01*
X153764Y50557D01*
X153694Y50609D01*
X153622Y50658D01*
X153548Y50704D01*
X153471Y50747D01*
X153393Y50786D01*
X153313Y50821D01*
X153232Y50853D01*
X153149Y50882D01*
X153065Y50907D01*
X152981Y50928D01*
X152895Y50945D01*
X152809Y50959D01*
X152722Y50968D01*
X152634Y50974D01*
X152547Y50976D01*
X152942Y54136D02*
X150572Y54136D01*
X152942Y54136D02*
X153021Y54134D01*
X153099Y54128D01*
X153177Y54118D01*
X153255Y54105D01*
X153332Y54087D01*
X153408Y54066D01*
X153482Y54041D01*
X153556Y54012D01*
X153628Y53980D01*
X153698Y53944D01*
X153766Y53904D01*
X153832Y53861D01*
X153896Y53815D01*
X153958Y53766D01*
X154017Y53714D01*
X154073Y53659D01*
X154127Y53601D01*
X154177Y53541D01*
X154225Y53478D01*
X154269Y53413D01*
X154310Y53346D01*
X154348Y53277D01*
X154382Y53206D01*
X154413Y53133D01*
X154440Y53059D01*
X154463Y52984D01*
X154482Y52908D01*
X154498Y52830D01*
X154510Y52752D01*
X154518Y52674D01*
X154522Y52595D01*
X154522Y52517D01*
X154518Y52438D01*
X154510Y52360D01*
X154498Y52282D01*
X154482Y52204D01*
X154463Y52128D01*
X154440Y52053D01*
X154413Y51979D01*
X154382Y51906D01*
X154348Y51835D01*
X154310Y51766D01*
X154269Y51699D01*
X154225Y51634D01*
X154177Y51571D01*
X154127Y51511D01*
X154073Y51453D01*
X154017Y51398D01*
X153958Y51346D01*
X153896Y51297D01*
X153832Y51251D01*
X153766Y51208D01*
X153698Y51168D01*
X153628Y51132D01*
X153556Y51100D01*
X153482Y51071D01*
X153408Y51046D01*
X153332Y51025D01*
X153255Y51007D01*
X153177Y50994D01*
X153099Y50984D01*
X153021Y50978D01*
X152942Y50976D01*
X152942Y50975D02*
X151362Y50975D01*
X108793Y39624D02*
X107212Y39624D01*
X107134Y39626D01*
X107057Y39632D01*
X106980Y39641D01*
X106904Y39654D01*
X106828Y39671D01*
X106753Y39692D01*
X106680Y39716D01*
X106607Y39744D01*
X106536Y39776D01*
X106467Y39811D01*
X106400Y39849D01*
X106334Y39890D01*
X106271Y39935D01*
X106210Y39983D01*
X106151Y40033D01*
X106095Y40087D01*
X106041Y40143D01*
X105991Y40202D01*
X105943Y40263D01*
X105898Y40326D01*
X105857Y40392D01*
X105819Y40459D01*
X105784Y40528D01*
X105752Y40599D01*
X105724Y40672D01*
X105700Y40745D01*
X105679Y40820D01*
X105662Y40896D01*
X105649Y40972D01*
X105640Y41049D01*
X105634Y41126D01*
X105632Y41204D01*
X105632Y45156D01*
X105634Y45234D01*
X105640Y45311D01*
X105649Y45388D01*
X105662Y45464D01*
X105679Y45540D01*
X105700Y45615D01*
X105724Y45688D01*
X105752Y45761D01*
X105784Y45832D01*
X105819Y45901D01*
X105857Y45968D01*
X105898Y46034D01*
X105943Y46097D01*
X105991Y46158D01*
X106041Y46217D01*
X106095Y46273D01*
X106151Y46327D01*
X106210Y46377D01*
X106271Y46425D01*
X106334Y46470D01*
X106400Y46511D01*
X106467Y46549D01*
X106536Y46584D01*
X106607Y46616D01*
X106680Y46644D01*
X106753Y46668D01*
X106828Y46689D01*
X106904Y46706D01*
X106980Y46719D01*
X107057Y46728D01*
X107134Y46734D01*
X107212Y46736D01*
X108793Y46736D01*
X112945Y42785D02*
X115316Y42785D01*
X112945Y42785D02*
X112867Y42787D01*
X112790Y42793D01*
X112713Y42802D01*
X112637Y42815D01*
X112561Y42832D01*
X112486Y42853D01*
X112413Y42877D01*
X112340Y42905D01*
X112269Y42937D01*
X112200Y42972D01*
X112133Y43010D01*
X112067Y43051D01*
X112004Y43096D01*
X111943Y43144D01*
X111884Y43194D01*
X111828Y43248D01*
X111774Y43304D01*
X111724Y43363D01*
X111676Y43424D01*
X111631Y43487D01*
X111590Y43553D01*
X111552Y43620D01*
X111517Y43689D01*
X111485Y43760D01*
X111457Y43833D01*
X111433Y43906D01*
X111412Y43981D01*
X111395Y44057D01*
X111382Y44133D01*
X111373Y44210D01*
X111367Y44287D01*
X111365Y44365D01*
X111365Y44760D01*
X111364Y44760D02*
X111366Y44847D01*
X111372Y44935D01*
X111381Y45022D01*
X111395Y45108D01*
X111412Y45194D01*
X111433Y45278D01*
X111458Y45362D01*
X111487Y45445D01*
X111519Y45526D01*
X111554Y45606D01*
X111593Y45684D01*
X111636Y45761D01*
X111682Y45835D01*
X111731Y45907D01*
X111783Y45977D01*
X111839Y46045D01*
X111897Y46110D01*
X111958Y46173D01*
X112022Y46232D01*
X112089Y46289D01*
X112157Y46343D01*
X112229Y46394D01*
X112302Y46441D01*
X112377Y46486D01*
X112455Y46527D01*
X112534Y46564D01*
X112614Y46598D01*
X112696Y46628D01*
X112779Y46655D01*
X112864Y46678D01*
X112949Y46697D01*
X113035Y46712D01*
X113122Y46724D01*
X113209Y46732D01*
X113296Y46736D01*
X113384Y46736D01*
X113471Y46732D01*
X113558Y46724D01*
X113645Y46712D01*
X113731Y46697D01*
X113816Y46678D01*
X113901Y46655D01*
X113984Y46628D01*
X114066Y46598D01*
X114146Y46564D01*
X114225Y46527D01*
X114303Y46486D01*
X114378Y46441D01*
X114451Y46394D01*
X114523Y46343D01*
X114591Y46289D01*
X114658Y46232D01*
X114722Y46173D01*
X114783Y46110D01*
X114841Y46045D01*
X114897Y45977D01*
X114949Y45907D01*
X114998Y45835D01*
X115044Y45761D01*
X115087Y45684D01*
X115126Y45606D01*
X115161Y45526D01*
X115193Y45445D01*
X115222Y45362D01*
X115247Y45278D01*
X115268Y45194D01*
X115285Y45108D01*
X115299Y45022D01*
X115308Y44935D01*
X115314Y44847D01*
X115316Y44760D01*
X115316Y42785D01*
X115314Y42675D01*
X115308Y42564D01*
X115299Y42455D01*
X115285Y42345D01*
X115268Y42236D01*
X115247Y42128D01*
X115222Y42020D01*
X115194Y41914D01*
X115161Y41808D01*
X115125Y41704D01*
X115086Y41601D01*
X115043Y41499D01*
X114996Y41399D01*
X114946Y41301D01*
X114893Y41204D01*
X114836Y41110D01*
X114776Y41017D01*
X114712Y40927D01*
X114646Y40839D01*
X114576Y40753D01*
X114504Y40670D01*
X114429Y40589D01*
X114351Y40511D01*
X114270Y40436D01*
X114187Y40364D01*
X114101Y40294D01*
X114013Y40228D01*
X113923Y40164D01*
X113830Y40104D01*
X113735Y40047D01*
X113639Y39994D01*
X113541Y39944D01*
X113441Y39897D01*
X113339Y39854D01*
X113236Y39815D01*
X113132Y39779D01*
X113026Y39746D01*
X112920Y39718D01*
X112812Y39693D01*
X112704Y39672D01*
X112595Y39655D01*
X112485Y39641D01*
X112376Y39632D01*
X112265Y39626D01*
X112155Y39624D01*
X105664Y27686D02*
X105664Y20574D01*
X105664Y27686D02*
X107640Y27686D01*
X107727Y27684D01*
X107815Y27678D01*
X107902Y27669D01*
X107988Y27655D01*
X108074Y27638D01*
X108158Y27617D01*
X108242Y27592D01*
X108325Y27563D01*
X108406Y27531D01*
X108486Y27496D01*
X108564Y27457D01*
X108641Y27414D01*
X108715Y27368D01*
X108787Y27319D01*
X108857Y27267D01*
X108925Y27211D01*
X108990Y27153D01*
X109053Y27092D01*
X109112Y27028D01*
X109169Y26961D01*
X109223Y26893D01*
X109274Y26821D01*
X109321Y26748D01*
X109366Y26673D01*
X109407Y26595D01*
X109444Y26516D01*
X109478Y26436D01*
X109508Y26354D01*
X109535Y26271D01*
X109558Y26186D01*
X109577Y26101D01*
X109592Y26015D01*
X109604Y25928D01*
X109612Y25841D01*
X109616Y25754D01*
X109616Y25666D01*
X109612Y25579D01*
X109604Y25492D01*
X109592Y25405D01*
X109577Y25319D01*
X109558Y25234D01*
X109535Y25149D01*
X109508Y25066D01*
X109478Y24984D01*
X109444Y24904D01*
X109407Y24825D01*
X109366Y24747D01*
X109321Y24672D01*
X109274Y24599D01*
X109223Y24527D01*
X109169Y24459D01*
X109112Y24392D01*
X109053Y24328D01*
X108990Y24267D01*
X108925Y24209D01*
X108857Y24153D01*
X108787Y24101D01*
X108715Y24052D01*
X108641Y24006D01*
X108564Y23963D01*
X108486Y23924D01*
X108406Y23889D01*
X108325Y23857D01*
X108242Y23828D01*
X108158Y23803D01*
X108074Y23782D01*
X107988Y23765D01*
X107902Y23751D01*
X107815Y23742D01*
X107727Y23736D01*
X107640Y23734D01*
X107640Y23735D02*
X105664Y23735D01*
X108035Y23735D02*
X109615Y20574D01*
X112481Y26106D02*
X114457Y27686D01*
X114457Y20574D01*
X112481Y20574D02*
X116433Y20574D01*
X137496Y11497D02*
X139077Y11497D01*
X137496Y11498D02*
X137418Y11500D01*
X137341Y11506D01*
X137264Y11515D01*
X137188Y11528D01*
X137112Y11545D01*
X137037Y11566D01*
X136964Y11590D01*
X136891Y11618D01*
X136820Y11650D01*
X136751Y11685D01*
X136684Y11723D01*
X136618Y11764D01*
X136555Y11809D01*
X136494Y11857D01*
X136435Y11907D01*
X136379Y11961D01*
X136325Y12017D01*
X136275Y12076D01*
X136227Y12137D01*
X136182Y12200D01*
X136141Y12266D01*
X136103Y12333D01*
X136068Y12402D01*
X136036Y12473D01*
X136008Y12546D01*
X135984Y12619D01*
X135963Y12694D01*
X135946Y12770D01*
X135933Y12846D01*
X135924Y12923D01*
X135918Y13000D01*
X135916Y13078D01*
X135916Y17029D01*
X135918Y17107D01*
X135924Y17184D01*
X135933Y17261D01*
X135946Y17337D01*
X135963Y17413D01*
X135984Y17488D01*
X136008Y17561D01*
X136036Y17634D01*
X136068Y17705D01*
X136103Y17774D01*
X136141Y17841D01*
X136182Y17907D01*
X136227Y17970D01*
X136275Y18031D01*
X136325Y18090D01*
X136379Y18146D01*
X136435Y18200D01*
X136494Y18250D01*
X136555Y18298D01*
X136618Y18343D01*
X136684Y18384D01*
X136751Y18422D01*
X136820Y18457D01*
X136891Y18489D01*
X136964Y18517D01*
X137037Y18541D01*
X137112Y18562D01*
X137188Y18579D01*
X137264Y18592D01*
X137341Y18601D01*
X137418Y18607D01*
X137496Y18609D01*
X139077Y18609D01*
X141649Y17029D02*
X143624Y18609D01*
X143624Y11497D01*
X141649Y11497D02*
X145600Y11497D01*
X148507Y15053D02*
X148509Y15201D01*
X148514Y15348D01*
X148524Y15496D01*
X148537Y15643D01*
X148553Y15790D01*
X148574Y15936D01*
X148598Y16082D01*
X148626Y16227D01*
X148657Y16371D01*
X148692Y16514D01*
X148731Y16657D01*
X148773Y16798D01*
X148819Y16939D01*
X148868Y17078D01*
X148921Y17216D01*
X148977Y17353D01*
X149037Y17488D01*
X149100Y17621D01*
X149099Y17621D02*
X149125Y17692D01*
X149155Y17761D01*
X149189Y17829D01*
X149226Y17895D01*
X149266Y17959D01*
X149310Y18021D01*
X149356Y18080D01*
X149406Y18137D01*
X149459Y18191D01*
X149514Y18243D01*
X149572Y18291D01*
X149632Y18337D01*
X149695Y18379D01*
X149760Y18418D01*
X149826Y18454D01*
X149895Y18486D01*
X149964Y18514D01*
X150036Y18539D01*
X150108Y18560D01*
X150182Y18578D01*
X150256Y18591D01*
X150331Y18601D01*
X150406Y18607D01*
X150482Y18609D01*
X150558Y18607D01*
X150633Y18601D01*
X150708Y18591D01*
X150782Y18578D01*
X150856Y18560D01*
X150928Y18539D01*
X150999Y18514D01*
X151069Y18486D01*
X151138Y18454D01*
X151204Y18418D01*
X151269Y18379D01*
X151332Y18337D01*
X151392Y18291D01*
X151450Y18243D01*
X151505Y18191D01*
X151558Y18137D01*
X151608Y18080D01*
X151654Y18021D01*
X151698Y17959D01*
X151738Y17895D01*
X151775Y17829D01*
X151809Y17761D01*
X151839Y17692D01*
X151865Y17621D01*
X151928Y17488D01*
X151988Y17353D01*
X152044Y17216D01*
X152097Y17078D01*
X152146Y16939D01*
X152192Y16798D01*
X152234Y16657D01*
X152273Y16514D01*
X152308Y16371D01*
X152339Y16227D01*
X152367Y16082D01*
X152391Y15936D01*
X152412Y15790D01*
X152428Y15643D01*
X152441Y15496D01*
X152451Y15348D01*
X152456Y15201D01*
X152458Y15053D01*
X148507Y15053D02*
X148509Y14905D01*
X148514Y14758D01*
X148524Y14610D01*
X148537Y14463D01*
X148553Y14316D01*
X148574Y14170D01*
X148598Y14025D01*
X148626Y13879D01*
X148657Y13735D01*
X148692Y13592D01*
X148731Y13449D01*
X148773Y13308D01*
X148819Y13167D01*
X148868Y13028D01*
X148921Y12890D01*
X148977Y12753D01*
X149037Y12618D01*
X149100Y12485D01*
X149099Y12485D02*
X149125Y12414D01*
X149155Y12345D01*
X149189Y12277D01*
X149226Y12211D01*
X149266Y12147D01*
X149310Y12085D01*
X149356Y12026D01*
X149406Y11969D01*
X149459Y11915D01*
X149514Y11863D01*
X149572Y11815D01*
X149632Y11769D01*
X149695Y11727D01*
X149760Y11688D01*
X149826Y11652D01*
X149895Y11620D01*
X149965Y11592D01*
X150036Y11567D01*
X150108Y11546D01*
X150182Y11528D01*
X150256Y11515D01*
X150331Y11505D01*
X150406Y11499D01*
X150482Y11497D01*
X151865Y12485D02*
X151928Y12618D01*
X151988Y12753D01*
X152044Y12890D01*
X152097Y13028D01*
X152146Y13167D01*
X152192Y13308D01*
X152234Y13449D01*
X152273Y13592D01*
X152308Y13735D01*
X152339Y13879D01*
X152367Y14025D01*
X152391Y14170D01*
X152412Y14316D01*
X152428Y14463D01*
X152441Y14610D01*
X152451Y14758D01*
X152456Y14905D01*
X152458Y15053D01*
X151865Y12485D02*
X151839Y12414D01*
X151809Y12345D01*
X151775Y12277D01*
X151738Y12211D01*
X151698Y12147D01*
X151654Y12085D01*
X151608Y12026D01*
X151558Y11969D01*
X151505Y11915D01*
X151450Y11863D01*
X151392Y11815D01*
X151332Y11769D01*
X151269Y11727D01*
X151204Y11688D01*
X151138Y11652D01*
X151069Y11620D01*
X150999Y11592D01*
X150928Y11567D01*
X150856Y11546D01*
X150782Y11528D01*
X150708Y11515D01*
X150633Y11505D01*
X150558Y11499D01*
X150482Y11497D01*
X148902Y13078D02*
X152063Y17029D01*
D15*
X66144Y25010D02*
X66142Y24948D01*
X66136Y24887D01*
X66127Y24826D01*
X66114Y24766D01*
X66097Y24707D01*
X66076Y24649D01*
X66052Y24592D01*
X66025Y24537D01*
X65994Y24484D01*
X65960Y24432D01*
X65923Y24383D01*
X65883Y24336D01*
X65840Y24292D01*
X65795Y24251D01*
X65747Y24212D01*
X65696Y24176D01*
X65644Y24144D01*
X65590Y24115D01*
X65534Y24089D01*
X65476Y24067D01*
X65418Y24048D01*
X65358Y24033D01*
X65297Y24022D01*
X65236Y24014D01*
X65175Y24010D01*
X65113Y24010D01*
X65052Y24014D01*
X64991Y24022D01*
X64930Y24033D01*
X64870Y24048D01*
X64812Y24067D01*
X64754Y24089D01*
X64698Y24115D01*
X64644Y24144D01*
X64592Y24176D01*
X64541Y24212D01*
X64493Y24251D01*
X64448Y24292D01*
X64405Y24336D01*
X64365Y24383D01*
X64328Y24432D01*
X64294Y24484D01*
X64263Y24537D01*
X64236Y24592D01*
X64212Y24649D01*
X64191Y24707D01*
X64174Y24766D01*
X64161Y24826D01*
X64152Y24887D01*
X64146Y24948D01*
X64144Y25010D01*
X64146Y25072D01*
X64152Y25133D01*
X64161Y25194D01*
X64174Y25254D01*
X64191Y25313D01*
X64212Y25371D01*
X64236Y25428D01*
X64263Y25483D01*
X64294Y25536D01*
X64328Y25588D01*
X64365Y25637D01*
X64405Y25684D01*
X64448Y25728D01*
X64493Y25769D01*
X64541Y25808D01*
X64592Y25844D01*
X64644Y25876D01*
X64698Y25905D01*
X64754Y25931D01*
X64812Y25953D01*
X64870Y25972D01*
X64930Y25987D01*
X64991Y25998D01*
X65052Y26006D01*
X65113Y26010D01*
X65175Y26010D01*
X65236Y26006D01*
X65297Y25998D01*
X65358Y25987D01*
X65418Y25972D01*
X65476Y25953D01*
X65534Y25931D01*
X65590Y25905D01*
X65644Y25876D01*
X65696Y25844D01*
X65747Y25808D01*
X65795Y25769D01*
X65840Y25728D01*
X65883Y25684D01*
X65923Y25637D01*
X65960Y25588D01*
X65994Y25536D01*
X66025Y25483D01*
X66052Y25428D01*
X66076Y25371D01*
X66097Y25313D01*
X66114Y25254D01*
X66127Y25194D01*
X66136Y25133D01*
X66142Y25072D01*
X66144Y25010D01*
D13*
X75879Y47718D02*
X73508Y51076D01*
X75879Y47718D02*
X78249Y51076D01*
X75879Y47718D02*
X75879Y43964D01*
X80761Y49496D02*
X82737Y51076D01*
X82737Y43964D01*
X84712Y43964D02*
X80761Y43964D01*
M02*
