G04 EAGLE Gerber RS-274X export*
G75*
%MOMM*%
%FSLAX34Y34*%
%LPD*%
%INSoldermask Top*%
%IPPOS*%
%AMOC8*
5,1,8,0,0,1.08239X$1,22.5*%
G01*
%ADD10C,0.406869*%
%ADD11C,0.631119*%
%ADD12C,0.400200*%
%ADD13C,1.143000*%
%ADD14R,0.977000X1.077000*%

G36*
X95030Y50751D02*
X95030Y50751D01*
X95081Y50753D01*
X95113Y50771D01*
X95149Y50779D01*
X95188Y50812D01*
X95233Y50836D01*
X95254Y50866D01*
X95282Y50889D01*
X95303Y50936D01*
X95333Y50978D01*
X95341Y51020D01*
X95353Y51048D01*
X95352Y51078D01*
X95360Y51120D01*
X95360Y96840D01*
X95349Y96890D01*
X95347Y96941D01*
X95329Y96973D01*
X95321Y97009D01*
X95288Y97048D01*
X95264Y97093D01*
X95234Y97114D01*
X95211Y97142D01*
X95164Y97163D01*
X95122Y97193D01*
X95080Y97201D01*
X95052Y97213D01*
X95022Y97212D01*
X94980Y97220D01*
X92440Y97220D01*
X92390Y97209D01*
X92339Y97207D01*
X92307Y97189D01*
X92271Y97181D01*
X92232Y97148D01*
X92187Y97124D01*
X92166Y97094D01*
X92138Y97071D01*
X92117Y97024D01*
X92087Y96982D01*
X92079Y96940D01*
X92067Y96912D01*
X92068Y96882D01*
X92060Y96840D01*
X92060Y94680D01*
X77580Y94680D01*
X77580Y96840D01*
X77569Y96890D01*
X77567Y96941D01*
X77549Y96973D01*
X77541Y97009D01*
X77508Y97048D01*
X77484Y97093D01*
X77454Y97114D01*
X77431Y97142D01*
X77384Y97163D01*
X77342Y97193D01*
X77300Y97201D01*
X77272Y97213D01*
X77242Y97212D01*
X77200Y97220D01*
X49260Y97220D01*
X49210Y97209D01*
X49159Y97207D01*
X49127Y97189D01*
X49091Y97181D01*
X49052Y97148D01*
X49007Y97124D01*
X48986Y97094D01*
X48958Y97071D01*
X48937Y97024D01*
X48907Y96982D01*
X48899Y96940D01*
X48887Y96912D01*
X48888Y96882D01*
X48880Y96840D01*
X48880Y51120D01*
X48891Y51070D01*
X48893Y51019D01*
X48911Y50987D01*
X48919Y50951D01*
X48952Y50912D01*
X48976Y50867D01*
X49006Y50846D01*
X49029Y50818D01*
X49076Y50797D01*
X49118Y50767D01*
X49160Y50759D01*
X49188Y50747D01*
X49218Y50748D01*
X49260Y50740D01*
X94980Y50740D01*
X95030Y50751D01*
G37*
G36*
X58879Y39223D02*
X58879Y39223D01*
X60370Y39223D01*
X60406Y39230D01*
X60449Y39229D01*
X60681Y39266D01*
X60732Y39285D01*
X60832Y39315D01*
X61041Y39421D01*
X61083Y39455D01*
X61170Y39515D01*
X61335Y39680D01*
X61365Y39725D01*
X61429Y39809D01*
X61535Y40018D01*
X61540Y40034D01*
X61546Y40043D01*
X61551Y40074D01*
X61584Y40169D01*
X61621Y40401D01*
X61619Y40437D01*
X61627Y40480D01*
X61627Y46480D01*
X61621Y46513D01*
X61622Y46552D01*
X61561Y46975D01*
X61542Y47028D01*
X61521Y47113D01*
X61343Y47502D01*
X61310Y47547D01*
X61265Y47623D01*
X60986Y47946D01*
X60941Y47980D01*
X60877Y48040D01*
X60517Y48271D01*
X60466Y48291D01*
X60429Y48314D01*
X60415Y48317D01*
X60386Y48331D01*
X59976Y48451D01*
X59920Y48456D01*
X59833Y48472D01*
X59407Y48472D01*
X59352Y48461D01*
X59264Y48451D01*
X58854Y48331D01*
X58817Y48312D01*
X58792Y48307D01*
X58766Y48289D01*
X58723Y48271D01*
X58363Y48040D01*
X58323Y48001D01*
X58254Y47946D01*
X57975Y47623D01*
X57947Y47574D01*
X57897Y47502D01*
X57719Y47113D01*
X57707Y47059D01*
X57679Y46975D01*
X57618Y46552D01*
X57620Y46519D01*
X57613Y46480D01*
X57613Y40489D01*
X57606Y40289D01*
X57614Y40241D01*
X57628Y40125D01*
X57688Y39926D01*
X57711Y39883D01*
X57761Y39778D01*
X57882Y39609D01*
X57918Y39576D01*
X57999Y39492D01*
X58168Y39371D01*
X58213Y39351D01*
X58316Y39298D01*
X58515Y39238D01*
X58564Y39233D01*
X58679Y39216D01*
X58879Y39223D01*
G37*
G36*
X88879Y39223D02*
X88879Y39223D01*
X90370Y39223D01*
X90406Y39230D01*
X90449Y39229D01*
X90681Y39266D01*
X90732Y39285D01*
X90832Y39315D01*
X91041Y39421D01*
X91083Y39455D01*
X91170Y39515D01*
X91335Y39680D01*
X91365Y39725D01*
X91429Y39809D01*
X91535Y40018D01*
X91540Y40034D01*
X91546Y40043D01*
X91551Y40074D01*
X91584Y40169D01*
X91621Y40401D01*
X91619Y40437D01*
X91627Y40480D01*
X91627Y46480D01*
X91621Y46513D01*
X91622Y46552D01*
X91561Y46975D01*
X91542Y47028D01*
X91521Y47113D01*
X91343Y47502D01*
X91310Y47547D01*
X91265Y47623D01*
X90986Y47946D01*
X90941Y47980D01*
X90877Y48040D01*
X90517Y48271D01*
X90466Y48291D01*
X90429Y48314D01*
X90415Y48317D01*
X90386Y48331D01*
X89976Y48451D01*
X89920Y48456D01*
X89833Y48472D01*
X89407Y48472D01*
X89352Y48461D01*
X89264Y48451D01*
X88854Y48331D01*
X88817Y48312D01*
X88792Y48307D01*
X88766Y48289D01*
X88723Y48271D01*
X88363Y48040D01*
X88323Y48001D01*
X88254Y47946D01*
X87975Y47623D01*
X87947Y47574D01*
X87897Y47502D01*
X87719Y47113D01*
X87707Y47059D01*
X87679Y46975D01*
X87618Y46552D01*
X87620Y46519D01*
X87613Y46480D01*
X87613Y40489D01*
X87606Y40289D01*
X87614Y40241D01*
X87628Y40125D01*
X87688Y39926D01*
X87711Y39883D01*
X87761Y39778D01*
X87882Y39609D01*
X87918Y39576D01*
X87999Y39492D01*
X88168Y39371D01*
X88213Y39351D01*
X88316Y39298D01*
X88515Y39238D01*
X88564Y39233D01*
X88679Y39216D01*
X88879Y39223D01*
G37*
G36*
X93879Y39223D02*
X93879Y39223D01*
X95370Y39223D01*
X95406Y39230D01*
X95449Y39229D01*
X95681Y39266D01*
X95732Y39285D01*
X95832Y39315D01*
X96041Y39421D01*
X96083Y39455D01*
X96170Y39515D01*
X96335Y39680D01*
X96365Y39725D01*
X96429Y39809D01*
X96535Y40018D01*
X96540Y40034D01*
X96546Y40043D01*
X96551Y40074D01*
X96584Y40169D01*
X96621Y40401D01*
X96619Y40437D01*
X96627Y40480D01*
X96627Y46480D01*
X96621Y46513D01*
X96622Y46552D01*
X96561Y46975D01*
X96542Y47028D01*
X96521Y47113D01*
X96343Y47502D01*
X96310Y47547D01*
X96265Y47623D01*
X95986Y47946D01*
X95941Y47980D01*
X95877Y48040D01*
X95517Y48271D01*
X95466Y48291D01*
X95429Y48314D01*
X95415Y48317D01*
X95386Y48331D01*
X94976Y48451D01*
X94920Y48456D01*
X94833Y48472D01*
X94407Y48472D01*
X94352Y48461D01*
X94264Y48451D01*
X93854Y48331D01*
X93817Y48312D01*
X93792Y48307D01*
X93766Y48289D01*
X93723Y48271D01*
X93363Y48040D01*
X93323Y48001D01*
X93254Y47946D01*
X92975Y47623D01*
X92947Y47574D01*
X92897Y47502D01*
X92719Y47113D01*
X92707Y47059D01*
X92679Y46975D01*
X92618Y46552D01*
X92620Y46519D01*
X92613Y46480D01*
X92613Y40489D01*
X92606Y40289D01*
X92614Y40241D01*
X92628Y40125D01*
X92688Y39926D01*
X92711Y39883D01*
X92761Y39778D01*
X92882Y39609D01*
X92918Y39576D01*
X92999Y39492D01*
X93168Y39371D01*
X93213Y39351D01*
X93316Y39298D01*
X93515Y39238D01*
X93564Y39233D01*
X93679Y39216D01*
X93879Y39223D01*
G37*
G36*
X78879Y39223D02*
X78879Y39223D01*
X80370Y39223D01*
X80406Y39230D01*
X80449Y39229D01*
X80681Y39266D01*
X80732Y39285D01*
X80832Y39315D01*
X81041Y39421D01*
X81083Y39455D01*
X81170Y39515D01*
X81335Y39680D01*
X81365Y39725D01*
X81429Y39809D01*
X81535Y40018D01*
X81540Y40034D01*
X81546Y40043D01*
X81551Y40074D01*
X81584Y40169D01*
X81621Y40401D01*
X81619Y40437D01*
X81627Y40480D01*
X81627Y46480D01*
X81621Y46513D01*
X81622Y46552D01*
X81561Y46975D01*
X81542Y47028D01*
X81521Y47113D01*
X81343Y47502D01*
X81310Y47547D01*
X81265Y47623D01*
X80986Y47946D01*
X80941Y47980D01*
X80877Y48040D01*
X80517Y48271D01*
X80466Y48291D01*
X80429Y48314D01*
X80415Y48317D01*
X80386Y48331D01*
X79976Y48451D01*
X79920Y48456D01*
X79833Y48472D01*
X79407Y48472D01*
X79352Y48461D01*
X79264Y48451D01*
X78854Y48331D01*
X78817Y48312D01*
X78792Y48307D01*
X78766Y48289D01*
X78723Y48271D01*
X78363Y48040D01*
X78323Y48001D01*
X78254Y47946D01*
X77975Y47623D01*
X77947Y47574D01*
X77897Y47502D01*
X77719Y47113D01*
X77707Y47059D01*
X77679Y46975D01*
X77618Y46552D01*
X77620Y46519D01*
X77613Y46480D01*
X77613Y40489D01*
X77606Y40289D01*
X77614Y40241D01*
X77628Y40125D01*
X77688Y39926D01*
X77711Y39883D01*
X77761Y39778D01*
X77882Y39609D01*
X77918Y39576D01*
X77999Y39492D01*
X78168Y39371D01*
X78213Y39351D01*
X78316Y39298D01*
X78515Y39238D01*
X78564Y39233D01*
X78679Y39216D01*
X78879Y39223D01*
G37*
G36*
X73879Y39223D02*
X73879Y39223D01*
X75370Y39223D01*
X75406Y39230D01*
X75449Y39229D01*
X75681Y39266D01*
X75732Y39285D01*
X75832Y39315D01*
X76041Y39421D01*
X76083Y39455D01*
X76170Y39515D01*
X76335Y39680D01*
X76365Y39725D01*
X76429Y39809D01*
X76535Y40018D01*
X76540Y40034D01*
X76546Y40043D01*
X76551Y40074D01*
X76584Y40169D01*
X76621Y40401D01*
X76619Y40437D01*
X76627Y40480D01*
X76627Y46480D01*
X76621Y46513D01*
X76622Y46552D01*
X76561Y46975D01*
X76542Y47028D01*
X76521Y47113D01*
X76343Y47502D01*
X76310Y47547D01*
X76265Y47623D01*
X75986Y47946D01*
X75941Y47980D01*
X75877Y48040D01*
X75517Y48271D01*
X75466Y48291D01*
X75429Y48314D01*
X75415Y48317D01*
X75386Y48331D01*
X74976Y48451D01*
X74920Y48456D01*
X74833Y48472D01*
X74407Y48472D01*
X74352Y48461D01*
X74264Y48451D01*
X73854Y48331D01*
X73817Y48312D01*
X73792Y48307D01*
X73766Y48289D01*
X73723Y48271D01*
X73363Y48040D01*
X73323Y48001D01*
X73254Y47946D01*
X72975Y47623D01*
X72947Y47574D01*
X72897Y47502D01*
X72719Y47113D01*
X72707Y47059D01*
X72679Y46975D01*
X72618Y46552D01*
X72620Y46519D01*
X72613Y46480D01*
X72613Y40489D01*
X72606Y40289D01*
X72614Y40241D01*
X72628Y40125D01*
X72688Y39926D01*
X72711Y39883D01*
X72761Y39778D01*
X72882Y39609D01*
X72918Y39576D01*
X72999Y39492D01*
X73168Y39371D01*
X73213Y39351D01*
X73316Y39298D01*
X73515Y39238D01*
X73564Y39233D01*
X73679Y39216D01*
X73879Y39223D01*
G37*
G36*
X63879Y39223D02*
X63879Y39223D01*
X65370Y39223D01*
X65406Y39230D01*
X65449Y39229D01*
X65681Y39266D01*
X65732Y39285D01*
X65832Y39315D01*
X66041Y39421D01*
X66083Y39455D01*
X66170Y39515D01*
X66335Y39680D01*
X66365Y39725D01*
X66429Y39809D01*
X66535Y40018D01*
X66540Y40034D01*
X66546Y40043D01*
X66551Y40074D01*
X66584Y40169D01*
X66621Y40401D01*
X66619Y40437D01*
X66627Y40480D01*
X66627Y46480D01*
X66621Y46513D01*
X66622Y46552D01*
X66561Y46975D01*
X66542Y47028D01*
X66521Y47113D01*
X66343Y47502D01*
X66310Y47547D01*
X66265Y47623D01*
X65986Y47946D01*
X65941Y47980D01*
X65877Y48040D01*
X65517Y48271D01*
X65466Y48291D01*
X65429Y48314D01*
X65415Y48317D01*
X65386Y48331D01*
X64976Y48451D01*
X64920Y48456D01*
X64833Y48472D01*
X64407Y48472D01*
X64352Y48461D01*
X64264Y48451D01*
X63854Y48331D01*
X63817Y48312D01*
X63792Y48307D01*
X63766Y48289D01*
X63723Y48271D01*
X63363Y48040D01*
X63323Y48001D01*
X63254Y47946D01*
X62975Y47623D01*
X62947Y47574D01*
X62897Y47502D01*
X62719Y47113D01*
X62707Y47059D01*
X62679Y46975D01*
X62618Y46552D01*
X62620Y46519D01*
X62613Y46480D01*
X62613Y40489D01*
X62606Y40289D01*
X62614Y40241D01*
X62628Y40125D01*
X62688Y39926D01*
X62711Y39883D01*
X62761Y39778D01*
X62882Y39609D01*
X62918Y39576D01*
X62999Y39492D01*
X63168Y39371D01*
X63213Y39351D01*
X63316Y39298D01*
X63515Y39238D01*
X63564Y39233D01*
X63679Y39216D01*
X63879Y39223D01*
G37*
G36*
X53879Y39223D02*
X53879Y39223D01*
X55370Y39223D01*
X55406Y39230D01*
X55449Y39229D01*
X55681Y39266D01*
X55732Y39285D01*
X55832Y39315D01*
X56041Y39421D01*
X56083Y39455D01*
X56170Y39515D01*
X56335Y39680D01*
X56365Y39725D01*
X56429Y39809D01*
X56535Y40018D01*
X56540Y40034D01*
X56546Y40043D01*
X56551Y40074D01*
X56584Y40169D01*
X56621Y40401D01*
X56619Y40437D01*
X56627Y40480D01*
X56627Y46480D01*
X56621Y46513D01*
X56622Y46552D01*
X56561Y46975D01*
X56542Y47028D01*
X56521Y47113D01*
X56343Y47502D01*
X56310Y47547D01*
X56265Y47623D01*
X55986Y47946D01*
X55941Y47980D01*
X55877Y48040D01*
X55517Y48271D01*
X55466Y48291D01*
X55429Y48314D01*
X55415Y48317D01*
X55386Y48331D01*
X54976Y48451D01*
X54920Y48456D01*
X54833Y48472D01*
X54407Y48472D01*
X54352Y48461D01*
X54264Y48451D01*
X53854Y48331D01*
X53817Y48312D01*
X53792Y48307D01*
X53766Y48289D01*
X53723Y48271D01*
X53363Y48040D01*
X53323Y48001D01*
X53254Y47946D01*
X52975Y47623D01*
X52947Y47574D01*
X52897Y47502D01*
X52719Y47113D01*
X52707Y47059D01*
X52679Y46975D01*
X52618Y46552D01*
X52620Y46519D01*
X52613Y46480D01*
X52613Y40489D01*
X52606Y40289D01*
X52614Y40241D01*
X52628Y40125D01*
X52688Y39926D01*
X52711Y39883D01*
X52761Y39778D01*
X52882Y39609D01*
X52918Y39576D01*
X52999Y39492D01*
X53168Y39371D01*
X53213Y39351D01*
X53316Y39298D01*
X53515Y39238D01*
X53564Y39233D01*
X53679Y39216D01*
X53879Y39223D01*
G37*
G36*
X83879Y39223D02*
X83879Y39223D01*
X85370Y39223D01*
X85406Y39230D01*
X85449Y39229D01*
X85681Y39266D01*
X85732Y39285D01*
X85832Y39315D01*
X86041Y39421D01*
X86083Y39455D01*
X86170Y39515D01*
X86335Y39680D01*
X86365Y39725D01*
X86429Y39809D01*
X86535Y40018D01*
X86540Y40034D01*
X86546Y40043D01*
X86551Y40074D01*
X86584Y40169D01*
X86621Y40401D01*
X86619Y40437D01*
X86627Y40480D01*
X86627Y46480D01*
X86621Y46513D01*
X86622Y46552D01*
X86561Y46975D01*
X86542Y47028D01*
X86521Y47113D01*
X86343Y47502D01*
X86310Y47547D01*
X86265Y47623D01*
X85986Y47946D01*
X85941Y47980D01*
X85877Y48040D01*
X85517Y48271D01*
X85466Y48291D01*
X85429Y48314D01*
X85415Y48317D01*
X85386Y48331D01*
X84976Y48451D01*
X84920Y48456D01*
X84833Y48472D01*
X84407Y48472D01*
X84352Y48461D01*
X84264Y48451D01*
X83854Y48331D01*
X83817Y48312D01*
X83792Y48307D01*
X83766Y48289D01*
X83723Y48271D01*
X83363Y48040D01*
X83323Y48001D01*
X83254Y47946D01*
X82975Y47623D01*
X82947Y47574D01*
X82897Y47502D01*
X82719Y47113D01*
X82707Y47059D01*
X82679Y46975D01*
X82618Y46552D01*
X82620Y46519D01*
X82613Y46480D01*
X82613Y40489D01*
X82606Y40289D01*
X82614Y40241D01*
X82628Y40125D01*
X82688Y39926D01*
X82711Y39883D01*
X82761Y39778D01*
X82882Y39609D01*
X82918Y39576D01*
X82999Y39492D01*
X83168Y39371D01*
X83213Y39351D01*
X83316Y39298D01*
X83515Y39238D01*
X83564Y39233D01*
X83679Y39216D01*
X83879Y39223D01*
G37*
G36*
X68879Y39223D02*
X68879Y39223D01*
X70370Y39223D01*
X70406Y39230D01*
X70449Y39229D01*
X70681Y39266D01*
X70732Y39285D01*
X70832Y39315D01*
X71041Y39421D01*
X71083Y39455D01*
X71170Y39515D01*
X71335Y39680D01*
X71365Y39725D01*
X71429Y39809D01*
X71535Y40018D01*
X71540Y40034D01*
X71546Y40043D01*
X71551Y40074D01*
X71584Y40169D01*
X71621Y40401D01*
X71619Y40437D01*
X71627Y40480D01*
X71627Y46480D01*
X71621Y46513D01*
X71622Y46552D01*
X71561Y46975D01*
X71542Y47028D01*
X71521Y47113D01*
X71343Y47502D01*
X71310Y47547D01*
X71265Y47623D01*
X70986Y47946D01*
X70941Y47980D01*
X70877Y48040D01*
X70517Y48271D01*
X70466Y48291D01*
X70429Y48314D01*
X70415Y48317D01*
X70386Y48331D01*
X69976Y48451D01*
X69920Y48456D01*
X69833Y48472D01*
X69407Y48472D01*
X69352Y48461D01*
X69264Y48451D01*
X68854Y48331D01*
X68817Y48312D01*
X68792Y48307D01*
X68766Y48289D01*
X68723Y48271D01*
X68363Y48040D01*
X68323Y48001D01*
X68254Y47946D01*
X67975Y47623D01*
X67947Y47574D01*
X67897Y47502D01*
X67719Y47113D01*
X67707Y47059D01*
X67679Y46975D01*
X67618Y46552D01*
X67620Y46519D01*
X67613Y46480D01*
X67613Y40489D01*
X67606Y40289D01*
X67614Y40241D01*
X67628Y40125D01*
X67688Y39926D01*
X67711Y39883D01*
X67761Y39778D01*
X67882Y39609D01*
X67918Y39576D01*
X67999Y39492D01*
X68168Y39371D01*
X68213Y39351D01*
X68316Y39298D01*
X68515Y39238D01*
X68564Y39233D01*
X68679Y39216D01*
X68879Y39223D01*
G37*
G36*
X48879Y39223D02*
X48879Y39223D01*
X50370Y39223D01*
X50406Y39230D01*
X50449Y39229D01*
X50681Y39266D01*
X50732Y39285D01*
X50832Y39315D01*
X51041Y39421D01*
X51083Y39455D01*
X51170Y39515D01*
X51335Y39680D01*
X51365Y39725D01*
X51429Y39809D01*
X51535Y40018D01*
X51540Y40034D01*
X51546Y40043D01*
X51551Y40074D01*
X51584Y40169D01*
X51621Y40401D01*
X51619Y40437D01*
X51627Y40480D01*
X51627Y46480D01*
X51621Y46513D01*
X51622Y46552D01*
X51561Y46975D01*
X51542Y47028D01*
X51521Y47113D01*
X51343Y47502D01*
X51310Y47547D01*
X51265Y47623D01*
X50986Y47946D01*
X50941Y47980D01*
X50877Y48040D01*
X50517Y48271D01*
X50466Y48291D01*
X50429Y48314D01*
X50415Y48317D01*
X50386Y48331D01*
X49976Y48451D01*
X49920Y48456D01*
X49833Y48472D01*
X49407Y48472D01*
X49352Y48461D01*
X49264Y48451D01*
X48854Y48331D01*
X48817Y48312D01*
X48792Y48307D01*
X48766Y48289D01*
X48723Y48271D01*
X48363Y48040D01*
X48323Y48001D01*
X48254Y47946D01*
X47975Y47623D01*
X47947Y47574D01*
X47897Y47502D01*
X47719Y47113D01*
X47707Y47059D01*
X47679Y46975D01*
X47618Y46552D01*
X47620Y46519D01*
X47613Y46480D01*
X47613Y40489D01*
X47606Y40289D01*
X47614Y40241D01*
X47628Y40125D01*
X47688Y39926D01*
X47711Y39883D01*
X47761Y39778D01*
X47882Y39609D01*
X47918Y39576D01*
X47999Y39492D01*
X48168Y39371D01*
X48213Y39351D01*
X48316Y39298D01*
X48515Y39238D01*
X48564Y39233D01*
X48679Y39216D01*
X48879Y39223D01*
G37*
G36*
X44653Y64479D02*
X44653Y64479D01*
X44692Y64478D01*
X45115Y64539D01*
X45168Y64558D01*
X45253Y64579D01*
X45642Y64757D01*
X45687Y64790D01*
X45763Y64835D01*
X46086Y65114D01*
X46095Y65126D01*
X46104Y65132D01*
X46123Y65162D01*
X46180Y65223D01*
X46411Y65583D01*
X46432Y65635D01*
X46471Y65714D01*
X46591Y66124D01*
X46596Y66180D01*
X46612Y66267D01*
X46612Y66693D01*
X46601Y66749D01*
X46591Y66836D01*
X46471Y67246D01*
X46445Y67296D01*
X46411Y67377D01*
X46180Y67737D01*
X46141Y67777D01*
X46086Y67846D01*
X45763Y68125D01*
X45714Y68153D01*
X45642Y68203D01*
X45253Y68381D01*
X45199Y68393D01*
X45115Y68421D01*
X44692Y68482D01*
X44659Y68480D01*
X44620Y68487D01*
X38629Y68487D01*
X38429Y68494D01*
X38381Y68486D01*
X38265Y68472D01*
X38066Y68412D01*
X38023Y68389D01*
X37918Y68339D01*
X37749Y68218D01*
X37716Y68182D01*
X37632Y68101D01*
X37511Y67932D01*
X37491Y67887D01*
X37438Y67784D01*
X37378Y67585D01*
X37373Y67536D01*
X37356Y67421D01*
X37363Y67221D01*
X37363Y65730D01*
X37370Y65694D01*
X37369Y65651D01*
X37406Y65419D01*
X37425Y65368D01*
X37443Y65306D01*
X37449Y65281D01*
X37452Y65276D01*
X37455Y65268D01*
X37561Y65059D01*
X37595Y65017D01*
X37655Y64930D01*
X37820Y64765D01*
X37865Y64735D01*
X37949Y64671D01*
X38158Y64565D01*
X38210Y64550D01*
X38309Y64516D01*
X38541Y64479D01*
X38577Y64481D01*
X38620Y64473D01*
X44620Y64473D01*
X44653Y64479D01*
G37*
G36*
X44653Y89479D02*
X44653Y89479D01*
X44692Y89478D01*
X45115Y89539D01*
X45168Y89558D01*
X45253Y89579D01*
X45642Y89757D01*
X45687Y89790D01*
X45763Y89835D01*
X46086Y90114D01*
X46095Y90126D01*
X46104Y90132D01*
X46123Y90162D01*
X46180Y90223D01*
X46411Y90583D01*
X46432Y90635D01*
X46471Y90714D01*
X46591Y91124D01*
X46596Y91180D01*
X46612Y91267D01*
X46612Y91693D01*
X46601Y91749D01*
X46591Y91836D01*
X46471Y92246D01*
X46445Y92296D01*
X46411Y92377D01*
X46180Y92737D01*
X46141Y92777D01*
X46086Y92846D01*
X45763Y93125D01*
X45714Y93153D01*
X45642Y93203D01*
X45253Y93381D01*
X45199Y93393D01*
X45115Y93421D01*
X44692Y93482D01*
X44659Y93480D01*
X44620Y93487D01*
X38629Y93487D01*
X38429Y93494D01*
X38381Y93486D01*
X38265Y93472D01*
X38066Y93412D01*
X38023Y93389D01*
X37918Y93339D01*
X37749Y93218D01*
X37716Y93182D01*
X37632Y93101D01*
X37511Y92932D01*
X37491Y92887D01*
X37438Y92784D01*
X37378Y92585D01*
X37373Y92536D01*
X37356Y92421D01*
X37363Y92221D01*
X37363Y90730D01*
X37370Y90694D01*
X37369Y90651D01*
X37406Y90419D01*
X37425Y90368D01*
X37443Y90306D01*
X37449Y90281D01*
X37452Y90276D01*
X37455Y90268D01*
X37561Y90059D01*
X37595Y90017D01*
X37655Y89930D01*
X37820Y89765D01*
X37865Y89735D01*
X37949Y89671D01*
X38158Y89565D01*
X38210Y89550D01*
X38309Y89516D01*
X38541Y89479D01*
X38577Y89481D01*
X38620Y89473D01*
X44620Y89473D01*
X44653Y89479D01*
G37*
G36*
X44653Y79479D02*
X44653Y79479D01*
X44692Y79478D01*
X45115Y79539D01*
X45168Y79558D01*
X45253Y79579D01*
X45642Y79757D01*
X45687Y79790D01*
X45763Y79835D01*
X46086Y80114D01*
X46095Y80126D01*
X46104Y80132D01*
X46123Y80162D01*
X46180Y80223D01*
X46411Y80583D01*
X46432Y80635D01*
X46471Y80714D01*
X46591Y81124D01*
X46596Y81180D01*
X46612Y81267D01*
X46612Y81693D01*
X46601Y81749D01*
X46591Y81836D01*
X46471Y82246D01*
X46445Y82296D01*
X46411Y82377D01*
X46180Y82737D01*
X46141Y82777D01*
X46086Y82846D01*
X45763Y83125D01*
X45714Y83153D01*
X45642Y83203D01*
X45253Y83381D01*
X45199Y83393D01*
X45115Y83421D01*
X44692Y83482D01*
X44659Y83480D01*
X44620Y83487D01*
X38629Y83487D01*
X38429Y83494D01*
X38381Y83486D01*
X38265Y83472D01*
X38066Y83412D01*
X38023Y83389D01*
X37918Y83339D01*
X37749Y83218D01*
X37716Y83182D01*
X37632Y83101D01*
X37511Y82932D01*
X37491Y82887D01*
X37438Y82784D01*
X37378Y82585D01*
X37373Y82536D01*
X37356Y82421D01*
X37363Y82221D01*
X37363Y80730D01*
X37370Y80694D01*
X37369Y80651D01*
X37406Y80419D01*
X37425Y80368D01*
X37443Y80306D01*
X37449Y80281D01*
X37452Y80276D01*
X37455Y80268D01*
X37561Y80059D01*
X37595Y80017D01*
X37655Y79930D01*
X37820Y79765D01*
X37865Y79735D01*
X37949Y79671D01*
X38158Y79565D01*
X38210Y79550D01*
X38309Y79516D01*
X38541Y79479D01*
X38577Y79481D01*
X38620Y79473D01*
X44620Y79473D01*
X44653Y79479D01*
G37*
G36*
X44653Y84479D02*
X44653Y84479D01*
X44692Y84478D01*
X45115Y84539D01*
X45168Y84558D01*
X45253Y84579D01*
X45642Y84757D01*
X45687Y84790D01*
X45763Y84835D01*
X46086Y85114D01*
X46095Y85126D01*
X46104Y85132D01*
X46123Y85162D01*
X46180Y85223D01*
X46411Y85583D01*
X46432Y85635D01*
X46471Y85714D01*
X46591Y86124D01*
X46596Y86180D01*
X46612Y86267D01*
X46612Y86693D01*
X46601Y86749D01*
X46591Y86836D01*
X46471Y87246D01*
X46445Y87296D01*
X46411Y87377D01*
X46180Y87737D01*
X46141Y87777D01*
X46086Y87846D01*
X45763Y88125D01*
X45714Y88153D01*
X45642Y88203D01*
X45253Y88381D01*
X45199Y88393D01*
X45115Y88421D01*
X44692Y88482D01*
X44659Y88480D01*
X44620Y88487D01*
X38629Y88487D01*
X38429Y88494D01*
X38381Y88486D01*
X38265Y88472D01*
X38066Y88412D01*
X38023Y88389D01*
X37918Y88339D01*
X37749Y88218D01*
X37716Y88182D01*
X37632Y88101D01*
X37511Y87932D01*
X37491Y87887D01*
X37438Y87784D01*
X37378Y87585D01*
X37373Y87536D01*
X37356Y87421D01*
X37363Y87221D01*
X37363Y85730D01*
X37370Y85694D01*
X37369Y85651D01*
X37406Y85419D01*
X37425Y85368D01*
X37443Y85306D01*
X37449Y85281D01*
X37452Y85276D01*
X37455Y85268D01*
X37561Y85059D01*
X37595Y85017D01*
X37655Y84930D01*
X37820Y84765D01*
X37865Y84735D01*
X37949Y84671D01*
X38158Y84565D01*
X38210Y84550D01*
X38309Y84516D01*
X38541Y84479D01*
X38577Y84481D01*
X38620Y84473D01*
X44620Y84473D01*
X44653Y84479D01*
G37*
G36*
X44653Y94479D02*
X44653Y94479D01*
X44692Y94478D01*
X45115Y94539D01*
X45168Y94558D01*
X45253Y94579D01*
X45642Y94757D01*
X45687Y94790D01*
X45763Y94835D01*
X46086Y95114D01*
X46095Y95126D01*
X46104Y95132D01*
X46123Y95162D01*
X46180Y95223D01*
X46411Y95583D01*
X46432Y95635D01*
X46471Y95714D01*
X46591Y96124D01*
X46596Y96180D01*
X46612Y96267D01*
X46612Y96693D01*
X46601Y96749D01*
X46591Y96836D01*
X46471Y97246D01*
X46445Y97296D01*
X46411Y97377D01*
X46180Y97737D01*
X46141Y97777D01*
X46086Y97846D01*
X45763Y98125D01*
X45714Y98153D01*
X45642Y98203D01*
X45253Y98381D01*
X45199Y98393D01*
X45115Y98421D01*
X44692Y98482D01*
X44659Y98480D01*
X44620Y98487D01*
X38629Y98487D01*
X38429Y98494D01*
X38381Y98486D01*
X38265Y98472D01*
X38066Y98412D01*
X38023Y98389D01*
X37918Y98339D01*
X37749Y98218D01*
X37716Y98182D01*
X37632Y98101D01*
X37511Y97932D01*
X37491Y97887D01*
X37438Y97784D01*
X37378Y97585D01*
X37373Y97536D01*
X37356Y97421D01*
X37363Y97221D01*
X37363Y95730D01*
X37370Y95694D01*
X37369Y95651D01*
X37406Y95419D01*
X37425Y95368D01*
X37443Y95306D01*
X37449Y95281D01*
X37452Y95276D01*
X37455Y95268D01*
X37561Y95059D01*
X37595Y95017D01*
X37655Y94930D01*
X37820Y94765D01*
X37865Y94735D01*
X37949Y94671D01*
X38158Y94565D01*
X38210Y94550D01*
X38309Y94516D01*
X38541Y94479D01*
X38577Y94481D01*
X38620Y94473D01*
X44620Y94473D01*
X44653Y94479D01*
G37*
G36*
X44653Y74479D02*
X44653Y74479D01*
X44692Y74478D01*
X45115Y74539D01*
X45168Y74558D01*
X45253Y74579D01*
X45642Y74757D01*
X45687Y74790D01*
X45763Y74835D01*
X46086Y75114D01*
X46095Y75126D01*
X46104Y75132D01*
X46123Y75162D01*
X46180Y75223D01*
X46411Y75583D01*
X46432Y75635D01*
X46471Y75714D01*
X46591Y76124D01*
X46596Y76180D01*
X46612Y76267D01*
X46612Y76693D01*
X46601Y76749D01*
X46591Y76836D01*
X46471Y77246D01*
X46445Y77296D01*
X46411Y77377D01*
X46180Y77737D01*
X46141Y77777D01*
X46086Y77846D01*
X45763Y78125D01*
X45714Y78153D01*
X45642Y78203D01*
X45253Y78381D01*
X45199Y78393D01*
X45115Y78421D01*
X44692Y78482D01*
X44659Y78480D01*
X44620Y78487D01*
X38629Y78487D01*
X38429Y78494D01*
X38381Y78486D01*
X38265Y78472D01*
X38066Y78412D01*
X38023Y78389D01*
X37918Y78339D01*
X37749Y78218D01*
X37716Y78182D01*
X37632Y78101D01*
X37511Y77932D01*
X37491Y77887D01*
X37438Y77784D01*
X37378Y77585D01*
X37373Y77536D01*
X37356Y77421D01*
X37363Y77221D01*
X37363Y75730D01*
X37370Y75694D01*
X37369Y75651D01*
X37406Y75419D01*
X37425Y75368D01*
X37443Y75306D01*
X37449Y75281D01*
X37452Y75276D01*
X37455Y75268D01*
X37561Y75059D01*
X37595Y75017D01*
X37655Y74930D01*
X37820Y74765D01*
X37865Y74735D01*
X37949Y74671D01*
X38158Y74565D01*
X38210Y74550D01*
X38309Y74516D01*
X38541Y74479D01*
X38577Y74481D01*
X38620Y74473D01*
X44620Y74473D01*
X44653Y74479D01*
G37*
G36*
X44653Y69479D02*
X44653Y69479D01*
X44692Y69478D01*
X45115Y69539D01*
X45168Y69558D01*
X45253Y69579D01*
X45642Y69757D01*
X45687Y69790D01*
X45763Y69835D01*
X46086Y70114D01*
X46095Y70126D01*
X46104Y70132D01*
X46123Y70162D01*
X46180Y70223D01*
X46411Y70583D01*
X46432Y70635D01*
X46471Y70714D01*
X46591Y71124D01*
X46596Y71180D01*
X46612Y71267D01*
X46612Y71693D01*
X46601Y71749D01*
X46591Y71836D01*
X46471Y72246D01*
X46445Y72296D01*
X46411Y72377D01*
X46180Y72737D01*
X46141Y72777D01*
X46086Y72846D01*
X45763Y73125D01*
X45714Y73153D01*
X45642Y73203D01*
X45253Y73381D01*
X45199Y73393D01*
X45115Y73421D01*
X44692Y73482D01*
X44659Y73480D01*
X44620Y73487D01*
X38629Y73487D01*
X38429Y73494D01*
X38381Y73486D01*
X38265Y73472D01*
X38066Y73412D01*
X38023Y73389D01*
X37918Y73339D01*
X37749Y73218D01*
X37716Y73182D01*
X37632Y73101D01*
X37511Y72932D01*
X37491Y72887D01*
X37438Y72784D01*
X37378Y72585D01*
X37373Y72536D01*
X37356Y72421D01*
X37363Y72221D01*
X37363Y70730D01*
X37370Y70694D01*
X37369Y70651D01*
X37406Y70419D01*
X37425Y70368D01*
X37443Y70306D01*
X37449Y70281D01*
X37452Y70276D01*
X37455Y70268D01*
X37561Y70059D01*
X37595Y70017D01*
X37655Y69930D01*
X37820Y69765D01*
X37865Y69735D01*
X37949Y69671D01*
X38158Y69565D01*
X38210Y69550D01*
X38309Y69516D01*
X38541Y69479D01*
X38577Y69481D01*
X38620Y69473D01*
X44620Y69473D01*
X44653Y69479D01*
G37*
G36*
X44653Y59479D02*
X44653Y59479D01*
X44692Y59478D01*
X45115Y59539D01*
X45168Y59558D01*
X45253Y59579D01*
X45642Y59757D01*
X45687Y59790D01*
X45763Y59835D01*
X46086Y60114D01*
X46095Y60126D01*
X46104Y60132D01*
X46123Y60162D01*
X46180Y60223D01*
X46411Y60583D01*
X46432Y60635D01*
X46471Y60714D01*
X46591Y61124D01*
X46596Y61180D01*
X46612Y61267D01*
X46612Y61693D01*
X46601Y61749D01*
X46591Y61836D01*
X46471Y62246D01*
X46445Y62296D01*
X46411Y62377D01*
X46180Y62737D01*
X46141Y62777D01*
X46086Y62846D01*
X45763Y63125D01*
X45714Y63153D01*
X45642Y63203D01*
X45253Y63381D01*
X45199Y63393D01*
X45115Y63421D01*
X44692Y63482D01*
X44659Y63480D01*
X44620Y63487D01*
X38629Y63487D01*
X38429Y63494D01*
X38381Y63486D01*
X38265Y63472D01*
X38066Y63412D01*
X38023Y63389D01*
X37918Y63339D01*
X37749Y63218D01*
X37716Y63182D01*
X37632Y63101D01*
X37511Y62932D01*
X37491Y62887D01*
X37438Y62784D01*
X37378Y62585D01*
X37373Y62536D01*
X37356Y62421D01*
X37363Y62221D01*
X37363Y60730D01*
X37370Y60694D01*
X37369Y60651D01*
X37406Y60419D01*
X37425Y60368D01*
X37443Y60306D01*
X37449Y60281D01*
X37452Y60276D01*
X37455Y60268D01*
X37561Y60059D01*
X37595Y60017D01*
X37655Y59930D01*
X37820Y59765D01*
X37865Y59735D01*
X37949Y59671D01*
X38158Y59565D01*
X38210Y59550D01*
X38309Y59516D01*
X38541Y59479D01*
X38577Y59481D01*
X38620Y59473D01*
X44620Y59473D01*
X44653Y59479D01*
G37*
G36*
X44653Y54479D02*
X44653Y54479D01*
X44692Y54478D01*
X45115Y54539D01*
X45168Y54558D01*
X45253Y54579D01*
X45642Y54757D01*
X45687Y54790D01*
X45763Y54835D01*
X46086Y55114D01*
X46095Y55126D01*
X46104Y55132D01*
X46123Y55162D01*
X46180Y55223D01*
X46411Y55583D01*
X46432Y55635D01*
X46471Y55714D01*
X46591Y56124D01*
X46596Y56180D01*
X46612Y56267D01*
X46612Y56693D01*
X46601Y56749D01*
X46591Y56836D01*
X46471Y57246D01*
X46445Y57296D01*
X46411Y57377D01*
X46180Y57737D01*
X46141Y57777D01*
X46086Y57846D01*
X45763Y58125D01*
X45714Y58153D01*
X45642Y58203D01*
X45253Y58381D01*
X45199Y58393D01*
X45115Y58421D01*
X44692Y58482D01*
X44659Y58480D01*
X44620Y58487D01*
X38629Y58487D01*
X38429Y58494D01*
X38381Y58486D01*
X38265Y58472D01*
X38066Y58412D01*
X38023Y58389D01*
X37918Y58339D01*
X37749Y58218D01*
X37716Y58182D01*
X37632Y58101D01*
X37511Y57932D01*
X37491Y57887D01*
X37438Y57784D01*
X37378Y57585D01*
X37373Y57536D01*
X37356Y57421D01*
X37363Y57221D01*
X37363Y55730D01*
X37370Y55694D01*
X37369Y55651D01*
X37406Y55419D01*
X37425Y55368D01*
X37443Y55306D01*
X37449Y55281D01*
X37452Y55276D01*
X37455Y55268D01*
X37561Y55059D01*
X37595Y55017D01*
X37655Y54930D01*
X37820Y54765D01*
X37865Y54735D01*
X37949Y54671D01*
X38158Y54565D01*
X38210Y54550D01*
X38309Y54516D01*
X38541Y54479D01*
X38577Y54481D01*
X38620Y54473D01*
X44620Y54473D01*
X44653Y54479D01*
G37*
G36*
X44653Y49479D02*
X44653Y49479D01*
X44692Y49478D01*
X45115Y49539D01*
X45168Y49558D01*
X45253Y49579D01*
X45642Y49757D01*
X45687Y49790D01*
X45763Y49835D01*
X46086Y50114D01*
X46095Y50126D01*
X46104Y50132D01*
X46123Y50162D01*
X46180Y50223D01*
X46411Y50583D01*
X46432Y50635D01*
X46471Y50714D01*
X46591Y51124D01*
X46596Y51180D01*
X46612Y51267D01*
X46612Y51693D01*
X46601Y51749D01*
X46591Y51836D01*
X46471Y52246D01*
X46445Y52296D01*
X46411Y52377D01*
X46180Y52737D01*
X46141Y52777D01*
X46086Y52846D01*
X45763Y53125D01*
X45714Y53153D01*
X45642Y53203D01*
X45253Y53381D01*
X45199Y53393D01*
X45115Y53421D01*
X44692Y53482D01*
X44659Y53480D01*
X44620Y53487D01*
X38629Y53487D01*
X38429Y53494D01*
X38381Y53486D01*
X38265Y53472D01*
X38066Y53412D01*
X38023Y53389D01*
X37918Y53339D01*
X37749Y53218D01*
X37716Y53182D01*
X37632Y53101D01*
X37511Y52932D01*
X37491Y52887D01*
X37438Y52784D01*
X37378Y52585D01*
X37373Y52536D01*
X37356Y52421D01*
X37363Y52221D01*
X37363Y50730D01*
X37370Y50694D01*
X37369Y50651D01*
X37406Y50419D01*
X37425Y50368D01*
X37443Y50306D01*
X37449Y50281D01*
X37452Y50276D01*
X37455Y50268D01*
X37561Y50059D01*
X37595Y50017D01*
X37655Y49930D01*
X37820Y49765D01*
X37865Y49735D01*
X37949Y49671D01*
X38158Y49565D01*
X38210Y49550D01*
X38309Y49516D01*
X38541Y49479D01*
X38577Y49481D01*
X38620Y49473D01*
X44620Y49473D01*
X44653Y49479D01*
G37*
G36*
X64889Y99499D02*
X64889Y99499D01*
X64976Y99509D01*
X65386Y99629D01*
X65436Y99655D01*
X65517Y99689D01*
X65877Y99920D01*
X65917Y99959D01*
X65986Y100014D01*
X66265Y100337D01*
X66293Y100386D01*
X66343Y100458D01*
X66521Y100847D01*
X66533Y100901D01*
X66561Y100985D01*
X66622Y101408D01*
X66620Y101441D01*
X66627Y101480D01*
X66627Y107471D01*
X66634Y107671D01*
X66626Y107719D01*
X66612Y107835D01*
X66552Y108034D01*
X66529Y108077D01*
X66479Y108182D01*
X66358Y108351D01*
X66322Y108385D01*
X66241Y108468D01*
X66072Y108589D01*
X66027Y108609D01*
X65924Y108662D01*
X65725Y108722D01*
X65676Y108727D01*
X65561Y108744D01*
X65361Y108737D01*
X63870Y108737D01*
X63834Y108730D01*
X63791Y108731D01*
X63559Y108694D01*
X63508Y108675D01*
X63408Y108645D01*
X63199Y108539D01*
X63157Y108505D01*
X63070Y108445D01*
X62905Y108280D01*
X62875Y108235D01*
X62811Y108151D01*
X62705Y107942D01*
X62690Y107890D01*
X62656Y107791D01*
X62619Y107559D01*
X62621Y107523D01*
X62613Y107480D01*
X62613Y101480D01*
X62619Y101447D01*
X62618Y101408D01*
X62679Y100985D01*
X62698Y100932D01*
X62719Y100847D01*
X62897Y100458D01*
X62930Y100413D01*
X62975Y100337D01*
X63254Y100014D01*
X63299Y99980D01*
X63363Y99920D01*
X63723Y99689D01*
X63775Y99668D01*
X63854Y99629D01*
X64264Y99509D01*
X64320Y99504D01*
X64407Y99488D01*
X64833Y99488D01*
X64889Y99499D01*
G37*
G36*
X105859Y69474D02*
X105859Y69474D01*
X105975Y69488D01*
X106174Y69548D01*
X106217Y69571D01*
X106322Y69621D01*
X106491Y69742D01*
X106525Y69778D01*
X106608Y69859D01*
X106729Y70028D01*
X106749Y70073D01*
X106802Y70176D01*
X106862Y70375D01*
X106867Y70424D01*
X106884Y70539D01*
X106877Y70739D01*
X106877Y72230D01*
X106870Y72266D01*
X106871Y72309D01*
X106834Y72541D01*
X106815Y72592D01*
X106785Y72692D01*
X106679Y72901D01*
X106645Y72943D01*
X106585Y73030D01*
X106420Y73195D01*
X106375Y73225D01*
X106291Y73289D01*
X106082Y73395D01*
X106030Y73410D01*
X105931Y73444D01*
X105699Y73481D01*
X105663Y73479D01*
X105620Y73487D01*
X99620Y73487D01*
X99587Y73481D01*
X99548Y73482D01*
X99125Y73421D01*
X99072Y73402D01*
X98987Y73381D01*
X98598Y73203D01*
X98553Y73170D01*
X98477Y73125D01*
X98154Y72846D01*
X98120Y72801D01*
X98060Y72737D01*
X97829Y72377D01*
X97808Y72325D01*
X97769Y72246D01*
X97649Y71836D01*
X97644Y71780D01*
X97628Y71693D01*
X97628Y71267D01*
X97639Y71212D01*
X97649Y71124D01*
X97769Y70714D01*
X97795Y70664D01*
X97829Y70583D01*
X98060Y70223D01*
X98099Y70183D01*
X98154Y70114D01*
X98477Y69835D01*
X98526Y69807D01*
X98598Y69757D01*
X98987Y69579D01*
X99041Y69567D01*
X99125Y69539D01*
X99548Y69478D01*
X99581Y69480D01*
X99620Y69473D01*
X105611Y69473D01*
X105811Y69466D01*
X105859Y69474D01*
G37*
G36*
X94889Y99499D02*
X94889Y99499D01*
X94976Y99509D01*
X95386Y99629D01*
X95436Y99655D01*
X95517Y99689D01*
X95877Y99920D01*
X95917Y99959D01*
X95986Y100014D01*
X96265Y100337D01*
X96293Y100386D01*
X96343Y100458D01*
X96521Y100847D01*
X96533Y100901D01*
X96561Y100985D01*
X96622Y101408D01*
X96620Y101441D01*
X96627Y101480D01*
X96627Y107471D01*
X96634Y107671D01*
X96626Y107719D01*
X96612Y107835D01*
X96552Y108034D01*
X96529Y108077D01*
X96479Y108182D01*
X96358Y108351D01*
X96322Y108385D01*
X96241Y108468D01*
X96072Y108589D01*
X96027Y108609D01*
X95924Y108662D01*
X95725Y108722D01*
X95676Y108727D01*
X95561Y108744D01*
X95361Y108737D01*
X93870Y108737D01*
X93834Y108730D01*
X93791Y108731D01*
X93559Y108694D01*
X93508Y108675D01*
X93408Y108645D01*
X93199Y108539D01*
X93157Y108505D01*
X93070Y108445D01*
X92905Y108280D01*
X92875Y108235D01*
X92811Y108151D01*
X92705Y107942D01*
X92690Y107890D01*
X92656Y107791D01*
X92619Y107559D01*
X92621Y107523D01*
X92613Y107480D01*
X92613Y101480D01*
X92619Y101447D01*
X92618Y101408D01*
X92679Y100985D01*
X92698Y100932D01*
X92719Y100847D01*
X92897Y100458D01*
X92930Y100413D01*
X92975Y100337D01*
X93254Y100014D01*
X93299Y99980D01*
X93363Y99920D01*
X93723Y99689D01*
X93775Y99668D01*
X93854Y99629D01*
X94264Y99509D01*
X94320Y99504D01*
X94407Y99488D01*
X94833Y99488D01*
X94889Y99499D01*
G37*
G36*
X105859Y64474D02*
X105859Y64474D01*
X105975Y64488D01*
X106174Y64548D01*
X106217Y64571D01*
X106322Y64621D01*
X106491Y64742D01*
X106525Y64778D01*
X106608Y64859D01*
X106729Y65028D01*
X106749Y65073D01*
X106802Y65176D01*
X106862Y65375D01*
X106867Y65424D01*
X106884Y65539D01*
X106877Y65739D01*
X106877Y67230D01*
X106870Y67266D01*
X106871Y67309D01*
X106834Y67541D01*
X106815Y67592D01*
X106785Y67692D01*
X106679Y67901D01*
X106645Y67943D01*
X106585Y68030D01*
X106420Y68195D01*
X106375Y68225D01*
X106291Y68289D01*
X106082Y68395D01*
X106030Y68410D01*
X105931Y68444D01*
X105699Y68481D01*
X105663Y68479D01*
X105620Y68487D01*
X99620Y68487D01*
X99587Y68481D01*
X99548Y68482D01*
X99125Y68421D01*
X99072Y68402D01*
X98987Y68381D01*
X98598Y68203D01*
X98553Y68170D01*
X98477Y68125D01*
X98154Y67846D01*
X98120Y67801D01*
X98060Y67737D01*
X97829Y67377D01*
X97808Y67325D01*
X97769Y67246D01*
X97649Y66836D01*
X97644Y66780D01*
X97628Y66693D01*
X97628Y66267D01*
X97639Y66212D01*
X97649Y66124D01*
X97769Y65714D01*
X97795Y65664D01*
X97829Y65583D01*
X98060Y65223D01*
X98099Y65183D01*
X98154Y65114D01*
X98477Y64835D01*
X98526Y64807D01*
X98598Y64757D01*
X98987Y64579D01*
X99041Y64567D01*
X99125Y64539D01*
X99548Y64478D01*
X99581Y64480D01*
X99620Y64473D01*
X105611Y64473D01*
X105811Y64466D01*
X105859Y64474D01*
G37*
G36*
X74889Y99499D02*
X74889Y99499D01*
X74976Y99509D01*
X75386Y99629D01*
X75436Y99655D01*
X75517Y99689D01*
X75877Y99920D01*
X75917Y99959D01*
X75986Y100014D01*
X76265Y100337D01*
X76293Y100386D01*
X76343Y100458D01*
X76521Y100847D01*
X76533Y100901D01*
X76561Y100985D01*
X76622Y101408D01*
X76620Y101441D01*
X76627Y101480D01*
X76627Y107471D01*
X76634Y107671D01*
X76626Y107719D01*
X76612Y107835D01*
X76552Y108034D01*
X76529Y108077D01*
X76479Y108182D01*
X76358Y108351D01*
X76322Y108385D01*
X76241Y108468D01*
X76072Y108589D01*
X76027Y108609D01*
X75924Y108662D01*
X75725Y108722D01*
X75676Y108727D01*
X75561Y108744D01*
X75361Y108737D01*
X73870Y108737D01*
X73834Y108730D01*
X73791Y108731D01*
X73559Y108694D01*
X73508Y108675D01*
X73408Y108645D01*
X73199Y108539D01*
X73157Y108505D01*
X73070Y108445D01*
X72905Y108280D01*
X72875Y108235D01*
X72811Y108151D01*
X72705Y107942D01*
X72690Y107890D01*
X72656Y107791D01*
X72619Y107559D01*
X72621Y107523D01*
X72613Y107480D01*
X72613Y101480D01*
X72619Y101447D01*
X72618Y101408D01*
X72679Y100985D01*
X72698Y100932D01*
X72719Y100847D01*
X72897Y100458D01*
X72930Y100413D01*
X72975Y100337D01*
X73254Y100014D01*
X73299Y99980D01*
X73363Y99920D01*
X73723Y99689D01*
X73775Y99668D01*
X73854Y99629D01*
X74264Y99509D01*
X74320Y99504D01*
X74407Y99488D01*
X74833Y99488D01*
X74889Y99499D01*
G37*
G36*
X105859Y59474D02*
X105859Y59474D01*
X105975Y59488D01*
X106174Y59548D01*
X106217Y59571D01*
X106322Y59621D01*
X106491Y59742D01*
X106525Y59778D01*
X106608Y59859D01*
X106729Y60028D01*
X106749Y60073D01*
X106802Y60176D01*
X106862Y60375D01*
X106867Y60424D01*
X106884Y60539D01*
X106877Y60739D01*
X106877Y62230D01*
X106870Y62266D01*
X106871Y62309D01*
X106834Y62541D01*
X106815Y62592D01*
X106785Y62692D01*
X106679Y62901D01*
X106645Y62943D01*
X106585Y63030D01*
X106420Y63195D01*
X106375Y63225D01*
X106291Y63289D01*
X106082Y63395D01*
X106030Y63410D01*
X105931Y63444D01*
X105699Y63481D01*
X105663Y63479D01*
X105620Y63487D01*
X99620Y63487D01*
X99587Y63481D01*
X99548Y63482D01*
X99125Y63421D01*
X99072Y63402D01*
X98987Y63381D01*
X98598Y63203D01*
X98553Y63170D01*
X98477Y63125D01*
X98154Y62846D01*
X98120Y62801D01*
X98060Y62737D01*
X97829Y62377D01*
X97808Y62325D01*
X97769Y62246D01*
X97649Y61836D01*
X97644Y61780D01*
X97628Y61693D01*
X97628Y61267D01*
X97639Y61212D01*
X97649Y61124D01*
X97769Y60714D01*
X97795Y60664D01*
X97829Y60583D01*
X98060Y60223D01*
X98099Y60183D01*
X98154Y60114D01*
X98477Y59835D01*
X98526Y59807D01*
X98598Y59757D01*
X98987Y59579D01*
X99041Y59567D01*
X99125Y59539D01*
X99548Y59478D01*
X99581Y59480D01*
X99620Y59473D01*
X105611Y59473D01*
X105811Y59466D01*
X105859Y59474D01*
G37*
G36*
X84889Y99499D02*
X84889Y99499D01*
X84976Y99509D01*
X85386Y99629D01*
X85436Y99655D01*
X85517Y99689D01*
X85877Y99920D01*
X85917Y99959D01*
X85986Y100014D01*
X86265Y100337D01*
X86293Y100386D01*
X86343Y100458D01*
X86521Y100847D01*
X86533Y100901D01*
X86561Y100985D01*
X86622Y101408D01*
X86620Y101441D01*
X86627Y101480D01*
X86627Y107471D01*
X86634Y107671D01*
X86626Y107719D01*
X86612Y107835D01*
X86552Y108034D01*
X86529Y108077D01*
X86479Y108182D01*
X86358Y108351D01*
X86322Y108385D01*
X86241Y108468D01*
X86072Y108589D01*
X86027Y108609D01*
X85924Y108662D01*
X85725Y108722D01*
X85676Y108727D01*
X85561Y108744D01*
X85361Y108737D01*
X83870Y108737D01*
X83834Y108730D01*
X83791Y108731D01*
X83559Y108694D01*
X83508Y108675D01*
X83408Y108645D01*
X83199Y108539D01*
X83157Y108505D01*
X83070Y108445D01*
X82905Y108280D01*
X82875Y108235D01*
X82811Y108151D01*
X82705Y107942D01*
X82690Y107890D01*
X82656Y107791D01*
X82619Y107559D01*
X82621Y107523D01*
X82613Y107480D01*
X82613Y101480D01*
X82619Y101447D01*
X82618Y101408D01*
X82679Y100985D01*
X82698Y100932D01*
X82719Y100847D01*
X82897Y100458D01*
X82930Y100413D01*
X82975Y100337D01*
X83254Y100014D01*
X83299Y99980D01*
X83363Y99920D01*
X83723Y99689D01*
X83775Y99668D01*
X83854Y99629D01*
X84264Y99509D01*
X84320Y99504D01*
X84407Y99488D01*
X84833Y99488D01*
X84889Y99499D01*
G37*
G36*
X105859Y54474D02*
X105859Y54474D01*
X105975Y54488D01*
X106174Y54548D01*
X106217Y54571D01*
X106322Y54621D01*
X106491Y54742D01*
X106525Y54778D01*
X106608Y54859D01*
X106729Y55028D01*
X106749Y55073D01*
X106802Y55176D01*
X106862Y55375D01*
X106867Y55424D01*
X106884Y55539D01*
X106877Y55739D01*
X106877Y57230D01*
X106870Y57266D01*
X106871Y57309D01*
X106834Y57541D01*
X106815Y57592D01*
X106785Y57692D01*
X106679Y57901D01*
X106645Y57943D01*
X106585Y58030D01*
X106420Y58195D01*
X106375Y58225D01*
X106291Y58289D01*
X106082Y58395D01*
X106030Y58410D01*
X105931Y58444D01*
X105699Y58481D01*
X105663Y58479D01*
X105620Y58487D01*
X99620Y58487D01*
X99587Y58481D01*
X99548Y58482D01*
X99125Y58421D01*
X99072Y58402D01*
X98987Y58381D01*
X98598Y58203D01*
X98553Y58170D01*
X98477Y58125D01*
X98154Y57846D01*
X98120Y57801D01*
X98060Y57737D01*
X97829Y57377D01*
X97808Y57325D01*
X97769Y57246D01*
X97649Y56836D01*
X97644Y56780D01*
X97628Y56693D01*
X97628Y56267D01*
X97639Y56212D01*
X97649Y56124D01*
X97769Y55714D01*
X97795Y55664D01*
X97829Y55583D01*
X98060Y55223D01*
X98099Y55183D01*
X98154Y55114D01*
X98477Y54835D01*
X98526Y54807D01*
X98598Y54757D01*
X98987Y54579D01*
X99041Y54567D01*
X99125Y54539D01*
X99548Y54478D01*
X99581Y54480D01*
X99620Y54473D01*
X105611Y54473D01*
X105811Y54466D01*
X105859Y54474D01*
G37*
G36*
X59889Y99499D02*
X59889Y99499D01*
X59976Y99509D01*
X60386Y99629D01*
X60436Y99655D01*
X60517Y99689D01*
X60877Y99920D01*
X60917Y99959D01*
X60986Y100014D01*
X61265Y100337D01*
X61293Y100386D01*
X61343Y100458D01*
X61521Y100847D01*
X61533Y100901D01*
X61561Y100985D01*
X61622Y101408D01*
X61620Y101441D01*
X61627Y101480D01*
X61627Y107471D01*
X61634Y107671D01*
X61626Y107719D01*
X61612Y107835D01*
X61552Y108034D01*
X61529Y108077D01*
X61479Y108182D01*
X61358Y108351D01*
X61322Y108385D01*
X61241Y108468D01*
X61072Y108589D01*
X61027Y108609D01*
X60924Y108662D01*
X60725Y108722D01*
X60676Y108727D01*
X60561Y108744D01*
X60361Y108737D01*
X58870Y108737D01*
X58834Y108730D01*
X58791Y108731D01*
X58559Y108694D01*
X58508Y108675D01*
X58408Y108645D01*
X58199Y108539D01*
X58157Y108505D01*
X58070Y108445D01*
X57905Y108280D01*
X57875Y108235D01*
X57811Y108151D01*
X57705Y107942D01*
X57690Y107890D01*
X57656Y107791D01*
X57619Y107559D01*
X57621Y107523D01*
X57613Y107480D01*
X57613Y101480D01*
X57619Y101447D01*
X57618Y101408D01*
X57679Y100985D01*
X57698Y100932D01*
X57719Y100847D01*
X57897Y100458D01*
X57930Y100413D01*
X57975Y100337D01*
X58254Y100014D01*
X58299Y99980D01*
X58363Y99920D01*
X58723Y99689D01*
X58775Y99668D01*
X58854Y99629D01*
X59264Y99509D01*
X59320Y99504D01*
X59407Y99488D01*
X59833Y99488D01*
X59889Y99499D01*
G37*
G36*
X105859Y49474D02*
X105859Y49474D01*
X105975Y49488D01*
X106174Y49548D01*
X106217Y49571D01*
X106322Y49621D01*
X106491Y49742D01*
X106525Y49778D01*
X106608Y49859D01*
X106729Y50028D01*
X106749Y50073D01*
X106802Y50176D01*
X106862Y50375D01*
X106867Y50424D01*
X106884Y50539D01*
X106877Y50739D01*
X106877Y52230D01*
X106870Y52266D01*
X106871Y52309D01*
X106834Y52541D01*
X106815Y52592D01*
X106785Y52692D01*
X106679Y52901D01*
X106645Y52943D01*
X106585Y53030D01*
X106420Y53195D01*
X106375Y53225D01*
X106291Y53289D01*
X106082Y53395D01*
X106030Y53410D01*
X105931Y53444D01*
X105699Y53481D01*
X105663Y53479D01*
X105620Y53487D01*
X99620Y53487D01*
X99587Y53481D01*
X99548Y53482D01*
X99125Y53421D01*
X99072Y53402D01*
X98987Y53381D01*
X98598Y53203D01*
X98553Y53170D01*
X98477Y53125D01*
X98154Y52846D01*
X98120Y52801D01*
X98060Y52737D01*
X97829Y52377D01*
X97808Y52325D01*
X97769Y52246D01*
X97649Y51836D01*
X97644Y51780D01*
X97628Y51693D01*
X97628Y51267D01*
X97639Y51212D01*
X97649Y51124D01*
X97769Y50714D01*
X97795Y50664D01*
X97829Y50583D01*
X98060Y50223D01*
X98099Y50183D01*
X98154Y50114D01*
X98477Y49835D01*
X98526Y49807D01*
X98598Y49757D01*
X98987Y49579D01*
X99041Y49567D01*
X99125Y49539D01*
X99548Y49478D01*
X99581Y49480D01*
X99620Y49473D01*
X105611Y49473D01*
X105811Y49466D01*
X105859Y49474D01*
G37*
G36*
X79889Y99499D02*
X79889Y99499D01*
X79976Y99509D01*
X80386Y99629D01*
X80436Y99655D01*
X80517Y99689D01*
X80877Y99920D01*
X80917Y99959D01*
X80986Y100014D01*
X81265Y100337D01*
X81293Y100386D01*
X81343Y100458D01*
X81521Y100847D01*
X81533Y100901D01*
X81561Y100985D01*
X81622Y101408D01*
X81620Y101441D01*
X81627Y101480D01*
X81627Y107471D01*
X81634Y107671D01*
X81626Y107719D01*
X81612Y107835D01*
X81552Y108034D01*
X81529Y108077D01*
X81479Y108182D01*
X81358Y108351D01*
X81322Y108385D01*
X81241Y108468D01*
X81072Y108589D01*
X81027Y108609D01*
X80924Y108662D01*
X80725Y108722D01*
X80676Y108727D01*
X80561Y108744D01*
X80361Y108737D01*
X78870Y108737D01*
X78834Y108730D01*
X78791Y108731D01*
X78559Y108694D01*
X78508Y108675D01*
X78408Y108645D01*
X78199Y108539D01*
X78157Y108505D01*
X78070Y108445D01*
X77905Y108280D01*
X77875Y108235D01*
X77811Y108151D01*
X77705Y107942D01*
X77690Y107890D01*
X77656Y107791D01*
X77619Y107559D01*
X77621Y107523D01*
X77613Y107480D01*
X77613Y101480D01*
X77619Y101447D01*
X77618Y101408D01*
X77679Y100985D01*
X77698Y100932D01*
X77719Y100847D01*
X77897Y100458D01*
X77930Y100413D01*
X77975Y100337D01*
X78254Y100014D01*
X78299Y99980D01*
X78363Y99920D01*
X78723Y99689D01*
X78775Y99668D01*
X78854Y99629D01*
X79264Y99509D01*
X79320Y99504D01*
X79407Y99488D01*
X79833Y99488D01*
X79889Y99499D01*
G37*
G36*
X54889Y99499D02*
X54889Y99499D01*
X54976Y99509D01*
X55386Y99629D01*
X55436Y99655D01*
X55517Y99689D01*
X55877Y99920D01*
X55917Y99959D01*
X55986Y100014D01*
X56265Y100337D01*
X56293Y100386D01*
X56343Y100458D01*
X56521Y100847D01*
X56533Y100901D01*
X56561Y100985D01*
X56622Y101408D01*
X56620Y101441D01*
X56627Y101480D01*
X56627Y107471D01*
X56634Y107671D01*
X56626Y107719D01*
X56612Y107835D01*
X56552Y108034D01*
X56529Y108077D01*
X56479Y108182D01*
X56358Y108351D01*
X56322Y108385D01*
X56241Y108468D01*
X56072Y108589D01*
X56027Y108609D01*
X55924Y108662D01*
X55725Y108722D01*
X55676Y108727D01*
X55561Y108744D01*
X55361Y108737D01*
X53870Y108737D01*
X53834Y108730D01*
X53791Y108731D01*
X53559Y108694D01*
X53508Y108675D01*
X53408Y108645D01*
X53199Y108539D01*
X53157Y108505D01*
X53070Y108445D01*
X52905Y108280D01*
X52875Y108235D01*
X52811Y108151D01*
X52705Y107942D01*
X52690Y107890D01*
X52656Y107791D01*
X52619Y107559D01*
X52621Y107523D01*
X52613Y107480D01*
X52613Y101480D01*
X52619Y101447D01*
X52618Y101408D01*
X52679Y100985D01*
X52698Y100932D01*
X52719Y100847D01*
X52897Y100458D01*
X52930Y100413D01*
X52975Y100337D01*
X53254Y100014D01*
X53299Y99980D01*
X53363Y99920D01*
X53723Y99689D01*
X53775Y99668D01*
X53854Y99629D01*
X54264Y99509D01*
X54320Y99504D01*
X54407Y99488D01*
X54833Y99488D01*
X54889Y99499D01*
G37*
G36*
X89889Y99499D02*
X89889Y99499D01*
X89976Y99509D01*
X90386Y99629D01*
X90436Y99655D01*
X90517Y99689D01*
X90877Y99920D01*
X90917Y99959D01*
X90986Y100014D01*
X91265Y100337D01*
X91293Y100386D01*
X91343Y100458D01*
X91521Y100847D01*
X91533Y100901D01*
X91561Y100985D01*
X91622Y101408D01*
X91620Y101441D01*
X91627Y101480D01*
X91627Y107471D01*
X91634Y107671D01*
X91626Y107719D01*
X91612Y107835D01*
X91552Y108034D01*
X91529Y108077D01*
X91479Y108182D01*
X91358Y108351D01*
X91322Y108385D01*
X91241Y108468D01*
X91072Y108589D01*
X91027Y108609D01*
X90924Y108662D01*
X90725Y108722D01*
X90676Y108727D01*
X90561Y108744D01*
X90361Y108737D01*
X88870Y108737D01*
X88834Y108730D01*
X88791Y108731D01*
X88559Y108694D01*
X88508Y108675D01*
X88408Y108645D01*
X88199Y108539D01*
X88157Y108505D01*
X88070Y108445D01*
X87905Y108280D01*
X87875Y108235D01*
X87811Y108151D01*
X87705Y107942D01*
X87690Y107890D01*
X87656Y107791D01*
X87619Y107559D01*
X87621Y107523D01*
X87613Y107480D01*
X87613Y101480D01*
X87619Y101447D01*
X87618Y101408D01*
X87679Y100985D01*
X87698Y100932D01*
X87719Y100847D01*
X87897Y100458D01*
X87930Y100413D01*
X87975Y100337D01*
X88254Y100014D01*
X88299Y99980D01*
X88363Y99920D01*
X88723Y99689D01*
X88775Y99668D01*
X88854Y99629D01*
X89264Y99509D01*
X89320Y99504D01*
X89407Y99488D01*
X89833Y99488D01*
X89889Y99499D01*
G37*
G36*
X69889Y99499D02*
X69889Y99499D01*
X69976Y99509D01*
X70386Y99629D01*
X70436Y99655D01*
X70517Y99689D01*
X70877Y99920D01*
X70917Y99959D01*
X70986Y100014D01*
X71265Y100337D01*
X71293Y100386D01*
X71343Y100458D01*
X71521Y100847D01*
X71533Y100901D01*
X71561Y100985D01*
X71622Y101408D01*
X71620Y101441D01*
X71627Y101480D01*
X71627Y107471D01*
X71634Y107671D01*
X71626Y107719D01*
X71612Y107835D01*
X71552Y108034D01*
X71529Y108077D01*
X71479Y108182D01*
X71358Y108351D01*
X71322Y108385D01*
X71241Y108468D01*
X71072Y108589D01*
X71027Y108609D01*
X70924Y108662D01*
X70725Y108722D01*
X70676Y108727D01*
X70561Y108744D01*
X70361Y108737D01*
X68870Y108737D01*
X68834Y108730D01*
X68791Y108731D01*
X68559Y108694D01*
X68508Y108675D01*
X68408Y108645D01*
X68199Y108539D01*
X68157Y108505D01*
X68070Y108445D01*
X67905Y108280D01*
X67875Y108235D01*
X67811Y108151D01*
X67705Y107942D01*
X67690Y107890D01*
X67656Y107791D01*
X67619Y107559D01*
X67621Y107523D01*
X67613Y107480D01*
X67613Y101480D01*
X67619Y101447D01*
X67618Y101408D01*
X67679Y100985D01*
X67698Y100932D01*
X67719Y100847D01*
X67897Y100458D01*
X67930Y100413D01*
X67975Y100337D01*
X68254Y100014D01*
X68299Y99980D01*
X68363Y99920D01*
X68723Y99689D01*
X68775Y99668D01*
X68854Y99629D01*
X69264Y99509D01*
X69320Y99504D01*
X69407Y99488D01*
X69833Y99488D01*
X69889Y99499D01*
G37*
G36*
X105859Y94474D02*
X105859Y94474D01*
X105975Y94488D01*
X106174Y94548D01*
X106217Y94571D01*
X106322Y94621D01*
X106491Y94742D01*
X106525Y94778D01*
X106608Y94859D01*
X106729Y95028D01*
X106749Y95073D01*
X106802Y95176D01*
X106862Y95375D01*
X106867Y95424D01*
X106884Y95539D01*
X106877Y95739D01*
X106877Y97230D01*
X106870Y97266D01*
X106871Y97309D01*
X106834Y97541D01*
X106815Y97592D01*
X106785Y97692D01*
X106679Y97901D01*
X106645Y97943D01*
X106585Y98030D01*
X106420Y98195D01*
X106375Y98225D01*
X106291Y98289D01*
X106082Y98395D01*
X106030Y98410D01*
X105931Y98444D01*
X105699Y98481D01*
X105663Y98479D01*
X105620Y98487D01*
X99620Y98487D01*
X99587Y98481D01*
X99548Y98482D01*
X99125Y98421D01*
X99072Y98402D01*
X98987Y98381D01*
X98598Y98203D01*
X98553Y98170D01*
X98477Y98125D01*
X98154Y97846D01*
X98120Y97801D01*
X98060Y97737D01*
X97829Y97377D01*
X97808Y97325D01*
X97769Y97246D01*
X97649Y96836D01*
X97644Y96780D01*
X97628Y96693D01*
X97628Y96267D01*
X97639Y96212D01*
X97649Y96124D01*
X97769Y95714D01*
X97795Y95664D01*
X97829Y95583D01*
X98060Y95223D01*
X98099Y95183D01*
X98154Y95114D01*
X98477Y94835D01*
X98526Y94807D01*
X98598Y94757D01*
X98987Y94579D01*
X99041Y94567D01*
X99125Y94539D01*
X99548Y94478D01*
X99581Y94480D01*
X99620Y94473D01*
X105611Y94473D01*
X105811Y94466D01*
X105859Y94474D01*
G37*
G36*
X105859Y89474D02*
X105859Y89474D01*
X105975Y89488D01*
X106174Y89548D01*
X106217Y89571D01*
X106322Y89621D01*
X106491Y89742D01*
X106525Y89778D01*
X106608Y89859D01*
X106729Y90028D01*
X106749Y90073D01*
X106802Y90176D01*
X106862Y90375D01*
X106867Y90424D01*
X106884Y90539D01*
X106877Y90739D01*
X106877Y92230D01*
X106870Y92266D01*
X106871Y92309D01*
X106834Y92541D01*
X106815Y92592D01*
X106785Y92692D01*
X106679Y92901D01*
X106645Y92943D01*
X106585Y93030D01*
X106420Y93195D01*
X106375Y93225D01*
X106291Y93289D01*
X106082Y93395D01*
X106030Y93410D01*
X105931Y93444D01*
X105699Y93481D01*
X105663Y93479D01*
X105620Y93487D01*
X99620Y93487D01*
X99587Y93481D01*
X99548Y93482D01*
X99125Y93421D01*
X99072Y93402D01*
X98987Y93381D01*
X98598Y93203D01*
X98553Y93170D01*
X98477Y93125D01*
X98154Y92846D01*
X98120Y92801D01*
X98060Y92737D01*
X97829Y92377D01*
X97808Y92325D01*
X97769Y92246D01*
X97649Y91836D01*
X97644Y91780D01*
X97628Y91693D01*
X97628Y91267D01*
X97639Y91212D01*
X97649Y91124D01*
X97769Y90714D01*
X97795Y90664D01*
X97829Y90583D01*
X98060Y90223D01*
X98099Y90183D01*
X98154Y90114D01*
X98477Y89835D01*
X98526Y89807D01*
X98598Y89757D01*
X98987Y89579D01*
X99041Y89567D01*
X99125Y89539D01*
X99548Y89478D01*
X99581Y89480D01*
X99620Y89473D01*
X105611Y89473D01*
X105811Y89466D01*
X105859Y89474D01*
G37*
G36*
X105859Y84474D02*
X105859Y84474D01*
X105975Y84488D01*
X106174Y84548D01*
X106217Y84571D01*
X106322Y84621D01*
X106491Y84742D01*
X106525Y84778D01*
X106608Y84859D01*
X106729Y85028D01*
X106749Y85073D01*
X106802Y85176D01*
X106862Y85375D01*
X106867Y85424D01*
X106884Y85539D01*
X106877Y85739D01*
X106877Y87230D01*
X106870Y87266D01*
X106871Y87309D01*
X106834Y87541D01*
X106815Y87592D01*
X106785Y87692D01*
X106679Y87901D01*
X106645Y87943D01*
X106585Y88030D01*
X106420Y88195D01*
X106375Y88225D01*
X106291Y88289D01*
X106082Y88395D01*
X106030Y88410D01*
X105931Y88444D01*
X105699Y88481D01*
X105663Y88479D01*
X105620Y88487D01*
X99620Y88487D01*
X99587Y88481D01*
X99548Y88482D01*
X99125Y88421D01*
X99072Y88402D01*
X98987Y88381D01*
X98598Y88203D01*
X98553Y88170D01*
X98477Y88125D01*
X98154Y87846D01*
X98120Y87801D01*
X98060Y87737D01*
X97829Y87377D01*
X97808Y87325D01*
X97769Y87246D01*
X97649Y86836D01*
X97644Y86780D01*
X97628Y86693D01*
X97628Y86267D01*
X97639Y86212D01*
X97649Y86124D01*
X97769Y85714D01*
X97795Y85664D01*
X97829Y85583D01*
X98060Y85223D01*
X98099Y85183D01*
X98154Y85114D01*
X98477Y84835D01*
X98526Y84807D01*
X98598Y84757D01*
X98987Y84579D01*
X99041Y84567D01*
X99125Y84539D01*
X99548Y84478D01*
X99581Y84480D01*
X99620Y84473D01*
X105611Y84473D01*
X105811Y84466D01*
X105859Y84474D01*
G37*
G36*
X105859Y79474D02*
X105859Y79474D01*
X105975Y79488D01*
X106174Y79548D01*
X106217Y79571D01*
X106322Y79621D01*
X106491Y79742D01*
X106525Y79778D01*
X106608Y79859D01*
X106729Y80028D01*
X106749Y80073D01*
X106802Y80176D01*
X106862Y80375D01*
X106867Y80424D01*
X106884Y80539D01*
X106877Y80739D01*
X106877Y82230D01*
X106870Y82266D01*
X106871Y82309D01*
X106834Y82541D01*
X106815Y82592D01*
X106785Y82692D01*
X106679Y82901D01*
X106645Y82943D01*
X106585Y83030D01*
X106420Y83195D01*
X106375Y83225D01*
X106291Y83289D01*
X106082Y83395D01*
X106030Y83410D01*
X105931Y83444D01*
X105699Y83481D01*
X105663Y83479D01*
X105620Y83487D01*
X99620Y83487D01*
X99587Y83481D01*
X99548Y83482D01*
X99125Y83421D01*
X99072Y83402D01*
X98987Y83381D01*
X98598Y83203D01*
X98553Y83170D01*
X98477Y83125D01*
X98154Y82846D01*
X98120Y82801D01*
X98060Y82737D01*
X97829Y82377D01*
X97808Y82325D01*
X97769Y82246D01*
X97649Y81836D01*
X97644Y81780D01*
X97628Y81693D01*
X97628Y81267D01*
X97639Y81212D01*
X97649Y81124D01*
X97769Y80714D01*
X97795Y80664D01*
X97829Y80583D01*
X98060Y80223D01*
X98099Y80183D01*
X98154Y80114D01*
X98477Y79835D01*
X98526Y79807D01*
X98598Y79757D01*
X98987Y79579D01*
X99041Y79567D01*
X99125Y79539D01*
X99548Y79478D01*
X99581Y79480D01*
X99620Y79473D01*
X105611Y79473D01*
X105811Y79466D01*
X105859Y79474D01*
G37*
G36*
X49889Y99499D02*
X49889Y99499D01*
X49976Y99509D01*
X50386Y99629D01*
X50436Y99655D01*
X50517Y99689D01*
X50877Y99920D01*
X50917Y99959D01*
X50986Y100014D01*
X51265Y100337D01*
X51293Y100386D01*
X51343Y100458D01*
X51521Y100847D01*
X51533Y100901D01*
X51561Y100985D01*
X51622Y101408D01*
X51620Y101441D01*
X51627Y101480D01*
X51627Y107471D01*
X51634Y107671D01*
X51626Y107719D01*
X51612Y107835D01*
X51552Y108034D01*
X51529Y108077D01*
X51479Y108182D01*
X51358Y108351D01*
X51322Y108385D01*
X51241Y108468D01*
X51072Y108589D01*
X51027Y108609D01*
X50924Y108662D01*
X50725Y108722D01*
X50676Y108727D01*
X50561Y108744D01*
X50361Y108737D01*
X48870Y108737D01*
X48834Y108730D01*
X48791Y108731D01*
X48559Y108694D01*
X48508Y108675D01*
X48408Y108645D01*
X48199Y108539D01*
X48157Y108505D01*
X48070Y108445D01*
X47905Y108280D01*
X47875Y108235D01*
X47811Y108151D01*
X47705Y107942D01*
X47690Y107890D01*
X47656Y107791D01*
X47619Y107559D01*
X47621Y107523D01*
X47613Y107480D01*
X47613Y101480D01*
X47619Y101447D01*
X47618Y101408D01*
X47679Y100985D01*
X47698Y100932D01*
X47719Y100847D01*
X47897Y100458D01*
X47930Y100413D01*
X47975Y100337D01*
X48254Y100014D01*
X48299Y99980D01*
X48363Y99920D01*
X48723Y99689D01*
X48775Y99668D01*
X48854Y99629D01*
X49264Y99509D01*
X49320Y99504D01*
X49407Y99488D01*
X49833Y99488D01*
X49889Y99499D01*
G37*
G36*
X105859Y74474D02*
X105859Y74474D01*
X105975Y74488D01*
X106174Y74548D01*
X106217Y74571D01*
X106322Y74621D01*
X106491Y74742D01*
X106525Y74778D01*
X106608Y74859D01*
X106729Y75028D01*
X106749Y75073D01*
X106802Y75176D01*
X106862Y75375D01*
X106867Y75424D01*
X106884Y75539D01*
X106877Y75739D01*
X106877Y77230D01*
X106870Y77266D01*
X106871Y77309D01*
X106834Y77541D01*
X106815Y77592D01*
X106785Y77692D01*
X106679Y77901D01*
X106645Y77943D01*
X106585Y78030D01*
X106420Y78195D01*
X106375Y78225D01*
X106291Y78289D01*
X106082Y78395D01*
X106030Y78410D01*
X105931Y78444D01*
X105699Y78481D01*
X105663Y78479D01*
X105620Y78487D01*
X99620Y78487D01*
X99587Y78481D01*
X99548Y78482D01*
X99125Y78421D01*
X99072Y78402D01*
X98987Y78381D01*
X98598Y78203D01*
X98553Y78170D01*
X98477Y78125D01*
X98154Y77846D01*
X98120Y77801D01*
X98060Y77737D01*
X97829Y77377D01*
X97808Y77325D01*
X97769Y77246D01*
X97649Y76836D01*
X97644Y76780D01*
X97628Y76693D01*
X97628Y76267D01*
X97639Y76212D01*
X97649Y76124D01*
X97769Y75714D01*
X97795Y75664D01*
X97829Y75583D01*
X98060Y75223D01*
X98099Y75183D01*
X98154Y75114D01*
X98477Y74835D01*
X98526Y74807D01*
X98598Y74757D01*
X98987Y74579D01*
X99041Y74567D01*
X99125Y74539D01*
X99548Y74478D01*
X99581Y74480D01*
X99620Y74473D01*
X105611Y74473D01*
X105811Y74466D01*
X105859Y74474D01*
G37*
D10*
X61846Y147205D02*
X59244Y147205D01*
X59244Y150407D01*
X61846Y150407D01*
X61846Y147205D01*
X53246Y150407D02*
X50644Y150407D01*
X53246Y150407D02*
X53246Y147205D01*
X50644Y147205D01*
X50644Y150407D01*
X74754Y125018D02*
X77356Y125018D01*
X74754Y125018D02*
X74754Y128220D01*
X77356Y128220D01*
X77356Y125018D01*
X68756Y128220D02*
X66154Y128220D01*
X68756Y128220D02*
X68756Y125018D01*
X66154Y125018D01*
X66154Y128220D01*
X131021Y127040D02*
X131021Y129642D01*
X131021Y127040D02*
X127819Y127040D01*
X127819Y129642D01*
X131021Y129642D01*
X127819Y121042D02*
X127819Y118440D01*
X127819Y121042D02*
X131021Y121042D01*
X131021Y118440D01*
X127819Y118440D01*
X40543Y26385D02*
X40543Y23783D01*
X40543Y26385D02*
X43745Y26385D01*
X43745Y23783D01*
X40543Y23783D01*
X43745Y32383D02*
X43745Y34985D01*
X43745Y32383D02*
X40543Y32383D01*
X40543Y34985D01*
X43745Y34985D01*
X140646Y126903D02*
X140646Y129505D01*
X140646Y126903D02*
X137444Y126903D01*
X137444Y129505D01*
X140646Y129505D01*
X137444Y120905D02*
X137444Y118303D01*
X137444Y120905D02*
X140646Y120905D01*
X140646Y118303D01*
X137444Y118303D01*
X75939Y23850D02*
X73337Y23850D01*
X75939Y23850D02*
X75939Y20648D01*
X73337Y20648D01*
X73337Y23850D01*
X81937Y20648D02*
X84539Y20648D01*
X81937Y20648D02*
X81937Y23850D01*
X84539Y23850D01*
X84539Y20648D01*
D11*
X117550Y34308D02*
X122510Y34308D01*
X122510Y25148D01*
X117550Y25148D01*
X117550Y34308D01*
X117550Y31143D02*
X122510Y31143D01*
X136250Y25148D02*
X141210Y25148D01*
X136250Y25148D02*
X136250Y34308D01*
X141210Y34308D01*
X141210Y25148D01*
X141210Y31143D02*
X136250Y31143D01*
D10*
X32659Y155309D02*
X32659Y157911D01*
X32659Y155309D02*
X29457Y155309D01*
X29457Y157911D01*
X32659Y157911D01*
X29457Y149311D02*
X29457Y146709D01*
X29457Y149311D02*
X32659Y149311D01*
X32659Y146709D01*
X29457Y146709D01*
D12*
X50480Y136923D02*
X53148Y136923D01*
X50480Y136923D02*
X50480Y140191D01*
X53148Y140191D01*
X53148Y136923D01*
X59120Y136923D02*
X61788Y136923D01*
X59120Y136923D02*
X59120Y140191D01*
X61788Y140191D01*
X61788Y136923D01*
X95246Y148985D02*
X97914Y148985D01*
X97914Y145717D01*
X95246Y145717D01*
X95246Y148985D01*
X89274Y148985D02*
X86606Y148985D01*
X89274Y148985D02*
X89274Y145717D01*
X86606Y145717D01*
X86606Y148985D01*
X100614Y129525D02*
X100614Y126857D01*
X97346Y126857D01*
X97346Y129525D01*
X100614Y129525D01*
X100614Y135497D02*
X100614Y138165D01*
X100614Y135497D02*
X97346Y135497D01*
X97346Y138165D01*
X100614Y138165D01*
X39895Y155640D02*
X39895Y158308D01*
X43163Y158308D01*
X43163Y155640D01*
X39895Y155640D01*
X39895Y149668D02*
X39895Y147000D01*
X39895Y149668D02*
X43163Y149668D01*
X43163Y147000D01*
X39895Y147000D01*
X89581Y129287D02*
X89581Y126619D01*
X86313Y126619D01*
X86313Y129287D01*
X89581Y129287D01*
X89581Y135259D02*
X89581Y137927D01*
X89581Y135259D02*
X86313Y135259D01*
X86313Y137927D01*
X89581Y137927D01*
X135436Y60704D02*
X138104Y60704D01*
X138104Y57436D01*
X135436Y57436D01*
X135436Y60704D01*
X129464Y60704D02*
X126796Y60704D01*
X129464Y60704D02*
X129464Y57436D01*
X126796Y57436D01*
X126796Y60704D01*
X126931Y95941D02*
X129599Y95941D01*
X126931Y95941D02*
X126931Y99209D01*
X129599Y99209D01*
X129599Y95941D01*
X135571Y95941D02*
X138239Y95941D01*
X135571Y95941D02*
X135571Y99209D01*
X138239Y99209D01*
X138239Y95941D01*
D13*
X77994Y127D03*
X65294Y127D03*
X52594Y127D03*
X39894Y127D03*
X27194Y127D03*
X90694Y127D03*
X103394Y127D03*
X116094Y127D03*
X128794Y127D03*
X2159Y76327D03*
X2159Y89027D03*
X2159Y101727D03*
X2159Y114427D03*
X2159Y127127D03*
X2159Y63627D03*
X2159Y50927D03*
X2159Y38227D03*
X2159Y25527D03*
X162598Y76410D03*
X162598Y89110D03*
X162598Y101810D03*
X162598Y114510D03*
X162598Y127210D03*
X162598Y63710D03*
X162598Y51010D03*
X162598Y38310D03*
X162598Y25610D03*
D10*
X107839Y126469D02*
X107839Y129071D01*
X111041Y129071D01*
X111041Y126469D01*
X107839Y126469D01*
X111041Y135069D02*
X111041Y137671D01*
X111041Y135069D02*
X107839Y135069D01*
X107839Y137671D01*
X111041Y137671D01*
X120981Y130061D02*
X120981Y127459D01*
X117779Y127459D01*
X117779Y130061D01*
X120981Y130061D01*
X117779Y121461D02*
X117779Y118859D01*
X117779Y121461D02*
X120981Y121461D01*
X120981Y118859D01*
X117779Y118859D01*
X146989Y103681D02*
X146989Y101079D01*
X146989Y103681D02*
X150191Y103681D01*
X150191Y101079D01*
X146989Y101079D01*
X150191Y109679D02*
X150191Y112281D01*
X150191Y109679D02*
X146989Y109679D01*
X146989Y112281D01*
X150191Y112281D01*
X150309Y127293D02*
X150309Y129895D01*
X150309Y127293D02*
X147107Y127293D01*
X147107Y129895D01*
X150309Y129895D01*
X147107Y121295D02*
X147107Y118693D01*
X147107Y121295D02*
X150309Y121295D01*
X150309Y118693D01*
X147107Y118693D01*
D14*
X138570Y71084D03*
X138570Y85584D03*
X127070Y85584D03*
X127070Y71084D03*
M02*
