G04 EAGLE Gerber RS-274X export*
G75*
%MOMM*%
%FSLAX34Y34*%
%LPD*%
%INSoldermask Top*%
%IPPOS*%
%AMOC8*
5,1,8,0,0,1.08239X$1,22.5*%
G01*
%ADD10C,0.406869*%
%ADD11C,0.631119*%
%ADD12C,0.400200*%
%ADD13C,1.143000*%
%ADD14R,1.077000X0.977000*%

G36*
X98160Y68481D02*
X98160Y68481D01*
X98211Y68483D01*
X98243Y68501D01*
X98279Y68509D01*
X98318Y68542D01*
X98363Y68566D01*
X98384Y68596D01*
X98412Y68619D01*
X98433Y68666D01*
X98463Y68708D01*
X98471Y68750D01*
X98483Y68778D01*
X98482Y68808D01*
X98490Y68850D01*
X98490Y71390D01*
X98479Y71440D01*
X98477Y71491D01*
X98459Y71523D01*
X98451Y71559D01*
X98418Y71598D01*
X98394Y71643D01*
X98364Y71664D01*
X98341Y71692D01*
X98294Y71713D01*
X98252Y71743D01*
X98210Y71751D01*
X98182Y71763D01*
X98152Y71762D01*
X98110Y71770D01*
X95950Y71770D01*
X95950Y86250D01*
X98110Y86250D01*
X98160Y86261D01*
X98211Y86263D01*
X98243Y86281D01*
X98279Y86289D01*
X98318Y86322D01*
X98363Y86346D01*
X98384Y86376D01*
X98412Y86399D01*
X98433Y86446D01*
X98463Y86488D01*
X98471Y86530D01*
X98483Y86558D01*
X98482Y86588D01*
X98490Y86630D01*
X98490Y114570D01*
X98479Y114620D01*
X98477Y114671D01*
X98459Y114703D01*
X98451Y114739D01*
X98418Y114778D01*
X98394Y114823D01*
X98364Y114844D01*
X98341Y114872D01*
X98294Y114893D01*
X98252Y114923D01*
X98210Y114931D01*
X98182Y114943D01*
X98152Y114942D01*
X98110Y114950D01*
X52390Y114950D01*
X52340Y114939D01*
X52289Y114937D01*
X52257Y114919D01*
X52221Y114911D01*
X52182Y114878D01*
X52137Y114854D01*
X52116Y114824D01*
X52088Y114801D01*
X52067Y114754D01*
X52037Y114712D01*
X52029Y114670D01*
X52017Y114642D01*
X52018Y114612D01*
X52010Y114570D01*
X52010Y68850D01*
X52021Y68800D01*
X52023Y68749D01*
X52041Y68717D01*
X52049Y68681D01*
X52082Y68642D01*
X52106Y68597D01*
X52136Y68576D01*
X52159Y68548D01*
X52206Y68527D01*
X52248Y68497D01*
X52290Y68489D01*
X52318Y68477D01*
X52348Y68478D01*
X52390Y68470D01*
X98110Y68470D01*
X98160Y68481D01*
G37*
G36*
X72009Y56953D02*
X72009Y56953D01*
X73500Y56953D01*
X73536Y56960D01*
X73579Y56959D01*
X73811Y56996D01*
X73862Y57015D01*
X73962Y57045D01*
X74171Y57151D01*
X74213Y57185D01*
X74300Y57245D01*
X74465Y57410D01*
X74495Y57455D01*
X74559Y57539D01*
X74665Y57748D01*
X74670Y57764D01*
X74676Y57773D01*
X74681Y57804D01*
X74714Y57899D01*
X74751Y58131D01*
X74749Y58167D01*
X74757Y58210D01*
X74757Y64210D01*
X74751Y64243D01*
X74752Y64282D01*
X74691Y64705D01*
X74672Y64758D01*
X74651Y64843D01*
X74473Y65232D01*
X74440Y65277D01*
X74395Y65353D01*
X74116Y65676D01*
X74071Y65710D01*
X74007Y65770D01*
X73647Y66001D01*
X73596Y66021D01*
X73559Y66044D01*
X73545Y66047D01*
X73516Y66061D01*
X73106Y66181D01*
X73050Y66186D01*
X72963Y66202D01*
X72537Y66202D01*
X72482Y66191D01*
X72394Y66181D01*
X71984Y66061D01*
X71947Y66042D01*
X71922Y66037D01*
X71896Y66019D01*
X71853Y66001D01*
X71493Y65770D01*
X71453Y65731D01*
X71384Y65676D01*
X71105Y65353D01*
X71077Y65304D01*
X71027Y65232D01*
X70849Y64843D01*
X70837Y64789D01*
X70809Y64705D01*
X70748Y64282D01*
X70750Y64249D01*
X70743Y64210D01*
X70743Y58219D01*
X70736Y58019D01*
X70744Y57971D01*
X70758Y57855D01*
X70818Y57656D01*
X70841Y57613D01*
X70891Y57508D01*
X71012Y57339D01*
X71048Y57306D01*
X71129Y57222D01*
X71298Y57101D01*
X71343Y57081D01*
X71446Y57028D01*
X71645Y56968D01*
X71694Y56963D01*
X71809Y56946D01*
X72009Y56953D01*
G37*
G36*
X97009Y56953D02*
X97009Y56953D01*
X98500Y56953D01*
X98536Y56960D01*
X98579Y56959D01*
X98811Y56996D01*
X98862Y57015D01*
X98962Y57045D01*
X99171Y57151D01*
X99213Y57185D01*
X99300Y57245D01*
X99465Y57410D01*
X99495Y57455D01*
X99559Y57539D01*
X99665Y57748D01*
X99670Y57764D01*
X99676Y57773D01*
X99681Y57804D01*
X99714Y57899D01*
X99751Y58131D01*
X99749Y58167D01*
X99757Y58210D01*
X99757Y64210D01*
X99751Y64243D01*
X99752Y64282D01*
X99691Y64705D01*
X99672Y64758D01*
X99651Y64843D01*
X99473Y65232D01*
X99440Y65277D01*
X99395Y65353D01*
X99116Y65676D01*
X99071Y65710D01*
X99007Y65770D01*
X98647Y66001D01*
X98596Y66021D01*
X98559Y66044D01*
X98545Y66047D01*
X98516Y66061D01*
X98106Y66181D01*
X98050Y66186D01*
X97963Y66202D01*
X97537Y66202D01*
X97482Y66191D01*
X97394Y66181D01*
X96984Y66061D01*
X96947Y66042D01*
X96922Y66037D01*
X96896Y66019D01*
X96853Y66001D01*
X96493Y65770D01*
X96453Y65731D01*
X96384Y65676D01*
X96105Y65353D01*
X96077Y65304D01*
X96027Y65232D01*
X95849Y64843D01*
X95837Y64789D01*
X95809Y64705D01*
X95748Y64282D01*
X95750Y64249D01*
X95743Y64210D01*
X95743Y58219D01*
X95736Y58019D01*
X95744Y57971D01*
X95758Y57855D01*
X95818Y57656D01*
X95841Y57613D01*
X95891Y57508D01*
X96012Y57339D01*
X96048Y57306D01*
X96129Y57222D01*
X96298Y57101D01*
X96343Y57081D01*
X96446Y57028D01*
X96645Y56968D01*
X96694Y56963D01*
X96809Y56946D01*
X97009Y56953D01*
G37*
G36*
X92009Y56953D02*
X92009Y56953D01*
X93500Y56953D01*
X93536Y56960D01*
X93579Y56959D01*
X93811Y56996D01*
X93862Y57015D01*
X93962Y57045D01*
X94171Y57151D01*
X94213Y57185D01*
X94300Y57245D01*
X94465Y57410D01*
X94495Y57455D01*
X94559Y57539D01*
X94665Y57748D01*
X94670Y57764D01*
X94676Y57773D01*
X94681Y57804D01*
X94714Y57899D01*
X94751Y58131D01*
X94749Y58167D01*
X94757Y58210D01*
X94757Y64210D01*
X94751Y64243D01*
X94752Y64282D01*
X94691Y64705D01*
X94672Y64758D01*
X94651Y64843D01*
X94473Y65232D01*
X94440Y65277D01*
X94395Y65353D01*
X94116Y65676D01*
X94071Y65710D01*
X94007Y65770D01*
X93647Y66001D01*
X93596Y66021D01*
X93559Y66044D01*
X93545Y66047D01*
X93516Y66061D01*
X93106Y66181D01*
X93050Y66186D01*
X92963Y66202D01*
X92537Y66202D01*
X92482Y66191D01*
X92394Y66181D01*
X91984Y66061D01*
X91947Y66042D01*
X91922Y66037D01*
X91896Y66019D01*
X91853Y66001D01*
X91493Y65770D01*
X91453Y65731D01*
X91384Y65676D01*
X91105Y65353D01*
X91077Y65304D01*
X91027Y65232D01*
X90849Y64843D01*
X90837Y64789D01*
X90809Y64705D01*
X90748Y64282D01*
X90750Y64249D01*
X90743Y64210D01*
X90743Y58219D01*
X90736Y58019D01*
X90744Y57971D01*
X90758Y57855D01*
X90818Y57656D01*
X90841Y57613D01*
X90891Y57508D01*
X91012Y57339D01*
X91048Y57306D01*
X91129Y57222D01*
X91298Y57101D01*
X91343Y57081D01*
X91446Y57028D01*
X91645Y56968D01*
X91694Y56963D01*
X91809Y56946D01*
X92009Y56953D01*
G37*
G36*
X52009Y56953D02*
X52009Y56953D01*
X53500Y56953D01*
X53536Y56960D01*
X53579Y56959D01*
X53811Y56996D01*
X53862Y57015D01*
X53962Y57045D01*
X54171Y57151D01*
X54213Y57185D01*
X54300Y57245D01*
X54465Y57410D01*
X54495Y57455D01*
X54559Y57539D01*
X54665Y57748D01*
X54670Y57764D01*
X54676Y57773D01*
X54681Y57804D01*
X54714Y57899D01*
X54751Y58131D01*
X54749Y58167D01*
X54757Y58210D01*
X54757Y64210D01*
X54751Y64243D01*
X54752Y64282D01*
X54691Y64705D01*
X54672Y64758D01*
X54651Y64843D01*
X54473Y65232D01*
X54440Y65277D01*
X54395Y65353D01*
X54116Y65676D01*
X54071Y65710D01*
X54007Y65770D01*
X53647Y66001D01*
X53596Y66021D01*
X53559Y66044D01*
X53545Y66047D01*
X53516Y66061D01*
X53106Y66181D01*
X53050Y66186D01*
X52963Y66202D01*
X52537Y66202D01*
X52482Y66191D01*
X52394Y66181D01*
X51984Y66061D01*
X51947Y66042D01*
X51922Y66037D01*
X51896Y66019D01*
X51853Y66001D01*
X51493Y65770D01*
X51453Y65731D01*
X51384Y65676D01*
X51105Y65353D01*
X51077Y65304D01*
X51027Y65232D01*
X50849Y64843D01*
X50837Y64789D01*
X50809Y64705D01*
X50748Y64282D01*
X50750Y64249D01*
X50743Y64210D01*
X50743Y58219D01*
X50736Y58019D01*
X50744Y57971D01*
X50758Y57855D01*
X50818Y57656D01*
X50841Y57613D01*
X50891Y57508D01*
X51012Y57339D01*
X51048Y57306D01*
X51129Y57222D01*
X51298Y57101D01*
X51343Y57081D01*
X51446Y57028D01*
X51645Y56968D01*
X51694Y56963D01*
X51809Y56946D01*
X52009Y56953D01*
G37*
G36*
X87009Y56953D02*
X87009Y56953D01*
X88500Y56953D01*
X88536Y56960D01*
X88579Y56959D01*
X88811Y56996D01*
X88862Y57015D01*
X88962Y57045D01*
X89171Y57151D01*
X89213Y57185D01*
X89300Y57245D01*
X89465Y57410D01*
X89495Y57455D01*
X89559Y57539D01*
X89665Y57748D01*
X89670Y57764D01*
X89676Y57773D01*
X89681Y57804D01*
X89714Y57899D01*
X89751Y58131D01*
X89749Y58167D01*
X89757Y58210D01*
X89757Y64210D01*
X89751Y64243D01*
X89752Y64282D01*
X89691Y64705D01*
X89672Y64758D01*
X89651Y64843D01*
X89473Y65232D01*
X89440Y65277D01*
X89395Y65353D01*
X89116Y65676D01*
X89071Y65710D01*
X89007Y65770D01*
X88647Y66001D01*
X88596Y66021D01*
X88559Y66044D01*
X88545Y66047D01*
X88516Y66061D01*
X88106Y66181D01*
X88050Y66186D01*
X87963Y66202D01*
X87537Y66202D01*
X87482Y66191D01*
X87394Y66181D01*
X86984Y66061D01*
X86947Y66042D01*
X86922Y66037D01*
X86896Y66019D01*
X86853Y66001D01*
X86493Y65770D01*
X86453Y65731D01*
X86384Y65676D01*
X86105Y65353D01*
X86077Y65304D01*
X86027Y65232D01*
X85849Y64843D01*
X85837Y64789D01*
X85809Y64705D01*
X85748Y64282D01*
X85750Y64249D01*
X85743Y64210D01*
X85743Y58219D01*
X85736Y58019D01*
X85744Y57971D01*
X85758Y57855D01*
X85818Y57656D01*
X85841Y57613D01*
X85891Y57508D01*
X86012Y57339D01*
X86048Y57306D01*
X86129Y57222D01*
X86298Y57101D01*
X86343Y57081D01*
X86446Y57028D01*
X86645Y56968D01*
X86694Y56963D01*
X86809Y56946D01*
X87009Y56953D01*
G37*
G36*
X67009Y56953D02*
X67009Y56953D01*
X68500Y56953D01*
X68536Y56960D01*
X68579Y56959D01*
X68811Y56996D01*
X68862Y57015D01*
X68962Y57045D01*
X69171Y57151D01*
X69213Y57185D01*
X69300Y57245D01*
X69465Y57410D01*
X69495Y57455D01*
X69559Y57539D01*
X69665Y57748D01*
X69670Y57764D01*
X69676Y57773D01*
X69681Y57804D01*
X69714Y57899D01*
X69751Y58131D01*
X69749Y58167D01*
X69757Y58210D01*
X69757Y64210D01*
X69751Y64243D01*
X69752Y64282D01*
X69691Y64705D01*
X69672Y64758D01*
X69651Y64843D01*
X69473Y65232D01*
X69440Y65277D01*
X69395Y65353D01*
X69116Y65676D01*
X69071Y65710D01*
X69007Y65770D01*
X68647Y66001D01*
X68596Y66021D01*
X68559Y66044D01*
X68545Y66047D01*
X68516Y66061D01*
X68106Y66181D01*
X68050Y66186D01*
X67963Y66202D01*
X67537Y66202D01*
X67482Y66191D01*
X67394Y66181D01*
X66984Y66061D01*
X66947Y66042D01*
X66922Y66037D01*
X66896Y66019D01*
X66853Y66001D01*
X66493Y65770D01*
X66453Y65731D01*
X66384Y65676D01*
X66105Y65353D01*
X66077Y65304D01*
X66027Y65232D01*
X65849Y64843D01*
X65837Y64789D01*
X65809Y64705D01*
X65748Y64282D01*
X65750Y64249D01*
X65743Y64210D01*
X65743Y58219D01*
X65736Y58019D01*
X65744Y57971D01*
X65758Y57855D01*
X65818Y57656D01*
X65841Y57613D01*
X65891Y57508D01*
X66012Y57339D01*
X66048Y57306D01*
X66129Y57222D01*
X66298Y57101D01*
X66343Y57081D01*
X66446Y57028D01*
X66645Y56968D01*
X66694Y56963D01*
X66809Y56946D01*
X67009Y56953D01*
G37*
G36*
X62009Y56953D02*
X62009Y56953D01*
X63500Y56953D01*
X63536Y56960D01*
X63579Y56959D01*
X63811Y56996D01*
X63862Y57015D01*
X63962Y57045D01*
X64171Y57151D01*
X64213Y57185D01*
X64300Y57245D01*
X64465Y57410D01*
X64495Y57455D01*
X64559Y57539D01*
X64665Y57748D01*
X64670Y57764D01*
X64676Y57773D01*
X64681Y57804D01*
X64714Y57899D01*
X64751Y58131D01*
X64749Y58167D01*
X64757Y58210D01*
X64757Y64210D01*
X64751Y64243D01*
X64752Y64282D01*
X64691Y64705D01*
X64672Y64758D01*
X64651Y64843D01*
X64473Y65232D01*
X64440Y65277D01*
X64395Y65353D01*
X64116Y65676D01*
X64071Y65710D01*
X64007Y65770D01*
X63647Y66001D01*
X63596Y66021D01*
X63559Y66044D01*
X63545Y66047D01*
X63516Y66061D01*
X63106Y66181D01*
X63050Y66186D01*
X62963Y66202D01*
X62537Y66202D01*
X62482Y66191D01*
X62394Y66181D01*
X61984Y66061D01*
X61947Y66042D01*
X61922Y66037D01*
X61896Y66019D01*
X61853Y66001D01*
X61493Y65770D01*
X61453Y65731D01*
X61384Y65676D01*
X61105Y65353D01*
X61077Y65304D01*
X61027Y65232D01*
X60849Y64843D01*
X60837Y64789D01*
X60809Y64705D01*
X60748Y64282D01*
X60750Y64249D01*
X60743Y64210D01*
X60743Y58219D01*
X60736Y58019D01*
X60744Y57971D01*
X60758Y57855D01*
X60818Y57656D01*
X60841Y57613D01*
X60891Y57508D01*
X61012Y57339D01*
X61048Y57306D01*
X61129Y57222D01*
X61298Y57101D01*
X61343Y57081D01*
X61446Y57028D01*
X61645Y56968D01*
X61694Y56963D01*
X61809Y56946D01*
X62009Y56953D01*
G37*
G36*
X57009Y56953D02*
X57009Y56953D01*
X58500Y56953D01*
X58536Y56960D01*
X58579Y56959D01*
X58811Y56996D01*
X58862Y57015D01*
X58962Y57045D01*
X59171Y57151D01*
X59213Y57185D01*
X59300Y57245D01*
X59465Y57410D01*
X59495Y57455D01*
X59559Y57539D01*
X59665Y57748D01*
X59670Y57764D01*
X59676Y57773D01*
X59681Y57804D01*
X59714Y57899D01*
X59751Y58131D01*
X59749Y58167D01*
X59757Y58210D01*
X59757Y64210D01*
X59751Y64243D01*
X59752Y64282D01*
X59691Y64705D01*
X59672Y64758D01*
X59651Y64843D01*
X59473Y65232D01*
X59440Y65277D01*
X59395Y65353D01*
X59116Y65676D01*
X59071Y65710D01*
X59007Y65770D01*
X58647Y66001D01*
X58596Y66021D01*
X58559Y66044D01*
X58545Y66047D01*
X58516Y66061D01*
X58106Y66181D01*
X58050Y66186D01*
X57963Y66202D01*
X57537Y66202D01*
X57482Y66191D01*
X57394Y66181D01*
X56984Y66061D01*
X56947Y66042D01*
X56922Y66037D01*
X56896Y66019D01*
X56853Y66001D01*
X56493Y65770D01*
X56453Y65731D01*
X56384Y65676D01*
X56105Y65353D01*
X56077Y65304D01*
X56027Y65232D01*
X55849Y64843D01*
X55837Y64789D01*
X55809Y64705D01*
X55748Y64282D01*
X55750Y64249D01*
X55743Y64210D01*
X55743Y58219D01*
X55736Y58019D01*
X55744Y57971D01*
X55758Y57855D01*
X55818Y57656D01*
X55841Y57613D01*
X55891Y57508D01*
X56012Y57339D01*
X56048Y57306D01*
X56129Y57222D01*
X56298Y57101D01*
X56343Y57081D01*
X56446Y57028D01*
X56645Y56968D01*
X56694Y56963D01*
X56809Y56946D01*
X57009Y56953D01*
G37*
G36*
X82009Y56953D02*
X82009Y56953D01*
X83500Y56953D01*
X83536Y56960D01*
X83579Y56959D01*
X83811Y56996D01*
X83862Y57015D01*
X83962Y57045D01*
X84171Y57151D01*
X84213Y57185D01*
X84300Y57245D01*
X84465Y57410D01*
X84495Y57455D01*
X84559Y57539D01*
X84665Y57748D01*
X84670Y57764D01*
X84676Y57773D01*
X84681Y57804D01*
X84714Y57899D01*
X84751Y58131D01*
X84749Y58167D01*
X84757Y58210D01*
X84757Y64210D01*
X84751Y64243D01*
X84752Y64282D01*
X84691Y64705D01*
X84672Y64758D01*
X84651Y64843D01*
X84473Y65232D01*
X84440Y65277D01*
X84395Y65353D01*
X84116Y65676D01*
X84071Y65710D01*
X84007Y65770D01*
X83647Y66001D01*
X83596Y66021D01*
X83559Y66044D01*
X83545Y66047D01*
X83516Y66061D01*
X83106Y66181D01*
X83050Y66186D01*
X82963Y66202D01*
X82537Y66202D01*
X82482Y66191D01*
X82394Y66181D01*
X81984Y66061D01*
X81947Y66042D01*
X81922Y66037D01*
X81896Y66019D01*
X81853Y66001D01*
X81493Y65770D01*
X81453Y65731D01*
X81384Y65676D01*
X81105Y65353D01*
X81077Y65304D01*
X81027Y65232D01*
X80849Y64843D01*
X80837Y64789D01*
X80809Y64705D01*
X80748Y64282D01*
X80750Y64249D01*
X80743Y64210D01*
X80743Y58219D01*
X80736Y58019D01*
X80744Y57971D01*
X80758Y57855D01*
X80818Y57656D01*
X80841Y57613D01*
X80891Y57508D01*
X81012Y57339D01*
X81048Y57306D01*
X81129Y57222D01*
X81298Y57101D01*
X81343Y57081D01*
X81446Y57028D01*
X81645Y56968D01*
X81694Y56963D01*
X81809Y56946D01*
X82009Y56953D01*
G37*
G36*
X77009Y56953D02*
X77009Y56953D01*
X78500Y56953D01*
X78536Y56960D01*
X78579Y56959D01*
X78811Y56996D01*
X78862Y57015D01*
X78962Y57045D01*
X79171Y57151D01*
X79213Y57185D01*
X79300Y57245D01*
X79465Y57410D01*
X79495Y57455D01*
X79559Y57539D01*
X79665Y57748D01*
X79670Y57764D01*
X79676Y57773D01*
X79681Y57804D01*
X79714Y57899D01*
X79751Y58131D01*
X79749Y58167D01*
X79757Y58210D01*
X79757Y64210D01*
X79751Y64243D01*
X79752Y64282D01*
X79691Y64705D01*
X79672Y64758D01*
X79651Y64843D01*
X79473Y65232D01*
X79440Y65277D01*
X79395Y65353D01*
X79116Y65676D01*
X79071Y65710D01*
X79007Y65770D01*
X78647Y66001D01*
X78596Y66021D01*
X78559Y66044D01*
X78545Y66047D01*
X78516Y66061D01*
X78106Y66181D01*
X78050Y66186D01*
X77963Y66202D01*
X77537Y66202D01*
X77482Y66191D01*
X77394Y66181D01*
X76984Y66061D01*
X76947Y66042D01*
X76922Y66037D01*
X76896Y66019D01*
X76853Y66001D01*
X76493Y65770D01*
X76453Y65731D01*
X76384Y65676D01*
X76105Y65353D01*
X76077Y65304D01*
X76027Y65232D01*
X75849Y64843D01*
X75837Y64789D01*
X75809Y64705D01*
X75748Y64282D01*
X75750Y64249D01*
X75743Y64210D01*
X75743Y58219D01*
X75736Y58019D01*
X75744Y57971D01*
X75758Y57855D01*
X75818Y57656D01*
X75841Y57613D01*
X75891Y57508D01*
X76012Y57339D01*
X76048Y57306D01*
X76129Y57222D01*
X76298Y57101D01*
X76343Y57081D01*
X76446Y57028D01*
X76645Y56968D01*
X76694Y56963D01*
X76809Y56946D01*
X77009Y56953D01*
G37*
G36*
X47783Y107209D02*
X47783Y107209D01*
X47822Y107208D01*
X48245Y107269D01*
X48298Y107288D01*
X48383Y107309D01*
X48772Y107487D01*
X48817Y107520D01*
X48893Y107565D01*
X49216Y107844D01*
X49225Y107856D01*
X49234Y107862D01*
X49253Y107892D01*
X49310Y107953D01*
X49541Y108313D01*
X49562Y108365D01*
X49601Y108444D01*
X49721Y108854D01*
X49726Y108910D01*
X49742Y108997D01*
X49742Y109423D01*
X49731Y109479D01*
X49721Y109566D01*
X49601Y109976D01*
X49575Y110026D01*
X49541Y110107D01*
X49310Y110467D01*
X49271Y110507D01*
X49216Y110576D01*
X48893Y110855D01*
X48844Y110883D01*
X48772Y110933D01*
X48383Y111111D01*
X48329Y111123D01*
X48245Y111151D01*
X47822Y111212D01*
X47789Y111210D01*
X47750Y111217D01*
X41759Y111217D01*
X41559Y111224D01*
X41511Y111216D01*
X41395Y111202D01*
X41196Y111142D01*
X41153Y111119D01*
X41048Y111069D01*
X40879Y110948D01*
X40846Y110912D01*
X40762Y110831D01*
X40641Y110662D01*
X40621Y110617D01*
X40568Y110514D01*
X40508Y110315D01*
X40503Y110266D01*
X40486Y110151D01*
X40493Y109951D01*
X40493Y108460D01*
X40500Y108424D01*
X40499Y108381D01*
X40536Y108149D01*
X40555Y108098D01*
X40573Y108036D01*
X40579Y108011D01*
X40582Y108006D01*
X40585Y107998D01*
X40691Y107789D01*
X40725Y107747D01*
X40785Y107660D01*
X40950Y107495D01*
X40995Y107465D01*
X41079Y107401D01*
X41288Y107295D01*
X41340Y107280D01*
X41439Y107246D01*
X41671Y107209D01*
X41707Y107211D01*
X41750Y107203D01*
X47750Y107203D01*
X47783Y107209D01*
G37*
G36*
X47783Y97209D02*
X47783Y97209D01*
X47822Y97208D01*
X48245Y97269D01*
X48298Y97288D01*
X48383Y97309D01*
X48772Y97487D01*
X48817Y97520D01*
X48893Y97565D01*
X49216Y97844D01*
X49225Y97856D01*
X49234Y97862D01*
X49253Y97892D01*
X49310Y97953D01*
X49541Y98313D01*
X49562Y98365D01*
X49601Y98444D01*
X49721Y98854D01*
X49726Y98910D01*
X49742Y98997D01*
X49742Y99423D01*
X49731Y99479D01*
X49721Y99566D01*
X49601Y99976D01*
X49575Y100026D01*
X49541Y100107D01*
X49310Y100467D01*
X49271Y100507D01*
X49216Y100576D01*
X48893Y100855D01*
X48844Y100883D01*
X48772Y100933D01*
X48383Y101111D01*
X48329Y101123D01*
X48245Y101151D01*
X47822Y101212D01*
X47789Y101210D01*
X47750Y101217D01*
X41759Y101217D01*
X41559Y101224D01*
X41511Y101216D01*
X41395Y101202D01*
X41196Y101142D01*
X41153Y101119D01*
X41048Y101069D01*
X40879Y100948D01*
X40846Y100912D01*
X40762Y100831D01*
X40641Y100662D01*
X40621Y100617D01*
X40568Y100514D01*
X40508Y100315D01*
X40503Y100266D01*
X40486Y100151D01*
X40493Y99951D01*
X40493Y98460D01*
X40500Y98424D01*
X40499Y98381D01*
X40536Y98149D01*
X40555Y98098D01*
X40573Y98036D01*
X40579Y98011D01*
X40582Y98006D01*
X40585Y97998D01*
X40691Y97789D01*
X40725Y97747D01*
X40785Y97660D01*
X40950Y97495D01*
X40995Y97465D01*
X41079Y97401D01*
X41288Y97295D01*
X41340Y97280D01*
X41439Y97246D01*
X41671Y97209D01*
X41707Y97211D01*
X41750Y97203D01*
X47750Y97203D01*
X47783Y97209D01*
G37*
G36*
X47783Y102209D02*
X47783Y102209D01*
X47822Y102208D01*
X48245Y102269D01*
X48298Y102288D01*
X48383Y102309D01*
X48772Y102487D01*
X48817Y102520D01*
X48893Y102565D01*
X49216Y102844D01*
X49225Y102856D01*
X49234Y102862D01*
X49253Y102892D01*
X49310Y102953D01*
X49541Y103313D01*
X49562Y103365D01*
X49601Y103444D01*
X49721Y103854D01*
X49726Y103910D01*
X49742Y103997D01*
X49742Y104423D01*
X49731Y104479D01*
X49721Y104566D01*
X49601Y104976D01*
X49575Y105026D01*
X49541Y105107D01*
X49310Y105467D01*
X49271Y105507D01*
X49216Y105576D01*
X48893Y105855D01*
X48844Y105883D01*
X48772Y105933D01*
X48383Y106111D01*
X48329Y106123D01*
X48245Y106151D01*
X47822Y106212D01*
X47789Y106210D01*
X47750Y106217D01*
X41759Y106217D01*
X41559Y106224D01*
X41511Y106216D01*
X41395Y106202D01*
X41196Y106142D01*
X41153Y106119D01*
X41048Y106069D01*
X40879Y105948D01*
X40846Y105912D01*
X40762Y105831D01*
X40641Y105662D01*
X40621Y105617D01*
X40568Y105514D01*
X40508Y105315D01*
X40503Y105266D01*
X40486Y105151D01*
X40493Y104951D01*
X40493Y103460D01*
X40500Y103424D01*
X40499Y103381D01*
X40536Y103149D01*
X40555Y103098D01*
X40573Y103036D01*
X40579Y103011D01*
X40582Y103006D01*
X40585Y102998D01*
X40691Y102789D01*
X40725Y102747D01*
X40785Y102660D01*
X40950Y102495D01*
X40995Y102465D01*
X41079Y102401D01*
X41288Y102295D01*
X41340Y102280D01*
X41439Y102246D01*
X41671Y102209D01*
X41707Y102211D01*
X41750Y102203D01*
X47750Y102203D01*
X47783Y102209D01*
G37*
G36*
X47783Y112209D02*
X47783Y112209D01*
X47822Y112208D01*
X48245Y112269D01*
X48298Y112288D01*
X48383Y112309D01*
X48772Y112487D01*
X48817Y112520D01*
X48893Y112565D01*
X49216Y112844D01*
X49225Y112856D01*
X49234Y112862D01*
X49253Y112892D01*
X49310Y112953D01*
X49541Y113313D01*
X49562Y113365D01*
X49601Y113444D01*
X49721Y113854D01*
X49726Y113910D01*
X49742Y113997D01*
X49742Y114423D01*
X49731Y114479D01*
X49721Y114566D01*
X49601Y114976D01*
X49575Y115026D01*
X49541Y115107D01*
X49310Y115467D01*
X49271Y115507D01*
X49216Y115576D01*
X48893Y115855D01*
X48844Y115883D01*
X48772Y115933D01*
X48383Y116111D01*
X48329Y116123D01*
X48245Y116151D01*
X47822Y116212D01*
X47789Y116210D01*
X47750Y116217D01*
X41759Y116217D01*
X41559Y116224D01*
X41511Y116216D01*
X41395Y116202D01*
X41196Y116142D01*
X41153Y116119D01*
X41048Y116069D01*
X40879Y115948D01*
X40846Y115912D01*
X40762Y115831D01*
X40641Y115662D01*
X40621Y115617D01*
X40568Y115514D01*
X40508Y115315D01*
X40503Y115266D01*
X40486Y115151D01*
X40493Y114951D01*
X40493Y113460D01*
X40500Y113424D01*
X40499Y113381D01*
X40536Y113149D01*
X40555Y113098D01*
X40573Y113036D01*
X40579Y113011D01*
X40582Y113006D01*
X40585Y112998D01*
X40691Y112789D01*
X40725Y112747D01*
X40785Y112660D01*
X40950Y112495D01*
X40995Y112465D01*
X41079Y112401D01*
X41288Y112295D01*
X41340Y112280D01*
X41439Y112246D01*
X41671Y112209D01*
X41707Y112211D01*
X41750Y112203D01*
X47750Y112203D01*
X47783Y112209D01*
G37*
G36*
X47783Y92209D02*
X47783Y92209D01*
X47822Y92208D01*
X48245Y92269D01*
X48298Y92288D01*
X48383Y92309D01*
X48772Y92487D01*
X48817Y92520D01*
X48893Y92565D01*
X49216Y92844D01*
X49225Y92856D01*
X49234Y92862D01*
X49253Y92892D01*
X49310Y92953D01*
X49541Y93313D01*
X49562Y93365D01*
X49601Y93444D01*
X49721Y93854D01*
X49726Y93910D01*
X49742Y93997D01*
X49742Y94423D01*
X49731Y94479D01*
X49721Y94566D01*
X49601Y94976D01*
X49575Y95026D01*
X49541Y95107D01*
X49310Y95467D01*
X49271Y95507D01*
X49216Y95576D01*
X48893Y95855D01*
X48844Y95883D01*
X48772Y95933D01*
X48383Y96111D01*
X48329Y96123D01*
X48245Y96151D01*
X47822Y96212D01*
X47789Y96210D01*
X47750Y96217D01*
X41759Y96217D01*
X41559Y96224D01*
X41511Y96216D01*
X41395Y96202D01*
X41196Y96142D01*
X41153Y96119D01*
X41048Y96069D01*
X40879Y95948D01*
X40846Y95912D01*
X40762Y95831D01*
X40641Y95662D01*
X40621Y95617D01*
X40568Y95514D01*
X40508Y95315D01*
X40503Y95266D01*
X40486Y95151D01*
X40493Y94951D01*
X40493Y93460D01*
X40500Y93424D01*
X40499Y93381D01*
X40536Y93149D01*
X40555Y93098D01*
X40573Y93036D01*
X40579Y93011D01*
X40582Y93006D01*
X40585Y92998D01*
X40691Y92789D01*
X40725Y92747D01*
X40785Y92660D01*
X40950Y92495D01*
X40995Y92465D01*
X41079Y92401D01*
X41288Y92295D01*
X41340Y92280D01*
X41439Y92246D01*
X41671Y92209D01*
X41707Y92211D01*
X41750Y92203D01*
X47750Y92203D01*
X47783Y92209D01*
G37*
G36*
X47783Y87209D02*
X47783Y87209D01*
X47822Y87208D01*
X48245Y87269D01*
X48298Y87288D01*
X48383Y87309D01*
X48772Y87487D01*
X48817Y87520D01*
X48893Y87565D01*
X49216Y87844D01*
X49225Y87856D01*
X49234Y87862D01*
X49253Y87892D01*
X49310Y87953D01*
X49541Y88313D01*
X49562Y88365D01*
X49601Y88444D01*
X49721Y88854D01*
X49726Y88910D01*
X49742Y88997D01*
X49742Y89423D01*
X49731Y89479D01*
X49721Y89566D01*
X49601Y89976D01*
X49575Y90026D01*
X49541Y90107D01*
X49310Y90467D01*
X49271Y90507D01*
X49216Y90576D01*
X48893Y90855D01*
X48844Y90883D01*
X48772Y90933D01*
X48383Y91111D01*
X48329Y91123D01*
X48245Y91151D01*
X47822Y91212D01*
X47789Y91210D01*
X47750Y91217D01*
X41759Y91217D01*
X41559Y91224D01*
X41511Y91216D01*
X41395Y91202D01*
X41196Y91142D01*
X41153Y91119D01*
X41048Y91069D01*
X40879Y90948D01*
X40846Y90912D01*
X40762Y90831D01*
X40641Y90662D01*
X40621Y90617D01*
X40568Y90514D01*
X40508Y90315D01*
X40503Y90266D01*
X40486Y90151D01*
X40493Y89951D01*
X40493Y88460D01*
X40500Y88424D01*
X40499Y88381D01*
X40536Y88149D01*
X40555Y88098D01*
X40573Y88036D01*
X40579Y88011D01*
X40582Y88006D01*
X40585Y87998D01*
X40691Y87789D01*
X40725Y87747D01*
X40785Y87660D01*
X40950Y87495D01*
X40995Y87465D01*
X41079Y87401D01*
X41288Y87295D01*
X41340Y87280D01*
X41439Y87246D01*
X41671Y87209D01*
X41707Y87211D01*
X41750Y87203D01*
X47750Y87203D01*
X47783Y87209D01*
G37*
G36*
X47783Y82209D02*
X47783Y82209D01*
X47822Y82208D01*
X48245Y82269D01*
X48298Y82288D01*
X48383Y82309D01*
X48772Y82487D01*
X48817Y82520D01*
X48893Y82565D01*
X49216Y82844D01*
X49225Y82856D01*
X49234Y82862D01*
X49253Y82892D01*
X49310Y82953D01*
X49541Y83313D01*
X49562Y83365D01*
X49601Y83444D01*
X49721Y83854D01*
X49726Y83910D01*
X49742Y83997D01*
X49742Y84423D01*
X49731Y84479D01*
X49721Y84566D01*
X49601Y84976D01*
X49575Y85026D01*
X49541Y85107D01*
X49310Y85467D01*
X49271Y85507D01*
X49216Y85576D01*
X48893Y85855D01*
X48844Y85883D01*
X48772Y85933D01*
X48383Y86111D01*
X48329Y86123D01*
X48245Y86151D01*
X47822Y86212D01*
X47789Y86210D01*
X47750Y86217D01*
X41759Y86217D01*
X41559Y86224D01*
X41511Y86216D01*
X41395Y86202D01*
X41196Y86142D01*
X41153Y86119D01*
X41048Y86069D01*
X40879Y85948D01*
X40846Y85912D01*
X40762Y85831D01*
X40641Y85662D01*
X40621Y85617D01*
X40568Y85514D01*
X40508Y85315D01*
X40503Y85266D01*
X40486Y85151D01*
X40493Y84951D01*
X40493Y83460D01*
X40500Y83424D01*
X40499Y83381D01*
X40536Y83149D01*
X40555Y83098D01*
X40573Y83036D01*
X40579Y83011D01*
X40582Y83006D01*
X40585Y82998D01*
X40691Y82789D01*
X40725Y82747D01*
X40785Y82660D01*
X40950Y82495D01*
X40995Y82465D01*
X41079Y82401D01*
X41288Y82295D01*
X41340Y82280D01*
X41439Y82246D01*
X41671Y82209D01*
X41707Y82211D01*
X41750Y82203D01*
X47750Y82203D01*
X47783Y82209D01*
G37*
G36*
X47783Y77209D02*
X47783Y77209D01*
X47822Y77208D01*
X48245Y77269D01*
X48298Y77288D01*
X48383Y77309D01*
X48772Y77487D01*
X48817Y77520D01*
X48893Y77565D01*
X49216Y77844D01*
X49225Y77856D01*
X49234Y77862D01*
X49253Y77892D01*
X49310Y77953D01*
X49541Y78313D01*
X49562Y78365D01*
X49601Y78444D01*
X49721Y78854D01*
X49726Y78910D01*
X49742Y78997D01*
X49742Y79423D01*
X49731Y79479D01*
X49721Y79566D01*
X49601Y79976D01*
X49575Y80026D01*
X49541Y80107D01*
X49310Y80467D01*
X49271Y80507D01*
X49216Y80576D01*
X48893Y80855D01*
X48844Y80883D01*
X48772Y80933D01*
X48383Y81111D01*
X48329Y81123D01*
X48245Y81151D01*
X47822Y81212D01*
X47789Y81210D01*
X47750Y81217D01*
X41759Y81217D01*
X41559Y81224D01*
X41511Y81216D01*
X41395Y81202D01*
X41196Y81142D01*
X41153Y81119D01*
X41048Y81069D01*
X40879Y80948D01*
X40846Y80912D01*
X40762Y80831D01*
X40641Y80662D01*
X40621Y80617D01*
X40568Y80514D01*
X40508Y80315D01*
X40503Y80266D01*
X40486Y80151D01*
X40493Y79951D01*
X40493Y78460D01*
X40500Y78424D01*
X40499Y78381D01*
X40536Y78149D01*
X40555Y78098D01*
X40573Y78036D01*
X40579Y78011D01*
X40582Y78006D01*
X40585Y77998D01*
X40691Y77789D01*
X40725Y77747D01*
X40785Y77660D01*
X40950Y77495D01*
X40995Y77465D01*
X41079Y77401D01*
X41288Y77295D01*
X41340Y77280D01*
X41439Y77246D01*
X41671Y77209D01*
X41707Y77211D01*
X41750Y77203D01*
X47750Y77203D01*
X47783Y77209D01*
G37*
G36*
X47783Y72209D02*
X47783Y72209D01*
X47822Y72208D01*
X48245Y72269D01*
X48298Y72288D01*
X48383Y72309D01*
X48772Y72487D01*
X48817Y72520D01*
X48893Y72565D01*
X49216Y72844D01*
X49225Y72856D01*
X49234Y72862D01*
X49253Y72892D01*
X49310Y72953D01*
X49541Y73313D01*
X49562Y73365D01*
X49601Y73444D01*
X49721Y73854D01*
X49726Y73910D01*
X49742Y73997D01*
X49742Y74423D01*
X49731Y74479D01*
X49721Y74566D01*
X49601Y74976D01*
X49575Y75026D01*
X49541Y75107D01*
X49310Y75467D01*
X49271Y75507D01*
X49216Y75576D01*
X48893Y75855D01*
X48844Y75883D01*
X48772Y75933D01*
X48383Y76111D01*
X48329Y76123D01*
X48245Y76151D01*
X47822Y76212D01*
X47789Y76210D01*
X47750Y76217D01*
X41759Y76217D01*
X41559Y76224D01*
X41511Y76216D01*
X41395Y76202D01*
X41196Y76142D01*
X41153Y76119D01*
X41048Y76069D01*
X40879Y75948D01*
X40846Y75912D01*
X40762Y75831D01*
X40641Y75662D01*
X40621Y75617D01*
X40568Y75514D01*
X40508Y75315D01*
X40503Y75266D01*
X40486Y75151D01*
X40493Y74951D01*
X40493Y73460D01*
X40500Y73424D01*
X40499Y73381D01*
X40536Y73149D01*
X40555Y73098D01*
X40573Y73036D01*
X40579Y73011D01*
X40582Y73006D01*
X40585Y72998D01*
X40691Y72789D01*
X40725Y72747D01*
X40785Y72660D01*
X40950Y72495D01*
X40995Y72465D01*
X41079Y72401D01*
X41288Y72295D01*
X41340Y72280D01*
X41439Y72246D01*
X41671Y72209D01*
X41707Y72211D01*
X41750Y72203D01*
X47750Y72203D01*
X47783Y72209D01*
G37*
G36*
X47783Y67209D02*
X47783Y67209D01*
X47822Y67208D01*
X48245Y67269D01*
X48298Y67288D01*
X48383Y67309D01*
X48772Y67487D01*
X48817Y67520D01*
X48893Y67565D01*
X49216Y67844D01*
X49225Y67856D01*
X49234Y67862D01*
X49253Y67892D01*
X49310Y67953D01*
X49541Y68313D01*
X49562Y68365D01*
X49601Y68444D01*
X49721Y68854D01*
X49726Y68910D01*
X49742Y68997D01*
X49742Y69423D01*
X49731Y69479D01*
X49721Y69566D01*
X49601Y69976D01*
X49575Y70026D01*
X49541Y70107D01*
X49310Y70467D01*
X49271Y70507D01*
X49216Y70576D01*
X48893Y70855D01*
X48844Y70883D01*
X48772Y70933D01*
X48383Y71111D01*
X48329Y71123D01*
X48245Y71151D01*
X47822Y71212D01*
X47789Y71210D01*
X47750Y71217D01*
X41759Y71217D01*
X41559Y71224D01*
X41511Y71216D01*
X41395Y71202D01*
X41196Y71142D01*
X41153Y71119D01*
X41048Y71069D01*
X40879Y70948D01*
X40846Y70912D01*
X40762Y70831D01*
X40641Y70662D01*
X40621Y70617D01*
X40568Y70514D01*
X40508Y70315D01*
X40503Y70266D01*
X40486Y70151D01*
X40493Y69951D01*
X40493Y68460D01*
X40500Y68424D01*
X40499Y68381D01*
X40536Y68149D01*
X40555Y68098D01*
X40573Y68036D01*
X40579Y68011D01*
X40582Y68006D01*
X40585Y67998D01*
X40691Y67789D01*
X40725Y67747D01*
X40785Y67660D01*
X40950Y67495D01*
X40995Y67465D01*
X41079Y67401D01*
X41288Y67295D01*
X41340Y67280D01*
X41439Y67246D01*
X41671Y67209D01*
X41707Y67211D01*
X41750Y67203D01*
X47750Y67203D01*
X47783Y67209D01*
G37*
G36*
X83019Y117229D02*
X83019Y117229D01*
X83106Y117239D01*
X83516Y117359D01*
X83566Y117385D01*
X83647Y117419D01*
X84007Y117650D01*
X84047Y117689D01*
X84116Y117744D01*
X84395Y118067D01*
X84423Y118116D01*
X84473Y118188D01*
X84651Y118577D01*
X84663Y118631D01*
X84691Y118715D01*
X84752Y119138D01*
X84750Y119171D01*
X84757Y119210D01*
X84757Y125201D01*
X84764Y125401D01*
X84756Y125449D01*
X84742Y125565D01*
X84682Y125764D01*
X84659Y125807D01*
X84609Y125912D01*
X84488Y126081D01*
X84452Y126115D01*
X84371Y126198D01*
X84202Y126319D01*
X84157Y126339D01*
X84054Y126392D01*
X83855Y126452D01*
X83806Y126457D01*
X83691Y126474D01*
X83491Y126467D01*
X82000Y126467D01*
X81964Y126460D01*
X81921Y126461D01*
X81689Y126424D01*
X81638Y126405D01*
X81538Y126375D01*
X81329Y126269D01*
X81287Y126235D01*
X81200Y126175D01*
X81035Y126010D01*
X81005Y125965D01*
X80941Y125881D01*
X80835Y125672D01*
X80820Y125620D01*
X80786Y125521D01*
X80749Y125289D01*
X80751Y125253D01*
X80743Y125210D01*
X80743Y119210D01*
X80749Y119177D01*
X80748Y119138D01*
X80809Y118715D01*
X80828Y118662D01*
X80849Y118577D01*
X81027Y118188D01*
X81060Y118143D01*
X81105Y118067D01*
X81384Y117744D01*
X81429Y117710D01*
X81493Y117650D01*
X81853Y117419D01*
X81905Y117398D01*
X81984Y117359D01*
X82394Y117239D01*
X82450Y117234D01*
X82537Y117218D01*
X82963Y117218D01*
X83019Y117229D01*
G37*
G36*
X108989Y87204D02*
X108989Y87204D01*
X109105Y87218D01*
X109304Y87278D01*
X109347Y87301D01*
X109452Y87351D01*
X109621Y87472D01*
X109655Y87508D01*
X109738Y87589D01*
X109859Y87758D01*
X109879Y87803D01*
X109932Y87906D01*
X109992Y88105D01*
X109997Y88154D01*
X110014Y88269D01*
X110007Y88469D01*
X110007Y89960D01*
X110000Y89996D01*
X110001Y90039D01*
X109964Y90271D01*
X109945Y90322D01*
X109915Y90422D01*
X109809Y90631D01*
X109775Y90673D01*
X109715Y90760D01*
X109550Y90925D01*
X109505Y90955D01*
X109421Y91019D01*
X109212Y91125D01*
X109160Y91140D01*
X109061Y91174D01*
X108829Y91211D01*
X108793Y91209D01*
X108750Y91217D01*
X102750Y91217D01*
X102717Y91211D01*
X102678Y91212D01*
X102255Y91151D01*
X102202Y91132D01*
X102117Y91111D01*
X101728Y90933D01*
X101683Y90900D01*
X101607Y90855D01*
X101284Y90576D01*
X101250Y90531D01*
X101190Y90467D01*
X100959Y90107D01*
X100938Y90055D01*
X100899Y89976D01*
X100779Y89566D01*
X100774Y89510D01*
X100758Y89423D01*
X100758Y88997D01*
X100769Y88942D01*
X100779Y88854D01*
X100899Y88444D01*
X100925Y88394D01*
X100959Y88313D01*
X101190Y87953D01*
X101229Y87913D01*
X101284Y87844D01*
X101607Y87565D01*
X101656Y87537D01*
X101728Y87487D01*
X102117Y87309D01*
X102171Y87297D01*
X102255Y87269D01*
X102678Y87208D01*
X102711Y87210D01*
X102750Y87203D01*
X108741Y87203D01*
X108941Y87196D01*
X108989Y87204D01*
G37*
G36*
X68019Y117229D02*
X68019Y117229D01*
X68106Y117239D01*
X68516Y117359D01*
X68566Y117385D01*
X68647Y117419D01*
X69007Y117650D01*
X69047Y117689D01*
X69116Y117744D01*
X69395Y118067D01*
X69423Y118116D01*
X69473Y118188D01*
X69651Y118577D01*
X69663Y118631D01*
X69691Y118715D01*
X69752Y119138D01*
X69750Y119171D01*
X69757Y119210D01*
X69757Y125201D01*
X69764Y125401D01*
X69756Y125449D01*
X69742Y125565D01*
X69682Y125764D01*
X69659Y125807D01*
X69609Y125912D01*
X69488Y126081D01*
X69452Y126115D01*
X69371Y126198D01*
X69202Y126319D01*
X69157Y126339D01*
X69054Y126392D01*
X68855Y126452D01*
X68806Y126457D01*
X68691Y126474D01*
X68491Y126467D01*
X67000Y126467D01*
X66964Y126460D01*
X66921Y126461D01*
X66689Y126424D01*
X66638Y126405D01*
X66538Y126375D01*
X66329Y126269D01*
X66287Y126235D01*
X66200Y126175D01*
X66035Y126010D01*
X66005Y125965D01*
X65941Y125881D01*
X65835Y125672D01*
X65820Y125620D01*
X65786Y125521D01*
X65749Y125289D01*
X65751Y125253D01*
X65743Y125210D01*
X65743Y119210D01*
X65749Y119177D01*
X65748Y119138D01*
X65809Y118715D01*
X65828Y118662D01*
X65849Y118577D01*
X66027Y118188D01*
X66060Y118143D01*
X66105Y118067D01*
X66384Y117744D01*
X66429Y117710D01*
X66493Y117650D01*
X66853Y117419D01*
X66905Y117398D01*
X66984Y117359D01*
X67394Y117239D01*
X67450Y117234D01*
X67537Y117218D01*
X67963Y117218D01*
X68019Y117229D01*
G37*
G36*
X108989Y82204D02*
X108989Y82204D01*
X109105Y82218D01*
X109304Y82278D01*
X109347Y82301D01*
X109452Y82351D01*
X109621Y82472D01*
X109655Y82508D01*
X109738Y82589D01*
X109859Y82758D01*
X109879Y82803D01*
X109932Y82906D01*
X109992Y83105D01*
X109997Y83154D01*
X110014Y83269D01*
X110007Y83469D01*
X110007Y84960D01*
X110000Y84996D01*
X110001Y85039D01*
X109964Y85271D01*
X109945Y85322D01*
X109915Y85422D01*
X109809Y85631D01*
X109775Y85673D01*
X109715Y85760D01*
X109550Y85925D01*
X109505Y85955D01*
X109421Y86019D01*
X109212Y86125D01*
X109160Y86140D01*
X109061Y86174D01*
X108829Y86211D01*
X108793Y86209D01*
X108750Y86217D01*
X102750Y86217D01*
X102717Y86211D01*
X102678Y86212D01*
X102255Y86151D01*
X102202Y86132D01*
X102117Y86111D01*
X101728Y85933D01*
X101683Y85900D01*
X101607Y85855D01*
X101284Y85576D01*
X101250Y85531D01*
X101190Y85467D01*
X100959Y85107D01*
X100938Y85055D01*
X100899Y84976D01*
X100779Y84566D01*
X100774Y84510D01*
X100758Y84423D01*
X100758Y83997D01*
X100769Y83942D01*
X100779Y83854D01*
X100899Y83444D01*
X100925Y83394D01*
X100959Y83313D01*
X101190Y82953D01*
X101229Y82913D01*
X101284Y82844D01*
X101607Y82565D01*
X101656Y82537D01*
X101728Y82487D01*
X102117Y82309D01*
X102171Y82297D01*
X102255Y82269D01*
X102678Y82208D01*
X102711Y82210D01*
X102750Y82203D01*
X108741Y82203D01*
X108941Y82196D01*
X108989Y82204D01*
G37*
G36*
X88019Y117229D02*
X88019Y117229D01*
X88106Y117239D01*
X88516Y117359D01*
X88566Y117385D01*
X88647Y117419D01*
X89007Y117650D01*
X89047Y117689D01*
X89116Y117744D01*
X89395Y118067D01*
X89423Y118116D01*
X89473Y118188D01*
X89651Y118577D01*
X89663Y118631D01*
X89691Y118715D01*
X89752Y119138D01*
X89750Y119171D01*
X89757Y119210D01*
X89757Y125201D01*
X89764Y125401D01*
X89756Y125449D01*
X89742Y125565D01*
X89682Y125764D01*
X89659Y125807D01*
X89609Y125912D01*
X89488Y126081D01*
X89452Y126115D01*
X89371Y126198D01*
X89202Y126319D01*
X89157Y126339D01*
X89054Y126392D01*
X88855Y126452D01*
X88806Y126457D01*
X88691Y126474D01*
X88491Y126467D01*
X87000Y126467D01*
X86964Y126460D01*
X86921Y126461D01*
X86689Y126424D01*
X86638Y126405D01*
X86538Y126375D01*
X86329Y126269D01*
X86287Y126235D01*
X86200Y126175D01*
X86035Y126010D01*
X86005Y125965D01*
X85941Y125881D01*
X85835Y125672D01*
X85820Y125620D01*
X85786Y125521D01*
X85749Y125289D01*
X85751Y125253D01*
X85743Y125210D01*
X85743Y119210D01*
X85749Y119177D01*
X85748Y119138D01*
X85809Y118715D01*
X85828Y118662D01*
X85849Y118577D01*
X86027Y118188D01*
X86060Y118143D01*
X86105Y118067D01*
X86384Y117744D01*
X86429Y117710D01*
X86493Y117650D01*
X86853Y117419D01*
X86905Y117398D01*
X86984Y117359D01*
X87394Y117239D01*
X87450Y117234D01*
X87537Y117218D01*
X87963Y117218D01*
X88019Y117229D01*
G37*
G36*
X108989Y77204D02*
X108989Y77204D01*
X109105Y77218D01*
X109304Y77278D01*
X109347Y77301D01*
X109452Y77351D01*
X109621Y77472D01*
X109655Y77508D01*
X109738Y77589D01*
X109859Y77758D01*
X109879Y77803D01*
X109932Y77906D01*
X109992Y78105D01*
X109997Y78154D01*
X110014Y78269D01*
X110007Y78469D01*
X110007Y79960D01*
X110000Y79996D01*
X110001Y80039D01*
X109964Y80271D01*
X109945Y80322D01*
X109915Y80422D01*
X109809Y80631D01*
X109775Y80673D01*
X109715Y80760D01*
X109550Y80925D01*
X109505Y80955D01*
X109421Y81019D01*
X109212Y81125D01*
X109160Y81140D01*
X109061Y81174D01*
X108829Y81211D01*
X108793Y81209D01*
X108750Y81217D01*
X102750Y81217D01*
X102717Y81211D01*
X102678Y81212D01*
X102255Y81151D01*
X102202Y81132D01*
X102117Y81111D01*
X101728Y80933D01*
X101683Y80900D01*
X101607Y80855D01*
X101284Y80576D01*
X101250Y80531D01*
X101190Y80467D01*
X100959Y80107D01*
X100938Y80055D01*
X100899Y79976D01*
X100779Y79566D01*
X100774Y79510D01*
X100758Y79423D01*
X100758Y78997D01*
X100769Y78942D01*
X100779Y78854D01*
X100899Y78444D01*
X100925Y78394D01*
X100959Y78313D01*
X101190Y77953D01*
X101229Y77913D01*
X101284Y77844D01*
X101607Y77565D01*
X101656Y77537D01*
X101728Y77487D01*
X102117Y77309D01*
X102171Y77297D01*
X102255Y77269D01*
X102678Y77208D01*
X102711Y77210D01*
X102750Y77203D01*
X108741Y77203D01*
X108941Y77196D01*
X108989Y77204D01*
G37*
G36*
X58019Y117229D02*
X58019Y117229D01*
X58106Y117239D01*
X58516Y117359D01*
X58566Y117385D01*
X58647Y117419D01*
X59007Y117650D01*
X59047Y117689D01*
X59116Y117744D01*
X59395Y118067D01*
X59423Y118116D01*
X59473Y118188D01*
X59651Y118577D01*
X59663Y118631D01*
X59691Y118715D01*
X59752Y119138D01*
X59750Y119171D01*
X59757Y119210D01*
X59757Y125201D01*
X59764Y125401D01*
X59756Y125449D01*
X59742Y125565D01*
X59682Y125764D01*
X59659Y125807D01*
X59609Y125912D01*
X59488Y126081D01*
X59452Y126115D01*
X59371Y126198D01*
X59202Y126319D01*
X59157Y126339D01*
X59054Y126392D01*
X58855Y126452D01*
X58806Y126457D01*
X58691Y126474D01*
X58491Y126467D01*
X57000Y126467D01*
X56964Y126460D01*
X56921Y126461D01*
X56689Y126424D01*
X56638Y126405D01*
X56538Y126375D01*
X56329Y126269D01*
X56287Y126235D01*
X56200Y126175D01*
X56035Y126010D01*
X56005Y125965D01*
X55941Y125881D01*
X55835Y125672D01*
X55820Y125620D01*
X55786Y125521D01*
X55749Y125289D01*
X55751Y125253D01*
X55743Y125210D01*
X55743Y119210D01*
X55749Y119177D01*
X55748Y119138D01*
X55809Y118715D01*
X55828Y118662D01*
X55849Y118577D01*
X56027Y118188D01*
X56060Y118143D01*
X56105Y118067D01*
X56384Y117744D01*
X56429Y117710D01*
X56493Y117650D01*
X56853Y117419D01*
X56905Y117398D01*
X56984Y117359D01*
X57394Y117239D01*
X57450Y117234D01*
X57537Y117218D01*
X57963Y117218D01*
X58019Y117229D01*
G37*
G36*
X108989Y72204D02*
X108989Y72204D01*
X109105Y72218D01*
X109304Y72278D01*
X109347Y72301D01*
X109452Y72351D01*
X109621Y72472D01*
X109655Y72508D01*
X109738Y72589D01*
X109859Y72758D01*
X109879Y72803D01*
X109932Y72906D01*
X109992Y73105D01*
X109997Y73154D01*
X110014Y73269D01*
X110007Y73469D01*
X110007Y74960D01*
X110000Y74996D01*
X110001Y75039D01*
X109964Y75271D01*
X109945Y75322D01*
X109915Y75422D01*
X109809Y75631D01*
X109775Y75673D01*
X109715Y75760D01*
X109550Y75925D01*
X109505Y75955D01*
X109421Y76019D01*
X109212Y76125D01*
X109160Y76140D01*
X109061Y76174D01*
X108829Y76211D01*
X108793Y76209D01*
X108750Y76217D01*
X102750Y76217D01*
X102717Y76211D01*
X102678Y76212D01*
X102255Y76151D01*
X102202Y76132D01*
X102117Y76111D01*
X101728Y75933D01*
X101683Y75900D01*
X101607Y75855D01*
X101284Y75576D01*
X101250Y75531D01*
X101190Y75467D01*
X100959Y75107D01*
X100938Y75055D01*
X100899Y74976D01*
X100779Y74566D01*
X100774Y74510D01*
X100758Y74423D01*
X100758Y73997D01*
X100769Y73942D01*
X100779Y73854D01*
X100899Y73444D01*
X100925Y73394D01*
X100959Y73313D01*
X101190Y72953D01*
X101229Y72913D01*
X101284Y72844D01*
X101607Y72565D01*
X101656Y72537D01*
X101728Y72487D01*
X102117Y72309D01*
X102171Y72297D01*
X102255Y72269D01*
X102678Y72208D01*
X102711Y72210D01*
X102750Y72203D01*
X108741Y72203D01*
X108941Y72196D01*
X108989Y72204D01*
G37*
G36*
X73019Y117229D02*
X73019Y117229D01*
X73106Y117239D01*
X73516Y117359D01*
X73566Y117385D01*
X73647Y117419D01*
X74007Y117650D01*
X74047Y117689D01*
X74116Y117744D01*
X74395Y118067D01*
X74423Y118116D01*
X74473Y118188D01*
X74651Y118577D01*
X74663Y118631D01*
X74691Y118715D01*
X74752Y119138D01*
X74750Y119171D01*
X74757Y119210D01*
X74757Y125201D01*
X74764Y125401D01*
X74756Y125449D01*
X74742Y125565D01*
X74682Y125764D01*
X74659Y125807D01*
X74609Y125912D01*
X74488Y126081D01*
X74452Y126115D01*
X74371Y126198D01*
X74202Y126319D01*
X74157Y126339D01*
X74054Y126392D01*
X73855Y126452D01*
X73806Y126457D01*
X73691Y126474D01*
X73491Y126467D01*
X72000Y126467D01*
X71964Y126460D01*
X71921Y126461D01*
X71689Y126424D01*
X71638Y126405D01*
X71538Y126375D01*
X71329Y126269D01*
X71287Y126235D01*
X71200Y126175D01*
X71035Y126010D01*
X71005Y125965D01*
X70941Y125881D01*
X70835Y125672D01*
X70820Y125620D01*
X70786Y125521D01*
X70749Y125289D01*
X70751Y125253D01*
X70743Y125210D01*
X70743Y119210D01*
X70749Y119177D01*
X70748Y119138D01*
X70809Y118715D01*
X70828Y118662D01*
X70849Y118577D01*
X71027Y118188D01*
X71060Y118143D01*
X71105Y118067D01*
X71384Y117744D01*
X71429Y117710D01*
X71493Y117650D01*
X71853Y117419D01*
X71905Y117398D01*
X71984Y117359D01*
X72394Y117239D01*
X72450Y117234D01*
X72537Y117218D01*
X72963Y117218D01*
X73019Y117229D01*
G37*
G36*
X108989Y67204D02*
X108989Y67204D01*
X109105Y67218D01*
X109304Y67278D01*
X109347Y67301D01*
X109452Y67351D01*
X109621Y67472D01*
X109655Y67508D01*
X109738Y67589D01*
X109859Y67758D01*
X109879Y67803D01*
X109932Y67906D01*
X109992Y68105D01*
X109997Y68154D01*
X110014Y68269D01*
X110007Y68469D01*
X110007Y69960D01*
X110000Y69996D01*
X110001Y70039D01*
X109964Y70271D01*
X109945Y70322D01*
X109915Y70422D01*
X109809Y70631D01*
X109775Y70673D01*
X109715Y70760D01*
X109550Y70925D01*
X109505Y70955D01*
X109421Y71019D01*
X109212Y71125D01*
X109160Y71140D01*
X109061Y71174D01*
X108829Y71211D01*
X108793Y71209D01*
X108750Y71217D01*
X102750Y71217D01*
X102717Y71211D01*
X102678Y71212D01*
X102255Y71151D01*
X102202Y71132D01*
X102117Y71111D01*
X101728Y70933D01*
X101683Y70900D01*
X101607Y70855D01*
X101284Y70576D01*
X101250Y70531D01*
X101190Y70467D01*
X100959Y70107D01*
X100938Y70055D01*
X100899Y69976D01*
X100779Y69566D01*
X100774Y69510D01*
X100758Y69423D01*
X100758Y68997D01*
X100769Y68942D01*
X100779Y68854D01*
X100899Y68444D01*
X100925Y68394D01*
X100959Y68313D01*
X101190Y67953D01*
X101229Y67913D01*
X101284Y67844D01*
X101607Y67565D01*
X101656Y67537D01*
X101728Y67487D01*
X102117Y67309D01*
X102171Y67297D01*
X102255Y67269D01*
X102678Y67208D01*
X102711Y67210D01*
X102750Y67203D01*
X108741Y67203D01*
X108941Y67196D01*
X108989Y67204D01*
G37*
G36*
X78019Y117229D02*
X78019Y117229D01*
X78106Y117239D01*
X78516Y117359D01*
X78566Y117385D01*
X78647Y117419D01*
X79007Y117650D01*
X79047Y117689D01*
X79116Y117744D01*
X79395Y118067D01*
X79423Y118116D01*
X79473Y118188D01*
X79651Y118577D01*
X79663Y118631D01*
X79691Y118715D01*
X79752Y119138D01*
X79750Y119171D01*
X79757Y119210D01*
X79757Y125201D01*
X79764Y125401D01*
X79756Y125449D01*
X79742Y125565D01*
X79682Y125764D01*
X79659Y125807D01*
X79609Y125912D01*
X79488Y126081D01*
X79452Y126115D01*
X79371Y126198D01*
X79202Y126319D01*
X79157Y126339D01*
X79054Y126392D01*
X78855Y126452D01*
X78806Y126457D01*
X78691Y126474D01*
X78491Y126467D01*
X77000Y126467D01*
X76964Y126460D01*
X76921Y126461D01*
X76689Y126424D01*
X76638Y126405D01*
X76538Y126375D01*
X76329Y126269D01*
X76287Y126235D01*
X76200Y126175D01*
X76035Y126010D01*
X76005Y125965D01*
X75941Y125881D01*
X75835Y125672D01*
X75820Y125620D01*
X75786Y125521D01*
X75749Y125289D01*
X75751Y125253D01*
X75743Y125210D01*
X75743Y119210D01*
X75749Y119177D01*
X75748Y119138D01*
X75809Y118715D01*
X75828Y118662D01*
X75849Y118577D01*
X76027Y118188D01*
X76060Y118143D01*
X76105Y118067D01*
X76384Y117744D01*
X76429Y117710D01*
X76493Y117650D01*
X76853Y117419D01*
X76905Y117398D01*
X76984Y117359D01*
X77394Y117239D01*
X77450Y117234D01*
X77537Y117218D01*
X77963Y117218D01*
X78019Y117229D01*
G37*
G36*
X93019Y117229D02*
X93019Y117229D01*
X93106Y117239D01*
X93516Y117359D01*
X93566Y117385D01*
X93647Y117419D01*
X94007Y117650D01*
X94047Y117689D01*
X94116Y117744D01*
X94395Y118067D01*
X94423Y118116D01*
X94473Y118188D01*
X94651Y118577D01*
X94663Y118631D01*
X94691Y118715D01*
X94752Y119138D01*
X94750Y119171D01*
X94757Y119210D01*
X94757Y125201D01*
X94764Y125401D01*
X94756Y125449D01*
X94742Y125565D01*
X94682Y125764D01*
X94659Y125807D01*
X94609Y125912D01*
X94488Y126081D01*
X94452Y126115D01*
X94371Y126198D01*
X94202Y126319D01*
X94157Y126339D01*
X94054Y126392D01*
X93855Y126452D01*
X93806Y126457D01*
X93691Y126474D01*
X93491Y126467D01*
X92000Y126467D01*
X91964Y126460D01*
X91921Y126461D01*
X91689Y126424D01*
X91638Y126405D01*
X91538Y126375D01*
X91329Y126269D01*
X91287Y126235D01*
X91200Y126175D01*
X91035Y126010D01*
X91005Y125965D01*
X90941Y125881D01*
X90835Y125672D01*
X90820Y125620D01*
X90786Y125521D01*
X90749Y125289D01*
X90751Y125253D01*
X90743Y125210D01*
X90743Y119210D01*
X90749Y119177D01*
X90748Y119138D01*
X90809Y118715D01*
X90828Y118662D01*
X90849Y118577D01*
X91027Y118188D01*
X91060Y118143D01*
X91105Y118067D01*
X91384Y117744D01*
X91429Y117710D01*
X91493Y117650D01*
X91853Y117419D01*
X91905Y117398D01*
X91984Y117359D01*
X92394Y117239D01*
X92450Y117234D01*
X92537Y117218D01*
X92963Y117218D01*
X93019Y117229D01*
G37*
G36*
X98019Y117229D02*
X98019Y117229D01*
X98106Y117239D01*
X98516Y117359D01*
X98566Y117385D01*
X98647Y117419D01*
X99007Y117650D01*
X99047Y117689D01*
X99116Y117744D01*
X99395Y118067D01*
X99423Y118116D01*
X99473Y118188D01*
X99651Y118577D01*
X99663Y118631D01*
X99691Y118715D01*
X99752Y119138D01*
X99750Y119171D01*
X99757Y119210D01*
X99757Y125201D01*
X99764Y125401D01*
X99756Y125449D01*
X99742Y125565D01*
X99682Y125764D01*
X99659Y125807D01*
X99609Y125912D01*
X99488Y126081D01*
X99452Y126115D01*
X99371Y126198D01*
X99202Y126319D01*
X99157Y126339D01*
X99054Y126392D01*
X98855Y126452D01*
X98806Y126457D01*
X98691Y126474D01*
X98491Y126467D01*
X97000Y126467D01*
X96964Y126460D01*
X96921Y126461D01*
X96689Y126424D01*
X96638Y126405D01*
X96538Y126375D01*
X96329Y126269D01*
X96287Y126235D01*
X96200Y126175D01*
X96035Y126010D01*
X96005Y125965D01*
X95941Y125881D01*
X95835Y125672D01*
X95820Y125620D01*
X95786Y125521D01*
X95749Y125289D01*
X95751Y125253D01*
X95743Y125210D01*
X95743Y119210D01*
X95749Y119177D01*
X95748Y119138D01*
X95809Y118715D01*
X95828Y118662D01*
X95849Y118577D01*
X96027Y118188D01*
X96060Y118143D01*
X96105Y118067D01*
X96384Y117744D01*
X96429Y117710D01*
X96493Y117650D01*
X96853Y117419D01*
X96905Y117398D01*
X96984Y117359D01*
X97394Y117239D01*
X97450Y117234D01*
X97537Y117218D01*
X97963Y117218D01*
X98019Y117229D01*
G37*
G36*
X63019Y117229D02*
X63019Y117229D01*
X63106Y117239D01*
X63516Y117359D01*
X63566Y117385D01*
X63647Y117419D01*
X64007Y117650D01*
X64047Y117689D01*
X64116Y117744D01*
X64395Y118067D01*
X64423Y118116D01*
X64473Y118188D01*
X64651Y118577D01*
X64663Y118631D01*
X64691Y118715D01*
X64752Y119138D01*
X64750Y119171D01*
X64757Y119210D01*
X64757Y125201D01*
X64764Y125401D01*
X64756Y125449D01*
X64742Y125565D01*
X64682Y125764D01*
X64659Y125807D01*
X64609Y125912D01*
X64488Y126081D01*
X64452Y126115D01*
X64371Y126198D01*
X64202Y126319D01*
X64157Y126339D01*
X64054Y126392D01*
X63855Y126452D01*
X63806Y126457D01*
X63691Y126474D01*
X63491Y126467D01*
X62000Y126467D01*
X61964Y126460D01*
X61921Y126461D01*
X61689Y126424D01*
X61638Y126405D01*
X61538Y126375D01*
X61329Y126269D01*
X61287Y126235D01*
X61200Y126175D01*
X61035Y126010D01*
X61005Y125965D01*
X60941Y125881D01*
X60835Y125672D01*
X60820Y125620D01*
X60786Y125521D01*
X60749Y125289D01*
X60751Y125253D01*
X60743Y125210D01*
X60743Y119210D01*
X60749Y119177D01*
X60748Y119138D01*
X60809Y118715D01*
X60828Y118662D01*
X60849Y118577D01*
X61027Y118188D01*
X61060Y118143D01*
X61105Y118067D01*
X61384Y117744D01*
X61429Y117710D01*
X61493Y117650D01*
X61853Y117419D01*
X61905Y117398D01*
X61984Y117359D01*
X62394Y117239D01*
X62450Y117234D01*
X62537Y117218D01*
X62963Y117218D01*
X63019Y117229D01*
G37*
G36*
X108989Y112204D02*
X108989Y112204D01*
X109105Y112218D01*
X109304Y112278D01*
X109347Y112301D01*
X109452Y112351D01*
X109621Y112472D01*
X109655Y112508D01*
X109738Y112589D01*
X109859Y112758D01*
X109879Y112803D01*
X109932Y112906D01*
X109992Y113105D01*
X109997Y113154D01*
X110014Y113269D01*
X110007Y113469D01*
X110007Y114960D01*
X110000Y114996D01*
X110001Y115039D01*
X109964Y115271D01*
X109945Y115322D01*
X109915Y115422D01*
X109809Y115631D01*
X109775Y115673D01*
X109715Y115760D01*
X109550Y115925D01*
X109505Y115955D01*
X109421Y116019D01*
X109212Y116125D01*
X109160Y116140D01*
X109061Y116174D01*
X108829Y116211D01*
X108793Y116209D01*
X108750Y116217D01*
X102750Y116217D01*
X102717Y116211D01*
X102678Y116212D01*
X102255Y116151D01*
X102202Y116132D01*
X102117Y116111D01*
X101728Y115933D01*
X101683Y115900D01*
X101607Y115855D01*
X101284Y115576D01*
X101250Y115531D01*
X101190Y115467D01*
X100959Y115107D01*
X100938Y115055D01*
X100899Y114976D01*
X100779Y114566D01*
X100774Y114510D01*
X100758Y114423D01*
X100758Y113997D01*
X100769Y113942D01*
X100779Y113854D01*
X100899Y113444D01*
X100925Y113394D01*
X100959Y113313D01*
X101190Y112953D01*
X101229Y112913D01*
X101284Y112844D01*
X101607Y112565D01*
X101656Y112537D01*
X101728Y112487D01*
X102117Y112309D01*
X102171Y112297D01*
X102255Y112269D01*
X102678Y112208D01*
X102711Y112210D01*
X102750Y112203D01*
X108741Y112203D01*
X108941Y112196D01*
X108989Y112204D01*
G37*
G36*
X108989Y107204D02*
X108989Y107204D01*
X109105Y107218D01*
X109304Y107278D01*
X109347Y107301D01*
X109452Y107351D01*
X109621Y107472D01*
X109655Y107508D01*
X109738Y107589D01*
X109859Y107758D01*
X109879Y107803D01*
X109932Y107906D01*
X109992Y108105D01*
X109997Y108154D01*
X110014Y108269D01*
X110007Y108469D01*
X110007Y109960D01*
X110000Y109996D01*
X110001Y110039D01*
X109964Y110271D01*
X109945Y110322D01*
X109915Y110422D01*
X109809Y110631D01*
X109775Y110673D01*
X109715Y110760D01*
X109550Y110925D01*
X109505Y110955D01*
X109421Y111019D01*
X109212Y111125D01*
X109160Y111140D01*
X109061Y111174D01*
X108829Y111211D01*
X108793Y111209D01*
X108750Y111217D01*
X102750Y111217D01*
X102717Y111211D01*
X102678Y111212D01*
X102255Y111151D01*
X102202Y111132D01*
X102117Y111111D01*
X101728Y110933D01*
X101683Y110900D01*
X101607Y110855D01*
X101284Y110576D01*
X101250Y110531D01*
X101190Y110467D01*
X100959Y110107D01*
X100938Y110055D01*
X100899Y109976D01*
X100779Y109566D01*
X100774Y109510D01*
X100758Y109423D01*
X100758Y108997D01*
X100769Y108942D01*
X100779Y108854D01*
X100899Y108444D01*
X100925Y108394D01*
X100959Y108313D01*
X101190Y107953D01*
X101229Y107913D01*
X101284Y107844D01*
X101607Y107565D01*
X101656Y107537D01*
X101728Y107487D01*
X102117Y107309D01*
X102171Y107297D01*
X102255Y107269D01*
X102678Y107208D01*
X102711Y107210D01*
X102750Y107203D01*
X108741Y107203D01*
X108941Y107196D01*
X108989Y107204D01*
G37*
G36*
X108989Y102204D02*
X108989Y102204D01*
X109105Y102218D01*
X109304Y102278D01*
X109347Y102301D01*
X109452Y102351D01*
X109621Y102472D01*
X109655Y102508D01*
X109738Y102589D01*
X109859Y102758D01*
X109879Y102803D01*
X109932Y102906D01*
X109992Y103105D01*
X109997Y103154D01*
X110014Y103269D01*
X110007Y103469D01*
X110007Y104960D01*
X110000Y104996D01*
X110001Y105039D01*
X109964Y105271D01*
X109945Y105322D01*
X109915Y105422D01*
X109809Y105631D01*
X109775Y105673D01*
X109715Y105760D01*
X109550Y105925D01*
X109505Y105955D01*
X109421Y106019D01*
X109212Y106125D01*
X109160Y106140D01*
X109061Y106174D01*
X108829Y106211D01*
X108793Y106209D01*
X108750Y106217D01*
X102750Y106217D01*
X102717Y106211D01*
X102678Y106212D01*
X102255Y106151D01*
X102202Y106132D01*
X102117Y106111D01*
X101728Y105933D01*
X101683Y105900D01*
X101607Y105855D01*
X101284Y105576D01*
X101250Y105531D01*
X101190Y105467D01*
X100959Y105107D01*
X100938Y105055D01*
X100899Y104976D01*
X100779Y104566D01*
X100774Y104510D01*
X100758Y104423D01*
X100758Y103997D01*
X100769Y103942D01*
X100779Y103854D01*
X100899Y103444D01*
X100925Y103394D01*
X100959Y103313D01*
X101190Y102953D01*
X101229Y102913D01*
X101284Y102844D01*
X101607Y102565D01*
X101656Y102537D01*
X101728Y102487D01*
X102117Y102309D01*
X102171Y102297D01*
X102255Y102269D01*
X102678Y102208D01*
X102711Y102210D01*
X102750Y102203D01*
X108741Y102203D01*
X108941Y102196D01*
X108989Y102204D01*
G37*
G36*
X108989Y97204D02*
X108989Y97204D01*
X109105Y97218D01*
X109304Y97278D01*
X109347Y97301D01*
X109452Y97351D01*
X109621Y97472D01*
X109655Y97508D01*
X109738Y97589D01*
X109859Y97758D01*
X109879Y97803D01*
X109932Y97906D01*
X109992Y98105D01*
X109997Y98154D01*
X110014Y98269D01*
X110007Y98469D01*
X110007Y99960D01*
X110000Y99996D01*
X110001Y100039D01*
X109964Y100271D01*
X109945Y100322D01*
X109915Y100422D01*
X109809Y100631D01*
X109775Y100673D01*
X109715Y100760D01*
X109550Y100925D01*
X109505Y100955D01*
X109421Y101019D01*
X109212Y101125D01*
X109160Y101140D01*
X109061Y101174D01*
X108829Y101211D01*
X108793Y101209D01*
X108750Y101217D01*
X102750Y101217D01*
X102717Y101211D01*
X102678Y101212D01*
X102255Y101151D01*
X102202Y101132D01*
X102117Y101111D01*
X101728Y100933D01*
X101683Y100900D01*
X101607Y100855D01*
X101284Y100576D01*
X101250Y100531D01*
X101190Y100467D01*
X100959Y100107D01*
X100938Y100055D01*
X100899Y99976D01*
X100779Y99566D01*
X100774Y99510D01*
X100758Y99423D01*
X100758Y98997D01*
X100769Y98942D01*
X100779Y98854D01*
X100899Y98444D01*
X100925Y98394D01*
X100959Y98313D01*
X101190Y97953D01*
X101229Y97913D01*
X101284Y97844D01*
X101607Y97565D01*
X101656Y97537D01*
X101728Y97487D01*
X102117Y97309D01*
X102171Y97297D01*
X102255Y97269D01*
X102678Y97208D01*
X102711Y97210D01*
X102750Y97203D01*
X108741Y97203D01*
X108941Y97196D01*
X108989Y97204D01*
G37*
G36*
X53019Y117229D02*
X53019Y117229D01*
X53106Y117239D01*
X53516Y117359D01*
X53566Y117385D01*
X53647Y117419D01*
X54007Y117650D01*
X54047Y117689D01*
X54116Y117744D01*
X54395Y118067D01*
X54423Y118116D01*
X54473Y118188D01*
X54651Y118577D01*
X54663Y118631D01*
X54691Y118715D01*
X54752Y119138D01*
X54750Y119171D01*
X54757Y119210D01*
X54757Y125201D01*
X54764Y125401D01*
X54756Y125449D01*
X54742Y125565D01*
X54682Y125764D01*
X54659Y125807D01*
X54609Y125912D01*
X54488Y126081D01*
X54452Y126115D01*
X54371Y126198D01*
X54202Y126319D01*
X54157Y126339D01*
X54054Y126392D01*
X53855Y126452D01*
X53806Y126457D01*
X53691Y126474D01*
X53491Y126467D01*
X52000Y126467D01*
X51964Y126460D01*
X51921Y126461D01*
X51689Y126424D01*
X51638Y126405D01*
X51538Y126375D01*
X51329Y126269D01*
X51287Y126235D01*
X51200Y126175D01*
X51035Y126010D01*
X51005Y125965D01*
X50941Y125881D01*
X50835Y125672D01*
X50820Y125620D01*
X50786Y125521D01*
X50749Y125289D01*
X50751Y125253D01*
X50743Y125210D01*
X50743Y119210D01*
X50749Y119177D01*
X50748Y119138D01*
X50809Y118715D01*
X50828Y118662D01*
X50849Y118577D01*
X51027Y118188D01*
X51060Y118143D01*
X51105Y118067D01*
X51384Y117744D01*
X51429Y117710D01*
X51493Y117650D01*
X51853Y117419D01*
X51905Y117398D01*
X51984Y117359D01*
X52394Y117239D01*
X52450Y117234D01*
X52537Y117218D01*
X52963Y117218D01*
X53019Y117229D01*
G37*
G36*
X108989Y92204D02*
X108989Y92204D01*
X109105Y92218D01*
X109304Y92278D01*
X109347Y92301D01*
X109452Y92351D01*
X109621Y92472D01*
X109655Y92508D01*
X109738Y92589D01*
X109859Y92758D01*
X109879Y92803D01*
X109932Y92906D01*
X109992Y93105D01*
X109997Y93154D01*
X110014Y93269D01*
X110007Y93469D01*
X110007Y94960D01*
X110000Y94996D01*
X110001Y95039D01*
X109964Y95271D01*
X109945Y95322D01*
X109915Y95422D01*
X109809Y95631D01*
X109775Y95673D01*
X109715Y95760D01*
X109550Y95925D01*
X109505Y95955D01*
X109421Y96019D01*
X109212Y96125D01*
X109160Y96140D01*
X109061Y96174D01*
X108829Y96211D01*
X108793Y96209D01*
X108750Y96217D01*
X102750Y96217D01*
X102717Y96211D01*
X102678Y96212D01*
X102255Y96151D01*
X102202Y96132D01*
X102117Y96111D01*
X101728Y95933D01*
X101683Y95900D01*
X101607Y95855D01*
X101284Y95576D01*
X101250Y95531D01*
X101190Y95467D01*
X100959Y95107D01*
X100938Y95055D01*
X100899Y94976D01*
X100779Y94566D01*
X100774Y94510D01*
X100758Y94423D01*
X100758Y93997D01*
X100769Y93942D01*
X100779Y93854D01*
X100899Y93444D01*
X100925Y93394D01*
X100959Y93313D01*
X101190Y92953D01*
X101229Y92913D01*
X101284Y92844D01*
X101607Y92565D01*
X101656Y92537D01*
X101728Y92487D01*
X102117Y92309D01*
X102171Y92297D01*
X102255Y92269D01*
X102678Y92208D01*
X102711Y92210D01*
X102750Y92203D01*
X108741Y92203D01*
X108941Y92196D01*
X108989Y92204D01*
G37*
D10*
X148475Y101984D02*
X148475Y104586D01*
X151677Y104586D01*
X151677Y101984D01*
X148475Y101984D01*
X151677Y110584D02*
X151677Y113186D01*
X151677Y110584D02*
X148475Y110584D01*
X148475Y113186D01*
X151677Y113186D01*
X126288Y89076D02*
X126288Y86474D01*
X126288Y89076D02*
X129490Y89076D01*
X129490Y86474D01*
X126288Y86474D01*
X129490Y95074D02*
X129490Y97676D01*
X129490Y95074D02*
X126288Y95074D01*
X126288Y97676D01*
X129490Y97676D01*
X128310Y32809D02*
X130912Y32809D01*
X128310Y32809D02*
X128310Y36011D01*
X130912Y36011D01*
X130912Y32809D01*
X122312Y36011D02*
X119710Y36011D01*
X122312Y36011D02*
X122312Y32809D01*
X119710Y32809D01*
X119710Y36011D01*
X28161Y111345D02*
X28161Y113947D01*
X31363Y113947D01*
X31363Y111345D01*
X28161Y111345D01*
X31363Y119945D02*
X31363Y122547D01*
X31363Y119945D02*
X28161Y119945D01*
X28161Y122547D01*
X31363Y122547D01*
X128173Y23184D02*
X130775Y23184D01*
X128173Y23184D02*
X128173Y26386D01*
X130775Y26386D01*
X130775Y23184D01*
X122175Y26386D02*
X119573Y26386D01*
X122175Y26386D02*
X122175Y23184D01*
X119573Y23184D01*
X119573Y26386D01*
X25120Y87891D02*
X25120Y90493D01*
X25120Y87891D02*
X21918Y87891D01*
X21918Y90493D01*
X25120Y90493D01*
X21918Y81893D02*
X21918Y79291D01*
X21918Y81893D02*
X25120Y81893D01*
X25120Y79291D01*
X21918Y79291D01*
D11*
X35578Y46280D02*
X35578Y41320D01*
X26418Y41320D01*
X26418Y46280D01*
X35578Y46280D01*
X26418Y27580D02*
X26418Y22620D01*
X26418Y27580D02*
X35578Y27580D01*
X35578Y22620D01*
X26418Y22620D01*
D10*
X156579Y131171D02*
X159181Y131171D01*
X156579Y131171D02*
X156579Y134373D01*
X159181Y134373D01*
X159181Y131171D01*
X150581Y134373D02*
X147979Y134373D01*
X150581Y134373D02*
X150581Y131171D01*
X147979Y131171D01*
X147979Y134373D01*
D12*
X138193Y113350D02*
X138193Y110682D01*
X138193Y113350D02*
X141461Y113350D01*
X141461Y110682D01*
X138193Y110682D01*
X138193Y104710D02*
X138193Y102042D01*
X138193Y104710D02*
X141461Y104710D01*
X141461Y102042D01*
X138193Y102042D01*
X150198Y69097D02*
X150198Y66429D01*
X146930Y66429D01*
X146930Y69097D01*
X150198Y69097D01*
X150198Y75069D02*
X150198Y77737D01*
X150198Y75069D02*
X146930Y75069D01*
X146930Y77737D01*
X150198Y77737D01*
X130795Y63216D02*
X128127Y63216D01*
X128127Y66484D01*
X130795Y66484D01*
X130795Y63216D01*
X136767Y63216D02*
X139435Y63216D01*
X136767Y63216D02*
X136767Y66484D01*
X139435Y66484D01*
X139435Y63216D01*
X156910Y123935D02*
X159578Y123935D01*
X159578Y120667D01*
X156910Y120667D01*
X156910Y123935D01*
X150938Y123935D02*
X148270Y123935D01*
X150938Y123935D02*
X150938Y120667D01*
X148270Y120667D01*
X148270Y123935D01*
X130557Y74249D02*
X127889Y74249D01*
X127889Y77517D01*
X130557Y77517D01*
X130557Y74249D01*
X136529Y74249D02*
X139197Y74249D01*
X136529Y74249D02*
X136529Y77517D01*
X139197Y77517D01*
X139197Y74249D01*
X61974Y28394D02*
X61974Y25726D01*
X58706Y25726D01*
X58706Y28394D01*
X61974Y28394D01*
X61974Y34366D02*
X61974Y37034D01*
X61974Y34366D02*
X58706Y34366D01*
X58706Y37034D01*
X61974Y37034D01*
X97211Y36899D02*
X97211Y34231D01*
X97211Y36899D02*
X100479Y36899D01*
X100479Y34231D01*
X97211Y34231D01*
X97211Y28259D02*
X97211Y25591D01*
X97211Y28259D02*
X100479Y28259D01*
X100479Y25591D01*
X97211Y25591D01*
D13*
X1397Y85836D03*
X1397Y98536D03*
X1397Y111236D03*
X1397Y123936D03*
X1397Y136636D03*
X1397Y73136D03*
X1397Y60436D03*
X1397Y47736D03*
X1397Y35036D03*
X77597Y161671D03*
X90297Y161671D03*
X102997Y161671D03*
X115697Y161671D03*
X128397Y161671D03*
X64897Y161671D03*
X52197Y161671D03*
X39497Y161671D03*
X26797Y161671D03*
X77680Y1232D03*
X90380Y1232D03*
X103080Y1232D03*
X115780Y1232D03*
X128480Y1232D03*
X64980Y1232D03*
X52280Y1232D03*
X39580Y1232D03*
X26880Y1232D03*
D10*
X127739Y55991D02*
X130341Y55991D01*
X130341Y52789D01*
X127739Y52789D01*
X127739Y55991D01*
X136339Y52789D02*
X138941Y52789D01*
X136339Y52789D02*
X136339Y55991D01*
X138941Y55991D01*
X138941Y52789D01*
X131331Y42849D02*
X128729Y42849D01*
X128729Y46051D01*
X131331Y46051D01*
X131331Y42849D01*
X122731Y46051D02*
X120129Y46051D01*
X122731Y46051D02*
X122731Y42849D01*
X120129Y42849D01*
X120129Y46051D01*
X104951Y16841D02*
X102349Y16841D01*
X104951Y16841D02*
X104951Y13639D01*
X102349Y13639D01*
X102349Y16841D01*
X110949Y13639D02*
X113551Y13639D01*
X110949Y13639D02*
X110949Y16841D01*
X113551Y16841D01*
X113551Y13639D01*
X129041Y13452D02*
X131643Y13452D01*
X129041Y13452D02*
X129041Y16654D01*
X131643Y16654D01*
X131643Y13452D01*
X123043Y16654D02*
X120441Y16654D01*
X123043Y16654D02*
X123043Y13452D01*
X120441Y13452D01*
X120441Y16654D01*
D14*
X72354Y25260D03*
X86854Y25260D03*
X86854Y36760D03*
X72354Y36760D03*
M02*
