G04 EAGLE Gerber RS-274X export*
G75*
%MOMM*%
%FSLAX34Y34*%
%LPD*%
%INSolderpaste Top*%
%IPPOS*%
%AMOC8*
5,1,8,0,0,1.08239X$1,22.5*%
G01*
%ADD10C,0.280800*%
%ADD11C,0.500000*%
%ADD12C,0.270000*%
%ADD13C,0.250000*%
%ADD14R,0.654191X0.247359*%
%ADD15R,0.655331X0.247431*%
%ADD16R,0.651969X0.249341*%
%ADD17R,0.654269X0.249209*%
%ADD18R,0.652981X0.249891*%
%ADD19R,0.655650X0.250628*%
%ADD20R,0.651059X0.250275*%
%ADD21R,0.653141X0.251281*%
%ADD22R,0.655359X0.252981*%
%ADD23R,0.651481X0.251041*%
%ADD24R,0.250031X0.650031*%
%ADD25R,0.253631X0.652369*%
%ADD26R,0.254619X0.652291*%
%ADD27R,0.252750X0.650931*%
%ADD28R,0.251419X0.650259*%
%ADD29R,0.253169X0.650075*%
%ADD30R,0.253241X0.649566*%
%ADD31R,0.251019X0.649703*%
%ADD32R,0.251359X0.649391*%
%ADD33R,0.253259X0.648019*%
%ADD34R,0.646209X0.253300*%
%ADD35R,0.649709X0.250200*%
%ADD36R,0.648831X0.250591*%
%ADD37R,0.646019X0.251278*%
%ADD38R,0.647469X0.250350*%
%ADD39R,0.647719X0.249897*%
%ADD40R,0.646281X0.249147*%
%ADD41R,0.644681X0.247800*%
%ADD42R,0.648841X0.249309*%
%ADD43R,0.650000X0.250000*%
%ADD44R,0.246700X0.647831*%
%ADD45R,0.246041X0.648069*%
%ADD46R,0.249509X0.649847*%
%ADD47R,0.245269X0.649313*%
%ADD48R,0.249941X0.650003*%
%ADD49R,0.246369X0.650713*%
%ADD50R,0.248941X0.650391*%
%ADD51R,0.246781X0.651731*%
%ADD52R,0.249800X0.650141*%
%ADD53R,0.247050X0.652600*%
%ADD54R,1.201931X1.199259*%
%ADD55R,1.200338X1.200338*%
%ADD56R,1.203350X1.201031*%
%ADD57R,1.199672X1.200263*%
%ADD58R,1.200109X1.199866*%
%ADD59R,1.199812X1.199812*%
%ADD60R,1.202841X1.202841*%
%ADD61R,1.200081X1.200269*%
%ADD62R,1.199278X1.201869*%
%ADD63R,0.850000X0.950000*%


D10*
X61841Y147210D02*
X59249Y147210D01*
X59249Y150402D01*
X61841Y150402D01*
X61841Y147210D01*
X61841Y149878D02*
X59249Y149878D01*
X53241Y150402D02*
X50649Y150402D01*
X53241Y150402D02*
X53241Y147210D01*
X50649Y147210D01*
X50649Y150402D01*
X50649Y149878D02*
X53241Y149878D01*
X74759Y125023D02*
X77351Y125023D01*
X74759Y125023D02*
X74759Y128215D01*
X77351Y128215D01*
X77351Y125023D01*
X77351Y127691D02*
X74759Y127691D01*
X68751Y128215D02*
X66159Y128215D01*
X68751Y128215D02*
X68751Y125023D01*
X66159Y125023D01*
X66159Y128215D01*
X66159Y127691D02*
X68751Y127691D01*
X131016Y127045D02*
X131016Y129637D01*
X131016Y127045D02*
X127824Y127045D01*
X127824Y129637D01*
X131016Y129637D01*
X127824Y121037D02*
X127824Y118445D01*
X127824Y121037D02*
X131016Y121037D01*
X131016Y118445D01*
X127824Y118445D01*
X40548Y26380D02*
X40548Y23788D01*
X40548Y26380D02*
X43740Y26380D01*
X43740Y23788D01*
X40548Y23788D01*
X43740Y32388D02*
X43740Y34980D01*
X43740Y32388D02*
X40548Y32388D01*
X40548Y34980D01*
X43740Y34980D01*
X140641Y126908D02*
X140641Y129500D01*
X140641Y126908D02*
X137449Y126908D01*
X137449Y129500D01*
X140641Y129500D01*
X137449Y120900D02*
X137449Y118308D01*
X137449Y120900D02*
X140641Y120900D01*
X140641Y118308D01*
X137449Y118308D01*
X75934Y23845D02*
X73342Y23845D01*
X75934Y23845D02*
X75934Y20653D01*
X73342Y20653D01*
X73342Y23845D01*
X73342Y23321D02*
X75934Y23321D01*
X81942Y20653D02*
X84534Y20653D01*
X81942Y20653D02*
X81942Y23845D01*
X84534Y23845D01*
X84534Y20653D01*
X84534Y23321D02*
X81942Y23321D01*
D11*
X117530Y34328D02*
X122530Y34328D01*
X122530Y25128D01*
X117530Y25128D01*
X117530Y34328D01*
X117530Y29878D02*
X122530Y29878D01*
X136230Y25128D02*
X141230Y25128D01*
X136230Y25128D02*
X136230Y34328D01*
X141230Y34328D01*
X141230Y25128D01*
X141230Y29878D02*
X136230Y29878D01*
D10*
X32654Y155314D02*
X32654Y157906D01*
X32654Y155314D02*
X29462Y155314D01*
X29462Y157906D01*
X32654Y157906D01*
X29462Y149306D02*
X29462Y146714D01*
X29462Y149306D02*
X32654Y149306D01*
X32654Y146714D01*
X29462Y146714D01*
D12*
X50464Y136907D02*
X53164Y136907D01*
X50464Y136907D02*
X50464Y140207D01*
X53164Y140207D01*
X53164Y136907D01*
X53164Y139472D02*
X50464Y139472D01*
X59104Y136907D02*
X61804Y136907D01*
X59104Y136907D02*
X59104Y140207D01*
X61804Y140207D01*
X61804Y136907D01*
X61804Y139472D02*
X59104Y139472D01*
X95230Y149001D02*
X97930Y149001D01*
X97930Y145701D01*
X95230Y145701D01*
X95230Y149001D01*
X95230Y148266D02*
X97930Y148266D01*
X89290Y149001D02*
X86590Y149001D01*
X89290Y149001D02*
X89290Y145701D01*
X86590Y145701D01*
X86590Y149001D01*
X86590Y148266D02*
X89290Y148266D01*
X100630Y129541D02*
X100630Y126841D01*
X97330Y126841D01*
X97330Y129541D01*
X100630Y129541D01*
X100630Y129406D02*
X97330Y129406D01*
X100630Y135481D02*
X100630Y138181D01*
X100630Y135481D02*
X97330Y135481D01*
X97330Y138181D01*
X100630Y138181D01*
X100630Y138046D02*
X97330Y138046D01*
X39879Y155624D02*
X39879Y158324D01*
X43179Y158324D01*
X43179Y155624D01*
X39879Y155624D01*
X39879Y158189D02*
X43179Y158189D01*
X39879Y149684D02*
X39879Y146984D01*
X39879Y149684D02*
X43179Y149684D01*
X43179Y146984D01*
X39879Y146984D01*
X39879Y149549D02*
X43179Y149549D01*
X89597Y129303D02*
X89597Y126603D01*
X86297Y126603D01*
X86297Y129303D01*
X89597Y129303D01*
X89597Y129168D02*
X86297Y129168D01*
X89597Y135243D02*
X89597Y137943D01*
X89597Y135243D02*
X86297Y135243D01*
X86297Y137943D01*
X89597Y137943D01*
X89597Y137808D02*
X86297Y137808D01*
X135420Y60720D02*
X138120Y60720D01*
X138120Y57420D01*
X135420Y57420D01*
X135420Y60720D01*
X135420Y59985D02*
X138120Y59985D01*
X129480Y60720D02*
X126780Y60720D01*
X129480Y60720D02*
X129480Y57420D01*
X126780Y57420D01*
X126780Y60720D01*
X126780Y59985D02*
X129480Y59985D01*
X129615Y95925D02*
X126915Y95925D01*
X126915Y99225D01*
X129615Y99225D01*
X129615Y95925D01*
X129615Y98490D02*
X126915Y98490D01*
X135555Y95925D02*
X138255Y95925D01*
X135555Y95925D02*
X135555Y99225D01*
X138255Y99225D01*
X138255Y95925D01*
X138255Y98490D02*
X135555Y98490D01*
D13*
X99370Y51480D03*
X99370Y56480D03*
X99370Y61480D03*
X99370Y66480D03*
X99370Y71480D03*
X99370Y76480D03*
X99370Y81480D03*
X99370Y86480D03*
X99370Y91480D03*
X99370Y96480D03*
X94620Y101230D03*
X89620Y101230D03*
X84620Y101230D03*
X79620Y101230D03*
X74620Y101230D03*
X69620Y101230D03*
X64620Y101230D03*
X59620Y101230D03*
X54620Y101230D03*
X49620Y101230D03*
X44870Y96480D03*
X44870Y91480D03*
X44870Y86480D03*
X44870Y81480D03*
X44870Y76480D03*
X44870Y71480D03*
X44870Y66480D03*
X44870Y61480D03*
X44870Y56480D03*
X44870Y51480D03*
X49620Y46730D03*
X54620Y46730D03*
X59620Y46730D03*
X64620Y46730D03*
X69620Y46730D03*
X74620Y46730D03*
X79620Y46730D03*
X84620Y46730D03*
X89620Y46730D03*
X94620Y46730D03*
D14*
X102641Y51467D03*
D15*
X102647Y56467D03*
D16*
X102630Y61477D03*
D17*
X102641Y66476D03*
D18*
X102635Y71479D03*
D19*
X102648Y76483D03*
D20*
X102625Y81481D03*
D21*
X102636Y86486D03*
D22*
X102647Y91495D03*
D23*
X102627Y96485D03*
D24*
X94620Y104480D03*
D25*
X89632Y104498D03*
D26*
X84631Y104503D03*
D27*
X79625Y104494D03*
D28*
X74621Y104487D03*
D29*
X69620Y104496D03*
D30*
X64618Y104496D03*
D31*
X59619Y104485D03*
D32*
X54617Y104487D03*
D33*
X49610Y104496D03*
D34*
X41601Y96497D03*
D35*
X41619Y91481D03*
D36*
X41614Y86483D03*
D37*
X41600Y81486D03*
D38*
X41607Y76482D03*
D39*
X41609Y71480D03*
D40*
X41601Y66476D03*
D41*
X41593Y61469D03*
D42*
X41614Y56477D03*
D43*
X41620Y51480D03*
D44*
X49609Y43464D03*
D45*
X54610Y43460D03*
D46*
X59619Y43478D03*
D47*
X64617Y43456D03*
D48*
X69620Y43480D03*
D49*
X74624Y43462D03*
D50*
X79622Y43475D03*
D51*
X84629Y43464D03*
D52*
X89621Y43479D03*
D53*
X94633Y43465D03*
D54*
X85630Y60476D03*
D55*
X72122Y73982D03*
D56*
X85637Y73985D03*
D57*
X58618Y73981D03*
D58*
X72121Y60479D03*
D59*
X58619Y60479D03*
D60*
X85634Y87494D03*
D61*
X72120Y87481D03*
D62*
X58616Y87489D03*
D10*
X107844Y126474D02*
X107844Y129066D01*
X111036Y129066D01*
X111036Y126474D01*
X107844Y126474D01*
X111036Y135074D02*
X111036Y137666D01*
X111036Y135074D02*
X107844Y135074D01*
X107844Y137666D01*
X111036Y137666D01*
X120976Y130056D02*
X120976Y127464D01*
X117784Y127464D01*
X117784Y130056D01*
X120976Y130056D01*
X117784Y121456D02*
X117784Y118864D01*
X117784Y121456D02*
X120976Y121456D01*
X120976Y118864D01*
X117784Y118864D01*
X146994Y103676D02*
X146994Y101084D01*
X146994Y103676D02*
X150186Y103676D01*
X150186Y101084D01*
X146994Y101084D01*
X150186Y109684D02*
X150186Y112276D01*
X150186Y109684D02*
X146994Y109684D01*
X146994Y112276D01*
X150186Y112276D01*
X150304Y127298D02*
X150304Y129890D01*
X150304Y127298D02*
X147112Y127298D01*
X147112Y129890D01*
X150304Y129890D01*
X147112Y121290D02*
X147112Y118698D01*
X147112Y121290D02*
X150304Y121290D01*
X150304Y118698D01*
X147112Y118698D01*
D63*
X138570Y71084D03*
X138570Y85584D03*
X127070Y85584D03*
X127070Y71084D03*
M02*
