M48
;GenerationSoftware,Autodesk,EAGLE,9.6.2*%
;CreationDate,2022-04-14T12:49:05Z*%
FMAT,2
ICI,OFF
METRIC,TZ,000.000
T4C0.300
T3C0.650
T2C0.700
T1C1.016
%
G90
M71
T1
X24400Y27880
X24400Y15180
X24400Y12640
X24400Y10100
X24400Y7560
X24400Y5020
X24400Y2480
X1600Y35500
X1600Y32960
X1600Y30420
X1600Y27880
X1600Y25340
X1600Y22800
X1600Y20260
X1600Y17720
X1600Y15180
X1600Y12640
X1600Y10100
X1600Y7560
X1600Y5020
X1600Y2480
X24400Y35500
X24400Y32960
X24400Y30420
X24400Y25340
X24400Y22800
X24400Y20260
X24400Y17720
T2
X10110Y6750
X15890Y6750
T3
X17320Y7280
X8680Y7280
X8680Y3100
X17320Y3100
T4
X4900Y9800
X14100Y11000
X11700Y15300
X16900Y12600
X6500Y29000
X4500Y2700
X23300Y37500
X11400Y36200
X10000Y20500
X5500Y15300
X11300Y20500
X12500Y20500
X13800Y20500
X15100Y20500
X8400Y28200
X14400Y28200
X11400Y28200
X4500Y15100
X8400Y25200
X8400Y22200
X11400Y25200
X11400Y22200
X14400Y25200
X14400Y22200
X8400Y36200
X14400Y36200
X17400Y36200
X20400Y36200
X21300Y18200
X21300Y15200
X8400Y15200
X4400Y19200
X2400Y37200
X6100Y34000
X19500Y28200
X17400Y22200
X17400Y25200
X12800Y6900
X17400Y28200
X18900Y9900
X5400Y6700
X16400Y21300
X8500Y30900
X16300Y32700
X16400Y9700
X15100Y11200
X14100Y6900
X4300Y7200
M30